<svg width="50" height="54" viewBox="0 0 50 54" fill="none" xmlns="http://www.w3.org/2000/svg">
<g id="Frame 277131281">
<g id="Clip path group">
<mask id="mask0_1215_17651" style="mask-type:luminance" maskUnits="userSpaceOnUse" x="4" y="6" width="46" height="48">
<g id="3763692f1b">
<path id="Vector" d="M4.1499 6.43457H49.5321V53.6871H4.1499V6.43457Z" fill="white"/>
</g>
</mask>
<g mask="url(#mask0_1215_17651)">
<g id="Group">
<path id="Vector_2" d="M49.1744 52.9576C49.2075 52.9117 49.2398 52.8657 49.2681 52.8173C49.2981 52.7673 49.3241 52.7164 49.3477 52.6639C49.3729 52.6114 49.3966 52.5581 49.4163 52.5023C49.4367 52.4474 49.4525 52.3916 49.4667 52.3341C49.4801 52.2784 49.4943 52.2234 49.5029 52.1668C49.514 52.102 49.5179 52.0372 49.5218 51.9707C49.5242 51.9346 49.5321 51.901 49.5321 51.8641C49.5321 51.8452 49.5274 51.8288 49.5274 51.8108C49.525 51.746 49.5171 51.6803 49.5084 51.6147C49.5006 51.5581 49.4943 51.5023 49.4817 51.4473C49.4691 51.3932 49.4501 51.3407 49.4336 51.2874C49.4123 51.2242 49.3926 51.161 49.3658 51.1012C49.3587 51.0847 49.3556 51.0675 49.3477 51.0511L41.4925 34.6941C41.0631 33.7974 40.0136 33.4332 39.1509 33.8811C38.2882 34.3299 37.9391 35.4209 38.3701 36.32L44.9623 50.047H39.0059L35.6629 42.8911C35.6464 42.8558 35.6228 42.8271 35.6046 42.7934C35.5731 42.736 35.5424 42.6786 35.5046 42.6244C35.4715 42.5769 35.4352 42.5342 35.399 42.4907C35.3612 42.4464 35.3242 42.403 35.2824 42.3628C35.2406 42.3217 35.1965 42.2865 35.1516 42.2504C35.1075 42.2143 35.0626 42.179 35.0137 42.1478C34.968 42.1183 34.92 42.0929 34.8719 42.0682C34.8191 42.0404 34.7663 42.0141 34.7112 41.9911C34.66 41.9714 34.6088 41.9559 34.5568 41.9419C34.5008 41.9255 34.4449 41.9099 34.3874 41.8993C34.3267 41.8886 34.266 41.8845 34.2054 41.8804C34.1667 41.8771 34.1305 41.8681 34.0919 41.8681H19.6082C19.5672 41.8681 19.5294 41.8771 19.49 41.8804C19.4301 41.8845 19.3711 41.8886 19.3128 41.8993C19.2537 41.9099 19.1969 41.9263 19.141 41.9427C19.0898 41.9575 19.0386 41.9714 18.9889 41.9928C18.933 42.0141 18.8802 42.0412 18.8274 42.0691C18.7786 42.0937 18.7313 42.1199 18.6856 42.1503C18.6375 42.1815 18.5934 42.2167 18.5493 42.252C18.5028 42.2881 18.4595 42.3242 18.4169 42.3644C18.376 42.4038 18.3389 42.4473 18.3019 42.4924C18.2657 42.5359 18.2286 42.5793 18.1955 42.6269C18.1585 42.6794 18.1278 42.7368 18.0963 42.7951C18.0781 42.8279 18.0545 42.8566 18.038 42.8919L14.695 50.0478H8.71964L14.8289 37.325H31.6502C32.6138 37.325 33.3962 36.512 33.3962 35.5071C33.3962 34.503 32.6146 33.6892 31.6502 33.6892H16.5749L26.8418 12.3083L33.6341 26.4528H26.8418C25.8782 26.4528 25.0958 27.2666 25.0958 28.2707C25.0958 29.274 25.8774 30.0886 26.8418 30.0886H36.4563C36.4571 30.0886 36.4587 30.0886 36.4603 30.0886C36.4697 30.0886 36.48 30.0854 36.4894 30.0854C36.6076 30.0837 36.7226 30.0698 36.833 30.0443C36.866 30.0369 36.8976 30.0222 36.9306 30.0123C37.022 29.9853 37.1111 29.9541 37.1954 29.9123C37.2096 29.9049 37.2245 29.9032 37.2387 29.8958C37.2694 29.8794 37.2954 29.8565 37.3246 29.8392C37.3797 29.8056 37.4333 29.7728 37.4845 29.7342C37.5302 29.6998 37.572 29.662 37.6137 29.6235C37.6555 29.5849 37.6965 29.5456 37.7343 29.5029C37.7737 29.4586 37.8099 29.4118 37.8446 29.3643C37.8777 29.3183 37.9092 29.2732 37.9391 29.224C37.9691 29.1748 37.9943 29.1239 38.0187 29.0706C38.0439 29.0181 38.0676 28.9656 38.0873 28.909C38.1077 28.854 38.1235 28.7982 38.1369 28.7416C38.1511 28.685 38.1653 28.63 38.1739 28.5734C38.185 28.5095 38.1889 28.4438 38.1928 28.3782C38.1952 28.3421 38.2031 28.3085 38.2031 28.2715C38.2031 28.2535 38.1984 28.2363 38.1984 28.219C38.196 28.1534 38.1881 28.0886 38.1794 28.0222C38.1708 27.9664 38.1653 27.9098 38.1534 27.8548C38.1416 27.8015 38.1219 27.7473 38.1054 27.6948C38.0841 27.6317 38.0644 27.5693 38.0376 27.5086C38.0305 27.4922 38.0274 27.4758 38.0195 27.4594L28.4026 7.4313C28.3971 7.41817 28.3868 7.40915 28.3813 7.3952C28.3514 7.33532 28.3143 7.28035 28.2773 7.22457C28.2482 7.17945 28.2214 7.13433 28.1899 7.09413C28.1536 7.04819 28.1119 7.008 28.0725 6.96616C28.0307 6.92268 27.9905 6.87838 27.9456 6.83982C27.9078 6.80783 27.8652 6.77994 27.8235 6.75041C27.7691 6.71267 27.7148 6.67329 27.6572 6.64048C27.6454 6.63392 27.6352 6.62407 27.6226 6.61833C27.5887 6.60028 27.5525 6.59208 27.5178 6.57649C27.4595 6.55106 27.4012 6.52563 27.3421 6.50676C27.2869 6.49035 27.2334 6.47887 27.1774 6.46738C27.1231 6.45672 27.0679 6.44523 27.012 6.43949C26.9544 6.43457 26.8969 6.43457 26.8378 6.43457C26.7835 6.43457 26.7291 6.43457 26.6747 6.43949C26.6149 6.44606 26.5574 6.45754 26.4998 6.46985C26.4471 6.48133 26.3951 6.49035 26.3431 6.50676C26.2816 6.52645 26.2225 6.55188 26.1634 6.57731C26.1295 6.59208 26.0933 6.60028 26.0602 6.61833C26.0476 6.62407 26.0373 6.63474 26.0255 6.64048C25.968 6.67165 25.9152 6.71021 25.8617 6.74877C25.8199 6.7783 25.7758 6.80701 25.7372 6.83982C25.693 6.87674 25.6544 6.92104 25.6135 6.96288C25.5725 7.00554 25.53 7.04737 25.4929 7.09413C25.4622 7.13351 25.4354 7.17863 25.4078 7.22129C25.3708 7.27789 25.333 7.3345 25.3023 7.39438C25.2952 7.40669 25.2865 7.41735 25.2802 7.43048L4.33427 51.0511C4.32639 51.0675 4.32324 51.0847 4.31615 51.1012C4.28936 51.161 4.26809 51.2242 4.24839 51.2874C4.23184 51.3407 4.21372 51.3932 4.20033 51.4473C4.18851 51.5023 4.18142 51.5581 4.17354 51.6147C4.16487 51.6803 4.15699 51.746 4.15463 51.8108C4.15463 51.8288 4.1499 51.846 4.1499 51.8641C4.1499 51.9002 4.15778 51.9346 4.16014 51.9707C4.16408 52.0355 4.16802 52.1012 4.17905 52.1668C4.18772 52.2234 4.2019 52.2792 4.2153 52.3341C4.23027 52.3916 4.24524 52.4474 4.26572 52.5023C4.28542 52.5581 4.30906 52.6114 4.33427 52.6639C4.35869 52.7164 4.38469 52.7673 4.41384 52.8173C4.44221 52.8657 4.47451 52.9117 4.5076 52.9576C4.54227 53.0052 4.57772 53.052 4.61791 53.0963C4.65572 53.1389 4.69512 53.1767 4.73688 53.2152C4.77863 53.2546 4.82197 53.2923 4.86767 53.3276C4.9173 53.3653 4.97009 53.3973 5.02367 53.4301C5.05439 53.4482 5.08039 53.4712 5.1127 53.4892C5.12609 53.4966 5.14264 53.4982 5.15603 53.5056C5.23955 53.5458 5.32621 53.577 5.41603 53.6032C5.44991 53.6131 5.48379 53.6278 5.51767 53.636C5.62246 53.6598 5.7304 53.6713 5.84228 53.6754C5.85804 53.6754 5.87537 53.682 5.89113 53.682C5.89428 53.682 5.89664 53.6803 5.89901 53.6803H15.7775C15.7799 53.6803 15.7807 53.682 15.7822 53.682C15.8878 53.682 15.9926 53.668 16.0958 53.6484C16.1242 53.6434 16.151 53.6369 16.1778 53.6311C16.2621 53.6098 16.3448 53.5844 16.4244 53.5507C16.4409 53.545 16.4567 53.5409 16.4716 53.5335C16.563 53.4933 16.6497 53.4424 16.734 53.385C16.7553 53.3711 16.775 53.3555 16.7947 53.3399C16.8609 53.2907 16.9223 53.2382 16.9814 53.1791C16.9979 53.1627 17.0161 53.1455 17.0326 53.1283C17.1035 53.0528 17.1689 52.9724 17.2272 52.883C17.2319 52.8756 17.2351 52.8682 17.239 52.8608C17.28 52.7968 17.3178 52.7304 17.3517 52.659L20.6955 45.5031H32.9991L36.2531 52.4687C36.4382 53.0134 36.8621 53.4326 37.3963 53.5975C37.4168 53.6041 37.4365 53.6114 37.4562 53.6172C37.509 53.6319 37.5617 53.6434 37.6169 53.6525C37.6981 53.6672 37.7808 53.6762 37.8635 53.6787C37.8737 53.6787 37.8816 53.682 37.8911 53.682H37.9045C37.9076 53.682 37.9092 53.6828 37.9124 53.6828C37.9139 53.6828 37.9155 53.682 37.9171 53.682H47.7759C47.779 53.682 47.7822 53.6828 47.7838 53.6828C47.8003 53.6828 47.8169 53.6779 47.8326 53.6762C47.9437 53.6738 48.0532 53.6607 48.1572 53.6369C48.1919 53.6287 48.225 53.6147 48.2589 53.6041C48.3487 53.577 48.4361 53.5466 48.5189 53.5064C48.5338 53.4991 48.5488 53.4974 48.5622 53.49C48.5945 53.4736 48.6213 53.4498 48.6512 53.431C48.7048 53.399 48.7576 53.3653 48.8072 53.3284C48.8529 53.2931 48.8963 53.2554 48.938 53.216C48.9798 53.1783 49.0192 53.1397 49.057 53.0971C49.1043 53.052 49.1389 53.0052 49.1744 52.9576Z" fill="#1D3149"/>
</g>
</g>
</g>
<mask id="mask1_1215_17651" style="mask-type:luminance" maskUnits="userSpaceOnUse" x="0" y="0" width="16" height="16">
<g id="c0a4347fd0">
<path id="Vector_3" d="M15.6382 15.7925L0.510841 15.7925L0.510841 0.0416231L15.6382 0.0416231L15.6382 15.7925Z" fill="white"/>
</g>
</mask>
<g mask="url(#mask1_1215_17651)">
<g id="Group_2">
<path id="Vector_4" d="M14.558 6.79109H10.6863L13.4242 3.94118C13.8473 3.49983 13.8473 2.79187 13.4242 2.35051C13.2123 2.12984 12.9373 2.01991 12.6616 2.01991C12.3866 2.01991 12.1085 2.12984 11.8965 2.35051L9.15627 5.20453L9.15627 1.16921C9.15627 0.549018 8.67173 0.0453205 8.07609 0.0453205C7.48045 0.0453205 6.9959 0.549018 6.9959 1.16921V5.20124L4.25565 2.34723C4.04371 2.12738 3.76873 2.01663 3.49061 2.01663C3.21485 2.01663 2.93673 2.12738 2.72794 2.34723C2.308 2.78858 2.308 3.49737 2.72794 3.9379L5.46583 6.78863H1.59103C0.994601 6.78863 0.510841 7.29233 0.510841 7.91251C0.510841 8.53352 0.994601 9.03722 1.59103 9.03722L5.46899 9.03722L2.72794 11.8904C2.308 12.3318 2.308 13.043 2.72794 13.4811C3.15182 13.9216 3.83492 13.9216 4.25565 13.4811L6.9959 10.6279V14.6591C6.9959 15.2859 7.48045 15.7896 8.07609 15.7896C8.67173 15.7896 9.15627 15.2859 9.15627 14.6657V10.6336L11.8965 13.4876C12.3196 13.9282 13.0035 13.9282 13.4242 13.4876C13.8442 13.0463 13.8473 12.3375 13.4242 11.897L10.6832 9.04378H14.558C15.1544 9.0405 15.6382 8.53598 15.6382 7.91579C15.6382 7.29561 15.1544 6.79109 14.558 6.79109Z" fill="#FF7E31"/>
</g>
</g>
</g>
</svg>
