<svg width="446" height="436" viewBox="0 0 446 436" fill="none" xmlns="http://www.w3.org/2000/svg">
<path d="M4.85832 191.269C4.85832 191.269 22.8748 107.209 71.1507 54.8392C119.427 2.469 194.939 -14.4784 262.343 15.6428C329.747 45.7641 345.262 133.464 399.494 195.931C453.726 258.398 467.552 339.547 402.127 393.296C336.702 447.045 295.264 403.241 206.763 417.354C118.263 431.467 -28.565 387.299 4.85832 191.269Z" fill="#FF7E31" fill-opacity="0.1"/>
<path d="M367.898 135.991V183.652H299.433L296.965 136.325L367.898 135.991Z" fill="#E0E0E0"/>
<path d="M296.965 136.317V183.55H365.431V136.317H296.965Z" fill="white"/>
<path d="M365.75 183.876H296.617V135.983H365.728L365.75 183.876ZM297.292 183.231H365.104V136.673H297.292V183.231Z" fill="#E0E0E0"/>
<path d="M358.015 142.188H304.382V177.687H358.015V142.188Z" fill="white"/>
<path d="M358.015 142.188H357.746H356.984H354.038L342.986 142.231L304.382 142.311L304.534 142.152C304.534 153.036 304.534 165.017 304.534 177.643L304.367 177.476H358L357.862 177.614C357.862 166.809 357.92 157.956 357.935 151.788C357.935 148.704 357.935 146.295 357.971 144.648C357.971 143.828 357.971 143.196 357.971 142.768C357.971 142.34 357.971 142.115 357.971 142.115C357.971 142.115 357.971 142.326 357.971 142.739C357.971 143.153 357.971 143.784 357.971 144.59C357.971 146.237 357.971 148.632 358.007 151.701C358.007 157.891 358.044 166.773 358.073 177.614V177.745H357.942L304.309 177.781H304.142V177.614C304.142 164.988 304.142 152.942 304.142 142.122V141.97H304.302L343.008 142.043L354.023 142.086H356.926H357.92L358.015 142.188Z" fill="#E0E0E0"/>
<path d="M296.965 136.187C297.384 136.382 297.779 136.626 298.141 136.912C298.867 137.42 299.795 138.139 300.826 138.959C301.856 139.779 302.763 140.562 303.402 141.136C303.771 141.425 304.1 141.762 304.381 142.137C303.078 141.233 301.821 140.264 300.615 139.234C299.334 138.299 298.115 137.281 296.965 136.187Z" fill="#E0E0E0"/>
<path d="M365.431 136.324C364.295 137.429 363.082 138.452 361.802 139.387C360.6 140.409 359.327 141.345 357.993 142.188C359.127 141.082 360.34 140.058 361.621 139.125C362.818 138.097 364.092 137.161 365.431 136.324Z" fill="#E0E0E0"/>
<path d="M365.373 183.557L357.739 177.375L365.373 183.557Z" fill="white"/>
<path d="M357.739 177.375C359.112 178.272 360.424 179.261 361.665 180.335C362.971 181.326 364.209 182.402 365.373 183.557C363.997 182.662 362.685 181.673 361.447 180.597C360.139 179.608 358.9 178.532 357.739 177.375Z" fill="#E0E0E0"/>
<path d="M296.965 183.557C298.076 182.457 299.267 181.441 300.528 180.517C301.718 179.506 302.979 178.582 304.302 177.752C303.187 178.846 301.997 179.86 300.739 180.785C299.549 181.799 298.288 182.725 296.965 183.557Z" fill="#E0E0E0"/>
<path d="M315.273 153.247V165.133H349.016V153.247H315.273Z" fill="#E0E0E0"/>
<path d="M178.633 109.272C178.633 109.272 178.575 109.272 178.467 109.221L177.98 109.033L176.152 108.307L169.447 105.404L147.38 95.7896L146.618 95.4558H146.777L125.153 104.701L118.622 107.444L116.837 108.169C116.633 108.263 116.422 108.338 116.206 108.394C116.399 108.281 116.6 108.182 116.808 108.097L118.557 107.298L125.088 104.396L146.661 95.0421L146.741 95.0059L146.821 95.0421L147.583 95.3759L169.599 105.1L176.261 108.089L178.06 108.917L178.525 109.142C178.564 109.183 178.6 109.226 178.633 109.272Z" fill="#E0E0E0"/>
<path d="M213.051 106.108H71.3384V212.221H213.051V106.108Z" fill="#E0E0E0"/>
<path d="M208.632 111.043H76.2944V207.859H208.632V111.043Z" fill="#FAFAFA"/>
<path d="M105.524 153.363C105.524 153.363 105.662 169.617 106.489 174.574L126.873 173.608C126.873 173.608 125.08 157.644 125.77 153.363H105.524Z" fill="#E0E0E0"/>
<path d="M115.559 155.641C115.559 155.641 115.559 155.641 115.639 155.641H115.857C116.141 155.631 116.425 155.645 116.706 155.685C117.155 155.752 117.592 155.881 118.005 156.069C118.547 156.34 119.026 156.721 119.413 157.187C119.882 157.761 120.217 158.433 120.392 159.153C120.549 159.997 120.473 160.867 120.175 161.671C120.021 162.106 119.829 162.526 119.601 162.927C119.376 163.34 119.144 163.747 118.948 164.197C118.541 165.121 118.265 166.098 118.128 167.099V167.165H118.063L116.053 167.201H113.941H113.869V167.15C113.781 166.155 113.447 165.197 112.896 164.364C112.65 163.95 112.381 163.558 112.127 163.159C111.873 162.76 111.612 162.433 111.401 161.991C111.025 161.221 110.913 160.349 111.082 159.509C111.198 158.784 111.465 158.092 111.866 157.477C112.214 156.985 112.668 156.576 113.194 156.28C113.586 156.065 114.006 155.904 114.442 155.801C114.716 155.733 114.995 155.687 115.276 155.663H115.494C115.545 155.663 115.567 155.663 115.567 155.663H115.494H115.276C115 155.697 114.726 155.75 114.456 155.823C114.027 155.935 113.615 156.103 113.23 156.323C112.721 156.616 112.284 157.021 111.953 157.506C111.575 158.114 111.328 158.793 111.227 159.502C111.069 160.316 111.181 161.159 111.547 161.904C111.769 162.3 112.011 162.685 112.272 163.057C112.519 163.442 112.795 163.841 113.041 164.262C113.609 165.116 113.953 166.099 114.043 167.121L113.97 167.041H116.082H118.092L118.019 167.114C118.162 166.1 118.445 165.111 118.861 164.175C119.057 163.725 119.297 163.297 119.522 162.891C119.753 162.5 119.942 162.087 120.088 161.657C120.383 160.862 120.451 160 120.283 159.168C120.119 158.465 119.8 157.808 119.347 157.245C118.974 156.785 118.509 156.407 117.983 156.135C117.581 155.943 117.153 155.808 116.713 155.736C116.435 155.693 116.153 155.669 115.872 155.663H115.574L115.559 155.641Z" fill="white"/>
<path d="M116.612 166.961C116.61 166.94 116.61 166.918 116.612 166.896V166.708C116.612 166.541 116.547 166.294 116.496 165.982C116.409 165.351 116.271 164.429 116.176 163.29C116.176 163.007 116.176 162.709 116.126 162.397C116.075 162.085 116.126 161.759 116.126 161.417C116.136 161.067 116.215 160.722 116.358 160.402C116.509 160.054 116.787 159.777 117.134 159.625C117.32 159.547 117.524 159.526 117.721 159.563C117.919 159.601 118.101 159.695 118.245 159.836C118.319 159.908 118.379 159.995 118.42 160.091C118.461 160.187 118.483 160.29 118.484 160.394C118.477 160.605 118.404 160.809 118.274 160.975C118.146 161.148 117.976 161.285 117.78 161.374C117.589 161.465 117.386 161.531 117.178 161.57C116.755 161.661 116.325 161.712 115.893 161.722C115.459 161.737 115.025 161.715 114.595 161.657C114.384 161.629 114.179 161.57 113.985 161.483C113.791 161.397 113.616 161.274 113.47 161.12C113.324 160.968 113.221 160.78 113.172 160.576C113.13 160.37 113.155 160.156 113.245 159.966C113.331 159.78 113.483 159.632 113.673 159.553C113.859 159.476 114.068 159.476 114.253 159.553C114.429 159.634 114.58 159.762 114.689 159.923C114.791 160.077 114.862 160.249 114.899 160.431C114.967 160.772 115.003 161.12 115.008 161.468C115.008 162.136 115.073 162.76 115.102 163.333C115.161 164.472 115.204 165.394 115.24 166.04C115.24 166.352 115.24 166.599 115.24 166.766V166.954C115.242 166.976 115.242 166.998 115.24 167.02C115.237 166.998 115.237 166.976 115.24 166.954C115.24 166.911 115.24 166.845 115.24 166.766C115.24 166.686 115.24 166.352 115.19 166.04C115.19 165.401 115.102 164.472 115.037 163.333C115.037 162.767 114.972 162.143 114.928 161.468C114.923 161.123 114.889 160.778 114.827 160.438C114.786 160.265 114.714 160.1 114.616 159.952C114.511 159.804 114.372 159.685 114.21 159.603C114.038 159.535 113.845 159.535 113.673 159.603C113.497 159.675 113.356 159.813 113.281 159.988C113.192 160.162 113.166 160.363 113.209 160.554C113.256 160.748 113.353 160.925 113.492 161.069C113.789 161.36 114.174 161.543 114.587 161.592C115.438 161.698 116.3 161.669 117.142 161.505C117.347 161.465 117.547 161.399 117.737 161.309C117.918 161.22 118.077 161.091 118.201 160.931C118.324 160.776 118.393 160.585 118.397 160.387C118.399 160.291 118.381 160.195 118.343 160.106C118.306 160.017 118.25 159.937 118.179 159.872C118.043 159.741 117.872 159.652 117.687 159.616C117.501 159.58 117.31 159.598 117.134 159.669C116.815 159.818 116.558 160.075 116.409 160.394C116.268 160.71 116.19 161.05 116.176 161.396C116.176 161.73 116.176 162.056 116.176 162.361C116.176 162.666 116.176 162.97 116.22 163.261C116.307 164.4 116.438 165.314 116.525 165.946C116.525 166.265 116.597 166.504 116.619 166.671V166.86C116.609 166.893 116.606 166.928 116.612 166.961Z" fill="white"/>
<path d="M113.927 167.07C113.927 167.07 113.927 167.324 113.978 167.745C114.028 168.166 114.036 168.826 114.072 169.509V169.465L115.443 171.047H115.378L116.96 170.96H116.895L117.686 169.995L118.077 169.509V169.574C118.077 168.645 118.034 167.76 118.012 166.962L118.099 167.041H115.139H113.963C114.057 167.032 114.152 167.032 114.246 167.041L115.081 166.998L118.099 166.882H118.179V166.969C118.179 167.774 118.23 168.652 118.252 169.581L117.86 170.06L117.069 171.025L115.48 171.105H115.436L114.094 169.501C114.094 168.776 114.094 168.195 114.094 167.687C114.022 167.486 113.966 167.28 113.927 167.07Z" fill="white"/>
<path d="M118.019 169.363L117.867 169.298C117.733 169.237 117.594 169.183 117.453 169.139C116.988 168.975 116.495 168.901 116.002 168.921C115.516 168.935 115.036 169.038 114.587 169.226C114.45 169.28 114.317 169.343 114.188 169.414L114.036 169.487C114.075 169.447 114.122 169.415 114.174 169.392C114.3 169.314 114.43 169.244 114.565 169.182C115.024 168.981 115.516 168.87 116.017 168.856C116.511 168.845 117.003 168.926 117.468 169.095C117.607 169.146 117.743 169.207 117.874 169.276C117.925 169.301 117.974 169.33 118.019 169.363Z" fill="white"/>
<path d="M118.02 168.732L117.867 168.667C117.773 168.623 117.635 168.565 117.454 168.5C116.527 168.18 115.515 168.211 114.609 168.587C114.435 168.66 114.297 168.725 114.203 168.776C114.108 168.826 114.065 168.855 114.058 168.848L114.195 168.754C114.321 168.677 114.452 168.609 114.587 168.551C115.044 168.346 115.538 168.235 116.039 168.224C116.534 168.204 117.028 168.286 117.49 168.464C117.632 168.514 117.77 168.575 117.904 168.645C117.945 168.67 117.984 168.699 118.02 168.732Z" fill="white"/>
<path d="M117.983 168.123C117.983 168.123 117.925 168.123 117.831 168.064C117.737 168.006 117.599 167.963 117.417 167.898C116.951 167.739 116.459 167.665 115.966 167.68C115.468 167.689 114.975 167.792 114.515 167.985C114.341 168.057 114.203 168.123 114.109 168.173C114.064 168.205 114.015 168.229 113.963 168.246L114.101 168.152C114.225 168.072 114.356 168.004 114.493 167.948C114.951 167.744 115.444 167.63 115.944 167.615C116.439 167.603 116.931 167.684 117.396 167.854C117.535 167.908 117.671 167.971 117.802 168.043L117.983 168.123Z" fill="white"/>
<path d="M82.8184 126.768C82.8184 126.768 82.9562 143.022 83.7835 147.979L104.167 147.021C104.167 147.021 102.375 131.056 103.064 126.768H82.8184Z" fill="#EBEBEB"/>
<path d="M99.9652 133.596C97.7028 133.932 95.4228 134.135 93.1368 134.206C90.8596 134.411 88.5723 134.484 86.2866 134.423C88.5485 134.083 90.8287 133.877 93.115 133.806C95.3925 133.605 97.6796 133.535 99.9652 133.596Z" fill="white"/>
<path d="M100.002 137.043C97.7389 137.374 95.4592 137.578 93.1734 137.652C90.8959 137.854 88.6088 137.924 86.3232 137.863C88.5856 137.527 90.8656 137.324 93.1516 137.253C95.4288 137.048 97.7162 136.977 100.002 137.043Z" fill="white"/>
<path d="M96.5332 140.417C95.2578 140.697 93.9567 140.843 92.651 140.853C91.3506 140.985 90.0402 140.985 88.7397 140.853C90.0183 140.577 91.3214 140.431 92.6292 140.417C93.9272 140.285 95.2353 140.285 96.5332 140.417Z" fill="white"/>
<path d="M81.8242 174.588C81.8242 174.588 81.9621 190.835 82.7893 195.799L103.173 194.834C103.173 194.834 101.381 178.869 102.07 174.588H81.8242Z" fill="#EBEBEB"/>
<path d="M99.0291 181.417C96.7663 181.748 94.4865 181.952 92.2007 182.026C89.9233 182.227 87.6361 182.298 85.3506 182.236C87.6129 181.901 89.8929 181.697 92.179 181.627C94.4559 181.417 96.7436 181.346 99.0291 181.417Z" fill="white"/>
<path d="M99.0365 184.856C96.7741 185.192 94.4941 185.395 92.2081 185.466C89.9309 185.671 87.6434 185.742 85.3579 185.676C87.6202 185.34 89.9002 185.137 92.1863 185.067C94.4638 184.865 96.7509 184.795 99.0365 184.856Z" fill="white"/>
<path d="M95.5679 188.238C94.2918 188.513 92.9911 188.659 91.6857 188.673C90.3852 188.803 89.0749 188.803 87.7744 188.673C89.0529 188.398 90.3562 188.254 91.6639 188.245C92.9616 188.11 94.2697 188.108 95.5679 188.238Z" fill="white"/>
<path d="M137.562 131.078L139.579 177.955L198.103 178.659L195.476 131.695L137.562 131.078Z" fill="#EBEBEB"/>
<path d="M195.019 130.744H136.887V174.639H195.019V130.744Z" fill="#F5F5F5"/>
<path d="M195.026 174.639C195.026 174.639 195.026 174.356 195.026 173.819C195.026 173.282 195.026 172.498 195.026 171.482C195.026 169.421 195.026 166.403 194.99 162.6C194.99 154.945 194.939 143.995 194.903 130.744L195.062 130.904H136.937L137.133 130.708C137.133 146.491 137.133 161.439 137.133 174.603L136.952 174.421L178.88 174.508L190.803 174.559H193.974H194.794H195.077H194.815H194.017H190.882L178.996 174.603L136.952 174.69H136.771V174.508C136.771 161.345 136.771 146.397 136.771 130.614V130.41H136.974H195.098H195.265V130.577C195.229 143.871 195.2 154.858 195.178 162.506C195.178 166.316 195.178 169.298 195.135 171.352C195.135 172.353 195.135 173.122 195.135 173.659C195.135 174.196 195.026 174.639 195.026 174.639Z" fill="#E0E0E0"/>
<path d="M167.458 140.04H143.896V169.697H167.458V140.04Z" fill="#F5F5F5"/>
<path d="M167.451 169.697C167.448 169.647 167.448 169.596 167.451 169.545V169.124C167.451 168.732 167.451 168.195 167.451 167.506C167.451 166.055 167.451 164.015 167.4 161.418C167.4 156.2 167.35 148.813 167.313 140.04L167.487 140.221H143.926C143.882 140.265 144.303 139.844 144.129 140.025V142.057C144.129 142.739 144.129 143.414 144.129 144.089V148.087C144.129 150.721 144.129 153.29 144.129 155.779C144.129 160.764 144.129 165.43 144.129 169.668L143.962 169.501L161.022 169.588L165.811 169.632H167.081C167.371 169.632 167.524 169.632 167.524 169.632C167.389 169.642 167.253 169.642 167.117 169.632H165.877L161.131 169.676L143.962 169.763H143.795V169.596C143.795 165.358 143.795 160.692 143.795 155.707C143.795 153.218 143.795 150.627 143.795 148.015V140.054L143.998 139.851H167.56H167.741V140.025C167.741 148.849 167.676 156.273 167.654 161.519C167.654 164.102 167.654 166.142 167.604 167.564C167.604 168.241 167.604 168.771 167.604 169.153C167.604 169.313 167.604 169.451 167.604 169.552C167.604 169.654 167.451 169.705 167.451 169.697Z" fill="#E0E0E0"/>
<path d="M189.954 133.255H144.796V137.529H189.954V133.255Z" fill="#F5F5F5"/>
<path d="M189.946 137.529C189.936 137.433 189.936 137.335 189.946 137.239C189.946 137.028 189.946 136.753 189.946 136.404C189.946 135.679 189.946 134.612 189.903 133.255L189.982 133.335C182.363 133.407 165.005 133.458 144.825 133.458L145.028 133.255V137.515L144.825 137.311L176.812 137.398L186.419 137.457H189.032H189.714H189.961H189.743H189.083H186.514L176.957 137.515L144.796 137.594H144.6V133.27L144.796 133.074C164.976 133.074 182.334 133.117 189.953 133.19H190.033V133.27C190.033 134.648 190.019 135.715 189.99 136.47C189.99 136.811 189.99 137.072 189.99 137.282C189.99 137.493 189.946 137.536 189.946 137.529Z" fill="#E0E0E0"/>
<path d="M189.961 140.04H170.346V157.913H189.961V140.04Z" fill="#F5F5F5"/>
<path d="M189.946 157.913C189.938 157.799 189.938 157.685 189.946 157.572V156.599C189.946 155.728 189.946 154.502 189.903 152.971C189.903 149.829 189.852 145.388 189.816 140.054L189.99 140.228H170.397L170.593 140.033V149.466C170.593 152.463 170.593 155.271 170.593 157.927L170.354 157.717L184.504 157.804L188.517 157.855H189.584H189.968C189.855 157.865 189.741 157.865 189.627 157.855H188.589L184.613 157.898L170.354 157.992H170.18V157.811C170.18 155.191 170.18 152.347 170.18 149.35V144.844C170.18 144.06 170.18 143.262 170.18 142.463V140.047L170.383 139.844H189.975H190.142V140.011C190.106 145.388 190.077 149.865 190.055 153.073C190.055 154.596 190.055 155.808 190.012 156.701C190.012 157.088 190.012 157.4 190.012 157.637C190 157.731 189.978 157.823 189.946 157.913Z" fill="#E0E0E0"/>
<path d="M189.961 160.714H170.346V169.697H189.961V160.714Z" fill="#F5F5F5"/>
<path d="M189.946 169.697C189.93 169.48 189.93 169.262 189.946 169.044V167.245C189.946 165.655 189.895 163.442 189.866 160.714L190.012 160.859L170.419 160.917C170.238 161.098 170.658 160.67 170.615 160.721V165.329C170.615 166.831 170.615 168.289 170.615 169.683L170.426 169.494L184.453 169.581L188.538 169.639H189.641H190.041C189.922 169.649 189.803 169.649 189.685 169.639H188.626L184.576 169.69L170.426 169.777H170.238V169.588C170.238 168.195 170.238 166.737 170.238 165.234C170.238 164.509 170.238 163.725 170.238 162.949V160.627C170.194 160.627 170.622 160.242 170.441 160.423L190.033 160.474H190.178V160.612C190.142 163.377 190.12 165.626 190.099 167.23C190.099 167.956 190.099 168.558 190.062 169.001C190.042 169.236 190.003 169.468 189.946 169.697Z" fill="#E0E0E0"/>
<path d="M166.878 140.091C159.585 150.17 151.189 159.625 143.896 169.697L166.878 140.091Z" fill="white"/>
<path d="M143.896 169.697C143.945 169.579 144.011 169.469 144.092 169.371L144.702 168.464C145.246 167.68 146.052 166.57 147.06 165.213C149.092 162.484 151.988 158.798 155.231 154.771C158.475 150.743 161.406 147.086 163.489 144.408L165.942 141.237L166.617 140.374C166.776 140.185 166.863 140.083 166.878 140.091C166.829 140.211 166.763 140.323 166.682 140.424C166.515 140.671 166.319 140.969 166.072 141.324C165.528 142.108 164.723 143.218 163.714 144.582C161.689 147.304 158.787 150.99 155.543 155.024C152.3 159.059 149.368 162.702 147.285 165.38L144.833 168.558C144.557 168.899 144.339 169.182 144.158 169.414C143.976 169.646 143.911 169.704 143.896 169.697Z" fill="#E0E0E0"/>
<path d="M167.451 169.697C167.364 169.77 162.023 163.166 155.514 154.995C149.005 146.825 143.802 140.112 143.904 140.04C144.005 139.967 149.332 146.571 155.841 154.749C162.35 162.927 167.546 169.632 167.451 169.697Z" fill="#E0E0E0"/>
<path d="M139.579 140.105C139.579 140.834 139.362 141.547 138.957 142.153C138.552 142.759 137.977 143.232 137.303 143.511C136.629 143.79 135.888 143.863 135.173 143.721C134.458 143.578 133.801 143.227 133.286 142.712C132.77 142.196 132.419 141.539 132.277 140.824C132.135 140.109 132.208 139.368 132.487 138.694C132.766 138.021 133.238 137.445 133.844 137.04C134.451 136.635 135.163 136.419 135.892 136.419C136.87 136.419 137.808 136.807 138.499 137.499C139.19 138.19 139.579 139.127 139.579 140.105Z" fill="#E0E0E0"/>
<path d="M199.873 131.158C199.873 131.887 199.657 132.6 199.252 133.206C198.847 133.812 198.271 134.285 197.597 134.564C196.924 134.843 196.183 134.916 195.468 134.773C194.753 134.631 194.096 134.28 193.58 133.764C193.065 133.249 192.714 132.592 192.571 131.877C192.429 131.162 192.502 130.421 192.781 129.747C193.06 129.074 193.533 128.498 194.139 128.093C194.745 127.688 195.458 127.472 196.187 127.472C197.164 127.472 198.102 127.86 198.793 128.551C199.485 129.243 199.873 130.18 199.873 131.158Z" fill="#E0E0E0"/>
<path d="M306.849 386.776V403.299H304.091V405.099H306.849V416.158H358.421V406.093H354.604V403.916H358.421V400.629H360.119V399.134H358.102V386.798L306.849 386.776Z" fill="#F5F5F5"/>
<path d="M344.728 386.827V415.969H358.421V405.904H354.604V403.902L358.421 403.967V400.68H360.155L360.119 398.982L358.102 398.931V386.776L344.728 386.827Z" fill="#E0E0E0"/>
<path d="M345.7 404.859C345.7 404.961 336.368 405.041 324.859 405.041C313.35 405.041 304.019 404.961 304.019 404.859C304.019 404.758 313.35 404.678 324.859 404.678C336.368 404.678 345.7 404.758 345.7 404.859Z" fill="#E0E0E0"/>
<path d="M345.7 403.183C345.7 403.285 336.368 403.364 324.859 403.364C313.35 403.364 304.019 403.285 304.019 403.183C304.019 403.081 313.35 402.994 324.859 402.994C336.368 402.994 345.7 403.081 345.7 403.183Z" fill="#E0E0E0"/>
<path d="M348.378 398.633C348.378 398.735 339.046 398.815 327.537 398.815C316.028 398.815 306.696 398.735 306.696 398.633C306.696 398.532 316.028 398.452 327.537 398.452C339.046 398.452 348.378 398.561 348.378 398.633Z" fill="#E0E0E0"/>
<path d="M348.639 410.969C348.639 411.071 339.307 411.158 327.798 411.158C316.289 411.158 306.95 411.071 306.95 410.969C306.95 410.868 316.282 410.788 327.798 410.788C339.314 410.788 348.639 410.875 348.639 410.969Z" fill="#E0E0E0"/>
<path d="M151.138 334.348H190.483C191.811 334.348 193.085 333.82 194.024 332.881C194.963 331.942 195.49 330.669 195.49 329.341V317.215C195.49 316.106 195.272 315.008 194.847 313.983C194.423 312.958 193.801 312.027 193.016 311.242C192.232 310.458 191.301 309.836 190.276 309.412C189.251 308.987 188.153 308.769 187.044 308.769H150.841L151.138 334.348Z" fill="#EBEBEB"/>
<path d="M189.823 341.974H112.461C111.455 341.967 110.493 341.562 109.784 340.849C109.074 340.135 108.675 339.171 108.673 338.165C108.675 337.153 109.078 336.183 109.793 335.468C110.509 334.752 111.479 334.35 112.49 334.348H189.823C190.834 334.35 191.803 334.753 192.517 335.468C193.232 336.184 193.633 337.154 193.633 338.165C193.633 339.175 193.231 340.144 192.517 340.859C191.802 341.573 190.833 341.974 189.823 341.974Z" fill="#EBEBEB"/>
<path d="M96.6929 232.778L139.252 232.052L166.268 334.159L108.673 334.703L86.9038 245.201C86.5426 243.721 86.5231 242.177 86.8469 240.688C87.1706 239.199 87.829 237.802 88.7723 236.605C89.7156 235.408 90.919 234.442 92.2913 233.778C93.6636 233.115 95.1688 232.773 96.6929 232.778Z" fill="#E0E0E0"/>
<path d="M117.896 341.974L105.161 415.976H108.652L125.392 341.974H117.896Z" fill="#EBEBEB"/>
<path d="M147.916 341.974L134.383 415.976H137.873L155.412 341.974H147.916Z" fill="#E0E0E0"/>
<path d="M181.122 341.974L196.216 415.976H192.726L173.619 341.974H181.122Z" fill="#EBEBEB"/>
<path d="M134.383 232.023L155.427 334.239H171.58L154.708 243.924C154.09 240.582 152.321 237.562 149.708 235.389C147.095 233.215 143.804 232.024 140.406 232.023H134.383Z" fill="#EBEBEB"/>
<path d="M371.809 416.383C371.809 416.484 304.679 416.571 221.882 416.571C139.086 416.571 71.9409 416.484 71.9409 416.383C71.9409 416.281 139.056 416.194 221.882 416.194C304.708 416.194 371.809 416.274 371.809 416.383Z" fill="#263238"/>
<path d="M181.623 416.593H126.14L130.334 376.203L181.623 375.87V416.593Z" fill="#FF7E31"/>
<g opacity="0.4">
<path d="M181.623 416.593H126.14L130.334 376.203L181.623 375.87V416.593Z" fill="black"/>
</g>
<path d="M189.714 375.87H134.23V416.586H189.714V375.87Z" fill="#FF7E31"/>
<g opacity="0.2">
<path d="M189.714 375.87H134.23V416.586H189.714V375.87Z" fill="black"/>
</g>
<path d="M190.179 395.586C190.179 395.687 177.697 395.774 162.306 395.774C146.915 395.774 134.419 395.687 134.419 395.586C134.419 395.484 146.901 395.39 162.306 395.39C177.712 395.39 190.179 395.477 190.179 395.586Z" fill="#263238"/>
<path d="M144.114 399.504C143.862 397.478 143.862 395.428 144.114 393.401C144.366 395.428 144.366 397.478 144.114 399.504Z" fill="#263238"/>
<path d="M182.69 399.286C182.438 397.479 182.438 395.645 182.69 393.837C182.941 395.645 182.941 397.479 182.69 399.286Z" fill="#263238"/>
<path d="M170.47 376.08C170.47 376.08 170.47 375.637 170.339 374.875C170.146 373.796 169.725 372.769 169.106 371.864C168.191 370.52 166.923 369.455 165.441 368.787C163.615 367.983 161.629 367.609 159.636 367.692C157.631 367.708 155.652 368.151 153.831 368.99C152.356 369.679 151.081 370.73 150.123 372.045C149.48 372.934 149.019 373.94 148.766 375.006C148.591 375.768 148.584 376.203 148.548 376.203C148.537 376.097 148.537 375.99 148.548 375.884C148.549 375.58 148.578 375.276 148.635 374.977C148.838 373.869 149.276 372.818 149.919 371.893C150.876 370.511 152.177 369.403 153.693 368.678C155.542 367.801 157.56 367.336 159.607 367.314C161.656 367.229 163.697 367.627 165.564 368.475C167.09 369.184 168.385 370.308 169.302 371.719C169.922 372.661 170.317 373.734 170.455 374.854C170.482 375.155 170.482 375.459 170.455 375.761C170.478 375.866 170.483 375.974 170.47 376.08Z" fill="#263238"/>
<path d="M149.658 218.817C152.31 217.571 155.291 217.21 158.163 217.786C159.709 218.04 161.32 218.512 162.365 219.658C163.409 220.805 163.613 222.859 162.408 223.853C161.631 224.379 160.694 224.618 159.759 224.528C157.51 224.528 155.021 224.107 153.229 225.456C152.205 226.226 151.523 227.51 150.326 227.887C149.713 228.028 149.072 227.966 148.497 227.711C147.923 227.456 147.446 227.021 147.14 226.472C146.559 225.354 146.429 224.055 146.777 222.844C146.915 221.996 147.247 221.192 147.747 220.493C148.246 219.795 148.901 219.221 149.658 218.817Z" fill="#FF7E31"/>
<path d="M143.737 207.373C145.319 209.637 148.388 208.89 149.818 207.511C151.248 206.132 151.843 204.129 152.394 202.228C153.642 197.874 154.905 193.303 153.976 188.869C153.75 187.526 153.161 186.271 152.271 185.241C151.819 184.734 151.242 184.354 150.598 184.14C149.953 183.926 149.264 183.885 148.599 184.022C147.046 184.428 146.081 185.945 145.384 187.396C143.334 191.66 142.26 196.328 142.242 201.06C142.242 203.237 142.489 205.566 143.737 207.38" fill="#FF7E31"/>
<path d="M139.39 210.617C140.204 209.556 140.746 208.313 140.968 206.995C141.191 205.677 141.088 204.324 140.667 203.055C139.807 200.507 138.257 198.246 136.19 196.525C133.847 194.449 131.121 192.852 128.164 191.822C127.015 191.353 125.776 191.143 124.536 191.206C123.92 191.241 123.322 191.427 122.795 191.747C122.267 192.067 121.826 192.511 121.51 193.041C120.661 194.652 121.51 196.604 122.345 198.194C123.89 201.003 125.654 203.686 127.62 206.219C129.195 208.258 131.009 210.268 133.425 211.183C135.842 212.097 138.338 211.996 139.615 210.327" fill="#FF7E31"/>
<path d="M143.628 241.457C143.709 241.119 143.757 240.774 143.773 240.427C143.846 239.701 143.933 238.743 144.042 237.626C144.183 236.247 144.394 234.876 144.673 233.518C145.039 231.865 145.538 230.243 146.168 228.671C146.781 227.098 147.614 225.619 148.643 224.281C149.481 223.19 150.552 222.3 151.777 221.676C152.599 221.265 153.481 220.986 154.39 220.848C154.735 220.836 155.078 220.787 155.413 220.703C155.066 220.666 154.715 220.666 154.368 220.703C153.418 220.784 152.49 221.029 151.625 221.429C150.334 222.038 149.202 222.937 148.316 224.056C147.244 225.412 146.38 226.921 145.754 228.533C145.13 230.131 144.644 231.779 144.303 233.46C144.038 234.836 143.856 236.227 143.759 237.626C143.672 238.816 143.636 239.802 143.621 240.441C143.588 240.779 143.59 241.12 143.628 241.457Z" fill="#263238"/>
<path d="M143.817 239.302C143.838 239.143 143.838 238.982 143.817 238.823V237.459C143.817 236.283 143.817 234.556 143.875 232.459C143.976 228.228 144.346 223.686 145.043 217.271C145.711 211.248 146.603 204.209 147.546 199.667C147.75 198.629 147.953 197.7 148.141 196.88C148.33 196.06 148.483 195.356 148.635 194.783C148.787 194.21 148.867 193.811 148.954 193.462C148.999 193.309 149.026 193.151 149.034 192.991C148.959 193.133 148.903 193.284 148.867 193.441L148.475 194.74C148.301 195.306 148.12 196.009 147.917 196.829C147.713 197.649 147.474 198.571 147.256 199.609C146.085 205.002 145.206 210.455 144.622 215.943C143.896 222.365 143.606 228.214 143.577 232.452C143.577 234.571 143.577 236.283 143.65 237.466C143.65 238.017 143.708 238.467 143.73 238.83C143.744 238.99 143.773 239.148 143.817 239.302Z" fill="#263238"/>
<path d="M143.846 228.018C143.887 227.535 143.887 227.049 143.846 226.567C143.795 225.652 143.664 224.332 143.41 222.713C143.099 220.819 142.68 218.944 142.155 217.097C141.543 214.824 140.757 212.602 139.804 210.45C138.177 206.481 135.841 202.842 132.91 199.71C132.403 199.171 131.86 198.667 131.285 198.201C131.038 197.99 130.82 197.78 130.559 197.613L129.928 197.178C129.55 196.903 129.149 196.66 128.73 196.452C130.112 197.533 131.424 198.701 132.656 199.95C135.491 203.109 137.766 206.729 139.383 210.653C140.315 212.794 141.103 214.996 141.741 217.242C142.281 219.071 142.727 220.926 143.077 222.8C143.374 224.404 143.541 225.703 143.643 226.617C143.676 227.089 143.744 227.557 143.846 228.018Z" fill="#263238"/>
<path d="M132.946 247.923L134.071 263.408H153.968L155.1 247.923H132.946Z" fill="#263238"/>
<path d="M157.473 241.813H131.023V247.915H157.473V241.813Z" fill="#263238"/>
<path d="M131.023 262.813V264.504H132.264H157.038V262.813H131.023Z" fill="#455A64"/>
<path d="M133.484 267.486L132.265 264.504H156.088L154.666 267.486H133.484Z" fill="#455A64"/>
<path d="M154.731 252.98C154.731 252.98 154.731 253.031 154.636 253.126L154.339 253.517L153.185 254.969L153.127 255.041L153.083 254.969L150.232 251.028H150.398L147.59 254.998L147.503 255.128L147.409 255.005C146.371 253.779 145.232 252.443 144.085 251.05H144.274L144.092 251.282L141.117 255.005L141.016 255.128L140.929 254.998L138.12 251.036H138.287L134.833 254.969L134.768 255.041L134.724 254.961L133.643 253.14L133.367 252.661C133.331 252.607 133.301 252.549 133.28 252.487C133.324 252.534 133.363 252.585 133.396 252.639L133.701 253.104L134.84 254.889H134.732L138.128 250.905L138.215 250.803L138.295 250.912C139.151 252.11 140.101 253.445 141.125 254.86H140.929L143.897 251.123L144.078 250.898L144.172 250.774L144.274 250.891C145.435 252.284 146.552 253.626 147.59 254.86H147.401L150.232 250.905L150.319 250.789L150.398 250.905L153.185 254.889H153.083C153.591 254.287 153.998 253.8 154.288 253.438L154.614 253.067C154.65 253.034 154.689 253.005 154.731 252.98Z" fill="#E0E0E0"/>
<path d="M155.376 247.821C155.376 247.886 150.391 247.944 144.245 247.944C138.098 247.944 133.106 247.886 133.106 247.821C133.106 247.756 138.091 247.698 144.23 247.698C150.369 247.698 155.376 247.748 155.376 247.821Z" fill="#455A64"/>
<path d="M156.385 264.671C156.385 264.743 150.964 264.794 144.281 264.794C137.598 264.794 132.185 264.743 132.185 264.671C132.185 264.598 137.598 264.547 144.281 264.547C150.964 264.547 156.385 264.605 156.385 264.671Z" fill="#263238"/>
<path d="M259.319 267.827H317.574V264.997H259.319V267.827Z" fill="#263238"/>
<path d="M326.601 267.827L337.529 226.886H292.038L282.147 267.827H326.601Z" fill="#263238"/>
<path d="M284.876 264.729H325.505L334.968 228.78H294.121L284.876 264.729Z" fill="#455A64"/>
<path d="M325.788 265.113H284.426L293.86 228.432H335.454L325.788 265.113ZM285.341 264.388H325.251L334.518 229.157H294.44L285.341 264.388Z" fill="#263238"/>
<path d="M142.199 275.78H139.26V416.238H142.199V275.78Z" fill="#455A64"/>
<path d="M145.144 276.179H142.206V416.23H145.144V276.179Z" fill="#263238"/>
<path d="M323.445 275.78H320.506V416.238H323.445V275.78Z" fill="#455A64"/>
<path d="M326.383 276.179H323.444V416.23H326.383V276.179Z" fill="#263238"/>
<path d="M367.434 267.617H105.161V279.14H367.434V267.617Z" fill="#455A64"/>
<path d="M321.979 279.14H223.602V298.21H321.979V279.14Z" fill="#455A64"/>
<path d="M277.177 287.354C277.177 287.785 277.049 288.206 276.81 288.564C276.571 288.922 276.231 289.201 275.833 289.366C275.436 289.53 274.998 289.574 274.575 289.49C274.153 289.406 273.765 289.198 273.461 288.894C273.156 288.589 272.949 288.201 272.865 287.779C272.781 287.357 272.824 286.919 272.989 286.521C273.154 286.124 273.433 285.784 273.791 285.544C274.149 285.305 274.57 285.177 275 285.177C275.578 285.177 276.131 285.407 276.54 285.815C276.948 286.223 277.177 286.777 277.177 287.354Z" fill="#263238"/>
<path d="M343.407 279.14C343.407 279.242 309.302 279.329 267.286 279.329C225.271 279.329 191.166 279.242 191.166 279.14C191.166 279.038 225.271 278.951 267.286 278.951C309.302 278.951 343.407 279.038 343.407 279.14Z" fill="#263238"/>
<path d="M252.628 143.581C253.02 143.581 258.324 144.466 258.324 144.466L265.501 153.508L266.582 155.221L256.902 161.41L252.628 155.083L249 152.724C249.54 152.312 250.183 152.056 250.859 151.986C251.535 151.915 252.217 152.033 252.831 152.325C254.261 152.927 255.8 153.228 257.352 153.21L256.075 149.582L252.142 148.798L252.628 143.581Z" fill="#EB996E"/>
<path d="M253.078 137.253C253.228 137.214 253.386 137.207 253.539 137.232C253.693 137.257 253.839 137.314 253.969 137.4C254.099 137.485 254.21 137.597 254.294 137.728C254.378 137.859 254.433 138.007 254.457 138.16C255.044 141.868 256.822 153.029 257.359 156.302C257.404 156.562 257.351 156.83 257.208 157.053C257.066 157.276 256.845 157.438 256.59 157.506L248.049 159.894C247.902 159.936 247.747 159.945 247.596 159.922C247.444 159.898 247.3 159.842 247.172 159.757C247.044 159.672 246.937 159.561 246.856 159.43C246.776 159.3 246.725 159.153 246.707 159.001L244.37 140.475C244.335 140.204 244.401 139.93 244.554 139.704C244.708 139.478 244.94 139.316 245.205 139.249L253.078 137.253Z" fill="#263238"/>
<path d="M247.345 157.608L256.053 155.177L253.745 139.764C253.715 139.556 253.64 139.358 253.527 139.181C253.414 139.004 253.265 138.853 253.09 138.738C252.914 138.623 252.717 138.546 252.509 138.513C252.302 138.48 252.09 138.491 251.888 138.545L244.914 140.395L247.345 157.608Z" fill="#EBEBEB"/>
<path d="M255.872 146.331L251.96 149.234C251.96 149.234 252.287 150.264 252.882 150.337C254.149 150.171 255.402 149.904 256.626 149.539L255.872 146.331Z" fill="#EB996E"/>
<path d="M255.4 143.987L251.3 145.787C251.3 145.787 251.039 147.122 252.57 146.934L251.198 147.92C251.198 147.92 251.539 148.515 253.252 148.588C254.964 148.661 256.626 146.28 256.626 146.28L255.4 143.987Z" fill="#EB996E"/>
<path d="M259.471 148.552C259.471 148.603 258.97 148.508 258.426 148C258.126 147.72 257.811 147.456 257.483 147.209C257.298 147.073 257.081 146.987 256.854 146.959C256.626 146.931 256.396 146.963 256.184 147.05C255.045 147.705 253.856 148.268 252.628 148.733C253.689 147.927 254.838 147.243 256.053 146.694C256.331 146.581 256.635 146.546 256.931 146.593C257.193 146.654 257.44 146.768 257.657 146.926C257.996 147.188 258.308 147.485 258.586 147.812C258.863 148.079 259.159 148.326 259.471 148.552Z" fill="#D1734A"/>
<path d="M258.665 158.769C257.963 157.92 257.526 156.883 257.41 155.787C257.293 154.691 257.503 153.585 258.012 152.608C257.814 153.641 257.738 154.693 257.787 155.743C257.958 156.783 258.253 157.799 258.665 158.769Z" fill="#D1734A"/>
<path d="M258.157 145.794C258.107 145.838 257.889 145.526 257.366 145.359C256.668 145.164 255.92 145.25 255.284 145.598C254.515 145.968 253.833 146.44 253.288 146.665C252.744 146.89 252.359 146.941 252.352 146.897C252.345 146.854 252.671 146.723 253.165 146.426C253.658 146.128 254.297 145.649 255.131 145.257C255.525 145.06 255.955 144.944 256.394 144.916C256.76 144.895 257.126 144.962 257.461 145.112C258.005 145.381 258.157 145.78 258.157 145.794Z" fill="#D1734A"/>
<path d="M257.816 171.504L279.143 185.197L273.49 201.365C273.49 201.365 258.898 196.858 259.166 196.387C259.435 195.915 257.816 171.504 257.816 171.504Z" fill="#FF7E31"/>
<path d="M252.301 390.346L248.942 405.795C248.942 405.795 263.52 414.394 263.179 417.304L232.992 411.876L237.23 387.589L252.301 390.346Z" fill="#263238"/>
<path d="M232.992 411.876L233.514 409.445L262.265 415.563C262.265 415.563 263.498 416.39 263.179 417.304L232.992 411.876Z" fill="#455A64"/>
<path d="M217.964 392.044L217.463 407.842C217.463 407.842 233.362 413.647 233.551 416.586L202.877 416.724L202.645 392.052L217.964 392.044Z" fill="#263238"/>
<g opacity="0.6">
<path d="M202.877 416.724L202.95 414.235L232.332 415.04C232.332 415.04 233.703 415.628 233.551 416.586L202.877 416.724Z" fill="#455A64"/>
</g>
<path d="M222.412 132.943L225.539 169.226L243.68 167.774C243.789 165.655 243.637 157.455 243.637 157.455C243.637 157.455 251.191 156.28 251.285 148.748C251.329 145.076 250.806 137.5 250.255 130.672C249.97 127.026 248.269 123.638 245.515 121.233C242.761 118.828 239.174 117.597 235.524 117.806C233.661 117.914 231.838 118.395 230.163 119.22C228.488 120.045 226.996 121.196 225.774 122.607C224.551 124.018 223.624 125.66 223.047 127.435C222.469 129.21 222.253 131.083 222.412 132.943Z" fill="#EB996E"/>
<path d="M243.644 157.318C240.157 157.381 236.729 156.406 233.797 154.517C233.797 154.517 236.127 159.952 243.659 159.27L243.644 157.318Z" fill="#D1734A"/>
<path d="M247.345 135.947C247.347 136.229 247.239 136.5 247.044 136.704C246.849 136.907 246.582 137.026 246.3 137.036C246.163 137.046 246.025 137.03 245.895 136.986C245.764 136.943 245.644 136.874 245.54 136.784C245.437 136.693 245.352 136.583 245.292 136.459C245.232 136.335 245.197 136.201 245.19 136.063C245.188 135.783 245.295 135.512 245.489 135.309C245.682 135.106 245.947 134.986 246.228 134.975C246.365 134.964 246.503 134.981 246.634 135.024C246.765 135.067 246.886 135.136 246.99 135.226C247.095 135.317 247.179 135.427 247.24 135.551C247.301 135.675 247.337 135.809 247.345 135.947Z" fill="#263238"/>
<path d="M248.652 134.423C248.521 134.568 247.701 133.959 246.54 133.966C245.379 133.973 244.53 134.547 244.406 134.409C244.283 134.271 244.479 134.09 244.849 133.821C245.353 133.474 245.95 133.289 246.562 133.291C247.166 133.289 247.756 133.48 248.245 133.836C248.601 134.104 248.724 134.365 248.652 134.423Z" fill="#263238"/>
<path d="M236.199 135.947C236.203 136.228 236.097 136.5 235.903 136.703C235.709 136.907 235.442 137.026 235.161 137.036C235.024 137.047 234.886 137.03 234.755 136.987C234.624 136.943 234.503 136.875 234.399 136.784C234.295 136.694 234.21 136.583 234.149 136.459C234.088 136.336 234.052 136.201 234.044 136.063C234.044 135.782 234.152 135.512 234.347 135.309C234.542 135.106 234.808 134.986 235.089 134.975C235.226 134.965 235.363 134.982 235.493 135.026C235.624 135.07 235.744 135.139 235.847 135.229C235.95 135.32 236.035 135.43 236.095 135.553C236.155 135.676 236.191 135.81 236.199 135.947Z" fill="#263238"/>
<path d="M237.244 134.641C237.114 134.779 236.294 134.177 235.133 134.184C233.972 134.191 233.123 134.764 232.999 134.619C232.876 134.474 233.072 134.307 233.442 134.039C233.943 133.686 234.542 133.5 235.154 133.509C235.76 133.504 236.35 133.695 236.838 134.053C237.194 134.322 237.31 134.576 237.244 134.641Z" fill="#263238"/>
<path d="M241.467 143.247C242.08 143.056 242.714 142.942 243.354 142.906C243.644 142.906 243.927 142.819 243.978 142.616C244.002 142.31 243.934 142.005 243.782 141.738C243.499 141.012 243.209 140.287 242.904 139.481C241.685 136.267 240.807 133.625 240.938 133.582C241.068 133.538 242.157 136.1 243.376 139.307C243.666 140.105 243.949 140.86 244.21 141.578C244.398 141.937 244.454 142.35 244.37 142.747C244.327 142.852 244.26 142.945 244.174 143.019C244.089 143.094 243.987 143.147 243.877 143.175C243.714 143.221 243.545 143.245 243.376 143.247C242.742 143.33 242.101 143.33 241.467 143.247Z" fill="#263238"/>
<path d="M238.043 144.053C238.231 144.053 238.231 145.301 239.312 146.23C240.394 147.159 241.729 146.955 241.743 147.166C241.758 147.376 241.446 147.405 240.873 147.42C240.133 147.424 239.416 147.167 238.848 146.694C238.285 146.247 237.922 145.594 237.839 144.88C237.839 144.358 237.955 144.045 238.043 144.053Z" fill="#263238"/>
<path d="M237.549 130.091C237.433 130.41 236.272 130.258 234.908 130.425C233.543 130.592 232.448 130.962 232.266 130.679C232.187 130.541 232.375 130.244 232.825 129.953C233.417 129.577 234.087 129.341 234.784 129.264C235.481 129.187 236.186 129.272 236.845 129.511C237.346 129.692 237.593 129.946 237.549 130.091Z" fill="#263238"/>
<path d="M248.231 131.063C248.027 131.332 247.222 131.063 246.264 131.063C245.306 131.063 244.486 131.245 244.298 130.969C244.218 130.831 244.348 130.57 244.704 130.316C245.182 130.019 245.738 129.869 246.301 129.888C246.864 129.906 247.409 130.09 247.868 130.418C248.209 130.664 248.318 130.94 248.231 131.063Z" fill="#263238"/>
<path d="M230.583 124.663H230.539C229.346 125.618 228.566 126.995 228.362 128.509V128.662C228.065 130.839 228.123 133.016 227.803 135.192C227.484 137.369 226.744 139.546 225.147 140.998C224.494 141.607 223.341 142.028 222.804 141.317C222.62 141.021 222.526 140.678 222.535 140.33C222.129 135.127 220.706 130.512 220.721 125.091C220.713 124.363 220.88 123.643 221.207 122.991C221.533 122.34 222.011 121.776 222.6 121.347C223.74 120.534 225.126 119.685 226.396 120.288C227.665 120.89 229.298 123.256 230.278 124.257" fill="#263238"/>
<path d="M224.959 136.361C224.828 136.303 219.77 134.822 219.93 139.989C220.09 145.156 225.249 143.922 225.249 143.777C225.249 143.632 224.959 136.361 224.959 136.361Z" fill="#EB996E"/>
<path d="M223.609 141.869C223.609 141.869 223.522 141.934 223.377 142.006C223.165 142.106 222.923 142.119 222.702 142.043C222.362 141.842 222.082 141.555 221.889 141.211C221.697 140.867 221.599 140.478 221.606 140.083C221.58 139.64 221.651 139.197 221.817 138.784C221.858 138.62 221.939 138.467 222.053 138.341C222.167 138.214 222.31 138.117 222.47 138.059C222.573 138.029 222.682 138.035 222.781 138.076C222.88 138.117 222.962 138.19 223.014 138.284C223.087 138.429 223.058 138.531 223.087 138.538C223.116 138.545 223.188 138.451 223.145 138.24C223.111 138.112 223.034 137.999 222.927 137.921C222.78 137.822 222.602 137.781 222.426 137.805C222.216 137.856 222.022 137.96 221.863 138.105C221.703 138.251 221.582 138.435 221.512 138.639C221.306 139.094 221.217 139.593 221.251 140.091C221.316 141.136 221.882 142.086 222.629 142.268C222.77 142.303 222.916 142.307 223.058 142.278C223.2 142.249 223.334 142.188 223.449 142.101C223.609 141.992 223.631 141.876 223.609 141.869Z" fill="#D1734A"/>
<path d="M226.229 121.086C224.959 119.018 228.442 116.05 230.989 115.281C233.536 114.511 236.896 115.716 239.429 116.558C241.032 117.087 242.621 117.828 244.312 117.762C245.437 117.642 246.54 117.361 247.585 116.928C248.629 116.486 249.753 116.264 250.887 116.275C251.453 116.287 252.005 116.453 252.483 116.756C252.962 117.06 253.348 117.488 253.601 117.995C254.029 119.039 253.419 120.476 252.294 120.629C252.653 120.434 253.053 120.328 253.461 120.322C253.87 120.315 254.273 120.407 254.638 120.59C255.003 120.772 255.318 121.041 255.557 121.372C255.796 121.703 255.951 122.086 256.01 122.49C256.069 122.894 256.029 123.306 255.894 123.691C255.759 124.077 255.533 124.423 255.235 124.702C254.937 124.981 254.576 125.184 254.183 125.294C253.79 125.403 253.376 125.416 252.976 125.331C253.702 124.772 254.834 125.694 254.74 126.608C254.641 127.06 254.427 127.478 254.118 127.821C253.808 128.165 253.415 128.422 252.976 128.567C250.8 129.511 248.311 129.206 246.083 128.458C243.855 127.711 241.787 126.543 239.552 125.737C237.317 124.932 233.638 123.48 231.425 124.286C229.792 124.866 228.653 126.833 227.731 126.398C227.296 126.165 226.922 125.834 226.638 125.431C226.355 125.028 226.17 124.563 226.098 124.076C225.976 123.109 226.011 122.129 226.2 121.173" fill="#263238"/>
<path d="M252.911 120.462C252.867 120.462 252.65 120.839 252.091 121.441C251.301 122.283 250.317 122.918 249.225 123.292C247.619 123.869 245.852 123.799 244.297 123.096C242.541 122.305 241.039 120.709 239.29 119.257C237.687 117.755 235.66 116.782 233.485 116.471C232.587 116.361 231.676 116.457 230.821 116.752C229.965 117.048 229.189 117.535 228.551 118.176C228.139 118.624 227.822 119.151 227.62 119.724C227.418 120.298 227.335 120.907 227.375 121.514C227.404 121.84 227.479 122.16 227.6 122.465C227.694 122.668 227.752 122.769 227.767 122.762C227.669 122.349 227.604 121.93 227.571 121.507C227.572 120.357 228.017 119.253 228.812 118.423C229.429 117.839 230.169 117.402 230.978 117.143C231.787 116.885 232.644 116.811 233.485 116.928C235.553 117.257 237.475 118.2 239 119.635C240.698 121.086 242.251 122.704 244.13 123.524C245.516 124.116 247.056 124.246 248.521 123.894C249.986 123.543 251.299 122.728 252.265 121.572C252.471 121.325 252.651 121.058 252.802 120.774C252.882 120.578 252.925 120.469 252.911 120.462Z" fill="#455A64"/>
<path d="M223.638 136.136C223.638 136.136 223.863 135.991 224.059 135.584C224.314 134.995 224.404 134.348 224.32 133.712C224.204 132.05 222.731 130.265 222.542 127.965C222.411 126.903 222.611 125.825 223.116 124.881C223.556 124.135 224.229 123.554 225.031 123.227C225.576 122.997 226.172 122.914 226.758 122.987C227.172 123.06 227.397 123.154 227.419 123.11C227.246 122.951 227.032 122.843 226.802 122.798C226.176 122.635 225.516 122.666 224.908 122.885C224.003 123.205 223.234 123.824 222.731 124.642C222.152 125.666 221.916 126.848 222.056 128.016C222.19 129.15 222.527 130.251 223.05 131.267C223.465 132.056 223.77 132.898 223.957 133.77C224.1 134.573 223.988 135.4 223.638 136.136Z" fill="#455A64"/>
<path d="M253.949 403.597C253.949 403.597 269.674 326.46 269.688 324.922L241.598 310.104L230.713 400.629L253.949 403.597Z" fill="#263238"/>
<path d="M218.58 406.18L240.299 272.493V243.656L208.849 245.905C208.472 247.03 200.541 406.354 200.541 406.354L203.603 406.18H218.58Z" fill="#263238"/>
<path d="M257.374 241.617L269.688 324.922L242.157 318.246L230.938 244.331L257.374 241.617Z" fill="#263238"/>
<path d="M262.12 277.5C262.12 277.5 266.909 273.386 267.381 270.287C267.852 267.189 261.641 217.315 261.641 217.315L258.47 176.083C258.47 176.809 258.557 170.887 257.599 170.532C254.696 169.436 248.731 167.448 248.731 167.448L245.321 164.385C245.321 164.385 251.445 190.567 252.635 197.722L262.12 277.5Z" fill="#FF7E31"/>
<path d="M222.797 161.541L217.644 164.973L198.32 172.571L206.905 204.942L205.751 223.751L204.655 235.688C204.655 235.688 198.901 265.244 193.821 283.204C193.821 283.204 199.489 293.943 204.147 295.438L206.085 296.592L212.993 246.007L218.922 238.025C219.495 237.255 220.025 236.464 220.525 235.652C221.977 233.279 225.3 227.887 227.949 223.729C231.446 218.236 235.931 205.755 234.603 200.429C233.275 195.102 222.797 161.541 222.797 161.541Z" fill="#FF7E31"/>
<path d="M209.669 273.139C214.194 269.478 217.952 264.96 220.728 259.845L209.669 273.139Z" fill="#263238"/>
<path d="M222.796 161.541L227.448 191.387C227.322 195.203 226.69 198.985 225.568 202.635L217.267 229.484C217.267 229.484 210.736 244.12 212.993 245.992C215.25 247.864 232.803 245.992 232.803 245.992L256.561 242.545C257.091 242.468 257.571 242.19 257.902 241.768C258.233 241.347 258.389 240.815 258.339 240.281L254.812 203.839C253.622 201.321 253.136 196.169 252.635 194.34L245.321 164.393L243.826 164.197L240.575 166.425L238.862 166.562L224.487 159.603L222.796 161.541Z" fill="#EBEBEB"/>
<path d="M218.464 225.587C222.303 213.621 227.274 194.166 227.274 194.166C228.819 204.325 227.129 214.739 223.348 224.317C220.257 232.125 216.52 238.032 213.951 246.036L213.871 246.362C213.871 246.362 212.42 246.442 212.521 244.302C212.623 242.161 214.698 235.79 216.084 232.263C217.47 228.736 218.464 225.587 218.464 225.587Z" fill="#E0E0E0"/>
<path d="M241.402 168.957H238.173L237.208 173.376L240.031 176.794L242.875 176.511L243.804 173.34L243.042 171.569L241.402 168.957Z" fill="#FF7E31"/>
<path d="M260.233 194.761C261.249 194.964 272.467 202.511 276.546 201.698C280.624 200.886 283.925 197.04 284.361 196.525C286.676 193.782 285.224 188.085 284.557 185.937C284.394 185.413 284.173 184.909 283.896 184.435L266.575 154.683L256.365 160.888L266.96 180.212L260.233 194.761Z" fill="#FF7E31"/>
<path d="M176.688 230.732C176.017 228.977 175.726 227.099 175.833 225.223C175.941 223.346 176.445 221.514 177.313 219.847C179.664 215.196 183.393 207.685 184.177 205.218C185.338 201.553 196.194 173.434 198.32 172.564L207.754 204.412L196.796 227.488L209.64 251.689L198.937 263.227C198.937 263.227 178.684 234.984 177.015 231.494C176.899 231.242 176.79 230.988 176.688 230.732Z" fill="#FF7E31"/>
<path d="M210.149 270.57C212.174 268.675 213.974 266.551 215.511 264.242C215.497 264.212 215.489 264.178 215.489 264.144C215.489 264.111 215.497 264.077 215.511 264.047C215.536 264.01 215.568 263.98 215.606 263.957C215.643 263.935 215.685 263.921 215.729 263.916C216.344 262.963 216.906 261.977 217.412 260.962C215.62 259.794 213.276 258.06 215.823 257.668C218.965 257.218 221.207 255.694 221.527 254.86C221.846 254.025 220.801 253.278 219.974 253.808C219.022 254.296 218.005 254.648 216.955 254.852C216.116 255.05 215.25 255.104 214.394 255.012C213.399 254.903 209.314 253.133 208.588 253.002L200.947 261.042C200.947 261.042 206.818 267.29 210.149 270.57Z" fill="#EB996E"/>
<path d="M260.16 195.647C260.035 195.361 259.945 195.061 259.892 194.754C259.739 194.173 259.551 193.303 259.34 192.265C258.803 189.518 258.408 186.744 258.157 183.956C257.908 181.167 257.806 178.367 257.853 175.568C257.853 174.494 257.911 173.63 257.954 173.028C257.96 172.716 257.994 172.405 258.056 172.099C258.107 172.408 258.122 172.723 258.099 173.035C258.099 173.71 258.099 174.559 258.099 175.568C258.099 177.745 258.223 180.647 258.513 183.927C258.803 187.207 259.239 190.11 259.587 192.221C259.754 193.216 259.899 194.057 260.015 194.725C260.093 195.027 260.141 195.335 260.16 195.647Z" fill="#263238"/>
<path d="M269.042 197.366C269.042 197.366 268.955 197.366 268.795 197.308C268.571 197.227 268.355 197.125 268.15 197.004C267.394 196.536 266.762 195.894 266.306 195.131C265.669 194.003 265.223 192.777 264.986 191.503C264.614 189.964 264.326 188.407 264.122 186.837C263.817 183.485 263.563 180.473 263.396 178.282C263.324 177.244 263.266 176.373 263.215 175.684C263.18 175.366 263.18 175.044 263.215 174.726C263.297 175.035 263.35 175.351 263.375 175.669C263.447 176.395 263.549 177.222 263.665 178.253C263.904 180.43 264.202 183.47 264.499 186.794C264.71 188.448 265.022 190.016 265.334 191.423C265.544 192.688 265.95 193.912 266.539 195.052C266.961 195.796 267.541 196.44 268.237 196.938C268.759 197.221 269.078 197.337 269.042 197.366Z" fill="#263238"/>
<g opacity="0.3">
<path d="M263.194 174.755C262.31 178.099 261.698 181.508 261.365 184.95C261.059 187.005 261.168 189.1 261.684 191.111C262.308 193.085 263.767 194.906 265.77 195.465C264.855 188.731 264.05 181.985 263.353 175.227" fill="black"/>
</g>
<g opacity="0.3">
<path d="M203.777 239.998C203.777 239.998 207.173 246.957 209.052 250.6C212.971 234.411 208 217.373 209.618 200.799L206.788 206.51L205.99 219.724L205.381 227.474C205.381 227.474 204.8 235.811 203.777 239.998Z" fill="black"/>
</g>
<path d="M206.52 172.868C206.739 173.149 206.931 173.451 207.093 173.768C207.275 174.066 207.478 174.436 207.696 174.871C207.913 175.307 208.182 175.807 208.421 176.373C209.013 177.696 209.524 179.053 209.952 180.437C210.985 183.838 211.503 187.375 211.491 190.93C211.487 192.386 211.388 193.841 211.193 195.284C211.135 195.901 211.019 196.452 210.932 196.931C210.845 197.41 210.758 197.831 210.678 198.165C210.613 198.517 210.514 198.862 210.38 199.195C210.4 198.838 210.451 198.484 210.533 198.136C210.591 197.795 210.663 197.41 210.729 196.895C210.794 196.38 210.881 195.864 210.932 195.255C211.081 193.825 211.151 192.389 211.142 190.952C211.12 189.196 210.987 187.444 210.743 185.705C210.475 183.969 210.1 182.25 209.619 180.56C209.213 179.181 208.728 177.827 208.167 176.504C207.95 175.931 207.696 175.437 207.5 174.987C207.304 174.537 207.115 174.167 206.955 173.863C206.777 173.547 206.631 173.214 206.52 172.868Z" fill="#263238"/>
<path d="M196.695 227.684C196.644 227.72 196.158 226.958 195.243 225.761C194.024 224.252 192.577 222.943 190.955 221.879C190.086 221.292 189.036 221.034 187.994 221.153C187.148 221.309 186.348 221.651 185.65 222.155C184.424 222.996 183.756 223.657 183.706 223.606C183.824 223.417 183.97 223.248 184.141 223.105C184.565 222.682 185.018 222.289 185.498 221.93C186.211 221.39 187.037 221.021 187.914 220.848C189.036 220.688 190.178 220.947 191.122 221.574C192.785 222.655 194.242 224.024 195.425 225.616C195.783 226.094 196.113 226.593 196.412 227.111C196.535 227.286 196.631 227.479 196.695 227.684Z" fill="#263238"/>
<path d="M194.3 220.057C195.74 222.255 196.567 224.798 196.695 227.423C196.578 227.423 196.295 225.725 195.628 223.7C194.96 221.676 194.22 220.123 194.3 220.057Z" fill="#263238"/>
<path d="M203.552 239.549C203.761 239.842 203.943 240.152 204.097 240.477L205.475 243.083C206.629 245.296 208.204 248.38 209.953 251.841L210.018 251.964L209.924 252.059L209.198 252.784C206.346 255.752 203.755 258.43 201.862 260.346L199.605 262.61C199.339 262.899 199.05 263.166 198.741 263.408C198.958 263.088 199.2 262.787 199.467 262.508L201.644 260.164C203.487 258.191 206.056 255.491 208.9 252.523L209.626 251.798V252.015C207.884 248.547 206.346 245.484 205.272 243.199L204.002 240.543C203.82 240.227 203.669 239.894 203.552 239.549Z" fill="#263238"/>
<path d="M217.688 224.948C217.669 224.738 217.669 224.527 217.688 224.317C217.688 223.874 217.688 223.279 217.688 222.525C217.724 220.936 217.775 218.686 217.84 215.929C217.905 213.171 217.978 209.833 218.13 206.154C218.223 202.143 218.768 198.156 219.756 194.268C220.304 192.275 221.073 190.35 222.049 188.528L222.187 188.804C221.283 188.649 220.462 188.185 219.865 187.49C219.295 186.84 218.88 186.068 218.653 185.234C218.32 183.69 218.194 182.108 218.275 180.531C218.275 177.578 218.275 174.937 218.275 172.731C218.275 170.525 218.275 168.805 218.275 167.557C218.275 166.976 218.275 166.512 218.275 166.163C218.258 166.004 218.258 165.844 218.275 165.684C218.303 165.843 218.315 166.003 218.312 166.163C218.312 166.512 218.312 166.976 218.348 167.557C218.348 168.805 218.392 170.554 218.428 172.723C218.464 174.893 218.479 177.571 218.508 180.531C218.435 182.078 218.567 183.627 218.899 185.139C219.116 185.917 219.506 186.637 220.039 187.244C220.58 187.874 221.324 188.295 222.143 188.434L222.404 188.477L222.281 188.709C221.32 190.506 220.563 192.404 220.024 194.369C219.048 198.231 218.498 202.187 218.384 206.169C218.217 209.84 218.123 213.157 218.007 215.943C217.891 218.73 217.804 220.936 217.738 222.532L217.651 224.324C217.674 224.532 217.686 224.74 217.688 224.948Z" fill="#263238"/>
<path d="M248.782 167.876C248.855 168.002 248.913 168.136 248.956 168.275C249.058 168.58 249.203 169.001 249.37 169.443L250.872 173.797C251.496 175.662 252.244 177.875 253.049 180.328C253.448 181.583 253.942 182.861 254.312 184.276C254.511 185.011 254.543 185.782 254.406 186.532C254.335 186.933 254.184 187.314 253.962 187.655C253.74 187.995 253.452 188.287 253.114 188.513L253.172 188.245C253.782 189.152 254.428 190.117 255.03 191.148C255.935 192.606 256.62 194.191 257.062 195.85C257.401 197.412 257.511 199.016 257.388 200.61C257.214 203.621 257.018 206.328 256.859 208.592C256.699 210.856 256.561 212.67 256.46 213.984C256.409 214.586 256.365 215.072 256.336 215.435C256.329 215.606 256.305 215.777 256.264 215.943C256.246 215.772 256.246 215.599 256.264 215.428C256.264 215.058 256.3 214.564 256.322 213.977C256.387 212.656 256.481 210.82 256.598 208.578C256.714 206.335 256.881 203.578 257.055 200.596C257.155 199.037 257.04 197.472 256.714 195.944C256.273 194.324 255.598 192.776 254.711 191.351C254.116 190.349 253.477 189.391 252.868 188.448L252.759 188.288L252.926 188.187C253.22 187.989 253.472 187.733 253.665 187.435C253.859 187.137 253.99 186.803 254.05 186.453C254.18 185.754 254.153 185.035 253.971 184.348C253.622 182.984 253.129 181.671 252.737 180.43C251.939 177.941 251.22 175.72 250.611 173.848C250.001 171.976 249.559 170.532 249.225 169.494C249.072 169.008 248.956 168.609 248.862 168.304C248.825 168.163 248.798 168.02 248.782 167.876Z" fill="#263238"/>
<path d="M220.54 258.045C220.46 258.26 220.347 258.46 220.206 258.64C219.974 259.011 219.625 259.533 219.183 260.172C218.29 261.449 217.006 263.183 215.554 265.055C214.103 266.927 212.695 268.567 211.665 269.728C211.15 270.309 210.721 270.773 210.417 271.085C210.112 271.397 209.938 271.564 209.916 271.55C210.387 270.851 210.903 270.185 211.462 269.554C212.441 268.35 213.791 266.652 215.257 264.823C216.723 262.994 218.022 261.253 218.965 260.012C219.446 259.323 219.972 258.666 220.54 258.045Z" fill="#455A64"/>
<path d="M231.911 248.685C231.911 248.685 231.911 248.822 231.911 249.091C231.911 249.359 231.838 249.773 231.78 250.288C231.664 251.348 231.482 252.893 231.258 254.874C230.786 258.858 230.082 264.627 229.153 271.739C227.317 285.969 224.531 305.597 221.534 327.28C220.039 338.128 218.631 348.462 217.499 357.881C217.202 360.232 216.962 362.532 216.628 364.76C216.295 366.988 215.954 369.114 215.634 371.218L213.878 382.829C212.811 389.926 211.97 395.665 211.418 399.642C211.142 401.623 210.939 403.169 210.816 404.221C210.758 404.743 210.714 405.142 210.7 405.411C210.693 405.512 210.693 405.614 210.7 405.716C210.7 405.803 210.751 405.716 210.751 405.716C210.751 405.716 210.693 405.716 210.7 405.679C210.686 405.578 210.686 405.476 210.7 405.375C210.7 405.106 210.736 404.7 210.787 404.177C210.881 403.125 211.063 401.572 211.317 399.584C211.825 395.6 212.623 389.853 213.653 382.756C214.183 379.2 214.756 375.318 215.366 371.146C215.685 369.056 216.004 366.901 216.338 364.68C216.672 362.46 216.904 360.159 217.202 357.808C218.348 348.375 219.712 338.049 221.2 327.2C224.197 305.51 227.005 285.896 228.935 271.673C229.872 264.576 230.626 258.822 231.156 254.831C231.41 252.85 231.613 251.311 231.751 250.245C231.824 249.737 231.874 249.338 231.911 249.055C231.947 248.772 231.911 248.685 231.911 248.685Z" fill="#455A64"/>
<path d="M248.47 402.878C248.48 402.747 248.497 402.616 248.521 402.486C248.565 402.211 248.623 401.826 248.702 401.325C248.884 400.295 249.138 398.807 249.428 396.892C250.103 393.024 251.083 387.458 252.287 380.586L261.895 326.794C262.174 325.517 262.252 324.205 262.127 322.904C261.96 321.613 261.742 320.306 261.554 319.029C261.162 316.46 260.772 313.933 260.385 311.446C259.602 306.483 258.825 301.693 258.071 297.136C256.554 288.022 255.088 279.829 253.782 272.965C252.476 266.1 251.322 260.563 250.451 256.754C250.038 254.845 249.66 253.372 249.428 252.4C249.319 251.914 249.232 251.529 249.167 251.261C249.102 250.992 249.087 250.869 249.087 250.869C249.133 250.995 249.171 251.123 249.203 251.253L249.508 252.385C249.762 253.379 250.161 254.845 250.596 256.739C251.511 260.534 252.701 266.071 254.043 272.928C255.386 279.786 256.873 287.979 258.397 297.093C259.166 301.65 259.943 306.439 260.734 311.403C261.121 313.894 261.513 316.422 261.909 318.986C262.105 320.277 262.316 321.554 262.49 322.875C262.618 324.217 262.537 325.571 262.25 326.888C258.47 347.867 255.052 366.864 252.57 380.63C251.315 387.494 250.299 393.053 249.595 396.913C249.239 398.829 248.956 400.317 248.768 401.34C248.673 401.833 248.594 402.218 248.543 402.486C248.492 402.755 248.47 402.878 248.47 402.878Z" fill="#455A64"/>
<path d="M240.299 271.55C240.408 271.55 239.123 280.2 237.433 290.838C235.742 301.476 234.298 310.104 234.211 310.104C234.124 310.104 235.394 301.454 237.077 290.816C238.761 280.178 240.197 271.535 240.299 271.55Z" fill="#455A64"/>
<path d="M218.842 405.941C218.605 406.01 218.362 406.051 218.116 406.064C217.659 406.115 216.991 406.18 216.164 406.245C214.517 406.376 212.231 406.499 209.706 406.536C207.18 406.572 204.887 406.536 203.233 406.456C202.406 406.456 201.738 406.383 201.281 406.34C201.035 406.344 200.79 406.31 200.555 406.238C201.446 406.17 202.34 406.155 203.233 406.195C204.887 406.195 207.166 406.195 209.691 406.158C212.216 406.122 214.488 406.042 216.142 405.977C217.04 405.904 217.942 405.892 218.842 405.941Z" fill="#455A64"/>
<path d="M253.949 403.597C253.641 403.611 253.332 403.594 253.027 403.546L250.531 403.285C248.427 403.045 245.524 402.682 242.317 402.269C239.109 401.855 236.207 401.456 234.109 401.151L231.628 400.774C231.321 400.737 231.018 400.677 230.721 400.593C231.031 400.563 231.343 400.575 231.65 400.629C232.237 400.68 233.101 400.767 234.146 400.883C236.25 401.122 239.16 401.478 242.367 401.892C245.575 402.305 248.47 402.712 250.567 403.016L253.049 403.401C253.356 403.43 253.658 403.496 253.949 403.597Z" fill="#455A64"/>
<path d="M223.326 166.366C223.608 166.512 223.876 166.685 224.124 166.882L226.258 168.333C228.072 169.574 230.612 171.236 233.514 172.89C234.603 173.514 235.691 174.095 236.649 174.617L236.388 174.733C236.997 172.324 237.534 170.256 237.926 168.797C238.115 168.115 238.275 167.549 238.405 167.085C238.451 166.877 238.522 166.674 238.616 166.483C238.611 166.696 238.579 166.908 238.521 167.114C238.42 167.586 238.296 168.159 238.151 168.848C237.81 170.299 237.324 172.404 236.7 174.82L236.649 175.038L236.446 174.936C235.452 174.421 234.378 173.841 233.289 173.217C230.801 171.796 228.393 170.238 226.076 168.551C225.191 167.905 224.487 167.353 224.008 166.969C223.759 166.794 223.531 166.592 223.326 166.366Z" fill="#263238"/>
<path d="M247.273 171.707C246.262 172.516 245.19 173.244 244.065 173.884L243.906 173.986L243.819 173.812L242.839 171.903C242.113 170.452 241.424 169.073 240.967 168.086C240.682 167.568 240.453 167.021 240.285 166.454C240.644 166.924 240.95 167.433 241.199 167.97C241.721 168.921 242.425 170.249 243.173 171.729L244.152 173.681L243.906 173.609C244.981 172.894 246.106 172.259 247.273 171.707Z" fill="#263238"/>
<path d="M242.541 170.996C242.348 171.186 242.134 171.354 241.903 171.497C241.504 171.794 240.938 172.223 240.306 172.622C239.675 173.021 239.102 173.434 238.681 173.71C238.451 173.869 238.208 174.007 237.955 174.124C238.149 173.932 238.363 173.762 238.594 173.616C239 173.326 239.566 172.926 240.19 172.498L241.816 171.41C242.045 171.251 242.288 171.113 242.541 170.996Z" fill="#263238"/>
<path d="M240.364 172.498C239.847 172.092 239.362 171.645 238.913 171.163C238.444 170.713 238.01 170.228 237.614 169.712C238.118 170.119 238.589 170.566 239.022 171.047C239.506 171.496 239.955 171.981 240.364 172.498Z" fill="#263238"/>
<path d="M226.693 236.871C226.908 238.685 227.415 240.452 228.195 242.103C229.082 243.698 230.224 245.137 231.577 246.362C231.08 246.13 230.629 245.808 230.249 245.412C228.278 243.606 227.017 241.157 226.693 238.504C226.596 237.964 226.596 237.411 226.693 236.871Z" fill="#263238"/>
<path d="M230.917 246.435C228.501 246.229 226.239 245.166 224.538 243.438C224.611 243.351 225.859 244.345 227.615 245.165C229.371 245.985 230.938 246.319 230.917 246.435Z" fill="#263238"/>
<path d="M245.096 223.207C245.221 223.452 245.311 223.713 245.364 223.983C245.517 224.491 245.713 225.231 245.93 226.16C246.38 227.996 246.91 230.558 247.331 233.417C247.752 236.276 247.991 238.874 248.1 240.768C248.151 241.711 248.18 242.473 248.18 243.003C248.215 243.275 248.215 243.55 248.18 243.823C248.112 243.557 248.073 243.284 248.064 243.01C248.006 242.4 247.94 241.66 247.86 240.782C247.686 238.91 247.411 236.319 246.99 233.475C246.569 230.63 246.075 228.069 245.698 226.218C245.524 225.355 245.371 224.622 245.248 224.041C245.166 223.77 245.115 223.49 245.096 223.207Z" fill="#263238"/>
<path d="M240.263 177.534C239.319 185.074 238.623 201.481 238.362 209.093C238.144 215.45 238.166 221.814 238.187 228.178C238.187 230.231 238.187 232.35 239.065 234.215C240.582 237.575 244.29 239.295 247.693 240.659L240.263 177.534Z" fill="#E0E0E0"/>
<path d="M248.724 239.57L252.621 230.021L242.875 176.511L240.031 176.794C240.031 176.794 240.43 232.408 240.299 232.909L248.724 239.57Z" fill="#FF7E31"/>
<path d="M242.773 176.511C242.334 176.65 241.877 176.726 241.416 176.736C240.964 176.796 240.505 176.796 240.052 176.736C240.501 176.658 240.954 176.615 241.409 176.605C241.862 176.545 242.317 176.514 242.773 176.511Z" fill="#263238"/>
</svg>
