<svg width="17" height="17" viewBox="0 0 17 17" fill="none" xmlns="http://www.w3.org/2000/svg">
<g id="Group">
<path id="Vector" d="M6.85956 5.42571C4.66527 3.92857 2.61956 5.07142 0.905273 6.83142L4.69956 9.11714M11.4081 9.97428C12.9053 12.1686 11.7624 14.2143 10.0024 15.9286L7.7167 12.1343" stroke="#1D3149" stroke-linecap="round" stroke-linejoin="round"/>
<path id="Vector_2" d="M6.36779 6.23713L10.5964 10.4657M4.69922 9.10571L7.72779 12.1343C10.1506 10.6828 12.9049 9.27713 14.1621 7.97428C16.8821 5.25428 15.3049 1.52856 15.3049 1.52856C15.3049 1.52856 11.5792 -0.0485812 8.85922 2.67142C7.55636 3.92856 6.13922 6.69428 4.69922 9.10571Z" stroke="#1D3149" stroke-linecap="round" stroke-linejoin="round"/>
<path id="Vector_3" d="M12.3338 5.07142C12.4854 5.07142 12.6307 5.01121 12.7379 4.90405C12.8451 4.79688 12.9053 4.65154 12.9053 4.49999C12.9053 4.34843 12.8451 4.20309 12.7379 4.09593C12.6307 3.98876 12.4854 3.92856 12.3338 3.92856C12.1823 3.92856 12.0369 3.98876 11.9298 4.09593C11.8226 4.20309 11.7624 4.34843 11.7624 4.49999C11.7624 4.65154 11.8226 4.79688 11.9298 4.90405C12.0369 5.01121 12.1823 5.07142 12.3338 5.07142ZM4.53956 14.7171C3.8767 15.3571 0.905273 15.9286 0.905273 15.9286C0.905273 15.9286 1.4767 12.9571 2.1167 12.2943C2.35338 12.0413 2.66112 11.8658 2.99942 11.7911C3.33772 11.7163 3.69072 11.7458 4.01196 11.8755C4.3332 12.0053 4.60763 12.2293 4.79911 12.518C4.99059 12.8068 5.09016 13.1467 5.0847 13.4931C5.08052 13.7231 5.0301 13.9499 4.93645 14.16C4.84279 14.3701 4.70782 14.5603 4.53956 14.7171Z" stroke="#1D3149" stroke-linecap="round" stroke-linejoin="round"/>
</g>
</svg>
