<svg width="206" height="242" viewBox="0 0 206 242" fill="none" xmlns="http://www.w3.org/2000/svg">
<mask id="mask0_2_1344" style="mask-type:luminance" maskUnits="userSpaceOnUse" x="33" y="38" width="152" height="153">
<path d="M33.6255 38.9556H184.825V190.156H33.6255V38.9556Z" fill="white"/>
</mask>
<g mask="url(#mask0_2_1344)">
<path d="M183.634 187.822C183.744 187.675 183.852 187.528 183.946 187.373C184.046 187.213 184.132 187.05 184.211 186.882C184.295 186.714 184.374 186.544 184.44 186.365C184.508 186.189 184.56 186.011 184.608 185.827C184.652 185.648 184.699 185.473 184.728 185.291C184.765 185.084 184.778 184.877 184.791 184.664C184.799 184.549 184.825 184.441 184.825 184.323C184.825 184.262 184.81 184.21 184.81 184.152C184.802 183.945 184.776 183.735 184.747 183.525C184.72 183.344 184.699 183.165 184.657 182.989C184.615 182.816 184.552 182.648 184.497 182.477C184.426 182.275 184.361 182.073 184.272 181.882C184.248 181.829 184.237 181.774 184.211 181.721L158.04 129.382C156.609 126.512 153.113 125.347 150.238 126.78C147.364 128.216 146.201 131.707 147.637 134.584L169.6 178.508H149.755L138.618 155.611C138.562 155.498 138.484 155.406 138.423 155.298C138.318 155.114 138.216 154.931 138.09 154.757C137.98 154.605 137.859 154.469 137.738 154.33C137.612 154.188 137.489 154.049 137.35 153.92C137.211 153.789 137.064 153.676 136.914 153.56C136.767 153.445 136.617 153.332 136.455 153.232C136.302 153.138 136.142 153.056 135.982 152.978C135.806 152.888 135.63 152.804 135.447 152.731C135.276 152.668 135.105 152.618 134.932 152.573C134.746 152.521 134.559 152.471 134.368 152.437C134.166 152.403 133.963 152.39 133.761 152.377C133.633 152.366 133.512 152.337 133.383 152.337H85.128C84.9915 152.337 84.8655 152.366 84.7342 152.377C84.5347 152.39 84.3379 152.403 84.1436 152.437C83.9467 152.471 83.7577 152.524 83.5714 152.576C83.4007 152.623 83.2301 152.668 83.0647 152.736C82.8784 152.804 82.7025 152.891 82.5266 152.98C82.3639 153.059 82.2064 153.143 82.0541 153.24C81.894 153.34 81.747 153.453 81.6 153.566C81.4451 153.681 81.3007 153.797 81.159 153.925C81.0225 154.051 80.8991 154.19 80.7757 154.335C80.655 154.474 80.5316 154.613 80.4214 154.765C80.298 154.933 80.1956 155.117 80.0906 155.303C80.0302 155.408 79.9515 155.5 79.8964 155.613L68.7585 178.511H48.8505L69.2047 137.8H125.248C128.459 137.8 131.065 135.199 131.065 131.983C131.065 128.77 128.461 126.166 125.248 126.166H75.0217L109.228 57.7506L131.858 103.011H109.228C106.018 103.011 103.411 105.615 103.411 108.828C103.411 112.038 106.015 114.645 109.228 114.645H141.261C141.264 114.645 141.269 114.645 141.274 114.645C141.306 114.645 141.34 114.634 141.371 114.634C141.765 114.629 142.148 114.584 142.516 114.503C142.626 114.479 142.731 114.432 142.841 114.401C143.146 114.314 143.442 114.214 143.723 114.08C143.77 114.057 143.82 114.052 143.868 114.028C143.97 113.975 144.057 113.902 144.154 113.847C144.337 113.739 144.516 113.634 144.687 113.511C144.839 113.401 144.978 113.28 145.117 113.156C145.256 113.033 145.393 112.907 145.519 112.771C145.65 112.629 145.771 112.479 145.886 112.327C145.996 112.18 146.101 112.036 146.201 111.878C146.301 111.721 146.385 111.558 146.466 111.387C146.55 111.219 146.629 111.051 146.695 110.87C146.763 110.694 146.815 110.516 146.86 110.335C146.907 110.153 146.955 109.978 146.983 109.796C147.02 109.592 147.033 109.382 147.046 109.172C147.054 109.056 147.081 108.949 147.081 108.83C147.081 108.773 147.065 108.718 147.065 108.662C147.057 108.452 147.031 108.245 147.002 108.032C146.973 107.854 146.955 107.673 146.915 107.497C146.876 107.326 146.81 107.153 146.755 106.985C146.684 106.783 146.619 106.583 146.529 106.389C146.506 106.337 146.495 106.284 146.469 106.232L114.428 42.1449C114.41 42.1029 114.376 42.0741 114.357 42.0294C114.258 41.8378 114.134 41.6619 114.011 41.4834C113.914 41.3391 113.824 41.1947 113.719 41.0661C113.599 40.9191 113.46 40.7904 113.328 40.6566C113.189 40.5174 113.055 40.3757 112.906 40.2523C112.78 40.1499 112.638 40.0607 112.499 39.9662C112.318 39.8454 112.137 39.7194 111.945 39.6144C111.906 39.5934 111.871 39.5619 111.829 39.5436C111.717 39.4858 111.596 39.4596 111.48 39.4097C111.286 39.3283 111.092 39.2469 110.895 39.1866C110.711 39.1341 110.533 39.0973 110.346 39.0606C110.165 39.0264 109.981 38.9897 109.795 38.9713C109.603 38.9556 109.412 38.9556 109.215 38.9556C109.034 38.9556 108.853 38.9556 108.672 38.9713C108.472 38.9923 108.28 39.0291 108.089 39.0684C107.913 39.1052 107.74 39.1341 107.566 39.1866C107.362 39.2496 107.165 39.3309 106.968 39.4123C106.855 39.4596 106.734 39.4858 106.624 39.5436C106.582 39.5619 106.548 39.5961 106.509 39.6144C106.317 39.7142 106.141 39.8376 105.963 39.9609C105.823 40.0554 105.676 40.1473 105.548 40.2523C105.401 40.3704 105.272 40.5122 105.136 40.6461C104.999 40.7826 104.857 40.9164 104.734 41.0661C104.632 41.1921 104.542 41.3364 104.451 41.4729C104.327 41.6541 104.201 41.8352 104.099 42.0268C104.075 42.0662 104.046 42.1003 104.025 42.1423L34.2397 181.721C34.2135 181.774 34.203 181.829 34.1794 181.882C34.0901 182.073 34.0192 182.275 33.9536 182.477C33.8985 182.648 33.8381 182.816 33.7935 182.989C33.7541 183.165 33.7305 183.344 33.7042 183.525C33.6754 183.735 33.6491 183.945 33.6412 184.152C33.6412 184.21 33.6255 184.265 33.6255 184.323C33.6255 184.438 33.6517 184.549 33.6596 184.664C33.6727 184.871 33.6859 185.081 33.7226 185.291C33.7515 185.473 33.7987 185.651 33.8434 185.827C33.8932 186.011 33.9431 186.189 34.0114 186.365C34.077 186.544 34.1557 186.714 34.2397 186.882C34.3211 187.05 34.4077 187.213 34.5049 187.373C34.5994 187.528 34.707 187.675 34.8172 187.822C34.9327 187.974 35.0509 188.124 35.1847 188.266C35.3107 188.402 35.442 188.523 35.5811 188.646C35.7202 188.772 35.8646 188.893 36.0169 189.006C36.1822 189.127 36.3581 189.229 36.5366 189.334C36.639 189.392 36.7256 189.465 36.8332 189.523C36.8779 189.547 36.933 189.552 36.9776 189.575C37.2559 189.704 37.5446 189.804 37.8439 189.888C37.9567 189.919 38.0696 189.967 38.1825 189.993C38.5316 190.069 38.8912 190.106 39.264 190.119C39.3165 190.119 39.3742 190.14 39.4267 190.14C39.4372 190.14 39.4451 190.135 39.453 190.135H72.3652C72.3731 190.135 72.3757 190.14 72.381 190.14C72.7327 190.14 73.0819 190.095 73.4257 190.032C73.5202 190.016 73.6095 189.995 73.6987 189.977C73.9796 189.909 74.2552 189.827 74.5204 189.72C74.5755 189.701 74.628 189.688 74.6779 189.665C74.9824 189.536 75.2711 189.373 75.552 189.19C75.6229 189.145 75.6885 189.095 75.7541 189.045C75.9746 188.888 76.1794 188.72 76.3762 188.531C76.4314 188.478 76.4917 188.423 76.5469 188.368C76.7831 188.126 77.001 187.869 77.1952 187.583C77.211 187.559 77.2215 187.536 77.2346 187.512C77.3711 187.307 77.4971 187.095 77.61 186.866L88.7505 163.969H129.742L140.584 186.257C141.201 188 142.613 189.342 144.393 189.869C144.461 189.89 144.526 189.914 144.592 189.932C144.768 189.98 144.944 190.016 145.128 190.045C145.398 190.093 145.674 190.121 145.949 190.129C145.983 190.129 146.01 190.14 146.041 190.14H146.086C146.096 190.14 146.101 190.142 146.112 190.142C146.117 190.142 146.122 190.14 146.128 190.14H178.974C178.985 190.14 178.995 190.142 179.001 190.142C179.056 190.142 179.111 190.127 179.163 190.121C179.533 190.114 179.898 190.072 180.245 189.995C180.36 189.969 180.471 189.925 180.583 189.89C180.883 189.804 181.174 189.707 181.45 189.578C181.5 189.554 181.549 189.549 181.594 189.526C181.702 189.473 181.791 189.397 181.891 189.337C182.069 189.234 182.245 189.127 182.41 189.008C182.563 188.896 182.707 188.775 182.846 188.649C182.985 188.528 183.117 188.405 183.243 188.268C183.4 188.124 183.516 187.974 183.634 187.822Z" fill="white"/>
</g>
<mask id="mask1_2_1344" style="mask-type:luminance" maskUnits="userSpaceOnUse" x="21" y="18" width="51" height="51">
<path d="M71.9 68.8999H21.5L21.5 18.4999L71.9 18.4999V68.8999Z" fill="white"/>
</mask>
<g mask="url(#mask1_2_1344)">
<path d="M68.3011 40.0958H55.4019L64.5238 30.9766C65.9334 29.5643 65.9334 27.2989 64.5238 25.8867C63.8176 25.1806 62.9015 24.8288 61.9828 24.8288C61.0667 24.8288 60.14 25.1806 59.4339 25.8867L50.3042 35.0191L50.3042 22.1067C50.3042 20.1222 48.6898 18.5104 46.7053 18.5104C44.7208 18.5104 43.1064 20.1222 43.1064 22.1067L43.1064 35.0086L33.9767 25.8762C33.2705 25.1727 32.3544 24.8183 31.4278 24.8183C30.509 24.8183 29.5824 25.1727 28.8868 25.8762C27.4877 27.2884 27.4877 29.5564 28.8868 30.9661L38.0087 40.0879L25.0989 40.0879C23.1118 40.0879 21.5 41.6997 21.5 43.6842C21.5 45.6713 23.1118 47.2831 25.0989 47.2831L38.0192 47.2831L28.8868 56.4128C27.4877 57.8251 27.4877 60.1009 28.8868 61.5027C30.299 62.9123 32.5749 62.9123 33.9767 61.5027L43.1064 52.3729V65.2722C43.1064 67.2777 44.7208 68.8894 46.7053 68.8894C48.6898 68.8894 50.3042 67.2777 50.3042 65.2932V52.3913L59.4339 61.5237C60.8435 62.9333 63.122 62.9333 64.5238 61.5237C65.9229 60.1114 65.9334 57.8434 64.5238 56.4338L55.3914 47.3041H68.3011C70.2883 47.2936 71.9 45.6792 71.9 43.6947C71.9 41.7102 70.2883 40.0958 68.3011 40.0958Z" fill="#FF4F28"/>
</g>
<path d="M10.5422 233.266C10.5422 234.226 10.3322 235.078 9.91216 235.822C9.49216 236.554 8.92216 237.13 8.20216 237.55C7.48216 237.97 6.67216 238.18 5.77216 238.18C4.87216 238.18 4.06216 237.97 3.34216 237.55C2.62216 237.13 2.04616 236.554 1.61416 235.822C1.19416 235.078 0.984159 234.226 0.984159 233.266C0.984159 232.294 1.19416 231.442 1.61416 230.71C2.04616 229.966 2.62216 229.384 3.34216 228.964C4.06216 228.532 4.87216 228.316 5.77216 228.316C6.67216 228.316 7.48216 228.532 8.20216 228.964C8.92216 229.384 9.49216 229.966 9.91216 230.71C10.3322 231.442 10.5422 232.294 10.5422 233.266ZM8.74216 233.266C8.74216 232.606 8.61016 232.036 8.34616 231.556C8.08216 231.064 7.72216 230.68 7.26616 230.404C6.82216 230.116 6.32416 229.972 5.77216 229.972C5.22016 229.972 4.71616 230.116 4.26016 230.404C3.80416 230.68 3.44416 231.064 3.18016 231.556C2.91616 232.036 2.78416 232.606 2.78416 233.266C2.78416 233.902 2.91616 234.466 3.18016 234.958C3.44416 235.45 3.80416 235.834 4.26016 236.11C4.71616 236.386 5.22016 236.524 5.77216 236.524C6.32416 236.524 6.82216 236.386 7.26616 236.11C7.72216 235.834 8.08216 235.45 8.34616 234.958C8.61016 234.466 8.74216 233.902 8.74216 233.266ZM16.5575 228.316C17.4095 228.316 18.0695 228.496 18.5375 228.856C19.0055 229.204 19.3295 229.678 19.5095 230.278C19.7015 230.866 19.7975 231.526 19.7975 232.258V237.082C19.7975 237.346 19.7075 237.568 19.5275 237.748C19.3595 237.916 19.1495 238 18.8975 238C18.6335 238 18.4175 237.916 18.2495 237.748C18.0815 237.568 17.9975 237.346 17.9975 237.082V232.276C17.9975 231.844 17.9375 231.46 17.8175 231.124C17.6975 230.776 17.4875 230.5 17.1875 230.296C16.8995 230.08 16.4915 229.972 15.9635 229.972C15.4715 229.972 15.0395 230.08 14.6675 230.296C14.2955 230.5 14.0015 230.776 13.7855 231.124C13.5815 231.46 13.4795 231.844 13.4795 232.276V237.082C13.4795 237.346 13.3895 237.568 13.2095 237.748C13.0415 237.916 12.8315 238 12.5795 238C12.3155 238 12.0995 237.916 11.9315 237.748C11.7635 237.568 11.6795 237.346 11.6795 237.082V229.45C11.6795 229.186 11.7635 228.97 11.9315 228.802C12.0995 228.622 12.3155 228.532 12.5795 228.532C12.8315 228.532 13.0415 228.622 13.2095 228.802C13.3895 228.97 13.4795 229.186 13.4795 229.45V230.458L13.1555 230.638C13.2395 230.374 13.3835 230.11 13.5875 229.846C13.8035 229.57 14.0615 229.318 14.3615 229.09C14.6615 228.85 14.9975 228.664 15.3695 228.532C15.7415 228.388 16.1375 228.316 16.5575 228.316ZM23.3407 237.082C23.3407 237.346 23.2507 237.568 23.0707 237.748C22.9027 237.916 22.6927 238 22.4407 238C22.1887 238 21.9727 237.916 21.7927 237.748C21.6247 237.568 21.5407 237.346 21.5407 237.082V225.598C21.5407 225.334 21.6307 225.118 21.8107 224.95C21.9907 224.77 22.2067 224.68 22.4587 224.68C22.7227 224.68 22.9327 224.77 23.0887 224.95C23.2567 225.118 23.3407 225.334 23.3407 225.598V237.082ZM26.8118 237.082C26.8118 237.346 26.7278 237.568 26.5598 237.748C26.3918 237.916 26.1758 238 25.9118 238C25.6598 238 25.4438 237.916 25.2638 237.748C25.0958 237.568 25.0118 237.346 25.0118 237.082V229.378C25.0118 229.114 25.0958 228.898 25.2638 228.73C25.4438 228.55 25.6598 228.46 25.9118 228.46C26.1758 228.46 26.3918 228.55 26.5598 228.73C26.7278 228.898 26.8118 229.114 26.8118 229.378V237.082ZM25.8938 227.272C25.5458 227.272 25.2938 227.212 25.1378 227.092C24.9818 226.96 24.9038 226.744 24.9038 226.444V226.156C24.9038 225.856 24.9878 225.646 25.1558 225.526C25.3238 225.406 25.5758 225.346 25.9118 225.346C26.2718 225.346 26.5298 225.412 26.6858 225.544C26.8418 225.664 26.9198 225.868 26.9198 226.156V226.444C26.9198 226.756 26.8358 226.972 26.6678 227.092C26.5118 227.212 26.2538 227.272 25.8938 227.272ZM33.211 228.316C34.0631 228.316 34.7231 228.496 35.1911 228.856C35.659 229.204 35.983 229.678 36.163 230.278C36.355 230.866 36.4511 231.526 36.4511 232.258V237.082C36.4511 237.346 36.3611 237.568 36.1811 237.748C36.013 237.916 35.803 238 35.551 238C35.2871 238 35.0711 237.916 34.9031 237.748C34.7351 237.568 34.6511 237.346 34.6511 237.082V232.276C34.6511 231.844 34.5911 231.46 34.471 231.124C34.351 230.776 34.141 230.5 33.841 230.296C33.553 230.08 33.1451 229.972 32.6171 229.972C32.125 229.972 31.693 230.08 31.321 230.296C30.949 230.5 30.655 230.776 30.439 231.124C30.235 231.46 30.133 231.844 30.133 232.276V237.082C30.133 237.346 30.043 237.568 29.863 237.748C29.695 237.916 29.485 238 29.233 238C28.969 238 28.753 237.916 28.585 237.748C28.417 237.568 28.333 237.346 28.333 237.082V229.45C28.333 229.186 28.417 228.97 28.585 228.802C28.753 228.622 28.969 228.532 29.233 228.532C29.485 228.532 29.695 228.622 29.863 228.802C30.043 228.97 30.133 229.186 30.133 229.45V230.458L29.809 230.638C29.893 230.374 30.037 230.11 30.241 229.846C30.457 229.57 30.715 229.318 31.015 229.09C31.315 228.85 31.651 228.664 32.023 228.532C32.395 228.388 32.791 228.316 33.211 228.316ZM42.4602 238.18C41.4642 238.18 40.6002 237.976 39.8682 237.568C39.1362 237.148 38.5662 236.578 38.1582 235.858C37.7622 235.126 37.5642 234.292 37.5642 233.356C37.5642 232.3 37.7742 231.4 38.1942 230.656C38.6262 229.9 39.1842 229.324 39.8682 228.928C40.5522 228.52 41.2782 228.316 42.0462 228.316C42.6342 228.316 43.1922 228.436 43.7202 228.676C44.2482 228.904 44.7162 229.228 45.1242 229.648C45.5442 230.056 45.8742 230.542 46.1142 231.106C46.3542 231.658 46.4802 232.264 46.4922 232.924C46.4802 233.164 46.3842 233.362 46.2042 233.518C46.0242 233.674 45.8142 233.752 45.5742 233.752H38.5722L38.1402 232.222H44.9082L44.5662 232.546V232.096C44.5422 231.676 44.4042 231.31 44.1522 230.998C43.9002 230.674 43.5882 230.428 43.2162 230.26C42.8442 230.08 42.4542 229.99 42.0462 229.99C41.6862 229.99 41.3382 230.05 41.0022 230.17C40.6782 230.278 40.3842 230.458 40.1202 230.71C39.8682 230.962 39.6642 231.298 39.5082 231.718C39.3642 232.126 39.2922 232.636 39.2922 233.248C39.2922 233.908 39.4302 234.484 39.7062 234.976C39.9822 235.468 40.3542 235.852 40.8222 236.128C41.2902 236.392 41.8062 236.524 42.3702 236.524C42.8142 236.524 43.1802 236.482 43.4682 236.398C43.7562 236.302 43.9962 236.188 44.1882 236.056C44.3802 235.924 44.5482 235.798 44.6922 235.678C44.8722 235.57 45.0522 235.516 45.2322 235.516C45.4482 235.516 45.6282 235.594 45.7722 235.75C45.9162 235.894 45.9882 236.068 45.9882 236.272C45.9882 236.536 45.8562 236.776 45.5922 236.992C45.2682 237.304 44.8182 237.58 44.2422 237.82C43.6782 238.06 43.0842 238.18 42.4602 238.18ZM53.6806 237.082C53.6806 237.346 53.5906 237.568 53.4106 237.748C53.2426 237.916 53.0326 238 52.7806 238C52.5286 238 52.3126 237.916 52.1326 237.748C51.9646 237.568 51.8806 237.346 51.8806 237.082V225.598C51.8806 225.334 51.9706 225.118 52.1506 224.95C52.3306 224.77 52.5466 224.68 52.7986 224.68C53.0626 224.68 53.2726 224.77 53.4286 224.95C53.5966 225.118 53.6806 225.334 53.6806 225.598V237.082ZM59.6938 238.18C58.6978 238.18 57.8338 237.976 57.1018 237.568C56.3698 237.148 55.7998 236.578 55.3918 235.858C54.9958 235.126 54.7978 234.292 54.7978 233.356C54.7978 232.3 55.0078 231.4 55.4278 230.656C55.8598 229.9 56.4178 229.324 57.1018 228.928C57.7858 228.52 58.5118 228.316 59.2798 228.316C59.8678 228.316 60.4258 228.436 60.9538 228.676C61.4818 228.904 61.9498 229.228 62.3578 229.648C62.7778 230.056 63.1078 230.542 63.3478 231.106C63.5878 231.658 63.7138 232.264 63.7258 232.924C63.7138 233.164 63.6178 233.362 63.4378 233.518C63.2578 233.674 63.0478 233.752 62.8078 233.752H55.8058L55.3738 232.222H62.1418L61.7998 232.546V232.096C61.7758 231.676 61.6378 231.31 61.3858 230.998C61.1338 230.674 60.8218 230.428 60.4498 230.26C60.0778 230.08 59.6878 229.99 59.2798 229.99C58.9198 229.99 58.5718 230.05 58.2358 230.17C57.9118 230.278 57.6178 230.458 57.3538 230.71C57.1018 230.962 56.8978 231.298 56.7418 231.718C56.5978 232.126 56.5258 232.636 56.5258 233.248C56.5258 233.908 56.6638 234.484 56.9398 234.976C57.2158 235.468 57.5878 235.852 58.0558 236.128C58.5238 236.392 59.0398 236.524 59.6038 236.524C60.0478 236.524 60.4138 236.482 60.7018 236.398C60.9898 236.302 61.2298 236.188 61.4218 236.056C61.6138 235.924 61.7818 235.798 61.9258 235.678C62.1058 235.57 62.2858 235.516 62.4658 235.516C62.6818 235.516 62.8618 235.594 63.0058 235.75C63.1498 235.894 63.2218 236.068 63.2218 236.272C63.2218 236.536 63.0898 236.776 62.8258 236.992C62.5018 237.304 62.0518 237.58 61.4758 237.82C60.9118 238.06 60.3178 238.18 59.6938 238.18ZM72.6887 228.388C72.9527 228.388 73.1687 228.478 73.3367 228.658C73.5047 228.826 73.5887 229.042 73.5887 229.306V237.082C73.5887 237.346 73.5047 237.568 73.3367 237.748C73.1687 237.916 72.9527 238 72.6887 238C72.4367 238 72.2207 237.916 72.0407 237.748C71.8727 237.568 71.7887 237.346 71.7887 237.082V235.786L72.1667 235.84C72.1667 236.056 72.0767 236.296 71.8967 236.56C71.7287 236.824 71.4947 237.082 71.1947 237.334C70.8947 237.574 70.5407 237.778 70.1327 237.946C69.7247 238.102 69.2867 238.18 68.8187 238.18C67.9907 238.18 67.2467 237.97 66.5867 237.55C65.9267 237.118 65.4047 236.53 65.0207 235.786C64.6367 235.042 64.4447 234.196 64.4447 233.248C64.4447 232.276 64.6367 231.424 65.0207 230.692C65.4047 229.948 65.9207 229.366 66.5687 228.946C67.2287 228.526 67.9607 228.316 68.7647 228.316C69.2807 228.316 69.7547 228.4 70.1867 228.568C70.6307 228.736 71.0147 228.952 71.3387 229.216C71.6627 229.48 71.9087 229.762 72.0767 230.062C72.2567 230.35 72.3467 230.626 72.3467 230.89L71.7887 230.944V229.306C71.7887 229.054 71.8727 228.838 72.0407 228.658C72.2207 228.478 72.4367 228.388 72.6887 228.388ZM69.0167 236.524C69.5807 236.524 70.0787 236.38 70.5107 236.092C70.9427 235.804 71.2787 235.414 71.5187 234.922C71.7587 234.418 71.8787 233.86 71.8787 233.248C71.8787 232.624 71.7587 232.066 71.5187 231.574C71.2787 231.082 70.9427 230.692 70.5107 230.404C70.0787 230.116 69.5807 229.972 69.0167 229.972C68.4647 229.972 67.9727 230.116 67.5407 230.404C67.1207 230.692 66.7847 231.082 66.5327 231.574C66.2927 232.066 66.1727 232.624 66.1727 233.248C66.1727 233.86 66.2927 234.418 66.5327 234.922C66.7847 235.414 67.1207 235.804 67.5407 236.092C67.9727 236.38 68.4647 236.524 69.0167 236.524ZM76.1104 238C75.8464 238 75.6304 237.916 75.4624 237.748C75.2944 237.568 75.2104 237.346 75.2104 237.082V229.45C75.2104 229.186 75.2944 228.97 75.4624 228.802C75.6304 228.622 75.8464 228.532 76.1104 228.532C76.3624 228.532 76.5724 228.622 76.7404 228.802C76.9204 228.97 77.0104 229.186 77.0104 229.45V231.466L76.8304 230.692C76.9264 230.356 77.0704 230.044 77.2624 229.756C77.4664 229.468 77.7064 229.216 77.9824 229C78.2584 228.784 78.5644 228.616 78.9004 228.496C79.2484 228.376 79.6084 228.316 79.9804 228.316C80.2924 228.316 80.5624 228.4 80.7904 228.568C81.0184 228.736 81.1324 228.946 81.1324 229.198C81.1324 229.522 81.0484 229.762 80.8804 229.918C80.7124 230.062 80.5264 230.134 80.3224 230.134C80.1424 230.134 79.9684 230.098 79.8004 230.026C79.6324 229.942 79.4344 229.9 79.2064 229.9C78.9544 229.9 78.6964 229.966 78.4324 230.098C78.1684 230.23 77.9284 230.428 77.7124 230.692C77.4964 230.944 77.3224 231.244 77.1904 231.592C77.0704 231.94 77.0104 232.33 77.0104 232.762V237.082C77.0104 237.346 76.9204 237.568 76.7404 237.748C76.5724 237.916 76.3624 238 76.1104 238ZM86.7118 228.316C87.5638 228.316 88.2238 228.496 88.6918 228.856C89.1598 229.204 89.4838 229.678 89.6638 230.278C89.8558 230.866 89.9518 231.526 89.9518 232.258V237.082C89.9518 237.346 89.8618 237.568 89.6818 237.748C89.5138 237.916 89.3038 238 89.0518 238C88.7878 238 88.5718 237.916 88.4038 237.748C88.2358 237.568 88.1518 237.346 88.1518 237.082V232.276C88.1518 231.844 88.0918 231.46 87.9718 231.124C87.8518 230.776 87.6418 230.5 87.3418 230.296C87.0538 230.08 86.6458 229.972 86.1178 229.972C85.6258 229.972 85.1938 230.08 84.8218 230.296C84.4498 230.5 84.1558 230.776 83.9398 231.124C83.7358 231.46 83.6338 231.844 83.6338 232.276V237.082C83.6338 237.346 83.5438 237.568 83.3638 237.748C83.1958 237.916 82.9858 238 82.7338 238C82.4698 238 82.2538 237.916 82.0858 237.748C81.9178 237.568 81.8338 237.346 81.8338 237.082V229.45C81.8338 229.186 81.9178 228.97 82.0858 228.802C82.2538 228.622 82.4698 228.532 82.7338 228.532C82.9858 228.532 83.1958 228.622 83.3638 228.802C83.5438 228.97 83.6338 229.186 83.6338 229.45V230.458L83.3098 230.638C83.3938 230.374 83.5378 230.11 83.7418 229.846C83.9578 229.57 84.2158 229.318 84.5158 229.09C84.8158 228.85 85.1518 228.664 85.5238 228.532C85.8958 228.388 86.2918 228.316 86.7118 228.316ZM93.243 237.082C93.243 237.346 93.159 237.568 92.991 237.748C92.823 237.916 92.607 238 92.343 238C92.091 238 91.875 237.916 91.695 237.748C91.527 237.568 91.443 237.346 91.443 237.082V229.378C91.443 229.114 91.527 228.898 91.695 228.73C91.875 228.55 92.091 228.46 92.343 228.46C92.607 228.46 92.823 228.55 92.991 228.73C93.159 228.898 93.243 229.114 93.243 229.378V237.082ZM92.325 227.272C91.977 227.272 91.725 227.212 91.569 227.092C91.413 226.96 91.335 226.744 91.335 226.444V226.156C91.335 225.856 91.419 225.646 91.587 225.526C91.755 225.406 92.007 225.346 92.343 225.346C92.703 225.346 92.961 225.412 93.117 225.544C93.273 225.664 93.351 225.868 93.351 226.156V226.444C93.351 226.756 93.267 226.972 93.099 227.092C92.943 227.212 92.685 227.272 92.325 227.272ZM99.6423 228.316C100.494 228.316 101.154 228.496 101.622 228.856C102.09 229.204 102.414 229.678 102.594 230.278C102.786 230.866 102.882 231.526 102.882 232.258V237.082C102.882 237.346 102.792 237.568 102.612 237.748C102.444 237.916 102.234 238 101.982 238C101.718 238 101.502 237.916 101.334 237.748C101.166 237.568 101.082 237.346 101.082 237.082V232.276C101.082 231.844 101.022 231.46 100.902 231.124C100.782 230.776 100.572 230.5 100.272 230.296C99.9843 230.08 99.5763 229.972 99.0483 229.972C98.5563 229.972 98.1243 230.08 97.7523 230.296C97.3803 230.5 97.0863 230.776 96.8703 231.124C96.6663 231.46 96.5643 231.844 96.5643 232.276V237.082C96.5643 237.346 96.4743 237.568 96.2943 237.748C96.1263 237.916 95.9163 238 95.6643 238C95.4003 238 95.1843 237.916 95.0163 237.748C94.8483 237.568 94.7643 237.346 94.7643 237.082V229.45C94.7643 229.186 94.8483 228.97 95.0163 228.802C95.1843 228.622 95.4003 228.532 95.6643 228.532C95.9163 228.532 96.1263 228.622 96.2943 228.802C96.4743 228.97 96.5643 229.186 96.5643 229.45V230.458L96.2403 230.638C96.3243 230.374 96.4683 230.11 96.6723 229.846C96.8883 229.57 97.1463 229.318 97.4463 229.09C97.7463 228.85 98.0823 228.664 98.4543 228.532C98.8263 228.388 99.2223 228.316 99.6423 228.316ZM108.423 228.316C108.939 228.316 109.413 228.4 109.845 228.568C110.277 228.736 110.649 228.952 110.961 229.216C111.285 229.468 111.537 229.732 111.717 230.008C111.897 230.284 111.987 230.524 111.987 230.728L111.573 230.746V229.306C111.573 229.054 111.657 228.838 111.825 228.658C111.993 228.478 112.209 228.388 112.473 228.388C112.737 228.388 112.953 228.478 113.121 228.658C113.289 228.826 113.373 229.042 113.373 229.306V237.244C113.373 238.264 113.157 239.092 112.725 239.728C112.293 240.376 111.717 240.85 110.997 241.15C110.289 241.45 109.509 241.6 108.657 241.6C108.357 241.6 108.003 241.558 107.595 241.474C107.187 241.402 106.809 241.312 106.461 241.204C106.125 241.096 105.891 240.988 105.759 240.88C105.483 240.736 105.297 240.568 105.201 240.376C105.117 240.184 105.117 239.992 105.201 239.8C105.321 239.536 105.483 239.374 105.687 239.314C105.891 239.254 106.125 239.272 106.389 239.368C106.509 239.404 106.695 239.47 106.947 239.566C107.199 239.662 107.481 239.746 107.793 239.818C108.105 239.902 108.399 239.944 108.675 239.944C109.635 239.944 110.355 239.722 110.835 239.278C111.327 238.834 111.573 238.228 111.573 237.46V235.84L111.771 235.966C111.735 236.218 111.621 236.476 111.429 236.74C111.249 236.992 111.009 237.226 110.709 237.442C110.409 237.658 110.061 237.838 109.665 237.982C109.281 238.114 108.885 238.18 108.477 238.18C107.625 238.18 106.863 237.97 106.191 237.55C105.519 237.118 104.985 236.536 104.589 235.804C104.193 235.06 103.995 234.208 103.995 233.248C103.995 232.288 104.193 231.442 104.589 230.71C104.985 229.966 105.513 229.384 106.173 228.964C106.845 228.532 107.595 228.316 108.423 228.316ZM108.693 229.972C108.105 229.972 107.589 230.116 107.145 230.404C106.701 230.692 106.353 231.082 106.101 231.574C105.849 232.066 105.723 232.624 105.723 233.248C105.723 233.872 105.849 234.43 106.101 234.922C106.353 235.414 106.701 235.804 107.145 236.092C107.589 236.38 108.105 236.524 108.693 236.524C109.281 236.524 109.797 236.386 110.241 236.11C110.685 235.822 111.033 235.432 111.285 234.94C111.537 234.436 111.663 233.872 111.663 233.248C111.663 232.624 111.537 232.066 111.285 231.574C111.033 231.07 110.685 230.68 110.241 230.404C109.797 230.116 109.281 229.972 108.693 229.972ZM123.834 228.37C124.722 228.37 125.406 228.592 125.886 229.036C126.366 229.468 126.684 230.056 126.84 230.8L126.552 230.71L126.678 230.422C126.834 230.11 127.068 229.798 127.38 229.486C127.704 229.162 128.088 228.898 128.532 228.694C128.976 228.478 129.45 228.37 129.954 228.37C130.782 228.37 131.424 228.55 131.88 228.91C132.336 229.258 132.654 229.732 132.834 230.332C133.014 230.92 133.104 231.58 133.104 232.312V237.082C133.104 237.346 133.02 237.568 132.852 237.748C132.684 237.916 132.468 238 132.204 238C131.952 238 131.736 237.916 131.556 237.748C131.388 237.568 131.304 237.346 131.304 237.082V232.33C131.304 231.91 131.244 231.526 131.124 231.178C131.016 230.83 130.818 230.554 130.53 230.35C130.254 230.134 129.87 230.026 129.378 230.026C128.91 230.026 128.49 230.134 128.118 230.35C127.758 230.554 127.476 230.83 127.272 231.178C127.068 231.526 126.966 231.91 126.966 232.33V237.082C126.966 237.346 126.882 237.568 126.714 237.748C126.546 237.916 126.33 238 126.066 238C125.802 238 125.586 237.916 125.418 237.748C125.25 237.568 125.166 237.346 125.166 237.082V232.312C125.166 231.892 125.106 231.508 124.986 231.16C124.878 230.812 124.686 230.536 124.41 230.332C124.134 230.128 123.75 230.026 123.258 230.026C122.79 230.026 122.376 230.128 122.016 230.332C121.656 230.536 121.374 230.812 121.17 231.16C120.978 231.508 120.882 231.892 120.882 232.312V237.082C120.882 237.346 120.792 237.568 120.612 237.748C120.444 237.916 120.234 238 119.982 238C119.718 238 119.502 237.916 119.334 237.748C119.166 237.568 119.082 237.346 119.082 237.082V229.45C119.082 229.186 119.166 228.97 119.334 228.802C119.502 228.622 119.718 228.532 119.982 228.532C120.234 228.532 120.444 228.622 120.612 228.802C120.792 228.97 120.882 229.186 120.882 229.45V230.512L120.54 230.71C120.624 230.446 120.762 230.176 120.954 229.9C121.146 229.624 121.386 229.372 121.674 229.144C121.974 228.916 122.304 228.73 122.664 228.586C123.024 228.442 123.414 228.37 123.834 228.37ZM142.481 228.388C142.745 228.388 142.961 228.478 143.129 228.658C143.297 228.826 143.381 229.042 143.381 229.306V237.082C143.381 237.346 143.297 237.568 143.129 237.748C142.961 237.916 142.745 238 142.481 238C142.229 238 142.013 237.916 141.833 237.748C141.665 237.568 141.581 237.346 141.581 237.082V235.786L141.959 235.84C141.959 236.056 141.869 236.296 141.689 236.56C141.521 236.824 141.287 237.082 140.987 237.334C140.687 237.574 140.333 237.778 139.925 237.946C139.517 238.102 139.079 238.18 138.611 238.18C137.783 238.18 137.039 237.97 136.379 237.55C135.719 237.118 135.197 236.53 134.813 235.786C134.429 235.042 134.237 234.196 134.237 233.248C134.237 232.276 134.429 231.424 134.813 230.692C135.197 229.948 135.713 229.366 136.361 228.946C137.021 228.526 137.753 228.316 138.557 228.316C139.073 228.316 139.547 228.4 139.979 228.568C140.423 228.736 140.807 228.952 141.131 229.216C141.455 229.48 141.701 229.762 141.869 230.062C142.049 230.35 142.139 230.626 142.139 230.89L141.581 230.944V229.306C141.581 229.054 141.665 228.838 141.833 228.658C142.013 228.478 142.229 228.388 142.481 228.388ZM138.809 236.524C139.373 236.524 139.871 236.38 140.303 236.092C140.735 235.804 141.071 235.414 141.311 234.922C141.551 234.418 141.671 233.86 141.671 233.248C141.671 232.624 141.551 232.066 141.311 231.574C141.071 231.082 140.735 230.692 140.303 230.404C139.871 230.116 139.373 229.972 138.809 229.972C138.257 229.972 137.765 230.116 137.333 230.404C136.913 230.692 136.577 231.082 136.325 231.574C136.085 232.066 135.965 232.624 135.965 233.248C135.965 233.86 136.085 234.418 136.325 234.922C136.577 235.414 136.913 235.804 137.333 236.092C137.765 236.38 138.257 236.524 138.809 236.524ZM152.761 224.68C153.025 224.68 153.241 224.764 153.409 224.932C153.577 225.1 153.661 225.322 153.661 225.598V237.082C153.661 237.346 153.577 237.568 153.409 237.748C153.241 237.916 153.025 238 152.761 238C152.509 238 152.293 237.916 152.113 237.748C151.945 237.568 151.861 237.346 151.861 237.082V235.786L152.239 235.804C152.239 236.02 152.149 236.266 151.969 236.542C151.801 236.806 151.567 237.064 151.267 237.316C150.967 237.568 150.613 237.778 150.205 237.946C149.797 238.102 149.359 238.18 148.891 238.18C148.063 238.18 147.319 237.97 146.659 237.55C145.999 237.118 145.477 236.536 145.093 235.804C144.709 235.06 144.517 234.208 144.517 233.248C144.517 232.288 144.709 231.442 145.093 230.71C145.477 229.966 145.993 229.384 146.641 228.964C147.301 228.532 148.033 228.316 148.837 228.316C149.341 228.316 149.809 228.4 150.241 228.568C150.685 228.736 151.069 228.952 151.393 229.216C151.717 229.48 151.969 229.762 152.149 230.062C152.329 230.35 152.419 230.626 152.419 230.89L151.861 230.944V225.598C151.861 225.334 151.945 225.118 152.113 224.95C152.293 224.77 152.509 224.68 152.761 224.68ZM149.089 236.524C149.665 236.524 150.163 236.38 150.583 236.092C151.015 235.804 151.351 235.414 151.591 234.922C151.831 234.43 151.951 233.872 151.951 233.248C151.951 232.624 151.831 232.066 151.591 231.574C151.351 231.082 151.015 230.692 150.583 230.404C150.151 230.116 149.653 229.972 149.089 229.972C148.537 229.972 148.045 230.116 147.613 230.404C147.193 230.692 146.857 231.082 146.605 231.574C146.365 232.066 146.245 232.624 146.245 233.248C146.245 233.872 146.365 234.43 146.605 234.922C146.857 235.414 147.193 235.804 147.613 236.092C148.045 236.38 148.537 236.524 149.089 236.524ZM159.692 238.18C158.696 238.18 157.832 237.976 157.1 237.568C156.368 237.148 155.798 236.578 155.39 235.858C154.994 235.126 154.796 234.292 154.796 233.356C154.796 232.3 155.006 231.4 155.426 230.656C155.858 229.9 156.416 229.324 157.1 228.928C157.784 228.52 158.51 228.316 159.278 228.316C159.866 228.316 160.424 228.436 160.952 228.676C161.48 228.904 161.948 229.228 162.356 229.648C162.776 230.056 163.106 230.542 163.346 231.106C163.586 231.658 163.712 232.264 163.724 232.924C163.712 233.164 163.616 233.362 163.436 233.518C163.256 233.674 163.046 233.752 162.806 233.752H155.804L155.372 232.222H162.14L161.798 232.546V232.096C161.774 231.676 161.636 231.31 161.384 230.998C161.132 230.674 160.82 230.428 160.448 230.26C160.076 230.08 159.686 229.99 159.278 229.99C158.918 229.99 158.57 230.05 158.234 230.17C157.91 230.278 157.616 230.458 157.352 230.71C157.1 230.962 156.896 231.298 156.74 231.718C156.596 232.126 156.524 232.636 156.524 233.248C156.524 233.908 156.662 234.484 156.938 234.976C157.214 235.468 157.586 235.852 158.054 236.128C158.522 236.392 159.038 236.524 159.602 236.524C160.046 236.524 160.412 236.482 160.7 236.398C160.988 236.302 161.228 236.188 161.42 236.056C161.612 235.924 161.78 235.798 161.924 235.678C162.104 235.57 162.284 235.516 162.464 235.516C162.68 235.516 162.86 235.594 163.004 235.75C163.148 235.894 163.22 236.068 163.22 236.272C163.22 236.536 163.088 236.776 162.824 236.992C162.5 237.304 162.05 237.58 161.474 237.82C160.91 238.06 160.316 238.18 159.692 238.18ZM173.379 238.18C172.383 238.18 171.519 237.976 170.787 237.568C170.055 237.148 169.485 236.578 169.077 235.858C168.681 235.126 168.483 234.292 168.483 233.356C168.483 232.3 168.693 231.4 169.113 230.656C169.545 229.9 170.103 229.324 170.787 228.928C171.471 228.52 172.197 228.316 172.965 228.316C173.553 228.316 174.111 228.436 174.639 228.676C175.167 228.904 175.635 229.228 176.043 229.648C176.463 230.056 176.793 230.542 177.033 231.106C177.273 231.658 177.399 232.264 177.411 232.924C177.399 233.164 177.303 233.362 177.123 233.518C176.943 233.674 176.733 233.752 176.493 233.752H169.491L169.059 232.222H175.827L175.485 232.546V232.096C175.461 231.676 175.323 231.31 175.071 230.998C174.819 230.674 174.507 230.428 174.135 230.26C173.763 230.08 173.373 229.99 172.965 229.99C172.605 229.99 172.257 230.05 171.921 230.17C171.597 230.278 171.303 230.458 171.039 230.71C170.787 230.962 170.583 231.298 170.427 231.718C170.283 232.126 170.211 232.636 170.211 233.248C170.211 233.908 170.349 234.484 170.625 234.976C170.901 235.468 171.273 235.852 171.741 236.128C172.209 236.392 172.725 236.524 173.289 236.524C173.733 236.524 174.099 236.482 174.387 236.398C174.675 236.302 174.915 236.188 175.107 236.056C175.299 235.924 175.467 235.798 175.611 235.678C175.791 235.57 175.971 235.516 176.151 235.516C176.367 235.516 176.547 235.594 176.691 235.75C176.835 235.894 176.907 236.068 176.907 236.272C176.907 236.536 176.775 236.776 176.511 236.992C176.187 237.304 175.737 237.58 175.161 237.82C174.597 238.06 174.003 238.18 173.379 238.18ZM186.373 228.388C186.637 228.388 186.853 228.478 187.021 228.658C187.189 228.826 187.273 229.042 187.273 229.306V237.082C187.273 237.346 187.189 237.568 187.021 237.748C186.853 237.916 186.637 238 186.373 238C186.121 238 185.905 237.916 185.725 237.748C185.557 237.568 185.473 237.346 185.473 237.082V235.786L185.851 235.84C185.851 236.056 185.761 236.296 185.581 236.56C185.413 236.824 185.179 237.082 184.879 237.334C184.579 237.574 184.225 237.778 183.817 237.946C183.409 238.102 182.971 238.18 182.503 238.18C181.675 238.18 180.931 237.97 180.271 237.55C179.611 237.118 179.089 236.53 178.705 235.786C178.321 235.042 178.129 234.196 178.129 233.248C178.129 232.276 178.321 231.424 178.705 230.692C179.089 229.948 179.605 229.366 180.253 228.946C180.913 228.526 181.645 228.316 182.449 228.316C182.965 228.316 183.439 228.4 183.871 228.568C184.315 228.736 184.699 228.952 185.023 229.216C185.347 229.48 185.593 229.762 185.761 230.062C185.941 230.35 186.031 230.626 186.031 230.89L185.473 230.944V229.306C185.473 229.054 185.557 228.838 185.725 228.658C185.905 228.478 186.121 228.388 186.373 228.388ZM182.701 236.524C183.265 236.524 183.763 236.38 184.195 236.092C184.627 235.804 184.963 235.414 185.203 234.922C185.443 234.418 185.563 233.86 185.563 233.248C185.563 232.624 185.443 232.066 185.203 231.574C184.963 231.082 184.627 230.692 184.195 230.404C183.763 230.116 183.265 229.972 182.701 229.972C182.149 229.972 181.657 230.116 181.225 230.404C180.805 230.692 180.469 231.082 180.217 231.574C179.977 232.066 179.857 232.624 179.857 233.248C179.857 233.86 179.977 234.418 180.217 234.922C180.469 235.414 180.805 235.804 181.225 236.092C181.657 236.38 182.149 236.524 182.701 236.524ZM188.337 236.524C188.229 236.356 188.181 236.164 188.193 235.948C188.205 235.72 188.331 235.528 188.571 235.372C188.739 235.264 188.913 235.222 189.093 235.246C189.285 235.258 189.465 235.348 189.633 235.516C189.969 235.888 190.341 236.182 190.749 236.398C191.169 236.614 191.673 236.722 192.261 236.722C192.501 236.71 192.747 236.674 192.999 236.614C193.251 236.542 193.467 236.422 193.647 236.254C193.827 236.074 193.917 235.816 193.917 235.48C193.917 235.18 193.821 234.94 193.629 234.76C193.437 234.58 193.185 234.436 192.873 234.328C192.561 234.208 192.225 234.1 191.865 234.004C191.481 233.896 191.091 233.776 190.695 233.644C190.311 233.512 189.963 233.344 189.651 233.14C189.339 232.924 189.081 232.648 188.877 232.312C188.685 231.976 188.589 231.562 188.589 231.07C188.589 230.506 188.745 230.02 189.057 229.612C189.381 229.204 189.795 228.886 190.299 228.658C190.815 228.43 191.373 228.316 191.973 228.316C192.321 228.316 192.687 228.364 193.071 228.46C193.455 228.544 193.827 228.682 194.187 228.874C194.547 229.066 194.859 229.318 195.123 229.63C195.243 229.786 195.309 229.972 195.321 230.188C195.345 230.404 195.249 230.596 195.033 230.764C194.889 230.884 194.715 230.938 194.511 230.926C194.307 230.914 194.139 230.848 194.007 230.728C193.779 230.44 193.485 230.218 193.125 230.062C192.765 229.894 192.357 229.81 191.901 229.81C191.673 229.81 191.433 229.846 191.181 229.918C190.941 229.978 190.737 230.092 190.569 230.26C190.401 230.428 190.317 230.674 190.317 230.998C190.317 231.298 190.413 231.538 190.605 231.718C190.809 231.898 191.073 232.048 191.397 232.168C191.721 232.288 192.075 232.396 192.459 232.492C192.831 232.588 193.197 232.702 193.557 232.834C193.929 232.966 194.259 233.14 194.547 233.356C194.847 233.56 195.087 233.83 195.267 234.166C195.459 234.49 195.555 234.904 195.555 235.408C195.555 235.996 195.381 236.5 195.033 236.92C194.697 237.328 194.265 237.64 193.737 237.856C193.221 238.072 192.675 238.18 192.099 238.18C191.415 238.18 190.731 238.06 190.047 237.82C189.375 237.568 188.805 237.136 188.337 236.524ZM203.629 228.46C203.893 228.46 204.109 228.55 204.277 228.73C204.445 228.898 204.529 229.114 204.529 229.378V237.118C204.529 238.174 204.325 239.032 203.917 239.692C203.521 240.352 202.981 240.832 202.297 241.132C201.625 241.444 200.863 241.6 200.011 241.6C199.579 241.6 199.147 241.558 198.715 241.474C198.283 241.402 197.929 241.294 197.653 241.15C197.365 241.018 197.161 240.856 197.041 240.664C196.921 240.472 196.903 240.262 196.987 240.034C197.071 239.746 197.215 239.548 197.419 239.44C197.623 239.344 197.833 239.338 198.049 239.422C198.253 239.506 198.523 239.614 198.859 239.746C199.195 239.878 199.579 239.944 200.011 239.944C200.599 239.944 201.097 239.848 201.505 239.656C201.913 239.464 202.219 239.164 202.423 238.756C202.639 238.348 202.747 237.82 202.747 237.172V235.93L203.035 236.362C202.843 236.758 202.591 237.088 202.279 237.352C201.967 237.616 201.595 237.82 201.163 237.964C200.743 238.108 200.275 238.18 199.759 238.18C199.099 238.18 198.529 238.036 198.049 237.748C197.581 237.448 197.221 237.04 196.969 236.524C196.717 235.996 196.591 235.396 196.591 234.724V229.378C196.591 229.114 196.675 228.898 196.843 228.73C197.011 228.55 197.227 228.46 197.491 228.46C197.743 228.46 197.953 228.55 198.121 228.73C198.301 228.898 198.391 229.114 198.391 229.378V234.238C198.391 235.03 198.565 235.612 198.913 235.984C199.261 236.344 199.777 236.524 200.461 236.524C200.917 236.524 201.313 236.428 201.649 236.236C201.985 236.044 202.249 235.78 202.441 235.444C202.633 235.096 202.729 234.694 202.729 234.238V229.378C202.729 229.114 202.813 228.898 202.981 228.73C203.161 228.55 203.377 228.46 203.629 228.46Z" fill="white"/>
</svg>
