<svg width="45" height="45" viewBox="0 0 45 45" fill="none" xmlns="http://www.w3.org/2000/svg">
<g id="star">
<path id="Vector" d="M25 7.2271L25.0007 7.22851L28.2246 13.6763C28.2251 13.6774 28.2256 13.6784 28.2261 13.6794C28.5136 14.2647 29.0102 14.7904 29.5483 15.1874C30.0878 15.5855 30.7369 15.9043 31.3782 16.0112L31.3786 16.0113L37.2265 16.9829C38.9672 17.273 39.7845 18.0031 40.0114 18.7093C40.2379 19.4137 40 20.4791 38.7463 21.7243L38.7445 21.7261L34.1978 26.2728C33.7004 26.7702 33.3494 27.4575 33.1523 28.1459C32.9552 28.8345 32.8899 29.6022 33.043 30.2855L33.043 30.2855L33.0441 30.2904L34.3457 35.9182C34.8444 38.0824 34.4249 39.1991 33.8578 39.6125C33.2894 40.0268 32.0933 40.0854 30.1779 38.954L24.6972 35.7095C24.0582 35.3309 23.2619 35.1648 22.5067 35.1648C21.7509 35.1648 20.9528 35.3312 20.3077 35.7065L20.3077 35.7065L20.3028 35.7094L14.8211 38.9544L14.8204 38.9548C12.9179 40.0839 11.7208 40.023 11.149 39.6058C10.5777 39.189 10.1561 38.0699 10.6539 35.9188L10.6539 35.9188L11.9555 30.2904L11.9556 30.2904L11.9567 30.2855C12.1098 29.6022 12.0445 28.8345 11.8473 28.1459C11.6503 27.4575 11.2992 26.7702 10.8018 26.2728L6.25516 21.7261C5.00983 20.4808 4.77002 19.4141 4.99554 18.7079C5.22083 18.0024 6.03324 17.2729 7.77313 16.9829L13.6211 16.0113L13.6237 16.0108C14.2567 15.9034 14.9009 15.5837 15.4367 15.1864C15.9716 14.7898 16.4679 14.2644 16.7553 13.6793L19.98 7.22991C19.9801 7.2297 19.9802 7.22949 19.9803 7.22928C20.806 5.58676 21.761 5.01685 22.4975 5.01685C23.2328 5.01685 24.1833 5.58525 25 7.2271Z" fill="#E8E8E8" stroke="#E8E8E8" stroke-width="1.5" stroke-linecap="round" stroke-linejoin="round"/>
<g id="face">
<path id="Vector_2" d="M18.171 21.5771C18.8586 21.5771 19.4161 21.0196 19.4161 20.3319C19.4161 19.6442 18.8586 19.0867 18.171 19.0867C17.4833 19.0867 16.9258 19.6442 16.9258 20.3319C16.9258 21.0196 17.4833 21.5771 18.171 21.5771Z" fill="#C6C6C6"/>
<path id="Vector_3" d="M26.8878 21.5771C27.5754 21.5771 28.1329 21.0196 28.1329 20.3319C28.1329 19.6442 27.5754 19.0867 26.8878 19.0867C26.2001 19.0867 25.6426 19.6442 25.6426 20.3319C25.6426 21.0196 26.2001 21.5771 26.8878 21.5771Z" fill="#C6C6C6"/>
<path id="Vector_4" d="M17.5233 29.2704C17.5286 29.2472 17.53 29.2384 17.5321 29.2268L17.5381 29.1949L17.549 29.1367C17.5564 29.0989 17.5645 29.0639 17.5722 29.0282C17.5886 28.9587 17.6083 28.8908 17.6283 28.8238C17.6696 28.6921 17.7184 28.5629 17.7743 28.4367C17.8868 28.1851 18.0251 27.9459 18.1869 27.7228C18.517 27.2728 18.9293 26.8893 19.4019 26.5926C19.6363 26.4462 19.882 26.3188 20.1367 26.2115C20.3872 26.1075 20.6452 26.0223 20.9083 25.9565C21.4173 25.8303 21.9397 25.7662 22.4641 25.7655C22.9816 25.7599 23.498 25.8139 24.0032 25.9264L24.1965 25.9728C24.2607 25.9881 24.3249 26.0092 24.3891 26.0272C24.5173 26.0625 24.6441 26.1091 24.7711 26.1545C25.0264 26.2499 25.2738 26.3656 25.5107 26.5003C25.7508 26.6365 25.9787 26.7933 26.1917 26.9688C26.405 27.1459 26.6009 27.343 26.7768 27.5573C26.9521 27.7713 27.1042 28.0034 27.2304 28.2496C27.2941 28.3735 27.3502 28.5011 27.3984 28.6318C27.4216 28.6981 27.4448 28.7656 27.4652 28.8356C27.4751 28.8715 27.4849 28.9051 27.4944 28.9443L27.5081 29.0029L27.5155 29.0354C27.5185 29.0479 27.5199 29.0556 27.5268 29.0801C27.5603 29.1676 27.5759 29.2609 27.5726 29.3545C27.5693 29.4481 27.5473 29.5401 27.5079 29.625C27.4684 29.71 27.4123 29.7861 27.3429 29.849C27.2735 29.9119 27.1922 29.9602 27.1037 29.9911C27.0153 30.0219 26.9216 30.0347 26.8281 30.0287C26.7347 30.0227 26.6434 29.998 26.5596 29.9561C26.4759 29.9142 26.4014 29.8559 26.3406 29.7846C26.2798 29.7134 26.2339 29.6307 26.2056 29.5414C26.2077 29.553 26.2042 29.5479 26.2022 29.5476C26.2001 29.5474 26.1971 29.5442 26.194 29.5419C26.191 29.5395 26.1825 29.5314 26.1755 29.5245L26.1354 29.4837C26.1069 29.4547 26.0784 29.4248 26.048 29.3954C25.9891 29.3358 25.9247 29.2776 25.861 29.2211C25.7333 29.1091 25.598 29.006 25.4563 28.9125C25.3171 28.8202 25.1721 28.737 25.0221 28.6636C24.8721 28.5913 24.7182 28.5273 24.5611 28.4719L24.4424 28.4313L24.321 28.3954C24.2816 28.382 24.2396 28.3722 24.1983 28.3616C24.1571 28.3509 24.1172 28.3384 24.0748 28.3303C23.9907 28.3124 23.9081 28.2918 23.8217 28.2779C23.7788 28.2703 23.7371 28.261 23.6935 28.2547L23.563 28.2355C23.2027 28.1859 22.8392 28.1627 22.4755 28.166C21.7363 28.1694 21.0497 28.2698 20.4422 28.5136C20.1357 28.6369 19.8465 28.7993 19.5818 28.9969C19.4453 29.0998 19.3157 29.2114 19.1938 29.3312C19.1333 29.3921 19.0721 29.4545 19.0153 29.5184L18.9726 29.5662L18.9319 29.6125L18.8931 29.657C18.8864 29.6645 18.8806 29.6703 18.8751 29.6761C18.8728 29.6787 18.8701 29.6811 18.8672 29.683C18.8649 29.683 18.8616 29.6886 18.863 29.6786C18.8089 29.8562 18.6865 30.0051 18.5227 30.0925C18.3589 30.1799 18.167 30.1986 17.9894 30.1445C17.8118 30.0904 17.6629 29.968 17.5755 29.8042C17.4881 29.6403 17.4694 29.4485 17.5235 29.2709L17.5233 29.2704Z" fill="#C6C6C6"/>
</g>
</g>
</svg>
