<svg width="71" height="71" viewBox="0 0 71 71" fill="none" xmlns="http://www.w3.org/2000/svg">
<g id="Android Fingerprint">
<path id="Vector" d="M52.6879 13.2238C52.4512 13.2238 52.2146 13.1647 52.0075 13.0463C46.3275 10.1176 41.4166 8.87508 35.5296 8.87508C29.6721 8.87508 24.1104 10.2655 19.0516 13.0463C18.3416 13.4309 17.4541 13.1647 17.04 12.4547C16.6554 11.7447 16.9216 10.8276 17.6316 10.443C23.1341 7.45508 29.1691 5.91675 35.5296 5.91675C41.8308 5.91675 47.3333 7.30717 53.3683 10.4134C54.1079 10.798 54.3741 11.6855 53.9896 12.3955C53.7233 12.928 53.2204 13.2238 52.6879 13.2238ZM10.3541 28.7551C10.0583 28.7551 9.76248 28.6663 9.49623 28.4888C8.81581 28.0155 8.66789 27.0984 9.14123 26.418C12.07 22.2763 15.7975 19.0222 20.235 16.7443C29.5241 11.9517 41.4166 11.9222 50.7354 16.7147C55.1729 18.9926 58.9004 22.2172 61.8291 26.3293C62.3025 26.9801 62.1546 27.9268 61.4741 28.4001C60.7937 28.8734 59.8766 28.7255 59.4033 28.0451C56.7408 24.3176 53.3683 21.3888 49.3746 19.3476C40.8841 14.9988 30.0271 14.9988 21.5662 19.3772C17.5429 21.448 14.1704 24.4063 11.5079 28.1338C11.2712 28.548 10.8275 28.7551 10.3541 28.7551ZM28.8437 64.4622C28.4591 64.4622 28.0746 64.3143 27.8083 64.0184C25.2346 61.4447 23.8441 59.788 21.8621 56.2084C19.8208 52.5697 18.7558 48.1322 18.7558 43.3693C18.7558 34.583 26.27 27.4238 35.5 27.4238C44.73 27.4238 52.2441 34.583 52.2441 43.3693C52.2441 44.1976 51.5933 44.8484 50.765 44.8484C49.9366 44.8484 49.2858 44.1976 49.2858 43.3693C49.2858 36.2101 43.1029 30.3822 35.5 30.3822C27.8971 30.3822 21.7141 36.2101 21.7141 43.3693C21.7141 47.6293 22.6608 51.5638 24.4654 54.7588C26.3587 58.1609 27.6604 59.6105 29.9383 61.918C30.5004 62.5097 30.5004 63.4268 29.9383 64.0184C29.6129 64.3143 29.2283 64.4622 28.8437 64.4622ZM50.055 58.9893C46.5346 58.9893 43.4283 58.1018 40.8841 56.3563C36.4762 53.3684 33.8433 48.5168 33.8433 43.3693C33.8433 42.5409 34.4941 41.8901 35.3225 41.8901C36.1508 41.8901 36.8016 42.5409 36.8016 43.3693C36.8016 47.5405 38.9316 51.4751 42.5408 53.9009C44.6412 55.3209 47.0966 56.0013 50.055 56.0013C50.765 56.0013 51.9483 55.9126 53.1316 55.7055C53.9304 55.5576 54.6996 56.0901 54.8475 56.9184C54.9954 57.7172 54.4629 58.4863 53.6346 58.6343C51.9483 58.9597 50.4691 58.9893 50.055 58.9893ZM44.1087 65.0834C43.9904 65.0834 43.8425 65.0538 43.7241 65.0243C39.0204 63.7226 35.9437 61.9772 32.7191 58.8118C28.5775 54.6997 26.2996 49.2268 26.2996 43.3693C26.2996 38.5768 30.3821 34.6718 35.4112 34.6718C40.4404 34.6718 44.5229 38.5768 44.5229 43.3693C44.5229 46.5347 47.2741 49.1084 50.6762 49.1084C54.0783 49.1084 56.8296 46.5347 56.8296 43.3693C56.8296 32.2163 47.215 23.1638 35.3816 23.1638C26.98 23.1638 19.2883 27.838 15.8271 35.0859C14.6733 37.4822 14.0816 40.2926 14.0816 43.3693C14.0816 45.6768 14.2887 49.3155 16.0637 54.0488C16.3596 54.818 15.975 55.6759 15.2058 55.9422C14.4366 56.238 13.5787 55.8238 13.3125 55.0843C11.8629 51.2088 11.1529 47.363 11.1529 43.3693C11.1529 39.8193 11.8333 36.5947 13.1646 33.7843C17.0991 25.5305 25.8262 20.1759 35.3816 20.1759C48.8421 20.1759 59.7879 30.5597 59.7879 43.3397C59.7879 48.1322 55.7054 52.0372 50.6762 52.0372C45.6471 52.0372 41.5646 48.1322 41.5646 43.3397C41.5646 40.1743 38.8133 37.6005 35.4112 37.6005C32.0091 37.6005 29.2579 40.1743 29.2579 43.3397C29.2579 48.3984 31.2104 53.1318 34.79 56.6818C37.6004 59.4626 40.2925 61.0009 44.4637 62.1547C45.2625 62.3618 45.7062 63.1901 45.4991 63.9593C45.3512 64.6397 44.73 65.0834 44.1087 65.0834Z" fill="#FF613E"/>
</g>
</svg>
