<svg width="25" height="25" viewBox="0 0 25 25" fill="none" xmlns="http://www.w3.org/2000/svg">
<mask id="mask0_431_370" style="mask-type:luminance" maskUnits="userSpaceOnUse" x="0" y="0" width="25" height="25">
<path d="M24.02 0.5H0.979996V24.5H24.02V0.5Z" fill="white"/>
</mask>
<g mask="url(#mask0_431_370)">
<mask id="mask1_431_370" style="mask-type:alpha" maskUnits="userSpaceOnUse" x="4" y="2" width="17" height="22">
<path fill-rule="evenodd" clip-rule="evenodd" d="M20.66 2.5H4.34V23.5H20.66V2.5ZM9.38 3.25H15.62V6.75H9.38V3.25Z" fill="#D9D9D9"/>
</mask>
<g mask="url(#mask1_431_370)">
<path d="M18.5 4.24072H6.49999C5.9698 4.24072 5.53999 4.68867 5.53999 5.24125V20.7494C5.53999 21.302 5.9698 21.75 6.49999 21.75H18.5C19.0302 21.75 19.46 21.302 19.46 20.7494V5.24125C19.46 4.68867 19.0302 4.24072 18.5 4.24072Z" stroke="white" stroke-width="1.5" stroke-linecap="round" stroke-linejoin="round"/>
<path d="M18.5 4.24072H6.49999C5.9698 4.24072 5.53999 4.68867 5.53999 5.24125V20.7494C5.53999 21.302 5.9698 21.75 6.49999 21.75H18.5C19.0302 21.75 19.46 21.302 19.46 20.7494V5.24125C19.46 4.68867 19.0302 4.24072 18.5 4.24072Z" stroke="#FF7E31" stroke-opacity="0.8" stroke-width="1.5" stroke-linecap="round" stroke-linejoin="round"/>
</g>
<path d="M15.62 3.25H9.37999V6.75H15.62V3.25Z" stroke="white" stroke-width="1.5" stroke-linecap="round" stroke-linejoin="round"/>
<path d="M15.62 3.25H9.37999V6.75H15.62V3.25Z" stroke="#FF7E31" stroke-opacity="0.8" stroke-width="1.5" stroke-linecap="round" stroke-linejoin="round"/>
<path d="M9.37999 18.7484V15.2466" stroke="white" stroke-width="1.5" stroke-linecap="round" stroke-linejoin="round"/>
<path d="M9.37999 18.7484V15.2466" stroke="#FF7E31" stroke-opacity="0.8" stroke-width="1.5" stroke-linecap="round" stroke-linejoin="round"/>
<path d="M15.62 18.7485V13.2456" stroke="white" stroke-width="1.5" stroke-linecap="round" stroke-linejoin="round"/>
<path d="M15.62 18.7485V13.2456" stroke="#FF7E31" stroke-opacity="0.8" stroke-width="1.5" stroke-linecap="round" stroke-linejoin="round"/>
<path d="M12.5 18.7545V10.25" stroke="white" stroke-width="1.5" stroke-linecap="round" stroke-linejoin="round"/>
<path d="M12.5 18.7545V10.25" stroke="#FF7E31" stroke-opacity="0.8" stroke-width="1.5" stroke-linecap="round" stroke-linejoin="round"/>
</g>
</svg>
