<svg width="35" height="34" viewBox="0 0 35 34" fill="none" xmlns="http://www.w3.org/2000/svg">
<mask id="mask0_786_3463" style="mask-type:alpha" maskUnits="userSpaceOnUse" x="4" y="1" width="27" height="32">
<path fill-rule="evenodd" clip-rule="evenodd" d="M30.8 1.875H4.20001V32.125H30.8V1.875ZM13.3 6V8.75H21.7V6H13.3ZM17.5 14.25C18.2732 14.25 18.9 14.8656 18.9 15.625V23.875C18.9 24.6344 18.2732 25.25 17.5 25.25C16.7268 25.25 16.1 24.6344 16.1 23.875V15.625C16.1 14.8656 16.7268 14.25 17.5 14.25ZM23.8 18.375C23.8 17.6156 23.1732 17 22.4 17C21.6268 17 21 17.6156 21 18.375V23.875C21 24.6344 21.6268 25.25 22.4 25.25C23.1732 25.25 23.8 24.6344 23.8 23.875V18.375ZM14 21.125C14 20.3656 13.3732 19.75 12.6 19.75C11.8268 19.75 11.2 20.3656 11.2 21.125V23.875C11.2 24.6344 11.8268 25.25 12.6 25.25C13.3732 25.25 14 24.6344 14 23.875V21.125Z" fill="#D9D9D9"/>
</mask>
<g mask="url(#mask0_786_3463)">
<path d="M26.25 5.65625H8.75001C7.97681 5.65625 7.35001 6.27187 7.35001 7.03125V28.3438C7.35001 29.1032 7.97681 29.7188 8.75001 29.7188H26.25C27.0232 29.7188 27.65 29.1032 27.65 28.3438V7.03125C27.65 6.27187 27.0232 5.65625 26.25 5.65625Z" fill="#FF7E31" stroke="#FF7E31" stroke-width="1.5" stroke-linecap="round" stroke-linejoin="round"/>
<path d="M23.1 4.625H11.9V10.125H23.1V4.625Z" stroke="#FF7E31" stroke-width="2" stroke-linecap="round" stroke-linejoin="round"/>
</g>
</svg>
