<svg width="284" height="255" viewBox="0 0 284 255" fill="none" xmlns="http://www.w3.org/2000/svg">
<path d="M111.784 0.0101609C143.858 -0.337357 175.952 8.24923 204.586 22.7147C233.22 37.1801 258.191 59.9787 272.027 88.9385C285.862 117.898 287.629 153.106 273.59 181.95C268.327 192.759 260.377 203.018 249.141 207.29C234.77 212.749 218.842 207.348 203.486 206.776C182.671 206.009 162.602 214.255 144.118 223.884C125.635 233.513 107.795 244.779 87.8781 250.867C67.961 256.956 44.9886 257.188 27.6779 245.611C11.3373 234.686 2.67105 214.899 0.600433 195.351C-1.47021 175.803 2.19321 156.161 5.83493 136.845C9.65762 116.668 28.1195 0.907915 111.784 0.0101609Z" fill="white"/>
</svg>
