<svg width="35" height="24" viewBox="0 0 35 24" fill="none" xmlns="http://www.w3.org/2000/svg">
<g id="Book">
<g id="Vector">
<path d="M30.6684 0.290039H18.2651V23.71H30.6684C31.6553 23.71 32.6017 23.3399 33.2995 22.6811C33.9973 22.0223 34.3894 21.1287 34.3894 20.197V3.80304C34.3894 2.87133 33.9973 1.97779 33.2995 1.31897C32.6017 0.660158 31.6553 0.290039 30.6684 0.290039ZM28.1877 17.855H21.9861C21.6572 17.855 21.3417 17.7317 21.1091 17.5121C20.8765 17.2925 20.7458 16.9946 20.7458 16.684C20.7458 16.3735 20.8765 16.0756 21.1091 15.856C21.3417 15.6364 21.6572 15.513 21.9861 15.513H28.1877C28.5167 15.513 28.8322 15.6364 29.0648 15.856C29.2974 16.0756 29.4281 16.3735 29.4281 16.684C29.4281 16.9946 29.2974 17.2925 29.0648 17.5121C28.8322 17.7317 28.5167 17.855 28.1877 17.855ZM28.1877 13.171H24.4668C24.1378 13.171 23.8223 13.0477 23.5897 12.8281C23.3571 12.6085 23.2264 12.3106 23.2264 12C23.2264 11.6895 23.3571 11.3916 23.5897 11.172C23.8223 10.9524 24.1378 10.829 24.4668 10.829H28.1877C28.5167 10.829 28.8322 10.9524 29.0648 11.172C29.2974 11.3916 29.4281 11.6895 29.4281 12C29.4281 12.3106 29.2974 12.6085 29.0648 12.8281C28.8322 13.0477 28.5167 13.171 28.1877 13.171ZM28.1877 8.48704H21.9861C21.6572 8.48704 21.3417 8.36367 21.1091 8.14406C20.8765 7.92446 20.7458 7.62661 20.7458 7.31604C20.7458 7.00547 20.8765 6.70762 21.1091 6.48802C21.3417 6.26841 21.6572 6.14504 21.9861 6.14504H28.1877C28.5167 6.14504 28.8322 6.26841 29.0648 6.48802C29.2974 6.70762 29.4281 7.00547 29.4281 7.31604C29.4281 7.62661 29.2974 7.92446 29.0648 8.14406C28.8322 8.36367 28.5167 8.48704 28.1877 8.48704Z" fill="white"/>
<path d="M30.6684 0.290039H18.2651V23.71H30.6684C31.6553 23.71 32.6017 23.3399 33.2995 22.6811C33.9973 22.0223 34.3894 21.1287 34.3894 20.197V3.80304C34.3894 2.87133 33.9973 1.97779 33.2995 1.31897C32.6017 0.660158 31.6553 0.290039 30.6684 0.290039ZM28.1877 17.855H21.9861C21.6572 17.855 21.3417 17.7317 21.1091 17.5121C20.8765 17.2925 20.7458 16.9946 20.7458 16.684C20.7458 16.3735 20.8765 16.0756 21.1091 15.856C21.3417 15.6364 21.6572 15.513 21.9861 15.513H28.1877C28.5167 15.513 28.8322 15.6364 29.0648 15.856C29.2974 16.0756 29.4281 16.3735 29.4281 16.684C29.4281 16.9946 29.2974 17.2925 29.0648 17.5121C28.8322 17.7317 28.5167 17.855 28.1877 17.855ZM28.1877 13.171H24.4668C24.1378 13.171 23.8223 13.0477 23.5897 12.8281C23.3571 12.6085 23.2264 12.3106 23.2264 12C23.2264 11.6895 23.3571 11.3916 23.5897 11.172C23.8223 10.9524 24.1378 10.829 24.4668 10.829H28.1877C28.5167 10.829 28.8322 10.9524 29.0648 11.172C29.2974 11.3916 29.4281 11.6895 29.4281 12C29.4281 12.3106 29.2974 12.6085 29.0648 12.8281C28.8322 13.0477 28.5167 13.171 28.1877 13.171ZM28.1877 8.48704H21.9861C21.6572 8.48704 21.3417 8.36367 21.1091 8.14406C20.8765 7.92446 20.7458 7.62661 20.7458 7.31604C20.7458 7.00547 20.8765 6.70762 21.1091 6.48802C21.3417 6.26841 21.6572 6.14504 21.9861 6.14504H28.1877C28.5167 6.14504 28.8322 6.26841 29.0648 6.48802C29.2974 6.70762 29.4281 7.00547 29.4281 7.31604C29.4281 7.62661 29.2974 7.92446 29.0648 8.14406C28.8322 8.36367 28.5167 8.48704 28.1877 8.48704Z" fill="#FF7E31" fill-opacity="0.8"/>
</g>
<g id="Vector_2">
<path d="M13.014 16.684C13.014 16.9946 12.8833 17.2925 12.6507 17.5121C12.4181 17.7317 12.1026 17.855 11.7737 17.855C11.4447 17.855 11.1292 17.7317 10.8966 17.5121C10.664 17.2925 10.5333 16.9946 10.5333 16.684V0.290039H4.3317C3.34483 0.290039 2.39839 0.660158 1.70057 1.31897C1.00275 1.97779 0.610718 2.87133 0.610718 3.80304V20.197C0.610718 21.1287 1.00275 22.0223 1.70057 22.6811C2.39839 23.3399 3.34483 23.71 4.3317 23.71H16.735V0.290039H13.014V16.684Z" fill="white"/>
<path d="M13.014 16.684C13.014 16.9946 12.8833 17.2925 12.6507 17.5121C12.4181 17.7317 12.1026 17.855 11.7737 17.855C11.4447 17.855 11.1292 17.7317 10.8966 17.5121C10.664 17.2925 10.5333 16.9946 10.5333 16.684V0.290039H4.3317C3.34483 0.290039 2.39839 0.660158 1.70057 1.31897C1.00275 1.97779 0.610718 2.87133 0.610718 3.80304V20.197C0.610718 21.1287 1.00275 22.0223 1.70057 22.6811C2.39839 23.3399 3.34483 23.71 4.3317 23.71H16.735V0.290039H13.014V16.684Z" fill="#FF7E31" fill-opacity="0.8"/>
</g>
</g>
</svg>
