<svg width="35" height="33" viewBox="0 0 35 33" fill="none" xmlns="http://www.w3.org/2000/svg">
<mask id="mask0_319_2664" style="mask-type:luminance" maskUnits="userSpaceOnUse" x="0" y="0" width="35" height="33">
<path d="M34.3 0H0.699951V33H34.3V0Z" fill="white"/>
</mask>
<g mask="url(#mask0_319_2664)">
<path d="M6.29993 12.0312H28.6999" stroke="#F0F0F0" stroke-width="2" stroke-miterlimit="10" stroke-linecap="round"/>
<path d="M11.8999 3.78125V6.53125" stroke="#F0F0F0" stroke-width="2" stroke-linecap="round" stroke-linejoin="round"/>
<path d="M23.1 3.78125V6.53125" stroke="#F0F0F0" stroke-width="2" stroke-linecap="round" stroke-linejoin="round"/>
<path d="M27.6499 6.53125H7.34995C6.57675 6.53125 5.94995 7.14686 5.94995 7.90625V26.4688C5.94995 27.2281 6.57675 27.8438 7.34995 27.8438H27.6499C28.4231 27.8438 29.0499 27.2281 29.0499 26.4688V7.90625C29.0499 7.14686 28.4231 6.53125 27.6499 6.53125Z" stroke="#F0F0F0" stroke-width="2"/>
<path d="M11.9 24.0625C12.6732 24.0625 13.3 23.4469 13.3 22.6875C13.3 21.9281 12.6732 21.3125 11.9 21.3125C11.1268 21.3125 10.5 21.9281 10.5 22.6875C10.5 23.4469 11.1268 24.0625 11.9 24.0625Z" fill="#F0F0F0"/>
<path d="M17.5 24.0625C18.2732 24.0625 18.9 23.4469 18.9 22.6875C18.9 21.9281 18.2732 21.3125 17.5 21.3125C16.7268 21.3125 16.1 21.9281 16.1 22.6875C16.1 23.4469 16.7268 24.0625 17.5 24.0625Z" fill="#F0F0F0"/>
<path d="M23.1 24.0625C23.8731 24.0625 24.5 23.4469 24.5 22.6875C24.5 21.9281 23.8731 21.3125 23.1 21.3125C22.3268 21.3125 21.7 21.9281 21.7 22.6875C21.7 23.4469 22.3268 24.0625 23.1 24.0625Z" fill="#F0F0F0"/>
<path d="M23.1 19.25C23.8731 19.25 24.5 18.6344 24.5 17.875C24.5 17.1156 23.8731 16.5 23.1 16.5C22.3268 16.5 21.7 17.1156 21.7 17.875C21.7 18.6344 22.3268 19.25 23.1 19.25Z" fill="#F0F0F0"/>
<path d="M17.5 19.25C18.2732 19.25 18.9 18.6344 18.9 17.875C18.9 17.1156 18.2732 16.5 17.5 16.5C16.7268 16.5 16.1 17.1156 16.1 17.875C16.1 18.6344 16.7268 19.25 17.5 19.25Z" fill="#F0F0F0"/>
<path d="M11.9 19.25C12.6732 19.25 13.3 18.6344 13.3 17.875C13.3 17.1156 12.6732 16.5 11.9 16.5C11.1268 16.5 10.5 17.1156 10.5 17.875C10.5 18.6344 11.1268 19.25 11.9 19.25Z" fill="#F0F0F0"/>
</g>
</svg>
