<svg width="35" height="33" viewBox="0 0 35 33" fill="none" xmlns="http://www.w3.org/2000/svg">
<g clip-path="url(#clip0_786_4387)">
<mask id="mask0_786_4387" style="mask-type:luminance" maskUnits="userSpaceOnUse" x="0" y="0" width="35" height="33">
<path d="M0 0H35V33H0V0Z" fill="white"/>
</mask>
<g mask="url(#mask0_786_4387)">
<mask id="mask1_786_4387" style="mask-type:luminance" maskUnits="userSpaceOnUse" x="0" y="0" width="35" height="33">
<path d="M0 0H35V33H0V0Z" fill="white"/>
</mask>
<g mask="url(#mask1_786_4387)">
<mask id="mask2_786_4387" style="mask-type:luminance" maskUnits="userSpaceOnUse" x="-1" y="0" width="38" height="34">
<path d="M36.4362 0.197266H-0.560181L-0.555798 33.2951H36.4406L36.4362 0.197266Z" fill="white"/>
</mask>
<g mask="url(#mask2_786_4387)">
<path d="M27.7066 5.50151H24.7904V4.12673C24.7904 3.76212 24.6367 3.41244 24.3633 3.15462C24.0898 2.89679 23.719 2.75195 23.3323 2.75195C22.9455 2.75195 22.5747 2.89679 22.3012 3.15462C22.0278 3.41244 21.8742 3.76212 21.8742 4.12673V5.50151H13.1256V4.12673C13.1256 3.76212 12.9719 3.41244 12.6985 3.15462C12.425 2.89679 12.0542 2.75195 11.6675 2.75195C11.2807 2.75195 10.9099 2.89679 10.6364 3.15462C10.363 3.41244 10.2094 3.76212 10.2094 4.12673V5.50151H7.29315C5.68924 5.50151 4.37695 6.73881 4.37695 8.25107V11.0556H30.6228V8.25107C30.6228 6.73881 29.3105 5.50151 27.7066 5.50151ZM27.7066 13.1178H4.37695V26.1232C4.37695 27.6355 5.68924 28.8728 7.29315 28.8728H27.7066C29.3105 28.8728 30.6228 27.6355 30.6228 26.1232V13.1178H27.7066ZM23.3177 17.2284H23.3323C24.1342 17.2284 24.7904 17.8333 24.7904 18.6032C24.7904 19.3593 24.1342 19.9779 23.3323 19.9779C22.5303 19.9779 21.8742 19.3593 21.8742 18.6032C21.8742 17.8333 22.5157 17.2284 23.3177 17.2284ZM17.4999 17.2284C18.3164 17.2284 18.958 17.8333 18.958 18.6032C18.958 19.3593 18.3164 19.9779 17.4999 19.9779C16.6979 19.9779 16.0418 19.3593 16.0418 18.6032C16.0418 17.8333 16.6833 17.2284 17.4999 17.2284ZM17.4999 22.0401C18.3164 22.0401 18.958 22.6588 18.958 23.4149C18.958 24.171 18.3164 24.7897 17.4999 24.7897C16.6979 24.7897 16.0418 24.171 16.0418 23.4149C16.0418 22.6588 16.6833 22.0401 17.4999 22.0401ZM11.6675 17.2284C12.4694 17.2284 13.1256 17.8333 13.1256 18.6032C13.1256 19.3593 12.484 19.9779 11.682 19.9779H11.6675C10.8655 19.9779 10.2094 19.3593 10.2094 18.6032C10.2094 17.8333 10.8655 17.2284 11.6675 17.2284ZM11.6675 22.0401C12.4694 22.0401 13.1256 22.6588 13.1256 23.4149C13.1256 24.171 12.484 24.7897 11.682 24.7897H11.6675C10.8655 24.7897 10.2094 24.171 10.2094 23.4149C10.2094 22.6588 10.8655 22.0401 11.6675 22.0401Z" fill="#FF7E31"/>
</g>
</g>
</g>
</g>
<defs>
<clipPath id="clip0_786_4387">
<rect width="35" height="33" fill="white"/>
</clipPath>
</defs>
</svg>
