<svg width="25" height="25" viewBox="0 0 25 25" fill="none" xmlns="http://www.w3.org/2000/svg">
<mask id="mask0_431_350" style="mask-type:luminance" maskUnits="userSpaceOnUse" x="0" y="0" width="25" height="25">
<path d="M24.02 0.5H0.980011V24.5H24.02V0.5Z" fill="white"/>
</mask>
<g mask="url(#mask0_431_350)">
<path d="M4.82001 9.25H20.18" stroke="white" stroke-width="1.5" stroke-miterlimit="10" stroke-linecap="round"/>
<path d="M4.82001 9.25H20.18" stroke="#FF7E31" stroke-opacity="0.8" stroke-width="1.5" stroke-miterlimit="10" stroke-linecap="round"/>
<path d="M8.66 3.25V5.25" stroke="white" stroke-width="1.5" stroke-linecap="round" stroke-linejoin="round"/>
<path d="M8.66 3.25V5.25" stroke="#FF7E31" stroke-opacity="0.8" stroke-width="1.5" stroke-linecap="round" stroke-linejoin="round"/>
<path d="M16.34 3.25V5.25" stroke="white" stroke-width="1.5" stroke-linecap="round" stroke-linejoin="round"/>
<path d="M16.34 3.25V5.25" stroke="#FF7E31" stroke-opacity="0.8" stroke-width="1.5" stroke-linecap="round" stroke-linejoin="round"/>
<path d="M19.46 5.25H5.54002C5.00982 5.25 4.58002 5.69772 4.58002 6.25V19.75C4.58002 20.3023 5.00982 20.75 5.54002 20.75H19.46C19.9902 20.75 20.42 20.3023 20.42 19.75V6.25C20.42 5.69772 19.9902 5.25 19.46 5.25Z" stroke="white" stroke-width="1.5"/>
<path d="M19.46 5.25H5.54002C5.00982 5.25 4.58002 5.69772 4.58002 6.25V19.75C4.58002 20.3023 5.00982 20.75 5.54002 20.75H19.46C19.9902 20.75 20.42 20.3023 20.42 19.75V6.25C20.42 5.69772 19.9902 5.25 19.46 5.25Z" stroke="#FF7E31" stroke-opacity="0.8" stroke-width="1.5"/>
<path d="M8.66001 18C9.19021 18 9.62001 17.5523 9.62001 17C9.62001 16.4477 9.19021 16 8.66001 16C8.12982 16 7.70001 16.4477 7.70001 17C7.70001 17.5523 8.12982 18 8.66001 18Z" fill="white"/>
<path d="M8.66001 18C9.19021 18 9.62001 17.5523 9.62001 17C9.62001 16.4477 9.19021 16 8.66001 16C8.12982 16 7.70001 16.4477 7.70001 17C7.70001 17.5523 8.12982 18 8.66001 18Z" fill="#FF7E31" fill-opacity="0.8"/>
<path d="M12.5 18C13.0302 18 13.46 17.5523 13.46 17C13.46 16.4477 13.0302 16 12.5 16C11.9698 16 11.54 16.4477 11.54 17C11.54 17.5523 11.9698 18 12.5 18Z" fill="white"/>
<path d="M12.5 18C13.0302 18 13.46 17.5523 13.46 17C13.46 16.4477 13.0302 16 12.5 16C11.9698 16 11.54 16.4477 11.54 17C11.54 17.5523 11.9698 18 12.5 18Z" fill="#FF7E31" fill-opacity="0.8"/>
<path d="M16.34 18C16.8702 18 17.3 17.5523 17.3 17C17.3 16.4477 16.8702 16 16.34 16C15.8098 16 15.38 16.4477 15.38 17C15.38 17.5523 15.8098 18 16.34 18Z" fill="white"/>
<path d="M16.34 18C16.8702 18 17.3 17.5523 17.3 17C17.3 16.4477 16.8702 16 16.34 16C15.8098 16 15.38 16.4477 15.38 17C15.38 17.5523 15.8098 18 16.34 18Z" fill="#FF7E31" fill-opacity="0.8"/>
<path d="M16.34 14.5C16.8702 14.5 17.3 14.0523 17.3 13.5C17.3 12.9477 16.8702 12.5 16.34 12.5C15.8098 12.5 15.38 12.9477 15.38 13.5C15.38 14.0523 15.8098 14.5 16.34 14.5Z" fill="white"/>
<path d="M16.34 14.5C16.8702 14.5 17.3 14.0523 17.3 13.5C17.3 12.9477 16.8702 12.5 16.34 12.5C15.8098 12.5 15.38 12.9477 15.38 13.5C15.38 14.0523 15.8098 14.5 16.34 14.5Z" fill="#FF7E31" fill-opacity="0.8"/>
<path d="M12.5 14.5C13.0302 14.5 13.46 14.0523 13.46 13.5C13.46 12.9477 13.0302 12.5 12.5 12.5C11.9698 12.5 11.54 12.9477 11.54 13.5C11.54 14.0523 11.9698 14.5 12.5 14.5Z" fill="white"/>
<path d="M12.5 14.5C13.0302 14.5 13.46 14.0523 13.46 13.5C13.46 12.9477 13.0302 12.5 12.5 12.5C11.9698 12.5 11.54 12.9477 11.54 13.5C11.54 14.0523 11.9698 14.5 12.5 14.5Z" fill="#FF7E31" fill-opacity="0.8"/>
<path d="M8.66001 14.5C9.19021 14.5 9.62001 14.0523 9.62001 13.5C9.62001 12.9477 9.19021 12.5 8.66001 12.5C8.12982 12.5 7.70001 12.9477 7.70001 13.5C7.70001 14.0523 8.12982 14.5 8.66001 14.5Z" fill="white"/>
<path d="M8.66001 14.5C9.19021 14.5 9.62001 14.0523 9.62001 13.5C9.62001 12.9477 9.19021 12.5 8.66001 12.5C8.12982 12.5 7.70001 12.9477 7.70001 13.5C7.70001 14.0523 8.12982 14.5 8.66001 14.5Z" fill="#FF7E31" fill-opacity="0.8"/>
</g>
</svg>
