<svg width="103" height="103" viewBox="0 0 103 103" fill="none" xmlns="http://www.w3.org/2000/svg">
<rect width="103" height="103" rx="8" fill="#FF7E31" fill-opacity="0.1"/>
<path d="M69.6094 35H52.4397V67.42H69.6094C70.9755 67.42 72.2856 66.9076 73.2516 65.9957C74.2176 65.0837 74.7603 63.8467 74.7603 62.557V39.863C74.7603 38.5733 74.2176 37.3363 73.2516 36.4243C72.2856 35.5124 70.9755 35 69.6094 35ZM66.1754 59.315H57.5906C57.1352 59.315 56.6985 59.1442 56.3765 58.8402C56.0545 58.5362 55.8736 58.1239 55.8736 57.694C55.8736 57.2641 56.0545 56.8518 56.3765 56.5478C56.6985 56.2438 57.1352 56.073 57.5906 56.073H66.1754C66.6308 56.073 67.0675 56.2438 67.3895 56.5478C67.7115 56.8518 67.8924 57.2641 67.8924 57.694C67.8924 58.1239 67.7115 58.5362 67.3895 58.8402C67.0675 59.1442 66.6308 59.315 66.1754 59.315ZM66.1754 52.831H61.0245C60.5692 52.831 60.1324 52.6602 59.8105 52.3562C59.4885 52.0522 59.3076 51.6399 59.3076 51.21C59.3076 50.7801 59.4885 50.3678 59.8105 50.0638C60.1324 49.7598 60.5692 49.589 61.0245 49.589H66.1754C66.6308 49.589 67.0675 49.7598 67.3895 50.0638C67.7115 50.3678 67.8924 50.7801 67.8924 51.21C67.8924 51.6399 67.7115 52.0522 67.3895 52.3562C67.0675 52.6602 66.6308 52.831 66.1754 52.831ZM66.1754 46.347H57.5906C57.1352 46.347 56.6985 46.1762 56.3765 45.8722C56.0545 45.5682 55.8736 45.1559 55.8736 44.726C55.8736 44.2961 56.0545 43.8838 56.3765 43.5798C56.6985 43.2758 57.1352 43.105 57.5906 43.105H66.1754C66.6308 43.105 67.0675 43.2758 67.3895 43.5798C67.7115 43.8838 67.8924 44.2961 67.8924 44.726C67.8924 45.1559 67.7115 45.5682 67.3895 45.8722C67.0675 46.1762 66.6308 46.347 66.1754 46.347Z" fill="#1D3149"/>
<path d="M45.1697 57.694C45.1697 58.1239 44.9888 58.5362 44.6668 58.8402C44.3448 59.1442 43.9081 59.315 43.4527 59.315C42.9973 59.315 42.5606 59.1442 42.2386 58.8402C41.9166 58.5362 41.7357 58.1239 41.7357 57.694V35H33.1509C31.7848 35 30.4746 35.5124 29.5087 36.4243C28.5427 37.3363 28 38.5733 28 39.863V62.557C28 63.8467 28.5427 65.0837 29.5087 65.9957C30.4746 66.9076 31.7848 67.42 33.1509 67.42H50.3206V35H45.1697V57.694Z" fill="#1D3149"/>
</svg>
