<svg width="38" height="38" viewBox="0 0 38 38" fill="none" xmlns="http://www.w3.org/2000/svg">
<path fill-rule="evenodd" clip-rule="evenodd" d="M22.5625 7.09357V11.9338C22.5625 12.1096 22.5625 12.3613 22.5957 12.5767C22.6239 12.7982 22.7018 13.0105 22.8235 13.1978C22.9453 13.385 23.1077 13.5424 23.2987 13.6581C23.4856 13.7635 23.6927 13.8282 23.9064 13.8478C24.1201 13.8675 24.3355 13.8417 24.5385 13.7721C24.7443 13.7087 24.9691 13.6011 25.137 13.5203L26.9166 12.6748L28.6963 13.5203C28.8641 13.5995 29.089 13.7087 29.2948 13.7737C29.4979 13.8432 29.7134 13.8689 29.9271 13.8489C30.1408 13.829 30.3478 13.764 30.5345 13.6581C30.7256 13.5424 30.888 13.385 31.0097 13.1978C31.1314 13.0105 31.2093 12.7982 31.2375 12.5767C31.2724 12.3613 31.2708 12.1096 31.2708 11.9338V4.79932C31.4497 4.7914 31.6255 4.78348 31.7965 4.77873C33.4938 4.71857 34.8333 6.1119 34.8333 7.81082V25.56C34.8333 27.3207 33.3988 28.7425 31.6429 28.8533C30.107 28.9483 28.3052 29.1367 26.9166 29.5025C25.2035 29.9553 23.1594 30.9338 21.5776 31.7762C21.1343 32.0121 20.6672 32.1831 20.1875 32.2876V8.1924C20.7002 8.0659 21.1926 7.86817 21.6505 7.60498C21.9418 7.43557 22.2474 7.26298 22.5625 7.09357ZM31.236 20.2954C31.2739 20.4468 31.2816 20.6041 31.2587 20.7585C31.2358 20.9129 31.1826 21.0612 31.1023 21.195C31.0221 21.3288 30.9162 21.4455 30.7908 21.5384C30.6654 21.6312 30.5229 21.6985 30.3715 21.7362L24.0381 23.3196C23.7324 23.396 23.4089 23.3478 23.1387 23.1857C22.8685 23.0236 22.6737 22.7608 22.5973 22.4551C22.5209 22.1494 22.569 21.8258 22.7311 21.5556C22.8933 21.2854 23.1561 21.0907 23.4618 21.0142L29.7951 19.4309C29.9465 19.393 30.1039 19.3852 30.2582 19.4082C30.4126 19.4311 30.5609 19.4842 30.6947 19.5645C30.8285 19.6448 30.9452 19.7507 31.0381 19.8761C31.131 20.0015 31.1982 20.144 31.236 20.2954ZM17.8125 8.25573C17.2776 8.15432 16.761 7.9734 16.2798 7.71898C14.7186 6.89407 12.7458 5.96148 11.0833 5.52132C9.67888 5.1524 7.85171 4.96398 6.30479 4.86898C4.56946 4.7629 3.16663 6.17523 3.16663 7.91373V25.5616C3.16663 27.3191 4.60113 28.7441 6.35704 28.8533C7.89288 28.9483 9.69471 29.1367 11.0833 29.5025C12.7949 29.9553 14.8405 30.9338 16.4223 31.7762C16.8656 32.0121 17.3327 32.1831 17.8125 32.2892V8.25573ZM6.76554 13.9621C6.80331 13.8107 6.87055 13.6682 6.96342 13.5428C7.05629 13.4173 7.17296 13.3115 7.30678 13.2312C7.44059 13.1509 7.58892 13.0978 7.74328 13.0748C7.89764 13.0519 8.055 13.0596 8.20638 13.0976L14.5397 14.6809C14.8454 14.7575 15.1082 14.9525 15.2701 15.2228C15.4321 15.4932 15.4801 15.8168 15.4034 16.1225C15.3268 16.4282 15.1318 16.691 14.8615 16.853C14.5911 17.0149 14.2675 17.0629 13.9618 16.9862L7.62846 15.4029C7.47719 15.365 7.33487 15.2976 7.20964 15.2047C7.0844 15.1117 6.9787 14.995 6.89857 14.8612C6.81844 14.7274 6.76545 14.5791 6.74262 14.4249C6.7198 14.2706 6.72759 14.1133 6.76554 13.9621ZM8.20638 19.4309C8.05501 19.393 7.89764 19.3852 7.74327 19.4081C7.5889 19.4309 7.44055 19.484 7.30668 19.5642C7.03633 19.7262 6.84139 19.9889 6.76475 20.2946C6.68811 20.6003 6.73606 20.9239 6.89803 21.1943C7.06001 21.4647 7.32275 21.6596 7.62846 21.7362L13.9618 23.3196C14.2675 23.396 14.591 23.3478 14.8613 23.1857C15.1315 23.0236 15.3262 22.7608 15.4026 22.4551C15.4791 22.1494 15.4309 21.8258 15.2688 21.5556C15.1067 21.2854 14.8438 21.0907 14.5381 21.0142L8.20638 19.4309Z" fill="#F0F0F0"/>
<path d="M28.8958 4.98926C27.9142 5.10484 26.9483 5.27426 26.125 5.52126C25.7225 5.64442 25.3262 5.78709 24.9375 5.94876V10.9869L26.125 10.4233L26.1377 10.4153C26.3783 10.2884 26.6447 10.218 26.9167 10.2095C26.9927 10.2095 27.0655 10.2158 27.1352 10.2253C27.4123 10.2713 27.6339 10.3837 27.6957 10.4153L27.7099 10.4233L28.8974 10.9869V5.77459L28.8958 4.98926Z" fill="#F0F0F0"/>
</svg>
