<svg width="103" height="103" viewBox="0 0 103 103" fill="none" xmlns="http://www.w3.org/2000/svg">
<rect width="103" height="103" rx="8" fill="#FF7E31" fill-opacity="0.1"/>
<path d="M69.6096 35H52.4399V67.42H69.6096C70.9757 67.42 72.2859 66.9076 73.2519 65.9957C74.2178 65.0837 74.7605 63.8467 74.7605 62.557V39.863C74.7605 38.5733 74.2178 37.3363 73.2519 36.4243C72.2859 35.5124 70.9757 35 69.6096 35ZM66.1757 59.315H57.5908C57.1355 59.315 56.6988 59.1442 56.3768 58.8402C56.0548 58.5362 55.8739 58.1239 55.8739 57.694C55.8739 57.2641 56.0548 56.8518 56.3768 56.5478C56.6988 56.2438 57.1355 56.073 57.5908 56.073H66.1757C66.631 56.073 67.0678 56.2438 67.3898 56.5478C67.7118 56.8518 67.8926 57.2641 67.8926 57.694C67.8926 58.1239 67.7118 58.5362 67.3898 58.8402C67.0678 59.1442 66.631 59.315 66.1757 59.315ZM66.1757 52.831H61.0248C60.5694 52.831 60.1327 52.6602 59.8107 52.3562C59.4887 52.0522 59.3078 51.6399 59.3078 51.21C59.3078 50.7801 59.4887 50.3678 59.8107 50.0638C60.1327 49.7598 60.5694 49.589 61.0248 49.589H66.1757C66.631 49.589 67.0678 49.7598 67.3898 50.0638C67.7118 50.3678 67.8926 50.7801 67.8926 51.21C67.8926 51.6399 67.7118 52.0522 67.3898 52.3562C67.0678 52.6602 66.631 52.831 66.1757 52.831ZM66.1757 46.347H57.5908C57.1355 46.347 56.6988 46.1762 56.3768 45.8722C56.0548 45.5682 55.8739 45.1559 55.8739 44.726C55.8739 44.2961 56.0548 43.8838 56.3768 43.5798C56.6988 43.2758 57.1355 43.105 57.5908 43.105H66.1757C66.631 43.105 67.0678 43.2758 67.3898 43.5798C67.7118 43.8838 67.8926 44.2961 67.8926 44.726C67.8926 45.1559 67.7118 45.5682 67.3898 45.8722C67.0678 46.1762 66.631 46.347 66.1757 46.347Z" fill="#FF8C47"/>
<path d="M45.1697 57.694C45.1697 58.1239 44.9888 58.5362 44.6668 58.8402C44.3448 59.1442 43.9081 59.315 43.4527 59.315C42.9973 59.315 42.5606 59.1442 42.2386 58.8402C41.9166 58.5362 41.7357 58.1239 41.7357 57.694V35H33.1509C31.7848 35 30.4746 35.5124 29.5087 36.4243C28.5427 37.3363 28 38.5733 28 39.863V62.557C28 63.8467 28.5427 65.0837 29.5087 65.9957C30.4746 66.9076 31.7848 67.42 33.1509 67.42H50.3206V35H45.1697V57.694Z" fill="#FF8C47"/>
</svg>
