<svg width="25" height="28" viewBox="0 0 25 28" fill="none" xmlns="http://www.w3.org/2000/svg">
<g id="elements">
<g id="Rectangle 2173">
<path d="M13.75 1.5H14.0909C18.1674 1.5 20.2057 1.5 21.6212 2.49729C22.0267 2.78304 22.3868 3.12191 22.6904 3.50361C23.75 4.83584 23.75 6.7542 23.75 10.5909V13.7727C23.75 17.4767 23.75 19.3287 23.1638 20.8078C22.2215 23.1857 20.2286 25.0614 17.702 25.9483C16.1305 26.5 14.1627 26.5 10.2273 26.5C7.97844 26.5 6.85402 26.5 5.95597 26.1848C4.51224 25.6779 3.37344 24.6061 2.83495 23.2473C2.5 22.4021 2.5 21.3438 2.5 19.2273V14" stroke="white" stroke-width="2" stroke-linecap="round" stroke-linejoin="round"/>
<path d="M13.75 1.5H14.0909C18.1674 1.5 20.2057 1.5 21.6212 2.49729C22.0267 2.78304 22.3868 3.12191 22.6904 3.50361C23.75 4.83584 23.75 6.7542 23.75 10.5909V13.7727C23.75 17.4767 23.75 19.3287 23.1638 20.8078C22.2215 23.1857 20.2286 25.0614 17.702 25.9483C16.1305 26.5 14.1627 26.5 10.2273 26.5C7.97844 26.5 6.85402 26.5 5.95597 26.1848C4.51224 25.6779 3.37344 24.6061 2.83495 23.2473C2.5 22.4021 2.5 21.3438 2.5 19.2273V14" stroke="#FF7E31" stroke-opacity="0.8" stroke-width="2" stroke-linecap="round" stroke-linejoin="round"/>
</g>
<g id="Vector">
<path d="M23.75 14C23.75 16.3012 21.8845 18.1667 19.5833 18.1667C18.7511 18.1667 17.7699 18.0208 16.9608 18.2377C16.2418 18.4303 15.6803 18.9919 15.4876 19.7108C15.2708 20.52 15.4166 21.5011 15.4166 22.3333C15.4166 24.6345 13.5512 26.5 11.25 26.5" stroke="white" stroke-width="2" stroke-linecap="round" stroke-linejoin="round"/>
<path d="M23.75 14C23.75 16.3012 21.8845 18.1667 19.5833 18.1667C18.7511 18.1667 17.7699 18.0208 16.9608 18.2377C16.2418 18.4303 15.6803 18.9919 15.4876 19.7108C15.2708 20.52 15.4166 21.5011 15.4166 22.3333C15.4166 24.6345 13.5512 26.5 11.25 26.5" stroke="#FF7E31" stroke-opacity="0.8" stroke-width="2" stroke-linecap="round" stroke-linejoin="round"/>
</g>
<g id="Vector_2">
<path d="M11.25 6.5L1.24997 6.5M6.24997 1.5V11.5" stroke="white" stroke-width="2" stroke-linecap="round"/>
<path d="M11.25 6.5L1.24997 6.5M6.24997 1.5V11.5" stroke="#FF7E31" stroke-opacity="0.8" stroke-width="2" stroke-linecap="round"/>
</g>
</g>
</svg>
