<svg width="19" height="18" viewBox="0 0 19 18" fill="none" xmlns="http://www.w3.org/2000/svg">
<g id="twemoji:flag-egypt" clip-path="url(#clip0_256_5037)">
<path id="Vector" d="M18.02 13.5C18.02 14.0304 17.8093 14.5391 17.4342 14.9142C17.0591 15.2893 16.5504 15.5 16.02 15.5H2.01999C1.48956 15.5 0.980848 15.2893 0.605775 14.9142C0.230703 14.5391 0.019989 14.0304 0.019989 13.5V4.5C0.019989 3.96957 0.230703 3.46086 0.605775 3.08579C0.980848 2.71071 1.48956 2.5 2.01999 2.5H16.02C16.5504 2.5 17.0591 2.71071 17.4342 3.08579C17.8093 3.46086 18.02 3.96957 18.02 4.5V13.5Z" fill="#141414"/>
<path id="Vector_2" d="M0.019989 6.5H18.02V11.5H0.019989V6.5Z" fill="#EEEEEE"/>
<path id="Vector_3" d="M16.02 2.5H2.01999C1.48956 2.5 0.980848 2.71071 0.605775 3.08579C0.230703 3.46086 0.019989 3.96957 0.019989 4.5L0.019989 6.5H18.02V4.5C18.02 3.96957 17.8093 3.46086 17.4342 3.08579C17.0591 2.71071 16.5504 2.5 16.02 2.5Z" fill="#CE1225"/>
<path id="Vector_4" d="M7.39499 10.7809C7.39499 10.7809 7.40299 10.9059 7.51199 10.9684C7.51199 10.9684 7.48099 11.0624 7.59799 11.1169C7.71499 11.1714 8.13699 11.2574 8.87149 11.2574C9.60599 11.2574 10.02 11.1794 10.1295 11.1244C10.239 11.0699 10.2465 10.9449 10.2465 10.9449C10.2465 10.9449 10.3635 10.8824 10.356 10.8044C10.348 10.7264 10.192 10.6404 10.192 10.6404C10.192 10.6404 10.153 10.5389 10.0435 10.4999C9.93399 10.4609 9.58249 10.6719 8.91049 10.6404C8.23849 10.6094 7.85599 10.5074 7.73099 10.5154C7.60599 10.5234 7.55149 10.6484 7.55149 10.6484C7.55149 10.6484 7.41049 10.7109 7.39499 10.7809Z" fill="#BF9300"/>
<path id="Vector_5" d="M7.48098 10.7737C7.47448 10.8202 7.57498 10.9222 7.57498 10.9222C7.57498 10.9222 7.57498 11.0392 7.67648 11.0707C7.77798 11.1022 8.19198 11.1802 8.86398 11.1722C9.53598 11.1642 10.0125 11.1252 10.067 11.0782C10.1215 11.0312 10.1685 10.9297 10.1685 10.9297C10.1685 10.9297 10.278 10.8517 10.27 10.7892C10.262 10.7267 10.106 10.6877 10.106 10.6877C10.106 10.6877 10.062 10.5937 10.01 10.5547C9.95798 10.5157 9.62198 10.7107 8.90298 10.7107C8.19949 10.7107 7.79348 10.5387 7.72348 10.5467C7.65298 10.5547 7.60648 10.6872 7.60648 10.6872C7.60648 10.6872 7.48898 10.7192 7.48098 10.7737Z" fill="#EEEEEE"/>
<path id="Vector_6" d="M10.4495 7.74186C10.4495 7.74186 10.434 7.37486 10.098 7.42136C9.762 7.46836 9.7385 7.63236 9.379 7.67136L9.305 7.67836C9.24503 7.5158 9.21193 7.34456 9.207 7.17136C9.207 6.93686 9.2775 6.83536 9.035 6.71836C8.793 6.60136 8.746 6.71036 8.746 6.71036C8.746 6.71036 8.5585 6.61636 8.4725 6.68686C8.3865 6.75736 8.4335 6.93686 8.4725 6.88236C8.5115 6.82786 8.668 6.98386 8.668 6.98386C8.721 7.24336 8.5705 7.52436 8.4675 7.68086C8.432 7.67736 8.4035 7.67586 8.3635 7.67136C8.004 7.63236 7.9805 7.46836 7.6445 7.42136C7.3085 7.37436 7.293 7.74186 7.293 7.74186L7.16 10.5779L7.4335 10.3669L7.435 10.3334L8.004 9.82786L8.099 9.73286L7.8635 10.4214C7.8635 10.4214 7.504 10.3979 7.6055 10.6869C7.6055 10.6869 7.66 10.5229 7.754 10.5539C7.848 10.5849 8.121 10.6554 8.121 10.6554L8.215 10.8039L8.332 10.6944L8.699 10.6789C8.699 10.6789 8.816 10.7099 8.8085 10.8119C8.83 10.768 8.8365 10.7183 8.827 10.6704L8.9375 10.6629C8.92564 10.7132 8.93165 10.766 8.9545 10.8124C8.9465 10.7109 9.064 10.6794 9.064 10.6794L9.431 10.6949L9.5485 10.8044L9.6425 10.6559C9.6425 10.6559 9.9155 10.5854 10.009 10.5544C10.1025 10.5234 10.1575 10.6874 10.1575 10.6874C10.259 10.3984 9.8995 10.4219 9.8995 10.4219L9.675 9.76536L9.738 9.82836L10.307 10.3339L10.3085 10.3674L10.582 10.5784L10.4495 7.74186ZM8.896 9.46086C8.3325 9.11286 8.286 8.23436 8.286 8.23436C8.286 8.23436 8.6345 8.21636 8.8875 8.03886C9.1155 8.24136 9.5045 8.21836 9.5045 8.21836C9.5045 8.21836 9.478 9.10036 8.896 9.46086ZM10.184 7.63286L9.7075 8.08586L9.6275 8.11786C9.5455 8.12086 9.1465 8.12186 8.895 7.89836C8.5825 8.11736 8.153 8.13286 8.153 8.13286L8.0865 8.10636L7.559 7.63286L7.4205 7.68986C7.4265 7.63336 7.4575 7.50636 7.6295 7.53136C7.9115 7.57186 8.028 7.72686 8.325 7.75786L8.409 7.76636L8.3795 7.80436C8.4255 7.80436 8.4935 7.79086 8.5435 7.77986L8.6 7.78536L8.5745 7.87436C8.6145 7.86236 8.6725 7.82786 8.72 7.79736L8.85 7.80986L8.8795 7.85086L8.9785 7.80136L9.045 7.79486C9.1025 7.82836 9.1845 7.85836 9.1845 7.85836L9.2 7.78036C9.2705 7.82736 9.3875 7.82736 9.3875 7.82736C9.374 7.81636 9.3605 7.78836 9.3465 7.76436L9.4185 7.75686C9.7155 7.72586 9.8315 7.57086 10.114 7.53036C10.286 7.50586 10.317 7.63236 10.323 7.68886L10.184 7.63286Z" fill="#BF9300"/>
<path id="Vector_7" d="M8.70749 9.44538L8.42599 10.5154L7.95749 10.4219L8.44199 9.04688L8.70749 9.44538ZM9.05699 9.44538L9.33799 10.5154L9.80699 10.4219L9.32249 9.04688L9.05699 9.44538Z" fill="#EEEEEE"/>
<path id="Vector_8" d="M8.40298 8.32074C8.40298 8.32074 8.44198 8.77374 8.64498 9.12524V8.21924C8.64498 8.21924 8.51198 8.29724 8.40298 8.32074ZM9.37948 8.33624C9.37948 8.33624 9.34048 8.78924 9.13748 9.14074V8.23474C9.13698 8.23474 9.26998 8.31274 9.37948 8.33624Z" fill="#BF9300"/>
<path id="Vector_9" d="M8.49649 6.78902C8.49649 6.78902 8.55099 6.73452 8.70749 6.84352C8.80899 6.91452 8.89899 6.96852 8.89899 6.96852C8.89899 6.96852 8.96299 6.90102 9.05699 6.91652C9.15099 6.93202 9.09849 7.06252 9.11399 7.33552C9.12949 7.60902 9.23899 7.72602 9.23899 7.72602L9.10599 7.64802L9.11399 7.73402L8.96549 7.66352L8.89499 7.76502L8.82449 7.65552L8.71049 7.72502L8.67599 7.63202L8.54299 7.70252C8.54299 7.70252 8.73849 7.46052 8.75399 7.19452C8.75849 7.11502 8.73849 6.93652 8.73849 6.93652C8.73849 6.93652 8.61399 6.78102 8.49649 6.78902Z" fill="#EEEEEE"/>
<path id="Vector_10" d="M7.79348 10.8279C7.70398 10.8814 7.73898 10.9139 7.79348 10.9374C7.84798 10.9609 8.17598 11.0004 8.84048 11.0154C9.51998 11.0309 9.94198 10.9529 9.99648 10.9214C10.051 10.8904 10.059 10.8354 9.96548 10.8199C9.87148 10.8044 9.40298 10.8824 8.83248 10.8824C8.12948 10.8829 7.83248 10.8044 7.79348 10.8279Z" fill="#BF9300"/>
</g>
<defs>
<clipPath id="clip0_256_5037">
<rect width="18" height="18" fill="white" transform="translate(0.019989)"/>
</clipPath>
</defs>
</svg>
