<svg width="42" height="42" viewBox="0 0 42 42" fill="none" xmlns="http://www.w3.org/2000/svg">
<path d="M18.9835 29.0825C18.9835 30.187 19.8954 31.0825 21 31.0825C22.1045 31.0825 23.0165 30.187 23.0165 29.0825V20.9835C23.0165 19.8789 22.1045 18.9835 21 18.9835C19.8954 18.9835 18.9835 19.8789 18.9835 20.9835V29.0825ZM21 14.9505C21.5713 14.9505 22.0506 14.7569 22.4377 14.3697C22.8249 13.9825 23.0178 13.504 23.0165 12.934C23.0165 12.3626 22.8229 11.884 22.4357 11.4982C22.0485 11.1124 21.57 10.9188 21 10.9175C20.4286 10.9175 19.95 11.111 19.5642 11.4982C19.1784 11.8854 18.9848 12.364 18.9835 12.934C18.9835 13.5053 19.177 13.9846 19.5642 14.3717C19.9514 14.7589 20.43 14.9518 21 14.9505ZM21 41.165C18.2105 41.165 15.589 40.6353 13.1356 39.576C10.6822 38.5166 8.54807 37.0802 6.73322 35.2667C4.91837 33.4519 3.48195 31.3177 2.42396 28.8643C1.36597 26.4109 0.836305 23.7895 0.834961 21C0.834961 18.2105 1.36463 15.589 2.42396 13.1356C3.4833 10.6822 4.91972 8.54807 6.73322 6.73322C8.54807 4.91837 10.6822 3.48195 13.1356 2.42396C15.589 1.36597 18.2105 0.836305 21 0.834961C23.7895 0.834961 26.4109 1.36463 28.8643 2.42396C31.3177 3.4833 33.4519 4.91972 35.2667 6.73322C37.0816 8.54807 38.5186 10.6822 39.578 13.1356C40.6373 15.589 41.1663 18.2105 41.165 21C41.165 23.7895 40.6353 26.4109 39.576 28.8643C38.5166 31.3177 37.0802 33.4519 35.2667 35.2667C33.4519 37.0816 31.3177 38.5186 28.8643 39.578C26.4109 40.6373 23.7895 41.1663 21 41.165Z" fill="white"/>
<path d="M18.9835 29.0825C18.9835 30.187 19.8954 31.0825 21 31.0825C22.1045 31.0825 23.0165 30.187 23.0165 29.0825V20.9835C23.0165 19.8789 22.1045 18.9835 21 18.9835C19.8954 18.9835 18.9835 19.8789 18.9835 20.9835V29.0825ZM21 14.9505C21.5713 14.9505 22.0506 14.7569 22.4377 14.3697C22.8249 13.9825 23.0178 13.504 23.0165 12.934C23.0165 12.3626 22.8229 11.884 22.4357 11.4982C22.0485 11.1124 21.57 10.9188 21 10.9175C20.4286 10.9175 19.95 11.111 19.5642 11.4982C19.1784 11.8854 18.9848 12.364 18.9835 12.934C18.9835 13.5053 19.177 13.9846 19.5642 14.3717C19.9514 14.7589 20.43 14.9518 21 14.9505ZM21 41.165C18.2105 41.165 15.589 40.6353 13.1356 39.576C10.6822 38.5166 8.54807 37.0802 6.73322 35.2667C4.91837 33.4519 3.48195 31.3177 2.42396 28.8643C1.36597 26.4109 0.836305 23.7895 0.834961 21C0.834961 18.2105 1.36463 15.589 2.42396 13.1356C3.4833 10.6822 4.91972 8.54807 6.73322 6.73322C8.54807 4.91837 10.6822 3.48195 13.1356 2.42396C15.589 1.36597 18.2105 0.836305 21 0.834961C23.7895 0.834961 26.4109 1.36463 28.8643 2.42396C31.3177 3.4833 33.4519 4.91972 35.2667 6.73322C37.0816 8.54807 38.5186 10.6822 39.578 13.1356C40.6373 15.589 41.1663 18.2105 41.165 21C41.165 23.7895 40.6353 26.4109 39.576 28.8643C38.5166 31.3177 37.0802 33.4519 35.2667 35.2667C33.4519 37.0816 31.3177 38.5186 28.8643 39.578C26.4109 40.6373 23.7895 41.1663 21 41.165Z" fill="#FF7E31" fill-opacity="0.8"/>
</svg>
