<svg width="45" height="45" viewBox="0 0 45 45" fill="none" xmlns="http://www.w3.org/2000/svg">
<g id="star">
<path id="Vector" d="M25 7.2271L25.0007 7.22851L28.2246 13.6763C28.2251 13.6773 28.2256 13.6782 28.226 13.6792C28.5135 14.2646 29.0101 14.7903 29.5483 15.1874C30.0878 15.5855 30.7369 15.9043 31.3782 16.0112L31.3786 16.0113L37.2265 16.9829C38.9672 17.273 39.7845 18.0031 40.0114 18.7093C40.2379 19.4137 40 20.4791 38.7463 21.7243L38.7445 21.7261L34.1978 26.2728C33.7004 26.7702 33.3494 27.4575 33.1523 28.1459C32.9552 28.8345 32.8899 29.6022 33.043 30.2855L33.043 30.2855L33.0441 30.2904L34.3457 35.9182C34.8444 38.0824 34.4249 39.1991 33.8578 39.6125C33.2894 40.0268 32.0933 40.0854 30.1779 38.954L24.6972 35.7095C24.6971 35.7095 24.697 35.7094 24.6969 35.7094C24.058 35.3309 23.2618 35.1648 22.5067 35.1648C21.7509 35.1648 20.9528 35.3311 20.3077 35.7065L20.3077 35.7065L20.3028 35.7094L14.8211 38.9544L14.8204 38.9548C12.9179 40.0839 11.7208 40.023 11.149 39.6058C10.5777 39.189 10.1561 38.0699 10.6539 35.9188L10.6539 35.9187L11.9555 30.2904L11.9556 30.2904L11.9567 30.2855C12.1098 29.6022 12.0445 28.8345 11.8473 28.1459C11.6503 27.4575 11.2992 26.7702 10.8018 26.2728L6.25516 21.7261C5.00983 20.4808 4.77002 19.4141 4.99554 18.7079C5.22083 18.0024 6.03324 17.2729 7.77313 16.9829L13.6211 16.0113L13.6237 16.0108C14.2567 15.9034 14.9009 15.5837 15.4367 15.1864C15.9716 14.7898 16.4679 14.2644 16.7553 13.6793L19.98 7.22991C19.98 7.22971 19.9801 7.22952 19.9802 7.22933C20.806 5.58677 21.761 5.01685 22.4975 5.01685C23.2328 5.01685 24.1833 5.58524 25 7.2271Z" fill="#FABF35" stroke="#FABF35" stroke-width="1.5" stroke-linecap="round" stroke-linejoin="round"/>
<g id="face">
<path id="Vector_2" d="M18.3194 21.5771C19.0071 21.5771 19.5646 21.0196 19.5646 20.3319C19.5646 19.6442 19.0071 19.0867 18.3194 19.0867C17.6317 19.0867 17.0742 19.6442 17.0742 20.3319C17.0742 21.0196 17.6317 21.5771 18.3194 21.5771Z" fill="#BB8300"/>
<path id="Vector_3" d="M26.7745 21.5771C27.4622 21.5771 28.0197 21.0196 28.0197 20.3319C28.0197 19.6442 27.4622 19.0867 26.7745 19.0867C26.0868 19.0867 25.5293 19.6442 25.5293 20.3319C25.5293 21.0196 26.0868 21.5771 26.7745 21.5771Z" fill="#BB8300"/>
<path id="Vector_4" d="M27.3643 26.8152C27.3589 26.8377 27.3576 26.8462 27.3554 26.8577L27.3495 26.8889L27.3387 26.9454C27.3311 26.982 27.323 27.0157 27.3149 27.0504C27.2987 27.1178 27.2791 27.1835 27.2596 27.2484C27.2185 27.3757 27.1702 27.5006 27.115 27.6223C27.0044 27.8651 26.8687 28.0957 26.7103 28.3103C26.3871 28.7418 25.9856 29.1087 25.5268 29.392C25.2995 29.5309 25.0617 29.6519 24.8157 29.7539C24.5736 29.8526 24.3247 29.9334 24.0708 29.9956C23.5799 30.1151 23.0766 30.1755 22.5714 30.1755C22.0726 30.1807 21.5748 30.1294 21.0875 30.0226L20.9011 29.979C20.8391 29.9648 20.777 29.9444 20.7154 29.9273C20.6538 29.9102 20.5918 29.8931 20.5304 29.8706L20.3465 29.8063C20.0999 29.7155 19.8607 29.6054 19.6313 29.4772C19.3987 29.3474 19.1778 29.198 18.9708 29.0304C18.7636 28.8606 18.5727 28.6719 18.4006 28.4666C18.3577 28.4153 18.3174 28.3614 18.2765 28.3092C18.2356 28.257 18.1973 28.2013 18.1603 28.1457C18.0859 28.0344 18.0177 27.9191 17.9559 27.8004C17.8931 27.681 17.8379 27.5577 17.7904 27.4315C17.7679 27.3674 17.7443 27.3022 17.7243 27.2345C17.7144 27.1994 17.7047 27.1671 17.6953 27.1291L17.6816 27.0722L17.6742 27.0407C17.6712 27.0283 17.6699 27.0211 17.6629 26.9969C17.6028 26.8271 17.6127 26.6404 17.6902 26.4779C17.7678 26.3154 17.9067 26.1903 18.0765 26.1303C18.2463 26.0702 18.4329 26.08 18.5955 26.1576C18.758 26.2351 18.883 26.3741 18.9431 26.5438C18.9409 26.5321 18.9445 26.5371 18.9463 26.5373C18.9481 26.5375 18.9512 26.5405 18.9539 26.5427C18.9566 26.5449 18.9654 26.5524 18.9721 26.5589L19.0108 26.5976C19.0384 26.625 19.0661 26.6535 19.0955 26.6814C19.1529 26.7383 19.2151 26.7938 19.2772 26.8473C19.4013 26.9537 19.5325 27.0513 19.67 27.1396C19.8054 27.2271 19.9461 27.306 20.0913 27.3759C20.2372 27.4444 20.3867 27.505 20.5392 27.5574C20.6941 27.6105 20.8517 27.6555 21.0113 27.6923C21.0929 27.7096 21.1732 27.7287 21.2571 27.7419C21.2986 27.7491 21.3389 27.7581 21.3814 27.7644L21.508 27.7829C21.8572 27.8297 22.2092 27.8517 22.5615 27.8487C22.9078 27.8494 23.2536 27.823 23.5957 27.7696C23.7582 27.7441 23.9193 27.7105 24.0785 27.6689C24.2347 27.6273 24.386 27.5767 24.5351 27.5209C24.832 27.4045 25.1128 27.2504 25.3705 27.0625C25.5028 26.9649 25.6286 26.8587 25.7471 26.7448C25.806 26.6866 25.8654 26.6272 25.9207 26.5663L25.9621 26.5213L26.0016 26.4764L26.039 26.4341C26.0457 26.4269 26.0511 26.4215 26.0565 26.4161C26.0586 26.4135 26.0612 26.4113 26.0641 26.4096C26.0664 26.4096 26.0695 26.4044 26.068 26.4145C26.0943 26.3293 26.1371 26.2501 26.194 26.1815C26.2509 26.1128 26.3208 26.0561 26.3997 26.0144C26.4785 25.9728 26.5648 25.947 26.6536 25.9387C26.7424 25.9304 26.8319 25.9397 26.9172 25.966C27.0024 25.9923 27.0816 26.0352 27.1502 26.0921C27.2189 26.149 27.2756 26.2189 27.3173 26.2977C27.3589 26.3766 27.3847 26.4628 27.393 26.5516C27.4013 26.6404 27.392 26.73 27.3657 26.8152H27.3643Z" fill="#BB8300"/>
</g>
</g>
</svg>
