<svg width="26" height="24" viewBox="0 0 26 24" fill="none" xmlns="http://www.w3.org/2000/svg">
<path d="M3.43811 9.14993C5.83288 5.51993 9.33692 3.42993 13.0276 3.42993C14.8729 3.42993 16.6664 3.94993 18.3043 4.91993C19.9423 5.89993 21.4144 7.32993 22.617 9.14993C23.6537 10.7199 23.6537 13.2699 22.617 14.8399C20.2222 18.4799 16.7182 20.5599 13.0276 20.5599C11.1822 20.5599 9.38875 20.0399 7.75077 19.0699C6.11279 18.0899 4.64067 16.6599 3.43811 14.8399C2.40141 13.2799 2.40141 10.7199 3.43811 9.14993ZM13.0276 16.0399C15.3498 16.0399 17.2158 14.2299 17.2158 11.9999C17.2158 9.76993 15.3498 7.95993 13.0276 7.95993C10.7054 7.95993 8.8393 9.76993 8.8393 11.9999C8.8393 14.2299 10.7054 16.0399 13.0276 16.0399Z" fill="white"/>
<path d="M3.43811 9.14993C5.83288 5.51993 9.33692 3.42993 13.0276 3.42993C14.8729 3.42993 16.6664 3.94993 18.3043 4.91993C19.9423 5.89993 21.4144 7.32993 22.617 9.14993C23.6537 10.7199 23.6537 13.2699 22.617 14.8399C20.2222 18.4799 16.7182 20.5599 13.0276 20.5599C11.1822 20.5599 9.38875 20.0399 7.75077 19.0699C6.11279 18.0899 4.64067 16.6599 3.43811 14.8399C2.40141 13.2799 2.40141 10.7199 3.43811 9.14993ZM13.0276 16.0399C15.3498 16.0399 17.2158 14.2299 17.2158 11.9999C17.2158 9.76993 15.3498 7.95993 13.0276 7.95993C10.7054 7.95993 8.8393 9.76993 8.8393 11.9999C8.8393 14.2299 10.7054 16.0399 13.0276 16.0399Z" fill="#FF4F28" fill-opacity="0.5"/>
<path d="M13.0275 9.13989C14.6551 9.13989 15.9821 10.4199 15.9821 11.9999C15.9821 13.5699 14.6551 14.8499 13.0275 14.8499C11.3999 14.8499 10.0625 13.5699 10.0625 11.9999C10.0625 10.4299 11.3999 9.13989 13.0275 9.13989Z" fill="white"/>
<path d="M13.0275 9.13989C14.6551 9.13989 15.9821 10.4199 15.9821 11.9999C15.9821 13.5699 14.6551 14.8499 13.0275 14.8499C11.3999 14.8499 10.0625 13.5699 10.0625 11.9999C10.0625 10.4299 11.3999 9.13989 13.0275 9.13989Z" fill="#FF4F28" fill-opacity="0.5"/>
</svg>
