<svg width="33" height="32" viewBox="0 0 33 32" fill="none" xmlns="http://www.w3.org/2000/svg">
<path d="M29.375 16C29.3709 19.1772 28.2052 22.2433 26.0974 24.6208C23.9895 26.9982 21.0851 28.5228 17.9312 28.9075C17.861 28.9154 17.7899 28.9084 17.7226 28.8869C17.6553 28.8653 17.5933 28.8297 17.5407 28.7825C17.4882 28.7353 17.4462 28.6774 17.4177 28.6128C17.3891 28.5481 17.3746 28.4781 17.375 28.4075V19H20.375C20.5121 19.0003 20.6478 18.9724 20.7736 18.918C20.8995 18.8637 21.0128 18.784 21.1066 18.6841C21.2004 18.5841 21.2726 18.4659 21.3188 18.3368C21.3649 18.2077 21.3841 18.0705 21.375 17.9337C21.3529 17.6766 21.2343 17.4373 21.043 17.2641C20.8516 17.0909 20.6018 16.9965 20.3438 17H17.375V14C17.375 13.4695 17.5857 12.9608 17.9608 12.5858C18.3359 12.2107 18.8446 12 19.375 12H21.375C21.5121 12.0003 21.6478 11.9724 21.7736 11.918C21.8995 11.8637 22.0128 11.784 22.1066 11.6841C22.2004 11.5841 22.2726 11.4659 22.3188 11.3368C22.3649 11.2077 22.3841 11.0705 22.375 10.9337C22.3529 10.6761 22.2339 10.4365 22.042 10.2632C21.8502 10.0899 21.5997 9.99586 21.3412 9.99997H19.375C18.3141 9.99997 17.2967 10.4214 16.5466 11.1715C15.7964 11.9217 15.375 12.9391 15.375 14V17H12.375C12.2379 16.9997 12.1022 17.0276 11.9764 17.0819C11.8505 17.1362 11.7372 17.2159 11.6434 17.3159C11.5496 17.4159 11.4774 17.5341 11.4312 17.6632C11.3851 17.7922 11.3659 17.9294 11.375 18.0662C11.3971 18.3238 11.5161 18.5634 11.708 18.7367C11.8998 18.91 12.1503 19.0041 12.4087 19H15.375V28.41C15.3754 28.4805 15.3609 28.5504 15.3324 28.6149C15.3039 28.6795 15.2621 28.7373 15.2097 28.7845C15.1573 28.8317 15.0954 28.8673 15.0283 28.8889C14.9611 28.9106 14.8901 28.9177 14.82 28.91C11.5817 28.5156 8.60945 26.9198 6.49159 24.4386C4.37373 21.9573 3.26461 18.7713 3.38375 15.5112C3.63375 8.76122 9.10125 3.27372 15.8562 3.01122C17.6051 2.94348 19.3497 3.22916 20.9856 3.85117C22.6215 4.47319 24.1151 5.41877 25.3772 6.63134C26.6392 7.84391 27.6438 9.29857 28.3307 10.9083C29.0176 12.5181 29.3728 14.2498 29.375 16Z" fill="white"/>
<path d="M29.375 16C29.3709 19.1772 28.2052 22.2433 26.0974 24.6208C23.9895 26.9982 21.0851 28.5228 17.9312 28.9075C17.861 28.9154 17.7899 28.9084 17.7226 28.8869C17.6553 28.8653 17.5933 28.8297 17.5407 28.7825C17.4882 28.7353 17.4462 28.6774 17.4177 28.6128C17.3891 28.5481 17.3746 28.4781 17.375 28.4075V19H20.375C20.5121 19.0003 20.6478 18.9724 20.7736 18.918C20.8995 18.8637 21.0128 18.784 21.1066 18.6841C21.2004 18.5841 21.2726 18.4659 21.3188 18.3368C21.3649 18.2077 21.3841 18.0705 21.375 17.9337C21.3529 17.6766 21.2343 17.4373 21.043 17.2641C20.8516 17.0909 20.6018 16.9965 20.3438 17H17.375V14C17.375 13.4695 17.5857 12.9608 17.9608 12.5858C18.3359 12.2107 18.8446 12 19.375 12H21.375C21.5121 12.0003 21.6478 11.9724 21.7736 11.918C21.8995 11.8637 22.0128 11.784 22.1066 11.6841C22.2004 11.5841 22.2726 11.4659 22.3188 11.3368C22.3649 11.2077 22.3841 11.0705 22.375 10.9337C22.3529 10.6761 22.2339 10.4365 22.042 10.2632C21.8502 10.0899 21.5997 9.99586 21.3412 9.99997H19.375C18.3141 9.99997 17.2967 10.4214 16.5466 11.1715C15.7964 11.9217 15.375 12.9391 15.375 14V17H12.375C12.2379 16.9997 12.1022 17.0276 11.9764 17.0819C11.8505 17.1362 11.7372 17.2159 11.6434 17.3159C11.5496 17.4159 11.4774 17.5341 11.4312 17.6632C11.3851 17.7922 11.3659 17.9294 11.375 18.0662C11.3971 18.3238 11.5161 18.5634 11.708 18.7367C11.8998 18.91 12.1503 19.0041 12.4087 19H15.375V28.41C15.3754 28.4805 15.3609 28.5504 15.3324 28.6149C15.3039 28.6795 15.2621 28.7373 15.2097 28.7845C15.1573 28.8317 15.0954 28.8673 15.0283 28.8889C14.9611 28.9106 14.8901 28.9177 14.82 28.91C11.5817 28.5156 8.60945 26.9198 6.49159 24.4386C4.37373 21.9573 3.26461 18.7713 3.38375 15.5112C3.63375 8.76122 9.10125 3.27372 15.8562 3.01122C17.6051 2.94348 19.3497 3.22916 20.9856 3.85117C22.6215 4.47319 24.1151 5.41877 25.3772 6.63134C26.6392 7.84391 27.6438 9.29857 28.3307 10.9083C29.0176 12.5181 29.3728 14.2498 29.375 16Z" fill="#FF7E31" fill-opacity="0.8"/>
</svg>
