<svg width="140" height="140" viewBox="0 0 140 140" fill="none" xmlns="http://www.w3.org/2000/svg">
<g id="Frame 277131271">
<g id="freepik--Sparkle--inject-651">
<g id="freepik--sparkle--inject-651" opacity="0.2">
<path id="Vector" d="M68.4494 65.1116C67.8383 63.7687 67.7923 62.4227 67.7923 61.0457L67.7398 56.8246C67.7003 54.6351 67.7036 52.4082 67.7069 50.2559V48.395C67.7332 43.349 67.812 38.2162 67.8909 33.254L67.9172 31.5141C67.9522 29.5292 67.9873 27.5432 68.0223 25.5563C68.0814 21.9741 68.1439 18.2711 68.2326 14.63L68.4396 6.18798C68.4724 5.23275 68.502 4.27545 68.5283 3.31608C68.5578 2.38565 68.5874 1.45523 68.617 0.5C68.6465 1.44593 68.6761 2.38876 68.7057 3.31608C68.7353 4.2434 68.7615 5.23275 68.7944 6.19108L69.0014 14.63C69.0901 18.2711 69.1525 21.9741 69.2116 25.5532C69.2467 27.5401 69.2817 29.5271 69.3168 31.5141L69.3431 33.2571C69.4219 38.2193 69.5008 43.349 69.527 48.3981V50.2745C69.527 52.4268 69.527 54.6506 69.4942 56.834L69.4383 61.0488C69.4383 62.4258 69.3891 63.7718 68.7812 65.1147L68.4494 65.1116Z" fill="#FF7E31"/>
<path id="Vector_2" d="M68.4231 65.1425C67.5755 63.9175 67.2765 62.5994 67.0235 61.2472L66.1956 57.0944C65.752 54.9389 65.3446 52.7524 64.9504 50.6124L64.6218 48.7888C63.7216 43.8266 62.8575 38.7651 62.0197 33.871L61.7208 32.1281C61.3944 30.17 61.0658 28.212 60.7351 26.254C60.1207 22.7153 59.4998 19.0556 58.9182 15.458L57.5712 7.10901C57.4266 6.16618 57.2799 5.22335 57.1309 4.28052C56.9864 3.3501 56.8418 2.41968 56.6973 1.48926C56.901 2.40417 57.0981 3.31599 57.2952 4.21539L57.9162 7.06249L59.6772 15.3401C60.4296 18.8913 61.1655 22.5075 61.8817 26.0059C62.2826 27.9763 62.6856 29.9405 63.0908 31.8986L63.4456 33.6415C64.4313 38.5046 65.4498 43.535 66.4025 48.4911L66.7311 50.3147C67.1319 52.4392 67.5459 54.6381 67.9106 56.806L68.6367 60.9742C68.8896 62.3296 69.0868 63.6632 68.7352 65.0867L68.4231 65.1425Z" fill="#FF7E31"/>
<path id="Vector_3" d="M68.4034 65.1764C67.3422 64.1095 66.8066 62.8597 66.3072 61.5664L64.7302 57.6152C63.8957 55.562 63.0875 53.4624 62.3088 51.431L61.6517 49.6942C59.8513 44.9552 58.0706 40.117 56.3457 35.4277L55.7313 33.753C55.0414 31.8611 54.3492 29.9692 53.6549 28.0774C52.4196 24.7093 51.1415 21.2233 49.9095 17.7869L47.0478 9.78839L46.0917 7.05605L45.1521 4.38574C45.5201 5.25724 45.888 6.12563 46.2462 6.98162C46.6043 7.83761 46.9985 8.77733 47.3796 9.67364L50.6355 17.5388C52.0319 20.9255 53.4282 24.3619 54.7818 27.7114C55.5353 29.5723 56.2909 31.4331 57.0488 33.294L57.7059 34.9098C59.5786 39.5619 61.5137 44.3536 63.3667 49.0894L64.0468 50.8479C64.8288 52.87 65.6403 54.9604 66.3959 57.029L67.858 61.0484C68.3574 62.3417 68.7976 63.6226 68.7122 65.0803L68.4034 65.1764Z" fill="#FF7E31"/>
<path id="Vector_4" d="M68.3869 65.2107C67.1483 64.3361 66.3894 63.1917 65.6633 62.0008L63.3634 58.369C62.1675 56.4896 60.9913 54.5574 59.8513 52.6904L58.8656 51.0745C56.2143 46.6891 53.5629 42.2014 50.9969 37.8625L50.1066 36.3552C49.0881 34.6185 48.0663 32.8827 47.0412 31.148C45.1981 28.0187 43.2892 24.7808 41.4362 21.5863L37.1618 14.1771C36.6821 13.3314 36.2003 12.4868 35.7162 11.6432L34.3035 9.16211L35.8608 11.544C36.393 12.371 36.9286 13.1908 37.4674 14.0034L42.1196 21.2173C44.1204 24.3187 46.1312 27.4945 48.0794 30.5618C49.1746 32.2697 50.2599 33.9785 51.3353 35.6884L52.2783 37.1802C54.9723 41.4415 57.7617 45.8642 60.4591 50.2061L61.4447 51.8158C62.5881 53.6766 63.7741 55.6119 64.901 57.5317L67.0924 61.213C67.8218 62.404 68.4921 63.5949 68.676 65.0464L68.3869 65.2107Z" fill="#FF7E31"/>
<path id="Vector_5" d="M68.3804 65.2477C67.0005 64.5902 66.0444 63.5885 65.0949 62.534L62.1774 59.3303C60.6562 57.6772 59.1416 55.9683 57.6763 54.3153L56.4081 52.8855C53.0044 49.0181 49.5842 45.0576 46.279 41.2242L45.07 39.8255C43.7426 38.2748 42.4109 36.7241 41.0748 35.1734C38.6896 32.4007 36.2222 29.535 33.8172 26.6973L28.2418 20.1099L26.3297 17.8272L24.5029 15.6562L26.4742 17.7528L28.5046 19.9238L34.4185 26.2631C36.9614 28.9923 39.5241 31.7836 42.0046 34.4849C43.3867 35.9922 44.771 37.4984 46.1575 39.0036L47.3928 40.3528C50.8195 44.0962 54.3646 47.9698 57.8143 51.8093L59.0759 53.2267C60.5478 54.8797 62.0723 56.5886 63.5343 58.2944L66.3697 61.5602C67.3093 62.6146 68.1865 63.6784 68.6334 65.0772L68.3804 65.2477Z" fill="#FF7E31"/>
<path id="Vector_6" d="M68.3804 65.2882C66.8987 64.8633 65.7718 64.0476 64.658 63.1513L61.1984 60.4748C59.3947 59.0946 57.5844 57.6618 55.8431 56.2755L54.3285 55.0721C50.2447 51.8063 46.1148 48.4475 42.146 45.2003L40.7628 44.0683C39.1726 42.7637 37.5803 41.46 35.9857 40.1575C33.1208 37.8159 30.1606 35.3906 27.2628 32.9901L20.5473 27.4076L18.2475 25.4878L16.0298 23.627C16.8084 24.2069 17.5838 24.7838 18.3296 25.3544L20.7444 27.1533L27.7293 32.4256C30.7323 34.6959 33.7713 37.025 36.7085 39.2767L41.6729 43.0604L43.1086 44.1645C47.1826 47.2969 51.3946 50.5379 55.508 53.7602L57.0324 54.9667C58.777 56.3468 60.584 57.7734 62.3352 59.2063L65.7258 61.9603C66.8461 62.8442 67.9041 63.7468 68.6039 65.0618L68.3804 65.2882Z" fill="#FF7E31"/>
<path id="Vector_7" d="M68.3871 65.3259C66.8528 65.1523 65.5912 64.5196 64.3296 63.8311L60.4297 61.7624C58.3993 60.7017 56.3558 59.5914 54.3812 58.5028L52.6695 57.5724C48.0435 55.0231 43.3683 52.3869 38.8475 49.8406L37.2869 48.9536L31.8724 45.8894C28.6165 44.0534 25.2456 42.1522 21.9602 40.2697L14.3149 35.8657L11.7325 34.377L9.18628 32.8945L11.8147 34.2312L14.4956 35.5959L22.3413 39.6432C25.722 41.3893 29.1455 43.1881 32.4573 44.9156C34.3015 45.8832 36.1457 46.8498 37.99 47.8154L39.6524 48.6931C44.2258 51.1029 48.9569 53.5933 53.5828 56.0869L55.2814 57.0173C57.2527 58.0935 59.316 59.2069 61.3069 60.3358L65.1542 62.5068C66.4191 63.1953 67.6282 63.9086 68.558 65.0809L68.3871 65.3259Z" fill="#FF7E31"/>
<path id="Vector_8" d="M68.0158 65.3718C66.6162 65.3718 65.3874 64.9841 64.1291 64.5561L59.9073 63.1574C57.7126 62.4441 55.4949 61.678 53.3528 60.9399L51.4965 60.2979C46.4697 58.5456 41.3772 56.7158 36.4523 54.948L34.7603 54.3277L28.8464 52.1908C25.3047 50.9161 21.6447 49.5949 18.057 48.2737L9.72502 45.2002L6.87323 44.1303L4.12329 43.1006L6.94879 43.9907L9.85315 44.8994L18.3264 47.6007C21.9667 48.7638 25.6595 49.9702 29.2308 51.1363C31.235 51.7897 33.238 52.442 35.24 53.0933L37.0043 53.6733C41.9653 55.3015 47.0939 56.9825 52.1174 58.6821L53.9803 59.3209C56.1257 60.056 58.3434 60.8127 60.5085 61.5974L64.6909 63.0892C66.0642 63.5575 67.3883 64.063 68.5152 65.0648L68.4035 65.3594L68.0158 65.3718Z" fill="#FF7E31"/>
<path id="Vector_9" d="M66.7015 65.574C65.8189 65.5548 64.9396 65.4646 64.0732 65.3042L59.6575 64.6188C57.3741 64.2746 55.0578 63.8869 52.8172 63.5116L50.8459 63.1829C45.5891 62.2804 40.2502 61.322 35.0921 60.3916L33.2686 60.0629L27.0262 58.9246C23.3137 58.2485 19.4697 57.5476 15.7012 56.8374L6.92902 55.1781C5.94338 54.9796 4.93474 54.7874 3.93925 54.5951L1.02832 54.0244L3.95239 54.4307L6.99802 54.8463L15.8392 56.1179C19.6471 56.6668 23.5141 57.2499 27.2496 57.8143C29.337 58.1307 31.4233 58.4408 33.5085 58.7448L35.3155 59.0208C40.5131 59.8116 45.8848 60.6304 51.158 61.4802L53.1096 61.8058C55.3568 62.1749 57.6796 62.5595 59.9565 62.9751L64.3426 63.7659C65.7783 64.0047 67.1747 64.287 68.4724 65.0871L68.4133 65.3973C67.8518 65.5181 67.2774 65.5774 66.7015 65.574Z" fill="#FF7E31"/>
<path id="Vector_10" d="M50.7276 66.1262C45.3723 66.1014 39.9283 66.027 34.6617 65.9556L32.8448 65.9308C30.7312 65.8936 28.6197 65.8605 26.5105 65.8316C22.7256 65.7727 18.8093 65.7137 14.9587 65.63L6.01569 65.4346C4.9972 65.4036 3.9787 65.3788 2.95692 65.3509L0 65.2671L2.95692 65.1865L6.01569 65.1028L14.9587 64.9043C18.8093 64.8205 22.7256 64.7616 26.5105 64.7058C28.6241 64.6748 30.7356 64.6417 32.8448 64.6065L34.7274 64.5817C39.9842 64.5104 45.3953 64.4359 50.7276 64.4111H54.6144C56.1027 64.4111 57.8637 64.4111 59.6674 64.4452L64.1389 64.4949C65.6075 64.4949 67.0269 64.5445 68.4495 65.1152V65.4253C67.0269 65.9991 65.6042 66.0456 64.1488 66.0456L59.6674 66.0921C57.867 66.1231 56.106 66.1262 54.6242 66.1262H50.7276Z" fill="#FF7E31"/>
<path id="Vector_11" d="M1.03491 76.5156L3.92284 75.9542L6.93562 75.3649L15.7177 73.7057C19.496 72.9924 23.3433 72.2915 27.0624 71.6153C29.1366 71.237 31.2076 70.8586 33.2752 70.4802L35.0987 70.1515C40.2569 69.2211 45.5957 68.2534 50.8525 67.3602L52.8041 67.0346C55.0513 66.6562 57.3709 66.2685 59.6608 65.9243L64.0732 65.2389C64.9396 65.0778 65.8189 64.9865 66.7016 64.9659C67.2809 64.9629 67.8586 65.0232 68.4232 65.1458L68.4823 65.456C67.1846 66.253 65.7882 66.5352 64.3525 66.7741L59.9565 67.5618C57.6764 67.9805 55.3569 68.3651 53.0998 68.7372L51.158 69.0474C45.875 69.9034 40.4901 70.7221 35.2859 71.5285L33.5085 71.7983L27.2661 72.7288C23.524 73.2963 19.6504 73.8794 15.836 74.4314L6.99475 75.703C5.98611 75.8395 4.97419 75.979 3.96555 76.1217L1.03491 76.5156Z" fill="#FF7E31"/>
<path id="Vector_12" d="M4.12646 87.4105L6.87969 86.3777C7.83247 86.021 8.78197 85.6675 9.73147 85.3077L18.0634 82.2373C21.6577 80.913 25.3243 79.5918 28.8693 78.3109L34.7733 76.1958L36.4358 75.5972C41.364 73.8263 46.4729 71.9934 51.5095 70.2349L53.3592 69.5991C55.5046 68.8578 57.7223 68.0918 59.9302 67.3785L64.152 65.9797C65.4038 65.5486 66.6391 65.1641 68.0387 65.1641H68.4264L68.5381 65.4587C67.4112 66.4573 66.0871 66.9629 64.7171 67.4343L60.5314 68.9261C58.3663 69.7076 56.1486 70.4768 54.0065 71.1994L52.1403 71.8383C47.1234 73.5379 42.0046 75.2157 37.0534 76.8409L35.2629 77.427L29.257 79.3871C25.6857 80.5532 21.9896 81.7597 18.3493 82.9227L9.87275 85.624L6.95197 86.5545L4.12646 87.4105Z" fill="#FF7E31"/>
<path id="Vector_13" d="M9.18286 97.6455L11.7192 96.1692L14.3148 94.6557L21.9601 90.2765C25.2455 88.3877 28.6098 86.4897 31.8559 84.6537C33.6695 83.6199 35.4819 82.5943 37.2933 81.5771L38.8966 80.6746C43.4043 78.1345 48.0664 75.5076 52.6759 72.9676L54.3942 72.0371C56.3655 70.9578 58.4058 69.8444 60.4329 68.7807L64.3426 66.7027C65.6075 66.0142 66.8691 65.3846 68.4034 65.2109L68.571 65.4808C67.6412 66.65 66.4322 67.3664 65.1705 68.0518L61.3233 70.2073C59.352 71.3331 57.2953 72.4403 55.324 73.5134L53.5958 74.4438C48.9962 76.925 44.275 79.4061 39.718 81.8097L38.003 82.7153C36.15 83.6829 34.2992 84.6537 32.4506 85.6275C29.1454 87.3612 25.7285 89.1538 22.3543 90.8999L14.4889 94.9565L11.7981 96.3274L9.18286 97.6455Z" fill="#FF7E31"/>
<path id="Vector_14" d="M16.0461 106.906L18.254 105.045C19.0206 104.402 19.7872 103.759 20.5538 103.116L27.2693 97.5337C30.1704 95.127 33.1372 92.7017 36.0054 90.357L40.7627 86.4803L42.1492 85.3483C46.1312 82.1011 50.2479 78.7454 54.3284 75.4796L55.8266 74.2887C57.5778 72.8992 59.3881 71.4602 61.1951 70.0769L64.6711 67.3849C65.7914 66.501 66.9151 65.6698 68.3968 65.248L68.6104 65.4869C67.9106 66.7925 66.8526 67.6951 65.7356 68.5883L62.3417 71.3392C60.5905 72.7752 58.7835 74.2018 57.0357 75.5819L55.5112 76.7884C51.3945 80.017 47.1727 83.2641 43.0921 86.4027L41.6794 87.4882C40.0366 88.7412 38.3939 89.9963 36.7512 91.2534C33.8107 93.5081 30.7716 95.8403 27.7654 98.1106L20.7805 103.383L18.346 105.188L16.0461 106.906Z" fill="#FF7E31"/>
<path id="Vector_15" d="M24.5029 114.893C25.1173 114.154 25.7317 113.426 26.3329 112.706L28.2418 110.426L33.8271 103.833C36.2353 100.998 38.7027 98.1294 41.088 95.3536C42.4219 93.805 43.7525 92.2543 45.0798 90.7015L46.2987 89.2935C49.5842 85.4664 53.0175 81.5059 56.418 77.6446L57.6862 76.2118C59.1515 74.5618 60.6661 72.8529 62.1873 71.1968L65.1015 67.9961C66.0411 66.9416 66.9972 65.9399 68.3869 65.2793L68.6399 65.4809C68.1931 66.8796 67.3257 67.9434 66.3795 68.9948L63.5442 72.2637C62.0788 73.9694 60.5544 75.6752 59.0825 77.3314L57.8209 78.7487C54.3646 82.5945 50.8195 86.4805 47.3928 90.2022L46.1575 91.5513C44.771 93.0524 43.3867 94.5576 42.0046 96.067C39.5241 98.7683 36.9614 101.563 34.4185 104.292L28.5046 110.631L26.4841 112.774C25.8368 113.478 25.1732 114.185 24.5029 114.893Z" fill="#FF7E31"/>
<path id="Vector_16" d="M34.3035 121.368L35.7129 118.887C36.1992 118.042 36.6821 117.196 37.1618 116.35L41.4526 108.941C43.3057 105.747 45.2112 102.509 47.0577 99.3824L50.123 94.169L51.0134 92.6586C53.5793 88.3166 56.2307 83.8382 58.8985 79.4497L59.8841 77.8401C61.0242 75.9792 62.2004 74.0377 63.3963 72.1583L65.6961 68.5265C66.4222 67.3325 67.1812 66.1912 68.4198 65.3135L68.7089 65.4716C68.5249 66.9231 67.8547 68.1109 67.1253 69.305L64.9339 72.9864C63.807 74.903 62.6341 76.829 61.4809 78.693L60.4952 80.3088C57.7913 84.6787 54.9986 89.0951 52.2816 93.3657L51.3353 94.8544C50.2402 96.5643 49.1538 98.2742 48.0762 99.9841C46.1312 103.051 44.1336 106.221 42.1196 109.326L37.4674 116.527C36.9318 117.34 36.3996 118.158 35.8673 118.974L34.3035 121.368Z" fill="#FF7E31"/>
<path id="Vector_17" d="M45.1423 126.141L46.0787 123.474C46.4007 122.562 46.7205 121.65 47.0381 120.738L49.8997 112.736C51.135 109.3 52.4131 105.811 53.6484 102.44C54.3427 100.552 55.0338 98.6623 55.7215 96.7704L56.3425 95.0802C58.0641 90.4063 59.8448 85.5743 61.642 80.8385L62.2991 79.0955C63.0777 77.0672 63.8826 74.9675 64.7172 72.9206L66.2942 68.9694C66.7936 67.673 67.3291 66.4263 68.3903 65.3594L68.6991 65.4679C68.7846 66.9256 68.3443 68.2096 67.8482 69.4998L66.3796 73.4851C65.6239 75.5568 64.8124 77.6503 64.0272 79.6879L63.357 81.4278C61.5007 86.1667 59.5655 90.9708 57.6928 95.6167L57.0357 97.2232C56.2757 99.0841 55.5189 100.945 54.7655 102.806C53.4151 106.143 52.0188 109.592 50.6225 112.978L47.3666 120.844L46.2331 123.532C45.8783 124.398 45.5136 125.266 45.1423 126.141Z" fill="#FF7E31"/>
<path id="Vector_18" d="M56.6973 129.063C56.8418 128.132 56.9864 127.183 57.1309 126.272C57.2755 125.36 57.4266 124.386 57.5712 123.44L58.9182 115.094C59.5031 111.49 60.1207 107.827 60.722 104.289C61.0549 102.331 61.3834 100.373 61.7076 98.4147L62.0066 96.6841C62.8411 91.787 63.7085 86.7255 64.6087 81.7539L64.9372 79.9303C65.3315 77.8059 65.7389 75.5883 66.1824 73.4515L67.0104 69.3018C67.2633 67.9434 67.5623 66.6253 68.41 65.4033L68.7385 65.456C69.0901 66.8796 68.8929 68.2132 68.6399 69.5685L67.9139 73.7368C67.5492 75.9078 67.1352 78.1036 66.7344 80.2312L66.4058 82.0548C65.453 87.017 64.4345 92.0475 63.4489 96.9167L63.0974 98.6442C62.6943 100.615 62.2913 102.585 61.8883 104.555C61.1721 108.054 60.4328 111.667 59.6838 115.221L57.9227 123.499L57.3018 126.346C57.1145 127.233 56.901 128.145 56.6973 129.063Z" fill="#FF7E31"/>
<path id="Vector_19" d="M68.6137 130.049C68.5852 129.1 68.5556 128.162 68.525 127.233C68.4943 126.305 68.4648 125.347 68.4363 124.358L68.2293 115.916C68.1406 112.275 68.0782 108.575 68.019 104.993C67.984 103.008 67.9489 101.022 67.9139 99.0352L67.8876 97.2922C67.8087 92.33 67.7299 87.1971 67.7036 82.1512V80.2903C67.7036 78.1379 67.7036 75.9142 67.7365 73.7246L67.789 69.5036C67.789 68.1266 67.8383 66.7806 68.4461 65.4346H68.7747C69.3858 66.7806 69.4318 68.1266 69.4318 69.5005L69.4843 73.7246C69.5238 75.9111 69.5205 78.1348 69.5172 80.2841V82.1387C69.4909 87.1847 69.4121 92.3176 69.3332 97.2798L69.3069 99.0228C69.2719 101.008 69.2368 102.994 69.2018 104.981C69.1426 108.563 69.0802 112.263 68.9915 115.904L68.7845 124.346C68.7517 125.305 68.7221 126.263 68.6958 127.221C68.6695 128.178 68.6422 129.121 68.6137 130.049Z" fill="#FF7E31"/>
<path id="Vector_20" d="M80.53 129.062C80.3263 128.132 80.1292 127.233 79.9321 126.336L79.3111 123.489L77.5501 115.211C76.801 111.657 76.0618 108.044 75.3456 104.546C74.9447 102.575 74.5417 100.605 74.1365 98.6344L73.785 96.9069C72.7993 92.0377 71.7775 87.0042 70.828 82.045L70.4995 80.2214C70.0987 78.0938 69.6847 75.898 69.32 73.727L68.5939 69.5618C68.3409 68.2034 68.1438 66.8698 68.4954 65.4463L68.8239 65.3936C69.6716 66.6155 69.9705 67.9336 70.2235 69.2889L71.0317 73.4541C71.4753 75.6096 71.8827 77.8116 72.2769 79.9361L72.6055 81.7628C73.5057 86.725 74.3731 91.7927 75.2076 96.6899L75.5066 98.4204C75.8329 100.376 76.1615 102.334 76.4922 104.295C77.0934 107.833 77.7111 111.496 78.2959 115.1L79.643 123.449C79.7875 124.392 79.9343 125.334 80.0832 126.277C80.2409 127.183 80.3855 128.12 80.53 129.062Z" fill="#FF7E31"/>
<path id="Vector_21" d="M92.0851 126.141C91.7138 125.267 91.3491 124.398 90.991 123.542L89.8575 120.85L86.6016 112.988C85.2053 109.601 83.809 106.165 82.4586 102.816C81.703 100.955 80.9462 99.0939 80.1884 97.2331L79.5313 95.6265C77.6586 90.9744 75.7234 86.1765 73.8671 81.4376L73.2133 79.676C72.4281 77.6508 71.6166 75.5573 70.8609 73.4732L69.3825 69.491C68.8831 68.1977 68.4428 66.9137 68.5283 65.4591L68.8371 65.3506C69.8983 66.4175 70.4338 67.6642 70.9332 68.9575L72.5102 72.9087C73.3447 74.9587 74.153 77.0584 74.9283 79.0867L75.5854 80.8297C77.3826 85.5656 79.1633 90.3976 80.8849 95.0714L81.5059 96.7616C82.1914 98.6494 82.8825 100.537 83.579 102.425C84.8143 105.799 86.0924 109.288 87.3277 112.728L90.1894 120.729C90.507 121.641 90.8267 122.553 91.1487 123.465L92.0851 126.141Z" fill="#FF7E31"/>
<path id="Vector_22" d="M102.924 121.368L101.347 118.952L99.7599 116.523L95.1077 109.313C93.1069 106.211 91.0962 103.038 89.1512 99.9712C88.056 98.2592 86.9696 96.5493 85.892 94.8415L84.9655 93.3745C82.2648 89.1039 79.4722 84.6906 76.7682 80.3176L75.7596 78.6738C74.6228 76.813 73.4598 74.8994 72.3263 72.9951L70.1349 69.3138C69.4055 68.1197 68.7353 66.9319 68.5513 65.4804L68.8404 65.3223C70.079 66.2 70.838 67.3413 71.564 68.5322L73.8639 72.1671C75.0598 74.0465 76.236 75.9787 77.376 77.8489L78.3617 79.4616C81.0131 83.847 83.6644 88.3316 86.2271 92.6674L87.1207 94.1809L90.1861 99.3881C92.0325 102.517 93.9381 105.755 95.7911 108.95L100.082 116.359C100.568 117.213 101.056 118.066 101.544 118.918C101.987 119.724 102.454 120.543 102.924 121.368Z" fill="#FF7E31"/>
<path id="Vector_23" d="M112.724 114.892L110.72 112.768C110.063 112.059 109.395 111.349 108.716 110.64L102.802 104.301C100.259 101.572 97.6966 98.7773 95.2161 96.0759C93.8318 94.5686 92.4475 93.0634 91.0633 91.5603L89.8345 90.2019C86.4078 86.4554 82.8627 82.5848 79.413 78.7422L78.1415 77.3372C76.6696 75.6842 75.1452 73.9753 73.6831 72.2695L70.8478 69.0037C69.9081 67.9493 69.0309 66.8855 68.5808 65.4867L68.8371 65.2852C70.217 65.9458 71.173 66.9475 72.1225 67.9989L75.04 71.2026C76.5612 72.8588 78.0758 74.5677 79.5411 76.2176L80.8093 77.6505C84.2098 81.5117 87.6267 85.4722 90.9319 89.2994L92.1475 90.7074C93.4748 92.2581 94.8054 93.8088 96.1393 95.3595C98.5246 98.1353 100.992 101.004 103.4 103.839L108.986 110.432L110.891 112.712C111.496 113.425 112.11 114.154 112.724 114.892Z" fill="#FF7E31"/>
<path id="Vector_24" d="M121.181 106.906L118.881 105.188L116.453 103.377L109.468 98.1047C106.462 95.8345 103.423 93.5022 100.483 91.2475C98.8422 89.9904 97.1995 88.7353 95.5545 87.4824L94.1451 86.3969C90.0612 83.2583 85.8394 80.0111 81.7194 76.7825L80.1982 75.5761C78.4504 74.1959 76.6434 72.7693 74.8922 71.3334L71.5016 68.5824C70.3813 67.6985 69.3233 66.796 68.6235 65.481L68.8371 65.2422C70.3188 65.664 71.4425 66.4828 72.5595 67.3791L76.0191 70.0556C77.8294 71.4388 79.6331 72.8778 81.3909 74.2673L82.889 75.4582C86.9696 78.724 91.1027 82.0797 95.0683 85.33L96.4547 86.4589L101.219 90.3605C104.087 92.7083 107.054 95.1336 109.955 97.5402L116.67 103.123C117.432 103.768 118.199 104.411 118.97 105.052L121.181 106.906Z" fill="#FF7E31"/>
<path id="Vector_25" d="M128.045 97.6451L125.416 96.3146L122.722 94.9438L114.876 90.8933C111.502 89.1504 108.085 87.3577 104.78 85.621C102.932 84.6512 101.081 83.6815 99.2277 82.7118L97.5488 81.8279C92.9853 79.4243 88.2641 76.937 83.648 74.4497L81.9199 73.5193C79.9486 72.4462 77.9083 71.3483 75.9239 70.2132L72.0766 68.0608C70.8117 67.3723 69.6026 66.6558 68.6729 65.4866L68.8371 65.2168C70.3747 65.3905 71.6363 66.0201 72.898 66.7086L76.7978 68.7772C78.8282 69.841 80.8652 70.9482 82.8398 72.0337L84.5581 72.9641C89.1578 75.5042 93.8297 78.131 98.3374 80.6711L99.9407 81.5736C101.75 82.6074 103.562 83.6329 105.378 84.6502C108.624 86.4862 111.982 88.3719 115.274 90.2731L122.913 94.6647L125.508 96.1781L128.045 97.6451Z" fill="#FF7E31"/>
<path id="Vector_26" d="M133.101 87.411L130.299 86.5364L127.374 85.606L118.901 82.9047C115.261 81.7417 111.565 80.5352 107.993 79.3691L101.988 77.409L100.197 76.8663C95.2459 75.2411 90.1271 73.5632 85.1102 71.8637L83.244 71.2248C81.1019 70.4929 78.8842 69.733 76.7191 68.9515L72.5367 67.4597C71.1634 66.9883 69.8393 66.4827 68.7124 65.4841L68.8241 65.1895H69.2118C70.6114 65.1895 71.8402 65.574 73.0985 66.0051L77.3203 67.4008C79.5183 68.1172 81.736 68.8832 83.8913 69.6245L85.741 70.2603C90.7678 71.9939 95.8832 73.8269 100.811 75.5978L102.474 76.1963L108.368 78.3239C111.913 79.6048 115.58 80.926 119.174 82.2503L127.506 85.3207C128.455 85.6805 129.405 86.034 130.358 86.3907L133.101 87.411Z" fill="#FF7E31"/>
<path id="Vector_27" d="M136.192 76.5159L133.258 76.1127C132.25 75.9701 131.238 75.8305 130.229 75.694L121.388 74.4225C117.574 73.8704 113.7 73.2873 109.958 72.7198L103.716 71.7894L101.938 71.5195C96.7339 70.7256 91.3491 69.9068 86.066 69.0384L84.1243 68.7283C81.8738 68.3561 79.5476 67.9715 77.2675 67.5528L72.8847 66.7682C71.449 66.5294 70.0526 66.2472 68.7549 65.4501L68.814 65.14C69.3786 65.0174 69.9563 64.957 70.5356 64.9601C71.4184 64.9803 72.2977 65.0716 73.164 65.233L77.5797 65.9184C79.8795 66.2627 82.1957 66.6534 84.443 67.0287L86.388 67.3544C91.6447 68.2569 97.0001 69.2152 102.158 70.1456L103.955 70.4558C106.025 70.8362 108.096 71.2146 110.168 71.5909C113.887 72.267 117.725 72.9679 121.513 73.6812L130.285 75.3405L133.298 75.9297L136.192 76.5159Z" fill="#FF7E31"/>
<path id="Vector_28" d="M82.6033 66.1291C81.1216 66.1291 79.3606 66.1291 77.5601 66.095L73.0886 66.0485C71.6233 66.0485 70.2007 65.9989 68.7781 65.4282V65.1181C70.2007 64.5443 71.62 64.4978 73.0722 64.4978L77.5601 64.4482C79.3639 64.4203 81.1249 64.4141 82.6132 64.4141H86.4999C91.8322 64.4389 97.2565 64.5133 102.5 64.5846L104.383 64.6094C106.494 64.6467 108.606 64.6797 110.717 64.7087C114.502 64.7645 118.418 64.8234 122.269 64.9072L131.212 65.1057L134.271 65.1894L137.228 65.27L134.271 65.3538C133.249 65.3817 132.23 65.4065 131.212 65.4375L122.269 65.6329C118.418 65.7167 114.502 65.7756 110.717 65.8345C108.606 65.8655 106.494 65.8986 104.383 65.9338L102.566 65.9586C97.3091 66.0299 91.8552 66.1043 86.4999 66.1291H82.6033Z" fill="#FF7E31"/>
<path id="Vector_29" d="M70.5258 65.5739C69.9465 65.5769 69.3688 65.5166 68.8043 65.394L68.7451 65.0839C70.0429 64.2837 71.4392 64.0015 72.875 63.7627L77.2709 62.9811C79.5477 62.5655 81.8706 62.1809 84.1178 61.8119L86.0694 61.4862C91.3426 60.6364 96.7143 59.8177 101.912 59.0268L103.719 58.7508C105.804 58.4406 107.885 58.1305 109.961 57.8204C113.697 57.2559 117.564 56.6728 121.372 56.1239L130.213 54.8523L133.252 54.4336L136.176 54.0273L133.265 54.598C132.28 54.7903 131.271 54.9826 130.275 55.1811L121.51 56.831C117.738 57.5412 113.897 58.2422 110.185 58.9183L103.942 60.0565L102.145 60.3666C96.9772 61.297 91.6317 62.2678 86.3749 63.1579L84.4037 63.4835C82.163 63.8619 79.8434 64.2496 77.5567 64.5938L73.1444 65.2761C72.2823 65.4466 71.4062 65.5462 70.5258 65.5739Z" fill="#FF7E31"/>
<path id="Vector_30" d="M69.2118 65.3725H68.8241L68.7124 65.0779C69.8393 64.0762 71.1634 63.5706 72.5334 63.1023L76.7191 61.6105C78.8842 60.8259 81.1019 60.0598 83.2473 59.3341L85.1102 58.6952C90.1337 56.9956 95.2623 55.3147 100.223 53.6864L101.988 53.1065C103.992 52.4593 105.995 51.807 107.997 51.1495C111.568 49.9834 115.261 48.7769 118.901 47.6139L127.378 44.9095L130.279 44.0038L133.098 43.123L130.348 44.1527L127.496 45.2227L119.164 48.2962C115.573 49.6174 111.916 50.9386 108.375 52.2133L102.461 54.3501L100.769 54.9704C95.8405 56.7382 90.7513 58.5681 85.7246 60.3203L83.8683 60.9623C81.7261 61.7005 79.5085 62.4665 77.3138 63.1798L73.0919 64.5786C71.8467 64.9849 70.6114 65.3725 69.2118 65.3725Z" fill="#FF7E31"/>
<path id="Vector_31" d="M68.6729 65.0557C69.6026 63.8833 70.8117 63.17 72.0733 62.4815L75.9206 60.3291C77.9149 59.1971 79.965 58.0837 81.9494 57.0075L83.648 56.0771C88.2805 53.5805 93.0182 51.0838 97.6014 48.6709L99.2441 47.8056C101.091 46.8421 102.935 45.8755 104.777 44.9058C108.089 43.1659 111.512 41.3671 114.893 39.6334L122.742 35.583C123.635 35.1302 124.528 34.6763 125.419 34.2215L128.048 32.8848L125.495 34.3765L122.913 35.8807L115.267 40.2692C111.982 42.1642 108.604 44.0653 105.349 45.9045L99.9407 48.9532L98.3801 49.834C93.8593 52.3802 89.1807 55.0164 84.5581 57.5658L82.8464 58.4962C80.8751 59.5786 78.8282 60.6951 76.8011 61.7558L72.9012 63.8399C71.6363 64.5284 70.3747 65.1611 68.8371 65.3348L68.6729 65.0557Z" fill="#FF7E31"/>
<path id="Vector_32" d="M68.6335 65.0498C69.3333 63.7441 70.3913 62.8416 71.5083 61.9484L74.9022 59.1974C76.6534 57.7615 78.4604 56.3349 80.2083 54.9516L81.7327 53.7483C85.8428 50.5259 90.0548 47.2849 94.1321 44.1339L95.5547 43.0608L100.483 39.2864C103.42 37.0348 106.459 34.7056 109.462 32.4354L116.447 27.163L118.862 25.3642C119.621 24.7935 120.396 24.2167 121.162 23.6367L118.944 25.4976L116.661 27.4204L109.945 33.003C107.047 35.4035 104.084 37.8288 101.222 40.1703C99.6276 41.4729 98.0352 42.7776 96.445 44.0843L95.0619 45.2101C91.0799 48.4604 86.9632 51.8192 82.8793 55.085L81.3647 56.2883C79.6202 57.6747 77.8131 59.1075 76.0127 60.4876L72.5531 63.1642C71.436 64.0481 70.3091 64.8761 68.8274 65.301L68.6335 65.0498Z" fill="#FF7E31"/>
<path id="Vector_33" d="M68.5908 65.0495C69.0409 63.6507 69.905 62.587 70.8545 61.5325L73.6899 58.2574C75.1552 56.5516 76.6796 54.8459 78.1515 53.1897L79.4132 51.7724C82.8629 47.9328 86.4079 44.0592 89.8347 40.3158L91.07 38.9667C92.4565 37.4614 93.8407 35.9552 95.2228 34.4479C97.7034 31.7466 100.266 28.9553 102.809 26.2261L108.723 19.8837C109.395 19.1745 110.067 18.4622 110.737 17.7468L112.731 15.6348L110.904 17.8058L108.986 20.1101L103.4 26.7006C100.995 29.5384 98.528 32.4041 96.1428 35.1767C94.8089 36.7233 93.4772 38.274 92.1476 39.8288L90.9386 41.2276C87.6334 45.0609 84.2132 49.0214 80.8095 52.8889L79.5413 54.3186C78.076 55.9717 76.5614 57.6805 75.0402 59.3336L72.126 62.5373C71.1863 63.5918 70.2303 64.5936 68.8405 65.2511L68.5908 65.0495Z" fill="#FF7E31"/>
<path id="Vector_34" d="M68.5513 65.0553C68.7353 63.6039 69.4055 62.4129 70.1349 61.222L72.3263 57.5406C73.4466 55.6301 74.6261 53.7104 75.7662 51.8526L76.7682 50.2151C79.4656 45.8731 82.255 41.4474 84.949 37.1892L85.892 35.6974C86.9871 33.9896 88.0724 32.2807 89.1479 30.5708C91.0962 27.5035 93.1069 24.3307 95.1077 21.2262L99.7599 14.0093C100.292 13.1998 100.824 12.3841 101.353 11.5716C101.882 10.759 102.395 9.97433 102.924 9.16797L101.524 11.6212C101.038 12.471 100.539 13.3239 100.065 14.1767L95.7747 21.586C93.9217 24.7805 92.0128 28.0183 90.1697 31.1507C89.1446 32.8855 88.1228 34.6202 87.1043 36.3549L86.214 37.8622C83.648 42.2042 80.9966 46.6888 78.3288 51.0742L77.3432 52.69C76.2031 54.5509 75.0269 56.4892 73.831 58.3687L71.5312 62.0004C70.8051 63.1914 70.0462 64.3358 68.8075 65.2104L68.5513 65.0553Z" fill="#FF7E31"/>
<path id="Vector_35" d="M68.5151 65.0802C68.4297 63.6195 68.8699 62.3386 69.366 61.0484L70.8478 57.0662C71.6034 54.9944 72.4149 52.9041 73.1969 50.882L73.8704 49.108C75.7234 44.3721 77.6585 39.5712 79.5313 34.9283L80.1883 33.3125C80.9484 31.4517 81.704 29.5908 82.4553 27.73C83.8089 24.3929 85.2053 20.9441 86.6016 17.5574L89.8575 9.6922C90.2386 8.79589 90.6131 7.89648 90.991 7.00017C91.3688 6.10387 91.7138 5.27579 92.085 4.4043L91.1454 7.07461L90.1893 9.80695L87.3408 17.7962C86.1088 21.2325 84.8307 24.7216 83.5954 28.0928C82.901 29.9826 82.2089 31.8735 81.519 33.7653L80.9046 35.437C79.1797 40.117 77.399 44.9552 75.5985 49.7034L74.9415 51.4402C74.1628 53.4717 73.3546 55.5713 72.5201 57.6244L70.9135 61.5663C70.4141 62.8596 69.8785 64.1095 68.8173 65.1764L68.5151 65.0802Z" fill="#FF7E31"/>
<path id="Vector_36" d="M68.479 65.0808C68.1275 63.6573 68.3246 62.3237 68.5776 60.9684L69.3037 56.8032C69.6683 54.6322 70.0823 52.4333 70.4831 50.3088L70.8117 48.4852C71.7645 43.523 72.783 38.4987 73.7686 33.6357L74.1234 31.8927C74.5286 29.9264 74.9317 27.9622 75.3325 26C76.0487 22.5016 76.7847 18.8854 77.537 15.3343L79.298 7.05352L79.919 4.20953C80.1161 3.31013 80.3133 2.39831 80.517 1.4834C80.3724 2.41382 80.2278 3.36285 80.0833 4.27466C79.9387 5.18648 79.7876 6.16032 79.643 7.10315L78.3091 15.4583C77.7276 19.0622 77.1066 22.7218 76.5054 26.2605C76.1747 28.2206 75.8461 30.1797 75.5198 32.1377L75.2208 33.8776C74.383 38.7716 73.5189 43.83 72.6187 48.7954L72.2902 50.619C71.8959 52.7465 71.4885 54.961 71.045 57.1009L70.217 61.2506C69.964 62.6059 69.6651 63.924 68.8174 65.1491L68.479 65.0808Z" fill="#FF7E31"/>
</g>
</g>
<g id="freepik--Stars--inject-651">
<g id="freepik--stars--inject-651">
<path id="Vector_37" d="M24.7261 12.4497L26.5791 13.7895L28.8034 13.1072C28.8542 13.0914 28.9087 13.0895 28.9607 13.1016C29.0126 13.1136 29.0599 13.1392 29.0973 13.1754C29.1346 13.2116 29.1604 13.2569 29.1717 13.3063C29.1831 13.3556 29.1796 13.407 29.1615 13.4545L28.3829 15.5325L29.7595 17.3189C29.7908 17.3597 29.8094 17.408 29.8131 17.4582C29.8169 17.5085 29.8056 17.5588 29.7807 17.6033C29.7557 17.6479 29.718 17.6849 29.6719 17.7103C29.6257 17.7357 29.573 17.7483 29.5196 17.7469L27.1837 17.691L25.8103 19.4899C25.7789 19.5308 25.7359 19.5625 25.6863 19.5815C25.6367 19.6004 25.5824 19.6059 25.5297 19.5971C25.4769 19.5884 25.4279 19.5659 25.388 19.5321C25.3482 19.4983 25.3192 19.4547 25.3044 19.4061L24.6473 17.2941L22.423 16.6118C22.3725 16.5962 22.3276 16.5677 22.2932 16.5295C22.2589 16.4912 22.2366 16.4446 22.2287 16.395C22.2209 16.3454 22.2278 16.2947 22.2488 16.2486C22.2698 16.2026 22.3039 16.1629 22.3475 16.1341L24.2727 14.8936V12.6668C24.273 12.6172 24.2878 12.5686 24.3154 12.5264C24.343 12.4842 24.3824 12.4501 24.4293 12.4276C24.4761 12.4052 24.5286 12.3954 24.581 12.3993C24.6334 12.4032 24.6836 12.4206 24.7261 12.4497Z" fill="#FF7E31" fill-opacity="0.5"/>
<path id="Vector_38" d="M112.465 75.7493L112.346 77.9513L114.199 79.2942C114.242 79.3247 114.274 79.3659 114.293 79.4129C114.312 79.4599 114.316 79.511 114.306 79.5603C114.296 79.6096 114.271 79.6553 114.235 79.6921C114.199 79.7289 114.152 79.7554 114.101 79.7687L111.84 80.3424L111.062 82.4204C111.044 82.468 111.013 82.51 110.971 82.5417C110.93 82.5734 110.88 82.5934 110.827 82.5995C110.774 82.6057 110.72 82.5977 110.671 82.5764C110.623 82.5552 110.582 82.5215 110.552 82.4793L109.278 80.6185L106.942 80.5595C106.888 80.5589 106.836 80.544 106.792 80.5165C106.747 80.4891 106.711 80.4503 106.689 80.4045C106.666 80.3587 106.658 80.308 106.665 80.258C106.672 80.208 106.694 80.161 106.728 80.1222L108.197 78.4072L107.54 76.292C107.524 76.2436 107.524 76.192 107.538 76.1433C107.552 76.0945 107.58 76.0505 107.62 76.0162C107.659 75.9819 107.708 75.9588 107.761 75.9494C107.813 75.9401 107.868 75.9449 107.918 75.9633L110.099 76.7541L112.024 75.5136C112.068 75.487 112.119 75.4722 112.171 75.4708C112.223 75.4694 112.275 75.4816 112.32 75.5058C112.365 75.5301 112.403 75.5656 112.428 75.6085C112.454 75.6514 112.466 75.7001 112.465 75.7493Z" fill="#FF7E31" fill-opacity="0.5"/>
<path id="Vector_39" d="M114.216 21.1832L114.097 23.3852L115.95 24.7281C115.993 24.7587 116.025 24.7998 116.044 24.8468C116.063 24.8939 116.067 24.9449 116.057 24.9943C116.047 25.0436 116.022 25.0893 115.986 25.1261C115.95 25.1629 115.903 25.1894 115.852 25.2027L113.595 25.7764L112.813 27.8544C112.795 27.902 112.764 27.944 112.722 27.9757C112.681 28.0073 112.631 28.0274 112.578 28.0335C112.525 28.0396 112.471 28.0316 112.422 28.0104C112.374 27.9891 112.333 27.9555 112.304 27.9133L111.029 26.0524L108.696 26.0028C108.643 26.0022 108.591 25.9873 108.546 25.9598C108.501 25.9324 108.466 25.8935 108.443 25.8478C108.421 25.802 108.413 25.7512 108.42 25.7013C108.427 25.6513 108.448 25.6042 108.483 25.5655L109.951 23.8504L109.294 21.7353C109.279 21.6868 109.278 21.6353 109.292 21.5865C109.306 21.5378 109.335 21.4937 109.374 21.4595C109.414 21.4252 109.462 21.402 109.515 21.3927C109.568 21.3833 109.622 21.3881 109.672 21.4065L111.853 22.1974L113.779 20.9568C113.822 20.9315 113.871 20.9174 113.922 20.9161C113.973 20.9148 114.023 20.9263 114.067 20.9493C114.112 20.9724 114.149 21.0062 114.175 21.0473C114.201 21.0884 114.215 21.1353 114.216 21.1832Z" fill="#FF7E31" fill-opacity="0.5"/>
<path id="Vector_40" d="M5.9924 101.296L8.21995 101.966L10.0664 100.611C10.1085 100.58 10.1588 100.561 10.2116 100.556C10.2644 100.551 10.3177 100.56 10.3654 100.582C10.4132 100.604 10.4535 100.638 10.4819 100.68C10.5104 100.722 10.5257 100.771 10.5263 100.821V103.03L12.4615 104.27C12.5051 104.299 12.5396 104.338 12.561 104.383C12.5825 104.429 12.59 104.48 12.5829 104.529C12.5757 104.579 12.5541 104.625 12.5205 104.664C12.4869 104.703 12.4426 104.732 12.3925 104.748L10.1748 105.446L9.51771 107.564C9.50287 107.612 9.47389 107.656 9.43406 107.69C9.39423 107.724 9.34516 107.746 9.29242 107.755C9.23969 107.764 9.18542 107.758 9.1358 107.739C9.08618 107.72 9.04319 107.689 9.01174 107.648L7.62528 105.874L5.28931 105.945C5.23594 105.946 5.1832 105.934 5.13707 105.908C5.09094 105.883 5.05326 105.846 5.02829 105.801C5.00333 105.757 4.99208 105.707 4.99582 105.656C4.99956 105.606 5.01815 105.558 5.04947 105.517L6.40965 103.724L5.61457 101.65C5.59362 101.6 5.58863 101.545 5.6002 101.493C5.61178 101.441 5.63942 101.393 5.67969 101.355C5.71995 101.317 5.77106 101.291 5.82666 101.281C5.88226 101.271 5.9399 101.276 5.9924 101.296Z" fill="#FF7E31" fill-opacity="0.5"/>
<path id="Vector_41" d="M128.156 125.586L130.387 126.253L132.23 124.898C132.272 124.867 132.322 124.848 132.375 124.843C132.428 124.838 132.481 124.847 132.529 124.869C132.577 124.891 132.617 124.925 132.646 124.967C132.674 125.009 132.689 125.058 132.69 125.109L132.706 127.317L134.642 128.557C134.686 128.585 134.722 128.624 134.744 128.67C134.766 128.716 134.774 128.767 134.767 128.817C134.76 128.867 134.738 128.914 134.703 128.952C134.669 128.991 134.624 129.02 134.573 129.035L132.352 129.73L131.695 131.848C131.68 131.897 131.651 131.941 131.612 131.975C131.572 132.009 131.523 132.032 131.47 132.041C131.418 132.05 131.363 132.045 131.313 132.026C131.263 132.007 131.22 131.976 131.189 131.935L129.802 130.158L127.466 130.229C127.413 130.23 127.361 130.217 127.316 130.192C127.27 130.167 127.233 130.13 127.208 130.086C127.183 130.042 127.172 129.992 127.175 129.943C127.178 129.893 127.196 129.845 127.226 129.804L128.586 128.008L127.791 125.934C127.773 125.885 127.769 125.833 127.78 125.783C127.792 125.733 127.818 125.687 127.857 125.65C127.895 125.614 127.943 125.588 127.996 125.577C128.049 125.566 128.105 125.569 128.156 125.586Z" fill="#FF7E31" fill-opacity="0.5"/>
<path id="Vector_42" d="M70.46 125.779L70.3384 127.981L72.1914 129.323C72.2337 129.354 72.2661 129.395 72.2849 129.442C72.3038 129.489 72.3083 129.54 72.2981 129.59C72.2878 129.639 72.2632 129.685 72.2269 129.721C72.1907 129.758 72.1442 129.785 72.0928 129.798L69.8357 130.372L69.0538 132.45C69.0362 132.497 69.0049 132.539 68.9633 132.571C68.9217 132.603 68.8716 132.623 68.8186 132.629C68.7656 132.635 68.7118 132.627 68.6633 132.606C68.6149 132.584 68.5737 132.551 68.5445 132.509L67.2731 130.648L64.9371 130.589C64.884 130.588 64.8323 130.572 64.7879 130.545C64.7434 130.517 64.7079 130.479 64.6854 130.433C64.6629 130.388 64.6542 130.338 64.6604 130.288C64.6665 130.238 64.6873 130.191 64.7202 130.152L66.1921 128.436L65.535 126.321C65.5201 126.273 65.5196 126.222 65.5336 126.174C65.5477 126.125 65.5757 126.082 65.6146 126.048C65.6535 126.013 65.7017 125.99 65.7538 125.981C65.8059 125.971 65.8599 125.975 65.9096 125.993L68.0911 126.783L70.0197 125.543C70.0635 125.516 70.1143 125.501 70.1664 125.5C70.2185 125.499 70.2699 125.511 70.3153 125.535C70.3606 125.559 70.3981 125.595 70.4236 125.638C70.4491 125.681 70.4616 125.729 70.46 125.779Z" fill="#FF7E31" fill-opacity="0.5"/>
<path id="Vector_43" d="M10.9864 60.7015C10.9864 60.8354 10.9443 60.9662 10.8655 61.0775C10.7866 61.1887 10.6746 61.2754 10.5435 61.3264C10.4124 61.3775 10.2683 61.3907 10.1292 61.3644C9.99022 61.338 9.86261 61.2733 9.76257 61.1785C9.66254 61.0836 9.59458 60.9629 9.56732 60.8315C9.54006 60.7001 9.55471 60.5641 9.60942 60.4406C9.66414 60.3171 9.75645 60.2118 9.87466 60.1378C9.99288 60.0639 10.1317 60.0248 10.2735 60.0254C10.3674 60.0254 10.4604 60.0429 10.5471 60.0769C10.6338 60.1109 10.7125 60.1608 10.7788 60.2236C10.845 60.2864 10.8975 60.361 10.9331 60.443C10.9687 60.525 10.9869 60.6129 10.9864 60.7015Z" fill="#FF7E31" fill-opacity="0.5"/>
<path id="Vector_44" d="M1.41583 38.8392C1.80958 38.8392 2.12877 38.5379 2.12877 38.1662C2.12877 37.7945 1.80958 37.4932 1.41583 37.4932C1.02208 37.4932 0.702881 37.7945 0.702881 38.1662C0.702881 38.5379 1.02208 38.8392 1.41583 38.8392Z" fill="#FF7E31" fill-opacity="0.5"/>
<path id="Vector_45" d="M46.8177 95.7502C46.8177 95.8833 46.7759 96.0134 46.6976 96.1241C46.6192 96.2347 46.5079 96.321 46.3776 96.3719C46.2474 96.4229 46.104 96.4362 45.9657 96.4102C45.8274 96.3843 45.7004 96.3202 45.6007 96.226C45.501 96.1319 45.4331 96.012 45.4055 95.8815C45.378 95.7509 45.3922 95.6156 45.4461 95.4926C45.5001 95.3696 45.5915 95.2645 45.7087 95.1906C45.8259 95.1166 45.9638 95.0771 46.1048 95.0771C46.1984 95.0771 46.2911 95.0946 46.3776 95.1284C46.4641 95.1622 46.5427 95.2118 46.6089 95.2743C46.6751 95.3368 46.7276 95.411 46.7635 95.4926C46.7993 95.5743 46.8177 95.6618 46.8177 95.7502Z" fill="#FF7E31" fill-opacity="0.5"/>
<path id="Vector_46" d="M95.62 119.25C95.62 119.383 95.5782 119.513 95.4998 119.624C95.4215 119.735 95.3101 119.821 95.1799 119.872C95.0496 119.923 94.9062 119.936 94.768 119.91C94.6297 119.884 94.5026 119.82 94.4029 119.726C94.3032 119.632 94.2353 119.512 94.2078 119.381C94.1803 119.251 94.1944 119.116 94.2484 118.993C94.3023 118.87 94.3937 118.765 94.5109 118.691C94.6282 118.617 94.766 118.577 94.907 118.577C95.0007 118.577 95.0934 118.595 95.1799 118.628C95.2664 118.662 95.345 118.712 95.4112 118.774C95.4774 118.837 95.5299 118.911 95.5657 118.993C95.6015 119.074 95.62 119.162 95.62 119.25Z" fill="#FF7E31" fill-opacity="0.5"/>
<path id="Vector_47" d="M137.888 59.2064C138.282 59.2064 138.601 58.905 138.601 58.5334C138.601 58.1617 138.282 57.8604 137.888 57.8604C137.494 57.8604 137.175 58.1617 137.175 58.5334C137.175 58.905 137.494 59.2064 137.888 59.2064Z" fill="#FF7E31" fill-opacity="0.5"/>
<path id="Vector_48" d="M132.306 29.014C132.699 29.014 133.019 28.7127 133.019 28.341C133.019 27.9693 132.699 27.668 132.306 27.668C131.912 27.668 131.593 27.9693 131.593 28.341C131.593 28.7127 131.912 29.014 132.306 29.014Z" fill="#FF7E31" fill-opacity="0.5"/>
<path id="Vector_49" d="M83.9041 16.5745C83.9041 16.7083 83.8621 16.839 83.7834 16.9502C83.7047 17.0614 83.5929 17.148 83.462 17.1992C83.3311 17.2504 83.1871 17.2637 83.0482 17.2377C82.9092 17.2116 82.7816 17.1472 82.6815 17.0526C82.5813 16.9581 82.5131 16.8376 82.4854 16.7064C82.4578 16.5753 82.472 16.4394 82.5262 16.3158C82.5804 16.1923 82.6722 16.0867 82.79 16.0124C82.9078 15.9381 83.0462 15.8984 83.1879 15.8984C83.282 15.8984 83.3751 15.9159 83.462 15.9499C83.5489 15.9839 83.6279 16.0337 83.6944 16.0965C83.7609 16.1592 83.8136 16.2338 83.8496 16.3158C83.8856 16.3978 83.9041 16.4858 83.9041 16.5745Z" fill="#FF7E31" fill-opacity="0.5"/>
<path id="Vector_50" d="M45.6351 17.3714C46.0288 17.3714 46.348 17.0701 46.348 16.6984C46.348 16.3267 46.0288 16.0254 45.6351 16.0254C45.2413 16.0254 44.9221 16.3267 44.9221 16.6984C44.9221 17.0701 45.2413 17.3714 45.6351 17.3714Z" fill="#FF7E31" fill-opacity="0.5"/>
</g>
</g>
<g id="freepik--Diplomas--inject-651">
<g id="freepik--Diploma--inject-651">
<path id="Vector_51" d="M106.37 57.6365L117.08 48.5215L118.506 47.1755L129.086 36.2368L129.256 36.06C129.654 35.6879 130.308 35.5607 131.132 35.7685C132.775 36.1872 134.477 37.7906 134.917 39.3475C135.141 40.1291 135.006 40.7463 134.608 41.1215L122.823 51.2569L121.404 52.5967L111.653 62.7445C111.255 63.1043 110.601 63.2284 109.79 63.0206C108.147 62.6019 106.449 61.0015 106.002 59.4415C105.785 58.6631 105.92 58.0428 106.33 57.6706L106.386 57.6179L106.37 57.6365Z" fill="#FF7E31"/>
<path id="Vector_52" opacity="0.4" d="M106.37 57.6365L117.08 48.5215L118.506 47.1755L129.086 36.2368L129.256 36.06C129.654 35.6879 130.308 35.5607 131.132 35.7685C132.775 36.1872 134.477 37.7906 134.917 39.3475C135.141 40.1291 135.006 40.7463 134.608 41.1215L122.823 51.2569L121.404 52.5967L111.653 62.7445C111.255 63.1043 110.601 63.2284 109.79 63.0206C108.147 62.6019 106.449 61.0015 106.002 59.4415C105.785 58.6631 105.92 58.0428 106.33 57.6706L106.386 57.6179L106.37 57.6365Z" fill="#FBFCFE"/>
<path id="Vector_53" opacity="0.3" d="M129.638 35.8154C129.496 35.8747 129.367 35.9577 129.256 36.0604L129.086 36.2372L118.506 47.1728L117.081 48.5188L106.37 57.6369L106.314 57.6897C105.916 58.0618 105.782 58.6821 105.985 59.4606C106.387 60.6328 107.187 61.6469 108.262 62.3449L130.732 41.1716C130.732 41.1716 128.468 38.2873 129.638 35.8154Z" fill="#FF7E31"/>
<path id="Vector_54" d="M131.132 35.7685C130.308 35.5607 129.651 35.6879 129.256 36.06C128.862 36.4322 128.724 37.0525 128.944 37.834C129.385 39.3847 131.08 40.9944 132.729 41.4131C133.557 41.6208 134.214 41.4937 134.608 41.1215C135.003 40.7494 135.141 40.126 134.921 39.3475C134.477 37.7875 132.785 36.1872 131.132 35.7685Z" fill="#FF7E31"/>
<path id="Vector_55" d="M106.189 57.7973L106.367 57.6298L117.077 48.5148L118.503 47.1688L129.086 36.2363C127.518 38.0258 129.582 40.8016 129.582 40.8016L106.514 62.5425C106.514 62.5425 104.307 59.5713 106.189 57.7973Z" fill="#FF7E31"/>
<path id="Vector_56" opacity="0.6" d="M106.189 57.7973L106.367 57.6298L117.077 48.5148L118.503 47.1688L129.086 36.2363C127.518 38.0258 129.582 40.8016 129.582 40.8016L106.514 62.5425C106.514 62.5425 104.307 59.5713 106.189 57.7973Z" fill="#FBFCFE"/>
<path id="Vector_57" opacity="0.25" d="M131.132 35.7685C130.308 35.5607 129.651 35.6879 129.256 36.06C128.862 36.4322 128.724 37.0525 128.944 37.834C129.385 39.3847 131.08 40.9944 132.729 41.4131C133.557 41.6208 134.214 41.4937 134.608 41.1215C135.003 40.7494 135.141 40.126 134.921 39.3475C134.477 37.7875 132.785 36.1872 131.132 35.7685Z" fill="#FBFCFE"/>
<path id="Vector_58" opacity="0.5" d="M132.545 39.2543C134.346 39.6017 133.859 37.4896 132.069 36.1281C131.772 35.9765 131.458 35.8568 131.132 35.7714C130.308 35.5636 129.651 35.6908 129.256 36.063C128.862 36.4351 128.724 37.0554 128.944 37.837C129.325 38.9597 130.077 39.9378 131.09 40.6282L132.545 39.2543Z" fill="#FF7E31"/>
<path id="Vector_59" d="M133.465 39.1182L131.553 40.9232C131.391 40.8308 131.236 40.7271 131.09 40.613L132.545 39.2422C132.699 39.2847 132.861 39.2956 133.019 39.2742C133.178 39.2528 133.33 39.1996 133.465 39.1182Z" fill="#FF7E31"/>
<path id="Vector_60" opacity="0.1" d="M133.465 39.1182L131.553 40.9232C131.391 40.8308 131.236 40.7271 131.09 40.613L132.545 39.2422C132.699 39.2847 132.861 39.2956 133.019 39.2742C133.178 39.2528 133.33 39.1996 133.465 39.1182Z" fill="#1D3149"/>
<path id="Vector_61" d="M121.545 52.47C123.875 53.4407 125.639 55.2985 127.065 57.6897C127.167 56.9752 127.132 56.2491 126.96 55.5466C127.576 55.6593 128.174 55.8492 128.737 56.111C127.256 53.8966 125.472 52.0978 123.241 50.9131L122.823 51.2573L121.545 52.47Z" fill="#FF7E31"/>
<path id="Vector_62" opacity="0.2" d="M122.564 52.9841L122.932 52.2863L124.095 51.421C123.816 51.2474 123.533 51.0799 123.241 50.9248L122.823 51.2567L121.539 52.4693C121.892 52.6194 122.235 52.7914 122.564 52.9841Z" fill="#1D3149"/>
<path id="Vector_63" d="M117.081 48.5189C116.768 48.829 116.663 49.319 116.837 49.9424C117.071 50.6166 117.47 51.2292 118.002 51.7309C118.533 52.2325 119.182 52.609 119.896 52.8298C120.553 52.9973 121.072 52.9012 121.394 52.6127L121.411 52.5972L122.83 51.2574C122.502 51.5675 121.979 51.6606 121.316 51.4931C120.601 51.2722 119.951 50.8953 119.42 50.3931C118.889 49.8909 118.49 49.2774 118.257 48.6026C118.079 47.9823 118.188 47.4737 118.51 47.1729L117.09 48.5096L117.081 48.5189Z" fill="#FF7E31"/>
<path id="Vector_64" opacity="0.15" d="M119.111 50.0724C118.824 49.7513 118.587 49.393 118.408 49.0086L116.988 50.3453C117.168 50.7298 117.405 51.088 117.692 51.4091L119.111 50.0724ZM116.837 49.9421L118.257 48.6054C118.201 48.4103 118.173 48.2089 118.174 48.0068L116.755 49.3435C116.754 49.5456 116.782 49.7469 116.837 49.9421Z" fill="#FBFCFE"/>
<path id="Vector_65" opacity="0.1" d="M118.937 52.4295C119.235 52.6054 119.558 52.7402 119.896 52.8296C120.553 52.997 121.072 52.9009 121.394 52.6125L121.411 52.597L122.83 51.2571C122.501 51.5673 121.979 51.6603 121.315 51.4929C120.977 51.4035 120.654 51.2687 120.356 51.0928L118.937 52.4295Z" fill="#1D3149"/>
</g>
<g id="freepik--diploma--inject-651">
<path id="Vector_66" d="M5.28601 66.9096L18.6283 73.9994L20.5437 74.8957L35.7817 81.2443L36.0281 81.3498C36.5604 81.601 36.9152 82.1809 36.9744 83.0338C37.0861 84.7427 35.9526 86.8951 34.438 87.841C33.6823 88.3155 32.9759 88.3962 32.447 88.1512L17.6624 80.3976L15.7535 79.5013L1.626 73.6769H1.60628C1.08718 73.4195 0.735633 72.8426 0.67978 71.999C0.571359 70.2901 1.70485 68.1409 3.21616 67.1918C3.97182 66.7204 4.6782 66.6398 5.21044 66.8817L5.28601 66.9158V66.9096Z" fill="#FF7E31"/>
<path id="Vector_67" opacity="0.4" d="M5.28601 66.9096L18.6283 73.9994L20.5437 74.8957L35.7817 81.2443L36.0281 81.3498C36.5604 81.601 36.9152 82.1809 36.9744 83.0338C37.0861 84.7427 35.9526 86.8951 34.438 87.841C33.6823 88.3155 32.9759 88.3962 32.447 88.1512L17.6624 80.3976L15.7535 79.5013L1.626 73.6769H1.60628C1.08718 73.4195 0.735633 72.8426 0.67978 71.999C0.571359 70.2901 1.70485 68.1409 3.21616 67.1918C3.97182 66.7204 4.6782 66.6398 5.21044 66.8817L5.28601 66.9158V66.9096Z" fill="#FBFCFE"/>
<path id="Vector_68" opacity="0.3" d="M36.4158 81.6258C36.3036 81.5128 36.1712 81.4194 36.0248 81.3497L35.7784 81.2443L20.5404 74.8957L18.6249 73.9994L5.28593 66.9096L5.21037 66.8755C4.68141 66.6242 3.97175 66.7049 3.21609 67.1856C2.10297 67.963 1.29419 69.0668 0.91626 70.3242L31.09 84.5039C31.09 84.5039 33.3866 81.3528 36.4158 81.6258Z" fill="#FF7E31"/>
<path id="Vector_69" d="M36.9742 83.0335C36.9183 82.1806 36.5602 81.5976 36.028 81.3464C35.4957 81.0951 34.7894 81.1789 34.0337 81.6565C32.5224 82.6024 31.3856 84.7579 31.4973 86.4637C31.5565 87.3166 31.9113 87.8996 32.4435 88.1477C32.9758 88.3958 33.6822 88.3183 34.4378 87.8376C35.9491 86.8948 37.0728 84.7424 36.9742 83.0335Z" fill="#FF7E31"/>
<path id="Vector_70" d="M5.04937 66.7915L5.28921 66.9032L18.6315 73.993L20.5469 74.8893L35.7849 81.2379C33.3471 80.3571 31.0867 83.2569 31.0867 83.2569L0.104736 68.7051C0.104736 68.7051 2.52284 65.6037 5.04937 66.7915Z" fill="#FF7E31"/>
<path id="Vector_71" opacity="0.6" d="M5.04937 66.7915L5.28921 66.9032L18.6315 73.993L20.5469 74.8893L35.7849 81.2379C33.3471 80.3571 31.0867 83.2569 31.0867 83.2569L0.104736 68.7051C0.104736 68.7051 2.52284 65.6037 5.04937 66.7915Z" fill="#FBFCFE"/>
<path id="Vector_72" opacity="0.25" d="M36.9742 83.0335C36.9183 82.1806 36.5602 81.5976 36.028 81.3464C35.4957 81.0951 34.7894 81.1789 34.0337 81.6565C32.5224 82.6024 31.3856 84.7579 31.4973 86.4637C31.5565 87.3166 31.9113 87.8996 32.4435 88.1477C32.9758 88.3958 33.6822 88.3183 34.4378 87.8376C35.9491 86.8948 37.0728 84.7424 36.9742 83.0335Z" fill="#FBFCFE"/>
<path id="Vector_73" opacity="0.5" d="M33.7348 85.5489C33.9746 87.3788 36.0642 86.2033 36.9085 84.0385C36.9707 83.706 36.9927 83.3678 36.9742 83.0306C36.9184 82.1777 36.5603 81.5946 36.028 81.3434C35.4958 81.0922 34.7894 81.1759 34.0338 81.6536C32.9639 82.3944 32.1748 83.4404 31.7832 84.6371L33.7348 85.5489Z" fill="#FF7E31"/>
<path id="Vector_74" d="M34.1915 86.3828L31.6223 85.1733C31.6624 84.991 31.7162 84.8117 31.7833 84.6367L33.7349 85.5516C33.7434 85.713 33.7885 85.8708 33.8673 86.0142C33.9461 86.1576 34.0567 86.2833 34.1915 86.3828Z" fill="#FF7E31"/>
<path id="Vector_75" opacity="0.1" d="M34.1915 86.3828L31.6223 85.1733C31.6624 84.991 31.7162 84.8117 31.7833 84.6367L33.7349 85.5516C33.7434 85.713 33.7885 85.8708 33.8673 86.0142C33.9461 86.1576 34.0567 86.2833 34.1915 86.3828Z" fill="#1D3149"/>
<path id="Vector_76" d="M15.9276 79.5752C15.6812 82.1152 14.2849 84.4227 12.2314 86.5844C13.0273 86.4402 13.7888 86.1607 14.4787 85.7594C14.5692 86.384 14.5692 87.0173 14.4787 87.642C16.335 85.471 17.6525 83.179 18.1584 80.6576L17.6525 80.3878L15.9276 79.5752Z" fill="#FF7E31"/>
<path id="Vector_77" opacity="0.2" d="M15.7336 80.7134L16.6043 80.8251L17.9185 81.6376C18.0105 81.3275 18.0926 80.9894 18.1583 80.6576L17.6524 80.3878L15.9275 79.5752C15.888 79.958 15.8232 80.3382 15.7336 80.7134Z" fill="#1D3149"/>
<path id="Vector_78" d="M18.6281 73.9989C18.201 73.8035 17.6425 73.8718 17.0281 74.2501C16.3882 74.6995 15.8696 75.2851 15.5145 75.9592C15.1594 76.6334 14.9778 77.3771 14.9846 78.13C15.0273 78.8061 15.3131 79.2713 15.7238 79.4791H15.7435L17.6524 80.3785C17.222 80.1769 16.9361 79.7055 16.8901 79.017C16.8833 78.2638 17.0651 77.5197 17.4208 76.8454C17.7765 76.1712 18.296 75.5858 18.937 75.1371C19.5448 74.7526 20.1165 74.6874 20.5469 74.889L18.6413 73.9927L18.6281 73.9989Z" fill="#FF7E31"/>
<path id="Vector_79" opacity="0.15" d="M17.659 76.452C17.9027 76.0699 18.2049 75.724 18.5559 75.4254L16.6503 74.5291C16.2993 74.8277 15.9971 75.1736 15.7534 75.5557L17.659 76.452ZM17.0315 74.25L18.937 75.1463C19.1254 75.0251 19.3312 74.93 19.5481 74.8641L17.6426 73.9678C17.4257 74.0339 17.2199 74.129 17.0315 74.25Z" fill="#FBFCFE"/>
<path id="Vector_80" opacity="0.1" d="M15.0864 77.085C14.9999 77.427 14.9656 77.7789 14.9846 78.1301C15.0273 78.8062 15.3131 79.2715 15.7238 79.4792H15.7435L17.6524 80.3787C17.222 80.1771 16.9361 79.7057 16.8901 79.0171C16.8712 78.6659 16.9055 78.314 16.992 77.972L15.0864 77.085Z" fill="#1D3149"/>
</g>
<g id="freepik--diploma--inject-651_2">
<path id="Vector_81" d="M64.8845 90.955L75.6904 98.296L77.2576 99.245L89.7752 106.118L89.9789 106.233C90.4126 106.496 90.659 107.03 90.636 107.783C90.5475 108.59 90.2586 109.366 89.7927 110.048C89.3269 110.729 88.6973 111.298 87.9551 111.706C87.252 112.048 86.6409 112.054 86.2006 111.79L74.2087 103.727L72.6514 102.778L61.0504 96.46H61.0339C60.6101 96.1901 60.3768 95.6567 60.4031 94.9248C60.494 94.1185 60.7838 93.3436 61.2494 92.6622C61.715 91.9809 62.3434 91.4121 63.0841 91.0015C63.7872 90.6634 64.3983 90.6572 64.8418 90.9209L64.9009 90.9581L64.8845 90.955Z" fill="#FF7E31"/>
<path id="Vector_82" opacity="0.4" d="M64.8845 90.955L75.6904 98.296L77.2576 99.245L89.7752 106.118L89.9789 106.233C90.4126 106.496 90.659 107.03 90.636 107.783C90.5475 108.59 90.2586 109.366 89.7927 110.048C89.3269 110.729 88.6973 111.298 87.9551 111.706C87.252 112.048 86.6409 112.054 86.2006 111.79L74.2087 103.727L72.6514 102.778L61.0504 96.46H61.0339C60.6101 96.1901 60.3768 95.6567 60.4031 94.9248C60.494 94.1185 60.7838 93.3436 61.2494 92.6622C61.715 91.9809 62.3434 91.4121 63.0841 91.0015C63.7872 90.6634 64.3983 90.6572 64.8418 90.9209L64.9009 90.9581L64.8845 90.955Z" fill="#FBFCFE"/>
<path id="Vector_83" opacity="0.3" d="M90.2977 106.506C90.2123 106.398 90.1078 106.306 89.9888 106.233L89.7851 106.118L77.2675 99.2452L75.7003 98.2962L64.8944 90.9551L64.8353 90.9179C64.4016 90.6543 63.7806 90.6605 63.0808 90.9986C62.0427 91.5705 61.2341 92.4505 60.781 93.5014L85.422 108.5C85.422 108.5 87.6956 105.994 90.2977 106.506Z" fill="#FF7E31"/>
<path id="Vector_84" d="M90.6261 107.774C90.6655 107.029 90.4158 106.493 89.969 106.223C89.5222 105.953 88.9144 105.965 88.2113 106.307C87.4691 106.715 86.8395 107.284 86.3736 107.965C85.9078 108.647 85.6189 109.423 85.5303 110.23C85.4942 110.971 85.7406 111.508 86.1874 111.781C86.6343 112.053 87.2388 112.038 87.9419 111.7C88.6848 111.291 89.315 110.722 89.7814 110.04C90.2478 109.358 90.5372 108.581 90.6261 107.774Z" fill="#FF7E31"/>
<path id="Vector_85" d="M64.6939 90.8217L64.8877 90.9395L75.6936 98.2805L77.2608 99.2296L89.7785 106.102C87.7612 105.119 85.5074 107.42 85.5074 107.42L60.2092 92.0188C60.2092 92.0188 62.6306 89.5811 64.6939 90.8217Z" fill="#FF7E31"/>
<path id="Vector_86" opacity="0.6" d="M64.6939 90.8217L64.8877 90.9395L75.6936 98.2805L77.2608 99.2296L89.7785 106.102C87.7612 105.119 85.5074 107.42 85.5074 107.42L60.2092 92.0188C60.2092 92.0188 62.6306 89.5811 64.6939 90.8217Z" fill="#FBFCFE"/>
<path id="Vector_87" opacity="0.25" d="M90.6261 107.774C90.6655 107.029 90.4158 106.493 89.969 106.223C89.5222 105.953 88.9144 105.965 88.2113 106.307C87.4691 106.715 86.8395 107.284 86.3736 107.965C85.9078 108.647 85.6189 109.423 85.5303 110.23C85.4942 110.971 85.7406 111.508 86.1874 111.781C86.6343 112.053 87.2388 112.038 87.9419 111.7C88.6848 111.291 89.315 110.722 89.7814 110.04C90.2478 109.358 90.5372 108.581 90.6261 107.774Z" fill="#FBFCFE"/>
<path id="Vector_88" opacity="0.5" d="M87.5673 109.653C87.587 111.256 89.5123 110.431 90.4618 108.639C90.5511 108.357 90.6051 108.067 90.6228 107.774C90.6622 107.029 90.4125 106.493 89.9657 106.223C89.5189 105.953 88.9111 105.965 88.208 106.307C87.2093 106.85 86.4216 107.682 85.9607 108.679L87.5673 109.653Z" fill="#FF7E31"/>
<path id="Vector_89" d="M87.8762 110.413L85.78 109.135C85.8324 108.981 85.8972 108.831 85.9739 108.686L87.5673 109.653C87.5584 109.793 87.5813 109.934 87.6345 110.065C87.6878 110.196 87.7702 110.315 87.8762 110.413Z" fill="#FF7E31"/>
<path id="Vector_90" opacity="0.1" d="M87.8762 110.413L85.78 109.135C85.8324 108.981 85.8972 108.831 85.9739 108.686L87.5673 109.653C87.5584 109.793 87.5813 109.934 87.6345 110.065C87.6878 110.196 87.7702 110.315 87.8762 110.413Z" fill="#1D3149"/>
<path id="Vector_91" d="M72.7859 102.871C72.3161 105.042 70.8836 106.903 68.8762 108.59C69.5791 108.538 70.266 108.366 70.9034 108.081C70.9174 108.629 70.8533 109.175 70.7128 109.707C72.5362 108.013 73.9096 106.143 74.6061 104.009L74.1954 103.727L72.7859 102.871Z" fill="#FF7E31"/>
<path id="Vector_92" opacity="0.2" d="M72.5034 103.847L73.2426 104.024L74.2973 104.846C74.4123 104.573 74.5141 104.3 74.6061 104.021L74.1954 103.739L72.786 102.883C72.7154 103.21 72.621 103.532 72.5034 103.847Z" fill="#1D3149"/>
<path id="Vector_93" d="M75.6905 98.2962C75.3422 98.0884 74.8461 98.0946 74.2843 98.3675C73.6849 98.6973 73.1765 99.156 72.8003 99.7062C72.4241 100.256 72.1907 100.883 72.1192 101.534C72.0896 102.123 72.2834 102.551 72.6218 102.775H72.6383L74.1956 103.724C73.844 103.51 73.6436 103.079 73.6765 102.483C73.7475 101.831 73.9807 101.204 74.3569 100.653C74.7331 100.103 75.2418 99.6435 75.8416 99.3134C76.4067 99.0405 76.9061 99.0343 77.2576 99.2483L75.7003 98.3024L75.6905 98.2962Z" fill="#FF7E31"/>
<path id="Vector_94" opacity="0.15" d="M74.603 100.327C74.8526 100.019 75.1493 99.7468 75.4835 99.5206L73.9262 98.5747C73.5913 98.8001 73.2944 99.0719 73.0457 99.3811L74.603 100.327ZM74.2744 98.3669L75.8416 99.319C76.0165 99.2327 76.2034 99.17 76.3968 99.133L74.856 98.1777C74.6567 98.2142 74.4641 98.278 74.2843 98.3669H74.2744Z" fill="#FBFCFE"/>
<path id="Vector_95" opacity="0.1" d="M72.3163 100.641C72.2062 100.928 72.1398 101.229 72.1192 101.534C72.0896 102.123 72.2834 102.551 72.6218 102.774H72.6383L74.1956 103.723C73.844 103.509 73.6436 103.078 73.6765 102.483C73.6944 102.177 73.7597 101.875 73.8703 101.587L72.3163 100.641Z" fill="#1D3149"/>
</g>
</g>
<g id="freepik--graduation-hat-3--inject-651">
<g id="freepik--graduation-hat--inject-651">
<g id="Vector_96">
<path d="M125.475 119.429C124.417 121.169 122.147 122.264 118.904 122.304C112.363 122.385 104.346 118.149 100.998 112.842C99.3554 110.234 99.1451 107.855 100.131 106.1C100.147 106.072 100.16 106.041 100.177 106.013L106.212 95.834C105.164 97.5987 105.355 100.018 107.027 102.657C110.375 107.967 118.391 112.203 124.936 112.119C128.222 112.076 130.488 110.966 131.537 109.201L125.508 119.367C125.498 119.402 125.485 119.414 125.475 119.429Z" fill="white"/>
<path d="M125.475 119.429C124.417 121.169 122.147 122.264 118.904 122.304C112.363 122.385 104.346 118.149 100.998 112.842C99.3554 110.234 99.1451 107.855 100.131 106.1C100.147 106.072 100.16 106.041 100.177 106.013L106.212 95.834C105.164 97.5987 105.355 100.018 107.027 102.657C110.375 107.967 118.391 112.203 124.936 112.119C128.222 112.076 130.488 110.966 131.537 109.201L125.508 119.367C125.498 119.402 125.485 119.414 125.475 119.429Z" fill="#1D3149" fill-opacity="0.8"/>
</g>
<path id="Vector_97" d="M127.683 115.711C126.622 117.451 124.351 118.546 121.112 118.586C114.567 118.667 106.551 114.431 103.203 109.124C101.56 106.516 101.35 104.137 102.339 102.382C102.351 102.352 102.365 102.323 102.381 102.295L103.019 101.222C101.971 102.986 102.161 105.405 103.834 108.06C107.181 113.367 115.198 117.603 121.743 117.52C125.028 117.479 127.295 116.366 128.343 114.601L127.712 115.665L127.683 115.711Z" fill="#FF7E31"/>
<path id="Vector_98" opacity="0.2" d="M106.432 109.233C103.758 108.033 101.665 110.709 102.779 115.126C102.111 114.42 101.515 113.657 100.998 112.846C99.3554 110.238 99.1451 107.859 100.131 106.104C100.147 106.076 100.16 106.045 100.177 106.017L106.212 95.8379C105.164 97.6026 105.355 100.022 107.027 102.661C110.375 107.971 118.391 112.207 124.936 112.123C117.031 112.775 110.01 110.833 106.432 109.233Z" fill="#1D3149"/>
<g id="Vector_99">
<path d="M131.538 109.221C133.798 105.41 129.961 99.3246 122.967 95.629C115.974 91.9334 108.472 92.0271 106.212 95.8384C103.952 99.6496 107.789 105.735 114.782 109.431C121.776 113.126 129.277 113.033 131.538 109.221Z" fill="white"/>
<path d="M131.538 109.221C133.798 105.41 129.961 99.3246 122.967 95.629C115.974 91.9334 108.472 92.0271 106.212 95.8384C103.952 99.6496 107.789 105.735 114.782 109.431C121.776 113.126 129.277 113.033 131.538 109.221Z" fill="#1D3149" fill-opacity="0.9"/>
</g>
<g id="Vector_100">
<path d="M140 113.822L125.656 91.0889L97.6273 91.4331L96.6909 93.0086L111.032 115.751L139.067 115.398L140 113.822Z" fill="white"/>
<path d="M140 113.822L125.656 91.0889L97.6273 91.4331L96.6909 93.0086L111.032 115.751L139.067 115.398L140 113.822Z" fill="#1D3149" fill-opacity="0.8"/>
</g>
<path id="Vector_101" opacity="0.2" d="M111.032 115.751L111.965 114.176L140 113.822L139.067 115.398L111.032 115.751Z" fill="#FBFCFE"/>
<path id="Vector_102" opacity="0.2" d="M111.965 114.176L139.422 114.129L139.067 115.398L140 113.822L111.965 114.176Z" fill="#FBFCFE"/>
<g id="Vector_103">
<path d="M125.656 91.0889L97.6272 91.4331L111.965 114.176L140 113.822L125.656 91.0889Z" fill="white"/>
<path d="M125.656 91.0889L97.6272 91.4331L111.965 114.176L140 113.822L125.656 91.0889Z" fill="#1D3149" fill-opacity="0.9"/>
</g>
<path id="Vector_104" d="M127.502 78.5997C127.502 78.3578 127.121 78.0849 126.957 78.364C126.482 79.2569 126.061 80.1743 125.695 81.1118C125.286 82.0224 124.813 82.9062 124.279 83.7573C123.264 85.3794 121.979 86.7316 120.616 88.0993C119.252 89.467 118.089 90.8906 117.406 92.6801C116.801 94.2574 116.562 95.9392 116.706 97.6113C116.792 98.5887 117.001 99.5529 117.33 100.483C117.645 101.479 118.215 102.385 118.989 103.123C119.177 103.281 119.518 103.262 119.449 102.949C119.333 102.557 119.185 102.174 119.006 101.804C118.848 101.401 118.697 100.989 118.553 100.579C118.264 99.7566 118.083 98.9036 118.014 98.0393C117.875 96.4307 118.093 94.8125 118.654 93.288C119.301 91.6835 120.31 90.2314 121.611 89.0328C123.031 87.6403 124.388 86.2416 125.445 84.5823C126.016 83.6965 126.497 82.762 126.881 81.7911C127.083 81.2848 127.25 80.7668 127.381 80.2404C127.504 79.7018 127.545 79.1493 127.502 78.5997Z" fill="#FF7E31"/>
<path id="Vector_105" d="M122.735 66.4268C123.747 68.3612 124.596 70.3678 125.275 72.4281C126.612 76.4599 125.889 78.2928 127.075 78.3921C128.156 78.4789 129.556 75.0798 130.048 71.1193C130.334 69.0295 130.052 66.9055 129.227 64.9475C129.188 64.8575 129.115 64.7841 129.022 64.7407C128.93 64.6974 128.824 64.6871 128.724 64.7118C128.645 64.7311 128.574 64.776 128.526 64.8388C128.477 64.9016 128.453 64.9784 128.458 65.056C128.32 64.7459 128.228 64.5164 127.87 64.5722C127.815 64.5839 127.764 64.6062 127.718 64.6378C127.673 64.6693 127.635 64.7093 127.607 64.7554C127.579 64.8014 127.561 64.8525 127.555 64.9053C127.549 64.9581 127.554 65.0115 127.571 65.0622C127.877 66.1384 128.511 68.7653 128.107 70.8681C128.005 68.266 126.99 65.8159 126.438 64.628C126.397 64.5392 126.324 64.4671 126.232 64.425C126.139 64.3829 126.034 64.3735 125.935 64.3985C125.877 64.4136 125.822 64.4402 125.775 64.4766C125.729 64.513 125.691 64.5584 125.664 64.6097C125.637 64.661 125.622 64.7171 125.62 64.7743C125.618 64.8315 125.629 64.8884 125.652 64.9413C126.178 66.1322 127.624 69.2832 127.354 73.1259C127.187 69.7609 125.754 66.6656 125.255 65.7042C125.209 65.593 125.118 65.5033 125.003 65.4541C124.887 65.4048 124.756 65.4 124.637 65.4406C124.578 65.4655 124.524 65.5022 124.481 65.5482C124.438 65.5941 124.405 65.6483 124.386 65.707C124.367 65.7658 124.361 65.8278 124.369 65.8888C124.377 65.9498 124.399 66.0085 124.434 66.0609C124.91 66.9913 126.076 69.6368 126.277 71.9815C126.208 71.7923 124.634 68.0613 123.586 66.0516C123.543 65.966 123.469 65.8977 123.378 65.859C123.286 65.8203 123.183 65.8138 123.087 65.8407L123.011 65.8593C122.95 65.8743 122.893 65.9021 122.844 65.9405C122.796 65.9789 122.757 66.0269 122.73 66.0813C122.704 66.1356 122.691 66.1948 122.691 66.2545C122.692 66.3143 122.707 66.3732 122.735 66.4268ZM128.675 73.6252C129.004 71.7923 129.506 68.7064 128.675 65.8438C129.884 69.3298 129.273 71.5566 128.675 73.6252Z" fill="#FF7E31"/>
<path id="Vector_106" d="M126.073 79.0742C126.244 79.2942 126.481 79.4614 126.753 79.5545C127.024 79.6476 127.319 79.6625 127.6 79.5973C127.881 79.5321 128.135 79.3898 128.33 79.1883C128.525 78.9869 128.653 78.7353 128.696 78.4655C128.74 78.1956 128.698 77.9196 128.576 77.6723C128.453 77.425 128.256 77.2176 128.008 77.0763C127.761 76.935 127.474 76.8661 127.186 76.8783C126.897 76.8906 126.618 76.9835 126.385 77.1452C126.23 77.2522 126.099 77.3872 125.999 77.5422C125.9 77.6972 125.834 77.8693 125.805 78.0485C125.776 78.2277 125.784 78.4106 125.83 78.5866C125.876 78.7627 125.959 78.9284 126.073 79.0742Z" fill="#FF7E31"/>
<path id="Vector_107" opacity="0.2" d="M126.073 79.0742C126.244 79.2942 126.481 79.4614 126.753 79.5545C127.024 79.6476 127.319 79.6625 127.6 79.5973C127.881 79.5321 128.135 79.3898 128.33 79.1883C128.525 78.9869 128.653 78.7353 128.696 78.4655C128.74 78.1956 128.698 77.9196 128.576 77.6723C128.453 77.425 128.256 77.2176 128.008 77.0763C127.761 76.935 127.474 76.8661 127.186 76.8783C126.897 76.8906 126.618 76.9835 126.385 77.1452C126.23 77.2522 126.099 77.3872 125.999 77.5422C125.9 77.6972 125.834 77.8693 125.805 78.0485C125.776 78.2277 125.784 78.4106 125.83 78.5866C125.876 78.7627 125.959 78.9284 126.073 79.0742Z" fill="#1D3149"/>
<g id="Vector_108">
<path d="M117.294 101.653C117.385 101.527 117.51 101.426 117.656 101.361C117.802 101.296 117.964 101.27 118.125 101.284C118.575 101.301 119.015 101.418 119.409 101.625C119.802 101.833 120.138 102.125 120.389 102.478C120.485 102.6 120.546 102.745 120.564 102.896C120.581 103.048 120.556 103.201 120.491 103.34L120.195 103.849C120.103 103.975 119.977 104.075 119.831 104.14C119.684 104.205 119.522 104.232 119.361 104.218C118.911 104.2 118.472 104.083 118.079 103.876C117.687 103.668 117.351 103.376 117.1 103.024C117.003 102.901 116.942 102.756 116.925 102.604C116.907 102.452 116.932 102.298 116.998 102.159L117.294 101.653Z" fill="white"/>
<path d="M117.294 101.653C117.385 101.527 117.51 101.426 117.656 101.361C117.802 101.296 117.964 101.27 118.125 101.284C118.575 101.301 119.015 101.418 119.409 101.625C119.802 101.833 120.138 102.125 120.389 102.478C120.485 102.6 120.546 102.745 120.564 102.896C120.581 103.048 120.556 103.201 120.491 103.34L120.195 103.849C120.103 103.975 119.977 104.075 119.831 104.14C119.684 104.205 119.522 104.232 119.361 104.218C118.911 104.2 118.472 104.083 118.079 103.876C117.687 103.668 117.351 103.376 117.1 103.024C117.003 102.901 116.942 102.756 116.925 102.604C116.907 102.452 116.932 102.298 116.998 102.159L117.294 101.653Z" fill="#1D3149" fill-opacity="0.9"/>
</g>
<g id="Vector_109">
<path d="M119.656 103.709C120.484 103.709 120.81 103.148 120.389 102.468C120.138 102.115 119.802 101.823 119.409 101.615C119.015 101.408 118.576 101.291 118.125 101.274C117.301 101.274 116.972 101.836 117.396 102.515C117.647 102.868 117.982 103.16 118.375 103.367C118.768 103.575 119.207 103.692 119.656 103.709Z" fill="white"/>
<path d="M119.656 103.709C120.484 103.709 120.81 103.148 120.389 102.468C120.138 102.115 119.802 101.823 119.409 101.615C119.015 101.408 118.576 101.291 118.125 101.274C117.301 101.274 116.972 101.836 117.396 102.515C117.647 102.868 117.982 103.16 118.375 103.367C118.768 103.575 119.207 103.692 119.656 103.709Z" fill="#1D3149" fill-opacity="0.8"/>
</g>
</g>
</g>
<g id="freepik--graduation-hat-2--inject-651">
<g id="freepik--graduation-hat--inject-651_2">
<g id="Vector_110">
<path d="M24.6773 125.557C25.3015 127.477 27.2531 129.022 30.4038 129.744C36.7645 131.202 45.5794 128.758 50.0969 124.289C52.3146 122.096 53.0801 119.82 52.5348 117.9C52.5348 117.869 52.5348 117.835 52.5118 117.807L49.0324 106.639C49.637 108.58 48.878 110.897 46.6209 113.133C42.1034 117.602 33.2885 120.043 26.9311 118.585C23.7508 117.856 21.7861 116.29 21.1848 114.349L24.6576 125.532C24.6646 125.54 24.6711 125.549 24.6773 125.557Z" fill="white"/>
<path d="M24.6773 125.557C25.3015 127.477 27.2531 129.022 30.4038 129.744C36.7645 131.202 45.5794 128.758 50.0969 124.289C52.3146 122.096 53.0801 119.82 52.5348 117.9C52.5348 117.869 52.5348 117.835 52.5118 117.807L49.0324 106.639C49.637 108.58 48.878 110.897 46.6209 113.133C42.1034 117.602 33.2885 120.043 26.9311 118.585C23.7508 117.856 21.7861 116.29 21.1848 114.349L24.6576 125.532C24.6646 125.54 24.6711 125.549 24.6773 125.557Z" fill="#1D3149" fill-opacity="0.8"/>
</g>
<path id="Vector_111" d="M23.4091 121.479C24.03 123.395 25.9816 124.94 29.1323 125.663C35.493 127.12 44.3079 124.679 48.8254 120.21C51.0431 118.015 51.8087 115.738 51.2633 113.818C51.2633 113.787 51.2633 113.756 51.2403 113.725L50.8723 112.531C51.4768 114.473 50.7212 116.789 48.4608 119.026C43.9465 123.498 35.1283 125.939 28.7709 124.481C25.5906 123.749 23.6292 122.186 23.0247 120.244L23.3893 121.414C23.3937 121.436 23.4003 121.458 23.4091 121.479Z" fill="#FF7E31"/>
<path id="Vector_112" opacity="0.2" d="M45.6518 119.637C48.5397 119.016 49.9492 122.081 47.8235 126.15C48.6411 125.598 49.4023 124.975 50.097 124.289C52.3147 122.096 53.0802 119.82 52.5348 117.9C52.5348 117.869 52.5348 117.835 52.5118 117.807L49.0325 106.639C49.637 108.58 48.8781 110.897 46.621 113.133C42.1034 117.602 33.2885 120.043 26.9312 118.585C34.4812 120.856 41.8012 120.443 45.6518 119.637Z" fill="#1D3149"/>
<g id="Vector_113">
<path d="M37.4656 118.068C45.1562 115.939 50.3348 110.814 49.0323 106.623C47.7297 102.432 40.4394 100.761 32.7488 102.891C25.0582 105.021 19.8796 110.145 21.1822 114.336C22.4847 118.527 29.775 120.198 37.4656 118.068Z" fill="white"/>
<path d="M37.4656 118.068C45.1562 115.939 50.3348 110.814 49.0323 106.623C47.7297 102.432 40.4394 100.761 32.7488 102.891C25.0582 105.021 19.8796 110.145 21.1822 114.336C22.4847 118.527 29.775 120.198 37.4656 118.068Z" fill="#1D3149" fill-opacity="0.9"/>
</g>
<g id="Vector_114">
<path d="M11.8442 117.044L31.1989 97.9023L58.442 104.139L58.9809 105.87L39.6294 125.021L12.3831 118.775L11.8442 117.044Z" fill="white"/>
<path d="M11.8442 117.044L31.1989 97.9023L58.442 104.139L58.9809 105.87L39.6294 125.021L12.3831 118.775L11.8442 117.044Z" fill="#1D3149" fill-opacity="0.8"/>
</g>
<path id="Vector_115" opacity="0.2" d="M39.6295 125.021L39.0906 123.29L11.8442 117.044L12.3831 118.775L39.6295 125.021Z" fill="#FBFCFE"/>
<path id="Vector_116" opacity="0.2" d="M39.0906 123.29L12.3371 117.466L12.3831 118.775L11.8442 117.044L39.0906 123.29Z" fill="#FBFCFE"/>
<g id="Vector_117">
<path d="M31.1989 97.9023L58.442 104.139L39.0906 123.29L11.8442 117.044L31.1989 97.9023Z" fill="white"/>
<path d="M31.1989 97.9023L58.442 104.139L39.0906 123.29L11.8442 117.044L31.1989 97.9023Z" fill="#1D3149" fill-opacity="0.9"/>
</g>
<path id="Vector_118" d="M18.2805 127.05C18.4182 126.585 18.5871 126.129 18.7865 125.685C18.9668 125.194 19.1096 124.691 19.2136 124.181C19.3785 123.142 19.4565 122.093 19.4469 121.042C19.5151 119.237 19.9888 117.467 20.8366 115.847C21.6324 114.327 22.7717 112.989 24.1744 111.928C25.577 110.868 27.2089 110.111 28.955 109.71C29.9721 109.486 31.0162 109.391 32.0598 109.428C32.5574 109.44 33.0531 109.492 33.5416 109.583C34.0508 109.679 34.6553 109.759 35.0792 110.066C35.3157 110.237 35.1054 110.715 34.8295 110.718C34.3515 110.691 33.8755 110.639 33.4036 110.563C32.9502 110.516 32.4968 110.488 32.0401 110.482C31.1876 110.475 30.337 110.557 29.5037 110.727C27.855 111.045 26.3135 111.738 25.0125 112.746C23.7521 113.754 22.7258 114.997 21.9977 116.397C21.2695 117.797 20.8553 119.323 20.7808 120.881C20.6658 123.052 20.5804 125.533 18.9311 127.211C18.7438 127.419 18.182 127.468 18.2805 127.05Z" fill="#FF7E31"/>
<path id="Vector_119" d="M8.16119 135.568L8.21048 135.621C8.27829 135.691 8.3702 135.737 8.46998 135.749C8.56977 135.762 8.67101 135.741 8.75586 135.689C10.7534 134.489 14.1736 132.095 14.3412 131.968C12.8627 133.866 10.3953 135.553 9.47538 136.102C9.41919 136.13 9.36987 136.17 9.33057 136.217C9.29127 136.264 9.26283 136.319 9.24708 136.377C9.23132 136.436 9.22858 136.496 9.23904 136.556C9.2495 136.615 9.27292 136.672 9.30782 136.722C9.38626 136.812 9.49765 136.87 9.61957 136.885C9.74148 136.9 9.86488 136.87 9.96492 136.803C10.9243 136.232 13.8615 134.303 15.8788 131.53C13.983 134.942 10.9933 136.905 9.88606 137.659C9.8372 137.693 9.79648 137.736 9.76662 137.785C9.73675 137.835 9.71841 137.89 9.71282 137.947C9.70723 138.004 9.71451 138.061 9.73418 138.115C9.75385 138.169 9.78547 138.219 9.82693 138.261C9.89697 138.331 9.99161 138.376 10.0935 138.386C10.1955 138.396 10.2979 138.371 10.3822 138.316C11.5124 137.575 13.7366 135.993 15.2677 133.829C14.443 135.817 12.4454 137.739 11.5879 138.506C11.5466 138.542 11.5137 138.586 11.4912 138.635C11.4687 138.683 11.4571 138.736 11.4571 138.789C11.4571 138.843 11.4687 138.895 11.4912 138.944C11.5137 138.993 11.5466 139.037 11.5879 139.073C11.8606 139.296 12.0643 139.148 12.3567 138.949C12.3096 139.013 12.2874 139.09 12.294 139.168C12.3006 139.245 12.3355 139.318 12.3929 139.374C12.4639 139.444 12.5596 139.488 12.6623 139.497C12.765 139.507 12.8676 139.48 12.9514 139.424C14.7395 138.162 16.1594 136.493 17.078 134.573C18.8554 130.954 19.5486 127.365 18.5794 126.906C17.5149 126.407 17.1108 128.327 13.7366 131.099C12.0139 132.516 10.1772 133.805 8.24333 134.954C8.19021 134.986 8.14516 135.028 8.11142 135.078C8.07769 135.128 8.05612 135.184 8.04826 135.243C8.0404 135.302 8.04646 135.362 8.06599 135.418C8.08552 135.474 8.11803 135.526 8.16119 135.568ZM12.9744 138.385C15.2742 136.362 16.5654 133.484 17.3047 131.763C16.664 133.819 15.951 136.018 12.9744 138.385Z" fill="#FF7E31"/>
<path id="Vector_120" d="M18.1128 125.834C18.3808 125.731 18.6749 125.706 18.958 125.761C19.2411 125.816 19.5006 125.949 19.7035 126.144C19.9064 126.338 20.0438 126.585 20.0982 126.853C20.1526 127.121 20.1216 127.398 20.0091 127.65C19.8966 127.901 19.7076 128.115 19.4662 128.265C19.2247 128.415 18.9415 128.494 18.6524 128.493C18.3633 128.491 18.0813 128.408 17.842 128.255C17.6026 128.102 17.4168 127.885 17.3079 127.632C17.2351 127.464 17.1982 127.285 17.1992 127.103C17.2003 126.922 17.2394 126.742 17.3142 126.575C17.389 126.408 17.4981 126.256 17.6351 126.129C17.7722 126.002 17.9345 125.901 18.1128 125.834Z" fill="#FF7E31"/>
<path id="Vector_121" opacity="0.2" d="M18.1128 125.834C18.3808 125.731 18.6749 125.706 18.958 125.761C19.2411 125.816 19.5006 125.949 19.7035 126.144C19.9064 126.338 20.0438 126.585 20.0982 126.853C20.1526 127.121 20.1216 127.398 20.0091 127.65C19.8966 127.901 19.7076 128.115 19.4662 128.265C19.2247 128.415 18.9415 128.494 18.6524 128.493C18.3633 128.491 18.0813 128.408 17.842 128.255C17.6026 128.102 17.4168 127.885 17.3079 127.632C17.2351 127.464 17.1982 127.285 17.1992 127.103C17.2003 126.922 17.2394 126.742 17.3142 126.575C17.389 126.408 17.4981 126.256 17.6351 126.129C17.7722 126.002 17.9345 125.901 18.1128 125.834Z" fill="#1D3149"/>
<g id="Vector_122">
<path d="M36.8565 109.961C36.7971 109.818 36.6984 109.694 36.5708 109.599C36.4431 109.505 36.2911 109.444 36.1304 109.424C35.6877 109.347 35.2319 109.369 34.7999 109.488C34.3679 109.608 33.9717 109.822 33.6433 110.113C33.52 110.212 33.427 110.34 33.3738 110.485C33.3207 110.629 33.3094 110.785 33.3411 110.935C33.3673 111.024 33.479 111.384 33.5086 111.474C33.5686 111.616 33.6674 111.741 33.795 111.835C33.9225 111.929 34.0742 111.99 34.2347 112.011C34.6774 112.088 35.1332 112.066 35.5652 111.946C35.9973 111.827 36.3934 111.613 36.7218 111.322C36.8443 111.222 36.9368 111.094 36.9898 110.95C37.0429 110.805 37.0547 110.65 37.0241 110.5C36.9978 110.41 36.8861 110.051 36.8565 109.961Z" fill="white"/>
<path d="M36.8565 109.961C36.7971 109.818 36.6984 109.694 36.5708 109.599C36.4431 109.505 36.2911 109.444 36.1304 109.424C35.6877 109.347 35.2319 109.369 34.7999 109.488C34.3679 109.608 33.9717 109.822 33.6433 110.113C33.52 110.212 33.427 110.34 33.3738 110.485C33.3207 110.629 33.3094 110.785 33.3411 110.935C33.3673 111.024 33.479 111.384 33.5086 111.474C33.5686 111.616 33.6674 111.741 33.795 111.835C33.9225 111.929 34.0742 111.99 34.2347 112.011C34.6774 112.088 35.1332 112.066 35.5652 111.946C35.9973 111.827 36.3934 111.613 36.7218 111.322C36.8443 111.222 36.9368 111.094 36.9898 110.95C37.0429 110.805 37.0547 110.65 37.0241 110.5C36.9978 110.41 36.8861 110.051 36.8565 109.961Z" fill="#1D3149" fill-opacity="0.9"/>
</g>
<g id="Vector_123">
<path d="M34.0639 111.468C33.2622 111.285 33.0782 110.677 33.6433 110.113C33.9717 109.822 34.3679 109.608 34.7999 109.488C35.2319 109.369 35.6877 109.347 36.1304 109.424C36.9321 109.607 37.1161 110.215 36.551 110.779C36.2229 111.071 35.8267 111.285 35.3946 111.404C34.9625 111.524 34.5066 111.546 34.0639 111.468Z" fill="white"/>
<path d="M34.0639 111.468C33.2622 111.285 33.0782 110.677 33.6433 110.113C33.9717 109.822 34.3679 109.608 34.7999 109.488C35.2319 109.369 35.6877 109.347 36.1304 109.424C36.9321 109.607 37.1161 110.215 36.551 110.779C36.2229 111.071 35.8267 111.285 35.3946 111.404C34.9625 111.524 34.5066 111.546 34.0639 111.468Z" fill="#1D3149" fill-opacity="0.8"/>
</g>
</g>
</g>
<g id="freepik--graduation-hat-1--inject-651">
<g id="freepik--graduation-hat--inject-651_3">
<path id="Vector_124" d="M13.5227 23.3913H13.4078C13.2571 23.4072 13.1169 23.4717 13.0109 23.574C12.9049 23.6763 12.8397 23.8101 12.8262 23.9526C12.5502 27.3301 12.4977 33.4274 12.5273 33.7314C11.4332 30.3198 11.5088 25.9561 11.6369 24.4271C11.6528 24.3356 11.6479 24.2419 11.6226 24.1523C11.5972 24.0627 11.552 23.9792 11.4898 23.9074C11.4277 23.8355 11.3501 23.777 11.2622 23.7356C11.1742 23.6942 11.078 23.6709 10.9798 23.6673C10.7886 23.6737 10.6074 23.7495 10.4739 23.8789C10.3405 24.0084 10.2651 24.1814 10.2636 24.362C10.1256 25.9778 9.93502 31.0983 11.6796 35.9272C9.02823 30.6548 9.2155 25.4475 9.25164 23.4936C9.25197 23.4075 9.23331 23.3223 9.19685 23.2434C9.16039 23.1645 9.10693 23.0936 9.03987 23.0353C8.97281 22.9769 8.89362 22.9324 8.80733 22.9045C8.72105 22.8766 8.62956 22.866 8.53869 22.8733H8.52226C8.36804 22.8908 8.22534 22.9592 8.11948 23.0665C8.01363 23.1738 7.95146 23.313 7.94402 23.4595C7.86846 25.4258 7.87831 29.4142 9.25821 33.1359C7.4512 30.3849 6.79739 26.3469 6.59369 24.666C6.58563 24.5873 6.56081 24.5111 6.52073 24.4417C6.48066 24.3724 6.42615 24.3114 6.36048 24.2624C6.29481 24.2135 6.21933 24.1776 6.13859 24.1568C6.05784 24.1361 5.97349 24.131 5.8906 24.1418C5.35507 24.2535 5.36164 24.6194 5.3485 25.1312C5.30858 25.0201 5.2292 24.9254 5.12382 24.8633C5.01844 24.8011 4.89353 24.7752 4.77026 24.79C4.61974 24.813 4.48236 24.8846 4.38166 24.9927C4.28096 25.1008 4.22321 25.2385 4.2183 25.3824C4.21172 28.5768 5.06407 31.7205 6.69554 34.5191C9.72803 39.8442 13.71 43.904 15.1819 43.2031C16.7918 42.437 14.6924 40.2288 14.1963 33.843C13.9419 30.5821 13.9562 27.3076 14.239 24.0488C14.2451 23.9593 14.2306 23.8697 14.1965 23.786C14.1623 23.7024 14.1094 23.6267 14.0414 23.5642C13.9733 23.5017 13.8917 23.4539 13.8021 23.4241C13.7126 23.3942 13.6173 23.383 13.5227 23.3913ZM5.53249 26.3438C6.03516 30.8222 8.56498 34.913 10.1026 37.3228C8.03273 34.7207 5.86103 31.8953 5.53249 26.3438Z" fill="#FF7E31"/>
<path id="Vector_125" d="M70.7918 53.7231C69.5255 51.7432 67.9366 49.9639 66.0837 48.4507C64.4284 47.0467 62.6123 45.8213 60.6692 44.7973C56.8204 42.7604 52.4851 41.6834 48.0727 41.668C45.8554 41.6692 43.6507 41.9828 41.5314 42.5984C39.551 43.2283 37.6425 44.0439 35.8344 45.033C34.1654 45.9014 32.516 46.8163 30.778 47.5575C30.3279 47.7529 30.1538 47.8212 29.7563 47.9638C29.2864 48.1344 28.8133 48.274 28.3336 48.4135C27.5208 48.6423 26.6832 48.7837 25.8367 48.8353C23.9024 48.9429 21.9774 48.5115 20.3007 47.5948C19.3518 47.0916 18.4826 46.4652 17.7183 45.7339C17.2974 45.351 16.9106 44.9361 16.5618 44.4934C16.4304 44.3166 16.299 44.1398 16.1577 43.9692C16.0334 43.8151 15.89 43.6756 15.7306 43.5536C15.4677 43.3782 15.2672 43.1316 15.1556 42.8465C14.9684 42.5178 14.3441 42.5364 14.446 42.9861C14.5478 43.4358 14.4821 43.9165 14.6168 44.3538C14.7277 44.6617 14.8766 44.9563 15.0604 45.2315C15.3269 45.6864 15.6243 46.1246 15.9507 46.5434C16.6125 47.3496 17.3988 48.0574 18.2834 48.643C19.8263 49.6974 21.6182 50.3808 23.504 50.6341C27.4893 51.1397 31.1756 49.62 34.599 47.8584C36.2845 46.9931 37.9436 46.0813 39.6784 45.2997C41.5305 44.4599 43.5085 43.894 45.5429 43.6219C49.8759 43.0968 54.2777 43.7421 58.238 45.4827C60.4116 46.4192 62.4605 47.5945 64.3424 48.9842C66.4812 50.5628 68.4065 52.3957 70.3318 54.1946C70.6768 54.5109 70.9757 54.0178 70.7918 53.7231Z" fill="#FF7E31"/>
<path id="Vector_126" d="M16.9792 43.6399C16.8684 44.0403 16.6344 44.4008 16.3067 44.6757C15.9791 44.9507 15.5724 45.1278 15.1381 45.1846C14.7039 45.2415 14.2615 45.1756 13.8669 44.9952C13.4723 44.8149 13.1432 44.5281 12.9212 44.1713C12.6992 43.8145 12.5941 43.4035 12.6194 42.9903C12.6447 42.5772 12.7991 42.1803 13.0632 41.85C13.3273 41.5197 13.6892 41.2706 14.1031 41.1343C14.5171 40.9981 14.9646 40.9807 15.389 41.0843C15.6713 41.1533 15.9365 41.2742 16.1693 41.44C16.4021 41.6058 16.5979 41.8134 16.7456 42.0508C16.8933 42.2881 16.99 42.5507 17.0301 42.8234C17.0701 43.0961 17.0528 43.3735 16.9792 43.6399Z" fill="#FF7E31"/>
<path id="Vector_127" opacity="0.2" d="M16.9792 43.6399C16.8684 44.0403 16.6344 44.4008 16.3067 44.6757C15.9791 44.9507 15.5724 45.1278 15.1381 45.1846C14.7039 45.2415 14.2615 45.1756 13.8669 44.9952C13.4723 44.8149 13.1432 44.5281 12.9212 44.1713C12.6992 43.8145 12.5941 43.4035 12.6194 42.9903C12.6447 42.5772 12.7991 42.1803 13.0632 41.85C13.3273 41.5197 13.6892 41.2706 14.1031 41.1343C14.5171 40.9981 14.9646 40.9807 15.389 41.0843C15.6713 41.1533 15.9365 41.2742 16.1693 41.44C16.4021 41.6058 16.5979 41.8134 16.7456 42.0508C16.8933 42.2881 16.99 42.5507 17.0301 42.8234C17.0701 43.0961 17.0528 43.3735 16.9792 43.6399Z" fill="#1D3149"/>
<g id="Vector_128">
<path d="M103.341 42.617L72.0731 72.1021L29.3817 61.303L28.603 58.5551L59.8708 29.0576L102.562 39.8691L103.341 42.617Z" fill="white"/>
<path d="M103.341 42.617L72.0731 72.1021L29.3817 61.303L28.603 58.5551L59.8708 29.0576L102.562 39.8691L103.341 42.617Z" fill="#1D3149" fill-opacity="0.8"/>
</g>
<path id="Vector_129" opacity="0.2" d="M59.8708 29.0576L60.6495 31.8055L103.341 42.617L102.562 39.8691L59.8708 29.0576Z" fill="#FBFCFE"/>
<path id="Vector_130" opacity="0.2" d="M60.6494 31.8057L102.579 41.938L102.562 39.8693L103.341 42.6172L60.6494 31.8057Z" fill="#FBFCFE"/>
<g id="Vector_131">
<path d="M72.0731 72.1023L29.385 61.3031L60.6495 31.8057L103.341 42.6172L72.0731 72.1023Z" fill="white"/>
<path d="M72.0731 72.1023L29.385 61.3031L60.6495 31.8057L103.341 42.6172L72.0731 72.1023Z" fill="#1D3149" fill-opacity="0.9"/>
</g>
<g id="Vector_132">
<path d="M88.9375 48.0724C88.034 45.0268 85.0179 42.524 80.0667 41.2741C70.1019 38.7496 56.1091 42.2852 48.812 49.1703C45.2276 52.5508 43.9331 56.1082 44.715 59.1568C44.715 59.2034 44.7348 59.2561 44.7479 59.3026L48.9599 74.1583C48.0859 71.0786 49.3706 67.4531 53.0207 64.0074C60.3177 57.1223 74.3073 53.5898 84.2721 56.1144C89.2562 57.3766 92.2854 59.9136 93.1593 62.9933L88.9835 48.1561L88.9375 48.0724Z" fill="white"/>
<path d="M88.9375 48.0724C88.034 45.0268 85.0179 42.524 80.0667 41.2741C70.1019 38.7496 56.1091 42.2852 48.812 49.1703C45.2276 52.5508 43.9331 56.1082 44.715 59.1568C44.715 59.2034 44.7348 59.2561 44.7479 59.3026L48.9599 74.1583C48.0859 71.0786 49.3706 67.4531 53.0207 64.0074C60.3177 57.1223 74.3073 53.5898 84.2721 56.1144C89.2562 57.3766 92.2854 59.9136 93.1593 62.9933L88.9835 48.1561L88.9375 48.0724Z" fill="#1D3149" fill-opacity="0.8"/>
</g>
<path id="Vector_133" d="M90.7772 54.5636C89.8737 51.518 86.8576 49.0152 81.9064 47.7653C71.9416 45.2408 57.9488 48.7764 50.6518 55.6615C47.0706 59.0421 45.7729 62.5994 46.5581 65.645C46.5581 65.6946 46.5745 65.7442 46.5877 65.7938L47.1199 67.6547C46.246 64.575 47.5306 60.9494 51.1775 57.5069C58.4745 50.6217 72.4673 47.0861 82.4321 49.6107C87.4162 50.8729 90.4454 53.4099 91.3029 56.4896L90.7772 54.6288V54.5636Z" fill="#FF7E31"/>
<path id="Vector_134" opacity="0.2" d="M55.6458 56.6759C51.0692 57.5287 48.9698 52.6719 52.4819 46.3389C51.173 47.1741 49.9489 48.122 48.8252 49.1704C45.2408 52.551 43.9463 56.1083 44.7282 59.157C44.7282 59.2035 44.7479 59.2562 44.7611 59.3027L48.9731 74.1585C48.0991 71.0788 49.3837 67.4532 53.0339 64.0076C60.3309 57.1225 74.3205 53.59 84.2853 56.1145C72.474 52.2439 61.747 55.5407 55.6458 56.6759Z" fill="#1D3149"/>
<g id="Vector_135">
<path d="M74.4843 80.6261C86.6893 77.5433 95.0551 69.6519 93.1696 63.0002C91.2842 56.3485 79.8615 53.4554 67.6564 56.5382C55.4513 59.621 47.0856 67.5124 48.9711 74.1641C50.8565 80.8158 62.2792 83.7089 74.4843 80.6261Z" fill="white"/>
<path d="M74.4843 80.6261C86.6893 77.5433 95.0551 69.6519 93.1696 63.0002C91.2842 56.3485 79.8615 53.4554 67.6564 56.5382C55.4513 59.621 47.0856 67.5124 48.9711 74.1641C50.8565 80.8158 62.2792 83.7089 74.4843 80.6261Z" fill="#1D3149" fill-opacity="0.9"/>
</g>
<g id="Vector_136">
<path d="M74.2515 79.8048C85.9886 76.8402 94.0791 69.4121 92.3222 63.2138C90.5652 57.0155 79.6262 54.3941 67.8891 57.3587C56.152 60.3233 48.0615 67.7513 49.8184 73.9496C51.5754 80.1479 62.5145 82.7694 74.2515 79.8048Z" fill="white"/>
<path d="M74.2515 79.8048C85.9886 76.8402 94.0791 69.4121 92.3222 63.2138C90.5652 57.0155 79.6262 54.3941 67.8891 57.3587C56.152 60.3233 48.0615 67.7513 49.8184 73.9496C51.5754 80.1479 62.5145 82.7694 74.2515 79.8048Z" fill="#1D3149" fill-opacity="0.8"/>
</g>
<path id="Vector_137" opacity="0.2" d="M69.5991 76.7322C62.3711 74.4123 61.3854 64.3855 67.3518 59.2402L57.295 61.7834C56.0417 62.5663 54.8661 63.4548 53.7828 64.4382C46.7257 70.917 48.7397 78.0224 58.2839 80.3081C67.4635 82.507 80.2637 79.4428 87.5049 73.4385C82.0445 76.1429 74.5273 78.3077 69.5991 76.7322Z" fill="#1D3149"/>
<path id="Vector_138" d="M53.7959 64.4384C53.4411 64.7486 53.1159 65.0928 52.8103 65.4216C53.2506 65.558 53.7072 65.6883 54.1869 65.803C63.7148 68.0888 77.1852 64.6896 84.2424 58.2108C84.5972 57.9007 84.9225 57.5564 85.228 57.2308C84.7845 57.0912 84.3311 56.9609 83.8481 56.8462C74.3104 54.5604 60.8531 57.9472 53.7959 64.4384Z" fill="#1D3149"/>
</g>
</g>
</g>
</svg>
