<svg width="45" height="45" viewBox="0 0 45 45" fill="none" xmlns="http://www.w3.org/2000/svg">
<g id="star">
<path id="Vector" d="M25 7.2271L25.0007 7.22851L28.2246 13.6763C28.2251 13.6774 28.2256 13.6784 28.2261 13.6794C28.5136 14.2647 29.0102 14.7904 29.5483 15.1874C30.0878 15.5855 30.7369 15.9043 31.3782 16.0112L31.3786 16.0113L37.2265 16.9829C38.9672 17.273 39.7845 18.0031 40.0114 18.7093C40.2379 19.4137 40 20.4791 38.7463 21.7243L38.7445 21.7261L34.1978 26.2728C33.7004 26.7702 33.3494 27.4575 33.1523 28.1459C32.9552 28.8345 32.8899 29.6022 33.043 30.2855L33.043 30.2855L33.0441 30.2904L34.3457 35.9182C34.8444 38.0824 34.4249 39.1991 33.8578 39.6125C33.2894 40.0268 32.0933 40.0854 30.1779 38.954L24.6972 35.7095C24.0582 35.3309 23.2619 35.1648 22.5067 35.1648C21.7509 35.1648 20.9528 35.3312 20.3077 35.7065L20.3077 35.7065L20.3028 35.7094L14.8211 38.9544L14.8204 38.9548C12.9179 40.0839 11.7208 40.023 11.149 39.6058C10.5777 39.189 10.1561 38.0699 10.6539 35.9188L10.6539 35.9188L11.9555 30.2904L11.9556 30.2904L11.9567 30.2855C12.1098 29.6022 12.0445 28.8345 11.8473 28.1459C11.6503 27.4575 11.2992 26.7702 10.8018 26.2728L6.25516 21.7261C5.00983 20.4808 4.77002 19.4141 4.99554 18.7079C5.22083 18.0024 6.03324 17.2729 7.77313 16.9829L13.6211 16.0113L13.6237 16.0108C14.2567 15.9034 14.9009 15.5837 15.4367 15.1864C15.9716 14.7898 16.4679 14.2644 16.7553 13.6793L19.98 7.22991C19.9801 7.2297 19.9802 7.22949 19.9803 7.22928C20.806 5.58676 21.761 5.01685 22.4975 5.01685C23.2328 5.01685 24.1833 5.58525 25 7.2271Z" fill="#E8E8E8" stroke="#E8E8E8" stroke-width="1.5" stroke-linecap="round" stroke-linejoin="round"/>
<g id="face">
<path id="Vector_2" d="M17.732 21.5771C18.4197 21.5771 18.9772 21.0196 18.9772 20.3319C18.9772 19.6442 18.4197 19.0867 17.732 19.0867C17.0443 19.0867 16.4868 19.6442 16.4868 20.3319C16.4868 21.0196 17.0443 21.5771 17.732 21.5771Z" fill="#C6C6C6"/>
<path id="Vector_3" d="M27.1964 21.5771C27.8841 21.5771 28.4416 21.0196 28.4416 20.3319C28.4416 19.6442 27.8841 19.0867 27.1964 19.0867C26.5087 19.0867 25.9512 19.6442 25.9512 20.3319C25.9512 21.0196 26.5087 21.5771 27.1964 21.5771Z" fill="#C6C6C6"/>
<path id="Vector_4" d="M17.2456 28.3774C17.4666 28.3205 17.6873 28.2767 17.9082 28.2344C18.1292 28.1921 18.3499 28.1577 18.5708 28.1245C19.0125 28.059 19.4542 28.0102 19.8958 27.9684C20.7794 27.8881 21.6627 27.8509 22.5463 27.8446C23.4299 27.8383 24.3132 27.8665 25.1965 27.9365C25.4175 27.9538 25.6382 27.9737 25.8592 27.9981C26.0801 28.0225 26.3008 28.0485 26.5218 28.0779C26.7428 28.1073 26.9635 28.1418 27.1844 28.1813C27.4054 28.2208 27.6261 28.2631 27.847 28.3182C28.0011 28.3568 28.1379 28.4457 28.2357 28.5709C28.3334 28.6961 28.3865 28.8503 28.3865 29.0092C28.3865 29.168 28.3334 29.3223 28.2357 29.4475C28.1379 29.5726 28.0011 29.6616 27.847 29.7001C27.6261 29.7552 27.4051 29.7982 27.1844 29.837C26.9637 29.8758 26.7428 29.9092 26.5218 29.9404C26.3008 29.9716 26.0801 29.9973 25.8592 30.0202C25.6382 30.0431 25.4175 30.0645 25.1965 30.0821C24.3132 30.1518 23.4296 30.1793 22.5463 30.1737C21.663 30.1682 20.7794 30.1304 19.8958 30.0502C19.4542 30.0084 19.0125 29.9593 18.5708 29.8941C18.3499 29.8607 18.1289 29.8257 17.9082 29.7839C17.6875 29.7421 17.4666 29.6981 17.2456 29.641C17.1056 29.6048 16.9815 29.5231 16.893 29.4087C16.8044 29.2943 16.7563 29.1538 16.7563 29.0092C16.7563 28.8645 16.8044 28.724 16.893 28.6096C16.9815 28.4953 17.1056 28.4136 17.2456 28.3774Z" fill="#C6C6C6"/>
</g>
</g>
</svg>
