<svg width="35" height="35" viewBox="0 0 35 35" fill="none" xmlns="http://www.w3.org/2000/svg">
<g clip-path="url(#clip0_319_2679)">
<mask id="mask0_319_2679" style="mask-type:luminance" maskUnits="userSpaceOnUse" x="0" y="0" width="35" height="35">
<path d="M0 0H35V35H0V0Z" fill="white"/>
</mask>
<g mask="url(#mask0_319_2679)">
<mask id="mask1_319_2679" style="mask-type:luminance" maskUnits="userSpaceOnUse" x="0" y="0" width="35" height="35">
<path d="M0 0H35V35H0V0Z" fill="white"/>
</mask>
<g mask="url(#mask1_319_2679)">
<path d="M29.5295 12.1629L18.9581 4.78642C18.0833 4.17406 16.9168 4.17406 16.0419 4.78642L5.47074 12.163C4.78544 12.6296 4.3772 13.4184 4.3772 14.2495V28.0723C4.3772 29.4721 5.52912 30.624 6.92884 30.624H11.3031C13.5195 30.624 15.3129 28.8305 15.3129 26.6142V21.5108C15.3129 21.3067 15.4733 21.1463 15.6774 21.1463H19.3227C19.5269 21.1463 19.6872 21.3067 19.6872 21.5108V26.6142C19.6872 28.8306 21.4806 30.6241 23.697 30.6241H28.0713C29.4711 30.6241 30.623 29.4721 30.623 28.0723V14.2495C30.623 13.4184 30.2148 12.6296 29.5294 12.1629H29.5295ZM28.4358 28.0723C28.4358 28.2765 28.2754 28.4369 28.0712 28.4369H23.6969C22.6909 28.4369 21.8743 27.6203 21.8743 26.6142V21.5109C21.8743 20.1112 20.7224 18.9592 19.3226 18.9592H15.6774C14.2776 18.9592 13.1257 20.1112 13.1257 21.5109V26.6142C13.1257 27.6203 12.3092 28.4369 11.3031 28.4369H6.92877C6.72465 28.4369 6.56428 28.2765 6.56428 28.0723V14.2495C6.56428 14.1329 6.62259 14.0147 6.72465 13.9419L17.296 6.57842C17.4272 6.49092 17.5876 6.49092 17.7188 6.57842L28.29 13.9419C28.3921 14.0147 28.4504 14.1183 28.4504 14.2495V28.0723H28.4358L28.4358 28.0723Z" fill="#F0F0F0"/>
</g>
</g>
</g>
<defs>
<clipPath id="clip0_319_2679">
<rect width="35" height="35" fill="white"/>
</clipPath>
</defs>
</svg>
