<svg width="21" height="20" viewBox="0 0 21 20" fill="none" xmlns="http://www.w3.org/2000/svg">
<g id="ion:language">
<g id="Vector">
<path d="M19.1828 16.9375L15.6672 8.42188C15.6023 8.26462 15.4921 8.13017 15.3507 8.03556C15.2093 7.94096 15.043 7.89046 14.8729 7.89046C14.7027 7.89046 14.5364 7.94096 14.395 8.03556C14.2536 8.13017 14.1434 8.26462 14.0785 8.42188L10.5629 16.9375C10.5192 17.0419 10.4965 17.154 10.4962 17.2672C10.496 17.3804 10.518 17.4925 10.5612 17.5972C10.6044 17.7018 10.6679 17.7969 10.7479 17.877C10.828 17.957 10.923 18.0205 11.0277 18.0637C11.1323 18.1069 11.2445 18.129 11.3577 18.1287C11.4709 18.1284 11.5829 18.1058 11.6874 18.0621C11.7918 18.0184 11.8866 17.9545 11.9662 17.874C12.0459 17.7936 12.1089 17.6982 12.1516 17.5934L12.8676 15.8594H16.8781L17.5941 17.5934C17.659 17.7507 17.7692 17.8852 17.9107 17.9799C18.0521 18.0745 18.2185 18.125 18.3887 18.125C18.5299 18.1249 18.6689 18.09 18.7934 18.0234C18.918 17.9568 19.0241 17.8606 19.1026 17.7432C19.1811 17.6258 19.2294 17.4909 19.2433 17.3503C19.2573 17.2098 19.2363 17.068 19.1824 16.9375H19.1828ZM13.5773 14.1406L14.873 11.002L16.1688 14.1406H13.5773ZM10.9605 13.3953C11.0941 13.2109 11.1489 12.981 11.1131 12.7562C11.0773 12.5313 10.9537 12.3299 10.7695 12.1961C10.7617 12.1902 10.1836 11.7613 9.34414 10.8395C10.893 8.74258 11.7703 6.35703 12.1281 5.23438H13.3887C13.6166 5.23438 13.8352 5.14383 13.9963 4.98267C14.1575 4.82151 14.248 4.60292 14.248 4.375C14.248 4.14708 14.1575 3.92849 13.9963 3.76733C13.8352 3.60617 13.6166 3.51562 13.3887 3.51562H8.85742V2.73438C8.85742 2.50645 8.76688 2.28787 8.60572 2.12671C8.44455 1.96554 8.22597 1.875 7.99805 1.875C7.77013 1.875 7.55154 1.96554 7.39038 2.12671C7.22921 2.28787 7.13867 2.50645 7.13867 2.73438V3.51562H2.60742C2.3795 3.51562 2.16092 3.60617 1.99975 3.76733C1.83859 3.92849 1.74805 4.14708 1.74805 4.375C1.74805 4.60292 1.83859 4.82151 1.99975 4.98267C2.16092 5.14383 2.3795 5.23438 2.60742 5.23438H10.3125C9.94063 6.28711 9.25586 7.94922 8.21133 9.46719C6.98438 7.83906 6.52852 6.78555 6.525 6.77695C6.43518 6.56937 6.26714 6.40557 6.05733 6.32107C5.84752 6.23658 5.61286 6.23821 5.40424 6.3256C5.19563 6.413 5.02987 6.57911 4.94294 6.78792C4.856 6.99673 4.85489 7.23139 4.93984 7.44102C4.9625 7.49492 5.5082 8.77813 7.00469 10.7195C7.04063 10.766 7.07617 10.8113 7.11172 10.8566C5.57891 12.5891 4.075 13.6637 3.4457 14.0105C3.2456 14.1197 3.09705 14.3039 3.03273 14.5225C2.96841 14.7412 2.99359 14.9765 3.10273 15.1766C3.21188 15.3767 3.39604 15.5252 3.61471 15.5895C3.83338 15.6539 4.06865 15.6287 4.26875 15.5195C4.35312 15.4734 6.16719 14.4691 8.23867 12.1762C9.11836 13.1168 9.72305 13.5605 9.75937 13.5863C9.85078 13.6527 9.95438 13.7004 10.0642 13.7268C10.1741 13.7531 10.2881 13.7575 10.3996 13.7397C10.5112 13.7219 10.6182 13.6823 10.7144 13.6231C10.8107 13.564 10.8943 13.4864 10.9605 13.3949V13.3953Z" fill="white"/>
<path d="M19.1828 16.9375L15.6672 8.42188C15.6023 8.26462 15.4921 8.13017 15.3507 8.03556C15.2093 7.94096 15.043 7.89046 14.8729 7.89046C14.7027 7.89046 14.5364 7.94096 14.395 8.03556C14.2536 8.13017 14.1434 8.26462 14.0785 8.42188L10.5629 16.9375C10.5192 17.0419 10.4965 17.154 10.4962 17.2672C10.496 17.3804 10.518 17.4925 10.5612 17.5972C10.6044 17.7018 10.6679 17.7969 10.7479 17.877C10.828 17.957 10.923 18.0205 11.0277 18.0637C11.1323 18.1069 11.2445 18.129 11.3577 18.1287C11.4709 18.1284 11.5829 18.1058 11.6874 18.0621C11.7918 18.0184 11.8866 17.9545 11.9662 17.874C12.0459 17.7936 12.1089 17.6982 12.1516 17.5934L12.8676 15.8594H16.8781L17.5941 17.5934C17.659 17.7507 17.7692 17.8852 17.9107 17.9799C18.0521 18.0745 18.2185 18.125 18.3887 18.125C18.5299 18.1249 18.6689 18.09 18.7934 18.0234C18.918 17.9568 19.0241 17.8606 19.1026 17.7432C19.1811 17.6258 19.2294 17.4909 19.2433 17.3503C19.2573 17.2098 19.2363 17.068 19.1824 16.9375H19.1828ZM13.5773 14.1406L14.873 11.002L16.1688 14.1406H13.5773ZM10.9605 13.3953C11.0941 13.2109 11.1489 12.981 11.1131 12.7562C11.0773 12.5313 10.9537 12.3299 10.7695 12.1961C10.7617 12.1902 10.1836 11.7613 9.34414 10.8395C10.893 8.74258 11.7703 6.35703 12.1281 5.23438H13.3887C13.6166 5.23438 13.8352 5.14383 13.9963 4.98267C14.1575 4.82151 14.248 4.60292 14.248 4.375C14.248 4.14708 14.1575 3.92849 13.9963 3.76733C13.8352 3.60617 13.6166 3.51562 13.3887 3.51562H8.85742V2.73438C8.85742 2.50645 8.76688 2.28787 8.60572 2.12671C8.44455 1.96554 8.22597 1.875 7.99805 1.875C7.77013 1.875 7.55154 1.96554 7.39038 2.12671C7.22921 2.28787 7.13867 2.50645 7.13867 2.73438V3.51562H2.60742C2.3795 3.51562 2.16092 3.60617 1.99975 3.76733C1.83859 3.92849 1.74805 4.14708 1.74805 4.375C1.74805 4.60292 1.83859 4.82151 1.99975 4.98267C2.16092 5.14383 2.3795 5.23438 2.60742 5.23438H10.3125C9.94063 6.28711 9.25586 7.94922 8.21133 9.46719C6.98438 7.83906 6.52852 6.78555 6.525 6.77695C6.43518 6.56937 6.26714 6.40557 6.05733 6.32107C5.84752 6.23658 5.61286 6.23821 5.40424 6.3256C5.19563 6.413 5.02987 6.57911 4.94294 6.78792C4.856 6.99673 4.85489 7.23139 4.93984 7.44102C4.9625 7.49492 5.5082 8.77813 7.00469 10.7195C7.04063 10.766 7.07617 10.8113 7.11172 10.8566C5.57891 12.5891 4.075 13.6637 3.4457 14.0105C3.2456 14.1197 3.09705 14.3039 3.03273 14.5225C2.96841 14.7412 2.99359 14.9765 3.10273 15.1766C3.21188 15.3767 3.39604 15.5252 3.61471 15.5895C3.83338 15.6539 4.06865 15.6287 4.26875 15.5195C4.35312 15.4734 6.16719 14.4691 8.23867 12.1762C9.11836 13.1168 9.72305 13.5605 9.75937 13.5863C9.85078 13.6527 9.95438 13.7004 10.0642 13.7268C10.1741 13.7531 10.2881 13.7575 10.3996 13.7397C10.5112 13.7219 10.6182 13.6823 10.7144 13.6231C10.8107 13.564 10.8943 13.4864 10.9605 13.3949V13.3953Z" fill="#FF7E31" fill-opacity="0.8"/>
</g>
</g>
</svg>
