<svg width="33" height="32" viewBox="0 0 33 32" fill="none" xmlns="http://www.w3.org/2000/svg">
<path d="M27.625 3H5.625C5.09457 3 4.58586 3.21071 4.21079 3.58579C3.83571 3.96086 3.625 4.46957 3.625 5V27C3.625 27.5304 3.83571 28.0391 4.21079 28.4142C4.58586 28.7893 5.09457 29 5.625 29H27.625C28.1554 29 28.6641 28.7893 29.0392 28.4142C29.4143 28.0391 29.625 27.5304 29.625 27V5C29.625 4.46957 29.4143 3.96086 29.0392 3.58579C28.6641 3.21071 28.1554 3 27.625 3ZM12.625 22C12.625 22.2652 12.5196 22.5196 12.3321 22.7071C12.1446 22.8946 11.8902 23 11.625 23C11.3598 23 11.1054 22.8946 10.9179 22.7071C10.7304 22.5196 10.625 22.2652 10.625 22V14C10.625 13.7348 10.7304 13.4804 10.9179 13.2929C11.1054 13.1054 11.3598 13 11.625 13C11.8902 13 12.1446 13.1054 12.3321 13.2929C12.5196 13.4804 12.625 13.7348 12.625 14V22ZM11.625 12C11.3283 12 11.0383 11.912 10.7916 11.7472C10.545 11.5824 10.3527 11.3481 10.2392 11.074C10.1256 10.7999 10.0959 10.4983 10.1538 10.2074C10.2117 9.91639 10.3546 9.64912 10.5643 9.43934C10.7741 9.22956 11.0414 9.0867 11.3324 9.02882C11.6233 8.97094 11.9249 9.00065 12.199 9.11418C12.4731 9.22771 12.7074 9.41997 12.8722 9.66665C13.037 9.91332 13.125 10.2033 13.125 10.5C13.125 10.8978 12.967 11.2794 12.6857 11.5607C12.4044 11.842 12.0228 12 11.625 12ZM23.625 22C23.625 22.2652 23.5196 22.5196 23.3321 22.7071C23.1446 22.8946 22.8902 23 22.625 23C22.3598 23 22.1054 22.8946 21.9179 22.7071C21.7304 22.5196 21.625 22.2652 21.625 22V17.5C21.625 16.837 21.3616 16.2011 20.8928 15.7322C20.4239 15.2634 19.788 15 19.125 15C18.462 15 17.8261 15.2634 17.3572 15.7322C16.8884 16.2011 16.625 16.837 16.625 17.5V22C16.625 22.2652 16.5196 22.5196 16.3321 22.7071C16.1446 22.8946 15.8902 23 15.625 23C15.3598 23 15.1054 22.8946 14.9179 22.7071C14.7304 22.5196 14.625 22.2652 14.625 22V14C14.6262 13.7551 14.7173 13.5191 14.881 13.3369C15.0447 13.1546 15.2696 13.0388 15.513 13.0114C15.7564 12.9839 16.0014 13.0468 16.2015 13.188C16.4017 13.3292 16.543 13.539 16.5988 13.7775C17.2752 13.3186 18.0639 13.0526 18.8802 13.0081C19.6964 12.9637 20.5094 13.1424 21.2317 13.5251C21.954 13.9078 22.5585 14.48 22.9801 15.1803C23.4018 15.8806 23.6247 16.6825 23.625 17.5V22Z" fill="white"/>
<path d="M27.625 3H5.625C5.09457 3 4.58586 3.21071 4.21079 3.58579C3.83571 3.96086 3.625 4.46957 3.625 5V27C3.625 27.5304 3.83571 28.0391 4.21079 28.4142C4.58586 28.7893 5.09457 29 5.625 29H27.625C28.1554 29 28.6641 28.7893 29.0392 28.4142C29.4143 28.0391 29.625 27.5304 29.625 27V5C29.625 4.46957 29.4143 3.96086 29.0392 3.58579C28.6641 3.21071 28.1554 3 27.625 3ZM12.625 22C12.625 22.2652 12.5196 22.5196 12.3321 22.7071C12.1446 22.8946 11.8902 23 11.625 23C11.3598 23 11.1054 22.8946 10.9179 22.7071C10.7304 22.5196 10.625 22.2652 10.625 22V14C10.625 13.7348 10.7304 13.4804 10.9179 13.2929C11.1054 13.1054 11.3598 13 11.625 13C11.8902 13 12.1446 13.1054 12.3321 13.2929C12.5196 13.4804 12.625 13.7348 12.625 14V22ZM11.625 12C11.3283 12 11.0383 11.912 10.7916 11.7472C10.545 11.5824 10.3527 11.3481 10.2392 11.074C10.1256 10.7999 10.0959 10.4983 10.1538 10.2074C10.2117 9.91639 10.3546 9.64912 10.5643 9.43934C10.7741 9.22956 11.0414 9.0867 11.3324 9.02882C11.6233 8.97094 11.9249 9.00065 12.199 9.11418C12.4731 9.22771 12.7074 9.41997 12.8722 9.66665C13.037 9.91332 13.125 10.2033 13.125 10.5C13.125 10.8978 12.967 11.2794 12.6857 11.5607C12.4044 11.842 12.0228 12 11.625 12ZM23.625 22C23.625 22.2652 23.5196 22.5196 23.3321 22.7071C23.1446 22.8946 22.8902 23 22.625 23C22.3598 23 22.1054 22.8946 21.9179 22.7071C21.7304 22.5196 21.625 22.2652 21.625 22V17.5C21.625 16.837 21.3616 16.2011 20.8928 15.7322C20.4239 15.2634 19.788 15 19.125 15C18.462 15 17.8261 15.2634 17.3572 15.7322C16.8884 16.2011 16.625 16.837 16.625 17.5V22C16.625 22.2652 16.5196 22.5196 16.3321 22.7071C16.1446 22.8946 15.8902 23 15.625 23C15.3598 23 15.1054 22.8946 14.9179 22.7071C14.7304 22.5196 14.625 22.2652 14.625 22V14C14.6262 13.7551 14.7173 13.5191 14.881 13.3369C15.0447 13.1546 15.2696 13.0388 15.513 13.0114C15.7564 12.9839 16.0014 13.0468 16.2015 13.188C16.4017 13.3292 16.543 13.539 16.5988 13.7775C17.2752 13.3186 18.0639 13.0526 18.8802 13.0081C19.6964 12.9637 20.5094 13.1424 21.2317 13.5251C21.954 13.9078 22.5585 14.48 22.9801 15.1803C23.4018 15.8806 23.6247 16.6825 23.625 17.5V22Z" fill="#FF7E31" fill-opacity="0.8"/>
</svg>
