<svg width="17" height="18" viewBox="0 0 17 18" fill="none" xmlns="http://www.w3.org/2000/svg">
<path fill-rule="evenodd" clip-rule="evenodd" d="M7.51604 0.115258C7.92601 -0.0384193 8.37776 -0.0384193 8.78773 0.115258L15.1281 2.49289C15.4735 2.62236 15.7711 2.85416 15.9812 3.15732C16.1913 3.46048 16.3038 3.82055 16.3038 4.18939V9.04701C16.3038 10.5609 15.8823 12.0449 15.0864 13.3328C14.2905 14.6206 13.1517 15.6614 11.7976 16.3384L8.75965 17.8565C8.57095 17.9509 8.36287 18 8.15188 18C7.9409 18 7.73281 17.9509 7.54412 17.8565L4.50618 16.3375C3.1521 15.6605 2.0133 14.6197 1.21741 13.3319C0.421517 12.044 -3.22969e-05 10.56 3.53395e-07 9.0461V4.1903C-0.000230073 3.8213 0.112229 3.46103 0.322333 3.15769C0.532437 2.85435 0.830164 2.62241 1.17568 2.49289L7.51604 0.115258ZM9.05765 8.75354C9.40298 8.55414 9.67287 8.24637 9.82546 7.87795C9.97805 7.50954 10.0048 7.10107 9.90161 6.71589C9.7984 6.33071 9.57098 5.99035 9.25462 5.74759C8.93827 5.50483 8.55065 5.37324 8.15188 5.37323C7.75312 5.37324 7.3655 5.50483 7.04914 5.74759C6.73279 5.99035 6.50537 6.33071 6.40216 6.71589C6.29895 7.10107 6.32572 7.50954 6.47831 7.87795C6.6309 8.24637 6.90079 8.55414 7.24612 8.75354V11.7136C7.24612 11.9538 7.34155 12.1842 7.51141 12.3541C7.68127 12.5239 7.91166 12.6193 8.15188 12.6193C8.39211 12.6193 8.62249 12.5239 8.79236 12.3541C8.96222 12.1842 9.05765 11.9538 9.05765 11.7136V8.75354Z" fill="white"/>
<path fill-rule="evenodd" clip-rule="evenodd" d="M7.51604 0.115258C7.92601 -0.0384193 8.37776 -0.0384193 8.78773 0.115258L15.1281 2.49289C15.4735 2.62236 15.7711 2.85416 15.9812 3.15732C16.1913 3.46048 16.3038 3.82055 16.3038 4.18939V9.04701C16.3038 10.5609 15.8823 12.0449 15.0864 13.3328C14.2905 14.6206 13.1517 15.6614 11.7976 16.3384L8.75965 17.8565C8.57095 17.9509 8.36287 18 8.15188 18C7.9409 18 7.73281 17.9509 7.54412 17.8565L4.50618 16.3375C3.1521 15.6605 2.0133 14.6197 1.21741 13.3319C0.421517 12.044 -3.22969e-05 10.56 3.53395e-07 9.0461V4.1903C-0.000230073 3.8213 0.112229 3.46103 0.322333 3.15769C0.532437 2.85435 0.830164 2.62241 1.17568 2.49289L7.51604 0.115258ZM9.05765 8.75354C9.40298 8.55414 9.67287 8.24637 9.82546 7.87795C9.97805 7.50954 10.0048 7.10107 9.90161 6.71589C9.7984 6.33071 9.57098 5.99035 9.25462 5.74759C8.93827 5.50483 8.55065 5.37324 8.15188 5.37323C7.75312 5.37324 7.3655 5.50483 7.04914 5.74759C6.73279 5.99035 6.50537 6.33071 6.40216 6.71589C6.29895 7.10107 6.32572 7.50954 6.47831 7.87795C6.6309 8.24637 6.90079 8.55414 7.24612 8.75354V11.7136C7.24612 11.9538 7.34155 12.1842 7.51141 12.3541C7.68127 12.5239 7.91166 12.6193 8.15188 12.6193C8.39211 12.6193 8.62249 12.5239 8.79236 12.3541C8.96222 12.1842 9.05765 11.9538 9.05765 11.7136V8.75354Z" fill="#FF7E31" fill-opacity="0.8"/>
</svg>
