<svg width="31" height="31" viewBox="0 0 31 31" fill="none" xmlns="http://www.w3.org/2000/svg">
<g id="mdi:calendar-time">
<g id="Vector">
<path d="M19.25 16.75H21.125V20.275L24.175 22.0375L23.2375 23.6625L19.25 21.3625V16.75ZM24.25 10.5H6.75V24.25H12.5875C12.05 23.1125 11.75 21.8375 11.75 20.5C11.75 18.1794 12.6719 15.9538 14.3128 14.3128C15.9538 12.6719 18.1794 11.75 20.5 11.75C21.8375 11.75 23.1125 12.05 24.25 12.5875V10.5ZM6.75 26.75C6.08696 26.75 5.45107 26.4866 4.98223 26.0178C4.51339 25.5489 4.25 24.913 4.25 24.25V6.75C4.25 5.3625 5.3625 4.25 6.75 4.25H8V1.75H10.5V4.25H20.5V1.75H23V4.25H24.25C24.913 4.25 25.5489 4.51339 26.0178 4.98223C26.4866 5.45107 26.75 6.08696 26.75 6.75V14.375C28.3 15.95 29.25 18.1125 29.25 20.5C29.25 22.8206 28.3281 25.0462 26.6872 26.6872C25.0462 28.3281 22.8206 29.25 20.5 29.25C18.1125 29.25 15.95 28.3 14.375 26.75H6.75ZM20.5 14.4375C18.8921 14.4375 17.3501 15.0762 16.2132 16.2132C15.0762 17.3501 14.4375 18.8921 14.4375 20.5C14.4375 23.85 17.15 26.5625 20.5 26.5625C21.2961 26.5625 22.0845 26.4057 22.82 26.101C23.5556 25.7964 24.2239 25.3498 24.7868 24.7868C25.3498 24.2239 25.7964 23.5556 26.101 22.82C26.4057 22.0845 26.5625 21.2961 26.5625 20.5C26.5625 17.15 23.85 14.4375 20.5 14.4375Z" fill="white"/>
<path d="M19.25 16.75H21.125V20.275L24.175 22.0375L23.2375 23.6625L19.25 21.3625V16.75ZM24.25 10.5H6.75V24.25H12.5875C12.05 23.1125 11.75 21.8375 11.75 20.5C11.75 18.1794 12.6719 15.9538 14.3128 14.3128C15.9538 12.6719 18.1794 11.75 20.5 11.75C21.8375 11.75 23.1125 12.05 24.25 12.5875V10.5ZM6.75 26.75C6.08696 26.75 5.45107 26.4866 4.98223 26.0178C4.51339 25.5489 4.25 24.913 4.25 24.25V6.75C4.25 5.3625 5.3625 4.25 6.75 4.25H8V1.75H10.5V4.25H20.5V1.75H23V4.25H24.25C24.913 4.25 25.5489 4.51339 26.0178 4.98223C26.4866 5.45107 26.75 6.08696 26.75 6.75V14.375C28.3 15.95 29.25 18.1125 29.25 20.5C29.25 22.8206 28.3281 25.0462 26.6872 26.6872C25.0462 28.3281 22.8206 29.25 20.5 29.25C18.1125 29.25 15.95 28.3 14.375 26.75H6.75ZM20.5 14.4375C18.8921 14.4375 17.3501 15.0762 16.2132 16.2132C15.0762 17.3501 14.4375 18.8921 14.4375 20.5C14.4375 23.85 17.15 26.5625 20.5 26.5625C21.2961 26.5625 22.0845 26.4057 22.82 26.101C23.5556 25.7964 24.2239 25.3498 24.7868 24.7868C25.3498 24.2239 25.7964 23.5556 26.101 22.82C26.4057 22.0845 26.5625 21.2961 26.5625 20.5C26.5625 17.15 23.85 14.4375 20.5 14.4375Z" fill="#FF7E31" fill-opacity="0.8"/>
</g>
</g>
</svg>
