<svg width="16" height="16" viewBox="0 0 16 16" fill="none" xmlns="http://www.w3.org/2000/svg">
<g id="vuesax/bold/message">
<g id="message">
<path id="Vector" d="M11.3334 1.3335H4.66671C2.82671 1.3335 1.33337 2.82016 1.33337 4.6535V8.64016V9.30683C1.33337 11.1402 2.82671 12.6268 4.66671 12.6268H5.66671C5.84671 12.6268 6.08671 12.7468 6.20004 12.8935L7.20004 14.2202C7.64004 14.8068 8.36004 14.8068 8.80004 14.2202L9.80004 12.8935C9.92671 12.7268 10.1267 12.6268 10.3334 12.6268H11.3334C13.1734 12.6268 14.6667 11.1402 14.6667 9.30683V4.6535C14.6667 2.82016 13.1734 1.3335 11.3334 1.3335ZM5.33337 8.00016C4.96004 8.00016 4.66671 7.70016 4.66671 7.3335C4.66671 6.96683 4.96671 6.66683 5.33337 6.66683C5.70004 6.66683 6.00004 6.96683 6.00004 7.3335C6.00004 7.70016 5.70671 8.00016 5.33337 8.00016ZM8.00004 8.00016C7.62671 8.00016 7.33337 7.70016 7.33337 7.3335C7.33337 6.96683 7.63337 6.66683 8.00004 6.66683C8.36671 6.66683 8.66671 6.96683 8.66671 7.3335C8.66671 7.70016 8.37337 8.00016 8.00004 8.00016ZM10.6667 8.00016C10.2934 8.00016 10 7.70016 10 7.3335C10 6.96683 10.3 6.66683 10.6667 6.66683C11.0334 6.66683 11.3334 6.96683 11.3334 7.3335C11.3334 7.70016 11.04 8.00016 10.6667 8.00016Z" fill="#FBFCFE"/>
</g>
</g>
</svg>
