<svg width="33" height="32" viewBox="0 0 33 32" fill="none" xmlns="http://www.w3.org/2000/svg">
<path d="M11.875 18C11.4794 18 11.0928 17.8827 10.7639 17.6629C10.435 17.4432 10.1786 17.1308 10.0272 16.7654C9.87587 16.3999 9.83626 15.9978 9.91343 15.6098C9.9906 15.2219 10.1811 14.8655 10.4608 14.5858C10.7405 14.3061 11.0969 14.1156 11.4848 14.0384C11.8728 13.9613 12.2749 14.0009 12.6404 14.1522C13.0058 14.3036 13.3182 14.56 13.5379 14.8889C13.7577 15.2178 13.875 15.6044 13.875 16C13.875 16.5304 13.6643 17.0391 13.2892 17.4142C12.9141 17.7893 12.4054 18 11.875 18ZM29.875 15V26C29.8748 26.2717 29.8194 26.5405 29.7119 26.79C29.6044 27.0395 29.4473 27.2645 29.25 27.4513C29.2215 27.48 29.1915 27.5071 29.16 27.5325C28.8003 27.8351 28.3451 28.0007 27.875 28H11.875C11.3446 28 10.8359 27.7893 10.4608 27.4142C10.0857 27.0391 9.875 26.5304 9.875 26V24H5.875C5.34457 24 4.83586 23.7893 4.46079 23.4142C4.08571 23.0391 3.875 22.5304 3.875 22V10C3.875 9.46957 4.08571 8.96086 4.46079 8.58579C4.83586 8.21071 5.34457 8 5.875 8H12.875V6C12.875 5.46957 13.0857 4.96086 13.4608 4.58579C13.8359 4.21071 14.3446 4 14.875 4H24.875C25.4054 4 25.9141 4.21071 26.2892 4.58579C26.6643 4.96086 26.875 5.46957 26.875 6V13H27.875C28.33 13.0005 28.7711 13.1566 29.125 13.4425L29.135 13.4513L29.1525 13.465C29.1854 13.491 29.2163 13.5194 29.245 13.55C29.4434 13.7359 29.6017 13.9604 29.7101 14.2098C29.8184 14.4592 29.8745 14.7281 29.875 15ZM14.875 8H17.875C18.4054 8 18.9141 8.21071 19.2892 8.58579C19.6643 8.96086 19.875 9.46957 19.875 10V19.2663L24.875 15.655V6H14.875V8ZM11.875 20C12.6661 20 13.4395 19.7654 14.0973 19.3259C14.7551 18.8864 15.2678 18.2616 15.5705 17.5307C15.8733 16.7998 15.9525 15.9956 15.7981 15.2196C15.6438 14.4437 15.2628 13.731 14.7034 13.1716C14.144 12.6122 13.4313 12.2312 12.6554 12.0769C11.8794 11.9225 11.0752 12.0017 10.3443 12.3045C9.61336 12.6072 8.98865 13.1199 8.54912 13.7777C8.1096 14.4355 7.875 15.2089 7.875 16C7.875 17.0609 8.29643 18.0783 9.04657 18.8284C9.79672 19.5786 10.8141 20 11.875 20ZM25.7825 26L19.875 21.7337V22C19.875 22.5304 19.6643 23.0391 19.2892 23.4142C18.9141 23.7893 18.4054 24 17.875 24H11.875V26H25.7825ZM27.875 15.9563L21.5825 20.5L27.875 25.0438V15.9563Z" fill="white"/>
<path d="M11.875 18C11.4794 18 11.0928 17.8827 10.7639 17.6629C10.435 17.4432 10.1786 17.1308 10.0272 16.7654C9.87587 16.3999 9.83626 15.9978 9.91343 15.6098C9.9906 15.2219 10.1811 14.8655 10.4608 14.5858C10.7405 14.3061 11.0969 14.1156 11.4848 14.0384C11.8728 13.9613 12.2749 14.0009 12.6404 14.1522C13.0058 14.3036 13.3182 14.56 13.5379 14.8889C13.7577 15.2178 13.875 15.6044 13.875 16C13.875 16.5304 13.6643 17.0391 13.2892 17.4142C12.9141 17.7893 12.4054 18 11.875 18ZM29.875 15V26C29.8748 26.2717 29.8194 26.5405 29.7119 26.79C29.6044 27.0395 29.4473 27.2645 29.25 27.4513C29.2215 27.48 29.1915 27.5071 29.16 27.5325C28.8003 27.8351 28.3451 28.0007 27.875 28H11.875C11.3446 28 10.8359 27.7893 10.4608 27.4142C10.0857 27.0391 9.875 26.5304 9.875 26V24H5.875C5.34457 24 4.83586 23.7893 4.46079 23.4142C4.08571 23.0391 3.875 22.5304 3.875 22V10C3.875 9.46957 4.08571 8.96086 4.46079 8.58579C4.83586 8.21071 5.34457 8 5.875 8H12.875V6C12.875 5.46957 13.0857 4.96086 13.4608 4.58579C13.8359 4.21071 14.3446 4 14.875 4H24.875C25.4054 4 25.9141 4.21071 26.2892 4.58579C26.6643 4.96086 26.875 5.46957 26.875 6V13H27.875C28.33 13.0005 28.7711 13.1566 29.125 13.4425L29.135 13.4513L29.1525 13.465C29.1854 13.491 29.2163 13.5194 29.245 13.55C29.4434 13.7359 29.6017 13.9604 29.7101 14.2098C29.8184 14.4592 29.8745 14.7281 29.875 15ZM14.875 8H17.875C18.4054 8 18.9141 8.21071 19.2892 8.58579C19.6643 8.96086 19.875 9.46957 19.875 10V19.2663L24.875 15.655V6H14.875V8ZM11.875 20C12.6661 20 13.4395 19.7654 14.0973 19.3259C14.7551 18.8864 15.2678 18.2616 15.5705 17.5307C15.8733 16.7998 15.9525 15.9956 15.7981 15.2196C15.6438 14.4437 15.2628 13.731 14.7034 13.1716C14.144 12.6122 13.4313 12.2312 12.6554 12.0769C11.8794 11.9225 11.0752 12.0017 10.3443 12.3045C9.61336 12.6072 8.98865 13.1199 8.54912 13.7777C8.1096 14.4355 7.875 15.2089 7.875 16C7.875 17.0609 8.29643 18.0783 9.04657 18.8284C9.79672 19.5786 10.8141 20 11.875 20ZM25.7825 26L19.875 21.7337V22C19.875 22.5304 19.6643 23.0391 19.2892 23.4142C18.9141 23.7893 18.4054 24 17.875 24H11.875V26H25.7825ZM27.875 15.9563L21.5825 20.5L27.875 25.0438V15.9563Z" fill="#FF7E31" fill-opacity="0.8"/>
</svg>
