<svg width="20" height="20" viewBox="0 0 20 20" fill="none" xmlns="http://www.w3.org/2000/svg">
<g id="tdesign:mode-dark">
<g id="Vector">
<path d="M13.2033 2.78668L12.0133 3.43751L13.2033 4.08835L13.8542 5.27835L14.505 4.08835L15.695 3.43751L14.505 2.78668L13.8542 1.59668L13.2033 2.78668ZM8.67667 3.46501C7.58526 3.68646 6.56672 4.1778 5.71405 4.89414C4.86137 5.61049 4.20173 6.52904 3.79537 7.56589C3.389 8.60275 3.24885 9.72489 3.38772 10.8298C3.52658 11.9348 3.94004 12.9874 4.59034 13.8914C5.24063 14.7955 6.10704 15.5222 7.11046 16.0053C8.11387 16.4884 9.22232 16.7124 10.3346 16.6569C11.4468 16.6014 12.5275 16.2682 13.4778 15.6876C14.4282 15.107 15.2179 14.2977 15.775 13.3333C13.796 13.318 11.9033 12.521 10.5094 11.1161C9.11544 9.71127 8.33328 7.8124 8.33334 5.83335C8.33334 5.01668 8.4425 4.21918 8.67667 3.46501ZM1.66667 10C1.66667 5.39751 5.39751 1.66668 10 1.66668H11.445L10.7217 2.91668C10.2392 3.75001 10 4.74168 10 5.83335C9.99988 6.69469 10.1905 7.54538 10.5582 8.32431C10.9259 9.10323 11.4615 9.79106 12.1266 10.3384C12.7917 10.8857 13.5697 11.279 14.4049 11.4899C15.24 11.7008 16.1114 11.7242 16.9567 11.5583L18.3583 11.2858L17.9058 12.6408C16.8017 15.9475 13.6808 18.3333 10 18.3333C5.39751 18.3333 1.66667 14.6025 1.66667 10ZM17.0833 5.34668L17.845 6.73835L19.2367 7.50001L17.845 8.26168L17.0833 9.65335L16.3217 8.26168L14.93 7.50001L16.3217 6.73835L17.0833 5.34668Z" fill="white"/>
<path d="M13.2033 2.78668L12.0133 3.43751L13.2033 4.08835L13.8542 5.27835L14.505 4.08835L15.695 3.43751L14.505 2.78668L13.8542 1.59668L13.2033 2.78668ZM8.67667 3.46501C7.58526 3.68646 6.56672 4.1778 5.71405 4.89414C4.86137 5.61049 4.20173 6.52904 3.79537 7.56589C3.389 8.60275 3.24885 9.72489 3.38772 10.8298C3.52658 11.9348 3.94004 12.9874 4.59034 13.8914C5.24063 14.7955 6.10704 15.5222 7.11046 16.0053C8.11387 16.4884 9.22232 16.7124 10.3346 16.6569C11.4468 16.6014 12.5275 16.2682 13.4778 15.6876C14.4282 15.107 15.2179 14.2977 15.775 13.3333C13.796 13.318 11.9033 12.521 10.5094 11.1161C9.11544 9.71127 8.33328 7.8124 8.33334 5.83335C8.33334 5.01668 8.4425 4.21918 8.67667 3.46501ZM1.66667 10C1.66667 5.39751 5.39751 1.66668 10 1.66668H11.445L10.7217 2.91668C10.2392 3.75001 10 4.74168 10 5.83335C9.99988 6.69469 10.1905 7.54538 10.5582 8.32431C10.9259 9.10323 11.4615 9.79106 12.1266 10.3384C12.7917 10.8857 13.5697 11.279 14.4049 11.4899C15.24 11.7008 16.1114 11.7242 16.9567 11.5583L18.3583 11.2858L17.9058 12.6408C16.8017 15.9475 13.6808 18.3333 10 18.3333C5.39751 18.3333 1.66667 14.6025 1.66667 10ZM17.0833 5.34668L17.845 6.73835L19.2367 7.50001L17.845 8.26168L17.0833 9.65335L16.3217 8.26168L14.93 7.50001L16.3217 6.73835L17.0833 5.34668Z" fill="#FF7E31" fill-opacity="0.8"/>
</g>
</g>
</svg>
