<svg width="202" height="201" viewBox="0 0 202 201" fill="none" xmlns="http://www.w3.org/2000/svg">
<path d="M166.465 133.191H177.105V128.695H166.465V133.191Z" fill="#EBEBEB"/>
<path d="M172.404 138.86L177.768 138.748L180.412 138.703C181.292 138.683 182.168 138.703 183.044 138.679L182.863 138.86V134.364L183.064 134.565L177.744 134.541C175.972 134.541 174.196 134.492 172.424 134.472L172.532 134.364C172.532 135.099 172.5 135.839 172.48 136.586L172.404 138.86ZM172.404 138.86L172.332 136.654C172.311 135.907 172.283 135.147 172.279 134.384V134.243H172.392C174.164 134.219 175.94 134.179 177.712 134.175L183.032 134.151H183.233V134.352L183.209 138.848V139.029H183.032C182.136 139.029 181.236 139.029 180.34 139.009L177.664 138.965L172.404 138.86Z" fill="#EBEBEB"/>
<path d="M94.0332 94.6967L99.4015 94.5842L102.041 94.54C102.921 94.5199 103.797 94.54 104.673 94.5199L104.493 94.6967L104.472 90.2004L104.673 90.4013L99.3532 90.3772C97.5812 90.3772 95.8052 90.333 94.0332 90.3089L94.1417 90.2004C94.1417 90.9357 94.1095 91.675 94.0894 92.4264L94.0332 94.6967ZM94.0332 94.6967L93.9769 92.4546C93.9568 91.7072 93.9327 90.9478 93.9247 90.1843V90.0758H94.0372C95.8092 90.0557 97.5852 90.0115 99.3573 90.0075L104.677 89.9834H104.878V90.1843L104.858 94.6806V94.8655H104.681C103.785 94.8655 102.885 94.8655 101.993 94.8414L99.3131 94.7972L94.0332 94.6967Z" fill="#EBEBEB"/>
<path d="M99.968 100.366H110.608V95.8699H99.968V100.366Z" fill="#EBEBEB"/>
<path d="M88.006 100.366L93.3742 100.254L96.0182 100.209C96.8982 100.189 97.7701 100.209 98.6461 100.189L98.4693 100.366L98.4452 95.8699L98.6461 96.0708L93.326 96.0467C91.554 96.0467 89.782 96.0025 88.006 95.9783L88.1185 95.8699C88.1185 96.6052 88.0823 97.3445 88.0662 98.0959L88.006 100.366ZM88.006 100.366L87.9497 98.1401C87.9497 97.3927 87.9055 96.6333 87.8975 95.8699V95.7614H88.006C89.782 95.7614 91.554 95.6971 93.326 95.6931L98.6461 95.6689H98.851V95.8699L98.8309 100.366V100.547H98.6501C97.7541 100.547 96.854 100.547 95.962 100.523L93.2858 100.479L88.006 100.366Z" fill="#EBEBEB"/>
<path d="M110.415 43.4165H121.056V38.9202H110.415V43.4165Z" fill="#EBEBEB"/>
<path d="M19.3755 138.86L24.7437 138.748L27.3877 138.703C28.2637 138.683 29.1396 138.703 30.0156 138.679L29.8388 138.86L29.8147 134.364L30.0156 134.565L24.6955 134.541C22.9235 134.541 21.1475 134.492 19.3755 134.472L19.4839 134.364C19.4839 135.099 19.4518 135.839 19.4317 136.586L19.3755 138.86ZM19.3755 138.86L19.3192 136.654C19.2991 135.907 19.275 135.147 19.267 134.384V134.243H19.3755C21.1475 134.219 22.9235 134.179 24.6955 134.175L30.0156 134.151H30.2165V134.352V138.848V139.029H30.0357C29.1396 139.029 28.2396 139.029 27.3475 139.009L24.6714 138.965L19.3755 138.86Z" fill="#EBEBEB"/>
<path d="M25.3103 25.0293L30.6786 24.9168L33.3226 24.8726C34.2025 24.8525 35.0745 24.8726 35.9504 24.8485L35.7736 25.0293L35.7495 20.5289L35.9504 20.7298L30.6304 20.7057C28.8584 20.7057 27.0863 20.6575 25.3103 20.6374L25.4228 20.5289C25.4228 21.2642 25.3866 22.0036 25.3666 22.755L25.3103 25.0293ZM25.3103 25.0293L25.2661 22.8032C25.2661 22.0558 25.2219 21.2964 25.2139 20.5329V20.4245H25.3224C27.0984 20.4044 28.8704 20.3602 30.6424 20.3561L35.9625 20.332H36.1674V20.5289L36.1152 25.0293V25.2101H35.9344C35.0383 25.2101 34.1382 25.2101 33.2462 25.186L30.5701 25.1418L25.3103 25.0293Z" fill="#EBEBEB"/>
<path d="M19.3755 30.6992H30.0156V26.2029H19.3755V30.6992Z" fill="#EBEBEB"/>
<path d="M172.404 25.0293L177.768 24.9168L180.412 24.8726C181.292 24.8525 182.168 24.8726 183.044 24.8485L182.863 25.0293V20.5329L183.064 20.7338L177.744 20.7097C175.972 20.7097 174.196 20.6615 172.424 20.6414L172.532 20.5329C172.532 21.2683 172.5 22.0076 172.48 22.759L172.404 25.0293ZM172.404 25.0293L172.332 22.8032C172.311 22.0558 172.283 21.2964 172.279 20.5329V20.4245H172.392C174.164 20.4044 175.94 20.3602 177.712 20.3561L183.032 20.332H183.233V20.5289L183.221 25.0293V25.2101H183.044C182.148 25.2101 181.248 25.2101 180.352 25.186L177.676 25.1418L172.404 25.0293Z" fill="#EBEBEB"/>
<path d="M68.7709 153.438H39.8601V185.451H68.7709V153.438Z" fill="#EBEBEB"/>
<path d="M24.9366 185.455H39.8641L39.8641 153.438H24.9366L24.9366 185.455Z" fill="#DBDBDB"/>
<path d="M25.9613 183.265C27.0703 180.989 28.1659 178.712 29.2482 176.435L32.4989 169.511L35.7134 162.596C36.7849 160.287 37.835 157.97 38.8637 155.645C37.7547 157.921 36.659 160.205 35.5768 162.496L32.3382 169.383L29.1236 176.298C28.0548 178.61 27.0007 180.932 25.9613 183.265Z" fill="#EBEBEB"/>
<path d="M25.9613 155.645C27.0007 157.972 28.0508 160.29 29.1116 162.596L32.3261 169.511L35.5648 176.398C36.6497 178.689 37.7453 180.966 38.8516 183.229C37.8123 180.904 36.7622 178.587 35.7014 176.278L32.4868 169.363L29.2482 162.475C28.1633 160.198 27.0676 157.921 25.9613 155.645Z" fill="#EBEBEB"/>
<path d="M68.7709 105.087H39.8601V134.894H68.7709V105.087Z" fill="#EBEBEB"/>
<path d="M24.9366 134.898H39.8641L39.8641 105.088H24.9366L24.9366 134.898Z" fill="#DBDBDB"/>
<path d="M51.8624 112.007H52.4772H52.9353L53.1965 111.472L53.5661 112.007L54.0644 110.91L54.5385 112.007H55.8927H56.5074L56.7325 111.275L56.9414 112.007H57.3432V105.087H51.8624V112.007Z" fill="#DBDBDB"/>
<path d="M25.9613 132.998C27.0703 130.881 28.1659 128.752 29.2482 126.609L32.4868 120.18L35.7014 113.751C36.7729 111.608 37.823 109.45 38.8516 107.277C37.7426 109.399 36.647 111.526 35.5648 113.658L32.3261 120.067L29.1116 126.496C28.0508 128.663 27.0007 130.831 25.9613 132.998Z" fill="#EBEBEB"/>
<path d="M25.9613 107.293C27.0007 109.455 28.0508 111.608 29.1116 113.751L32.3261 120.18L35.5648 126.609C36.6497 128.752 37.7453 130.879 38.8516 132.99C37.8123 130.825 36.7622 128.667 35.7014 126.516L32.4868 120.087L29.2482 113.678C28.1633 111.543 27.0676 109.415 25.9613 107.293Z" fill="#EBEBEB"/>
<path d="M41.7648 133.046H44.9753V129.835H41.7648V133.046Z" fill="white"/>
<path d="M66.8463 134.898H37.9354V153.438H66.8463V134.898Z" fill="#DBDBDB"/>
<path d="M23.0079 153.438H37.9354V134.899H23.0079V153.438Z" fill="#C7C7C7"/>
<path d="M49.9377 141.818H50.5485H51.0106L51.2718 141.283L51.6415 141.818L52.1397 140.721L52.6139 141.818H53.964H54.5828L54.8038 141.086L55.0167 141.818H55.4185V134.898H49.9377V141.818Z" fill="white"/>
<path d="M24.0366 152.325C25.143 150.986 26.2386 149.634 27.3235 148.271L30.5621 144.196L33.7767 140.102C34.8321 138.736 35.8809 137.364 36.9229 135.987C35.8193 137.327 34.7236 138.678 33.6361 140.042L30.3974 144.12L27.1829 148.211C26.1247 149.585 25.076 150.956 24.0366 152.325Z" fill="#DBDBDB"/>
<path d="M24.0366 135.999C25.0787 137.376 26.1288 138.747 27.1869 140.114L30.4014 144.208L33.6401 148.283C34.7116 149.638 35.8045 150.985 36.9189 152.325C35.8822 150.948 34.8335 149.576 33.7727 148.21L30.5581 144.12L27.3195 140.041C26.2372 138.697 25.143 137.349 24.0366 135.999Z" fill="#DBDBDB"/>
<path d="M179.412 157.449H150.501V185.455H179.412V157.449Z" fill="#DBDBDB"/>
<path d="M135.577 185.455H150.505V157.448H135.577V185.455Z" fill="#C7C7C7"/>
<path d="M162.503 164.368H163.114H163.576L163.837 163.834L164.207 164.368L164.705 163.271L165.179 164.368H166.529H167.148L167.373 163.633L167.582 164.368H167.984V157.449H162.503V164.368Z" fill="white"/>
<path d="M136.602 183.788C137.708 181.755 138.804 179.713 139.889 177.664L143.127 171.508L146.342 165.328C147.413 163.263 148.462 161.192 149.488 159.116C148.384 161.149 147.289 163.191 146.201 165.24L142.963 171.392L139.768 177.576C138.707 179.641 137.652 181.712 136.602 183.788Z" fill="#DBDBDB"/>
<path d="M136.602 159.116C137.644 161.192 138.694 163.263 139.752 165.328L142.947 171.508L146.185 177.664C147.27 179.713 148.366 181.755 149.472 183.788C148.435 181.709 147.387 179.638 146.326 177.576L143.111 171.392L139.873 165.24C138.798 163.191 137.708 161.149 136.602 159.116Z" fill="#DBDBDB"/>
<path d="M129.144 18.9219V87.271H176.181V18.9219H129.144ZM174.445 85.515H130.88V20.6376H174.445V85.515Z" fill="#EBEBEB"/>
<path d="M174.445 20.6377H130.88V85.5152H174.445V20.6377Z" fill="white"/>
<path d="M130.88 55.9531L174.445 55.9531V54.2173L130.88 54.2173V55.9531Z" fill="#EBEBEB"/>
<path d="M125.946 92.2295H179.375V87.247H125.946V92.2295Z" fill="#DBDBDB"/>
<path d="M127.364 94.2225L177.961 95.2833V92.2295H127.364V94.2225Z" fill="#EBEBEB"/>
<path d="M130.88 20.6377H174.445V65.2113H130.88V20.6377ZM172.838 22.245H132.487V63.604H172.838V22.245Z" fill="#DBDBDB"/>
<path d="M160.542 20.6377H159.674V63.604H160.542V20.6377Z" fill="#DBDBDB"/>
<path d="M145.651 20.6377H144.783V63.604H145.651V20.6377Z" fill="#DBDBDB"/>
<path d="M26.2385 18.9219V87.271H73.2753V18.9219H26.2385ZM71.5395 85.515H27.9744V20.6376H71.5395V85.515Z" fill="#EBEBEB"/>
<path d="M71.5395 20.6377H27.9744V85.5152H71.5395V20.6377Z" fill="white"/>
<path d="M27.9743 55.9531L71.5394 55.9531V54.2173L27.9743 54.2173V55.9531Z" fill="#EBEBEB"/>
<path d="M23.04 92.2295H76.4697V87.247H23.04V92.2295Z" fill="#DBDBDB"/>
<path d="M24.4585 94.2225L75.0554 95.2833V92.2295H24.4585V94.2225Z" fill="#EBEBEB"/>
<path d="M27.9744 20.6377H71.5395V65.2113H27.9744V20.6377ZM69.9322 22.245H29.5816V63.604H69.9322V22.245Z" fill="#DBDBDB"/>
<path d="M57.6366 20.6377H56.7687V63.604H57.6366V20.6377Z" fill="#DBDBDB"/>
<path d="M42.7452 20.6377H41.8773V63.604H42.7452V20.6377Z" fill="#DBDBDB"/>
<path d="M136.855 152.346H96.8018V185.439H136.855V152.346Z" fill="#FF7E31"/>
<path opacity="0.1" d="M136.855 152.346H96.8018V185.439H136.855V152.346Z" fill="black"/>
<path d="M152.727 152.35H136.855V185.443H152.727V152.35Z" fill="#FF7E31"/>
<path opacity="0.2" d="M152.727 152.35H136.855V185.443H152.727V152.35Z" fill="black"/>
<path d="M151.63 183.161C150.457 180.809 149.293 178.449 148.138 176.081L144.695 168.961L141.295 161.812C140.17 159.426 139.054 157.031 137.948 154.628C139.127 156.983 140.292 159.343 141.444 161.708L144.883 168.828L148.283 175.976C149.413 178.363 150.529 180.758 151.63 183.161Z" fill="#FF7E31"/>
<path d="M151.63 154.628C150.526 157.039 149.411 159.434 148.283 161.812L144.883 168.961L141.444 176.081C140.289 178.446 139.124 180.806 137.948 183.161C139.054 180.75 140.17 178.355 141.295 175.976L144.695 168.828L148.138 161.712C149.293 159.341 150.457 156.98 151.63 154.628Z" fill="#FF7E31"/>
<path d="M119.661 159.498H119.03H118.552L118.283 158.947L117.901 159.498L117.383 158.365L116.897 159.498H115.498H114.86L114.626 158.743L114.409 159.498H113.996V152.35H119.661V159.498Z" fill="white"/>
<path d="M139.27 119.256H109.387V152.345H139.27V119.256Z" fill="#FF7E31"/>
<path d="M154.7 119.256H139.27V152.35H154.7V119.256Z" fill="#FF7E31"/>
<path opacity="0.1" d="M154.7 119.256H139.27V152.35H154.7V119.256Z" fill="black"/>
<g opacity="0.1">
<path d="M137.08 150.067C134.886 147.713 132.711 145.353 130.554 142.987L124.113 135.851L117.769 128.703C115.663 126.316 113.579 123.921 111.516 121.518C113.713 123.873 115.888 126.234 118.042 128.602L124.471 135.718L130.816 142.867C132.929 145.264 135.017 147.664 137.08 150.067Z" fill="black"/>
<path d="M137.081 121.536C135.016 123.947 132.932 126.341 130.829 128.72L124.484 135.852L118.055 142.973C115.912 145.338 113.737 147.698 111.529 150.053C113.595 147.642 115.679 145.247 117.782 142.868L124.114 135.736L130.543 128.62C132.705 126.249 134.884 123.888 137.081 121.536Z" fill="black"/>
</g>
<path d="M152.53 146.748H149.826V150.565H152.53V146.748Z" fill="white"/>
<path d="M17.4106 185.455L38.3614 185.355L59.3122 185.323L101.21 185.254L143.107 185.323L164.058 185.355L185.009 185.455L164.058 185.552L143.107 185.588L101.21 185.656L59.3122 185.588L38.3614 185.552L17.4106 185.455Z" fill="#263238"/>
<path d="M117.17 71.48C116.945 71.3353 116.72 71.1947 116.495 71.0581L116.652 70.7969L117.335 71.2268L117.17 71.48Z" fill="#263238"/>
<path d="M107.358 111.742H107.068V111.441C107.605 111.453 108.141 111.433 108.676 111.38L108.708 111.682C108.27 111.714 107.812 111.742 107.358 111.742ZM110.339 111.413L110.275 111.119C110.797 111.001 111.31 110.844 111.81 110.649L111.918 110.93C111.404 111.127 110.876 111.286 110.339 111.405V111.413ZM113.405 110.207L113.256 109.946C113.718 109.676 114.157 109.37 114.57 109.03L114.763 109.259C114.338 109.614 113.883 109.932 113.405 110.211V110.207ZM115.948 108.118L115.727 107.913C116.088 107.516 116.42 107.095 116.72 106.651L116.969 106.82C116.661 107.279 116.32 107.716 115.948 108.126V108.118ZM117.789 105.389L117.516 105.261C117.745 104.777 117.931 104.274 118.074 103.758L118.363 103.838C118.217 104.372 118.025 104.893 117.789 105.393V105.389ZM118.657 102.207L118.355 102.183C118.355 101.966 118.383 101.745 118.383 101.532C118.382 101.234 118.365 100.936 118.331 100.64C118.018 100.619 117.707 100.58 117.399 100.523L117.451 100.226C117.942 100.315 118.439 100.36 118.938 100.363H119.042V100.664H118.934H118.633C118.665 100.955 118.681 101.247 118.681 101.54C118.685 101.757 118.673 101.986 118.657 102.211V102.207ZM120.694 100.463L120.626 100.17C121.142 100.047 121.643 99.8639 122.116 99.6233L122.253 99.8925C121.758 100.145 121.234 100.338 120.694 100.467V100.463ZM115.8 100.089C115.28 99.902 114.776 99.6736 114.293 99.4063L114.442 99.1451C114.909 99.4035 115.397 99.6239 115.9 99.8041L115.8 100.089ZM117.962 99.0286C117.785 98.5262 117.553 98.0451 117.27 97.5941L117.524 97.4334C117.821 97.9022 118.064 98.4038 118.247 98.9281L117.962 99.0286ZM123.635 98.9643L123.442 98.7353C123.85 98.3909 124.223 98.0074 124.555 97.5901L124.788 97.7789C124.445 98.2158 124.059 98.6169 123.635 98.9764V98.9643ZM112.931 98.4821L112.846 98.4018C112.449 98.0524 112.132 97.6204 111.918 97.136L112.199 97.0235C112.395 97.4669 112.686 97.8619 113.051 98.1808L113.132 98.2531L112.931 98.4821ZM125.721 96.4288L125.463 96.2721C125.745 95.806 126.006 95.3279 126.235 94.8577L126.508 94.9903C126.275 95.4685 126.01 95.9547 125.721 96.4288ZM116.27 96.3686C115.903 96.0131 115.499 95.6978 115.064 95.4283L115.004 95.3881L115.161 95.131L115.225 95.1711C115.673 95.4539 116.089 95.7839 116.467 96.1556L116.27 96.3686ZM112.28 95.5931L112.031 95.4243C112.203 95.1826 112.431 94.9861 112.695 94.8518C112.96 94.7174 113.253 94.6491 113.55 94.6528V94.9542C113.302 94.9527 113.059 95.0099 112.838 95.1209C112.617 95.232 112.426 95.3938 112.28 95.5931ZM127.147 93.4755L126.866 93.371C127.052 92.8667 127.211 92.353 127.344 91.832L127.633 91.9044C127.504 92.4371 127.343 92.9618 127.151 93.4755H127.147ZM127.951 90.2891L127.649 90.2489C127.721 89.7159 127.763 89.1793 127.774 88.6416H128.075C128.064 89.1926 128.023 89.7427 127.951 90.2891ZM127.718 87.0343C127.669 86.495 127.593 85.9585 127.489 85.4271L127.786 85.3668C127.891 85.905 127.969 86.4482 128.019 86.9942L127.718 87.0343ZM127.095 83.8761C126.942 83.3698 126.761 82.8595 126.552 82.3532L126.834 82.2407C127.043 82.751 127.235 83.2733 127.384 83.7877L127.095 83.8761ZM125.889 80.8825C125.648 80.4124 125.379 79.9383 125.086 79.4721L125.343 79.3154C125.632 79.7856 125.905 80.2677 126.147 80.7459L125.889 80.8825ZM124.198 78.1261C123.888 77.6921 123.555 77.2621 123.209 76.8443L123.442 76.6514C123.792 77.0733 124.129 77.5113 124.443 77.9493L124.198 78.1261ZM122.14 75.6267C121.775 75.2249 121.389 74.8512 120.995 74.4816L121.2 74.2606C121.602 74.6383 122.004 75.028 122.357 75.4218L122.14 75.6267ZM119.782 73.4047C119.38 73.0632 118.942 72.7256 118.512 72.4042L118.689 72.1631C119.127 72.4845 119.561 72.8261 119.975 73.1757L119.782 73.4047Z" fill="#263238"/>
<path d="M105.385 111.597C105.114 111.564 104.846 111.515 104.581 111.453L104.653 111.159C104.653 111.159 104.943 111.232 105.425 111.3L105.385 111.597Z" fill="#263238"/>
<path d="M101.33 110.999C101.141 112.606 104.424 113.506 104.673 111.401C104.922 109.295 101.519 109.379 101.33 110.999Z" fill="#263238"/>
<path d="M105.63 113.659C105.324 114.265 104.243 114.35 103.126 113.57C102.368 112.991 101.727 112.272 101.238 111.453C102.182 111.354 103.137 111.437 104.051 111.698C105.372 112.144 105.951 113.044 105.63 113.659Z" fill="#EBEBEB"/>
<path d="M101.25 111.453C101.885 111.738 102.508 112.047 103.13 112.353C103.753 112.658 104.368 112.984 104.975 113.321C104.34 113.036 103.717 112.726 103.094 112.421C102.471 112.116 101.857 111.79 101.25 111.453Z" fill="#263238"/>
<path d="M104.167 113.647C104.023 113.479 103.889 113.304 103.765 113.12C103.644 112.938 103.534 112.749 103.436 112.554C103.58 112.721 103.714 112.897 103.838 113.08C103.96 113.261 104.07 113.451 104.167 113.647Z" fill="#263238"/>
<path d="M102.817 112.236C103.038 112.179 103.262 112.133 103.488 112.1C103.716 112.068 103.945 112.047 104.175 112.04C103.73 112.15 103.275 112.216 102.817 112.236Z" fill="#263238"/>
<path d="M102.467 112.501C102.329 112.329 102.23 112.129 102.178 111.915C102.316 112.087 102.415 112.287 102.467 112.501Z" fill="#263238"/>
<path d="M106.16 109.452C106.003 108.789 104.975 108.459 103.709 108.957C102.835 109.346 102.044 109.899 101.378 110.585C102.282 110.898 103.236 111.034 104.191 110.987C105.545 110.874 106.321 110.135 106.16 109.452Z" fill="#EBEBEB"/>
<path d="M101.378 110.585C102.062 110.456 102.741 110.296 103.416 110.139C104.091 109.982 104.766 109.813 105.425 109.625C104.746 109.753 104.067 109.914 103.392 110.071C102.716 110.227 102.049 110.396 101.378 110.585Z" fill="#263238"/>
<path d="M104.726 109.122C104.551 109.246 104.383 109.381 104.223 109.524C104.064 109.674 103.912 109.832 103.769 109.998C103.946 109.876 104.114 109.742 104.272 109.596C104.432 109.447 104.584 109.289 104.726 109.122Z" fill="#263238"/>
<path d="M103.078 110.183C103.485 110.395 103.914 110.563 104.356 110.685C103.95 110.472 103.521 110.303 103.078 110.183Z" fill="#263238"/>
<path d="M102.817 109.845C102.729 109.911 102.65 109.986 102.58 110.07C102.51 110.156 102.45 110.249 102.399 110.347C102.487 110.281 102.566 110.204 102.636 110.118C102.709 110.036 102.77 109.944 102.817 109.845Z" fill="#263238"/>
<path d="M101.33 110.999C101.445 111.012 101.554 111.059 101.642 111.134C101.731 111.209 101.795 111.309 101.827 111.42C101.858 111.532 101.856 111.65 101.821 111.76C101.786 111.871 101.719 111.968 101.628 112.04C101.537 112.112 101.427 112.156 101.312 112.166C101.196 112.176 101.081 112.151 100.979 112.095C100.878 112.039 100.795 111.954 100.742 111.851C100.688 111.749 100.667 111.632 100.679 111.517C100.697 111.362 100.776 111.221 100.898 111.124C101.02 111.027 101.175 110.982 101.33 110.999Z" fill="#455A64"/>
<path d="M101.467 109.829C101.544 109.838 101.618 109.862 101.685 109.9C101.753 109.937 101.812 109.988 101.86 110.049C101.908 110.109 101.944 110.179 101.965 110.253C101.986 110.328 101.992 110.405 101.983 110.482C101.974 110.559 101.95 110.633 101.913 110.701C101.875 110.768 101.824 110.828 101.764 110.876C101.703 110.923 101.634 110.959 101.559 110.98C101.485 111.001 101.407 111.007 101.33 110.998C101.175 110.98 101.034 110.901 100.937 110.779C100.84 110.656 100.796 110.501 100.814 110.346C100.832 110.19 100.911 110.049 101.033 109.952C101.156 109.855 101.312 109.811 101.467 109.829Z" fill="#455A64"/>
<path d="M65.0461 148.833C65.0461 148.833 56.4794 165.987 56.4754 165.987C55.7682 169.527 55.2137 172.649 55.073 174.289C55.0709 174.298 55.0709 174.307 55.073 174.317C54.9989 174.697 55.014 175.089 55.1172 175.462C55.1151 175.471 55.1151 175.481 55.1172 175.49C56.0293 176.414 84.1807 182.896 85.2536 182.791C86.3264 182.687 86.0974 179.661 85.2053 178.54C84.3133 177.419 74.6416 170.102 74.6416 170.102L83.0154 152.92L65.0461 148.833Z" fill="#D3766A"/>
<path d="M84.8277 182.807C83.7709 182.912 56.0414 176.426 55.1333 175.506C55.132 175.497 55.132 175.487 55.1333 175.478C55.0282 175.105 55.0117 174.713 55.0851 174.333C55.0817 174.324 55.0817 174.314 55.0851 174.305C55.2217 172.665 55.7803 169.543 56.4834 165.999L58.5327 161.893L76.2971 166.763L74.6577 170.13C74.6577 170.13 83.8995 177.431 84.7956 178.568C85.6916 179.705 85.8885 182.707 84.8277 182.807Z" fill="#EBEBEB"/>
<path d="M85.2134 182.357C84.1406 182.438 55.9209 175.245 55.0208 174.289C54.6752 173.931 55.4829 169.756 56.604 164.742L56.6401 164.585L74.8988 169.025L74.8144 169.33C74.8144 169.33 84.3817 176.917 85.2616 178.074C86.1416 179.231 86.2823 182.281 85.2134 182.357Z" fill="#263238"/>
<path d="M85.1692 181.18C80.4438 179.854 61.253 174.935 56.4794 173.979C56.4392 173.979 56.4312 173.999 56.4794 174.011C61.1365 175.43 80.3674 180.191 85.1611 181.244C85.2535 181.28 85.2696 181.208 85.1692 181.18Z" fill="white"/>
<path d="M76.3292 169.776C74.5451 168.949 72.1824 168.651 70.4144 169.624C70.3461 169.66 70.4144 169.756 70.4627 169.752C72.399 169.631 74.3429 169.717 76.2609 170.009C76.2891 170.011 76.317 170.003 76.34 169.987C76.3631 169.971 76.38 169.947 76.3879 169.92C76.3959 169.893 76.3944 169.864 76.3837 169.838C76.373 169.812 76.3538 169.79 76.3292 169.776Z" fill="white"/>
<path d="M77.4703 170.934C75.6903 170.11 73.3276 169.813 71.5556 170.781C71.4873 170.817 71.5556 170.914 71.6078 170.914C73.5442 170.79 75.4882 170.876 77.406 171.171C77.4353 171.174 77.4647 171.166 77.4889 171.149C77.5131 171.132 77.5306 171.108 77.5383 171.079C77.546 171.051 77.5434 171.021 77.531 170.994C77.5185 170.967 77.497 170.946 77.4703 170.934Z" fill="white"/>
<path d="M78.6156 172.095C76.8315 171.267 74.4688 170.969 72.7008 171.938C72.6325 171.978 72.7008 172.074 72.7531 172.07C74.6881 171.949 76.6306 172.035 78.5473 172.328C78.5754 172.329 78.6033 172.321 78.6264 172.305C78.6495 172.289 78.6664 172.265 78.6743 172.238C78.6823 172.211 78.6808 172.182 78.6701 172.156C78.6594 172.13 78.6402 172.108 78.6156 172.095Z" fill="white"/>
<path d="M85.9005 181.457C86.3546 181.778 85.8121 183.446 85.4143 183.49C85.0165 183.534 54.2815 175.554 53.7953 175.301C53.3091 175.048 53.9761 173.224 54.5989 173.292C55.2217 173.36 85.9005 181.457 85.9005 181.457Z" fill="#FF7E31"/>
<path d="M60.4936 168.933C58.7096 167.39 56.3067 170.162 58.0827 171.709C59.8588 173.256 62.2817 170.48 60.4936 168.933Z" fill="white"/>
<path d="M58.585 160.523L79.1741 165.714C79.1741 165.714 98.3649 131.081 97.935 122.278C97.3443 110.135 83.0878 72.7979 83.0878 72.7979H66.0186C66.0186 72.7979 77.3458 113.16 77.5026 119.951C77.5709 123.503 58.585 160.523 58.585 160.523Z" fill="#455A64"/>
<path d="M80.054 161.535C78.9571 161.097 69.1568 158.268 61.8437 156.713C61.8356 156.716 61.8286 156.721 61.8237 156.727C61.8187 156.734 61.816 156.743 61.816 156.751C61.816 156.76 61.8187 156.768 61.8237 156.775C61.8286 156.781 61.8356 156.787 61.8437 156.789C64.1461 157.593 78.6758 161.422 80.038 161.611C80.0701 161.623 80.1023 161.567 80.054 161.535Z" fill="#263238"/>
<path d="M78.9169 111.28C77.5588 105.582 76.1042 99.9004 74.5773 94.2549C73.0504 88.6093 71.415 82.9115 69.6188 77.3102C69.4019 76.6231 69.1728 75.944 68.9518 75.2609C68.9454 75.2391 68.9306 75.2207 68.9106 75.2098C68.8907 75.1988 68.8672 75.1963 68.8453 75.2027C68.8235 75.2091 68.8051 75.2239 68.7942 75.2438C68.7832 75.2638 68.7807 75.2873 68.7871 75.3092C70.3943 80.8904 72.0016 86.4596 73.5245 92.0609C75.0474 97.6623 76.4979 103.28 77.8641 108.937C78.2057 110.336 78.5392 111.73 78.8647 113.132C79.2429 114.57 79.5354 116.028 79.7406 117.5C79.9096 118.907 79.8128 120.332 79.4553 121.703C79.0676 123.05 78.5607 124.36 77.9405 125.617C75.4787 130.961 73.0182 136.306 70.5591 141.653C68.1 147.014 67.7022 148.235 65.3355 153.639C65.0421 154.311 64.7488 154.982 64.4675 155.649C64.4675 155.693 64.5117 155.733 64.5358 155.685C67.228 150.389 67.6419 149.115 70.1613 143.723C72.6807 138.33 75.184 132.874 77.6833 127.445C78.8084 124.994 80.1304 122.495 80.2992 119.754C80.4679 116.893 79.5678 114.024 78.9169 111.28Z" fill="#263238"/>
<path d="M79.8491 155.616L80.5081 174.501C80.6166 178.118 80.7733 181.28 81.0104 182.907C81.0084 182.917 81.0084 182.926 81.0104 182.936C81.0239 183.322 81.1256 183.7 81.3077 184.041L81.3318 184.065C82.4288 184.76 111.316 184.744 112.324 184.402C113.333 184.061 112.441 181.168 111.32 180.271C110.198 179.375 99.1324 174.437 99.1324 174.437L98.2926 155.572L79.8491 155.616Z" fill="#D3766A"/>
<path d="M80.3716 170.636C80.3716 170.636 80.5082 174.502 80.5082 174.514C80.6167 178.13 80.7734 181.292 81.0105 182.92C81.0085 182.929 81.0085 182.939 81.0105 182.948C81.0654 183.327 81.1652 183.698 81.3078 184.053L81.3319 184.077C82.4289 184.772 111.316 184.756 112.324 184.414C113.333 184.073 112.441 181.18 111.32 180.284C110.199 179.388 99.1325 174.449 99.1325 174.449L99.0481 170.516L80.3716 170.636Z" fill="#EBEBEB"/>
<path d="M112.34 184.382C111.319 184.708 82.2038 184.258 81.1028 183.534C80.701 183.265 80.5001 179.022 80.4277 173.891V173.73L99.2167 173.81V174.132C99.2167 174.132 110.287 179.287 111.408 180.207C112.529 181.127 113.365 184.069 112.34 184.382Z" fill="#263238"/>
<path d="M112.031 183.265C107.125 183.068 87.315 182.739 82.449 182.92C82.4088 182.92 82.4088 182.948 82.449 182.948C87.3069 183.249 107.121 183.422 112.031 183.35C112.131 183.325 112.135 183.265 112.031 183.265Z" fill="white"/>
<path d="M100.784 174.204C98.8592 173.802 96.4885 174.072 94.9937 175.41C94.9335 175.462 94.9937 175.542 95.0741 175.526C96.9292 174.96 98.8392 174.592 100.772 174.429C100.795 174.422 100.816 174.407 100.831 174.388C100.845 174.369 100.854 174.345 100.855 174.321C100.857 174.296 100.851 174.272 100.838 174.251C100.825 174.231 100.806 174.214 100.784 174.204Z" fill="white"/>
<path d="M102.166 175.064C100.237 174.662 97.8707 174.935 96.3759 176.289C96.3156 176.342 96.3759 176.422 96.4522 176.402C98.3084 175.835 100.22 175.469 102.154 175.309C102.183 175.305 102.21 175.292 102.23 175.27C102.25 175.249 102.262 175.221 102.263 175.192C102.264 175.162 102.256 175.133 102.238 175.11C102.22 175.087 102.195 175.07 102.166 175.064Z" fill="white"/>
<path d="M103.544 175.928C101.62 175.526 99.253 175.795 97.7542 177.133C97.6979 177.186 97.7542 177.266 97.8345 177.25C99.6897 176.684 101.6 176.316 103.532 176.153C103.556 176.145 103.576 176.131 103.591 176.112C103.606 176.092 103.615 176.069 103.616 176.044C103.617 176.02 103.611 175.996 103.598 175.975C103.586 175.954 103.567 175.938 103.544 175.928Z" fill="white"/>
<path d="M112.802 183.346C113.321 183.555 113.18 185.303 112.802 185.435C112.425 185.568 80.6568 184.937 80.1384 184.808C79.6201 184.68 79.829 182.747 80.4599 182.655C81.0907 182.562 112.802 183.346 112.802 183.346Z" fill="#FF7E31"/>
<path d="M85.1853 177.057C83.0918 175.968 81.3961 179.223 83.4936 180.312C85.5911 181.401 87.2827 178.146 85.1853 177.057Z" fill="white"/>
<path d="M82.8749 72.7656C82.7985 73.1152 78.5433 89.9393 78.0129 90.2527C77.4101 90.6103 93.4748 112.224 95.3794 122.836C96.5849 129.623 99.3976 169.182 99.3976 169.182H78.9129C78.9129 169.182 76.9038 135.586 76.2368 124.516C75.9756 120.22 59.8627 100.362 58.3318 87.1225C57.8496 82.9516 60.8472 72.7495 60.8472 72.7495L82.8749 72.7656Z" fill="#455A64"/>
<path d="M78.3946 153.197C78.1535 147.632 77.9325 142.055 77.5266 136.498C77.2976 133.347 76.8476 130.298 76.5341 127.159C76.5341 126.995 76.3855 126.954 76.3895 127.123C76.5341 132.713 76.9962 138.242 77.2936 143.827C77.5909 149.412 77.8762 150.714 78.1936 156.283C78.3704 159.433 78.5272 162.584 78.7723 165.73C78.7749 165.738 78.78 165.745 78.7869 165.75C78.7937 165.755 78.802 165.758 78.8104 165.758C78.8189 165.758 78.8271 165.755 78.834 165.75C78.8409 165.745 78.846 165.738 78.8486 165.73C78.8607 160.137 78.6397 158.782 78.3946 153.197Z" fill="#263238"/>
<path d="M95.3995 123.101C95.2242 121.632 94.9395 120.177 94.5476 118.75C94.1257 117.366 93.5699 116.027 92.8881 114.751C91.4938 112.075 89.9066 109.488 88.3757 106.888C86.8448 104.288 85.2495 101.632 83.6342 99.0364C82.7261 97.5792 81.814 96.1232 80.8979 94.6687C79.9656 93.202 78.9812 91.7635 78.0208 90.317C78.0134 90.3047 78.0014 90.2959 77.9874 90.2925C77.9735 90.2892 77.9588 90.2914 77.9465 90.2989C77.9342 90.3064 77.9255 90.3184 77.9221 90.3323C77.9187 90.3463 77.921 90.361 77.9284 90.3732C79.4955 93.0011 81.0465 95.633 82.6136 98.2609C84.1807 100.889 85.7237 103.525 87.2667 106.161C88.8097 108.797 90.3084 111.352 91.763 113.988C92.4793 115.24 93.0959 116.545 93.6074 117.894C94.0831 119.291 94.4287 120.729 94.64 122.189C95.1865 125.593 95.6325 129.02 96.3156 132.391C96.3183 132.399 96.3234 132.406 96.3302 132.411C96.3371 132.416 96.3453 132.419 96.3538 132.419C96.3623 132.419 96.3705 132.416 96.3774 132.411C96.3842 132.406 96.3893 132.399 96.392 132.391C96.179 129.289 95.8093 126.183 95.3995 123.101Z" fill="#263238"/>
<path d="M97.5934 165.67C96.4241 165.517 87.4997 165.208 80.0339 165.529C79.9857 165.529 79.9897 165.602 80.0339 165.606C82.4649 165.819 96.2111 165.915 97.5813 165.754C97.6175 165.75 97.6336 165.678 97.5934 165.67Z" fill="#263238"/>
<path d="M80.6849 89.1035C78.5978 89.8639 76.5811 90.8051 74.6576 91.9162C74.6411 91.9237 74.6282 91.9374 74.6218 91.9544C74.6154 91.9713 74.616 91.9901 74.6235 92.0066C74.6309 92.0232 74.6447 92.036 74.6616 92.0425C74.6786 92.0489 74.6974 92.0483 74.7139 92.0408C76.7471 91.1648 78.8245 90.3291 80.8095 89.3446C80.8414 89.3281 80.8655 89.2995 80.8765 89.2653C80.8874 89.231 80.8843 89.1938 80.8677 89.1618C80.8512 89.1298 80.8227 89.1057 80.7884 89.0948C80.7541 89.0839 80.7169 89.087 80.6849 89.1035Z" fill="#263238"/>
<path d="M81.2997 75.1766C81.2997 75.1082 81.1711 75.0922 81.1711 75.1766C81.1715 77.4471 81.0575 79.7162 80.8296 81.9753C80.7331 83.0241 79.8893 88.8062 78.0731 88.4044C77.7677 88.3321 77.615 88.0347 77.5668 87.5726C77.5719 86.9728 77.6529 86.376 77.8079 85.7966C78.0088 84.5911 78.1695 83.3857 78.274 82.1441C78.4871 79.8627 78.4628 77.5654 78.2017 75.2891C78.1983 75.2762 78.1907 75.2648 78.1802 75.2567C78.1697 75.2486 78.1567 75.2442 78.1434 75.2442C78.1301 75.2442 78.1172 75.2486 78.1067 75.2567C78.0961 75.2648 78.0886 75.2762 78.0852 75.2891C78.1378 78.4514 77.9524 81.6133 77.5307 84.7479C77.3016 86.2547 76.5422 88.5249 78.1213 88.766C79.7005 89.0071 80.7653 85.2019 80.9582 84.1612C81.4608 81.1938 81.5756 78.1736 81.2997 75.1766Z" fill="#263238"/>
<path d="M78.1213 88.5287C77.9603 88.921 77.8261 89.3237 77.7195 89.7341C77.6039 90.0493 77.5467 90.3829 77.5507 90.7186C77.5527 90.7323 77.5588 90.7451 77.5682 90.7553C77.5776 90.7654 77.5898 90.7725 77.6033 90.7756C77.6168 90.7786 77.631 90.7775 77.6438 90.7724C77.6567 90.7672 77.6676 90.7582 77.6753 90.7467C77.8651 90.4505 78.0075 90.1265 78.0972 89.7864C78.2378 89.4127 78.3825 89.047 78.499 88.6693C78.5177 88.6192 78.5157 88.5638 78.4934 88.5152C78.4712 88.4666 78.4306 88.4288 78.3805 88.4101C78.3304 88.3915 78.275 88.3935 78.2264 88.4157C78.1778 88.4379 78.14 88.4786 78.1213 88.5287Z" fill="#263238"/>
<path d="M78.9773 129.916C78.7844 127.055 78.7965 124.037 77.5789 121.385C76.9323 120.093 76.1881 118.852 75.3529 117.673C74.5224 116.403 73.7027 115.126 72.8937 113.843C69.6792 108.712 66.5772 103.476 63.7524 98.1121C62.3902 95.5285 61.1365 92.8604 60.4535 90.0075C59.7873 87.0053 59.6608 83.9086 60.0798 80.8621C60.1762 80.1027 60.2807 79.3473 60.4052 78.5919C60.4056 78.5816 60.4025 78.5716 60.3963 78.5634C60.3901 78.5552 60.3813 78.5495 60.3713 78.5471C60.3613 78.5447 60.3509 78.5459 60.3417 78.5504C60.3325 78.5549 60.3251 78.5624 60.3209 78.5718C59.6597 81.4688 59.4336 84.4481 59.6498 87.4117C59.959 90.2452 60.7571 93.0037 62.0085 95.5646C63.2541 98.2608 64.7368 100.857 66.1995 103.44C67.7076 106.119 69.26 108.759 70.8565 111.36C72.4638 113.956 74.1193 116.499 75.7788 119.055C76.6253 120.26 77.285 121.586 77.7357 122.989C78.101 124.452 78.3111 125.95 78.3625 127.457C78.7643 133.781 80.3716 154.809 80.9422 161.101C81.0105 161.905 81.0828 162.708 81.1591 163.512C81.1568 163.52 81.1565 163.529 81.1582 163.538C81.1598 163.546 81.1634 163.554 81.1686 163.561C81.1739 163.568 81.1807 163.573 81.1884 163.577C81.1962 163.581 81.2047 163.583 81.2134 163.583C81.222 163.583 81.2306 163.581 81.2383 163.577C81.2461 163.573 81.2529 163.568 81.2581 163.561C81.2634 163.554 81.267 163.546 81.2686 163.538C81.2703 163.529 81.2699 163.52 81.2676 163.512C81.0265 157.195 79.3911 136.221 78.9773 129.916Z" fill="#263238"/>
<path d="M69.1448 78.3107C69.1448 78.2665 69.0724 78.2825 69.0724 78.3107C69.0122 80.0666 69.0724 81.8828 68.3853 83.5343C67.7665 85.0572 66.5209 86.126 65.1266 86.9256C64.3157 87.3806 63.48 87.7898 62.6233 88.1511C62.563 88.1793 62.5871 88.2757 62.6554 88.2556C64.2627 87.7413 65.9222 87.1828 67.2683 86.1059C68.7068 84.9487 69.3376 83.2731 69.406 81.4649C69.4306 80.4072 69.343 79.3499 69.1448 78.3107Z" fill="#263238"/>
<path d="M78.061 49.6892C80.3594 56.7451 86.5675 68.7635 88.7856 70.214C90.7504 71.4958 99.9963 70.0654 104.055 69.089C105.565 68.7233 102.166 57.2072 100.555 57.6291C98.6221 58.1354 92.864 59.4333 92.4461 59.1118C92.0282 58.7904 86.222 51.638 82.1073 47.427C78.3624 43.6138 77.1931 47.0212 78.061 49.6892Z" fill="#D3766A"/>
<path d="M103.167 69.1772C103.942 69.0808 110.504 68.7754 113.513 67.14C115.121 66.2681 119.223 63.383 118.813 62.3464C118.44 61.4021 117.122 61.9164 117.122 61.9164C117.122 61.9164 118.934 60.6025 118.404 59.2925C117.873 57.9826 115.683 58.9671 115.683 58.9671C115.683 58.9671 117.447 57.4804 116.824 56.2146C116.202 54.9489 114.168 56.303 114.168 56.303C114.168 56.303 115.844 55.0212 114.892 54.1935C113.742 53.197 110.918 55.9133 109.009 56.5481C108.575 56.6928 100.024 58.8546 100.024 58.8546L103.167 69.1772Z" fill="#D3766A"/>
<path d="M114.096 56.267C112.015 58.256 110.757 58.7663 107.976 59.3288C107.924 59.3288 107.928 59.4253 107.976 59.4172C110.749 59.1159 112.416 58.702 114.189 56.3634C114.285 56.2469 114.193 56.1706 114.096 56.267Z" fill="#263238"/>
<path d="M115.615 58.9186C113.272 60.7992 111.914 61.3617 109.045 62.1653C109.005 62.1653 109.021 62.2497 109.065 62.2417C111.942 61.6872 113.598 61.2371 115.691 59.0512C115.788 58.9548 115.723 58.8343 115.615 58.9186Z" fill="#263238"/>
<path d="M116.981 61.9487C114.57 63.6042 113.12 64.2913 110.235 64.7132C110.221 64.7132 110.207 64.7187 110.198 64.7285C110.188 64.7383 110.182 64.7516 110.182 64.7655C110.182 64.7793 110.188 64.7926 110.198 64.8024C110.207 64.8122 110.221 64.8177 110.235 64.8177C113.22 64.6731 115.056 63.8333 117.013 62.0291C117.158 61.9166 117.13 61.8483 116.981 61.9487Z" fill="#263238"/>
<path d="M97.7822 59.2243C97.7822 59.2243 100.173 56.5201 101.483 55.5638C102.793 54.6074 108.997 52.8394 109.455 54.1574C110.046 55.8611 106.666 57.5849 104.902 58.2117C104.902 58.2117 106.273 62.1495 104.099 63.9095C101.925 65.6695 97.7822 59.2243 97.7822 59.2243Z" fill="#D3766A"/>
<path d="M109.467 54.6836C108.884 56.6244 106.514 57.2994 104.846 58.0348C104.822 58.0454 104.8 58.0617 104.782 58.0822C104.765 58.1028 104.753 58.1271 104.747 58.1533C104.74 58.1794 104.74 58.2066 104.746 58.2328C104.753 58.2589 104.765 58.2833 104.782 58.304C105.248 59.9916 105.409 62.507 104.227 63.9294C104.195 63.9696 104.247 64.0259 104.288 63.9897C105.762 62.6396 105.803 60.1523 105.176 58.3361C106.899 57.6088 109.246 56.8253 109.483 54.6916C109.487 54.6836 109.471 54.6836 109.467 54.6836Z" fill="#263238"/>
<path d="M103.163 71.1584L100.133 57.36L92.6351 58.7221C89.6777 55.3348 83.7669 48.5642 81.3841 46.531C78.5714 44.1442 76.7311 45.9363 77.7678 49.5527C80.1104 57.8181 86.9614 69.9529 88.7535 71.0981C91.3533 72.7657 103.163 71.1584 103.163 71.1584Z" fill="#FF7E31"/>
<path opacity="0.1" d="M92.4582 62.921C92.8294 63.0017 93.2075 63.0461 93.5873 63.0536C94.3909 63.1621 94.7445 64.3475 94.0132 64.7975C93.6292 65.034 93.1951 65.1773 92.7457 65.2156C92.2963 65.254 91.8441 65.1865 91.4255 65.0185C90.6219 64.7051 89.9428 63.9256 90.1156 63.0094C90.1455 62.8386 90.2191 62.6785 90.3293 62.5446C90.4394 62.4107 90.5824 62.3076 90.7442 62.2453C90.906 62.183 91.0812 62.1636 91.2527 62.1891C91.4242 62.2146 91.5862 62.284 91.7229 62.3906C91.9456 62.5966 92.1925 62.7747 92.4582 62.921ZM90.3848 59.6382C90.0955 61.0043 92.2091 62.1776 93.29 61.4504C93.3771 61.3844 93.4482 61.2996 93.4981 61.2023C93.5479 61.1051 93.5752 60.9978 93.5779 60.8886C93.5806 60.7793 93.5587 60.6708 93.5137 60.5712C93.4687 60.4716 93.4019 60.3834 93.3181 60.3132C93.0007 60.0561 92.7355 60.0159 92.4542 59.7828C92.3559 59.706 92.2692 59.6153 92.197 59.5136C92.0377 59.2939 91.8336 59.1104 91.5983 58.9752C91.4759 58.9229 91.3432 58.899 91.2102 58.9054C91.0773 58.9118 90.9475 58.9483 90.8307 59.0121C90.7138 59.076 90.613 59.1655 90.5358 59.2739C90.4586 59.3823 90.4069 59.5069 90.3848 59.6382ZM87.0136 59.7105C86.5796 60.2771 86.9051 61.1289 87.2868 61.6432C87.4586 61.8994 87.6953 62.1054 87.9728 62.2402C88.2502 62.375 88.5584 62.4339 88.866 62.4107C88.978 62.3949 89.0832 62.3471 89.1687 62.2729C89.2541 62.1987 89.3164 62.1014 89.3478 61.9927C89.3792 61.884 89.3785 61.7684 89.3458 61.6601C89.3131 61.5518 89.2497 61.4552 89.1633 61.3821C88.9217 61.1983 88.7285 60.9583 88.6008 60.6829C88.4119 60.257 88.2873 59.7065 87.7971 59.5216C87.6633 59.4666 87.5154 59.4552 87.3747 59.4891C87.234 59.523 87.1076 59.6005 87.0136 59.7105ZM95.9138 68.6469C95.3473 69.7921 97.0711 71.094 98.1158 70.869C98.4654 70.7926 98.8029 70.3345 98.4935 70.0051C98.2444 69.7399 97.947 69.5309 97.714 69.2496C97.4287 68.9081 97.272 68.4701 96.826 68.2973C96.6581 68.2271 96.4697 68.2242 96.2998 68.2893C96.13 68.3544 95.9917 68.4825 95.9138 68.6469ZM79.7286 54.6034C79.6298 54.4153 79.4929 54.2497 79.3268 54.1172C79.5518 54.6931 79.7889 55.2704 80.038 55.849C80.0514 55.4133 79.9443 54.9823 79.7286 54.6034ZM81.9667 53.3979C81.8881 52.4054 81.5002 51.4624 80.8577 50.7017C80.3755 50.0789 79.5398 49.0945 78.6558 49.3074C78.5618 49.3368 78.4798 49.3956 78.4219 49.4752C78.364 49.5549 78.3333 49.651 78.3343 49.7494C78.2781 50.4285 79.0576 51.1558 79.3951 51.6983C79.7969 52.3813 80.1144 53.1368 80.5483 53.8158C80.639 53.9554 80.7725 54.062 80.9287 54.1195C81.085 54.177 81.2556 54.1824 81.4152 54.135C81.5748 54.0875 81.7147 53.9897 81.8141 53.8561C81.9136 53.7226 81.9671 53.5604 81.9667 53.3939V53.3979ZM81.7056 57.7175C81.8626 57.7094 82.0129 57.6511 82.1344 57.5513C82.2559 57.4515 82.3422 57.3154 82.3806 57.163C82.4431 56.851 82.4223 56.5281 82.3203 56.2267C82.2603 55.9397 82.1211 55.6753 81.9185 55.4633C81.846 55.3962 81.7573 55.349 81.6611 55.3265C81.5648 55.304 81.4644 55.3069 81.3696 55.3348C81.2749 55.3628 81.189 55.4148 81.1203 55.486C81.0517 55.5571 81.0028 55.6448 80.9783 55.7405C80.9461 55.9752 80.9461 56.2131 80.9783 56.4477C80.9783 56.5482 80.9783 56.6486 80.9783 56.7531C80.9762 56.9045 80.9924 57.0556 81.0265 57.2032C81.0697 57.3499 81.1591 57.4789 81.2815 57.5708C81.4038 57.6628 81.5525 57.7128 81.7056 57.7135V57.7175Z" fill="#030402"/>
<path d="M100.539 69.9528C100.193 69.1492 99.3333 65.581 99.1445 64.693C98.9556 63.805 98.2564 60.2128 98.0515 59.3006C98.0515 59.2484 98.1078 59.2203 98.1198 59.2685C98.3368 60.1686 99.3052 63.7126 99.5181 64.5966C99.7311 65.4806 100.531 69.0447 100.587 69.9407C100.588 69.9439 100.588 69.9472 100.587 69.9504C100.587 69.9537 100.586 69.9568 100.584 69.9595C100.581 69.9652 100.575 69.9693 100.569 69.9709C100.563 69.9725 100.556 69.9715 100.55 69.9681C100.544 69.9647 100.54 69.9592 100.539 69.9528Z" fill="#263238"/>
<path opacity="0.1" d="M93.5753 71.8495C91.4658 71.8495 89.6134 71.6486 88.7535 71.0981C86.9493 69.9329 80.0983 57.8382 77.7397 49.5567C77.145 47.4833 77.5026 46.0047 78.4429 45.5747L93.5753 71.8495Z" fill="black"/>
<path d="M59.5734 74.6581C59.6257 74.7344 84.6991 77.949 84.9683 77.7159C85.1101 77.0179 85.2107 76.3122 85.2697 75.6024C85.2697 75.6024 82.9713 48.3029 81.7819 46.6996C80.7412 45.3013 77.5829 44.2887 75.4332 45.2008C70.9208 47.1135 60.1159 71.5038 60.2324 72.5244C60.2244 72.5124 59.5091 74.5617 59.5734 74.6581Z" fill="#FF7E31"/>
<path opacity="0.1" d="M68.6143 71.3351C69.001 71.5229 69.4046 71.6736 69.8197 71.7852C70.6555 72.1187 70.7319 73.513 69.8197 73.7942C69.3349 73.9481 68.8207 73.9864 68.3184 73.9062C67.8161 73.826 67.3395 73.6294 66.9267 73.3322C66.123 72.7696 65.6047 71.7249 66.0386 70.7927C66.1183 70.6153 66.2422 70.4614 66.3985 70.3457C66.5549 70.2301 66.7383 70.1567 66.9312 70.1325C67.1242 70.1082 67.3201 70.1341 67.5001 70.2075C67.6802 70.2809 67.8383 70.3994 67.9593 70.5516C68.1843 70.8128 68.321 71.1583 68.6143 71.3351ZM67.2401 67.1843C66.553 68.6028 68.542 70.4551 69.9202 69.9529C70.0356 69.9067 70.1388 69.8344 70.2216 69.7416C70.3043 69.6488 70.3644 69.5381 70.3972 69.4181C70.4299 69.2982 70.4343 69.1723 70.4101 69.0503C70.3859 68.9283 70.3338 68.8137 70.2577 68.7153C69.9845 68.3496 69.7032 68.2331 69.4541 67.9116C69.3681 67.8005 69.299 67.6773 69.2492 67.546C69.1304 67.2654 68.9569 67.0114 68.7389 66.7986C68.2607 66.3365 67.4932 66.662 67.2401 67.1843ZM64.9176 65.6735C64.1662 65.9548 63.9733 66.9674 64.0295 67.6826C64.0411 68.0301 64.1446 68.3682 64.3296 68.6626C64.5145 68.957 64.7743 69.197 65.0823 69.3582C65.1986 69.4101 65.3274 69.4273 65.4531 69.4075C65.5789 69.3878 65.6963 69.3321 65.7911 69.2471C65.8859 69.1621 65.954 69.0514 65.9872 68.9285C66.0205 68.8056 66.0174 68.6757 65.9784 68.5545C65.8508 68.2333 65.8066 67.8849 65.8498 67.542C65.9181 67.0276 66.123 66.4249 65.7815 65.9628C65.6864 65.8296 65.5517 65.7299 65.3965 65.6779C65.2413 65.626 65.0737 65.6244 64.9176 65.6735ZM73.1548 70.4551C72.9646 70.4389 72.7754 70.496 72.626 70.6148C72.4765 70.7336 72.3782 70.905 72.3512 71.094C72.3306 71.2971 72.3816 71.5009 72.4953 71.6704C72.609 71.8398 72.7783 71.9643 72.974 72.0222C73.248 72.1127 73.5438 72.1127 73.8178 72.0222C73.9581 71.9668 74.0736 71.8626 74.1433 71.7289C74.224 71.5995 74.2567 71.446 74.2357 71.2949C74.2135 71.154 74.1489 71.0232 74.0506 70.9199C73.9523 70.8166 73.8248 70.7456 73.6852 70.7163C73.6599 70.683 73.6302 70.6532 73.5968 70.6279C73.4693 70.5288 73.3158 70.4688 73.1548 70.4551ZM66.995 60.7593C66.3199 61.4504 66.5931 63.0215 67.3646 63.5519C67.464 63.6274 67.5813 63.6756 67.705 63.6918C67.8288 63.7079 67.9546 63.6914 68.0699 63.6438C68.1853 63.5963 68.2862 63.5194 68.3627 63.4208C68.4391 63.3222 68.4885 63.2054 68.5058 63.0818C68.5177 62.9226 68.5177 62.7628 68.5058 62.6036C68.5058 62.4309 68.4817 62.3224 68.5058 62.2018C68.5659 61.8583 68.5781 61.508 68.542 61.1611C68.5107 60.9966 68.4334 60.8443 68.319 60.722C68.2046 60.5997 68.0578 60.5124 67.8957 60.4703C67.7336 60.4282 67.5629 60.433 67.4034 60.4842C67.244 60.5353 67.1023 60.6307 66.995 60.7593ZM62.6352 70.7565C61.707 71.8575 63.238 73.746 64.4394 73.7822C64.8412 73.7822 65.3355 73.3804 65.0863 72.9384C64.8854 72.5848 64.6162 72.2714 64.4394 71.9057C64.2224 71.4557 64.1702 70.9293 63.7282 70.6239C63.5633 70.5027 63.3585 70.449 63.1554 70.4737C62.9524 70.4983 62.7663 70.5994 62.6352 70.7565ZM84.8035 70.4069C84.6523 70.4296 84.5112 70.4967 84.3981 70.5997C84.2851 70.7027 84.2052 70.837 84.1687 70.9855C84.0401 71.4316 84.024 71.8294 83.6905 72.191C83.3295 72.4749 83.0056 72.803 82.7261 73.1674C82.6795 73.2584 82.6573 73.36 82.6617 73.4621C82.6661 73.5643 82.6969 73.6636 82.7512 73.7502C82.8055 73.8369 82.8813 73.908 82.9713 73.9566C83.0613 74.0051 83.1623 74.0295 83.2646 74.0273C83.9663 73.9411 84.6086 73.5904 85.0607 73.0469C84.9803 72.2834 84.9 71.3874 84.8076 70.3909L84.8035 70.4069ZM82.7944 67.0919C82.5694 67.6384 82.6096 68.2572 82.4208 68.8278C82.255 69.3509 82.0578 69.8635 81.8301 70.3627C81.6613 70.7244 81.9988 71.2949 82.4368 71.1021C83.1491 70.8286 83.7318 70.2962 84.0682 69.6113C84.3736 68.9805 84.7111 67.9197 84.4178 67.2486C84.1245 66.5776 83.128 66.2843 82.7864 67.0759L82.7944 67.0919ZM80.5041 72.5687C80.1702 73.0001 79.7429 73.3504 79.2544 73.5933C79.138 73.6295 79.0306 73.6899 78.9394 73.7707C78.8481 73.8515 78.7751 73.9508 78.7251 74.0619C78.6751 74.1731 78.6493 74.2936 78.6494 74.4155C78.6496 74.5374 78.6756 74.6578 78.7258 74.7689C78.776 74.8799 78.8493 74.979 78.9407 75.0596C79.0322 75.1402 79.1397 75.2005 79.2562 75.2363C79.3726 75.2722 79.4954 75.2829 79.6163 75.2678C79.7373 75.2526 79.8536 75.2119 79.9576 75.1484C80.3734 74.9701 80.745 74.7029 81.0463 74.3655C81.3476 74.0281 81.5713 73.6287 81.7015 73.1955C81.8904 72.5004 80.9501 72.0463 80.496 72.5526L80.5041 72.5687ZM76.8315 52.8796C77.056 52.9272 77.2901 52.8859 77.4849 52.7646C77.6797 52.6432 77.8199 52.4512 77.8762 52.2287C78.1012 51.3648 77.3297 50.4768 76.719 49.9383C76.1082 49.3999 75.2483 48.9097 74.3924 49.1869C74.2785 49.2239 74.1759 49.2893 74.0943 49.377C74.0127 49.4647 73.9549 49.5718 73.9263 49.6881C73.8978 49.8044 73.8994 49.9261 73.931 50.0416C73.9627 50.1572 74.0233 50.2627 74.1071 50.3482C74.4808 50.8143 74.9992 51.1518 75.397 51.6099C75.7948 52.068 76.1243 52.747 76.8234 52.8636L76.8315 52.8796ZM79.9134 56.2911C80.2509 55.8049 79.9898 55.0856 79.7487 54.6235C79.6203 54.3686 79.4207 54.1565 79.1741 54.0128C79.0081 53.9066 78.8069 53.8702 78.6143 53.9116C78.4216 53.953 78.2531 54.0688 78.1454 54.2338C78.0358 54.4623 78.0185 54.7242 78.0972 54.9651C78.1308 55.0911 78.1765 55.2136 78.2338 55.3307V55.3669V55.399C78.3056 55.7828 78.4682 56.1437 78.708 56.4518C78.7909 56.5354 78.8921 56.5986 79.0036 56.6365C79.1151 56.6745 79.2338 56.6862 79.3506 56.6706C79.4673 56.655 79.5789 56.6127 79.6765 56.5468C79.7741 56.481 79.8552 56.3935 79.9134 56.2911ZM81.9868 53.4141C81.9081 52.4215 81.5203 51.4785 80.8778 50.7179C80.3956 50.0951 79.5598 49.1106 78.6758 49.3236C78.5819 49.3529 78.4998 49.4118 78.4419 49.4914C78.384 49.571 78.3533 49.6671 78.3544 49.7656C78.2981 50.4446 79.0776 51.1719 79.4152 51.7144C79.817 52.3975 80.1344 53.1529 80.5684 53.832C80.663 53.9639 80.7968 54.0626 80.9508 54.114C81.1047 54.1655 81.271 54.1671 81.4259 54.1185C81.5808 54.07 81.7165 53.9739 81.8136 53.8438C81.9107 53.7137 81.9643 53.5563 81.9667 53.394L81.9868 53.4141ZM78.9531 60.2932C79.1 60.3253 79.2521 60.3253 79.3991 60.2932C79.6218 60.2246 79.8101 60.0737 79.9255 59.8713C80.0334 59.6557 80.0872 59.4171 80.0822 59.1761C80.0749 58.9478 80.0129 58.7246 79.9014 58.5252L79.7688 58.3604L79.592 58.2319C79.4814 58.1748 79.3593 58.1434 79.2349 58.1401C79.1105 58.1367 78.987 58.1614 78.8735 58.2124C78.7599 58.2633 78.6594 58.3393 78.5792 58.4345C78.4991 58.5297 78.4415 58.6417 78.4106 58.7623C78.3437 58.9963 78.2967 59.2355 78.27 59.4775L78.3061 59.6985C78.3343 59.8094 78.3895 59.9116 78.4669 59.9958C78.5883 60.1361 78.7518 60.2334 78.933 60.2731L78.9531 60.2932ZM81.7256 57.7336C81.8826 57.7255 82.0329 57.6673 82.1544 57.5675C82.2759 57.4677 82.3622 57.3316 82.4007 57.1791C82.4631 56.8671 82.4423 56.5442 82.3404 56.2429C82.2803 55.9559 82.1411 55.6914 81.9386 55.4794C81.866 55.4123 81.7773 55.3652 81.6811 55.3426C81.5849 55.3201 81.4845 55.323 81.3897 55.3509C81.2949 55.3789 81.209 55.431 81.1404 55.5021C81.0718 55.5732 81.0228 55.6609 80.9983 55.7567C80.9662 55.9913 80.9662 56.2292 80.9983 56.4639C80.9983 56.5643 80.9983 56.6648 80.9983 56.7692C80.9963 56.9206 81.0124 57.0717 81.0465 57.2193C81.0915 57.3598 81.1791 57.483 81.2972 57.5715C81.4153 57.6601 81.558 57.7097 81.7055 57.7135L81.7256 57.7336Z" fill="#030402"/>
<path d="M80.3153 50.9789C78.7843 50.8383 76.8235 47.5675 76.4498 45.4901C76.4257 45.3454 77.0364 44.136 77.7075 42.6332C78.1093 41.721 78.5433 40.6924 78.8647 39.728L84.4259 43.2279C83.6755 44.3195 83.0615 45.4989 82.5976 46.7397C82.5561 46.8707 82.5265 47.0052 82.5092 47.1416C82.5106 47.1643 82.5106 47.1871 82.5092 47.2099C82.3686 48.0135 81.798 51.1155 80.3153 50.9789Z" fill="#D3766A"/>
<path d="M82.5091 47.1498C82.5104 47.1726 82.5104 47.1954 82.5091 47.2181C82.2949 47.1762 82.084 47.1184 81.8783 47.0454C78.3985 45.7917 79.0133 41.227 79.2584 39.9653L80.6447 40.8413L84.4419 43.2522C83.6918 44.3434 83.0791 45.523 82.6176 46.7641C82.5698 46.8891 82.5335 47.0182 82.5091 47.1498Z" fill="#263238"/>
<path d="M79.4473 33.2871C78.2981 35.3564 78.0972 42.0025 79.371 43.7664C81.2113 46.322 84.908 47.3185 87.2506 44.9719C89.5209 42.6735 89.6254 34.0063 88.1467 32.3348C85.9608 29.8515 81.143 30.2292 79.4473 33.2871Z" fill="#D3766A"/>
<path d="M84.7834 38.6592C84.7834 38.6592 84.7473 38.6592 84.7473 38.6994C84.7473 39.1574 84.6669 39.6798 84.249 39.8164V39.8445C84.7593 39.7883 84.8558 39.0931 84.7834 38.6592Z" fill="#263238"/>
<path d="M84.3937 38.1692C83.6584 38.0888 83.5499 39.5595 84.229 39.6358C84.908 39.7122 85.0085 38.2375 84.3937 38.1692Z" fill="#263238"/>
<path d="M87.4194 38.8159C87.4194 38.8159 87.4515 38.84 87.4515 38.8601C87.3993 39.3142 87.4194 39.8446 87.8172 40.0254C87.8172 40.0254 87.8172 40.0575 87.8172 40.0535C87.3149 39.941 87.2988 39.2378 87.4194 38.8159Z" fill="#263238"/>
<path d="M87.8654 38.374C88.6008 38.374 88.5405 39.8487 87.8654 39.8487C87.1904 39.8487 87.2466 38.37 87.8654 38.374Z" fill="#263238"/>
<path d="M84.9884 37.8715C84.7835 37.9157 84.5866 37.9197 84.3857 37.9438C84.1776 37.9983 83.9573 37.9827 83.7589 37.8996C83.7011 37.8615 83.6575 37.8054 83.635 37.74C83.6125 37.6746 83.6122 37.6036 83.6343 37.538C83.7002 37.4181 83.7966 37.3179 83.9137 37.2473C84.0308 37.1767 84.1646 37.1384 84.3013 37.1362C84.5789 37.0828 84.8663 37.1374 85.1049 37.2889C85.1546 37.3262 85.1927 37.3768 85.2148 37.4348C85.2369 37.4928 85.2422 37.5559 85.23 37.6168C85.2179 37.6777 85.1887 37.734 85.146 37.779C85.1032 37.8241 85.0486 37.8561 84.9884 37.8715Z" fill="#263238"/>
<path d="M88.5243 37.0037C88.3292 36.949 88.1374 36.8833 87.9497 36.8068C87.7384 36.767 87.5462 36.6582 87.4033 36.4974C87.3675 36.4386 87.3525 36.3694 87.3605 36.301C87.3685 36.2326 87.3991 36.1688 87.4475 36.1197C87.5572 36.0359 87.6877 35.9833 87.825 35.9678C87.9623 35.9522 88.1012 35.9742 88.227 36.0313C88.4984 36.1056 88.733 36.2773 88.886 36.5135C88.9178 36.5696 88.9326 36.6336 88.9288 36.698C88.9249 36.7623 88.9025 36.8241 88.8642 36.876C88.826 36.9278 88.7735 36.9675 88.7132 36.9902C88.6529 37.0128 88.5873 37.0176 88.5243 37.0037Z" fill="#263238"/>
<path d="M84.4499 42.2835C85.0416 42.1419 85.6584 42.1419 86.2501 42.2835C86.3023 42.2835 86.3546 42.1791 86.3666 42.1309L86.3988 41.1665C86.5233 41.2388 87.1502 41.5683 87.1502 41.3915C87.2156 39.8241 87.12 38.2542 86.8649 36.7063C86.8621 36.6973 86.8564 36.6895 86.8489 36.6839C86.8413 36.6783 86.8321 36.6753 86.8227 36.6753C86.8133 36.6753 86.8041 36.6783 86.7965 36.6839C86.7889 36.6895 86.7833 36.6973 86.7805 36.7063C86.7162 38.1569 86.901 39.6034 86.8568 41.062C86.6351 40.9391 86.397 40.8485 86.1496 40.7928C86.0974 40.7928 86.1496 41.8174 86.1496 41.9701C85.5966 41.7796 84.991 41.8128 84.462 42.0625C84.2531 42.1951 84.1687 42.3719 84.4499 42.2835Z" fill="#263238"/>
<path d="M83.2606 43.2401C83.361 43.3526 83.4615 43.5053 83.6222 43.5294C83.7911 43.5374 83.9598 43.5086 84.1165 43.445C84.1165 43.445 84.1446 43.445 84.1165 43.4691C84.0473 43.5544 83.9559 43.619 83.8524 43.6558C83.749 43.6927 83.6374 43.7004 83.5298 43.678C83.442 43.65 83.3642 43.5971 83.3057 43.5258C83.2473 43.4545 83.2107 43.3678 83.2003 43.2762C83.2084 43.232 83.2445 43.224 83.2606 43.2401Z" fill="#263238"/>
<path opacity="0.2" d="M81.3881 31.1772C81.3278 32.2099 81.0827 35.4124 80.5845 36.0633C80.0862 36.7143 79.0334 38.2291 78.499 38.4742C78.5714 36.3406 78.9008 34.3114 79.4513 33.2506C79.9027 32.4007 80.5709 31.6854 81.3881 31.1772Z" fill="#263238"/>
<path d="M87.114 34.3073C86.8331 34.5933 86.4835 34.8026 86.0988 34.9151C85.714 35.0277 85.3068 35.0398 84.916 34.9502C84.5161 34.8613 84.1459 34.6707 83.8411 34.3969C83.5364 34.1231 83.3073 33.7753 83.1762 33.3872C83.1762 33.3631 83.132 33.3872 83.14 33.3872C83.2421 33.8062 83.4572 34.1893 83.7619 34.4946C84.0665 34.8 84.449 35.0159 84.8678 35.119C85.2859 35.1988 85.7177 35.1665 86.1193 35.0253C86.5209 34.8842 86.878 34.6392 87.1542 34.3154C87.1783 34.3194 87.1461 34.2832 87.114 34.3073Z" fill="#263238"/>
<path d="M85.0968 28.3526C84.4793 28.3109 83.8612 28.4252 83.2995 28.685C82.7377 28.9448 82.2504 29.3418 81.8823 29.8394C81.5687 30.3458 81.4356 30.9434 81.5046 31.535H81.5568C81.5645 31.0159 81.7123 30.5084 81.9846 30.0664C82.2569 29.6243 82.6436 29.264 83.1038 29.0237C83.6069 28.7421 84.1682 28.5807 84.744 28.5521C85.3198 28.5235 85.8944 28.6285 86.4228 28.8589C86.9426 29.0732 87.3697 29.4647 87.6283 29.9639C87.6524 30.0162 87.7569 29.9921 87.7368 29.9398C87.4073 29.0639 86.3425 28.4129 85.0968 28.3526Z" fill="#263238"/>
<path d="M92.7716 31.8564C92.5968 31.1762 92.1869 30.5797 91.6144 30.1728C90.8108 29.5982 89.8705 29.6062 88.9302 29.6384C88.9021 29.6384 88.9061 29.6786 88.9302 29.6746C89.7297 29.5911 90.5362 29.7404 91.2528 30.1045C91.836 30.4545 92.2803 30.9954 92.5104 31.6354C92.7294 32.2919 92.7041 33.0054 92.439 33.6447C92.174 34.284 91.6871 34.8061 91.0679 35.1152C90.7075 35.2846 90.3162 35.3784 89.9182 35.3908C89.5201 35.4032 89.1237 35.3341 88.7534 35.1875C88.7253 35.1875 88.7012 35.2156 88.7293 35.2317C89.2304 35.453 89.7833 35.5298 90.3257 35.4534C90.8681 35.3771 91.3783 35.1506 91.7988 34.7995C92.2192 34.4484 92.5331 33.9868 92.705 33.4667C92.8769 32.9467 92.9 32.3889 92.7716 31.8564Z" fill="#263238"/>
<path d="M79.0455 34.5927C79.0455 34.5927 77.9365 32.0653 79.1218 30.7393C79.7929 29.9919 81.81 30.2491 81.81 30.2491C82.4126 29.4842 83.2942 28.9899 84.2611 28.8748C85.9849 28.6056 87.9498 29.7709 87.9498 29.7709C87.9498 29.7709 89.6294 28.9673 91.0719 29.9437C93.081 31.3058 92.5787 34.4923 90.3848 35.3602C88.8418 35.975 86.9211 34.5043 86.9211 34.5043C86.7283 34.5043 84.6468 35.5651 83.2766 33.6766C83.2766 33.6766 81.9747 34.6691 80.934 33.8252C80.7361 34.1316 80.4487 34.3696 80.1108 34.5069C79.773 34.6442 79.401 34.6742 79.0455 34.5927Z" fill="#263238"/>
<path d="M79.7005 38.792C79.7005 38.792 78.6477 36.4333 77.607 36.7829C76.5663 37.1325 77.0726 40.339 78.1012 40.9658C78.2266 41.053 78.3682 41.1141 78.5176 41.1456C78.6671 41.1771 78.8213 41.1782 78.9712 41.149C79.121 41.1197 79.2635 41.0607 79.3902 40.9754C79.5168 40.8901 79.6251 40.7803 79.7085 40.6524L79.7005 38.792Z" fill="#D3766A"/>
<path d="M77.7758 37.6909V37.719C78.491 38.1811 78.7602 38.9808 78.9008 39.7804C78.8706 39.6942 78.822 39.6156 78.7584 39.5501C78.6949 39.4845 78.6178 39.4336 78.5326 39.4007C78.4474 39.3679 78.3561 39.3539 78.265 39.3598C78.1738 39.3657 78.0851 39.3913 78.0048 39.4348C77.9807 39.4348 78.0048 39.479 78.0048 39.479C78.1511 39.4621 78.2991 39.4918 78.4275 39.564C78.556 39.6361 78.6584 39.747 78.72 39.8808C78.8291 40.0982 78.9127 40.3274 78.9692 40.5639C78.9692 40.6403 79.1218 40.6282 79.1138 40.5639C79.3187 39.5272 78.8165 37.9963 77.7758 37.6909Z" fill="#263238"/>
<path d="M135.396 43.4732L92.1349 56.7241L99.9348 82.1888L143.196 68.9379L135.396 43.4732Z" fill="#FF7E31"/>
<path opacity="0.2" d="M135.396 43.4732L92.1349 56.7241L99.9348 82.1888L143.196 68.9379L135.396 43.4732Z" fill="black"/>
<path opacity="0.2" d="M135.394 43.4732L120.855 47.9263L128.655 73.3909L143.193 68.9379L135.394 43.4732Z" fill="black"/>
<path d="M134.697 44.771C134.207 47.0265 133.73 49.2821 133.267 51.5376L131.897 58.3203L130.571 65.1311C130.137 67.3973 129.713 69.6676 129.301 71.9419C129.791 69.689 130.268 67.4335 130.731 65.1753L132.102 58.3926L133.428 51.5979C133.862 49.3209 134.285 47.0453 134.697 44.771Z" fill="#FF7E31"/>
<path d="M141.838 68.0843C140.23 66.4342 138.608 64.7908 136.972 63.154L132.069 58.2679L127.135 53.418C125.485 51.8107 123.827 50.2035 122.161 48.5962C123.768 50.249 125.39 51.8924 127.027 53.5265L131.929 58.4126L136.863 63.2625C138.516 64.8859 140.174 66.4931 141.838 68.0843Z" fill="#FF7E31"/>
<path d="M100.444 60.0056L100.682 59.9326L99.6568 56.5863L99.4186 56.6592L100.444 60.0056Z" fill="#263238"/>
<path d="M99.8778 60.1755L100.116 60.1025L99.091 56.7562L98.8528 56.8291L99.8778 60.1755Z" fill="#263238"/>
<path d="M99.3067 60.3576L99.5449 60.2847L98.5199 56.9383L98.2817 57.0113L99.3067 60.3576Z" fill="#263238"/>
<path d="M98.7415 60.5217L98.9797 60.4487L97.9553 57.1022L97.7171 57.1751L98.7415 60.5217Z" fill="#263238"/>
<path d="M98.1712 60.6989L98.4094 60.626L97.3844 57.2796L97.1462 57.3526L98.1712 60.6989Z" fill="#263238"/>
<path d="M97.6042 60.8689L97.8424 60.7959L96.8174 57.4495L96.5792 57.5225L97.6042 60.8689Z" fill="#263238"/>
<path d="M97.0305 61.0564L97.2687 60.9834L96.2437 57.637L96.0055 57.71L97.0305 61.0564Z" fill="#263238"/>
<path d="M96.4627 61.2253L96.7009 61.1523L95.6753 57.8062L95.4371 57.8792L96.4627 61.2253Z" fill="#263238"/>
<path d="M95.8899 61.4055L96.1281 61.3325L95.103 57.9862L94.8648 58.0591L95.8899 61.4055Z" fill="#263238"/>
<path d="M102.066 56.1262L101.077 56.1503L103.219 55.4873L102.383 56.0257L102.761 57.2553C103.44 57.1388 103.898 57.7053 104.243 58.8304L102.102 59.5055C101.756 58.3844 101.816 57.6571 102.443 57.3718L102.066 56.1262Z" fill="#263238"/>
<path d="M104.219 56.9821L104.778 56.8093L104.276 55.1699L105.706 54.7319L106.208 56.3713L106.771 56.1986L106.015 58.2961L104.219 56.9821Z" fill="#263238"/>
<path opacity="0.1" d="M92.1367 56.725L92.7756 58.8144L122.679 53.8801L120.855 47.9292L92.1367 56.725Z" fill="black"/>
<path d="M148.801 71.8251L134.259 76.2772L128.654 73.3922L143.196 68.936L148.801 71.8251Z" fill="#FF7E31"/>
<path opacity="0.2" d="M148.801 71.8251L134.259 76.2772L128.654 73.3922L143.196 68.936L148.801 71.8251Z" fill="black"/>
<path d="M96.9064 87.721L111.448 83.2648L114.474 77.7358L99.9321 82.188L96.9064 87.721Z" fill="#FF7E31"/>
<path opacity="0.1" d="M96.9064 87.721L111.448 83.2648L114.474 77.7358L99.9321 82.188L96.9064 87.721Z" fill="black"/>
<path d="M72.974 52.7951C75.0996 59.9032 81.0103 72.0823 83.2043 73.569C85.137 74.8991 94.415 73.6896 98.4734 72.8096C99.9922 72.4841 96.8661 60.8877 95.2588 61.2694C93.314 61.7315 87.5238 62.8767 87.114 62.5592C86.7041 62.2418 81.0867 54.9247 77.0685 50.6333C73.42 46.7276 72.1703 50.1069 72.974 52.7951Z" fill="#D3766A"/>
<path d="M94.4231 62.2136C94.4231 62.2136 97.497 58.7499 99.6749 57.428C101.974 56.1122 104.558 55.3744 107.205 55.2782C110.062 55.1657 117.049 56.8614 116.909 58.9589C116.784 60.8595 109.732 58.762 109.732 58.762C109.732 58.762 117.274 59.7143 116.704 61.9765C116.133 64.2388 108.085 61.3336 108.085 61.3336C108.085 61.3336 115.812 62.4828 114.872 64.729C114.148 66.4206 106.711 64.2026 106.711 64.2026C106.711 64.2026 113.349 65.2393 112.678 67.0153C111.938 68.9722 104.943 67.3569 104.943 67.3569C102.488 71.5679 99.5905 72.5805 97.4488 73.0345C96.9144 73.127 94.4231 62.2136 94.4231 62.2136Z" fill="#D3766A"/>
<path d="M107.145 58.2637C108.033 58.344 108.937 58.4204 109.817 58.5771C110.697 58.7338 111.569 58.9267 112.433 59.1678C113.564 59.4586 114.659 59.8779 115.695 60.4174C113.787 59.5937 110.645 58.9749 109.765 58.8101C108.885 58.6454 108.013 58.4485 107.137 58.2918C107.113 58.2998 107.121 58.2637 107.145 58.2637Z" fill="#263238"/>
<path d="M106.514 61.434C107.643 61.5827 108.776 61.6911 109.901 61.8921C111.026 62.093 112.067 62.3823 113.172 62.6595C113.256 62.6796 113.216 62.7198 113.132 62.6997C112.015 62.4667 110.97 62.3381 109.853 62.1211C108.736 61.9041 107.627 61.6389 106.506 61.4581C106.49 61.4581 106.494 61.43 106.514 61.434Z" fill="#263238"/>
<path d="M105.481 64.0539C107.224 64.2431 108.942 64.612 110.608 65.1549C110.693 65.179 110.636 65.2232 110.548 65.2031C108.852 64.8013 107.522 64.4798 105.477 64.1142C105.445 64.1102 105.445 64.0499 105.481 64.0539Z" fill="#263238"/>
<path d="M97.5532 74.8669L94.853 60.9962L87.327 62.1775C84.45 58.7219 78.704 51.8106 76.3573 49.7212C73.6049 47.2661 71.7204 49.018 72.6646 52.6544C74.8264 60.968 81.3841 73.2476 83.1601 74.453C85.7076 76.1809 97.5532 74.8669 97.5532 74.8669Z" fill="#FF7E31"/>
<path opacity="0.1" d="M92.4582 62.921C92.8294 63.0017 93.2076 63.0461 93.5873 63.0536C94.391 63.1621 94.7446 64.3475 94.0133 64.7975C93.6292 65.0341 93.1951 65.1773 92.7457 65.2157C92.2963 65.254 91.8441 65.1865 91.4255 65.0185C90.6219 64.7051 89.9428 63.9256 90.1156 63.0094C90.1455 62.8386 90.2191 62.6785 90.3293 62.5446C90.4394 62.4107 90.5824 62.3076 90.7442 62.2453C90.906 62.183 91.0812 62.1636 91.2527 62.1891C91.4242 62.2146 91.5862 62.284 91.7229 62.3906C91.9456 62.5966 92.1925 62.7747 92.4582 62.921ZM91.6546 61.4986C91.9067 61.6201 92.1844 61.6792 92.4641 61.6708C92.7439 61.6624 93.0175 61.5868 93.2619 61.4504C93.3519 61.3902 93.4241 61.307 93.4708 61.2093L91.6546 61.4986ZM87.7449 62.1094C88.0648 62.3431 88.4597 62.4504 88.8539 62.4107C88.9898 62.3921 89.1149 62.3264 89.2074 62.2251C89.2999 62.1238 89.354 61.9933 89.3602 61.8562L87.7449 62.1094ZM96.2634 68.3014C96.1044 68.368 95.9756 68.4911 95.9018 68.6469C95.5643 69.326 96.0344 70.0573 96.7054 70.4953L96.2634 68.3014ZM84.1607 70.9694C84.0321 71.4154 84.016 71.8132 83.6825 72.1749C83.3234 72.4643 83.0021 72.7978 82.7262 73.1674C82.6796 73.2584 82.6573 73.3599 82.6617 73.4621C82.6661 73.5643 82.697 73.6635 82.7512 73.7502C82.8055 73.8369 82.8814 73.908 82.9713 73.9565C83.0613 74.0051 83.1624 74.0295 83.2646 74.0273C83.9647 73.9411 84.6069 73.5951 85.0639 73.0578C85.5208 72.5204 85.7592 71.831 85.7318 71.1261C85.7092 70.9455 85.626 70.7779 85.4957 70.6508C85.3654 70.5236 85.1959 70.4445 85.0147 70.4263C84.8336 70.408 84.6517 70.4519 84.4987 70.5505C84.3457 70.6492 84.2308 70.7969 84.1727 70.9694H84.1607ZM82.7744 67.0758C82.5494 67.6223 82.5896 68.2411 82.4007 68.8117C82.235 69.3348 82.0377 69.8473 81.81 70.3466C81.6413 70.7082 81.9788 71.2788 82.4168 71.086C83.1291 70.8125 83.7118 70.28 84.0482 69.5952C84.3535 68.9644 84.6911 67.9036 84.3977 67.2325C84.1044 66.5615 83.128 66.2842 82.7865 67.0758H82.7744ZM76.8114 52.8635C77.0359 52.911 77.2701 52.8698 77.4649 52.7484C77.6596 52.6271 77.7999 52.4351 77.8561 52.2126C78.0812 51.3487 77.3097 50.4607 76.6989 49.9222C76.0881 49.3838 75.2283 48.8936 74.3724 49.1708C74.2584 49.2078 74.1558 49.2732 74.0743 49.3609C73.9927 49.4486 73.9349 49.5557 73.9063 49.672C73.8777 49.7883 73.8793 49.91 73.911 50.0255C73.9426 50.141 74.0032 50.2466 74.0871 50.3321C74.4608 50.7982 74.9791 51.1357 75.3769 51.5938C75.7747 52.0519 76.1243 52.747 76.8235 52.8635H76.8114ZM79.9135 56.291C80.251 55.8048 79.9898 55.0856 79.7487 54.6235C79.6203 54.3686 79.4207 54.1564 79.1741 54.0127C79.0081 53.9065 78.807 53.8702 78.6143 53.9116C78.4217 53.9529 78.2532 54.0687 78.1455 54.2337C78.0359 54.4622 78.0186 54.7241 78.0972 54.965C78.1308 55.0911 78.1766 55.2135 78.2339 55.3307V55.3669V55.399C78.3057 55.7827 78.4682 56.1437 78.708 56.4518C78.791 56.5353 78.8922 56.5986 79.0037 56.6365C79.1151 56.6745 79.2339 56.6861 79.3506 56.6706C79.4673 56.655 79.5789 56.6126 79.6765 56.5468C79.7742 56.481 79.8553 56.3934 79.9135 56.291ZM78.9531 60.3092C79.1 60.3413 79.2522 60.3413 79.3991 60.3092C79.6219 60.2406 79.8101 60.0898 79.9255 59.8873C80.0335 59.6718 80.0873 59.4332 80.0822 59.1922C80.0749 58.9638 80.0129 58.7406 79.9014 58.5412L79.7688 58.3765L79.592 58.2479C79.4814 58.1908 79.3594 58.1595 79.235 58.1561C79.1106 58.1527 78.987 58.1774 78.8735 58.2284C78.76 58.2794 78.6594 58.3553 78.5793 58.4505C78.4992 58.5457 78.4415 58.6577 78.4107 58.7783C78.3438 59.0123 78.2967 59.2516 78.27 59.4935L78.3062 59.7145C78.3343 59.8254 78.3895 59.9276 78.4669 60.0119C78.5906 60.1462 78.7539 60.2377 78.933 60.2731L78.9531 60.3092ZM82.3244 56.2308L81.5207 55.3267C81.3923 55.3114 81.2628 55.3439 81.1568 55.418C81.0508 55.4921 80.9758 55.6026 80.9461 55.7285C80.914 55.9631 80.914 56.2011 80.9461 56.4357C80.9461 56.5361 80.9461 56.6366 80.9461 56.7411C80.9441 56.8925 80.9603 57.0436 80.9943 57.1911C81.0383 57.344 81.1322 57.4778 81.2612 57.5711C81.3901 57.6643 81.5466 57.7116 81.7056 57.7054C81.8626 57.6973 82.0129 57.6391 82.1344 57.5393C82.2559 57.4395 82.3422 57.3034 82.3806 57.1509C82.441 56.8444 82.4216 56.5276 82.3244 56.2308Z" fill="#030402"/>
<path d="M94.9575 73.5931C94.632 72.7693 93.8686 69.1932 93.6878 68.2971C93.5069 67.4011 92.9082 63.8008 92.7274 62.8806C92.7274 62.8324 92.7837 62.8002 92.7957 62.8525C92.9886 63.7566 93.8766 67.3207 94.0655 68.2127C94.2543 69.1048 94.9736 72.6809 95.0057 73.581C95.0073 73.5874 95.0063 73.5942 95.0029 73.5998C94.9995 73.6055 94.994 73.6095 94.9876 73.6111C94.9812 73.6127 94.9745 73.6117 94.9688 73.6083C94.9632 73.605 94.9591 73.5995 94.9575 73.5931Z" fill="#263238"/>
<path d="M92.4743 75.2569C91.2407 75.3292 90.0071 75.3573 88.7735 75.3493C87.5354 75.3547 86.2981 75.2836 85.0688 75.1363C84.4388 75.074 83.823 74.9112 83.2445 74.6542C82.7245 74.287 82.273 73.8314 81.9105 73.3081C81.1821 72.3026 80.5229 71.2487 79.9375 70.1538C78.7321 67.988 77.6954 65.7338 76.6828 63.4917C75.6702 61.2495 74.7501 58.9431 73.9062 56.6206C74.9309 58.8668 75.9435 61.1169 76.9962 63.347C78.049 65.5771 79.1138 67.7992 80.263 69.973C80.8366 71.0573 81.4697 72.109 82.1596 73.1232C82.4816 73.6282 82.8896 74.0729 83.365 74.4372C83.913 74.6899 84.4975 74.854 85.0969 74.9234C87.5441 75.2199 90.0103 75.3314 92.4743 75.2569Z" fill="#263238"/>
<path d="M74.6897 58.5815C74.5247 58.4148 74.3754 58.2332 74.2437 58.0391C74.1074 57.8468 74.0029 57.6337 73.9343 57.4082C73.9949 57.508 74.0606 57.6046 74.1312 57.6975L74.3281 57.9828C74.4604 58.1751 74.5811 58.375 74.6897 58.5815Z" fill="#263238"/>
<path d="M81.0345 54.8564C82.0511 55.8771 82.9633 56.9981 83.9075 58.071C84.8518 59.1438 85.7559 60.277 86.7203 61.3458L87.0779 61.7476C87.1422 61.8079 87.2024 61.8762 87.2627 61.9324C87.323 61.9887 87.323 61.9847 87.3511 62.0088C87.3511 62.0088 87.3792 62.0088 87.3953 62.0088C87.7007 62.0088 88.0864 61.9405 88.432 61.8963L90.5697 61.5788C91.9921 61.3699 93.4186 61.1529 94.845 60.96L94.9013 61.3136L94.8169 60.9641H94.837C93.4266 61.2654 92.0243 61.5346 90.5938 61.7958C89.8826 61.9244 89.1714 62.0369 88.4561 62.1454C88.0905 62.2089 87.7216 62.2518 87.3511 62.274C87.3218 62.2778 87.2921 62.2778 87.2627 62.274C87.2234 62.2622 87.1866 62.2431 87.1542 62.2177C87.1137 62.1863 87.0748 62.1527 87.0377 62.1173L86.8408 61.9244C86.7122 61.7918 86.5917 61.6592 86.4711 61.5226C85.5269 60.4256 84.6107 59.3166 83.7107 58.1915L82.3646 56.4999C81.9226 55.9735 81.5207 55.3949 81.0345 54.8564Z" fill="#263238"/>
<path d="M81.5609 54.9771C81.7122 55.163 81.8467 55.362 81.9627 55.5717C82.076 55.779 82.156 56.0027 82.1998 56.2347C82.1516 56.1263 82.0913 56.0298 82.0351 55.9253L81.8703 55.6159C81.7558 55.4087 81.6525 55.1954 81.5609 54.9771Z" fill="#263238"/>
<path d="M33.3668 160.048C33.2181 156.289 33.2704 152.524 33.5235 148.769C34.0777 141.032 35.2589 133.352 37.0555 125.806C38.04 121.554 39.2535 117.367 40.5192 113.197C40.5554 113.072 40.7563 113.108 40.7241 113.237C36.8144 127.959 33.6039 143.156 33.8249 158.457C33.8892 162.741 34.3834 166.948 34.7893 171.203C34.7893 171.319 34.6125 171.364 34.5884 171.247C33.7807 167.595 33.5195 163.769 33.3668 160.048Z" fill="#FF7E31"/>
<path d="M40.7241 113.217C40.7241 113.217 46.6469 128.253 45.3209 131.785C43.9949 135.317 41.2585 136.072 41.2585 136.072C41.2585 136.072 44.8749 141.248 42.3514 146.118C39.828 150.988 34.1945 150.738 33.8168 156.243C33.8168 156.227 33.5034 133.219 40.7241 113.217Z" fill="#FF7E31"/>
<path d="M34.4638 146.728C34.4539 146.702 34.4539 146.674 34.4638 146.648C35.2449 136.383 37.1736 126.238 40.2138 116.403C40.2138 116.375 40.2701 116.383 40.262 116.403C39.0887 120.799 38.052 125.219 37.152 129.663C37.9435 128.911 38.9104 128.37 39.9647 128.088C39.9647 128.088 39.9928 128.088 39.9647 128.116C38.8519 128.528 37.8523 129.197 37.0475 130.069C36.8761 130.937 36.7086 131.809 36.5452 132.685C37.8672 131.206 39.7035 130.471 41.5398 129.771C41.5639 129.771 41.58 129.804 41.5398 129.812C39.6272 130.591 37.7185 131.596 36.4247 133.243C35.9693 135.737 35.5675 138.24 35.2192 140.753C36.1768 139.755 37.404 139.057 38.7512 138.744C38.7914 138.744 38.8155 138.796 38.7512 138.808C37.3607 139.21 36.1169 140.007 35.171 141.103H35.1469C35.029 141.987 34.9179 142.872 34.8134 143.759C35.5767 143.129 36.4388 142.629 37.3649 142.28C37.389 142.28 37.4011 142.308 37.3649 142.316C36.4579 142.718 35.6273 143.274 34.9098 143.96C34.9098 143.96 34.9098 143.96 34.8777 143.96C34.7812 144.799 34.6808 145.643 34.5964 146.487C35.9308 144.875 37.6618 143.639 39.6191 142.899C39.6231 142.897 39.6273 142.896 39.6316 142.897C39.6358 142.897 39.6401 142.897 39.644 142.899C39.6479 142.901 39.6514 142.903 39.6544 142.906C39.6574 142.909 39.6597 142.913 39.6613 142.917C39.6629 142.921 39.6637 142.925 39.6636 142.929C39.6636 142.934 39.6627 142.938 39.661 142.942C39.6593 142.946 39.6569 142.949 39.6539 142.952C39.6508 142.955 39.6472 142.958 39.6432 142.959C37.7099 143.811 36.0114 145.118 34.6928 146.768C34.6793 146.788 34.6598 146.802 34.6373 146.809C34.6148 146.817 34.5906 146.816 34.5683 146.809C34.4397 148.102 34.3232 149.4 34.2308 150.698H34.1986C34.2629 149.384 34.3553 148.054 34.4638 146.728Z" fill="#263238"/>
<path d="M39.2213 126.609C40.2936 125.941 41.5193 125.559 42.7814 125.5C42.8095 125.5 42.8135 125.54 42.7814 125.544C41.5624 125.77 40.3787 126.156 39.2614 126.693C39.2509 126.695 39.24 126.694 39.2304 126.689C39.2209 126.684 39.2132 126.677 39.2085 126.667C39.2039 126.657 39.2027 126.646 39.205 126.636C39.2073 126.625 39.213 126.616 39.2213 126.609Z" fill="#263238"/>
<path d="M38.5021 142.525C39.3268 142.054 40.2336 141.744 41.1742 141.613C41.2063 141.613 41.2103 141.657 41.1742 141.661C40.2528 141.846 39.3616 142.159 38.5262 142.589C38.498 142.605 38.4659 142.545 38.5021 142.525Z" fill="#263238"/>
<path d="M17.7964 132.03C20.3008 133.762 22.6005 135.773 24.6514 138.025C26.7721 140.404 28.4098 143.173 29.4732 146.178C31.7207 152.439 32.93 159.026 33.0534 165.678C33.1304 169.362 32.7757 173.042 31.9966 176.643C31.9898 176.668 31.9738 176.69 31.9518 176.704C31.9298 176.718 31.9033 176.723 31.8777 176.719C31.852 176.714 31.8289 176.7 31.813 176.68C31.7971 176.659 31.7895 176.633 31.7917 176.607C32.7622 170.251 32.7297 163.782 31.6953 157.436C30.6747 151.216 29.0794 144.45 25.1256 139.395C22.9517 136.654 20.2676 134.481 17.6317 132.234C17.475 132.122 17.6518 131.929 17.7964 132.03Z" fill="#FF7E31"/>
<path d="M32.1694 161.202C30.7449 158.895 29.0699 156.752 27.1748 154.813C24.2094 151.851 21.7141 149.746 21.3284 147.785C20.9426 145.824 24.2978 144.386 24.2978 144.386C24.2978 144.386 20.1952 145.121 19.0742 143.397C17.9531 141.673 17.4106 131.712 17.4106 131.712C17.4106 131.712 24.8644 137.057 28.3481 144.502C31.8319 151.948 32.1694 161.202 32.1694 161.202Z" fill="#FF7E31"/>
<path d="M20.0747 141.075C20.5657 141.004 21.0629 140.988 21.5574 141.026C21.6177 141.026 21.6137 141.131 21.5574 141.131C21.0672 141.131 20.577 141.107 20.0827 141.131C20.0426 141.123 20.0426 141.075 20.0747 141.075Z" fill="#263238"/>
<path d="M25.443 150.718C26.2318 150.735 27.0114 150.891 27.7454 151.18C27.7454 151.18 27.7454 151.217 27.7454 151.213C26.986 151.032 26.2185 150.955 25.4511 150.831C25.3747 150.831 25.3787 150.718 25.443 150.718Z" fill="#263238"/>
<path d="M27.0542 147.387C27.3818 147.385 27.7089 147.414 28.0307 147.476C28.0628 147.476 28.0588 147.536 28.0307 147.536C27.7044 147.552 27.3773 147.536 27.0542 147.488C27.0433 147.485 27.0337 147.478 27.0269 147.469C27.0201 147.46 27.0164 147.449 27.0164 147.438C27.0164 147.426 27.0201 147.415 27.0269 147.406C27.0337 147.397 27.0433 147.39 27.0542 147.387Z" fill="#263238"/>
<path d="M54.0363 142.61C51.6101 143.432 49.2848 144.526 47.105 145.872C44.8479 147.314 42.8901 149.178 41.3389 151.361C38.0727 155.91 35.5712 160.962 33.9334 166.317C33.022 169.28 32.4583 172.34 32.2538 175.434C32.2538 175.457 32.2631 175.48 32.2797 175.497C32.2963 175.513 32.3187 175.522 32.3422 175.522C32.3656 175.522 32.3881 175.513 32.4047 175.497C32.4213 175.48 32.4306 175.457 32.4306 175.434C33.1096 170.073 34.624 164.852 36.9189 159.96C39.1811 155.162 42.038 150.055 46.4058 146.881C48.7846 145.149 51.4567 144.02 54.1207 142.823C54.2774 142.758 54.1971 142.561 54.0363 142.61Z" fill="#FF7E31"/>
<path d="M35.6652 162.893C37.3502 161.354 39.2005 160.007 41.1821 158.875C44.2681 157.163 46.7714 156.034 47.5389 154.54C48.3064 153.045 45.9316 151.1 45.9316 151.1C45.9316 151.1 49.0778 152.643 50.3838 151.502C51.6897 150.361 54.4301 142.425 54.4301 142.425C54.4301 142.425 47.1652 145.013 42.6246 150.252C38.0841 155.492 35.6652 162.893 35.6652 162.893Z" fill="#FF7E31"/>
<path d="M41.6966 155.596C42.4097 155.546 43.1258 155.634 43.8061 155.853C43.8061 155.853 43.8061 155.889 43.8061 155.885C43.1109 155.769 42.409 155.696 41.7046 155.668C41.695 155.67 41.6854 155.667 41.6778 155.661C41.6703 155.655 41.6655 155.646 41.6644 155.636C41.6633 155.627 41.6661 155.617 41.6722 155.61C41.6782 155.602 41.687 155.597 41.6966 155.596Z" fill="#263238"/>
<path d="M48.0373 147.279C48.3625 147.255 48.6893 147.274 49.0097 147.335C49.0158 147.337 49.0211 147.341 49.0249 147.347C49.0286 147.352 49.0306 147.359 49.0306 147.365C49.0306 147.372 49.0286 147.378 49.0249 147.384C49.0211 147.389 49.0158 147.393 49.0097 147.395C48.6922 147.359 48.3748 147.371 48.0533 147.363C48.0434 147.363 48.034 147.359 48.0265 147.352C48.0191 147.346 48.014 147.337 48.0121 147.327C48.0103 147.318 48.0117 147.308 48.0163 147.299C48.0209 147.29 48.0282 147.283 48.0373 147.279Z" fill="#263238"/>
<path d="M26.2908 185.455H42.693L40.3544 168.318L39.7557 163.926H29.2281L28.6294 168.318L26.2908 185.455Z" fill="#455A64"/>
<path d="M28.6294 168.318H40.3544L39.7557 163.926H29.2281L28.6294 168.318Z" fill="#263238"/>
<path d="M27.7173 166.12H41.2626V162.399H27.7173V166.12Z" fill="#455A64"/>
<path d="M113.666 24.4553C113.666 26.1089 113.206 27.73 112.338 29.1376C111.471 30.5453 110.229 31.6841 108.752 32.4272C107.274 33.1702 105.62 33.4881 103.972 33.3456C102.325 33.203 100.749 32.6055 99.4216 31.6197L95.0458 32.7368L96.866 28.6663C96.2254 27.4695 95.8661 26.1424 95.8154 24.7858C95.7648 23.4292 96.0242 22.079 96.5738 20.8378C97.1235 19.5965 97.9489 18.4969 98.9874 17.6226C100.026 16.7484 101.25 16.1224 102.567 15.7923C103.884 15.4623 105.258 15.4368 106.586 15.7179C107.914 15.999 109.161 16.5792 110.231 17.4145C111.301 18.2497 112.167 19.318 112.762 20.538C113.357 21.7581 113.666 23.0978 113.666 24.4553Z" fill="white"/>
<path d="M113.666 24.4511C113.666 26.1068 113.21 27.7304 112.348 29.1443C112.139 29.5008 111.908 29.8443 111.657 30.173C111.39 30.4877 111.105 30.7857 110.801 31.065C110.202 31.6302 109.525 32.1077 108.792 32.4834C108.056 32.8589 107.272 33.1294 106.461 33.2871C106.055 33.3681 105.642 33.4191 105.228 33.4398C104.815 33.4739 104.399 33.4739 103.986 33.4398C102.315 33.3101 100.712 32.7189 99.3573 31.732L99.4778 31.7561L95.1141 32.9053L94.7605 32.9978L94.9092 32.6602L96.7133 28.5818V28.7506C96.0571 27.5305 95.6903 26.1758 95.6416 24.7913C95.5928 23.4068 95.8633 22.0297 96.4321 20.7665C97.0016 19.5068 97.8492 18.3926 98.9113 17.5077C99.9721 16.6359 101.217 16.0156 102.551 15.6933C103.886 15.3711 105.276 15.3554 106.618 15.6473C107.948 15.9498 109.193 16.5456 110.263 17.3912C111.327 18.2342 112.186 19.3075 112.775 20.5303C113.365 21.7531 113.669 23.0936 113.666 24.4511ZM113.666 24.4511C113.665 22.4098 112.958 20.4317 111.665 18.8526C110.371 17.2735 108.571 16.1906 106.57 15.7879C105.253 15.5259 103.894 15.5671 102.596 15.9085C101.302 16.2427 100.102 16.8696 99.0881 17.7408C98.0837 18.6214 97.2829 19.7101 96.7415 20.9312C96.2074 22.1489 95.9574 23.4721 96.0102 24.8007C96.0721 26.1161 96.4233 27.4016 97.0388 28.5657L97.083 28.6501L97.0428 28.7345L95.2065 32.8009L95.0016 32.5598L99.3854 31.4749H99.4537L99.506 31.5151C100.805 32.5019 102.354 33.1072 103.978 33.263C104.379 33.2925 104.782 33.2925 105.184 33.263C106.412 33.2208 107.616 32.9152 108.716 32.3669C109.449 32.0098 110.126 31.5468 110.725 30.9927C111.028 30.7175 111.314 30.4236 111.581 30.1127C111.837 29.793 112.074 29.459 112.292 29.1122C113.169 27.7141 113.644 26.1015 113.666 24.4511Z" fill="#263238"/>
<path d="M105.36 25.4195V26.4039C105.363 26.5023 105.346 26.6002 105.309 26.6916C105.273 26.7831 105.218 26.8661 105.149 26.9357C105.079 27.0053 104.996 27.06 104.905 27.0963C104.813 27.1327 104.715 27.15 104.617 27.1473C104.52 27.1473 104.423 27.128 104.333 27.0906C104.243 27.0532 104.162 26.9984 104.093 26.9293C104.024 26.8602 103.97 26.7782 103.933 26.6881C103.896 26.5979 103.877 26.5013 103.878 26.4039V24.8328C103.878 24.8328 103.878 24.8328 103.878 24.8007C103.878 24.7685 103.878 24.8007 103.878 24.7725C103.883 24.5777 103.962 24.3921 104.1 24.2539C104.237 24.1157 104.422 24.0353 104.617 24.0292C104.846 24.0403 105.076 24.0048 105.291 23.9247C105.506 23.8447 105.703 23.7217 105.869 23.5634C106.035 23.405 106.168 23.2145 106.258 23.0034C106.349 22.7924 106.395 22.5651 106.395 22.3355C106.395 22.1059 106.349 21.8786 106.258 21.6676C106.168 21.4565 106.035 21.266 105.869 21.1077C105.703 20.9493 105.506 20.8263 105.291 20.7463C105.076 20.6662 104.846 20.6307 104.617 20.6418C104.324 20.6409 104.035 20.7173 103.78 20.8633C103.526 21.0093 103.314 21.2198 103.166 21.4736C103.117 21.5592 103.051 21.6342 102.973 21.6943C102.894 21.7544 102.804 21.7984 102.709 21.8237C102.613 21.8491 102.514 21.8554 102.416 21.8422C102.318 21.829 102.223 21.7966 102.138 21.7468C102.054 21.6972 101.981 21.6314 101.922 21.5534C101.864 21.4753 101.822 21.3865 101.798 21.292C101.774 21.1975 101.769 21.0993 101.783 21.0029C101.797 20.9065 101.831 20.8138 101.881 20.7302C102.145 20.2751 102.518 19.8927 102.967 19.6174C103.415 19.3421 103.925 19.1825 104.451 19.153C104.976 19.1234 105.501 19.2248 105.978 19.4481C106.454 19.6714 106.868 20.0096 107.182 20.4323C107.495 20.8549 107.699 21.3489 107.775 21.8698C107.85 22.3907 107.795 22.9222 107.615 23.4166C107.434 23.911 107.134 24.3528 106.74 24.7024C106.347 25.052 105.873 25.2984 105.36 25.4195ZM105.36 28.7345V29.0077C105.363 29.1057 105.345 29.2032 105.308 29.2942C105.272 29.3851 105.217 29.4677 105.147 29.5369C105.078 29.606 104.995 29.6603 104.904 29.6964C104.813 29.7326 104.715 29.7498 104.617 29.747C104.421 29.747 104.233 29.6691 104.094 29.5305C103.956 29.3918 103.878 29.2038 103.878 29.0077V28.7345C103.88 28.5386 103.958 28.3514 104.096 28.2125C104.234 28.0737 104.421 27.9942 104.617 27.9911C104.715 27.99 104.812 28.0085 104.903 28.0455C104.993 28.0825 105.076 28.1372 105.145 28.2064C105.214 28.2757 105.269 28.358 105.306 28.4487C105.343 28.5394 105.361 28.6365 105.36 28.7345Z" fill="#FF7E31"/>
</svg>
