<svg width="326" height="352" viewBox="0 0 326 352" fill="none" xmlns="http://www.w3.org/2000/svg">
<path d="M295.096 188.092C295.056 126.9 304.256 110.7 271.096 59.004C237.936 7.30794 156.648 -4.14006 95.176 34.204C33.704 72.548 17.176 121.86 17.176 121.86C17.176 121.86 -5.12798 179.46 26.216 237.46C54.88 290.516 111.328 320.66 160.288 345.46H285.48C293.09 339.047 299.56 331.392 304.616 322.82C330.112 279.916 295.144 249.284 295.096 188.092Z" fill="#FF613E" fill-opacity="0.68"/>
<path opacity="0.7" d="M295.096 188.092C295.056 126.9 304.256 110.7 271.096 59.004C237.936 7.30794 156.648 -4.14006 95.176 34.204C33.704 72.548 17.176 121.86 17.176 121.86C17.176 121.86 -5.12798 179.46 26.216 237.46C54.88 290.516 111.328 320.66 160.288 345.46H285.48C293.09 339.047 299.56 331.392 304.616 322.82C330.112 279.916 295.144 249.284 295.096 188.092Z" fill="white"/>
<path d="M146.664 20.7638C147.744 25.0438 147.216 17.1638 149.336 7.51584C151.456 -2.13216 155.08 1.78784 155.08 1.78784" stroke="#263238" stroke-linecap="round" stroke-linejoin="round"/>
<path d="M146 10.9079L152.648 8.18787" stroke="#263238" stroke-linecap="round" stroke-linejoin="round"/>
<path d="M158.144 4.92383C158.144 4.92383 154.144 13.1318 160.152 16.6278" stroke="#263238" stroke-linecap="round" stroke-linejoin="round"/>
<path d="M163.776 2.58789C163.776 2.58789 170.328 6.22789 166.224 14.1159" stroke="#263238" stroke-linecap="round" stroke-linejoin="round"/>
<path d="M159.28 7.69983L163.976 11.1318" stroke="#263238" stroke-linecap="round" stroke-linejoin="round"/>
<path d="M162.968 6.1958L159.288 12.0438" stroke="#263238" stroke-linecap="round" stroke-linejoin="round"/>
<path d="M19.88 214.124C19.88 214.124 8.73599 213.964 8.67999 223.58" stroke="#263238" stroke-linecap="round" stroke-linejoin="round"/>
<path d="M18.952 220.188C18.72 218.772 13.872 216.988 13.032 220.684C12.192 224.38 18.216 222.164 20.08 220.436C20.08 220.436 16.624 223.796 17.68 224.74" stroke="#263238" stroke-linecap="round" stroke-linejoin="round"/>
<path d="M19.632 225.788C19.632 225.788 18.168 227.62 16.584 226.748" stroke="#263238" stroke-linecap="round" stroke-linejoin="round"/>
<path d="M29.384 219.388L21.024 227.876C21.024 227.876 25.232 223.612 27.672 224.988C30.712 226.652 26.768 231.212 23.52 227.948" stroke="#263238" stroke-linecap="round" stroke-linejoin="round"/>
<path d="M33.608 221.676C33.608 221.676 35.824 231.828 24.384 232.188" stroke="#263238" stroke-linecap="round" stroke-linejoin="round"/>
<path d="M182.856 49.0919L186.888 49.7559L186.944 58.9159L195.776 42.8119L209.712 45.0999" stroke="#263238" stroke-linecap="round" stroke-linejoin="round"/>
<path d="M197.304 49.8678L203.432 60.6838" stroke="#263238" stroke-linecap="round" stroke-linejoin="round"/>
<path d="M205.008 51.1318L194.04 59.1398" stroke="#263238" stroke-linecap="round" stroke-linejoin="round"/>
<path d="M127.76 65.3958C126.728 64.0838 120.784 65.0198 121.992 69.2278C123.2 73.4358 128.112 67.8278 129.048 65.0198C129.048 65.0198 127.408 70.3878 129.048 70.7478" stroke="#263238" stroke-linecap="round" stroke-linejoin="round"/>
<path d="M132.312 61.0679L130.984 65.7879C130.984 65.7879 131.648 63.3879 132.816 63.3879C134.248 63.3879 133.728 65.7879 131.896 65.2919" stroke="#263238" stroke-linecap="round" stroke-linejoin="round"/>
<path d="M244.376 119.244L241.576 129.364L247.696 136.068" stroke="#263238" stroke-linecap="round" stroke-linejoin="round"/>
<path d="M247.88 123.356L254.888 129.22" stroke="#263238" stroke-linecap="round" stroke-linejoin="round"/>
<path d="M252.704 121.916L249.672 129.364" stroke="#263238" stroke-linecap="round" stroke-linejoin="round"/>
<path d="M257.632 128.404C257.632 128.404 257.696 130.516 256.784 130.804" stroke="#263238" stroke-linecap="round" stroke-linejoin="round"/>
<path d="M258.52 121.028L262.752 124.172" stroke="#263238" stroke-linecap="round" stroke-linejoin="round"/>
<path d="M264.32 118.444L260.144 133.484" stroke="#263238" stroke-linecap="round" stroke-linejoin="round"/>
<path d="M264.528 113.22L271.312 120.9L268.424 129.3" stroke="#263238" stroke-linecap="round" stroke-linejoin="round"/>
<path d="M77.696 311.396L87.512 282.18L99.416 295.468L77.696 311.396Z" stroke="#263238" stroke-linecap="round" stroke-linejoin="round"/>
<path d="M96.496 297.604L93.984 294.732L96.664 292.412" stroke="#263238" stroke-linecap="round" stroke-linejoin="round"/>
<path d="M19.6752 147.25C24.7736 145.138 27.1947 139.293 25.0829 134.194C22.971 129.096 17.1261 126.675 12.0277 128.787C6.92933 130.899 4.50825 136.744 6.62006 141.842C8.73187 146.94 14.5769 149.361 19.6752 147.25Z" stroke="#263238" stroke-linecap="round" stroke-linejoin="round"/>
<path d="M26.936 140.356C33.0597 140.356 38.024 135.392 38.024 129.268C38.024 123.144 33.0597 118.18 26.936 118.18C20.8123 118.18 15.848 123.144 15.848 129.268C15.848 135.392 20.8123 140.356 26.936 140.356Z" stroke="#263238" stroke-linecap="round" stroke-linejoin="round"/>
<path d="M17.816 128.22L16.464 132.916" stroke="#263238" stroke-linecap="round" stroke-linejoin="round"/>
<path d="M19.728 128.804L17.816 135.572" stroke="#263238" stroke-linecap="round" stroke-linejoin="round"/>
<path d="M21.736 129.94L19.728 137.596" stroke="#263238" stroke-linecap="round" stroke-linejoin="round"/>
<path d="M23.968 132.188L22.536 139.452" stroke="#263238" stroke-linecap="round" stroke-linejoin="round"/>
<path d="M25.224 134.556L23.968 139.956" stroke="#263238" stroke-linecap="round" stroke-linejoin="round"/>
<path d="M6.29598 125.212C5.42398 124.948 3.03198 127.22 4.88798 128.748C6.74398 130.276 7.21598 126.204 6.75998 124.644C6.75998 124.644 7.69598 127.58 8.54398 127.228" stroke="#263238" stroke-linecap="round" stroke-linejoin="round"/>
<path d="M19.192 112.388L22.392 118.212C22.392 118.212 20.792 115.3 21.92 114.212C23.296 112.868 25.12 115.708 22.816 116.9" stroke="#263238" stroke-linecap="round" stroke-linejoin="round"/>
<path d="M77.664 111.692L82.184 115.972" stroke="#263238" stroke-linecap="round" stroke-linejoin="round"/>
<path d="M82.184 110.58L78.4 116.228" stroke="#263238" stroke-linecap="round" stroke-linejoin="round"/>
<path d="M86.632 112.204L91.152 110.516" stroke="#263238" stroke-linecap="round" stroke-linejoin="round"/>
<path d="M93.3199 105.804L96.0719 108.236" stroke="#263238" stroke-linecap="round" stroke-linejoin="round"/>
<path d="M98.176 102.876L94.696 114.828" stroke="#263238" stroke-linecap="round" stroke-linejoin="round"/>
<path d="M295.744 100.476L295.552 91.3398H302.456C302.456 91.3398 298.632 93.4518 300.392 98.3638C302.152 103.276 304.984 100.476 304.984 100.476" stroke="#263238" stroke-linecap="round" stroke-linejoin="round"/>
<path d="M284.048 256.324L291.904 250.916L302.304 251.644L302.952 264.828L295.32 270.292L285.896 269.604L284.048 256.324Z" stroke="#263238" stroke-linecap="round" stroke-linejoin="round"/>
<path d="M285.896 269.604L293.496 264.132L302.952 264.828" stroke="#263238" stroke-linecap="round" stroke-linejoin="round"/>
<path d="M293.504 264.132L291.904 250.916" stroke="#263238" stroke-linecap="round" stroke-linejoin="round"/>
<path d="M284.048 256.324L294.424 257.524L302.304 251.644" stroke="#263238" stroke-linecap="round" stroke-linejoin="round"/>
<path d="M294.424 257.524L295.32 270.292" stroke="#263238" stroke-linecap="round" stroke-linejoin="round"/>
<path d="M285.48 157.3L285.144 174.876L300.544 167.884L285.48 157.3Z" stroke="#263238" stroke-linecap="round" stroke-linejoin="round"/>
<path d="M285.48 157.3L292.816 171.292" stroke="#263238" stroke-linecap="round" stroke-linejoin="round"/>
<path d="M291.64 169.044L293.424 168.18L294.624 170.572" stroke="#263238" stroke-linecap="round" stroke-linejoin="round"/>
<path d="M151.208 155.636L157.576 162.46" stroke="#263238" stroke-linecap="round" stroke-linejoin="round"/>
<path d="M157.624 154.716L152.272 162.044" stroke="#263238" stroke-linecap="round" stroke-linejoin="round"/>
<path d="M160.232 151.14C160.538 150.998 160.887 150.983 161.203 151.099C161.52 151.214 161.777 151.451 161.92 151.756C161.97 151.865 162.005 151.981 162.024 152.1C162.336 153.636 159.816 155.636 159.816 155.636H163.408" stroke="#263238" stroke-linecap="round" stroke-linejoin="round"/>
<path d="M52.064 53.3878C52.3689 49.5115 53.6457 45.7746 55.7767 42.5222C57.9076 39.2699 60.8239 36.6071 64.256 34.7798" stroke="#263238" stroke-linecap="round" stroke-linejoin="round"/>
<path d="M69.752 77.7878C63.9173 76.3884 58.8545 72.7771 55.632 67.7158" stroke="#263238" stroke-linecap="round" stroke-linejoin="round"/>
<path d="M98.272 57.0758C97.7782 63.2025 94.8732 68.8829 90.1949 72.8697C85.5167 76.8565 79.4475 78.8239 73.32 78.3398" stroke="#263238" stroke-linecap="round" stroke-linejoin="round"/>
<path d="M77.008 32.1318C82.2754 32.5541 87.2408 34.7619 91.0828 38.3901C94.9248 42.0182 97.4131 46.8492 98.136 52.0838" stroke="#263238" stroke-linecap="round" stroke-linejoin="round"/>
<path d="M85.168 73.0758C81.9342 74.8901 78.268 75.7913 74.5616 75.6831C70.8552 75.5748 67.2479 74.4612 64.1254 72.4612C61.003 70.4612 58.483 67.6501 56.8348 64.3286C55.1865 61.007 54.4721 57.2999 54.768 53.6038" stroke="#263238" stroke-linecap="round" stroke-linejoin="round"/>
<path d="M56.08 47.8758C57.1564 45.0774 58.8349 42.5497 60.9966 40.4719C63.1583 38.3941 65.7503 36.8169 68.5892 35.852C71.4281 34.8871 74.4443 34.558 77.4245 34.8882C80.4046 35.2183 83.2757 36.1995 85.8346 37.7624C88.3934 39.3252 90.5774 41.4315 92.2319 43.932C93.8864 46.4326 94.971 49.2662 95.4089 52.2325C95.8468 55.1987 95.6272 58.2249 94.7658 61.0969C93.9044 63.9688 92.4221 66.6163 90.424 68.8518" stroke="#263238" stroke-linecap="round" stroke-linejoin="round"/>
<path d="M73.16 40.5159L75.168 55.2359L86.48 51.7159" stroke="#263238" stroke-linecap="round" stroke-linejoin="round"/>
<path d="M251.552 83.8438C248.3 83.8752 245.116 82.9179 242.42 81.0987C239.724 79.2795 237.645 76.6843 236.457 73.6569C235.27 70.6294 235.03 67.3126 235.77 64.1458C236.51 60.9791 238.194 58.1118 240.6 55.9238" stroke="#263238" stroke-linecap="round" stroke-linejoin="round"/>
<path d="M266.584 72.9878C265.804 75.2869 264.512 77.3785 262.804 79.1041C261.097 80.8297 259.019 82.1441 256.728 82.9478" stroke="#263238" stroke-linecap="round" stroke-linejoin="round"/>
<path d="M246.072 52.6598C250.086 51.2472 254.497 51.4869 258.335 53.3262C262.173 55.1655 265.123 58.4538 266.536 62.4678" stroke="#263238" stroke-linecap="round" stroke-linejoin="round"/>
<path d="M259.32 56.0598C260.978 57.1805 262.38 58.6399 263.433 60.342C264.486 62.044 265.166 63.9499 265.429 65.934C265.691 67.9181 265.53 69.9353 264.956 71.8527C264.382 73.77 263.409 75.5439 262.099 77.0574C260.789 78.5708 259.174 79.7895 257.359 80.633C255.544 81.4764 253.571 81.9256 251.569 81.9507C249.568 81.9759 247.584 81.5766 245.749 80.779C243.913 79.9815 242.267 78.8038 240.92 77.3238" stroke="#263238" stroke-linecap="round" stroke-linejoin="round"/>
<path d="M238.032 72.4918C237.181 70.0691 237.004 67.4604 237.521 64.9451C238.038 62.4297 239.23 60.1023 240.968 58.2121C242.706 56.3218 244.926 54.9398 247.389 54.214C249.852 53.4882 252.467 53.446 254.952 54.0918" stroke="#263238" stroke-linecap="round" stroke-linejoin="round"/>
<path d="M245.992 59.0519L251.4 67.7959L246.472 74.1879" stroke="#263238" stroke-linecap="round" stroke-linejoin="round"/>
<path d="M138.032 306.932C138.024 304.833 138.531 302.765 139.507 300.907C140.483 299.05 141.899 297.46 143.632 296.276" stroke="#263238" stroke-linecap="round" stroke-linejoin="round"/>
<path d="M160.2 315.796C158.674 317.4 156.76 318.584 154.643 319.233C152.525 319.881 150.277 319.973 148.114 319.498C145.951 319.024 143.947 317.999 142.296 316.524C140.645 315.048 139.402 313.172 138.688 311.076" stroke="#263238" stroke-linecap="round" stroke-linejoin="round"/>
<path d="M150.872 294.06C154.286 294.06 157.56 295.416 159.974 297.83C162.388 300.244 163.744 303.518 163.744 306.932" stroke="#263238" stroke-linecap="round" stroke-linejoin="round"/>
<path d="M150.872 318.284C147.861 318.284 144.974 317.088 142.845 314.959C140.716 312.83 139.52 309.943 139.52 306.932" stroke="#263238" stroke-linecap="round" stroke-linejoin="round"/>
<path d="M142.032 299.804C143.084 298.504 144.411 297.452 145.917 296.724C147.422 295.996 149.07 295.609 150.743 295.592C152.415 295.574 154.071 295.927 155.592 296.623C157.113 297.319 158.461 298.343 159.54 299.621C160.619 300.899 161.403 302.399 161.836 304.015C162.268 305.631 162.338 307.322 162.041 308.968C161.744 310.614 161.088 312.174 160.118 313.537C159.148 314.9 157.89 316.032 156.432 316.852" stroke="#263238" stroke-linecap="round" stroke-linejoin="round"/>
<path d="M149.112 314.644L150.872 306.932L148.416 300.628" stroke="#263238" stroke-linecap="round" stroke-linejoin="round"/>
<path d="M1 345.748H324.664" stroke="#263238" stroke-linecap="round" stroke-linejoin="round"/>
<path d="M165.224 177.052L159.952 277.428L93.16 273.924L93.72 263.284L98.432 173.54L140.488 175.748L165.224 177.052Z" fill="white"/>
<mask id="mask0_6_7813" style="mask-type:luminance" maskUnits="userSpaceOnUse" x="93" y="173" width="73" height="105">
<path d="M165.224 177.052L159.952 277.428L93.16 273.924L93.72 263.284L98.432 173.54L140.488 175.748L165.224 177.052Z" fill="white"/>
</mask>
<g mask="url(#mask0_6_7813)">
<path opacity="0.2" d="M144.376 235.86L129.328 237.1L133.72 256.052L93.72 263.284L98.432 173.54L140.488 175.748L144.376 235.86Z" fill="black" fill-opacity="0.7"/>
</g>
<path d="M165.224 177.052L159.952 277.428L93.16 273.924L93.72 263.284L98.432 173.54L140.488 175.748L165.224 177.052Z" stroke="#263238" stroke-linecap="round" stroke-linejoin="round"/>
<path d="M103.144 180.404L120.528 181.316" stroke="#263238" stroke-width="2" stroke-linecap="round" stroke-linejoin="round"/>
<path d="M102.968 183.74L114.792 184.364" stroke="#263238" stroke-width="2" stroke-linecap="round" stroke-linejoin="round"/>
<path d="M106.792 191.844L156.792 194.468" stroke="#263238" stroke-width="2" stroke-linecap="round" stroke-linejoin="round"/>
<path d="M106.616 195.18L156.616 197.804" stroke="#263238" stroke-width="2" stroke-linecap="round" stroke-linejoin="round"/>
<path d="M106.416 199.076L149.056 201.308" stroke="#263238" stroke-width="2" stroke-linecap="round" stroke-linejoin="round"/>
<path d="M106.433 202.63L106.22 206.696L110.286 206.91L110.5 202.844L106.433 202.63Z" stroke="#263238" stroke-linecap="round" stroke-linejoin="round"/>
<path d="M113.804 203.02L113.59 207.087L117.657 207.3L117.871 203.234L113.804 203.02Z" stroke="#263238" stroke-linecap="round" stroke-linejoin="round"/>
<path d="M121.166 203.411L120.952 207.477L125.019 207.691L125.233 203.625L121.166 203.411Z" stroke="#263238" stroke-linecap="round" stroke-linejoin="round"/>
<path d="M128.537 203.801L128.323 207.868L132.389 208.081L132.603 204.015L128.537 203.801Z" stroke="#263238" stroke-linecap="round" stroke-linejoin="round"/>
<path d="M104.128 191.7C104.123 191.833 104.092 191.963 104.036 192.083C103.981 192.203 103.902 192.311 103.805 192.401C103.707 192.491 103.593 192.561 103.469 192.607C103.345 192.653 103.212 192.673 103.08 192.668C102.811 192.654 102.558 192.534 102.377 192.334C102.196 192.133 102.102 191.87 102.116 191.6C102.13 191.331 102.25 191.078 102.45 190.897C102.651 190.716 102.915 190.622 103.184 190.636C103.316 190.642 103.446 190.674 103.566 190.731C103.686 190.787 103.794 190.867 103.883 190.965C103.972 191.063 104.041 191.178 104.086 191.303C104.131 191.427 104.15 191.56 104.144 191.692L104.128 191.7Z" fill="#263238"/>
<path d="M105.768 211.308L155.768 213.932" stroke="#263238" stroke-width="2" stroke-linecap="round" stroke-linejoin="round"/>
<path d="M105.592 214.644L155.592 217.268" stroke="#263238" stroke-width="2" stroke-linecap="round" stroke-linejoin="round"/>
<path d="M105.392 218.54L148.032 220.772" stroke="#263238" stroke-width="2" stroke-linecap="round" stroke-linejoin="round"/>
<path d="M105.401 222.106L105.187 226.173L109.253 226.387L109.467 222.32L105.401 222.106Z" stroke="#263238" stroke-linecap="round" stroke-linejoin="round"/>
<path d="M112.779 222.489L112.565 226.555L116.632 226.769L116.846 222.703L112.779 222.489Z" stroke="#263238" stroke-linecap="round" stroke-linejoin="round"/>
<path d="M120.141 222.872L119.928 226.938L123.994 227.152L124.208 223.085L120.141 222.872Z" stroke="#263238" stroke-linecap="round" stroke-linejoin="round"/>
<path d="M127.504 223.262L127.29 227.328L131.356 227.542L131.57 223.476L127.504 223.262Z" stroke="#263238" stroke-linecap="round" stroke-linejoin="round"/>
<path d="M103.112 211.164C103.106 211.298 103.073 211.429 103.017 211.55C102.96 211.67 102.88 211.779 102.781 211.869C102.682 211.959 102.566 212.028 102.441 212.074C102.315 212.119 102.181 212.139 102.048 212.132C101.846 212.122 101.651 212.053 101.488 211.933C101.326 211.812 101.202 211.646 101.134 211.456C101.065 211.265 101.054 211.059 101.103 210.862C101.152 210.666 101.258 210.488 101.408 210.352C101.557 210.216 101.744 210.127 101.944 210.097C102.144 210.067 102.349 210.096 102.532 210.182C102.716 210.268 102.869 210.407 102.974 210.58C103.078 210.754 103.129 210.954 103.12 211.156L103.112 211.164Z" fill="#263238"/>
<path d="M104.752 230.772L154.744 233.396" stroke="#263238" stroke-width="2" stroke-linecap="round" stroke-linejoin="round"/>
<path d="M104.576 234.108L154.568 236.732" stroke="#263238" stroke-width="2" stroke-linecap="round" stroke-linejoin="round"/>
<path d="M104.368 237.996L147.008 240.236" stroke="#263238" stroke-width="2" stroke-linecap="round" stroke-linejoin="round"/>
<path d="M104.385 241.559L104.171 245.625L108.237 245.839L108.451 241.773L104.385 241.559Z" stroke="#263238" stroke-linecap="round" stroke-linejoin="round"/>
<path d="M112.618 241.925L112.414 246L116.489 246.203L116.693 242.128L112.618 241.925Z" stroke="#263238" stroke-width="1.00125" stroke-linecap="round" stroke-linejoin="round"/>
<path d="M119.117 242.34L118.903 246.407L122.969 246.621L123.183 242.554L119.117 242.34Z" stroke="#263238" stroke-linecap="round" stroke-linejoin="round"/>
<path d="M126.496 242.722L126.282 246.789L130.348 247.002L130.562 242.936L126.496 242.722Z" stroke="#263238" stroke-linecap="round" stroke-linejoin="round"/>
<path d="M102.088 230.628C102.082 230.762 102.049 230.893 101.993 231.013C101.936 231.134 101.856 231.243 101.757 231.333C101.658 231.423 101.542 231.492 101.417 231.537C101.291 231.583 101.157 231.603 101.024 231.596C100.752 231.596 100.492 231.488 100.3 231.296C100.108 231.104 100 230.844 100 230.572C100 230.301 100.108 230.04 100.3 229.848C100.492 229.656 100.752 229.548 101.024 229.548H101.168C101.301 229.554 101.432 229.587 101.553 229.644C101.674 229.7 101.783 229.78 101.873 229.879C101.963 229.978 102.032 230.094 102.077 230.219C102.123 230.345 102.142 230.479 102.136 230.612L102.088 230.628Z" fill="#263238"/>
<path d="M103.696 250.788L153.688 253.42" stroke="#263238" stroke-width="2" stroke-linecap="round" stroke-linejoin="round"/>
<path d="M103.52 254.124L153.52 256.756" stroke="#263238" stroke-width="2" stroke-linecap="round" stroke-linejoin="round"/>
<path d="M103.32 258.02L145.96 260.26" stroke="#263238" stroke-width="2" stroke-linecap="round" stroke-linejoin="round"/>
<path d="M103.325 261.585L103.111 265.651L107.177 265.865L107.391 261.799L103.325 261.585Z" stroke="#263238" stroke-linecap="round" stroke-linejoin="round"/>
<path d="M110.704 261.967L110.491 266.034L114.557 266.247L114.771 262.181L110.704 261.967Z" stroke="#263238" stroke-linecap="round" stroke-linejoin="round"/>
<path d="M118.083 262.35L117.869 266.416L121.935 266.63L122.149 262.564L118.083 262.35Z" stroke="#263238" stroke-linecap="round" stroke-linejoin="round"/>
<path d="M125.445 262.749L125.231 266.815L129.298 267.029L129.511 262.963L125.445 262.749Z" stroke="#263238" stroke-linecap="round" stroke-linejoin="round"/>
<path d="M101.032 250.652C101.021 250.853 100.95 251.045 100.829 251.206C100.709 251.366 100.543 251.487 100.353 251.554C100.164 251.62 99.959 251.629 99.7645 251.579C99.57 251.529 99.3947 251.422 99.2608 251.272C99.1268 251.123 99.0402 250.937 99.0118 250.738C98.9835 250.539 99.0147 250.337 99.1015 250.155C99.1883 249.974 99.3268 249.823 99.4995 249.721C99.6723 249.618 99.8715 249.569 100.072 249.58C100.206 249.587 100.336 249.621 100.457 249.678C100.577 249.736 100.685 249.817 100.775 249.917C100.864 250.016 100.932 250.133 100.977 250.259C101.021 250.385 101.04 250.519 101.032 250.652Z" fill="#263238"/>
<path d="M107.816 204.324L108.344 205.236L110.512 202.844" stroke="#263238" stroke-width="2" stroke-linecap="round" stroke-linejoin="round"/>
<path d="M121.544 224.316L122.072 225.228L124.24 222.836" stroke="#263238" stroke-width="2" stroke-linecap="round" stroke-linejoin="round"/>
<path d="M128.432 244.86L128.96 245.772L131.128 243.372" stroke="#263238" stroke-width="2" stroke-linecap="round" stroke-linejoin="round"/>
<path d="M112.112 263.196L112.64 264.1L114.808 261.708" stroke="#263238" stroke-width="2" stroke-linecap="round" stroke-linejoin="round"/>
<path d="M120.84 249.02L56.4 266.932L29.488 170.076L56.168 162.66L93.928 152.172L118.344 240.044L120.84 249.02Z" fill="white"/>
<mask id="mask1_6_7813" style="mask-type:luminance" maskUnits="userSpaceOnUse" x="29" y="152" width="92" height="115">
<path d="M120.84 249.02L56.4 266.932L29.488 170.076L56.168 162.66L93.928 152.172L118.344 240.044L120.84 249.02Z" fill="white"/>
</mask>
<g mask="url(#mask1_6_7813)">
<path opacity="0.2" d="M118.344 240.044L68.52 243.268L56.168 162.66L93.928 152.172L118.344 240.044Z" fill="black" fill-opacity="0.7"/>
</g>
<path d="M120.84 249.02L56.4 266.932L29.488 170.076L56.168 162.66L93.928 152.172L118.344 240.044L120.84 249.02Z" stroke="#263238" stroke-linecap="round" stroke-linejoin="round"/>
<path d="M36.144 175.084L52.912 170.428" stroke="#263238" stroke-width="2" stroke-linecap="round" stroke-linejoin="round"/>
<path d="M37.032 178.308L48.44 175.14" stroke="#263238" stroke-width="2" stroke-linecap="round" stroke-linejoin="round"/>
<path d="M43.232 184.772L91.472 171.372" stroke="#263238" stroke-width="2" stroke-linecap="round" stroke-linejoin="round"/>
<path d="M44.128 187.988L92.368 174.588" stroke="#263238" stroke-width="2" stroke-linecap="round" stroke-linejoin="round"/>
<path d="M45.168 191.748L86.312 180.316" stroke="#263238" stroke-width="2" stroke-linecap="round" stroke-linejoin="round"/>
<path d="M50.2521 194.024L46.3288 195.114L47.419 199.037L51.3423 197.947L50.2521 194.024Z" stroke="#263238" stroke-linecap="round" stroke-linejoin="round"/>
<path d="M57.3652 192.04L53.4419 193.13L54.5321 197.054L58.4555 195.963L57.3652 192.04Z" stroke="#263238" stroke-linecap="round" stroke-linejoin="round"/>
<path d="M64.4802 190.062L60.5569 191.152L61.6471 195.075L65.5705 193.985L64.4802 190.062Z" stroke="#263238" stroke-linecap="round" stroke-linejoin="round"/>
<path d="M71.5822 188.09L67.6589 189.18L68.7491 193.103L72.6725 192.013L71.5822 188.09Z" stroke="#263238" stroke-linecap="round" stroke-linejoin="round"/>
<path d="M40.664 185.484C40.7362 185.744 40.7021 186.022 40.5693 186.257C40.4365 186.491 40.2159 186.664 39.956 186.736C39.6961 186.808 39.4182 186.774 39.1834 186.641C38.9486 186.509 38.7761 186.288 38.704 186.028C38.6319 185.768 38.6659 185.49 38.7987 185.255C38.9315 185.021 39.1521 184.848 39.412 184.776C39.6719 184.704 39.9498 184.738 40.1846 184.871C40.4194 185.004 40.5919 185.224 40.664 185.484Z" fill="#263238"/>
<path d="M48.448 203.548L96.6881 190.148" stroke="#263238" stroke-width="2" stroke-linecap="round" stroke-linejoin="round"/>
<path d="M49.344 206.772L97.584 193.364" stroke="#263238" stroke-width="2" stroke-linecap="round" stroke-linejoin="round"/>
<path d="M50.392 210.524L91.528 199.092" stroke="#263238" stroke-width="2" stroke-linecap="round" stroke-linejoin="round"/>
<path d="M55.4725 212.796L51.5492 213.886L52.6394 217.809L56.5627 216.719L55.4725 212.796Z" stroke="#263238" stroke-linecap="round" stroke-linejoin="round"/>
<path d="M62.5801 210.822L58.6567 211.912L59.747 215.835L63.6703 214.745L62.5801 210.822Z" stroke="#263238" stroke-linecap="round" stroke-linejoin="round"/>
<path d="M69.6954 208.846L65.772 209.936L66.8623 213.859L70.7856 212.769L69.6954 208.846Z" stroke="#263238" stroke-linecap="round" stroke-linejoin="round"/>
<path d="M76.8162 206.86L72.8929 207.95L73.9831 211.873L77.9064 210.783L76.8162 206.86Z" stroke="#263238" stroke-linecap="round" stroke-linejoin="round"/>
<path d="M45.888 204.268C45.9421 204.463 45.9372 204.67 45.874 204.862C45.8107 205.054 45.6919 205.223 45.5325 205.348C45.3732 205.473 45.1804 205.548 44.9786 205.563C44.7769 205.578 44.5751 205.533 44.3987 205.434C44.2224 205.335 44.0795 205.185 43.988 205.005C43.8964 204.824 43.8605 204.621 43.8846 204.42C43.9087 204.219 43.9918 204.03 44.1234 203.876C44.255 203.722 44.4292 203.611 44.624 203.556C44.7527 203.52 44.8874 203.509 45.0202 203.524C45.1531 203.54 45.2816 203.582 45.3983 203.647C45.515 203.713 45.6176 203.8 45.7003 203.906C45.7829 204.011 45.844 204.131 45.88 204.26L45.888 204.268Z" fill="#263238"/>
<path d="M53.672 222.332L101.904 208.924" stroke="#263238" stroke-width="2" stroke-linecap="round" stroke-linejoin="round"/>
<path d="M54.568 225.548L102.8 212.148" stroke="#263238" stroke-width="2" stroke-linecap="round" stroke-linejoin="round"/>
<path d="M55.608 229.308L96.752 217.876" stroke="#263238" stroke-width="2" stroke-linecap="round" stroke-linejoin="round"/>
<path d="M60.6855 231.572L56.7622 232.662L57.8524 236.585L61.7758 235.495L60.6855 231.572Z" stroke="#263238" stroke-linecap="round" stroke-linejoin="round"/>
<path d="M67.8085 229.593L63.8852 230.684L64.9754 234.607L68.8987 233.517L67.8085 229.593Z" stroke="#263238" stroke-linecap="round" stroke-linejoin="round"/>
<path d="M74.9081 227.62L70.9847 228.71L72.075 232.633L75.9983 231.543L74.9081 227.62Z" stroke="#263238" stroke-linecap="round" stroke-linejoin="round"/>
<path d="M82.0233 225.644L78.1 226.734L79.1903 230.657L83.1136 229.567L82.0233 225.644Z" stroke="#263238" stroke-linecap="round" stroke-linejoin="round"/>
<path d="M51.104 223.044C51.1581 223.239 51.1532 223.446 51.09 223.638C51.0267 223.83 50.9079 223.999 50.7485 224.124C50.5892 224.249 50.3964 224.324 50.1946 224.339C49.9929 224.354 49.791 224.309 49.6147 224.21C49.4384 224.111 49.2955 223.961 49.204 223.781C49.1125 223.6 49.0765 223.397 49.1006 223.196C49.1247 222.995 49.2078 222.806 49.3394 222.652C49.471 222.498 49.6452 222.387 49.84 222.332C49.9687 222.296 50.1034 222.285 50.2362 222.3C50.3691 222.316 50.4976 222.358 50.6143 222.423C50.731 222.489 50.8336 222.576 50.9163 222.682C50.9989 222.787 51.06 222.907 51.096 223.036L51.104 223.044Z" fill="#263238"/>
<path d="M59.04 241.644L107.272 228.244" stroke="#263238" stroke-width="2" stroke-linecap="round" stroke-linejoin="round"/>
<path d="M59.928 244.868L108.168 231.46" stroke="#263238" stroke-width="2" stroke-linecap="round" stroke-linejoin="round"/>
<path d="M60.976 248.62L102.12 237.188" stroke="#263238" stroke-width="2" stroke-linecap="round" stroke-linejoin="round"/>
<path d="M66.0543 250.893L62.131 251.983L63.2212 255.907L67.1446 254.816L66.0543 250.893Z" stroke="#263238" stroke-linecap="round" stroke-linejoin="round"/>
<path d="M73.1693 248.915L69.246 250.005L70.3362 253.929L74.2596 252.838L73.1693 248.915Z" stroke="#263238" stroke-linecap="round" stroke-linejoin="round"/>
<path d="M80.2846 246.939L76.3613 248.029L77.4515 251.953L81.3748 250.862L80.2846 246.939Z" stroke="#263238" stroke-linecap="round" stroke-linejoin="round"/>
<path d="M87.3922 244.965L83.4689 246.055L84.5591 249.979L88.4825 248.888L87.3922 244.965Z" stroke="#263238" stroke-linecap="round" stroke-linejoin="round"/>
<path d="M56.472 242.356C56.5473 242.617 56.5159 242.897 56.3846 243.135C56.2533 243.373 56.033 243.549 55.772 243.624C55.511 243.699 55.2308 243.668 54.993 243.537C54.7552 243.405 54.5793 243.185 54.504 242.924C54.4298 242.662 54.4621 242.381 54.594 242.143C54.7259 241.905 54.9466 241.728 55.208 241.652C55.4668 241.58 55.7435 241.613 55.9784 241.743C56.2134 241.873 56.3878 242.09 56.464 242.348L56.472 242.356Z" fill="#263238"/>
<path d="M54.864 194.412L55.656 195.108L56.952 192.148" stroke="#263238" stroke-width="2" stroke-linecap="round" stroke-linejoin="round"/>
<path d="M52.936 215.364L53.728 216.06L55.016 213.1" stroke="#263238" stroke-width="2" stroke-linecap="round" stroke-linejoin="round"/>
<path d="M58.152 233.948L58.944 234.644L60.232 231.684" stroke="#263238" stroke-width="2" stroke-linecap="round" stroke-linejoin="round"/>
<path d="M77.728 249.172L78.52 249.868L79.816 246.908" stroke="#263238" stroke-width="2" stroke-linecap="round" stroke-linejoin="round"/>
<path d="M127.133 129.798L60.5596 136.197L70.1766 236.256L136.75 229.857L127.133 129.798Z" fill="white" stroke="#263238" stroke-linecap="round" stroke-linejoin="round"/>
<path d="M66.232 142.3L83.56 140.636" stroke="#263238" stroke-width="2" stroke-linecap="round" stroke-linejoin="round"/>
<path d="M66.552 145.628L78.336 144.492" stroke="#263238" stroke-width="2" stroke-linecap="round" stroke-linejoin="round"/>
<path d="M71.528 153.076L121.36 148.284" stroke="#263238" stroke-width="2" stroke-linecap="round" stroke-linejoin="round"/>
<path d="M71.8481 156.396L121.68 151.612" stroke="#263238" stroke-width="2" stroke-linecap="round" stroke-linejoin="round"/>
<path d="M72.224 160.276L114.728 156.196" stroke="#263238" stroke-width="2" stroke-linecap="round" stroke-linejoin="round"/>
<path d="M76.8376 163.396L72.7843 163.786L73.1739 167.839L77.2272 167.45L76.8376 163.396Z" stroke="#263238" stroke-linecap="round" stroke-linejoin="round"/>
<path d="M84.1845 162.688L80.1312 163.078L80.5208 167.131L84.5741 166.742L84.1845 162.688Z" stroke="#263238" stroke-linecap="round" stroke-linejoin="round"/>
<path d="M91.5315 161.989L87.4782 162.378L87.8678 166.432L91.9211 166.042L91.5315 161.989Z" stroke="#263238" stroke-linecap="round" stroke-linejoin="round"/>
<path d="M98.8777 161.273L94.8244 161.663L95.214 165.716L99.2673 165.327L98.8777 161.273Z" stroke="#263238" stroke-linecap="round" stroke-linejoin="round"/>
<path d="M68.88 153.332C68.8996 153.534 68.859 153.736 68.7634 153.915C68.6678 154.093 68.5214 154.239 68.3428 154.335C68.1641 154.43 67.9613 154.47 67.7598 154.45C67.5583 154.43 67.3673 154.351 67.2109 154.222C67.0544 154.094 66.9396 153.922 66.8809 153.728C66.8222 153.534 66.8222 153.328 66.881 153.134C66.9397 152.94 67.0546 152.768 67.2111 152.64C67.3675 152.511 67.5586 152.432 67.7601 152.412C67.893 152.399 68.0272 152.412 68.1551 152.451C68.2829 152.489 68.4019 152.553 68.5052 152.638C68.6085 152.722 68.694 152.826 68.757 152.944C68.8199 153.062 68.859 153.191 68.8721 153.324L68.88 153.332Z" fill="#263238"/>
<path d="M73.392 172.476L123.224 167.692" stroke="#263238" stroke-width="2" stroke-linecap="round" stroke-linejoin="round"/>
<path d="M73.712 175.804L123.544 171.012" stroke="#263238" stroke-width="2" stroke-linecap="round" stroke-linejoin="round"/>
<path d="M74.088 179.684L116.592 175.596" stroke="#263238" stroke-width="2" stroke-linecap="round" stroke-linejoin="round"/>
<path d="M78.7011 182.793L74.6478 183.183L75.0374 187.236L79.0907 186.846L78.7011 182.793Z" stroke="#263238" stroke-linecap="round" stroke-linejoin="round"/>
<path d="M86.048 182.093L81.9947 182.482L82.3843 186.536L86.4376 186.146L86.048 182.093Z" stroke="#263238" stroke-linecap="round" stroke-linejoin="round"/>
<path d="M93.395 181.385L89.3416 181.775L89.7312 185.828L93.7846 185.439L93.395 181.385Z" stroke="#263238" stroke-linecap="round" stroke-linejoin="round"/>
<path d="M100.743 180.694L96.6894 181.084L97.079 185.137L101.132 184.747L100.743 180.694Z" stroke="#263238" stroke-linecap="round" stroke-linejoin="round"/>
<path d="M70.744 172.732C70.7636 172.934 70.723 173.136 70.6274 173.315C70.5317 173.493 70.3853 173.639 70.2067 173.735C70.0281 173.83 69.8252 173.87 69.6238 173.85C69.4223 173.83 69.2313 173.751 69.0748 173.622C68.9184 173.494 68.8036 173.322 68.7448 173.128C68.6861 172.934 68.6861 172.728 68.7449 172.534C68.8037 172.34 68.9186 172.168 69.075 172.04C69.2315 171.911 69.4225 171.832 69.624 171.812C69.758 171.799 69.8932 171.812 70.0221 171.851C70.1509 171.89 70.2708 171.954 70.3748 172.04C70.4788 172.125 70.565 172.23 70.6283 172.349C70.6917 172.468 70.731 172.598 70.744 172.732Z" fill="#263238"/>
<path d="M75.256 191.876L125.088 187.092" stroke="#263238" stroke-width="2" stroke-linecap="round" stroke-linejoin="round"/>
<path d="M75.576 195.204L125.408 190.412" stroke="#263238" stroke-width="2" stroke-linecap="round" stroke-linejoin="round"/>
<path d="M75.952 199.084L118.456 194.996" stroke="#263238" stroke-width="2" stroke-linecap="round" stroke-linejoin="round"/>
<path d="M80.5646 202.198L76.5113 202.587L76.9009 206.641L80.9542 206.251L80.5646 202.198Z" stroke="#263238" stroke-linecap="round" stroke-linejoin="round"/>
<path d="M87.9116 201.49L83.8582 201.88L84.2478 205.933L88.3012 205.544L87.9116 201.49Z" stroke="#263238" stroke-linecap="round" stroke-linejoin="round"/>
<path d="M95.2585 200.79L91.2052 201.18L91.5947 205.233L95.6481 204.843L95.2585 200.79Z" stroke="#263238" stroke-linecap="round" stroke-linejoin="round"/>
<path d="M102.605 200.083L98.5522 200.472L98.9417 204.526L102.995 204.136L102.605 200.083Z" stroke="#263238" stroke-linecap="round" stroke-linejoin="round"/>
<path d="M72.6001 192.132C72.6182 192.332 72.5766 192.533 72.4805 192.71C72.3845 192.886 72.2382 193.03 72.0603 193.124C71.8824 193.217 71.6808 193.255 71.481 193.234C71.2812 193.213 71.0921 193.133 70.9378 193.004C70.7834 192.876 70.6707 192.704 70.6138 192.512C70.5569 192.319 70.5584 192.114 70.6182 191.922C70.6779 191.73 70.7932 191.56 70.9495 191.434C71.1057 191.307 71.2959 191.23 71.4961 191.212C71.629 191.2 71.7629 191.214 71.8904 191.254C72.0178 191.294 72.1361 191.358 72.2386 191.443C72.3412 191.529 72.4258 191.634 72.4878 191.752C72.5499 191.87 72.588 191.999 72.6001 192.132Z" fill="#263238"/>
<path d="M77.176 211.836L127.008 207.044" stroke="#263238" stroke-width="2" stroke-linecap="round" stroke-linejoin="round"/>
<path d="M77.496 215.156L127.328 210.372" stroke="#263238" stroke-width="2" stroke-linecap="round" stroke-linejoin="round"/>
<path d="M77.864 219.036L120.368 214.956" stroke="#263238" stroke-width="2" stroke-linecap="round" stroke-linejoin="round"/>
<path d="M82.4814 222.154L78.4281 222.544L78.8176 226.597L82.871 226.208L82.4814 222.154Z" stroke="#263238" stroke-linecap="round" stroke-linejoin="round"/>
<path d="M89.8363 221.454L85.783 221.844L86.1726 225.897L90.2259 225.508L89.8363 221.454Z" stroke="#263238" stroke-linecap="round" stroke-linejoin="round"/>
<path d="M97.1745 220.74L93.1212 221.129L93.5108 225.183L97.5641 224.793L97.1745 220.74Z" stroke="#263238" stroke-linecap="round" stroke-linejoin="round"/>
<path d="M104.521 220.032L100.468 220.421L100.858 224.474L104.911 224.085L104.521 220.032Z" stroke="#263238" stroke-linecap="round" stroke-linejoin="round"/>
<path d="M74.52 212.084C74.5414 212.286 74.5022 212.49 74.4074 212.67C74.3126 212.849 74.1666 212.997 73.9878 213.093C73.809 213.19 73.6056 213.231 73.4034 213.211C73.2012 213.192 73.0094 213.112 72.8523 212.984C72.6953 212.855 72.5801 212.682 72.5214 212.488C72.4627 212.293 72.4631 212.086 72.5227 211.892C72.5823 211.697 72.6983 211.525 72.8559 211.397C73.0136 211.269 73.2057 211.191 73.408 211.172C73.5409 211.159 73.6752 211.172 73.803 211.211C73.9309 211.249 74.0499 211.313 74.1531 211.398C74.2564 211.482 74.342 211.586 74.4049 211.704C74.4679 211.822 74.507 211.951 74.52 212.084Z" fill="#263238"/>
<path d="M74.384 165.268L75.04 166.092L76.832 163.404" stroke="#263238" stroke-width="2" stroke-linecap="round" stroke-linejoin="round"/>
<path d="M90.92 183.012L91.576 183.836L93.36 181.148" stroke="#263238" stroke-width="2" stroke-linecap="round" stroke-linejoin="round"/>
<path d="M85.472 203.524L86.128 204.348L87.92 201.66" stroke="#263238" stroke-width="2" stroke-linecap="round" stroke-linejoin="round"/>
<path d="M101.976 221.916L102.632 222.74L104.424 220.052" stroke="#263238" stroke-width="2" stroke-linecap="round" stroke-linejoin="round"/>
<path d="M208.552 90.356H167.216C165.756 90.356 164.356 90.9358 163.324 91.968C162.292 93.0002 161.712 94.4002 161.712 95.8599V131.388C161.712 132.848 162.292 134.248 163.324 135.28C164.356 136.312 165.756 136.892 167.216 136.892H185.536L196.032 149.54L193.4 136.892H208.552C210.008 136.886 211.402 136.303 212.429 135.271C213.456 134.24 214.032 132.844 214.032 131.388V95.8599C214.032 94.4043 213.456 93.008 212.429 91.9765C211.402 90.945 210.008 90.3623 208.552 90.356Z" fill="white" stroke="#263238" stroke-linecap="round" stroke-linejoin="round"/>
<path d="M191.192 109.844V106.084L188.376 105.844C188.208 105.257 187.974 104.691 187.68 104.156L189.496 101.996L186.832 99.3399L184.672 101.156C184.139 100.857 183.573 100.623 182.984 100.46L182.744 97.6439H178.984L178.744 100.46C178.155 100.623 177.589 100.857 177.056 101.156L174.896 99.3399L172.232 101.996L174.032 104.188C173.734 104.722 173.497 105.288 173.328 105.876L170.512 106.116V109.876L173.328 110.124C173.497 110.712 173.734 111.278 174.032 111.812L172.208 113.972L174.872 116.628L177.032 114.812C177.565 115.111 178.131 115.345 178.72 115.508L178.96 118.324H182.72L182.96 115.508C183.549 115.345 184.115 115.111 184.648 114.812L186.808 116.628L189.472 113.972L187.656 111.812C187.95 111.277 188.184 110.711 188.352 110.124L191.192 109.844ZM180.864 112.34C179.999 112.342 179.152 112.086 178.432 111.607C177.711 111.127 177.149 110.445 176.816 109.646C176.484 108.847 176.395 107.967 176.563 107.118C176.73 106.269 177.145 105.488 177.756 104.875C178.367 104.262 179.146 103.844 179.995 103.674C180.843 103.503 181.723 103.588 182.523 103.918C183.324 104.248 184.008 104.807 184.49 105.526C184.972 106.245 185.23 107.09 185.232 107.956C185.234 108.53 185.123 109.099 184.905 109.629C184.687 110.16 184.366 110.643 183.961 111.049C183.556 111.456 183.074 111.778 182.544 111.999C182.014 112.219 181.446 112.332 180.872 112.332L180.864 112.34Z" fill="#FF613E" fill-opacity="0.68"/>
<path d="M203.632 118.236V115.564L201.624 115.388C201.507 114.969 201.341 114.567 201.128 114.188L202.424 112.652L200.536 110.764L198.992 112.052C198.612 111.842 198.209 111.676 197.792 111.556L197.624 109.556H194.944L194.776 111.556C194.356 111.676 193.951 111.842 193.568 112.052L192.032 110.764L190.144 112.652L191.432 114.188C191.222 114.567 191.058 114.97 190.944 115.388L188.936 115.564V118.236L190.944 118.412C191.058 118.83 191.222 119.233 191.432 119.612L190.144 121.148L192.032 123.044L193.568 121.748C193.948 121.964 194.354 122.131 194.776 122.244L194.944 124.252H197.624L197.792 122.244C198.212 122.131 198.615 121.964 198.992 121.748L200.536 123.044L202.424 121.148L201.128 119.612C201.344 119.235 201.511 118.832 201.624 118.412L203.632 118.236ZM196.28 120.012C195.665 120.012 195.063 119.829 194.551 119.487C194.039 119.145 193.64 118.659 193.405 118.091C193.169 117.522 193.108 116.896 193.228 116.293C193.348 115.689 193.644 115.135 194.08 114.699C194.515 114.264 195.069 113.968 195.673 113.848C196.277 113.728 196.902 113.789 197.471 114.025C198.04 114.26 198.526 114.659 198.868 115.171C199.21 115.683 199.392 116.284 199.392 116.9C199.392 117.725 199.064 118.517 198.481 119.1C197.897 119.684 197.105 120.012 196.28 120.012Z" fill="#FF613E" fill-opacity="0.68"/>
<path d="M190.544 124.468V122.588L189.112 122.46C189.03 122.161 188.912 121.874 188.76 121.604L189.68 120.516L188.336 119.164L187.24 120.084C186.97 119.939 186.686 119.821 186.392 119.732L186.264 118.308H184.36L184.24 119.732C183.943 119.817 183.656 119.935 183.384 120.084L182.288 119.164L180.944 120.516L181.864 121.604C181.716 121.875 181.597 122.163 181.512 122.46L180.088 122.588V124.484L181.512 124.612C181.597 124.909 181.716 125.197 181.864 125.468L180.944 126.588L182.288 127.94L183.384 127.02C183.657 127.165 183.944 127.283 184.24 127.372L184.36 128.796H186.264L186.392 127.372C186.686 127.283 186.97 127.165 187.24 127.02L188.336 127.94L189.68 126.588L188.76 125.5C188.912 125.23 189.03 124.943 189.112 124.644L190.544 124.468ZM185.312 125.732C184.874 125.732 184.445 125.602 184.081 125.359C183.717 125.115 183.432 124.769 183.265 124.364C183.097 123.959 183.053 123.514 183.139 123.084C183.224 122.654 183.435 122.259 183.745 121.949C184.055 121.639 184.45 121.428 184.88 121.343C185.31 121.257 185.755 121.301 186.16 121.469C186.565 121.636 186.911 121.92 187.155 122.285C187.398 122.649 187.528 123.078 187.528 123.516C187.526 124.102 187.292 124.664 186.876 125.078C186.461 125.492 185.898 125.724 185.312 125.724V125.732Z" fill="#FF613E" fill-opacity="0.68"/>
<path d="M186.776 226.884L219 345.748H223.816L191.6 226.884H186.776Z" fill="#757575" stroke="#263238" stroke-linecap="round" stroke-linejoin="round"/>
<path d="M259.352 312.052H198.272V317.028H259.352V312.052Z" fill="#999999" stroke="#263238" stroke-linecap="round" stroke-linejoin="round"/>
<path d="M291.936 200.188L252.472 345.788H247.672L287.128 200.188C288.584 194.82 285.248 190.452 279.688 190.452H245.688C240.136 190.452 234.424 194.82 232.968 200.188L193.496 345.788H188.696L228.16 200.188C230.312 192.244 238.728 185.788 246.952 185.788H280.96C289.16 185.788 294.088 192.236 291.936 200.188Z" fill="#757575" stroke="#263238" stroke-linecap="round" stroke-linejoin="round"/>
<path d="M292.56 200.228L282.768 236.372C282.296 237.894 281.364 239.231 280.101 240.201C278.837 241.171 277.304 241.726 275.712 241.788H219.84C219.166 241.841 218.49 241.724 217.873 241.449C217.256 241.173 216.718 240.748 216.307 240.211C215.897 239.674 215.627 239.043 215.523 238.375C215.419 237.707 215.484 237.024 215.712 236.388L225.512 200.244C225.988 198.726 226.921 197.393 228.184 196.426C229.447 195.459 230.979 194.907 232.568 194.844H288.432C288.965 194.806 289.5 194.873 290.006 195.042C290.513 195.211 290.982 195.478 291.385 195.828C291.788 196.178 292.119 196.604 292.358 197.081C292.596 197.559 292.738 198.079 292.776 198.612C292.812 199.16 292.739 199.709 292.56 200.228Z" fill="#F2EFEF"/>
<path d="M292.56 200.228L282.768 236.372C282.296 237.894 281.364 239.231 280.101 240.201C278.837 241.171 277.304 241.726 275.712 241.788H219.84C219.166 241.841 218.49 241.724 217.873 241.449C217.256 241.173 216.718 240.748 216.307 240.211C215.897 239.674 215.627 239.043 215.523 238.375C215.419 237.707 215.484 237.024 215.712 236.388L225.512 200.244C225.988 198.726 226.921 197.393 228.184 196.426C229.447 195.459 230.979 194.907 232.568 194.844H288.432C288.965 194.806 289.5 194.873 290.006 195.042C290.513 195.211 290.982 195.478 291.385 195.828C291.788 196.178 292.119 196.604 292.358 197.081C292.596 197.559 292.738 198.079 292.776 198.612C292.812 199.16 292.739 199.709 292.56 200.228Z" fill="#FF613E" fill-opacity="0.68"/>
<mask id="mask2_6_7813" style="mask-type:luminance" maskUnits="userSpaceOnUse" x="215" y="194" width="78" height="48">
<path d="M292.56 200.228L282.768 236.372C282.296 237.894 281.364 239.231 280.101 240.201C278.837 241.171 277.304 241.726 275.712 241.788H219.84C219.166 241.841 218.49 241.724 217.873 241.449C217.256 241.173 216.718 240.748 216.307 240.211C215.897 239.674 215.627 239.043 215.523 238.375C215.419 237.707 215.484 237.024 215.712 236.388L225.512 200.244C225.988 198.726 226.921 197.393 228.184 196.426C229.447 195.459 230.979 194.907 232.568 194.844H288.432C288.965 194.806 289.5 194.873 290.006 195.042C290.513 195.211 290.982 195.478 291.385 195.828C291.788 196.178 292.119 196.604 292.358 197.081C292.596 197.559 292.738 198.079 292.776 198.612C292.812 199.16 292.739 199.709 292.56 200.228Z" fill="white"/>
</mask>
<g mask="url(#mask2_6_7813)">
<path opacity="0.2" d="M292.56 200.228L282.768 236.372C282.296 237.894 281.364 239.232 280.101 240.202C278.837 241.171 277.304 241.726 275.712 241.788H219.84C219.166 241.841 218.49 241.725 217.873 241.449C217.256 241.174 216.718 240.748 216.307 240.211C215.897 239.674 215.627 239.043 215.523 238.375C215.419 237.708 215.484 237.025 215.712 236.388L225.512 200.244C225.988 198.726 226.921 197.393 228.184 196.426C229.447 195.459 230.979 194.907 232.568 194.844H261.456C273.944 207.644 272.352 231.236 271.536 238.356C272.839 238.042 274.039 237.397 275.02 236.483C276.001 235.569 276.73 234.418 277.136 233.14L286.912 196.988C287.112 196.289 287.153 195.554 287.032 194.836H288.432C289.104 194.788 289.777 194.908 290.391 195.184C291.005 195.46 291.54 195.885 291.95 196.419C292.359 196.954 292.629 197.582 292.735 198.247C292.842 198.912 292.782 199.593 292.56 200.228Z" fill="black" fill-opacity="0.7"/>
</g>
<path d="M292.56 200.228L282.768 236.372C282.296 237.894 281.364 239.231 280.101 240.201C278.837 241.171 277.304 241.726 275.712 241.788H219.84C219.166 241.841 218.49 241.724 217.873 241.449C217.256 241.173 216.718 240.748 216.307 240.211C215.897 239.674 215.627 239.043 215.523 238.375C215.419 237.707 215.484 237.024 215.712 236.388L225.512 200.244C225.988 198.726 226.921 197.393 228.184 196.426C229.447 195.459 230.979 194.907 232.568 194.844H288.432C288.965 194.806 289.5 194.873 290.006 195.042C290.513 195.211 290.982 195.478 291.385 195.828C291.788 196.178 292.119 196.604 292.358 197.081C292.596 197.559 292.738 198.079 292.776 198.612C292.812 199.16 292.739 199.709 292.56 200.228Z" stroke="#263238" stroke-linecap="round" stroke-linejoin="round"/>
<path d="M259.712 278.356L277.984 345.748H282.8L264.536 278.356H259.712Z" fill="#757575" stroke="#263238" stroke-linecap="round" stroke-linejoin="round"/>
<path d="M264.552 270.588V277.18H192.616V270.588C192.616 269.302 193.127 268.069 194.036 267.16C194.945 266.251 196.178 265.74 197.464 265.74H259.696C260.334 265.738 260.965 265.862 261.555 266.105C262.145 266.348 262.68 266.704 263.132 267.155C263.583 267.605 263.941 268.141 264.184 268.73C264.428 269.319 264.553 269.951 264.552 270.588Z" fill="#F2EFEF"/>
<path d="M264.552 270.588V277.18H192.616V270.588C192.616 269.302 193.127 268.069 194.036 267.16C194.945 266.251 196.178 265.74 197.464 265.74H259.696C260.334 265.738 260.965 265.862 261.555 266.105C262.145 266.348 262.68 266.704 263.132 267.155C263.583 267.605 263.941 268.141 264.184 268.73C264.428 269.319 264.553 269.951 264.552 270.588Z" fill="#FF613E" fill-opacity="0.68"/>
<mask id="mask3_6_7813" style="mask-type:luminance" maskUnits="userSpaceOnUse" x="192" y="265" width="73" height="13">
<path d="M264.552 270.588V277.18H192.616V270.588C192.616 269.302 193.127 268.069 194.036 267.16C194.945 266.251 196.178 265.74 197.464 265.74H259.696C260.334 265.738 260.965 265.862 261.555 266.105C262.145 266.348 262.68 266.704 263.132 267.155C263.583 267.605 263.941 268.141 264.184 268.73C264.428 269.319 264.553 269.951 264.552 270.588Z" fill="white"/>
</mask>
<g mask="url(#mask3_6_7813)">
<path opacity="0.2" d="M264.384 269.348C262.056 272.084 257.88 274.868 250.696 277.212H192.616V270.588C192.616 269.302 193.127 268.069 194.036 267.16C194.945 266.251 196.178 265.74 197.464 265.74H259.696C260.766 265.741 261.805 266.095 262.653 266.748C263.501 267.4 264.109 268.314 264.384 269.348Z" fill="black" fill-opacity="0.7"/>
</g>
<path d="M264.552 270.588V277.18H192.616V270.588C192.616 269.302 193.127 268.069 194.036 267.16C194.945 266.251 196.178 265.74 197.464 265.74H259.696C260.334 265.738 260.965 265.862 261.555 266.105C262.145 266.348 262.68 266.704 263.132 267.155C263.583 267.605 263.941 268.141 264.184 268.73C264.428 269.319 264.553 269.951 264.552 270.588Z" stroke="#263238" stroke-linecap="round" stroke-linejoin="round"/>
<path d="M266.992 275.188H190.8C190.044 275.188 189.432 275.801 189.432 276.556V280.004C189.432 280.76 190.044 281.372 190.8 281.372H266.992C267.748 281.372 268.36 280.76 268.36 280.004V276.556C268.36 275.801 267.748 275.188 266.992 275.188Z" fill="#999999" stroke="#263238" stroke-linecap="round" stroke-linejoin="round"/>
<path d="M190.28 275.388C186.832 278.9 203.544 334.084 203.544 334.084C201.72 335.684 199.032 336.42 196.488 336.756C194.149 337.047 191.786 337.082 189.44 336.86C189.44 336.86 165.488 278.764 172.08 264.348C178.672 249.932 219.576 243.388 219.576 243.388L221.32 239.068L242.48 236.092L245.976 262.004C245.976 262.004 242.504 262.34 237.28 263.012C223.272 264.788 196.616 268.988 190.28 275.388Z" fill="#263238"/>
<mask id="mask4_6_7813" style="mask-type:luminance" maskUnits="userSpaceOnUse" x="170" y="236" width="76" height="102">
<path d="M190.28 275.388C186.832 278.9 203.544 334.084 203.544 334.084C201.72 335.684 199.032 336.42 196.488 336.756C194.149 337.047 191.786 337.082 189.44 336.86C189.44 336.86 165.488 278.764 172.08 264.348C178.672 249.932 219.576 243.388 219.576 243.388L221.32 239.068L242.48 236.092L245.976 262.004C245.976 262.004 242.504 262.34 237.28 263.012C223.272 264.788 196.616 268.988 190.28 275.388Z" fill="white"/>
</mask>
<g mask="url(#mask4_6_7813)">
<path opacity="0.3" d="M203.544 334.116C201.72 335.716 199.032 336.452 196.488 336.788C191.84 319.508 180.008 273.396 184.488 267.756C190.016 260.796 217.376 254.468 217.376 254.468C217.488 250.916 227.08 247.716 227.08 247.716L237.272 262.988C223.264 264.788 196.608 268.988 190.272 275.388C186.832 278.932 203.544 334.116 203.544 334.116Z" fill="black"/>
</g>
<path d="M190.28 275.388C186.832 278.9 203.544 334.084 203.544 334.084C201.72 335.684 199.032 336.42 196.488 336.756C194.149 337.047 191.786 337.082 189.44 336.86C189.44 336.86 165.488 278.764 172.08 264.348C178.672 249.932 219.576 243.388 219.576 243.388L221.32 239.068L242.48 236.092L245.976 262.004C245.976 262.004 242.504 262.34 237.28 263.012C223.272 264.788 196.616 268.988 190.28 275.388Z" stroke="#263238" stroke-linecap="round" stroke-linejoin="round"/>
<path d="M178.44 223.156C174.928 222.556 199.928 200.636 199.928 200.636L211.984 208.748C211.984 208.748 191.472 223.196 188.248 223.588C185.024 223.98 178.44 223.156 178.44 223.156Z" fill="white"/>
<mask id="mask5_6_7813" style="mask-type:luminance" maskUnits="userSpaceOnUse" x="178" y="200" width="34" height="24">
<path d="M178.44 223.156C174.928 222.556 199.928 200.636 199.928 200.636L211.984 208.748C211.984 208.748 191.472 223.196 188.248 223.588C185.024 223.98 178.44 223.156 178.44 223.156Z" fill="white"/>
</mask>
<g mask="url(#mask5_6_7813)">
<path opacity="0.2" d="M178.44 223.156C174.928 222.556 199.928 200.636 199.928 200.636L211.984 208.748C211.984 208.748 191.472 223.196 188.248 223.588C185.024 223.98 178.44 223.156 178.44 223.156Z" fill="black" fill-opacity="0.7"/>
</g>
<path d="M178.44 223.156C174.928 222.556 199.928 200.636 199.928 200.636L211.984 208.748C211.984 208.748 191.472 223.196 188.248 223.588C185.024 223.98 178.44 223.156 178.44 223.156Z" stroke="#263238" stroke-linecap="round" stroke-linejoin="round"/>
<path d="M182.832 213.94C182.832 213.94 188.072 215.244 189.68 216.34C191.288 217.436 190.824 221.396 190.824 221.396C190.824 221.396 183.84 219.428 182.832 213.94Z" fill="white" stroke="#263238" stroke-linecap="round" stroke-linejoin="round"/>
<path d="M179.488 203.9L189.232 222.588H190.384L181.128 202.98L179.488 203.9Z" fill="#263238"/>
<path d="M188.272 217.412C188.272 217.412 182.128 213.044 180.624 213.044C179.12 213.044 174.616 218.364 174.616 221.044C174.616 223.724 184.44 225.188 186.36 222.924C187.32 221.796 185.416 219.076 185.416 219.076C186.56 220.293 187.787 221.429 189.088 222.476C189.888 222.924 191.416 222.34 191.416 222.34C191.416 222.34 189.368 219.06 188.272 217.412Z" fill="white" stroke="#263238" stroke-linecap="round" stroke-linejoin="round"/>
<path d="M185.416 223.54C183.999 221.742 182.261 220.222 180.288 219.06" stroke="#263238" stroke-linecap="round" stroke-linejoin="round"/>
<path d="M185.416 219.06C185.416 219.06 183.288 217.204 181.856 216.796" stroke="#263238" stroke-linecap="round" stroke-linejoin="round"/>
<path d="M178.72 221.42C180.208 222.183 181.643 223.043 183.016 223.996" stroke="#263238" stroke-linecap="round" stroke-linejoin="round"/>
<path d="M207.76 191.052C204.616 193.244 190.496 207.764 190.496 207.764C190.496 207.764 197.112 215.292 202.912 216.38L218.632 208.748L207.76 191.052Z" fill="#F2EFEF"/>
<path d="M207.76 191.052C204.616 193.244 190.496 207.764 190.496 207.764C190.496 207.764 197.112 215.292 202.912 216.38L218.632 208.748L207.76 191.052Z" fill="#FF613E" fill-opacity="0.68"/>
<path d="M207.76 191.052C204.616 193.244 190.496 207.764 190.496 207.764C190.496 207.764 197.112 215.292 202.912 216.38L218.632 208.748L207.76 191.052Z" stroke="#263238" stroke-linecap="round" stroke-linejoin="round"/>
<path opacity="0.4" d="M207.76 191.052C204.616 193.244 190.496 207.764 190.496 207.764C190.496 207.764 197.112 215.292 202.912 216.38L218.632 208.748L207.76 191.052Z" fill="white" stroke="#263238" stroke-linecap="round" stroke-linejoin="round"/>
<path d="M200.168 328.26L206.832 345.788C206.832 345.788 207.936 350.292 187.84 348.868L176.768 347.924L200.168 328.26Z" fill="#F2EFEF"/>
<path d="M200.168 328.26L206.832 345.788C206.832 345.788 207.936 350.292 187.84 348.868L176.768 347.924L200.168 328.26Z" fill="#FF613E" fill-opacity="0.68"/>
<mask id="mask6_6_7813" style="mask-type:luminance" maskUnits="userSpaceOnUse" x="176" y="328" width="31" height="22">
<path d="M200.168 328.26L206.832 345.788C206.832 345.788 207.936 350.292 187.84 348.868L176.768 347.924L200.168 328.26Z" fill="white"/>
</mask>
<g mask="url(#mask6_6_7813)">
<path opacity="0.3" d="M200.168 328.26L206.832 345.788C206.832 345.788 207.936 350.292 187.84 348.868L176.768 347.924L200.168 328.26Z" fill="black"/>
</g>
<path d="M200.168 328.26L206.832 345.788C206.832 345.788 207.936 350.292 187.84 348.868L176.768 347.924L200.168 328.26Z" stroke="#263238" stroke-linecap="round" stroke-linejoin="round"/>
<path d="M197.64 336.644C197.64 336.644 199.064 343.452 197.64 348.516C197.64 348.516 176.432 351.836 171.688 350.572C166.944 349.308 164.064 346.94 163.92 345.772C163.92 345.772 164.088 342.524 168.84 341.572C173.592 340.62 183.04 339.972 186.776 334.612C190.512 329.252 197.64 336.644 197.64 336.644Z" fill="#F2EFEF"/>
<path d="M197.64 336.644C197.64 336.644 199.064 343.452 197.64 348.516C197.64 348.516 176.432 351.836 171.688 350.572C166.944 349.308 164.064 346.94 163.92 345.772C163.92 345.772 164.088 342.524 168.84 341.572C173.592 340.62 183.04 339.972 186.776 334.612C190.512 329.252 197.64 336.644 197.64 336.644Z" fill="#FF613E" fill-opacity="0.68"/>
<path d="M197.64 336.644C197.64 336.644 199.064 343.452 197.64 348.516C197.64 348.516 176.432 351.836 171.688 350.572C166.944 349.308 164.064 346.94 163.92 345.772C163.92 345.772 164.088 342.524 168.84 341.572C173.592 340.62 183.04 339.972 186.776 334.612C190.512 329.252 197.64 336.644 197.64 336.644Z" stroke="#263238" stroke-linecap="round" stroke-linejoin="round"/>
<path d="M225.624 238.364C232.4 228.7 263.552 240.332 263.552 240.332C263.552 240.332 266.52 263.596 254.112 269.804C241.704 276.012 223.816 275.676 218.984 280.708L199.32 338.772C199.32 338.772 192.256 341.724 181.984 337.076C181.984 337.076 194.472 293.228 198.136 277.66C201.76 262.252 225.224 251.796 225.224 251.796C224.015 250.368 223.098 248.715 222.528 246.932" fill="#263238"/>
<path d="M225.624 238.364C232.4 228.7 263.552 240.332 263.552 240.332C263.552 240.332 266.52 263.596 254.112 269.804C241.704 276.012 223.816 275.676 218.984 280.708L199.32 338.772C199.32 338.772 192.256 341.724 181.984 337.076C181.984 337.076 194.472 293.228 198.136 277.66C201.76 262.252 225.224 251.796 225.224 251.796C224.015 250.368 223.098 248.715 222.528 246.932" stroke="#263238" stroke-linecap="round" stroke-linejoin="round"/>
<path d="M257.16 260.604C256.166 261.485 255.121 262.308 254.032 263.068" stroke="white" stroke-linecap="round" stroke-linejoin="round"/>
<path d="M259.712 240.9C262.256 246.42 262.456 253.428 258.912 258.54" stroke="white" stroke-linecap="round" stroke-linejoin="round"/>
<path d="M252.616 241.788C252.616 241.788 251.968 246.044 253.864 247.732C255.76 249.42 261.576 250.276 261.576 250.276" stroke="white" stroke-linecap="round" stroke-linejoin="round"/>
<path d="M227.08 241.98C227.08 241.98 227.344 246.22 225.624 246.02C223.904 245.82 223.816 247.716 223.816 247.716" stroke="white" stroke-linecap="round" stroke-linejoin="round"/>
<path d="M208.176 194.316C207.914 193.247 207.774 192.152 207.76 191.052C207.76 191.052 217.36 182.956 229.72 183.004C244.44 183.052 253.44 187.684 257.04 194.116C262.752 204.292 263.552 240.332 263.552 240.332C263.552 240.332 226.616 246.028 221.32 239.044C220.4 237.828 221.104 229.244 221.104 229.244C221.104 229.244 216.968 218.396 216.096 209.98C214.881 208.305 213.751 206.57 212.712 204.78C211.397 202.577 210.257 200.274 209.304 197.892" fill="#F2EFEF"/>
<path d="M208.176 194.316C207.914 193.247 207.774 192.152 207.76 191.052C207.76 191.052 217.36 182.956 229.72 183.004C244.44 183.052 253.44 187.684 257.04 194.116C262.752 204.292 263.552 240.332 263.552 240.332C263.552 240.332 226.616 246.028 221.32 239.044C220.4 237.828 221.104 229.244 221.104 229.244C221.104 229.244 216.968 218.396 216.096 209.98C214.881 208.305 213.751 206.57 212.712 204.78C211.397 202.577 210.257 200.274 209.304 197.892" fill="#FF613E" fill-opacity="0.68"/>
<path d="M208.176 194.316C207.914 193.247 207.774 192.152 207.76 191.052C207.76 191.052 217.36 182.956 229.72 183.004C244.44 183.052 253.44 187.684 257.04 194.116C262.752 204.292 263.552 240.332 263.552 240.332C263.552 240.332 226.616 246.028 221.32 239.044C220.4 237.828 221.104 229.244 221.104 229.244C221.104 229.244 216.968 218.396 216.096 209.98C214.881 208.305 213.751 206.57 212.712 204.78C211.397 202.577 210.257 200.274 209.304 197.892" stroke="#263238" stroke-linecap="round" stroke-linejoin="round"/>
<g opacity="0.6">
<path d="M208.176 194.316C207.914 193.247 207.774 192.152 207.76 191.052C207.76 191.052 217.36 182.956 229.72 183.004C244.44 183.052 253.44 187.684 257.04 194.116C262.752 204.292 263.552 240.332 263.552 240.332C263.552 240.332 226.616 246.028 221.32 239.044C220.4 237.828 221.104 229.244 221.104 229.244C221.104 229.244 216.968 218.396 216.096 209.98C214.881 208.305 213.751 206.57 212.712 204.78C211.397 202.577 210.257 200.274 209.304 197.892" fill="white"/>
<path d="M208.176 194.316C207.914 193.247 207.774 192.152 207.76 191.052C207.76 191.052 217.36 182.956 229.72 183.004C244.44 183.052 253.44 187.684 257.04 194.116C262.752 204.292 263.552 240.332 263.552 240.332C263.552 240.332 226.616 246.028 221.32 239.044C220.4 237.828 221.104 229.244 221.104 229.244C221.104 229.244 216.968 218.396 216.096 209.98C214.881 208.305 213.751 206.57 212.712 204.78C211.397 202.577 210.257 200.274 209.304 197.892" stroke="#263238" stroke-linecap="round" stroke-linejoin="round"/>
</g>
<path d="M222.32 202.98C222.32 202.98 227.96 224.86 227.12 229.676C226.919 231.338 227.197 233.022 227.92 234.532C227.183 235.307 226.709 236.295 226.565 237.355C226.422 238.415 226.616 239.493 227.12 240.436" stroke="#263238" stroke-linecap="round" stroke-linejoin="round"/>
<path d="M237.28 221.084C236.273 221.046 235.294 220.736 234.448 220.188L232.776 212.86C236.093 213.162 239.438 212.927 242.68 212.164L244.472 220.164C243.464 220.445 242.441 220.667 241.408 220.828" stroke="#263238" stroke-linecap="round" stroke-linejoin="round"/>
<path d="M218.312 205.828C218.312 205.828 213.512 185.38 225.624 183.004C237.736 180.628 240.224 186.284 239.512 190.116C238.56 195.228 228.52 207.764 228.52 207.764L222.32 202.964L218.312 205.828Z" fill="#F2EFEF"/>
<path d="M218.312 205.828C218.312 205.828 213.512 185.38 225.624 183.004C237.736 180.628 240.224 186.284 239.512 190.116C238.56 195.228 228.52 207.764 228.52 207.764L222.32 202.964L218.312 205.828Z" fill="#FF613E" fill-opacity="0.68"/>
<path d="M218.312 205.828C218.312 205.828 213.512 185.38 225.624 183.004C237.736 180.628 240.224 186.284 239.512 190.116C238.56 195.228 228.52 207.764 228.52 207.764L222.32 202.964L218.312 205.828Z" stroke="#263238" stroke-linecap="round" stroke-linejoin="round"/>
<path opacity="0.4" d="M218.312 205.828C218.312 205.828 213.512 185.38 225.624 183.004C237.736 180.628 240.224 186.284 239.512 190.116C238.56 195.228 228.52 207.764 228.52 207.764L222.32 202.964L218.312 205.828Z" fill="white" stroke="#263238" stroke-linecap="round" stroke-linejoin="round"/>
<path d="M202.424 268.988C202.424 268.988 210.248 259.956 227.912 253.132C227.912 253.132 223.336 251.732 222.312 249.828" stroke="white" stroke-linecap="round" stroke-linejoin="round"/>
<path d="M193.224 296.628L186.072 322.596" stroke="white" stroke-linecap="round" stroke-linejoin="round"/>
<path d="M248.488 221.788C248.488 221.788 251.688 227.188 264.864 226.692C262.412 224.067 259.31 222.135 255.872 221.092C250.488 219.652 248.488 221.788 248.488 221.788Z" fill="#F2EFEF"/>
<path d="M248.488 221.788C248.488 221.788 251.688 227.188 264.864 226.692C262.412 224.067 259.31 222.135 255.872 221.092C250.488 219.652 248.488 221.788 248.488 221.788Z" fill="#FF613E" fill-opacity="0.68"/>
<path d="M248.488 221.788C248.488 221.788 251.688 227.188 264.864 226.692C262.412 224.067 259.31 222.135 255.872 221.092C250.488 219.652 248.488 221.788 248.488 221.788Z" stroke="#263238" stroke-linecap="round" stroke-linejoin="round"/>
<path d="M197.368 223.956C197.368 223.956 200.424 219.22 203.224 218.268C206.024 217.316 214.248 217.236 215.52 217.204C216.792 217.172 239.392 222.916 250 226.452L249.072 208.748L263.328 209.876C263.328 209.876 262.752 231.476 260.536 237.196C258.32 242.916 255.144 241.524 249.728 239.188C228.424 230.012 215.944 223.62 214.784 223.988C213.624 224.356 197.368 223.956 197.368 223.956Z" fill="white" stroke="#263238" stroke-linecap="round" stroke-linejoin="round"/>
<path d="M245.512 198.46C245.14 199.928 245.02 201.448 245.16 202.956C245.792 208.492 248.488 221.788 248.488 221.788C248.488 221.788 261.776 223.684 264.864 226.692C264.864 226.692 267.056 209.092 262.592 200.156C258.128 191.22 253.512 190.236 253.512 190.236C250.592 189.516 247.912 192.236 246.432 195.732" fill="#F2EFEF"/>
<path d="M245.512 198.46C245.14 199.928 245.02 201.448 245.16 202.956C245.792 208.492 248.488 221.788 248.488 221.788C248.488 221.788 261.776 223.684 264.864 226.692C264.864 226.692 267.056 209.092 262.592 200.156C258.128 191.22 253.512 190.236 253.512 190.236C250.592 189.516 247.912 192.236 246.432 195.732" fill="#FF613E" fill-opacity="0.68"/>
<path d="M245.512 198.46C245.14 199.928 245.02 201.448 245.16 202.956C245.792 208.492 248.488 221.788 248.488 221.788C248.488 221.788 261.776 223.684 264.864 226.692C264.864 226.692 267.056 209.092 262.592 200.156C258.128 191.22 253.512 190.236 253.512 190.236C250.592 189.516 247.912 192.236 246.432 195.732" stroke="#263238" stroke-linecap="round" stroke-linejoin="round"/>
<g opacity="0.4">
<path d="M245.512 198.46C245.14 199.928 245.02 201.448 245.16 202.956C245.792 208.492 248.488 221.788 248.488 221.788C248.488 221.788 261.776 223.684 264.864 226.692C264.864 226.692 267.056 209.092 262.592 200.156C258.128 191.22 253.512 190.236 253.512 190.236C250.592 189.516 247.912 192.236 246.432 195.732" fill="white"/>
<path d="M245.512 198.46C245.14 199.928 245.02 201.448 245.16 202.956C245.792 208.492 248.488 221.788 248.488 221.788C248.488 221.788 261.776 223.684 264.864 226.692C264.864 226.692 267.056 209.092 262.592 200.156C258.128 191.22 253.512 190.236 253.512 190.236C250.592 189.516 247.912 192.236 246.432 195.732" stroke="#263238" stroke-linecap="round" stroke-linejoin="round"/>
</g>
<path d="M206.472 205.308C208.461 206.936 210.782 208.11 213.272 208.748" stroke="#263238" stroke-linecap="round" stroke-linejoin="round"/>
<path d="M248.488 205.308C248.488 205.308 253.288 214.38 259.352 216.38" stroke="#263238" stroke-linecap="round" stroke-linejoin="round"/>
<path d="M217.384 275.188C217.384 275.188 218.272 275.86 218.632 278.284" stroke="white" stroke-linecap="round" stroke-linejoin="round"/>
<path d="M214.096 278.284C214.869 278.368 215.616 278.612 216.289 279C216.963 279.389 217.548 279.913 218.008 280.54" stroke="white" stroke-linecap="round" stroke-linejoin="round"/>
<path d="M187.632 268.988C187.632 268.988 190.192 270.284 189.64 273.956" stroke="white" stroke-linecap="round" stroke-linejoin="round"/>
<path d="M184.936 272.108C184.936 272.108 188.432 274.18 188.68 276.036" stroke="white" stroke-linecap="round" stroke-linejoin="round"/>
<path d="M225.456 249.724C225.456 249.724 233.24 250.812 234.984 249.724" stroke="white" stroke-linecap="round" stroke-linejoin="round"/>
<path d="M222.32 202.1C221.648 200.195 221.376 198.171 221.52 196.156C221.552 195.473 221.624 194.791 221.736 194.116L220.384 191.972L218.648 189.212L220.656 181.212C220.656 181.212 233.456 183.676 234.416 187.244C235.376 190.812 222.32 202.1 222.32 202.1Z" fill="white"/>
<mask id="mask7_6_7813" style="mask-type:luminance" maskUnits="userSpaceOnUse" x="218" y="181" width="17" height="22">
<path d="M222.32 202.1C221.648 200.195 221.376 198.171 221.52 196.156C221.552 195.473 221.624 194.791 221.736 194.116L220.384 191.972L218.648 189.212L220.656 181.212C220.656 181.212 233.456 183.676 234.416 187.244C235.376 190.812 222.32 202.1 222.32 202.1Z" fill="white"/>
</mask>
<g mask="url(#mask7_6_7813)">
<path opacity="0.2" d="M221.504 196.188C221.536 195.504 221.608 194.823 221.72 194.148L220.368 192.004C222.805 191.627 225.024 190.383 226.616 188.5C226.683 190.157 226.225 191.792 225.307 193.173C224.389 194.554 223.058 195.609 221.504 196.188Z" fill="black" fill-opacity="0.7"/>
</g>
<path d="M222.32 202.1C221.648 200.195 221.376 198.171 221.52 196.156C221.552 195.473 221.624 194.791 221.736 194.116L220.384 191.972L218.648 189.212L220.656 181.212C220.656 181.212 233.456 183.676 234.416 187.244C235.376 190.812 222.32 202.1 222.32 202.1Z" stroke="#263238" stroke-linecap="round" stroke-linejoin="round"/>
<path d="M230.352 181.884C234.352 171.484 231.696 153.78 212.496 157.172C201.232 159.172 199.872 172.788 203.632 178.836C207.392 184.884 203.4 185.076 209.056 189.556C211.352 191.372 213.2 194.452 215.936 194.652C219.192 194.876 223.36 191.796 226.472 188.468" fill="white"/>
<path d="M230.352 181.884C234.352 171.484 231.696 153.78 212.496 157.172C201.232 159.172 199.872 172.788 203.632 178.836C207.392 184.884 203.4 185.076 209.056 189.556C211.352 191.372 213.2 194.452 215.936 194.652C219.192 194.876 223.36 191.796 226.472 188.468" stroke="#263238" stroke-linecap="round" stroke-linejoin="round"/>
<path d="M211.432 178.836C211.432 178.836 214.264 176.26 217.632 177.324" stroke="#263238" stroke-linecap="round" stroke-linejoin="round"/>
<path d="M206.128 178.836C205.748 178.168 205.219 177.597 204.582 177.166C203.945 176.736 203.218 176.459 202.456 176.356" stroke="#263238" stroke-linecap="round" stroke-linejoin="round"/>
<path d="M208 182.588C208 182.588 207.592 184.66 207.056 186.756C206.52 188.852 210.416 187.708 210.256 187.388" fill="white"/>
<path d="M208 182.588C208 182.588 207.592 184.66 207.056 186.756C206.52 188.852 210.416 187.708 210.256 187.388" stroke="#263238" stroke-linecap="round" stroke-linejoin="round"/>
<path d="M212.264 190.004C213.916 189.531 215.386 188.569 216.48 187.244" stroke="#263238" stroke-linecap="round" stroke-linejoin="round"/>
<path d="M215.376 181.468C215.433 181.569 215.469 181.68 215.483 181.795C215.497 181.91 215.488 182.026 215.457 182.138C215.426 182.249 215.373 182.354 215.301 182.445C215.23 182.536 215.141 182.612 215.04 182.668C214.835 182.78 214.594 182.807 214.369 182.743C214.145 182.678 213.954 182.528 213.84 182.324C213.767 182.201 213.728 182.06 213.728 181.916C213.671 181.815 213.635 181.704 213.621 181.589C213.607 181.474 213.616 181.358 213.647 181.246C213.678 181.135 213.731 181.031 213.803 180.94C213.874 180.849 213.963 180.773 214.064 180.716C214.269 180.604 214.51 180.577 214.735 180.642C214.959 180.706 215.149 180.856 215.264 181.06C215.337 181.184 215.376 181.325 215.376 181.468Z" fill="#263238"/>
<path d="M206.832 181.292C206.992 181.868 206.88 182.412 206.576 182.492C206.272 182.572 205.896 182.172 205.776 181.588C205.656 181.004 205.736 180.468 206.04 180.388C206.344 180.308 206.656 180.708 206.832 181.292Z" fill="#263238"/>
<path d="M218.512 168.124C218.512 168.124 215.536 175.908 208.176 175.732C208.176 175.732 210.728 173.788 211.432 171.932C211.432 171.932 205.768 177.532 200.112 174.684C194.456 171.836 197.232 158.588 205.912 153.356C214.592 148.124 223.472 149.524 226.48 154.524C226.48 154.524 232.56 153.964 235.24 162.9C237.64 170.9 233.8 183.028 230.048 183.164C224.232 183.38 223.064 177.068 223.064 177.068C220.663 174.626 219.073 171.503 218.512 168.124Z" fill="#263238" stroke="#263238" stroke-linecap="round" stroke-linejoin="round"/>
<path d="M224.888 181.924C224.888 181.924 224.704 174.58 228.888 175.468C233.072 176.356 230.04 184.844 226.896 184.756" fill="white"/>
<path d="M224.888 181.924C224.888 181.924 224.704 174.58 228.888 175.468C233.072 176.356 230.04 184.844 226.896 184.756" stroke="#263238" stroke-linecap="round" stroke-linejoin="round"/>
<path d="M211.968 223.156H147.464C146.744 223.156 146.16 223.74 146.16 224.46V226.708C146.16 227.428 146.744 228.012 147.464 228.012H211.968C212.688 228.012 213.272 227.428 213.272 226.708V224.46C213.272 223.74 212.688 223.156 211.968 223.156Z" fill="#F2EFEF"/>
<path d="M211.968 223.156H147.464C146.744 223.156 146.16 223.74 146.16 224.46V226.708C146.16 227.428 146.744 228.012 147.464 228.012H211.968C212.688 228.012 213.272 227.428 213.272 226.708V224.46C213.272 223.74 212.688 223.156 211.968 223.156Z" fill="#FF613E" fill-opacity="0.68"/>
<path d="M211.968 223.156H147.464C146.744 223.156 146.16 223.74 146.16 224.46V226.708C146.16 227.428 146.744 228.012 147.464 228.012H211.968C212.688 228.012 213.272 227.428 213.272 226.708V224.46C213.272 223.74 212.688 223.156 211.968 223.156Z" stroke="#263238" stroke-linecap="round" stroke-linejoin="round"/>
<path d="M52.264 320.876H25.056L27.904 345.748H49.416L52.264 320.876Z" fill="#263238" stroke="#263238" stroke-linecap="round" stroke-linejoin="round"/>
<path d="M55.488 303.564C55.488 303.564 43.608 304.5 43.112 313.268C43.112 313.268 55.144 318.804 55.488 303.564Z" fill="#FF613E" fill-opacity="0.68" stroke="#263238" stroke-linecap="round" stroke-linejoin="round"/>
<path d="M31.984 305.74C31.984 305.74 25.344 296.764 14.616 301.364C14.616 301.364 21.168 312.188 31.984 305.74Z" fill="#FF613E" fill-opacity="0.68" stroke="#263238" stroke-linecap="round" stroke-linejoin="round"/>
<path d="M15.528 277.404C15.528 277.404 13.616 294.668 29.336 289.916C29.336 289.916 24.344 277.22 15.528 277.404Z" fill="#FF613E" fill-opacity="0.68" stroke="#263238" stroke-linecap="round" stroke-linejoin="round"/>
<path d="M34.832 267.788C34.832 267.788 22.4 274.492 31.544 284.668C31.536 284.668 40.248 277.396 34.832 267.788Z" fill="#FF613E" fill-opacity="0.68" stroke="#263238" stroke-linecap="round" stroke-linejoin="round"/>
<path d="M50.12 283.22C50.12 283.22 36.6 281.852 36.6 294.364C36.6 294.364 50.12 294.9 50.12 283.22Z" fill="#FF613E" fill-opacity="0.68" stroke="#263238" stroke-linecap="round" stroke-linejoin="round"/>
<path d="M37.376 331.124C37.376 331.124 43.536 318.196 37.624 305.028C31.712 291.86 29.704 280.764 32.824 272.948" stroke="#263238" stroke-linecap="round" stroke-linejoin="round"/>
<path d="M45.68 286.588C45.68 286.588 37.576 289.788 34.832 298.148" stroke="#263238" stroke-linecap="round" stroke-linejoin="round"/>
<path d="M19.8 284.308C19.8 284.308 24.48 290.708 32.408 289.996" stroke="#263238" stroke-linecap="round" stroke-linejoin="round"/>
<path d="M19.8 303.204C19.8 303.204 32.76 306.932 37.912 305.716" stroke="#263238" stroke-linecap="round" stroke-linejoin="round"/>
<path d="M51.632 307.508C51.632 307.508 45.832 313.908 40.008 313.772" stroke="#263238" stroke-linecap="round" stroke-linejoin="round"/>
<path d="M53.432 320.324H23.888V323.836H53.432V320.324Z" fill="#263238" stroke="#263238" stroke-linecap="round" stroke-linejoin="round"/>
<path d="M267.824 297.788C260.917 302.3 255.122 308.317 250.872 315.388C243.824 327.148 238.24 343.692 246.912 345.788L255.16 345.476L271.032 340.028L269.368 336.828C269.368 336.828 255.472 344.188 253.096 344.188C250.72 344.188 247.624 344.78 246.32 343.828C245.016 342.876 250.888 321.492 263.456 314.364C276.024 307.236 267.824 297.788 267.824 297.788Z" fill="#F2EFEF"/>
<path d="M267.824 297.788C260.917 302.3 255.122 308.317 250.872 315.388C243.824 327.148 238.24 343.692 246.912 345.788L255.16 345.476L271.032 340.028L269.368 336.828C269.368 336.828 255.472 344.188 253.096 344.188C250.72 344.188 247.624 344.78 246.32 343.828C245.016 342.876 250.888 321.492 263.456 314.364C276.024 307.236 267.824 297.788 267.824 297.788Z" fill="#FF613E" fill-opacity="0.68"/>
<mask id="mask8_6_7813" style="mask-type:luminance" maskUnits="userSpaceOnUse" x="242" y="297" width="30" height="49">
<path d="M267.824 297.788C260.917 302.3 255.122 308.317 250.872 315.388C243.824 327.148 238.24 343.692 246.912 345.788L255.16 345.476L271.032 340.028L269.368 336.828C269.368 336.828 255.472 344.188 253.096 344.188C250.72 344.188 247.624 344.78 246.32 343.828C245.016 342.876 250.888 321.492 263.456 314.364C276.024 307.236 267.824 297.788 267.824 297.788Z" fill="white"/>
</mask>
<g mask="url(#mask8_6_7813)">
<path opacity="0.5" d="M267.824 297.788C260.917 302.3 255.122 308.317 250.872 315.388C243.824 327.148 238.24 343.692 246.912 345.788L255.16 345.476L271.032 340.028L269.368 336.828C269.368 336.828 255.472 344.188 253.096 344.188C250.72 344.188 247.624 344.78 246.32 343.828C245.016 342.876 250.888 321.492 263.456 314.364C276.024 307.236 267.824 297.788 267.824 297.788Z" fill="black" fill-opacity="0.7"/>
</g>
<path d="M267.824 297.788C260.917 302.3 255.122 308.317 250.872 315.388C243.824 327.148 238.24 343.692 246.912 345.788L255.16 345.476L271.032 340.028L269.368 336.828C269.368 336.828 255.472 344.188 253.096 344.188C250.72 344.188 247.624 344.78 246.32 343.828C245.016 342.876 250.888 321.492 263.456 314.364C276.024 307.236 267.824 297.788 267.824 297.788Z" stroke="#263238" stroke-linecap="round" stroke-linejoin="round"/>
<path d="M276.856 290.076C276.856 290.076 276.856 286.628 282.08 286.156C287.304 285.684 288.048 290.716 288.048 290.716H286.248C286.248 290.716 286.288 287.7 282.448 287.468C278.608 287.236 278.752 290.716 278.752 290.716L276.856 290.076Z" fill="#F2EFEF"/>
<path d="M276.856 290.076C276.856 290.076 276.856 286.628 282.08 286.156C287.304 285.684 288.048 290.716 288.048 290.716H286.248C286.248 290.716 286.288 287.7 282.448 287.468C278.608 287.236 278.752 290.716 278.752 290.716L276.856 290.076Z" fill="#FF613E" fill-opacity="0.68"/>
<path d="M276.856 290.076C276.856 290.076 276.856 286.628 282.08 286.156C287.304 285.684 288.048 290.716 288.048 290.716H286.248C286.248 290.716 286.288 287.7 282.448 287.468C278.608 287.236 278.752 290.716 278.752 290.716L276.856 290.076Z" stroke="#263238" stroke-linecap="round" stroke-linejoin="round"/>
<path d="M269.128 345.788C258.08 345.788 260.176 296.244 261.448 293.788C262.72 291.332 294.776 290.108 297.936 291.148C301.096 292.188 313.768 341.548 306.776 345.492L269.128 345.788Z" fill="#F2EFEF"/>
<path d="M269.128 345.788C258.08 345.788 260.176 296.244 261.448 293.788C262.72 291.332 294.776 290.108 297.936 291.148C301.096 292.188 313.768 341.548 306.776 345.492L269.128 345.788Z" fill="#FF613E" fill-opacity="0.68"/>
<mask id="mask9_6_7813" style="mask-type:luminance" maskUnits="userSpaceOnUse" x="260" y="290" width="49" height="56">
<path d="M269.128 345.788C258.08 345.788 260.176 296.244 261.448 293.788C262.72 291.332 294.776 290.108 297.936 291.148C301.096 292.188 313.768 341.548 306.776 345.492L269.128 345.788Z" fill="white"/>
</mask>
<g mask="url(#mask9_6_7813)">
<path opacity="0.2" d="M269.128 345.788C258.08 345.788 260.176 296.244 261.448 293.788C262.72 291.332 294.776 290.108 297.936 291.148C301.096 292.188 313.768 341.548 306.776 345.492L269.128 345.788Z" fill="black" fill-opacity="0.7"/>
</g>
<path d="M269.128 345.788C258.08 345.788 260.176 296.244 261.448 293.788C262.72 291.332 294.776 290.108 297.936 291.148C301.096 292.188 313.768 341.548 306.776 345.492L269.128 345.788Z" stroke="#263238" stroke-linecap="round" stroke-linejoin="round"/>
<path d="M261.448 293.732C265.448 294.588 267.752 310.804 273.136 314.932C278.52 319.06 303.904 318.172 306.776 314.932C309.648 311.692 304.032 293.5 299.952 290.716C295.872 287.932 292.968 290.636 281.488 289.364C264.472 287.468 261.448 293.732 261.448 293.732Z" fill="#F2EFEF"/>
<path d="M261.448 293.732C265.448 294.588 267.752 310.804 273.136 314.932C278.52 319.06 303.904 318.172 306.776 314.932C309.648 311.692 304.032 293.5 299.952 290.716C295.872 287.932 292.968 290.636 281.488 289.364C264.472 287.468 261.448 293.732 261.448 293.732Z" fill="#FF613E" fill-opacity="0.68"/>
<path d="M261.448 293.732C265.448 294.588 267.752 310.804 273.136 314.932C278.52 319.06 303.904 318.172 306.776 314.932C309.648 311.692 304.032 293.5 299.952 290.716C295.872 287.932 292.968 290.636 281.488 289.364C264.472 287.468 261.448 293.732 261.448 293.732Z" stroke="#263238" stroke-linecap="round" stroke-linejoin="round"/>
<path d="M290.584 303.052L295.288 306.892C295.352 306.946 295.405 307.013 295.443 307.088C295.482 307.163 295.505 307.245 295.512 307.329C295.518 307.413 295.508 307.497 295.482 307.578C295.456 307.658 295.415 307.732 295.36 307.796L291.696 311.748C291.579 311.864 291.421 311.929 291.256 311.929C291.091 311.929 290.933 311.864 290.816 311.748L286.136 307.388C286.022 307.27 285.958 307.112 285.958 306.948C285.958 306.784 286.022 306.626 286.136 306.508L289.76 303.14C289.863 303.027 290.003 302.956 290.155 302.939C290.307 302.923 290.46 302.963 290.584 303.052Z" fill="#F2EFEF"/>
<path d="M290.584 303.052L295.288 306.892C295.352 306.946 295.405 307.013 295.443 307.088C295.482 307.163 295.505 307.245 295.512 307.329C295.518 307.413 295.508 307.497 295.482 307.578C295.456 307.658 295.415 307.732 295.36 307.796L291.696 311.748C291.579 311.864 291.421 311.929 291.256 311.929C291.091 311.929 290.933 311.864 290.816 311.748L286.136 307.388C286.022 307.27 285.958 307.112 285.958 306.948C285.958 306.784 286.022 306.626 286.136 306.508L289.76 303.14C289.863 303.027 290.003 302.956 290.155 302.939C290.307 302.923 290.46 302.963 290.584 303.052Z" fill="#FF613E" fill-opacity="0.68"/>
<mask id="mask10_6_7813" style="mask-type:luminance" maskUnits="userSpaceOnUse" x="285" y="302" width="11" height="10">
<path d="M290.584 303.052L295.288 306.892C295.352 306.946 295.405 307.013 295.443 307.088C295.482 307.163 295.505 307.245 295.512 307.329C295.518 307.413 295.508 307.497 295.482 307.578C295.456 307.658 295.415 307.732 295.36 307.796L291.696 311.748C291.579 311.864 291.421 311.929 291.256 311.929C291.091 311.929 290.933 311.864 290.816 311.748L286.136 307.388C286.022 307.27 285.958 307.112 285.958 306.948C285.958 306.784 286.022 306.626 286.136 306.508L289.76 303.14C289.863 303.027 290.003 302.956 290.155 302.939C290.307 302.923 290.46 302.963 290.584 303.052Z" fill="white"/>
</mask>
<g mask="url(#mask10_6_7813)">
<path opacity="0.2" d="M290.584 303.052L295.288 306.892C295.352 306.946 295.405 307.013 295.443 307.088C295.482 307.163 295.505 307.245 295.512 307.329C295.518 307.413 295.508 307.497 295.482 307.578C295.456 307.658 295.415 307.732 295.36 307.796L291.696 311.748C291.579 311.864 291.421 311.929 291.256 311.929C291.091 311.929 290.933 311.864 290.816 311.748L286.136 307.388C286.022 307.27 285.958 307.112 285.958 306.948C285.958 306.784 286.022 306.626 286.136 306.508L289.76 303.14C289.863 303.027 290.003 302.956 290.155 302.939C290.307 302.923 290.46 302.963 290.584 303.052Z" fill="black" fill-opacity="0.7"/>
</g>
<path d="M290.584 303.052L295.288 306.892C295.352 306.946 295.405 307.013 295.443 307.088C295.482 307.163 295.505 307.245 295.512 307.329C295.518 307.413 295.508 307.497 295.482 307.578C295.456 307.658 295.415 307.732 295.36 307.796L291.696 311.748C291.579 311.864 291.421 311.929 291.256 311.929C291.091 311.929 290.933 311.864 290.816 311.748L286.136 307.388C286.022 307.27 285.958 307.112 285.958 306.948C285.958 306.784 286.022 306.626 286.136 306.508L289.76 303.14C289.863 303.027 290.003 302.956 290.155 302.939C290.307 302.923 290.46 302.963 290.584 303.052Z" stroke="#263238" stroke-linecap="round" stroke-linejoin="round"/>
<path d="M275.072 323.22C275.072 323.22 296.336 324.972 306.776 322.268C308.173 323.367 309.211 324.857 309.76 326.548C310.712 329.396 312.696 339.14 306.776 341.636C300.856 344.132 279.576 343.652 276.736 340.836C273.896 338.02 275.072 323.22 275.072 323.22Z" fill="#F2EFEF"/>
<path d="M275.072 323.22C275.072 323.22 296.336 324.972 306.776 322.268C308.173 323.367 309.211 324.857 309.76 326.548C310.712 329.396 312.696 339.14 306.776 341.636C300.856 344.132 279.576 343.652 276.736 340.836C273.896 338.02 275.072 323.22 275.072 323.22Z" fill="#FF613E" fill-opacity="0.68"/>
<mask id="mask11_6_7813" style="mask-type:luminance" maskUnits="userSpaceOnUse" x="274" y="322" width="37" height="22">
<path d="M275.072 323.22C275.072 323.22 296.336 324.972 306.776 322.268C308.173 323.367 309.211 324.857 309.76 326.548C310.712 329.396 312.696 339.14 306.776 341.636C300.856 344.132 279.576 343.652 276.736 340.836C273.896 338.02 275.072 323.22 275.072 323.22Z" fill="white"/>
</mask>
<g mask="url(#mask11_6_7813)">
<path opacity="0.4" d="M275.072 323.22C275.072 323.22 296.336 324.972 306.776 322.268C308.173 323.367 309.211 324.857 309.76 326.548C310.712 329.396 312.696 339.14 306.776 341.636C300.856 344.132 279.576 343.652 276.736 340.836C273.896 338.02 275.072 323.22 275.072 323.22Z" fill="black" fill-opacity="0.7"/>
</g>
<path d="M275.072 323.22C275.072 323.22 296.336 324.972 306.776 322.268C308.173 323.367 309.211 324.857 309.76 326.548C310.712 329.396 312.696 339.14 306.776 341.636C300.856 344.132 279.576 343.652 276.736 340.836C273.896 338.02 275.072 323.22 275.072 323.22Z" stroke="#263238" stroke-linecap="round" stroke-linejoin="round"/>
<path d="M275.072 323.22C275.072 323.22 277.568 329.948 278.872 330.98C280.176 332.012 307.8 332.012 310.872 329.516C313.944 327.02 309.736 322.508 306.784 322.268C306.776 322.268 287.424 324.524 275.072 323.22Z" fill="#F2EFEF"/>
<path d="M275.072 323.22C275.072 323.22 277.568 329.948 278.872 330.98C280.176 332.012 307.8 332.012 310.872 329.516C313.944 327.02 309.736 322.508 306.784 322.268C306.776 322.268 287.424 324.524 275.072 323.22Z" fill="#FF613E" fill-opacity="0.68"/>
<path d="M275.072 323.22C275.072 323.22 277.568 329.948 278.872 330.98C280.176 332.012 307.8 332.012 310.872 329.516C313.944 327.02 309.736 322.508 306.784 322.268C306.776 322.268 287.424 324.524 275.072 323.22Z" stroke="#263238" stroke-linecap="round" stroke-linejoin="round"/>
<path d="M266.16 321.788C266.16 321.788 266.872 335.924 268.296 339.132C267.239 339.684 266.064 339.972 264.872 339.972C263.68 339.972 262.505 339.684 261.448 339.132C257.848 337.228 258.44 325.052 259.152 325.084C259.864 325.116 266.16 321.788 266.16 321.788Z" fill="#F2EFEF"/>
<path d="M266.16 321.788C266.16 321.788 266.872 335.924 268.296 339.132C267.239 339.684 266.064 339.972 264.872 339.972C263.68 339.972 262.505 339.684 261.448 339.132C257.848 337.228 258.44 325.052 259.152 325.084C259.864 325.116 266.16 321.788 266.16 321.788Z" fill="#FF613E" fill-opacity="0.68"/>
<mask id="mask12_6_7813" style="mask-type:luminance" maskUnits="userSpaceOnUse" x="258" y="321" width="11" height="19">
<path d="M266.16 321.788C266.16 321.788 266.872 335.924 268.296 339.132C267.239 339.684 266.064 339.972 264.872 339.972C263.68 339.972 262.505 339.684 261.448 339.132C257.848 337.228 258.44 325.052 259.152 325.084C259.864 325.116 266.16 321.788 266.16 321.788Z" fill="white"/>
</mask>
<g mask="url(#mask12_6_7813)">
<path opacity="0.4" d="M266.16 321.788C266.16 321.788 266.872 335.924 268.296 339.132C267.239 339.684 266.064 339.972 264.872 339.972C263.68 339.972 262.505 339.684 261.448 339.132C257.848 337.228 258.44 325.052 259.152 325.084C259.864 325.116 266.16 321.788 266.16 321.788Z" fill="black" fill-opacity="0.7"/>
</g>
<path d="M266.16 321.788C266.16 321.788 266.872 335.924 268.296 339.132C267.239 339.684 266.064 339.972 264.872 339.972C263.68 339.972 262.505 339.684 261.448 339.132C257.848 337.228 258.44 325.052 259.152 325.084C259.864 325.116 266.16 321.788 266.16 321.788Z" stroke="#263238" stroke-linecap="round" stroke-linejoin="round"/>
<path d="M266.16 321.788L260.808 322.86C260.808 322.86 255.704 326.78 257.96 328.084C260.216 329.388 266.032 326.188 266.16 321.788Z" fill="#F2EFEF"/>
<path d="M266.16 321.788L260.808 322.86C260.808 322.86 255.704 326.78 257.96 328.084C260.216 329.388 266.032 326.188 266.16 321.788Z" fill="#FF613E" fill-opacity="0.68"/>
<path d="M266.16 321.788L260.808 322.86C260.808 322.86 255.704 326.78 257.96 328.084C260.216 329.388 266.032 326.188 266.16 321.788Z" stroke="#263238" stroke-linecap="round" stroke-linejoin="round"/>
</svg>
