<svg width="45" height="45" viewBox="0 0 45 45" fill="none" xmlns="http://www.w3.org/2000/svg">
<path d="M25 7.2271L25.0007 7.22851L28.2246 13.6763C28.2251 13.6774 28.2256 13.6784 28.2261 13.6794C28.5136 14.2647 29.0102 14.7904 29.5483 15.1874C30.0878 15.5855 30.7369 15.9043 31.3782 16.0112L31.3786 16.0113L37.2265 16.9829C38.9672 17.273 39.7845 18.0031 40.0114 18.7093C40.2379 19.4137 40 20.4791 38.7463 21.7243L38.7445 21.7261L34.1978 26.2728C33.7004 26.7702 33.3494 27.4575 33.1523 28.1459C32.9552 28.8345 32.8899 29.6022 33.043 30.2855L33.043 30.2855L33.0441 30.2904L34.3457 35.9182C34.8444 38.0824 34.4249 39.1991 33.8578 39.6125C33.2894 40.0268 32.0933 40.0854 30.1779 38.954L24.6972 35.7095C24.0582 35.3309 23.2619 35.1648 22.5067 35.1648C21.7509 35.1648 20.9528 35.3312 20.3077 35.7065L20.3077 35.7065L20.3028 35.7094L14.8211 38.9544L14.8204 38.9548C12.9179 40.0839 11.7208 40.023 11.149 39.6058C10.5777 39.189 10.1561 38.0699 10.6539 35.9188L10.6539 35.9188L11.9555 30.2904L11.9556 30.2904L11.9567 30.2855C12.1098 29.6022 12.0445 28.8345 11.8473 28.1459C11.6503 27.4575 11.2992 26.7702 10.8018 26.2728L6.25516 21.7261C5.00983 20.4808 4.77002 19.4141 4.99554 18.7079C5.22083 18.0024 6.03324 17.2729 7.77313 16.9829L13.6211 16.0113L13.6237 16.0108C14.2567 15.9034 14.9009 15.5837 15.4367 15.1864C15.9716 14.7898 16.4679 14.2644 16.7553 13.6793L19.98 7.22991C19.9801 7.2297 19.9802 7.22949 19.9803 7.22928C20.806 5.58676 21.761 5.01685 22.4975 5.01685C23.2328 5.01685 24.1833 5.58525 25 7.2271Z" fill="#E8E8E8" stroke="#E8E8E8" stroke-width="1.5" stroke-linecap="round" stroke-linejoin="round"/>
<path d="M18.4968 21.3483C19.1212 21.3483 19.6274 20.842 19.6274 20.2175C19.6274 19.5929 19.1212 19.0867 18.4968 19.0867C17.8724 19.0867 17.3662 19.5929 17.3662 20.2175C17.3662 20.842 17.8724 21.3483 18.4968 21.3483Z" fill="#C6C6C6"/>
<path d="M26.4123 21.3483C27.0368 21.3483 27.543 20.842 27.543 20.2175C27.543 19.5929 27.0368 19.0867 26.4123 19.0867C25.7879 19.0867 25.2817 19.5929 25.2817 20.2175C25.2817 20.842 25.7879 21.3483 26.4123 21.3483Z" fill="#C6C6C6"/>
<path d="M17.9959 30.1748C17.6655 30.166 17.4717 29.8484 17.4717 28.9929C17.4717 26.1518 21.6387 26.0634 22.4485 26.0731C23.2242 26.0623 27.4388 26.1362 27.4388 28.9927C27.4388 29.8219 27.2567 30.1458 26.9446 30.1729" fill="#C6C6C6"/>
</svg>
