<svg width="35" height="34" viewBox="0 0 35 34" fill="none" xmlns="http://www.w3.org/2000/svg">
<mask id="mask0_786_899" style="mask-type:alpha" maskUnits="userSpaceOnUse" x="2" y="1" width="31" height="31">
<path fill-rule="evenodd" clip-rule="evenodd" d="M32.2 1.4165H2.79999V31.1665H32.2V1.4165ZM17.5 8.49984C15.1803 8.49984 13.3 10.4026 13.3 12.7498V14.1665C13.3 16.5138 15.1803 18.4165 17.5 18.4165C19.8195 18.4165 21.7 16.5138 21.7 14.1665V12.7498C21.7 10.4026 19.8195 8.49984 17.5 8.49984ZM17.4998 28.3332C21.0694 28.3332 24.249 26.6434 26.2998 24.0112C24.9805 22.2772 22.9344 21.2498 20.7539 21.2498H14.2464C12.0657 21.2498 10.0194 22.2773 8.70009 24.0116C10.751 26.6435 13.9304 28.3332 17.4998 28.3332Z" fill="#D9D9D9"/>
</mask>
<g mask="url(#mask0_786_899)">
<path d="M17.5 30.1038C24.652 30.1038 30.45 24.2369 30.45 16.9997C30.45 9.76245 24.652 3.89551 17.5 3.89551C10.3479 3.89551 4.54999 9.76245 4.54999 16.9997C4.54999 24.2369 10.3479 30.1038 17.5 30.1038Z" fill="#FF7E31" stroke="#FF7E31" stroke-width="2" stroke-miterlimit="10" stroke-linecap="round"/>
</g>
</svg>
