<svg width="35" height="34" viewBox="0 0 35 34" fill="none" xmlns="http://www.w3.org/2000/svg">
<mask id="mask0_319_2641" style="mask-type:luminance" maskUnits="userSpaceOnUse" x="0" y="0" width="35" height="34">
<path d="M34.3 0H0.699951V34H34.3V0Z" fill="white"/>
</mask>
<g mask="url(#mask0_319_2641)">
<path d="M17.5 30.1043C24.6521 30.1043 30.4501 24.2373 30.4501 17.0002C30.4501 9.76294 24.6521 3.896 17.5 3.896C10.348 3.896 4.55005 9.76294 4.55005 17.0002C4.55005 24.2373 10.348 30.1043 17.5 30.1043Z" stroke="#F0F0F0" stroke-width="2" stroke-miterlimit="10" stroke-linecap="round"/>
<path fill-rule="evenodd" clip-rule="evenodd" d="M9.02269 26.9063L9.25626 26.5791C10.3749 25.0118 12.1692 24.0835 14.0797 24.0835H20.9213C22.8321 24.0835 24.6264 25.012 25.745 26.5794L25.9783 26.9062C26.5157 26.4347 27.0144 25.9194 27.469 25.3653L27.4474 25.3353C25.934 23.2147 23.5063 21.9585 20.9213 21.9585H14.0797C11.4949 21.9585 9.06731 23.2145 7.55388 25.3348L7.53198 25.3654C7.98648 25.9195 8.4852 26.4349 9.02269 26.9063Z" fill="#F0F0F0"/>
<path d="M13.6501 12.7503C13.6501 10.5987 15.3738 8.85449 17.5001 8.85449C19.6265 8.85449 21.3501 10.5987 21.3501 12.7503V14.8753C21.3501 17.027 19.6265 18.7712 17.5001 18.7712C15.3738 18.7712 13.6501 17.027 13.6501 14.8753V12.7503Z" stroke="#F0F0F0" stroke-width="1.5" stroke-linejoin="round"/>
</g>
</svg>
