<svg width="42" height="42" viewBox="0 0 42 42" fill="none" xmlns="http://www.w3.org/2000/svg">
<path id="Vector" d="M21 0.834961C26.3481 0.834961 31.4771 2.95948 35.2588 6.74115C39.0404 10.5228 41.165 15.6519 41.165 21C41.165 26.3481 39.0404 31.4771 35.2588 35.2588C31.4771 39.0404 26.3481 41.165 21 41.165C15.6519 41.165 10.5228 39.0404 6.74115 35.2588C2.95948 31.4771 0.834961 26.3481 0.834961 21C0.834961 15.6519 2.95948 10.5228 6.74115 6.74115C10.5228 2.95948 15.6519 0.834961 21 0.834961ZM18.488 24.9782L14.0085 20.4958C13.8479 20.3352 13.6572 20.2079 13.4474 20.121C13.2376 20.034 13.0127 19.9893 12.7856 19.9893C12.5585 19.9893 12.3336 20.034 12.1238 20.121C11.914 20.2079 11.7233 20.3352 11.5627 20.4958C11.2384 20.8202 11.0562 21.26 11.0562 21.7187C11.0562 22.1774 11.2384 22.6172 11.5627 22.9416L17.2666 28.6454C17.4267 28.8068 17.6172 28.9349 17.8271 29.0223C18.037 29.1097 18.2621 29.1547 18.4894 29.1547C18.7168 29.1547 18.9419 29.1097 19.1518 29.0223C19.3616 28.9349 19.5521 28.8068 19.7123 28.6454L31.5232 16.8316C31.6859 16.6716 31.8154 16.4811 31.9041 16.2709C31.9928 16.0607 32.0391 15.835 32.0401 15.6068C32.0412 15.3787 31.9971 15.1526 31.9103 14.9415C31.8235 14.7305 31.6959 14.5388 31.5346 14.3773C31.3734 14.2159 31.1818 14.088 30.9709 14.001C30.7599 13.914 30.5339 13.8696 30.3057 13.8704C30.0776 13.8712 29.8518 13.9171 29.6415 14.0056C29.4312 14.0941 29.2405 14.2233 29.0804 14.3858L18.488 24.9782Z" fill="#517B2C"/>
</svg>
