<svg width="37" height="20" viewBox="0 0 37 20" fill="none" xmlns="http://www.w3.org/2000/svg">
<g id="Group 2">
<rect id="Rectangle 1" width="36.1538" height="20" rx="10" transform="matrix(-1 0 0 1 36.1738 0)" fill="url(#paint0_linear_256_5058)" fill-opacity="0.8"/>
<rect id="Rectangle 2" width="13.8462" height="13.8462" rx="6.92308" transform="matrix(-1 0 0 1 33.0968 3.07715)" fill="white"/>
<g id="Group 1">
<rect id="Rectangle 3" width="3.69231" height="3.69231" rx="1.84615" transform="matrix(-1 0 0 1 11.7122 3.07764)" fill="white"/>
<rect id="Rectangle 4" width="2" height="2" rx="1" transform="matrix(-1 0 0 1 15.4044 9.07764)" fill="white"/>
</g>
<g id="Group 76653">
<g id="Group">
<g id="Group_2">
<g id="Vector">
<path d="M28.2481 7.16183C28.0974 6.02112 27.6487 4.99454 26.9941 4.14366C26.8355 3.93786 26.9939 3.63675 27.2519 3.66764C30.2271 4.02646 32.6675 6.47109 32.8185 9.67165C32.9605 12.6928 30.868 15.4504 27.9193 16.1244C25.8733 16.592 23.8824 16.0249 22.4274 14.8067C22.231 14.6419 22.3374 14.3183 22.5926 14.2955C22.6603 14.2897 22.7288 14.282 22.7971 14.273C26.2659 13.8147 28.7064 10.6313 28.2481 7.16183Z" fill="white"/>
<path fill-rule="evenodd" clip-rule="evenodd" d="M27.2802 3.43169C26.7927 3.37334 26.5314 3.93242 26.8058 4.28869C27.4359 5.10771 27.8675 6.09529 28.0125 7.19295C28.4536 10.5324 26.1047 13.5963 22.766 14.0374C22.7008 14.046 22.6359 14.0532 22.5723 14.0587L22.5718 14.0587L22.5713 14.0588C22.1139 14.0998 21.9098 14.6827 22.2747 14.9888L22.2749 14.9889C23.784 16.2524 25.8502 16.8411 27.9722 16.356C31.0332 15.6565 33.2033 12.7964 33.0559 9.6605L33.0559 9.66045C32.8993 6.34007 30.3667 3.80394 27.2804 3.43171L27.2802 3.43169ZM32.5812 9.68281C32.4358 6.60213 30.0875 4.24904 27.2236 3.90358L32.5812 9.68281ZM27.2236 3.90358C27.2091 3.90187 27.2012 3.90483 27.1961 3.90766C27.1897 3.91121 27.1822 3.91806 27.1763 3.92908C27.1644 3.95125 27.1651 3.97631 27.1823 3.99863L27.1824 3.99875C27.8616 4.88147 28.3273 5.94701 28.4837 7.1307C28.9592 10.7303 26.4272 14.0331 22.8282 14.5086C22.757 14.518 22.6851 14.526 22.6136 14.5322C22.5998 14.5334 22.5912 14.538 22.5848 14.5434C22.5774 14.5496 22.5705 14.5593 22.5666 14.5714C22.5627 14.5835 22.5628 14.5943 22.5648 14.6021C22.5664 14.6085 22.5699 14.6161 22.5801 14.6247C23.981 15.7975 25.8965 16.343 27.8663 15.8927C30.7028 15.2444 32.7177 12.5892 32.5812 9.68285" fill="white"/>
</g>
</g>
</g>
<path id="Vector_2" d="M26.4199 5.3695C26.5559 5.26145 26.5843 5.09449 26.5439 4.964C26.5033 4.83302 26.3822 4.70742 26.2019 4.70325L26.2017 4.70324L25.3905 4.68507L25.1209 3.87524L25.1209 3.87524L26.2644 5.1738M26.4199 5.3695L26.2644 5.1738M26.4199 5.3695L26.42 5.36943L26.2644 5.1738M26.4199 5.3695L25.7643 5.89117M26.2644 5.1738L25.4778 5.79966M25.7643 5.89117L25.718 5.73048L25.4778 5.79966M25.7643 5.89117L26.0032 6.72101M25.7643 5.89117L25.6334 5.99529L25.4778 5.79966M25.4778 5.79966L26.0032 6.72101M26.0032 6.72101L26.0033 6.72121L25.7631 6.79039L26.0032 6.72101ZM25.4371 7.12864L25.5841 6.92641L25.437 7.1286C25.4371 7.12861 25.4371 7.12863 25.4371 7.12864ZM24.7725 6.64562L24.9195 6.53876L24.7725 6.33655L24.6255 6.53878L24.7725 6.64562ZM24.1084 7.12841L23.9611 6.92641L24.1081 7.12862L24.1082 7.1285C23.9634 7.23402 23.789 7.21162 23.6738 7.12391C23.5605 7.0376 23.4952 6.88295 23.5419 6.72112C23.5419 6.72103 23.5419 6.72095 23.542 6.72086L23.7821 6.79039L24.1084 7.12841ZM23.7806 5.89123L23.9115 5.99531L24.0671 5.79966L23.8269 5.73054L23.7806 5.89123ZM23.3433 4.70324L23.3432 4.70324L23.3488 4.95318L23.3436 4.70324C23.3435 4.70324 23.3434 4.70324 23.3433 4.70324ZM24.1546 4.68507L24.099 4.85214L24.3362 4.93107L24.3306 4.68113L24.1546 4.68507Z" fill="white" stroke="white" stroke-width="0.5"/>
<path id="Vector_3" d="M30.8513 12.1546L30.8513 12.1546L31.0071 12.6225L31.4728 12.633L31.473 12.633C31.6338 12.6367 31.7412 12.7491 31.7768 12.864C31.8123 12.9784 31.7875 13.1262 31.6672 13.2219C31.6672 13.222 31.6671 13.222 31.6671 13.222L31.2868 13.5246L31.4259 14.0077C31.4259 14.0078 31.4259 14.0078 31.4259 14.0079C31.4669 14.1499 31.4098 14.2869 31.3091 14.3636C31.2066 14.4416 31.0508 14.4611 30.9224 14.3677C30.9224 14.3677 30.9223 14.3677 30.9223 14.3677L30.5418 14.0912L30.1617 14.3675C30.1616 14.3676 30.1615 14.3676 30.1614 14.3677C30.1614 14.3677 30.1614 14.3677 30.1614 14.3677C30.0326 14.4614 29.8767 14.4412 29.7747 14.3635C29.6744 14.2871 29.6168 14.1502 29.6579 14.0078L29.6578 14.008L29.8981 14.0771L29.6579 14.0076L30.8513 12.1546ZM30.8513 12.1546L30.8511 12.1539M30.8513 12.1546L30.8511 12.1539M31.4614 13.1328C31.437 13.1323 31.415 13.127 31.3956 13.1186L31.3799 13.131L31.4614 13.1328ZM31.4614 13.1328L31.463 13.065L31.4631 13.0648L31.4616 13.1328L31.4614 13.1328ZM30.3771 12.3132L30.4513 12.2883L30.4515 12.2877L30.3769 12.3126L30.3771 12.3132ZM30.3771 12.3132L30.4101 12.4122L30.42 12.3825C30.4015 12.3645 30.3866 12.3415 30.3771 12.3132ZM29.7279 12.831C29.746 12.8454 29.7597 12.8619 29.7696 12.8795L29.7884 12.879L29.7279 12.831ZM29.7279 12.831L29.6877 12.8813L29.6872 12.8813L29.7275 12.8306L29.7279 12.831ZM30.8511 12.1539C30.75 11.8534 30.3339 11.8583 30.233 12.1525L30.233 12.1525M30.8511 12.1539L30.233 12.1525M30.233 12.1525L30.2323 12.1546M30.233 12.1525L30.2323 12.1546M30.2323 12.1546L30.0766 12.6225L30.2323 12.1546ZM29.7969 13.5247L29.9277 13.6288L30.0833 13.4331L29.8431 13.364L29.7969 13.5247ZM29.9476 13.905L29.8674 13.9633C29.8902 13.9468 29.9148 13.9369 29.9396 13.9327L29.9476 13.905ZM30.1641 14.0567L30.1423 14.0725C30.1464 14.0962 30.1455 14.1213 30.1383 14.1462L30.1641 14.0567ZM30.9415 14.0726L30.9197 14.0567L30.9455 14.1463C30.9383 14.1214 30.9374 14.0963 30.9415 14.0726ZM31.1361 13.905L31.1441 13.9327C31.1689 13.9369 31.1936 13.9468 31.2163 13.9632L31.1361 13.905ZM31.314 12.8795C31.324 12.8618 31.3378 12.8451 31.3559 12.8307L31.2951 12.879L31.314 12.8795ZM30.6635 12.382L30.6736 12.4122L30.7067 12.3125L30.6321 12.2877L30.6327 12.2895L30.706 12.3147C30.6967 12.3418 30.6819 12.3643 30.6635 12.382ZM29.7035 13.131L29.688 13.1186C29.6686 13.127 29.6466 13.1323 29.622 13.1328L29.7035 13.131Z" fill="white" stroke="white" stroke-width="0.5"/>
<circle id="Ellipse 1" cx="21.6957" cy="10.9489" r="0.615385" fill="white"/>
</g>
</g>
<defs>
<linearGradient id="paint0_linear_256_5058" x1="0" y1="0" x2="16.9428" y2="30.6274" gradientUnits="userSpaceOnUse">
<stop offset="0.355" stop-color="#FF4F28" stop-opacity="0.8"/>
<stop offset="0.775" stop-color="#FF7E31" stop-opacity="0.9"/>
</linearGradient>
</defs>
</svg>
