<svg width="45" height="45" viewBox="0 0 45 45" fill="none" xmlns="http://www.w3.org/2000/svg">
<g id="star">
<path id="Vector" d="M25 7.2271L25.0007 7.22851L28.2246 13.6763C28.2251 13.6774 28.2256 13.6784 28.2261 13.6794C28.5136 14.2647 29.0102 14.7904 29.5483 15.1874C30.0878 15.5855 30.7369 15.9043 31.3782 16.0112L31.3786 16.0113L37.2265 16.9829C38.9672 17.273 39.7845 18.0031 40.0114 18.7093C40.2379 19.4137 40 20.4791 38.7463 21.7243L38.7445 21.7261L34.1978 26.2728C33.7004 26.7702 33.3494 27.4575 33.1523 28.1459C32.9552 28.8345 32.8899 29.6022 33.043 30.2855L33.043 30.2855L33.0441 30.2904L34.3457 35.9182C34.8444 38.0824 34.4249 39.1991 33.8578 39.6125C33.2894 40.0268 32.0933 40.0854 30.1779 38.954L24.6972 35.7095C24.0582 35.3309 23.2619 35.1648 22.5067 35.1648C21.7509 35.1648 20.9528 35.3312 20.3077 35.7065L20.3077 35.7065L20.3028 35.7094L14.8211 38.9544L14.8204 38.9548C12.9179 40.0839 11.7208 40.023 11.149 39.6058C10.5777 39.189 10.1561 38.0699 10.6539 35.9188L10.6539 35.9188L11.9555 30.2904L11.9556 30.2904L11.9567 30.2855C12.1098 29.6022 12.0445 28.8345 11.8473 28.1459C11.6503 27.4575 11.2992 26.7702 10.8018 26.2728L6.25516 21.7261C5.00983 20.4808 4.77002 19.4141 4.99554 18.7079C5.22083 18.0024 6.03324 17.2729 7.77313 16.9829L13.6211 16.0113L13.6237 16.0108C14.2567 15.9034 14.9009 15.5837 15.4367 15.1864C15.9716 14.7898 16.4679 14.2644 16.7553 13.6793L19.98 7.22991C19.9801 7.2297 19.9802 7.22949 19.9803 7.22928C20.806 5.58676 21.761 5.01685 22.4975 5.01685C23.2328 5.01685 24.1833 5.58525 25 7.2271Z" fill="#E8E8E8" stroke="#E8E8E8" stroke-width="1.5" stroke-linecap="round" stroke-linejoin="round"/>
<g id="face">
<path id="Vector_2" d="M18.6114 21.5771C19.2991 21.5771 19.8566 21.0196 19.8566 20.3319C19.8566 19.6442 19.2991 19.0867 18.6114 19.0867C17.9237 19.0867 17.3662 19.6442 17.3662 20.3319C17.3662 21.0196 17.9237 21.5771 18.6114 21.5771Z" fill="#C6C6C6"/>
<path id="Vector_3" d="M26.5265 21.5771C27.2142 21.5771 27.7716 21.0196 27.7716 20.3319C27.7716 19.6442 27.2142 19.0867 26.5265 19.0867C25.8388 19.0867 25.2812 19.6442 25.2812 20.3319C25.2812 21.0196 25.8388 21.5771 26.5265 21.5771Z" fill="#C6C6C6"/>
<path id="Vector_4" d="M17.9959 26.0713C17.6655 26.0801 17.4717 26.3977 17.4717 27.2532C17.4717 30.0943 21.6387 30.1827 22.4485 30.173C23.2242 30.1838 27.4388 30.1099 27.4388 27.2534C27.4388 26.4242 27.2567 26.1003 26.9446 26.0732" fill="#C6C6C6"/>
</g>
</g>
</svg>
