<svg width="33" height="32" viewBox="0 0 33 32" fill="none" xmlns="http://www.w3.org/2000/svg">
<path d="M19.1975 18.1538L22.0725 19.5888C21.9362 20.2697 21.5679 20.8823 21.0304 21.322C20.4929 21.7618 19.8195 22.0014 19.125 22C16.7389 21.9974 14.4512 21.0483 12.764 19.3611C11.0767 17.6738 10.1276 15.3862 10.125 13C10.1248 12.3064 10.365 11.6342 10.8046 11.0977C11.2442 10.5612 11.8561 10.1937 12.5363 10.0575L13.9712 12.9325L12.75 14.75C12.6587 14.8869 12.6027 15.0442 12.5867 15.208C12.5708 15.3717 12.5956 15.5369 12.6587 15.6888C13.3742 17.3893 14.727 18.7421 16.4275 19.4575C16.5799 19.5235 16.7463 19.5505 16.9117 19.5361C17.0771 19.5217 17.2363 19.4664 17.375 19.375L19.1975 18.1538ZM29.125 16C29.1255 18.2445 28.5449 20.4508 27.4397 22.4042C26.3345 24.3577 24.7424 25.9917 22.8184 27.1473C20.8943 28.3029 18.7038 28.9407 16.4602 28.9986C14.2165 29.0564 11.9961 28.5324 10.015 27.4775L5.75875 28.8963C5.40636 29.0138 5.0282 29.0309 4.66666 28.9455C4.30512 28.8602 3.97448 28.6759 3.71181 28.4132C3.44914 28.1506 3.26482 27.8199 3.1795 27.4584C3.09418 27.0968 3.11123 26.7187 3.22875 26.3663L4.6475 22.11C3.72019 20.3666 3.20225 18.4348 3.133 16.4613C3.06375 14.4877 3.44501 12.5244 4.24784 10.7202C5.05067 8.91604 6.25397 7.31847 7.7664 6.04878C9.27883 4.77909 11.0606 3.87063 12.9766 3.39238C14.8925 2.91413 16.8922 2.87865 18.824 3.28862C20.7557 3.6986 22.5686 4.54327 24.1251 5.7585C25.6816 6.97374 26.9408 8.52761 27.8072 10.3022C28.6735 12.0767 29.1242 14.0253 29.125 16ZM24.125 19C24.1251 18.8143 24.0735 18.6321 23.9759 18.474C23.8783 18.3159 23.7386 18.1882 23.5725 18.105L19.5725 16.105C19.415 16.0266 19.2397 15.991 19.0641 16.002C18.8885 16.013 18.719 16.0701 18.5725 16.1675L16.7362 17.3925C15.8933 16.9291 15.1996 16.2355 14.7362 15.3925L15.9613 13.5563C16.0587 13.4098 16.1158 13.2403 16.1268 13.0647C16.1377 12.8891 16.1022 12.7137 16.0238 12.5563L14.0238 8.55629C13.9409 8.38888 13.8127 8.24803 13.6539 8.14972C13.495 8.05141 13.3118 7.99955 13.125 8.00004C11.7989 8.00004 10.5271 8.52682 9.58947 9.46451C8.65178 10.4022 8.125 11.674 8.125 13C8.12831 15.9164 9.2883 18.7124 11.3505 20.7746C13.4127 22.8367 16.2086 23.9967 19.125 24C19.7816 24 20.4318 23.8707 21.0384 23.6194C21.645 23.3682 22.1962 22.9999 22.6605 22.5356C23.1248 22.0713 23.4931 21.5201 23.7444 20.9135C23.9957 20.3068 24.125 19.6566 24.125 19Z" fill="white"/>
<path d="M19.1975 18.1538L22.0725 19.5888C21.9362 20.2697 21.5679 20.8823 21.0304 21.322C20.4929 21.7618 19.8195 22.0014 19.125 22C16.7389 21.9974 14.4512 21.0483 12.764 19.3611C11.0767 17.6738 10.1276 15.3862 10.125 13C10.1248 12.3064 10.365 11.6342 10.8046 11.0977C11.2442 10.5612 11.8561 10.1937 12.5363 10.0575L13.9712 12.9325L12.75 14.75C12.6587 14.8869 12.6027 15.0442 12.5867 15.208C12.5708 15.3717 12.5956 15.5369 12.6587 15.6888C13.3742 17.3893 14.727 18.7421 16.4275 19.4575C16.5799 19.5235 16.7463 19.5505 16.9117 19.5361C17.0771 19.5217 17.2363 19.4664 17.375 19.375L19.1975 18.1538ZM29.125 16C29.1255 18.2445 28.5449 20.4508 27.4397 22.4042C26.3345 24.3577 24.7424 25.9917 22.8184 27.1473C20.8943 28.3029 18.7038 28.9407 16.4602 28.9986C14.2165 29.0564 11.9961 28.5324 10.015 27.4775L5.75875 28.8963C5.40636 29.0138 5.0282 29.0309 4.66666 28.9455C4.30512 28.8602 3.97448 28.6759 3.71181 28.4132C3.44914 28.1506 3.26482 27.8199 3.1795 27.4584C3.09418 27.0968 3.11123 26.7187 3.22875 26.3663L4.6475 22.11C3.72019 20.3666 3.20225 18.4348 3.133 16.4613C3.06375 14.4877 3.44501 12.5244 4.24784 10.7202C5.05067 8.91604 6.25397 7.31847 7.7664 6.04878C9.27883 4.77909 11.0606 3.87063 12.9766 3.39238C14.8925 2.91413 16.8922 2.87865 18.824 3.28862C20.7557 3.6986 22.5686 4.54327 24.1251 5.7585C25.6816 6.97374 26.9408 8.52761 27.8072 10.3022C28.6735 12.0767 29.1242 14.0253 29.125 16ZM24.125 19C24.1251 18.8143 24.0735 18.6321 23.9759 18.474C23.8783 18.3159 23.7386 18.1882 23.5725 18.105L19.5725 16.105C19.415 16.0266 19.2397 15.991 19.0641 16.002C18.8885 16.013 18.719 16.0701 18.5725 16.1675L16.7362 17.3925C15.8933 16.9291 15.1996 16.2355 14.7362 15.3925L15.9613 13.5563C16.0587 13.4098 16.1158 13.2403 16.1268 13.0647C16.1377 12.8891 16.1022 12.7137 16.0238 12.5563L14.0238 8.55629C13.9409 8.38888 13.8127 8.24803 13.6539 8.14972C13.495 8.05141 13.3118 7.99955 13.125 8.00004C11.7989 8.00004 10.5271 8.52682 9.58947 9.46451C8.65178 10.4022 8.125 11.674 8.125 13C8.12831 15.9164 9.2883 18.7124 11.3505 20.7746C13.4127 22.8367 16.2086 23.9967 19.125 24C19.7816 24 20.4318 23.8707 21.0384 23.6194C21.645 23.3682 22.1962 22.9999 22.6605 22.5356C23.1248 22.0713 23.4931 21.5201 23.7444 20.9135C23.9957 20.3068 24.125 19.6566 24.125 19Z" fill="#FF7E31" fill-opacity="0.8"/>
</svg>
