<svg xmlns="http://www.w3.org/2000/svg" width="18" height="19" viewBox="0 0 18 19" fill="none">
  <g clip-path="url(#clip0_1550_1641)">
    <path fill-rule="evenodd" clip-rule="evenodd" d="M1.56443 1.50965C1.92576 1.14787 2.41597 0.944389 2.92729 0.943939L10.1106 0.943939C10.6219 0.944389 11.1121 1.14787 11.4734 1.50965L15.8629 5.89908C16.2246 6.26041 16.4281 6.75062 16.4286 7.26194V17.0154C16.4286 17.5269 16.2254 18.0174 15.8637 18.3791C15.502 18.7408 15.0115 18.9439 14.5 18.9439H2.92857C2.41708 18.9439 1.92654 18.7408 1.56487 18.3791C1.20319 18.0174 1 17.5269 1 17.0154V2.87251C1 2.3608 1.20186 1.86965 1.56443 1.50965ZM7.57129 6.76437C7.67453 6.83792 7.76226 6.9311 7.82946 7.03859C7.89666 7.14607 7.942 7.26576 7.9629 7.39079C7.9838 7.51582 7.97984 7.64374 7.95125 7.76724C7.92266 7.89074 7.87 8.00738 7.79629 8.11051L6.00014 10.6254C5.91869 10.7392 5.81346 10.8339 5.69174 10.9029C5.57002 10.9719 5.43473 11.0136 5.29527 11.0251C5.15581 11.0366 5.01551 11.0176 4.88413 10.9695C4.75274 10.9213 4.63341 10.8451 4.53443 10.7462L3.457 9.6688C3.28667 9.486 3.19394 9.24423 3.19835 8.99441C3.20275 8.74459 3.30396 8.50624 3.48063 8.32957C3.6573 8.15289 3.89566 8.05169 4.14547 8.04729C4.39529 8.04288 4.63706 8.13561 4.81986 8.30594L5.09243 8.57722L6.22643 6.99065C6.37495 6.7825 6.60007 6.64186 6.85227 6.59967C7.10447 6.55748 7.3631 6.61589 7.57129 6.76437ZM8.79271 9.13908C8.79271 8.88334 8.89431 8.63807 9.07515 8.45723C9.25599 8.27639 9.50126 8.1748 9.757 8.1748H12.9713C13.227 8.1748 13.4723 8.27639 13.6531 8.45723C13.834 8.63807 13.9356 8.88334 13.9356 9.13908C13.9356 9.39483 13.834 9.6401 13.6531 9.82094C13.4723 10.0018 13.227 10.1034 12.9713 10.1034H9.757C9.50126 10.1034 9.25599 10.0018 9.07515 9.82094C8.89431 9.6401 8.79271 9.39483 8.79271 9.13908ZM8.79271 14.2421C8.79271 13.9863 8.89431 13.7411 9.07515 13.5602C9.25599 13.3794 9.50126 13.2778 9.757 13.2778H12.9713C13.227 13.2778 13.4723 13.3794 13.6531 13.5602C13.834 13.7411 13.9356 13.9863 13.9356 14.2421C13.9356 14.4978 13.834 14.7431 13.6531 14.9239C13.4723 15.1048 13.227 15.2064 12.9713 15.2064H9.757C9.50126 15.2064 9.25599 15.1048 9.07515 14.9239C8.89431 14.7431 8.79271 14.4978 8.79271 14.2421ZM7.79629 13.2932C7.87343 13.1904 7.92925 13.0733 7.96046 12.9486C7.99167 12.8239 7.99764 12.6943 7.97802 12.5673C7.95841 12.4402 7.91361 12.3184 7.84624 12.209C7.77888 12.0995 7.69032 12.0047 7.58576 11.9299C7.4812 11.8552 7.36276 11.8021 7.2374 11.7738C7.11204 11.7455 6.98228 11.7425 6.85576 11.7651C6.72923 11.7877 6.6085 11.8353 6.50064 11.9052C6.39279 11.9751 6.3 12.0658 6.22771 12.1721L5.09243 13.7599L4.81986 13.4874C4.63706 13.317 4.39529 13.2243 4.14547 13.2287C3.89566 13.2331 3.6573 13.3343 3.48063 13.511C3.30396 13.6877 3.20275 13.926 3.19835 14.1758C3.19394 14.4257 3.28667 14.6674 3.457 14.8502L4.53443 15.9277C4.63341 16.0266 4.75274 16.1027 4.88413 16.1509C5.01551 16.1991 5.15581 16.2181 5.29527 16.2066C5.43473 16.1951 5.57002 16.1534 5.69174 16.0843C5.81346 16.0153 5.91869 15.9206 6.00014 15.8068L7.79629 13.2932Z" fill="#4D4D4D"/>
  </g>
  <defs>
    <clipPath id="clip0_1550_1641">
      <rect width="18" height="18" fill="white" transform="translate(0 0.943939)"/>
    </clipPath>
  </defs>
</svg>