<svg xmlns="http://www.w3.org/2000/svg" width="16" height="15" viewBox="0 0 16 15" fill="none">
  <path fill-rule="evenodd" clip-rule="evenodd" d="M3.22266 0.943939C1.5658 0.943939 0.222656 2.28709 0.222656 3.94394V11.9439C0.222656 13.6008 1.56581 14.9439 3.22266 14.9439H12.7782C14.4351 14.9439 15.7782 13.6008 15.7782 11.9439V3.94394C15.7782 2.28709 14.4351 0.943939 12.7782 0.943939H3.22266ZM8.72791 2.34413C7.62334 2.34413 6.72791 3.23956 6.72791 4.34413V11.5441C6.72791 12.6487 7.62334 13.5441 8.72791 13.5441H12.2229C13.3274 13.5441 14.2229 12.6487 14.2229 11.5441V4.34413C14.2229 3.23956 13.3274 2.34413 12.2229 2.34413H8.72791Z" fill="#4D4D4D"/>
</svg>