<svg xmlns="http://www.w3.org/2000/svg" width="18" height="19" viewBox="0 0 18 19" fill="none">
  <g>
    <path d="M9.00098 2.44398C4.85884 2.44398 1.50098 5.80185 1.50098 9.94398C1.50098 14.0861 4.85884 17.444 9.00098 17.444C11.3563 17.444 13.4583 16.3574 14.8321 14.6611C15.0141 14.4364 15.0507 14.1272 14.9263 13.8663C14.8019 13.6053 14.5386 13.4391 14.2495 13.4391C10.9365 13.4383 8.25098 10.7523 8.25098 7.43907C8.25098 6.00864 8.7506 4.69693 9.5855 3.666C9.76744 3.44135 9.80406 3.13213 9.67965 2.87119C9.55523 2.61026 9.29193 2.44405 9.00285 2.44398H9.00098Z" fill="#4D4D4D"/>
    <path d="M11.25 6.19394C11.6642 6.19394 12 5.85815 12 5.44394C12 5.02973 11.6642 4.69394 11.25 4.69394C10.8358 4.69394 10.5 5.02973 10.5 5.44394C10.5 5.85815 10.8358 6.19394 11.25 6.19394Z" fill="#4D4D4D"/>
    <path d="M15 10.6939C15 11.1082 14.6642 11.4439 14.25 11.4439C13.8358 11.4439 13.5 11.1082 13.5 10.6939V9.94394H12.75C12.3358 9.94394 12 9.60815 12 9.19394C12 8.77973 12.3358 8.44394 12.75 8.44394H13.5V7.69394C13.5 7.27973 13.8358 6.94394 14.25 6.94394C14.6642 6.94394 15 7.27973 15 7.69394V8.44394H15.75C16.1642 8.44394 16.5 8.77973 16.5 9.19394C16.5 9.60815 16.1642 9.94394 15.75 9.94394H15V10.6939Z" fill="#4D4D4D"/>
  </g>
</svg>