<svg xmlns="http://www.w3.org/2000/svg" width="14" height="14" viewBox="0 0 14 14" fill="none">
  <g clip-path="url(#clip0_1320_10748)">
    <path fill-rule="evenodd" clip-rule="evenodd"
      d="M0.318 6.04503C0.217703 6.13856 0.137716 6.25172 0.0830097 6.37748C0.0283036 6.50323 4.83045e-05 6.63889 0 6.77603L0 12.5C0 12.8979 0.158035 13.2794 0.43934 13.5607C0.720644 13.842 1.10218 14 1.5 14H6V11C6 10.7348 6.10536 10.4805 6.29289 10.2929C6.48043 10.1054 6.73478 10 7 10C7.26522 10 7.51957 10.1054 7.70711 10.2929C7.89464 10.4805 8 10.7348 8 11V14H12.5C12.8978 14 13.2794 13.842 13.5607 13.5607C13.842 13.2794 14 12.8979 14 12.5V6.77603C14 6.63889 13.9717 6.50323 13.917 6.37748C13.8623 6.25172 13.7823 6.13856 13.682 6.04503L7.325 0.120033C7.23443 0.0425682 7.11918 0 7 0C6.88082 0 6.76557 0.0425682 6.675 0.120033L0.318 6.04503Z"
      fill="#4d4d4d" />
  </g>
  <defs>
    <clipPath id="clip0_1320_10748">
      <rect width="14" height="14" fill="white" />
    </clipPath>
  </defs>
</svg>