<svg xmlns="http://www.w3.org/2000/svg" width="18" height="19" viewBox="0 0 18 19" fill="none">
  <g clip-path="url(#clip0_1603_1902)">
    <path fill-rule="evenodd" clip-rule="evenodd" d="M0 7.84565C0.189852 6.03392 1.01399 4.3476 2.3268 3.08467C3.6396 1.82175 5.35656 1.06351 7.17429 0.943939C7.13033 0.979473 7.09025 1.01955 7.05471 1.06351C5.4762 3.00449 4.49018 5.35906 4.21457 7.84565H0ZM4.69543 12.3997C4.69543 12.4562 4.698 12.5128 4.70186 12.5681V15.7772C3.42287 15.2418 2.3115 14.3721 1.48424 13.2593C0.656987 12.1466 0.144325 10.8318 0 9.4528H4.21457C4.30843 10.3014 4.48457 11.1371 4.74171 11.9458C4.71104 12.0947 4.69553 12.2476 4.69543 12.3997ZM5.83329 9.45537H8.08329L6.05186 10.3348C6.02984 10.3443 6.00798 10.3542 5.98629 10.3644C5.92261 10.0631 5.87113 9.75947 5.832 9.45408L5.83329 9.45537ZM15.3604 7.84822H11.1407C10.8662 5.36042 9.88059 3.00443 8.30186 1.06222C8.26584 1.01866 8.22533 0.979007 8.181 0.943939C9.99964 1.06234 11.7178 1.82006 13.0317 3.0831C14.3455 4.34613 15.1704 6.0331 15.3604 7.84565V7.84822ZM5.83329 7.84822H9.52329C9.30006 6.08514 8.6683 4.39852 7.67829 2.92265C6.68846 4.39814 6.0567 6.08559 5.83329 7.84822ZM12.4071 9.57108C12.3191 9.53294 12.2241 9.51326 12.1281 9.51326C12.0322 9.51326 11.9372 9.53294 11.8491 9.57108L6.73972 11.7851C6.68659 11.808 6.63649 11.8373 6.59057 11.8725C6.45434 11.9487 6.34092 12.0599 6.26204 12.1947C6.18316 12.3294 6.14167 12.4827 6.14186 12.6388V16.5319C6.14186 16.7647 6.23431 16.9879 6.39887 17.1524C6.56343 17.317 6.78663 17.4094 7.01936 17.4094C7.25209 17.4094 7.47528 17.317 7.63984 17.1524C7.80441 16.9879 7.89686 16.7647 7.89686 16.5319V13.5748L11.8491 15.2861C12.0279 15.3632 12.2297 15.3632 12.4071 15.2861L17.5166 13.0734C17.6422 13.0189 17.7492 12.929 17.8243 12.8145C17.8995 12.7001 17.9395 12.5661 17.9395 12.4292C17.9395 12.2923 17.8995 12.1584 17.8243 12.0439C17.7492 11.9295 17.6422 11.8395 17.5166 11.7851L12.4071 9.57108ZM8.63614 15.3697L11.2384 16.4972C11.5191 16.6188 11.8217 16.6815 12.1275 16.6815C12.4333 16.6815 12.7359 16.6188 13.0166 16.4972L15.6189 15.3697V17.1157C15.6189 17.2699 15.57 17.4191 15.4774 17.5399L14.9181 17.1157L15.4761 17.5412L15.4749 17.5438L15.4723 17.5464L15.4671 17.5541L15.4517 17.5734C15.3853 17.6527 15.3145 17.7283 15.2396 17.7997C15.0981 17.9334 14.8924 18.1044 14.6186 18.2728C14.0644 18.6122 13.2416 18.9337 12.1281 18.9337C11.0147 18.9337 10.1919 18.6122 9.639 18.2715C9.34936 18.0942 9.08546 17.8779 8.85472 17.6287C8.83852 17.6101 8.82266 17.5912 8.80714 17.5721L8.79171 17.5528L8.78657 17.5451L8.784 17.5425V17.5399H8.78143C8.68956 17.4181 8.63991 17.2696 8.64 17.1169L8.63486 15.3684L8.63614 15.3697Z" fill="#4D4D4D"/>
  </g>
  <defs>
    <clipPath id="clip0_1603_1902">
      <rect width="18" height="18" fill="white" transform="translate(0 0.943939)"/>
    </clipPath>
  </defs>
</svg>