<svg xmlns="http://www.w3.org/2000/svg" width="20" height="20" viewBox="0 0 20 20" fill="none">
  <g opacity="0.6" clip-path="url(#clip0_1603_319)">
    <path d="M6.42899 15V17.8572C6.42899 18.236 6.5795 18.5994 6.84741 18.8673C7.11532 19.1352 7.47868 19.2857 7.85756 19.2857H17.8576C18.2364 19.2857 18.5998 19.1352 18.8677 18.8673C19.1356 18.5994 19.2861 18.236 19.2861 17.8572V2.14287C19.2861 1.76399 19.1356 1.40062 18.8677 1.13271C18.5998 0.864804 18.2364 0.714294 17.8576 0.714294H7.85756C7.47868 0.714294 7.11532 0.864804 6.84741 1.13271C6.5795 1.40062 6.42899 1.76399 6.42899 2.14287V5.00001M10.7147 10H0.714702M0.714702 10L3.57185 7.14287M0.714702 10L3.57185 12.8572" stroke="#4D4D4D" stroke-linecap="round" stroke-linejoin="round"/>
  </g>
  <defs>
    <clipPath id="clip0_1603_319">
      <rect width="20" height="20" fill="white" transform="matrix(-1 0 0 1 20 0)"/>
    </clipPath>
  </defs>
</svg>