<svg xmlns="http://www.w3.org/2000/svg" width="14" height="15" viewBox="0 0 14 15" fill="none">
  <g clip-path="url(#clip0_1550_1664)">
    <path fill-rule="evenodd" clip-rule="evenodd" d="M3.763 1.25694C3.87879 1.41849 3.92571 1.6194 3.89346 1.81553C3.86121 2.01166 3.75242 2.18697 3.591 2.30294C2.94435 2.76751 2.41748 3.37925 2.0539 4.08762C1.69033 4.796 1.50046 5.5807 1.5 6.37694C1.5 6.57585 1.42098 6.76662 1.28033 6.90727C1.13968 7.04792 0.948912 7.12694 0.75 7.12694C0.551088 7.12694 0.360322 7.04792 0.21967 6.90727C0.0790176 6.76662 0 6.57585 0 6.37694C0.000361692 5.34249 0.246857 4.32297 0.71912 3.40261C1.19138 2.48225 1.87586 1.68747 2.716 1.08394C2.79603 1.02645 2.8866 0.985297 2.98254 0.962828C3.07848 0.94036 3.17791 0.937016 3.27514 0.952989C3.37237 0.968963 3.4655 1.00394 3.54921 1.05592C3.63292 1.1079 3.70557 1.17687 3.763 1.25694ZM3.818 3.51194C4.44734 2.88259 5.24916 2.454 6.12208 2.28037C6.995 2.10673 7.89981 2.19585 8.72208 2.53644C9.54435 2.87704 10.2472 3.45382 10.7416 4.19385C11.2361 4.93388 11.5 5.80392 11.5 6.69394V10.1939C11.5 10.4592 11.6054 10.7135 11.7929 10.901C11.9804 11.0886 12.2348 11.1939 12.5 11.1939C12.6326 11.1939 12.7598 11.2466 12.8536 11.3404C12.9473 11.4342 13 11.5613 13 11.6939C13 11.8265 12.9473 11.9537 12.8536 12.0475C12.7598 12.1413 12.6326 12.1939 12.5 12.1939H1.5C1.36739 12.1939 1.24021 12.1413 1.14645 12.0475C1.05268 11.9537 1 11.8265 1 11.6939C1 11.5613 1.05268 11.4342 1.14645 11.3404C1.24021 11.2466 1.36739 11.1939 1.5 11.1939C1.76522 11.1939 2.01957 11.0886 2.20711 10.901C2.39464 10.7135 2.5 10.4592 2.5 10.1939V6.69394C2.49999 6.10299 2.61639 5.51782 2.84253 4.97185C3.06867 4.42589 3.40014 3.92981 3.818 3.51194ZM5.25 14.1939C5.25 13.995 5.32902 13.8043 5.46967 13.6636C5.61032 13.523 5.80109 13.4439 6 13.4439H8C8.19891 13.4439 8.38968 13.523 8.53033 13.6636C8.67098 13.8043 8.75 13.995 8.75 14.1939C8.75 14.3929 8.67098 14.5836 8.53033 14.7243C8.38968 14.8649 8.19891 14.9439 8 14.9439H6C5.80109 14.9439 5.61032 14.8649 5.46967 14.7243C5.32902 14.5836 5.25 14.3929 5.25 14.1939ZM11.284 1.08394C11.2039 1.02649 11.1133 0.985372 11.0173 0.962948C10.9213 0.940523 10.8218 0.937226 10.7245 0.953244C10.6273 0.969262 10.5341 1.00428 10.4504 1.0563C10.3666 1.10833 10.294 1.17633 10.2365 1.25644C10.179 1.33654 10.1379 1.42718 10.1155 1.52318C10.0931 1.61917 10.0898 1.71864 10.1058 1.81591C10.1218 1.91318 10.1568 2.00635 10.2089 2.09008C10.2609 2.17382 10.3289 2.24649 10.409 2.30394C11.0554 2.76832 11.5821 3.37973 11.9456 4.08773C12.3092 4.79574 12.4992 5.58004 12.5 6.37594C12.5 6.57485 12.579 6.76562 12.7197 6.90627C12.8603 7.04692 13.0511 7.12594 13.25 7.12594C13.4489 7.12594 13.6397 7.04692 13.7803 6.90627C13.921 6.76562 14 6.57485 14 6.37594C13.9995 5.34166 13.7529 4.32234 13.2807 3.40216C12.8084 2.48199 12.124 1.68738 11.284 1.08394Z" fill="#4D4D4D"/>
  </g>
  <defs>
    <clipPath id="clip0_1550_1664">
      <rect width="14" height="14" fill="white" transform="translate(0 0.943939)"/>
    </clipPath>
  </defs>
</svg>