<svg xmlns="http://www.w3.org/2000/svg" width="18" height="19" viewBox="0 0 18 19" fill="none">
  <g clip-path="url(#clip0_1550_1648)">
    <path fill-rule="evenodd" clip-rule="evenodd" d="M7.07171 0.943939C6.73071 0.943939 6.40369 1.0794 6.16257 1.32052C5.92145 1.56163 5.78599 1.88866 5.78599 2.22965V2.87251C5.78599 3.2135 5.92145 3.54053 6.16257 3.78165C6.40369 4.02277 6.73071 4.15822 7.07171 4.15822H10.9289C11.2698 4.15822 11.5969 4.02277 11.838 3.78165C12.0791 3.54053 12.2146 3.2135 12.2146 2.87251V2.22965C12.2146 1.88866 12.0791 1.56163 11.838 1.32052C11.5969 1.0794 11.2698 0.943939 10.9289 0.943939H7.07171ZM4.17885 2.22965H3.53599C3.0245 2.22965 2.53396 2.43284 2.17229 2.79452C1.81061 3.1562 1.60742 3.64674 1.60742 4.15822V17.0154C1.60742 17.5269 1.81061 18.0174 2.17229 18.3791C2.53396 18.7408 3.0245 18.9439 3.53599 18.9439H14.4646C14.9761 18.9439 15.4666 18.7408 15.8283 18.3791C16.1899 18.0174 16.3931 17.5269 16.3931 17.0154V4.15822C16.3931 3.64674 16.1899 3.1562 15.8283 2.79452C15.4666 2.43284 14.9761 2.22965 14.4646 2.22965H13.8217V2.87251C13.8217 3.63974 13.5169 4.37555 12.9744 4.91807C12.4319 5.46059 11.6961 5.76537 10.9289 5.76537H7.07171C6.30447 5.76537 5.56866 5.46059 5.02615 4.91807C4.48363 4.37555 4.17885 3.63974 4.17885 2.87251V2.22965ZM12.7931 8.52965C12.9977 8.6831 13.133 8.91154 13.1692 9.16471C13.2053 9.41788 13.1394 9.67506 12.986 9.87965L9.12885 15.0225C8.98095 15.2197 8.76317 15.3527 8.52023 15.3943C8.27729 15.4359 8.02764 15.3829 7.82256 15.2462L5.89399 13.9605C5.78712 13.8909 5.6951 13.8009 5.62327 13.6955C5.55144 13.5901 5.50122 13.4716 5.47552 13.3467C5.44983 13.2217 5.44916 13.093 5.47356 12.9678C5.49797 12.8426 5.54696 12.7236 5.61769 12.6175C5.68843 12.5113 5.77951 12.4203 5.88567 12.3497C5.99182 12.279 6.11094 12.2301 6.23612 12.2058C6.3613 12.1814 6.49007 12.1822 6.61496 12.208C6.73985 12.2337 6.85839 12.284 6.96371 12.3559L8.13371 13.1351L11.4431 8.72251C11.5191 8.62121 11.6143 8.53586 11.7233 8.47134C11.8322 8.40682 11.9528 8.3644 12.0782 8.34649C12.2036 8.32858 12.3312 8.33554 12.4539 8.36697C12.5766 8.39839 12.6918 8.45367 12.7931 8.52965Z" fill="#4D4D4D"/>
  </g>
  <defs>
    <clipPath id="clip0_1550_1648">
      <rect width="18" height="18" fill="white" transform="translate(0 0.943939)"/>
    </clipPath>
  </defs>
</svg>