<svg xmlns="http://www.w3.org/2000/svg" width="14" height="15" viewBox="0 0 14 15" fill="none">
  <g clip-path="url(#clip0_1550_1670)">
    <path fill-rule="evenodd" clip-rule="evenodd" d="M5.55687 1.63394L5.09387 2.82894L3.49987 3.73294L2.22987 3.53894C2.01807 3.51003 1.80246 3.54481 1.61049 3.63883C1.41852 3.73286 1.25887 3.88189 1.15187 4.06694L0.721865 4.82094C0.611454 5.0087 0.560568 5.22552 0.575922 5.44279C0.591276 5.66006 0.672148 5.86758 0.807865 6.03794L1.61487 7.03894V8.84894L0.829865 9.84994C0.694148 10.0203 0.613276 10.2278 0.597922 10.4451C0.582568 10.6624 0.633454 10.8792 0.743865 11.0669L1.17387 11.8209C1.28087 12.006 1.44052 12.155 1.63249 12.249C1.82446 12.3431 2.04007 12.3778 2.25187 12.3489L3.52187 12.1549L5.09487 13.0589L5.55787 14.2549C5.6358 14.4571 5.77295 14.6311 5.95138 14.754C6.1298 14.8769 6.34119 14.9431 6.55787 14.9439H7.46287C7.68 14.9435 7.89191 14.8773 8.07074 14.7541C8.24958 14.631 8.38697 14.4566 8.46487 14.2539L8.92787 13.0589L10.4999 12.1549L11.7699 12.3489C11.9817 12.3778 12.1973 12.3431 12.3892 12.249C12.5812 12.155 12.7409 12.006 12.8479 11.8209L13.2779 11.0669C13.3883 10.8792 13.4392 10.6624 13.4238 10.4451C13.4085 10.2278 13.3276 10.0203 13.1919 9.84994L12.3849 8.84894V7.03894L13.1709 6.03794C13.3066 5.86758 13.3875 5.66006 13.4028 5.44279C13.4182 5.22552 13.3673 5.0087 13.2569 4.82094L12.8269 4.06694C12.72 3.88179 12.5603 3.73269 12.3683 3.63865C12.1763 3.54461 11.9607 3.5099 11.7489 3.53894L10.4789 3.73294L8.90587 2.82894L8.44287 1.63294C8.36476 1.43068 8.22742 1.25671 8.04882 1.13378C7.87022 1.01084 7.65868 0.944681 7.44187 0.943939L6.55787 0.943939C6.34093 0.944759 6.12931 1.01107 5.95069 1.13419C5.77208 1.25731 5.63482 1.43149 5.55687 1.63394ZM6.99987 10.1939C7.29534 10.1939 7.58792 10.1357 7.8609 10.0227C8.13389 9.90959 8.38192 9.74386 8.59086 9.53493C8.79979 9.326 8.96552 9.07796 9.07859 8.80498C9.19167 8.53199 9.24987 8.23941 9.24987 7.94394C9.24987 7.64847 9.19167 7.35588 9.07859 7.0829C8.96552 6.80992 8.79979 6.56188 8.59086 6.35295C8.38192 6.14402 8.13389 5.97828 7.8609 5.86521C7.58792 5.75214 7.29534 5.69394 6.99987 5.69394C6.40313 5.69394 5.83083 5.93099 5.40888 6.35295C4.98692 6.77491 4.74987 7.3472 4.74987 7.94394C4.74987 8.54068 4.98692 9.11297 5.40888 9.53493C5.83083 9.95689 6.40313 10.1939 6.99987 10.1939Z" fill="#4D4D4D"/>
  </g>
  <defs>
    <clipPath id="clip0_1550_1670">
      <rect width="14" height="14" fill="white" transform="translate(0 0.943939)"/>
    </clipPath>
  </defs>
</svg>