<svg xmlns="http://www.w3.org/2000/svg" width="14" height="15" viewBox="0 0 14 15" fill="none">
  <g clip-path="url(#clip0_1550_1677)">
    <path fill-rule="evenodd" clip-rule="evenodd" d="M6.99784 0.989937C8.03721 0.98964 9.06343 1.22233 10.001 1.6709C10.9386 2.11947 11.7637 2.7725 12.4157 3.58197C13.0676 4.39144 13.5298 5.33675 13.7683 6.34839C14.0068 7.36003 14.0155 8.41226 13.7937 9.4277C13.5719 10.4431 13.1254 11.3959 12.4868 12.216C11.8483 13.0361 11.0341 13.7027 10.104 14.1667C9.17394 14.6306 8.1517 14.8802 7.11247 14.897C6.07324 14.9139 5.04345 14.6975 4.09884 14.2639L0.632843 14.8909C0.545924 14.9065 0.456444 14.8987 0.3735 14.8684C0.290556 14.8382 0.217108 14.7865 0.160623 14.7186C0.104138 14.6507 0.0666306 14.5691 0.0519151 14.4821C0.0371995 14.395 0.0458005 14.3056 0.0768434 14.2229L1.07084 11.5769C0.42519 10.5231 0.0720329 9.31632 0.0477267 8.0807C0.0234205 6.84508 0.328843 5.62531 0.932555 4.54694C1.53627 3.46857 2.41645 2.57057 3.48251 1.94538C4.54857 1.32018 5.76198 0.990388 6.99784 0.989937ZM6.61884 5.38894C6.75472 5.33296 6.90132 5.30779 7.04809 5.31521C7.19485 5.32263 7.33816 5.36248 7.4677 5.43188C7.59723 5.50128 7.70979 5.59851 7.79728 5.71658C7.88477 5.83466 7.94501 5.97065 7.97369 6.11478C8.00237 6.25892 7.99876 6.40761 7.96313 6.55018C7.9275 6.69276 7.86073 6.82566 7.76762 6.93936C7.67451 7.05306 7.55737 7.14472 7.42462 7.20775C7.29187 7.27079 7.1468 7.30364 6.99984 7.30394C6.83408 7.30394 6.67511 7.36979 6.5579 7.487C6.44069 7.60421 6.37484 7.76318 6.37484 7.92894V9.00894C6.37484 9.1747 6.44069 9.33367 6.5579 9.45088C6.67511 9.56809 6.83408 9.63394 6.99984 9.63394C7.1656 9.63394 7.32457 9.56809 7.44179 9.45088C7.559 9.33367 7.62484 9.1747 7.62484 9.00894V8.46394C8.02541 8.34783 8.38571 8.12244 8.66536 7.81304C8.94501 7.50364 9.13294 7.12246 9.20809 6.71224C9.28325 6.30202 9.24264 5.87897 9.09084 5.49053C8.93904 5.10209 8.68203 4.76361 8.34864 4.51304C8.01525 4.26248 7.61866 4.10973 7.20333 4.07193C6.78799 4.03413 6.37034 4.11277 5.99719 4.29903C5.62405 4.48529 5.31016 4.77181 5.09073 5.12646C4.87129 5.48112 4.75498 5.88989 4.75484 6.30694C4.75484 6.4727 4.82069 6.63167 4.9379 6.74888C5.05511 6.86609 5.21408 6.93194 5.37984 6.93194C5.5456 6.93194 5.70458 6.86609 5.82179 6.74888C5.939 6.63167 6.00484 6.4727 6.00484 6.30694C6.00488 6.11022 6.06322 5.91792 6.17251 5.75434C6.28179 5.59077 6.43712 5.46326 6.61884 5.38794V5.38894ZM6.99984 12.3339C6.76248 12.3337 6.53493 12.2391 6.36728 12.0711C6.19962 11.9031 6.10558 11.6753 6.10584 11.4379C6.10611 11.2006 6.20066 10.973 6.36869 10.8054C6.53672 10.6377 6.76447 10.5437 7.00184 10.5439H7.00384C7.24121 10.5442 7.46875 10.6388 7.63641 10.8068C7.80407 10.9748 7.89811 11.2026 7.89784 11.4399C7.89758 11.6773 7.80303 11.9048 7.635 12.0725C7.46696 12.2402 7.23921 12.3342 7.00184 12.3339H6.99984Z" fill="#4D4D4D"/>
  </g>
  <defs>
    <clipPath id="clip0_1550_1677">
      <rect width="14" height="14" fill="white" transform="translate(0 0.943939)"/>
    </clipPath>
  </defs>
</svg>