<svg width="446" height="422" viewBox="0 0 446 422" fill="none" xmlns="http://www.w3.org/2000/svg">
<path d="M4.85832 191.351C4.85832 191.351 22.8748 107.291 71.1507 54.9208C119.427 2.55054 194.939 -14.3969 262.343 15.7244C329.747 45.8457 345.262 133.546 399.494 196.012C453.726 258.479 467.552 339.629 402.127 393.378C336.702 447.127 295.264 403.323 206.763 417.436C118.263 431.549 -28.565 387.38 4.85832 191.351Z" fill="#FF7E31" fill-opacity="0.1"/>
<path d="M118.537 277.448C66.4089 307.523 66.4089 356.291 118.537 386.373C170.665 416.456 255.105 416.456 307.204 386.373C359.303 356.291 359.332 307.523 307.204 277.448C255.076 247.373 170.636 247.365 118.537 277.448Z" fill="#F5F5F5"/>
<path d="M212.874 388.988C246.022 388.988 272.894 373.474 272.894 354.337C272.894 335.2 246.022 319.687 212.874 319.687C179.726 319.687 152.854 335.2 152.854 354.337C152.854 373.474 179.726 388.988 212.874 388.988Z" fill="#E0E0E0"/>
<path d="M139.222 336.215L116.756 349.189L60.1465 316.508L82.6122 303.541L139.222 336.215Z" fill="#E0E0E0"/>
<path d="M162.39 326.354L139.917 339.321L83.3145 306.647L105.78 293.673L162.39 326.354Z" fill="#E0E0E0"/>
<path d="M323.349 327.267C333.131 332.907 333.131 342.065 323.349 347.713C313.568 353.36 297.72 353.353 287.938 347.713C278.157 342.073 278.157 332.907 287.938 327.267C297.72 321.627 313.568 321.62 323.349 327.267Z" fill="#E0E0E0"/>
<path d="M151.016 245.787V247.713C151.016 247.713 150.292 247.04 150.227 246.555C150.162 246.069 151.016 245.787 151.016 245.787Z" fill="black"/>
<path d="M149.531 245.323C149.449 245.59 149.422 245.871 149.453 246.148C149.485 246.426 149.573 246.694 149.713 246.935C149.854 247.177 150.042 247.387 150.268 247.552C150.493 247.717 150.75 247.833 151.023 247.893C153.122 248.56 154.44 247.893 154.751 248.487C155.063 249.081 144.789 255.003 144.789 255.003L146.744 246.496L149.531 245.323Z" fill="#FF7E31"/>
<path opacity="0.3" d="M149.531 245.323C149.449 245.59 149.422 245.871 149.453 246.148C149.485 246.426 149.573 246.694 149.713 246.935C149.854 247.177 150.042 247.387 150.268 247.552C150.493 247.717 150.75 247.833 151.023 247.893C153.122 248.56 154.44 247.893 154.751 248.487C155.063 249.081 144.789 255.003 144.789 255.003L146.744 246.496L149.531 245.323Z" fill="black"/>
<path d="M145.658 324.877V325L144.63 324.406L104.368 301.173L104.426 222.518C104.426 221.294 105.099 220.686 105.925 221.171L107.423 222.04L148.648 245.83L148.612 246.185L145.658 324.877Z" fill="#FF7E31"/>
<path opacity="0.2" d="M145.658 324.877V325L144.63 324.406L104.368 301.173L104.426 222.518C104.426 221.294 105.099 220.686 105.925 221.171L107.423 222.04L148.648 245.83L148.612 246.185L145.658 324.877Z" fill="black"/>
<path d="M139.671 257.364L137.499 254.924L148.569 248.538C150.234 249.798 151.515 250.471 153.014 249.841L139.671 257.364Z" fill="#455A64"/>
<path d="M148.011 247.228L107.185 223.655C106.787 223.455 106.348 223.351 105.903 223.351C105.458 223.351 105.019 223.455 104.622 223.655L93.7109 229.961L135.109 253.65C135.62 253.524 136.151 253.505 136.67 253.595C137.188 253.684 137.682 253.881 138.121 254.171C139.337 255.156 139.265 253.911 139.265 253.911L148.576 248.539C147.815 247.518 148.011 247.228 148.011 247.228Z" fill="#F5F5F5"/>
<path d="M138.874 256.871C138.447 256.625 138.266 256.343 138.469 256.227L138.816 256.031C139.2 255.807 138.816 255.235 138.005 254.75C137.195 254.265 136.188 254.026 135.833 254.279L135.486 254.475C135.283 254.591 134.559 254.352 133.857 253.946L134.11 330.509L135.138 331.096C135.339 331.142 135.549 331.124 135.739 331.045L136.087 330.842C136.471 330.618 137.455 330.842 138.259 331.306C139.062 331.769 139.453 332.363 139.07 332.587L138.722 332.79C138.519 332.898 138.722 333.181 139.12 333.427L138.874 256.871Z" fill="#FF7E31"/>
<path opacity="0.4" d="M138.874 256.871C138.447 256.625 138.266 256.343 138.469 256.227L138.816 256.031C139.2 255.807 138.816 255.235 138.005 254.75C137.195 254.265 136.188 254.026 135.833 254.279L135.486 254.475C135.283 254.591 134.559 254.352 133.857 253.946L134.11 330.509L135.138 331.096C135.339 331.142 135.549 331.124 135.739 331.045L136.087 330.842C136.471 330.618 137.455 330.842 138.259 331.306C139.062 331.769 139.453 332.363 139.07 332.587L138.722 332.79C138.519 332.898 138.722 333.181 139.12 333.427L138.874 256.871Z" fill="black"/>
<path d="M135.109 330.966V331.081L134.081 330.495L89.9897 305.039V230.851C89.9897 229.62 90.6631 229.019 91.4957 229.497L92.9943 230.366L135.102 253.65L135.109 330.966Z" fill="#FF7E31"/>
<path opacity="0.2" d="M135.109 330.966V331.081L134.081 330.495L89.9897 305.039V230.851C89.9897 229.62 90.6631 229.019 91.4957 229.497L92.9943 230.366L135.102 253.65L135.109 330.966Z" fill="black"/>
<path d="M138.36 332.979V256.336L141.097 257.436V333.833C140.59 333.936 140.063 333.886 139.584 333.688L138.36 332.979Z" fill="#FF7E31"/>
<path opacity="0.2" d="M138.36 332.979V256.336L141.097 257.436V333.833C140.59 333.936 140.063 333.886 139.584 333.688L138.36 332.979Z" fill="black"/>
<path d="M155.859 325.029C155.863 325.077 155.863 325.125 155.859 325.173C155.866 325.207 155.866 325.241 155.859 325.275C155.837 325.345 155.807 325.413 155.772 325.477C155.76 325.513 155.743 325.547 155.722 325.579C155.655 325.699 155.575 325.81 155.483 325.912C155.391 326.031 155.29 326.143 155.179 326.245C155.056 326.361 154.933 326.469 154.795 326.578C154.719 326.649 154.637 326.712 154.549 326.766L154.346 326.904C154.194 327.012 154.035 327.114 153.861 327.215L144.362 332.696C143.378 333.277 142.292 333.662 141.162 333.832V257.436L155.903 248.61V325.029H155.859Z" fill="#FF7E31"/>
<path d="M141.126 268.042V277.251C147.019 275.253 152.073 272.538 155.867 268.744V259.535C152.073 263.329 147.048 266.044 141.126 268.042Z" fill="#FF7E31"/>
<path opacity="0.4" d="M141.126 268.042V277.251C147.019 275.253 152.073 272.538 155.867 268.744V259.535C152.073 263.329 147.048 266.044 141.126 268.042Z" fill="white"/>
<path d="M141.126 280.67V284.101C147.019 282.103 152.073 279.388 155.867 275.594V272.155C152.073 275.949 147.048 278.671 141.126 280.67Z" fill="#FF7E31"/>
<path opacity="0.4" d="M141.126 280.67V284.101C147.019 282.103 152.073 279.388 155.867 275.594V272.155C152.073 275.949 147.048 278.671 141.126 280.67Z" fill="white"/>
<path d="M144.333 256.299L143.609 255.018C142.657 255.608 141.571 255.949 140.453 256.009C140.503 255.575 140.411 255.136 140.192 254.757C139.828 254.206 139.33 253.758 138.744 253.454C138.077 253.066 137.338 252.819 136.572 252.73H136.413C135.958 252.689 135.502 252.777 135.095 252.983L95.9989 230.402L94.6668 229.678L92.9799 228.635C92.8478 228.54 92.6923 228.483 92.5302 228.471C92.3681 228.458 92.2056 228.49 92.0604 228.563L90.5762 229.439C90.7237 229.362 90.889 229.328 91.0548 229.338C91.2205 229.348 91.3803 229.403 91.5174 229.497L95.9989 232.096L133.813 253.924C134.537 254.33 135.261 254.576 135.45 254.46L135.797 254.257C136.046 254.158 136.32 254.14 136.579 254.207C137.089 254.293 137.579 254.469 138.027 254.728C138.86 255.206 139.222 255.785 138.831 256.002L138.49 256.205C138.288 256.321 138.49 256.603 138.889 256.842L139.613 257.269C140.445 257.762 142.559 257.32 144.333 256.299Z" fill="#FF7E31"/>
<path opacity="0.3" d="M144.333 256.299L143.609 255.018C142.657 255.608 141.571 255.949 140.453 256.009C140.503 255.575 140.411 255.136 140.192 254.757C139.828 254.206 139.33 253.758 138.744 253.454C138.077 253.066 137.338 252.819 136.572 252.73H136.413C135.958 252.689 135.502 252.777 135.095 252.983L95.9989 230.402L94.6668 229.678L92.9799 228.635C92.8478 228.54 92.6923 228.483 92.5302 228.471C92.3681 228.458 92.2056 228.49 92.0604 228.563L90.5762 229.439C90.7237 229.362 90.889 229.328 91.0548 229.338C91.2205 229.348 91.3803 229.403 91.5174 229.497L95.9989 232.096L133.813 253.924C134.537 254.33 135.261 254.576 135.45 254.46L135.797 254.257C136.046 254.158 136.32 254.14 136.579 254.207C137.089 254.293 137.579 254.469 138.027 254.728C138.86 255.206 139.222 255.785 138.831 256.002L138.49 256.205C138.288 256.321 138.49 256.603 138.889 256.842L139.613 257.269C140.445 257.762 142.559 257.32 144.333 256.299Z" fill="black"/>
<path d="M143.587 255.018L153.086 249.53C153.224 249.458 153.354 249.371 153.477 249.291L153.781 249.074C152.688 249.552 151.218 249.074 150.248 248.531C149.682 248.231 149.203 247.789 148.858 247.249C148.609 246.831 148.524 246.336 148.619 245.859L148.489 245.78L148.221 245.628L110.406 223.799L108.234 222.546L107.612 222.192L105.78 221.106C105.654 221.04 105.513 221.005 105.371 221.005C105.229 221.005 105.088 221.04 104.962 221.106L105.375 220.874L106.461 220.244C106.579 220.183 106.711 220.151 106.844 220.151C106.978 220.151 107.109 220.183 107.228 220.244L107.901 220.628L108.329 220.874L109.053 221.294C109.207 221.373 109.356 221.46 109.501 221.555C109.617 221.62 109.733 221.678 109.82 221.736L110.385 222.054L140.416 239.43L150.002 244.969C150.69 245.352 151.095 245.765 150.929 245.903L150.871 245.946L150.538 246.134C150.118 246.381 150.458 246.96 151.262 247.438C151.53 247.637 151.844 247.766 152.175 247.814C152.507 247.862 152.844 247.828 153.159 247.713L153.571 247.474C153.658 247.413 153.757 247.374 153.861 247.359C153.966 247.344 154.072 247.353 154.172 247.387L154.389 247.517L154.86 247.785L155.454 248.125C155.575 248.187 155.672 248.288 155.728 248.411C155.785 248.535 155.798 248.674 155.765 248.806C155.775 248.837 155.775 248.869 155.765 248.9C155.75 248.973 155.72 249.042 155.678 249.103C155.67 249.138 155.658 249.172 155.642 249.204C155.576 249.324 155.495 249.436 155.403 249.537C155.308 249.654 155.206 249.765 155.099 249.87L154.708 250.203C154.63 250.269 154.548 250.33 154.462 250.384L154.266 250.529C154.114 250.63 153.948 250.739 153.774 250.833L144.282 256.321L143.587 255.018Z" fill="#FF7E31"/>
<path opacity="0.3" d="M143.587 255.018L153.086 249.53C153.224 249.458 153.354 249.371 153.477 249.291L153.781 249.074C152.688 249.552 151.218 249.074 150.248 248.531C149.682 248.231 149.203 247.789 148.858 247.249C148.609 246.831 148.524 246.336 148.619 245.859L148.489 245.78L148.221 245.628L110.406 223.799L108.234 222.546L107.612 222.192L105.78 221.106C105.654 221.04 105.513 221.005 105.371 221.005C105.229 221.005 105.088 221.04 104.962 221.106L105.375 220.874L106.461 220.244C106.579 220.183 106.711 220.151 106.844 220.151C106.978 220.151 107.109 220.183 107.228 220.244L107.901 220.628L108.329 220.874L109.053 221.294C109.207 221.373 109.356 221.46 109.501 221.555C109.617 221.62 109.733 221.678 109.82 221.736L110.385 222.054L140.416 239.43L150.002 244.969C150.69 245.352 151.095 245.765 150.929 245.903L150.871 245.946L150.538 246.134C150.118 246.381 150.458 246.96 151.262 247.438C151.53 247.637 151.844 247.766 152.175 247.814C152.507 247.862 152.844 247.828 153.159 247.713L153.571 247.474C153.658 247.413 153.757 247.374 153.861 247.359C153.966 247.344 154.072 247.353 154.172 247.387L154.389 247.517L154.86 247.785L155.454 248.125C155.575 248.187 155.672 248.288 155.728 248.411C155.785 248.535 155.798 248.674 155.765 248.806C155.775 248.837 155.775 248.869 155.765 248.9C155.75 248.973 155.72 249.042 155.678 249.103C155.67 249.138 155.658 249.172 155.642 249.204C155.576 249.324 155.495 249.436 155.403 249.537C155.308 249.654 155.206 249.765 155.099 249.87L154.708 250.203C154.63 250.269 154.548 250.33 154.462 250.384L154.266 250.529C154.114 250.63 153.948 250.739 153.774 250.833L144.282 256.321L143.587 255.018Z" fill="black"/>
<path d="M127.001 256.734V258.653C127.001 258.653 126.277 257.98 126.219 257.495C126.161 257.009 127.001 256.734 127.001 256.734Z" fill="black"/>
<path d="M125.516 256.264C125.432 256.528 125.403 256.807 125.431 257.083C125.459 257.358 125.544 257.626 125.679 257.867C125.815 258.109 125.999 258.321 126.22 258.488C126.441 258.656 126.695 258.776 126.964 258.841C129.064 259.5 130.381 258.841 130.7 259.428C131.019 260.014 120.738 265.944 120.738 265.944L122.685 257.437L125.516 256.264Z" fill="#FF7E31"/>
<path opacity="0.3" d="M125.516 256.264C125.432 256.528 125.403 256.807 125.431 257.083C125.459 257.358 125.544 257.626 125.679 257.867C125.815 258.109 125.999 258.321 126.22 258.488C126.441 258.656 126.695 258.776 126.964 258.841C129.064 259.5 130.381 258.841 130.7 259.428C131.019 260.014 120.738 265.944 120.738 265.944L122.685 257.437L125.516 256.264Z" fill="black"/>
<path d="M121.635 335.787V335.91L120.607 335.317L80.3457 312.12L80.4398 233.457C80.4398 232.234 81.1131 231.625 81.9457 232.11L83.4082 232.979L124.604 256.77L124.56 257.125L121.635 335.787Z" fill="#FF7E31"/>
<path opacity="0.2" d="M121.635 335.787V335.91L120.607 335.317L80.3457 312.12L80.4398 233.457C80.4398 232.234 81.1131 231.625 81.9457 232.11L83.4082 232.979L124.604 256.77L124.56 257.125L121.635 335.787Z" fill="black"/>
<path d="M115.648 268.303L113.476 265.863L124.546 259.478C126.218 260.737 127.5 261.411 128.991 260.781L115.648 268.303Z" fill="#455A64"/>
<path d="M123.996 258.167L83.1694 234.594C82.7698 234.396 82.3301 234.293 81.8843 234.293C81.4384 234.293 80.9987 234.396 80.5992 234.594L69.6885 240.9L111.094 264.589C111.604 264.463 112.134 264.444 112.651 264.534C113.168 264.624 113.661 264.82 114.099 265.11C115.315 266.095 115.25 264.85 115.25 264.85L124.553 259.478C123.793 258.457 123.996 258.167 123.996 258.167Z" fill="#F5F5F5"/>
<path d="M114.852 267.797C114.432 267.551 114.251 267.269 114.454 267.153L114.794 266.957C115.185 266.733 114.794 266.161 113.99 265.676C113.187 265.191 112.173 264.952 111.818 265.205L111.471 265.401C111.268 265.516 110.544 265.285 109.834 264.872L110.088 341.435L111.123 342.029C111.324 342.076 111.536 342.056 111.724 341.971L112.072 341.768C112.455 341.551 113.44 341.768 114.244 342.231C115.047 342.695 115.431 343.289 115.047 343.513L114.7 343.716C114.504 343.832 114.7 344.107 115.105 344.353L114.852 267.797Z" fill="#FF7E31"/>
<path opacity="0.25" d="M114.852 267.797C114.432 267.551 114.251 267.269 114.454 267.153L114.794 266.957C115.185 266.733 114.794 266.161 113.99 265.676C113.187 265.191 112.173 264.952 111.818 265.205L111.471 265.401C111.268 265.516 110.544 265.285 109.834 264.872L110.088 341.435L111.123 342.029C111.324 342.076 111.536 342.056 111.724 341.971L112.072 341.768C112.455 341.551 113.44 341.768 114.244 342.231C115.047 342.695 115.431 343.289 115.047 343.513L114.7 343.716C114.504 343.832 114.7 344.107 115.105 344.353L114.852 267.797Z" fill="white"/>
<path d="M111.094 341.905V342.028L110.066 341.434L65.96 315.979V241.79C65.96 240.56 66.6333 239.959 67.4586 240.436L68.9573 241.305L111.072 264.589L111.094 341.905Z" fill="#FF7E31"/>
<path opacity="0.4" d="M111.094 341.905V342.028L110.066 341.434L65.96 315.979V241.79C65.96 240.56 66.6333 239.959 67.4586 240.436L68.9573 241.305L111.072 264.589L111.094 341.905Z" fill="white"/>
<path d="M114.374 343.918V267.275L117.111 268.383V344.772C116.603 344.876 116.076 344.826 115.598 344.628L114.374 343.918Z" fill="#FF7E31"/>
<path opacity="0.4" d="M114.374 343.918V267.275L117.111 268.383V344.772C116.603 344.876 116.076 344.826 115.598 344.628L114.374 343.918Z" fill="white"/>
<path d="M131.844 335.969C131.848 336.017 131.848 336.066 131.844 336.114C131.855 336.147 131.855 336.182 131.844 336.215C131.823 336.286 131.794 336.354 131.757 336.418C131.757 336.461 131.721 336.483 131.707 336.526C131.637 336.644 131.557 336.756 131.468 336.859C131.372 336.973 131.271 337.082 131.164 337.185C131.04 337.304 130.909 337.415 130.773 337.518C130.699 337.589 130.619 337.652 130.534 337.707L130.331 337.844C130.179 337.953 130.012 338.054 129.839 338.155L120.347 343.636C119.361 344.217 118.272 344.603 117.14 344.773V268.384L131.844 259.551V335.969Z" fill="#FF7E31"/>
<g opacity="0.7">
<path d="M131.844 335.969C131.848 336.017 131.848 336.066 131.844 336.114C131.855 336.147 131.855 336.182 131.844 336.215C131.823 336.286 131.794 336.354 131.757 336.418C131.757 336.461 131.721 336.483 131.707 336.526C131.637 336.644 131.557 336.756 131.468 336.859C131.372 336.973 131.271 337.082 131.164 337.185C131.04 337.304 130.909 337.415 130.773 337.518C130.699 337.589 130.619 337.652 130.534 337.707L130.331 337.844C130.179 337.953 130.012 338.054 129.839 338.155L120.347 343.636C119.361 344.217 118.272 344.603 117.14 344.773V268.384L131.844 259.551V335.969Z" fill="white"/>
</g>
<path d="M117.104 274.711V283.92C122.997 281.922 128.05 279.207 131.844 275.413V266.204C128.05 269.998 122.997 272.713 117.104 274.711Z" fill="#FAFAFA"/>
<path d="M117.104 326.014V335.223C122.997 333.225 128.05 330.51 131.844 326.716V317.507C128.05 321.308 122.997 324.016 117.104 326.014Z" fill="#FAFAFA"/>
<path d="M120.311 267.239L119.587 265.958C118.632 266.547 117.544 266.888 116.423 266.95C116.48 266.515 116.388 266.073 116.162 265.697C115.799 265.146 115.3 264.698 114.714 264.394C114.048 264.006 113.308 263.759 112.542 263.67H112.383C111.929 263.629 111.472 263.717 111.065 263.923L71.9694 241.349L70.6372 240.582L68.9431 239.604C68.8101 239.512 68.6548 239.456 68.4931 239.443C68.3315 239.431 68.1695 239.461 68.0236 239.532L66.5249 240.401C66.6713 240.325 66.8354 240.29 66.9999 240.301C67.1643 240.311 67.3229 240.365 67.4589 240.459L71.9404 243.05L109.755 264.879C110.479 265.284 111.203 265.531 111.391 265.415L111.739 265.219C111.986 265.113 112.262 265.095 112.521 265.169C113.031 265.249 113.522 265.423 113.969 265.683C114.801 266.168 115.156 266.74 114.772 266.957L114.425 267.16C114.229 267.275 114.425 267.558 114.83 267.797L115.554 268.231C116.43 268.702 118.544 268.26 120.311 267.239Z" fill="#FF7E31"/>
<path opacity="0.6" d="M120.311 267.239L119.587 265.958C118.632 266.547 117.544 266.888 116.423 266.95C116.48 266.515 116.388 266.073 116.162 265.697C115.799 265.146 115.3 264.698 114.714 264.394C114.048 264.006 113.308 263.759 112.542 263.67H112.383C111.929 263.629 111.472 263.717 111.065 263.923L71.9694 241.349L70.6372 240.582L68.9431 239.604C68.8101 239.512 68.6548 239.456 68.4931 239.443C68.3315 239.431 68.1695 239.461 68.0236 239.532L66.5249 240.401C66.6713 240.325 66.8354 240.29 66.9999 240.301C67.1643 240.311 67.3229 240.365 67.4589 240.459L71.9404 243.05L109.755 264.879C110.479 265.284 111.203 265.531 111.391 265.415L111.739 265.219C111.986 265.113 112.262 265.095 112.521 265.169C113.031 265.249 113.522 265.423 113.969 265.683C114.801 266.168 115.156 266.74 114.772 266.957L114.425 267.16C114.229 267.275 114.425 267.558 114.83 267.797L115.554 268.231C116.43 268.702 118.544 268.26 120.311 267.239Z" fill="white"/>
<path d="M119.572 265.958L129.071 260.492C129.202 260.419 129.332 260.332 129.455 260.253L129.759 260.035C128.673 260.513 127.203 260.035 126.233 259.492C125.666 259.194 125.186 258.752 124.843 258.211C124.595 257.793 124.509 257.298 124.604 256.821L124.467 256.741L124.206 256.596L86.4131 234.71L84.2411 233.457L83.6185 233.103L81.7868 232.046C81.6598 231.978 81.5181 231.942 81.3741 231.942C81.2301 231.942 81.0884 231.978 80.9614 232.046L81.3741 231.807L82.4673 231.177C82.5861 231.116 82.7176 231.084 82.8511 231.084C82.9845 231.084 83.1161 231.116 83.2348 231.177C83.452 231.3 83.6764 231.437 83.9153 231.56L84.3353 231.807L85.0593 232.227C85.2258 232.313 85.3706 232.4 85.5081 232.487L85.8267 232.668L86.3842 232.987L116.416 250.363L126.052 255.88C126.776 256.271 127.138 256.676 126.979 256.814L126.921 256.857L126.588 257.053C126.168 257.291 126.508 257.871 127.312 258.349C127.581 258.55 127.896 258.68 128.229 258.728C128.562 258.776 128.901 258.74 129.216 258.624L129.629 258.385C129.714 258.325 129.812 258.286 129.915 258.271C130.018 258.256 130.124 258.265 130.222 258.298C130.3 258.336 130.375 258.38 130.447 258.428L130.917 258.696L131.504 259.036C131.627 259.096 131.726 259.196 131.785 259.32C131.843 259.444 131.856 259.584 131.822 259.717C131.829 259.748 131.829 259.78 131.822 259.811C131.801 259.884 131.772 259.954 131.736 260.021C131.729 260.058 131.714 260.092 131.692 260.122C131.626 260.24 131.548 260.352 131.46 260.455C131.364 260.573 131.26 260.685 131.149 260.788L130.765 261.121C130.688 261.187 130.605 261.248 130.519 261.302L130.317 261.447C130.161 261.559 129.999 261.66 129.831 261.751L120.333 267.239L119.572 265.958Z" fill="#FF7E31"/>
<path opacity="0.6" d="M119.572 265.958L129.071 260.492C129.202 260.419 129.332 260.332 129.455 260.253L129.759 260.035C128.673 260.513 127.203 260.035 126.233 259.492C125.666 259.194 125.186 258.752 124.843 258.211C124.595 257.793 124.509 257.298 124.604 256.821L124.467 256.741L124.206 256.596L86.4131 234.71L84.2411 233.457L83.6185 233.103L81.7868 232.046C81.6598 231.978 81.5181 231.942 81.3741 231.942C81.2301 231.942 81.0884 231.978 80.9614 232.046L81.3741 231.807L82.4673 231.177C82.5861 231.116 82.7176 231.084 82.8511 231.084C82.9845 231.084 83.1161 231.116 83.2348 231.177C83.452 231.3 83.6764 231.437 83.9153 231.56L84.3353 231.807L85.0593 232.227C85.2258 232.313 85.3706 232.4 85.5081 232.487L85.8267 232.668L86.3842 232.987L116.416 250.363L126.052 255.88C126.776 256.271 127.138 256.676 126.979 256.814L126.921 256.857L126.588 257.053C126.168 257.291 126.508 257.871 127.312 258.349C127.581 258.55 127.896 258.68 128.229 258.728C128.562 258.776 128.901 258.74 129.216 258.624L129.629 258.385C129.714 258.325 129.812 258.286 129.915 258.271C130.018 258.256 130.124 258.265 130.222 258.298C130.3 258.336 130.375 258.38 130.447 258.428L130.917 258.696L131.504 259.036C131.627 259.096 131.726 259.196 131.785 259.32C131.843 259.444 131.856 259.584 131.822 259.717C131.829 259.748 131.829 259.78 131.822 259.811C131.801 259.884 131.772 259.954 131.736 260.021C131.729 260.058 131.714 260.092 131.692 260.122C131.626 260.24 131.548 260.352 131.46 260.455C131.364 260.573 131.26 260.685 131.149 260.788L130.765 261.121C130.688 261.187 130.605 261.248 130.519 261.302L130.317 261.447C130.161 261.559 129.999 261.66 129.831 261.751L120.333 267.239L119.572 265.958Z" fill="white"/>
<path d="M90.7498 203.903L91.4738 201.63C91.8647 199.791 84.3713 204.121 83.9731 205.974L86.3913 212.49C86.4755 212.685 86.6169 212.849 86.7967 212.961C87.3253 213.294 89.2801 214.409 89.4538 214.496C89.5887 214.579 89.7409 214.631 89.8987 214.646C90.0566 214.662 90.2159 214.641 90.3646 214.586C90.5133 214.531 90.6475 214.443 90.7569 214.328C90.8663 214.213 90.9481 214.075 90.9959 213.924L94.1236 203.187C94.3191 202.253 92.596 202.846 90.7498 203.903Z" fill="#FF7E31"/>
<path opacity="0.2" d="M90.7498 203.903L91.4738 201.63C91.8647 199.791 84.3713 204.121 83.9731 205.974L86.3913 212.49C86.4755 212.685 86.6169 212.849 86.7967 212.961C87.3253 213.294 89.2801 214.409 89.4538 214.496C89.5887 214.579 89.7409 214.631 89.8987 214.646C90.0566 214.662 90.2159 214.641 90.3646 214.586C90.5133 214.531 90.6475 214.443 90.7569 214.328C90.8663 214.213 90.9481 214.075 90.9959 213.924L94.1236 203.187C94.3191 202.253 92.596 202.846 90.7498 203.903Z" fill="white"/>
<path d="M100.936 160.181L72.4253 176.631C72.1454 176.813 71.9123 177.059 71.745 177.348C71.5777 177.638 71.4809 177.962 71.4624 178.296V212.078C71.4806 212.412 71.578 212.738 71.7467 213.027C71.9154 213.317 72.1505 213.562 72.4326 213.743L74.1991 214.735C74.4995 214.884 74.8303 214.962 75.1657 214.962C75.501 214.962 75.8319 214.884 76.1322 214.735L104.643 198.286C104.923 198.103 105.156 197.857 105.324 197.568C105.491 197.279 105.588 196.954 105.606 196.62V162.831C105.589 162.498 105.491 162.173 105.323 161.884C105.154 161.596 104.918 161.352 104.636 161.173L102.884 160.174C102.581 160.024 102.247 159.946 101.909 159.947C101.571 159.949 101.238 160.029 100.936 160.181Z" fill="#FF7E31"/>
<path opacity="0.2" d="M100.936 160.181L72.4253 176.631C72.1454 176.813 71.9123 177.059 71.745 177.348C71.5777 177.638 71.4809 177.962 71.4624 178.296V212.078C71.4806 212.412 71.578 212.738 71.7467 213.027C71.9154 213.317 72.1505 213.562 72.4326 213.743L74.1991 214.735C74.4995 214.884 74.8303 214.962 75.1657 214.962C75.501 214.962 75.8319 214.884 76.1322 214.735L104.643 198.286C104.923 198.103 105.156 197.857 105.324 197.568C105.491 197.279 105.588 196.954 105.606 196.62V162.831C105.589 162.498 105.491 162.173 105.323 161.884C105.154 161.596 104.918 161.352 104.636 161.173L102.884 160.174C102.581 160.024 102.247 159.946 101.909 159.947C101.571 159.949 101.238 160.029 100.936 160.181Z" fill="white"/>
<path d="M104.643 162.274L76.1323 178.723C75.8502 178.904 75.6151 179.149 75.4464 179.439C75.2777 179.728 75.1803 180.054 75.1621 180.388V214.156C75.1621 214.771 75.5965 215.024 76.1323 214.713L87.043 208.421L89.0412 213.982C89.125 214.178 89.2671 214.344 89.4482 214.457C89.6294 214.57 89.8408 214.625 90.054 214.614C90.2672 214.602 90.4718 214.526 90.6403 214.395C90.8087 214.264 90.9329 214.084 90.996 213.88L93.6603 204.599L104.643 198.264C104.923 198.081 105.156 197.835 105.324 197.546C105.491 197.257 105.588 196.932 105.606 196.599V162.831C105.606 162.216 105.172 161.97 104.643 162.274Z" fill="#FF7E31"/>
<path opacity="0.4" d="M104.643 162.274L76.1323 178.723C75.8502 178.904 75.6151 179.149 75.4464 179.439C75.2777 179.728 75.1803 180.054 75.1621 180.388V214.156C75.1621 214.771 75.5965 215.024 76.1323 214.713L87.043 208.421L89.0412 213.982C89.125 214.178 89.2671 214.344 89.4482 214.457C89.6294 214.57 89.8408 214.625 90.054 214.614C90.2672 214.602 90.4718 214.526 90.6403 214.395C90.8087 214.264 90.9329 214.084 90.996 213.88L93.6603 204.599L104.643 198.264C104.923 198.081 105.156 197.835 105.324 197.546C105.491 197.257 105.588 196.932 105.606 196.599V162.831C105.606 162.216 105.172 161.97 104.643 162.274Z" fill="white"/>
<path opacity="0.7" d="M105.592 162.657C105.512 162.172 105.121 161.999 104.636 162.274L76.1322 178.723C75.8454 178.9 75.6107 179.15 75.4516 179.447L71.752 177.311C71.912 177.031 72.1413 176.797 72.418 176.631L100.929 160.181C101.227 160.029 101.557 159.95 101.892 159.95C102.227 159.95 102.557 160.029 102.855 160.181L104.622 161.173C104.881 161.336 105.102 161.552 105.27 161.809C105.437 162.065 105.547 162.355 105.592 162.657Z" fill="white"/>
<path d="M87.8901 180.656C88.1073 180.533 88.2738 180.518 88.3824 180.605C88.522 180.754 88.6216 180.936 88.672 181.134L93.6821 195.483C93.691 195.541 93.691 195.599 93.6821 195.657C93.6772 195.873 93.62 196.084 93.5156 196.272C93.4312 196.455 93.2952 196.608 93.1246 196.714L91.6766 197.568C91.4015 197.72 91.2132 197.757 91.1046 197.663C90.9987 197.582 90.9203 197.471 90.8802 197.344L89.9969 194.824L83.5316 198.56L82.6556 202.093C82.6009 202.294 82.5256 202.488 82.4311 202.673C82.2976 202.911 82.0993 203.107 81.8592 203.237L80.4112 204.084C80.3548 204.127 80.2862 204.15 80.2157 204.15C80.1452 204.15 80.0766 204.127 80.0202 204.084C79.9622 204.032 79.9176 203.967 79.8899 203.894C79.8622 203.821 79.8523 203.742 79.8609 203.664C79.853 203.597 79.853 203.529 79.8609 203.462L84.871 183.327C84.9286 183.028 85.026 182.739 85.1606 182.466C85.2664 182.249 85.4356 182.07 85.6457 181.952L87.8901 180.656ZM89.0195 191.986L86.7679 185.507L84.5162 194.607L89.0195 191.986Z" fill="white"/>
<path d="M97.3599 183.168V186.839C97.3584 186.999 97.316 187.156 97.2369 187.295C97.1745 187.427 97.0768 187.54 96.9545 187.621L95.8033 188.287C95.7617 188.319 95.7108 188.336 95.6585 188.336C95.6062 188.336 95.5553 188.319 95.5137 188.287C95.4701 188.248 95.4363 188.2 95.4149 188.146C95.3935 188.092 95.3852 188.033 95.3907 187.975V184.305L92.6829 185.869C92.6413 185.9 92.5904 185.918 92.5381 185.918C92.4858 185.918 92.4349 185.9 92.3933 185.869C92.35 185.83 92.3169 185.782 92.2967 185.727C92.2765 185.673 92.2699 185.615 92.2775 185.557V184.225C92.2797 184.066 92.3194 183.91 92.3933 183.769C92.4583 183.636 92.5584 183.523 92.6829 183.443L95.3907 181.879V178.259C95.3949 178.102 95.4372 177.948 95.5137 177.811C95.5745 177.675 95.6756 177.561 95.8033 177.485L96.9545 176.819C96.9955 176.789 97.0449 176.772 97.0957 176.772C97.1464 176.772 97.1959 176.789 97.2369 176.819C97.282 176.857 97.3169 176.907 97.3383 176.962C97.3598 177.018 97.3672 177.078 97.3599 177.137V180.757L100.053 179.201C100.095 179.169 100.146 179.152 100.198 179.152C100.25 179.152 100.301 179.169 100.343 179.201C100.386 179.239 100.42 179.287 100.442 179.342C100.463 179.396 100.471 179.454 100.466 179.512V180.851C100.461 181.011 100.419 181.167 100.343 181.307C100.282 181.443 100.181 181.557 100.053 181.633L97.3599 183.168Z" fill="white"/>
<path d="M319.766 338.683C319.916 338.468 320.051 338.243 320.171 338.01C320.207 337.95 320.238 337.887 320.265 337.822C320.36 337.628 320.445 337.43 320.519 337.228L320.584 337.04C320.663 336.803 320.726 336.561 320.772 336.316C320.815 336.062 320.837 335.806 320.837 335.548C320.837 335.469 320.837 335.396 320.837 335.317C320.833 335.137 320.819 334.959 320.794 334.781L320.75 334.506C320.714 334.332 320.671 334.166 320.62 333.992C320.569 333.818 320.577 333.825 320.548 333.738C320.459 333.492 320.357 333.25 320.243 333.014C320.243 332.942 320.157 332.87 320.113 332.79C320.07 332.71 319.925 332.457 319.809 332.29C319.693 332.124 319.671 332.095 319.599 331.994L319.44 331.776L319.186 331.48L319.042 331.327C317.377 329.409 315.32 327.87 313.009 326.815C310.698 325.761 308.188 325.215 305.648 325.215C303.107 325.215 300.597 325.761 298.286 326.815C295.975 327.87 293.918 329.409 292.254 331.327L292.138 331.458L291.87 331.769C291.808 331.842 291.752 331.919 291.703 332.001L291.501 332.276C291.385 332.45 291.276 332.631 291.175 332.812L291.066 333C290.946 333.233 290.844 333.475 290.762 333.724C290.762 333.796 290.711 333.876 290.69 333.948C290.639 334.129 290.588 334.31 290.552 334.499C290.516 334.687 290.552 334.665 290.516 334.745C290.489 334.934 290.472 335.125 290.465 335.317C290.465 335.382 290.465 335.447 290.465 335.519C290.474 336.048 290.562 336.573 290.726 337.076C290.742 337.13 290.761 337.183 290.784 337.235C290.86 337.448 290.949 337.656 291.052 337.858C291.075 337.915 291.102 337.97 291.131 338.024C291.258 338.275 291.401 338.516 291.559 338.748C291.746 339.003 291.949 339.244 292.167 339.472L292.217 339.523C292.42 339.74 292.637 339.958 292.876 340.168L293.043 340.312C293.26 340.496 293.501 340.677 293.767 340.855L293.941 340.986C294.252 341.196 294.57 341.413 294.925 341.608C300.847 345.033 310.469 345.033 316.392 341.608C316.726 341.418 317.05 341.211 317.362 340.986C317.432 340.942 317.5 340.893 317.565 340.841C317.796 340.679 318.018 340.505 318.231 340.32L318.419 340.16C318.643 339.958 318.853 339.748 319.049 339.538L319.121 339.465C319.337 339.237 319.538 338.996 319.722 338.741L319.766 338.683Z" fill="#455A64"/>
<path d="M305.654 312.345C305.251 312.338 304.853 312.432 304.496 312.62C304.377 312.675 304.272 312.758 304.191 312.861C304.109 312.964 304.052 313.085 304.025 313.213C303.729 320.171 303.186 323.538 300.963 327.23C301.001 327.643 301.148 328.039 301.39 328.376C301.632 328.714 301.959 328.98 302.338 329.149C303.361 329.692 304.504 329.966 305.662 329.945C306.819 329.967 307.963 329.693 308.985 329.149C309.365 328.981 309.694 328.714 309.937 328.377C310.18 328.04 310.328 327.644 310.368 327.23C308.145 323.538 307.602 320.171 307.305 313.213C307.278 313.085 307.222 312.964 307.14 312.861C307.058 312.758 306.954 312.675 306.835 312.62C306.471 312.429 306.065 312.334 305.654 312.345Z" fill="#37474F"/>
<g opacity="0.15">
<path d="M307.327 313.923C306.212 313.966 305.097 313.966 303.982 313.923C303.881 316.095 303.758 318.231 303.555 320.236C304.945 320.207 306.34 320.125 307.74 319.99C307.544 318.057 307.429 316.015 307.327 313.923Z" fill="black"/>
</g>
<g opacity="0.15">
<path d="M297.169 339.573C292.232 336.482 292.579 330.979 295.852 328.163C294.52 329.046 293.315 330.106 292.268 331.312L292.152 331.443L291.884 331.754C291.822 331.827 291.766 331.904 291.718 331.986L291.515 332.261C291.399 332.435 291.29 332.616 291.189 332.797L291.08 332.985C290.96 333.218 290.858 333.46 290.776 333.709C290.776 333.781 290.726 333.861 290.704 333.933C290.653 334.114 290.603 334.295 290.566 334.484C290.53 334.672 290.566 334.65 290.53 334.73C290.503 334.919 290.486 335.11 290.479 335.302C290.479 335.367 290.479 335.432 290.479 335.504C290.488 336.033 290.576 336.558 290.74 337.061C290.756 337.115 290.776 337.168 290.798 337.22C290.874 337.433 290.963 337.641 291.066 337.843C291.09 337.9 291.116 337.955 291.146 338.009C291.272 338.26 291.415 338.501 291.573 338.733C291.76 338.988 291.963 339.229 292.181 339.457L292.232 339.508C292.434 339.725 292.652 339.943 292.89 340.153L293.057 340.297C293.274 340.481 293.515 340.662 293.781 340.84L293.955 340.971C294.266 341.181 294.585 341.398 294.939 341.593C300.862 345.018 310.484 345.018 316.406 341.593C316.74 341.403 317.064 341.196 317.376 340.971C317.447 340.927 317.514 340.878 317.579 340.826C317.81 340.664 318.032 340.49 318.245 340.305L318.433 340.145C318.658 339.943 318.868 339.733 319.063 339.523L319.135 339.45C312.952 343.888 302.107 342.665 297.169 339.573Z" fill="black"/>
</g>
<path d="M271.576 294.859C280.629 303.802 292.853 308.8 305.579 308.761C318.304 308.722 330.498 303.649 339.496 294.651C348.494 285.653 353.567 273.46 353.606 260.734C353.645 248.008 348.647 235.784 339.704 226.731L342.81 223.625C364.472 245.287 366.529 278.352 344.866 300.021C323.204 321.691 290.154 319.569 268.492 297.936L271.576 294.859Z" fill="#37474F"/>
<path d="M346.104 227.187L342.962 230.329C341.933 229.066 340.838 227.858 339.683 226.709L342.789 223.604C343.976 224.784 345.055 225.985 346.104 227.187Z" fill="#263238"/>
<path d="M271.576 294.859C272.734 296.008 273.941 297.092 275.196 298.11L272.075 301.231C270.859 300.188 269.672 299.095 268.521 297.936L271.576 294.859Z" fill="#263238"/>
<path d="M358.08 265.516C356.69 276.905 352.584 290.132 341.551 299.827C332.139 308.087 317.76 316.855 295.62 313.583C304.296 315.864 313.42 315.809 322.067 313.422C330.714 311.035 338.576 306.402 344.852 299.993C365.848 278.997 364.559 247.221 344.678 225.559C345.482 226.565 360.585 244.976 358.08 265.516Z" fill="#455A64"/>
<path d="M266.754 302.368C266.213 302.367 265.685 302.206 265.236 301.905C264.787 301.604 264.436 301.177 264.23 300.678C264.023 300.178 263.969 299.628 264.074 299.098C264.179 298.568 264.439 298.081 264.821 297.698L342.528 220.02C343.041 219.508 343.736 219.221 344.46 219.222C345.184 219.222 345.879 219.511 346.39 220.023C346.902 220.536 347.189 221.231 347.189 221.955C347.188 222.68 346.899 223.374 346.387 223.886L268.68 301.564C268.17 302.076 267.477 302.365 266.754 302.368Z" fill="#37474F"/>
<path d="M342.528 220.02L264.821 297.698C264.449 298.069 264.193 298.54 264.082 299.054C263.972 299.568 264.012 300.102 264.198 300.594C264.464 300.682 264.743 300.729 265.024 300.731C265.382 300.732 265.738 300.662 266.069 300.525C266.401 300.389 266.703 300.188 266.957 299.935L344.7 222.25C345.071 221.878 345.328 221.407 345.438 220.893C345.549 220.38 345.508 219.845 345.322 219.354C344.841 219.194 344.324 219.172 343.83 219.289C343.337 219.407 342.886 219.66 342.528 220.02Z" fill="#455A64"/>
<path d="M263.814 245.012C260.284 254.353 259.988 264.608 262.974 274.136C265.959 283.665 272.053 291.918 280.282 297.574C288.511 303.231 298.399 305.965 308.365 305.339C318.331 304.713 327.799 300.763 335.255 294.121C342.712 287.479 347.725 278.529 349.495 268.702C351.264 258.874 349.687 248.737 345.016 239.912C340.345 231.086 332.849 224.082 323.728 220.019C314.606 215.956 304.385 215.069 294.7 217.5C287.715 219.255 281.258 222.673 275.879 227.464C270.501 232.255 266.362 238.275 263.814 245.012Z" fill="#FF7E31"/>
<path opacity="0.5" d="M306.169 305.445C316.156 305.312 325.811 301.835 333.589 295.569C341.367 289.303 346.819 280.609 349.074 270.879C351.329 261.148 350.256 250.943 346.026 241.894C341.797 232.845 334.656 225.476 325.745 220.965C316.833 216.453 306.667 215.06 296.87 217.008C287.074 218.955 278.213 224.132 271.706 231.709C265.198 239.286 261.419 248.827 260.973 258.805C260.527 268.783 263.439 278.623 269.245 286.751C273.434 292.616 278.98 297.379 285.41 300.634C291.84 303.89 298.962 305.54 306.169 305.445Z" fill="white"/>
<path d="M327.396 229.099C325.869 227.745 323.451 226.507 324.066 228.643C324.681 230.779 325.514 231.684 324.493 232.799C323.472 233.914 321.691 234.42 321.322 235.535C320.953 236.65 320.707 238.106 321.525 238.366C322.343 238.627 325.514 238.316 326.332 239.213C327.15 240.111 330.075 243.043 331.4 242.45C332.725 241.856 333.145 242.341 334.89 241.907C336.635 241.472 337.945 239.952 337.062 239.134C336.179 238.316 335.715 238.583 334.325 237.106C332.935 235.629 333.145 234.022 331.429 232.951C329.713 231.879 328.519 230.084 327.396 229.099Z" fill="#455A64"/>
<path d="M321.438 224.364C318.897 223.712 314.039 221.786 312.8 219.795C312.185 218.803 311.505 217.573 310.628 216.414C299.927 215.198 289.146 217.882 280.264 223.973C279.903 225.163 279.691 226.394 279.634 227.636C279.533 230.366 280.706 231.792 282.067 233.624C283.428 235.455 282.067 235.911 281.973 237.627C281.878 239.343 281.719 240.227 282.168 241.602C282.617 242.978 280.467 242.804 279.12 243.535C277.773 244.266 277.129 244.766 275.905 247.626C274.682 250.486 275.276 254.272 275.181 255.706C275.087 257.139 273.067 257.103 271.735 259.116C270.403 261.128 266.052 265.711 265.335 269.874C264.618 274.037 265.9 274.653 267.384 272.77C268.868 270.888 269.831 268.687 272.068 268.296C274.305 267.905 276.057 270.164 278.99 268.376C281.922 266.587 282.262 267.13 284.137 267.333C286.012 267.536 286.165 266.37 288.923 265.458C291.681 264.546 293.614 263.054 292.775 260.868C291.935 258.681 290.842 257.827 291.189 254.786C291.499 251.585 291.136 248.355 290.125 245.302C289.169 242.507 284.963 240.958 284.072 239.51C283.182 238.062 284.536 235.035 285.433 234.21C286.331 233.385 285.636 232.335 284.564 231.748C283.493 231.162 283.522 230.163 284.347 228.773C285.173 227.383 288.344 227.578 289.922 228.824C291.5 230.069 291.667 231.466 290.219 233.631C289.606 234.484 289.276 235.509 289.276 236.559C289.276 237.61 289.606 238.635 290.219 239.488C291.269 241.074 291.71 238.88 291.667 237.026C291.623 235.173 292.326 234.239 295.005 232.777C297.683 231.314 299.349 233.11 302.455 232.378C305.56 231.647 304.489 233.349 305.655 234.775C306.82 236.201 307.291 235.296 308.913 234.529C310.534 233.761 311.273 236.382 313.59 236.701C315.906 237.019 314.401 232.748 315.827 231.575C317.253 230.402 318.549 231.683 319.65 228.983C320.75 226.282 321.858 227.144 323.081 226.883C324.305 226.623 323.986 225.015 321.438 224.364ZM314.922 227.455C313.561 228.049 313.358 227.506 311.628 227.926C310.916 228.112 310.175 228.156 309.447 228.054C308.719 227.952 308.018 227.707 307.385 227.332C306.567 226.746 306.552 224.327 307.233 223.459C307.913 222.59 309.304 223.459 310.781 224.465C312.323 225.49 314.121 226.064 315.972 226.123C317.615 226.246 316.29 226.869 314.936 227.455H314.922Z" fill="#455A64"/>
<path d="M340.689 288.38L340.609 288.481C340.209 288.327 339.782 288.256 339.354 288.274C338.925 288.291 338.505 288.396 338.119 288.583C335.693 289.727 336.287 288.8 333.391 288.431C330.495 288.061 330.263 289.669 329.214 291.001C328.164 292.333 324.826 291.891 323.422 291.413C322.017 290.936 318.954 293.383 318.013 295.033C317.072 296.684 314.893 295.757 312.721 296.098C310.549 296.438 308.029 298.016 306.437 298.422C305.655 298.63 304.83 298.608 304.059 298.361C303.289 298.113 302.607 297.649 302.093 297.024C301.079 295.721 301.788 292.68 302.722 290.385C303.655 288.009 305.235 285.942 307.284 284.42C309.376 282.885 309.036 282.972 311.273 279.656C312.071 278.586 312.51 277.292 312.528 275.958C312.547 274.624 312.143 273.318 311.374 272.227C310.505 270.903 308.022 269.853 307.559 268.332C307.095 266.812 307.436 265.567 309.311 262.207C311.186 258.848 313.126 259.463 315.559 258.957C318.38 258.454 321.288 258.826 323.892 260.021C324.801 260.481 325.608 261.119 326.265 261.898C326.921 262.677 327.415 263.58 327.715 264.553C328.338 266.189 327.715 267.978 328.439 268.825C329.163 269.672 330.22 269.903 330.944 270.83C331.668 271.757 331.805 272.655 332.739 273.248C333.673 273.842 333.999 272.459 334.354 271.844C334.709 271.228 333.862 270.693 332.906 269.802C331.95 268.912 331.95 268.426 332.182 267.471C332.414 266.515 331.357 266.573 331.132 265.885C330.908 265.197 329.916 266.457 329.46 266.877C329.004 267.297 329.38 266.153 329.38 266.153C329.38 266.153 328.417 266.414 328.504 265.972C328.591 265.53 329.619 265.197 330.213 264.444C330.806 263.691 329.633 262.917 329.489 261.787C329.392 261.221 329.148 260.69 328.782 260.246C328.417 259.803 327.941 259.463 327.404 259.261C326.274 258.754 326.303 258.392 325.232 258.804C324.16 259.217 321.785 258.008 321.279 257.356C320.772 256.705 322.314 255.908 323.805 255.271C325.297 254.634 326.035 255.995 327.686 255.518C329.337 255.04 328.584 254.07 328.135 253.346C327.686 252.622 328.033 251.861 329.93 251.058C331.827 250.254 332.327 251.412 332.102 252.368C332.019 252.875 332.071 253.394 332.254 253.874C332.437 254.354 332.745 254.776 333.145 255.098C333.949 255.822 334.282 255.098 335.317 253.903C336.352 252.708 337.489 252.571 338.995 253.107C340.501 253.642 342.955 254.555 344.237 254.555C345.518 254.555 346.351 256.082 346.358 257.364C346.365 258.645 347.552 260.216 348.827 261.845C348.993 262.049 349.205 262.212 349.445 262.32C349.685 262.428 349.947 262.479 350.21 262.468C349.867 271.897 346.532 280.972 340.689 288.38Z" fill="#455A64"/>
<path d="M319.679 298.928C319.005 298.06 318.832 298.385 317.782 298.588C316.732 298.791 315.393 298.87 314.886 299.645C314.379 300.42 313.727 301.281 314.727 301.303C315.726 301.325 316.066 300.579 317.181 300.934C318.296 301.289 320.692 300.232 319.679 298.928Z" fill="#455A64"/>
<path opacity="0.1" d="M272.843 235.709C254.96 259.29 271.134 271.185 287.953 261.548C304.771 251.912 317.818 229.222 311.555 223.075C305.293 216.928 286.136 218.181 272.843 235.709Z" fill="white"/>
<g opacity="0.1">
<path d="M322.104 280.133C297.235 294.237 264.633 280.937 260.984 258.768C260.948 259.629 260.926 260.491 260.941 261.367C261.035 268.725 262.946 275.945 266.504 282.386C270.063 288.827 275.158 294.288 281.336 298.285C287.515 302.281 294.585 304.689 301.918 305.293C309.252 305.898 316.621 304.68 323.371 301.749C330.12 298.818 336.04 294.265 340.605 288.493C345.17 282.722 348.238 275.912 349.535 268.669C350.833 261.426 350.32 253.974 348.043 246.977C345.766 239.98 341.795 233.654 336.483 228.562C342.318 237.504 346.959 266.044 322.104 280.133Z" fill="black"/>
</g>
<path d="M174.466 299.754C183.878 283.385 234.753 281.966 246.366 297.17C246.366 297.17 245.353 281.155 244.983 255.178C244.614 229.201 243.492 200.603 243.492 200.603H184.986C184.986 200.603 181.626 232.205 180.757 248.539C179.889 264.872 174.466 299.754 174.466 299.754Z" fill="#263238"/>
<path d="M223.792 330.785L222.344 317.348L237.736 318.354C237.736 318.354 237.498 325.652 237.288 329.786C237.157 332.226 240.451 336.758 240.451 336.758C240.451 336.758 233.211 340.639 229.345 339.278C225.479 337.917 223.423 333.102 223.481 332.038C223.539 330.973 223.792 330.785 223.792 330.785Z" fill="#C8856A"/>
<path d="M260.839 351.788C261.078 351.788 261.491 354.286 260.188 355.372C258.682 356.625 254.244 358.717 248.328 358.102C242.413 357.486 239.192 355.836 236.795 354.026C234.399 352.216 231.047 349.682 228.368 349.16C225.877 348.69 223.169 347.712 222.366 346.988C221.562 346.264 221.642 343.086 221.642 343.086L260.839 351.788Z" fill="#263238"/>
<path d="M223.792 330.764C223.582 330.774 223.38 330.854 223.22 330.992C223.06 331.13 222.951 331.317 222.909 331.524C222.743 332.407 222.591 334.97 222.221 336.418C221.715 338.431 221.418 342.55 221.765 344.179C222.113 345.808 226.182 346.873 228.781 347.749C231.819 348.93 234.668 350.55 237.237 352.556C240.046 354.648 245.925 356.777 249.77 356.683C254.316 356.574 259.421 355.112 260.564 353.114C262.012 350.645 262.99 347.785 256.22 344.976C254.939 344.44 250.428 342.029 248.865 341.16C244.68 338.793 241.733 336.599 239.757 332.32C239.592 331.782 239.24 331.32 238.765 331.017C238.346 330.861 237.89 330.83 237.454 330.93C236.332 331.097 231.851 331.756 230.837 332.226C229.939 332.646 228.665 333.138 228.665 334.224C228.696 334.604 228.788 334.976 228.94 335.325C229.027 335.542 229.092 335.839 228.889 335.969C228.687 336.1 228.433 335.969 228.252 335.817C227.581 335.198 226.961 334.525 226.399 333.804C226.076 333.431 225.712 333.096 225.313 332.805C224.911 332.602 224.522 332.374 224.147 332.125C223.706 331.748 223.792 331.27 223.792 330.764Z" fill="#455A64"/>
<path d="M237.215 352.556C236.021 351.665 234.754 350.811 233.487 350.044C233.487 350.044 241.501 354.424 244.68 352.317C246.722 350.963 245.715 349.37 245.657 348.863C245.599 348.357 252.839 344.606 254.838 344.346C255.402 344.628 255.88 344.852 256.17 344.976C262.975 347.785 261.962 350.644 260.514 353.113C259.37 355.112 255.685 356.733 249.799 356.813C245.976 356.878 240.025 354.648 237.215 352.556Z" fill="#37474F"/>
<path d="M245.078 347.372C249.299 348.871 247.518 349.638 246.345 349.819C245.172 350 238.048 346.25 233.682 343.137C229.135 339.886 226.239 336.295 224.552 335.1C223.923 334.659 223.242 334.109 222.641 333.595C222.735 332.726 222.808 331.944 222.887 331.524C222.929 331.317 223.038 331.13 223.198 330.992C223.358 330.854 223.56 330.774 223.771 330.764C223.771 331.27 223.705 331.748 224.125 332.125C224.5 332.374 224.889 332.602 225.291 332.805C225.69 333.096 226.054 333.431 226.377 333.804C226.939 334.525 227.559 335.198 228.23 335.817C231.966 340.132 240.85 345.874 245.078 347.372Z" fill="#37474F"/>
<path d="M246.041 349.24C245.945 349.246 245.85 349.218 245.773 349.16C245.731 349.13 245.695 349.092 245.669 349.048C245.643 349.003 245.626 348.954 245.62 348.903C245.614 348.852 245.618 348.8 245.633 348.751C245.649 348.702 245.674 348.656 245.707 348.617C246.873 347.234 252.433 343.918 255.532 344.186C255.585 344.188 255.636 344.2 255.683 344.223C255.731 344.245 255.773 344.277 255.808 344.316C255.842 344.356 255.868 344.402 255.884 344.452C255.901 344.501 255.906 344.554 255.901 344.606C255.896 344.659 255.88 344.711 255.854 344.758C255.829 344.804 255.794 344.846 255.752 344.879C255.71 344.912 255.662 344.936 255.611 344.95C255.559 344.964 255.505 344.968 255.453 344.961C252.557 344.715 247.279 348.002 246.359 349.095C246.32 349.141 246.271 349.178 246.216 349.203C246.161 349.228 246.101 349.24 246.041 349.24Z" fill="#263238"/>
<path d="M242.341 347.198C242.247 347.197 242.156 347.167 242.08 347.111C242.038 347.082 242.001 347.044 241.974 347C241.947 346.956 241.93 346.906 241.924 346.855C241.918 346.803 241.923 346.751 241.938 346.702C241.954 346.652 241.98 346.607 242.015 346.568C243.174 345.193 248.734 341.877 251.833 342.138C251.885 342.14 251.936 342.153 251.984 342.176C252.031 342.199 252.073 342.23 252.108 342.269C252.143 342.308 252.17 342.354 252.187 342.403C252.205 342.453 252.212 342.505 252.209 342.558C252.203 342.611 252.186 342.663 252.16 342.709C252.133 342.756 252.098 342.797 252.055 342.83C252.013 342.863 251.964 342.888 251.912 342.902C251.861 342.916 251.806 342.919 251.753 342.912C248.857 342.673 243.586 345.96 242.66 347.046C242.622 347.094 242.573 347.133 242.518 347.16C242.463 347.186 242.402 347.199 242.341 347.198Z" fill="#263238"/>
<path d="M238.649 345.266C238.553 345.266 238.459 345.235 238.381 345.179C238.339 345.149 238.304 345.111 238.277 345.066C238.251 345.022 238.234 344.973 238.228 344.922C238.222 344.87 238.227 344.819 238.242 344.769C238.257 344.72 238.282 344.675 238.316 344.636C239.482 343.253 245.042 339.937 248.141 340.205C248.193 340.208 248.244 340.221 248.29 340.243C248.337 340.266 248.379 340.298 248.414 340.337C248.448 340.376 248.474 340.422 248.491 340.471C248.507 340.521 248.514 340.573 248.51 340.625C248.504 340.678 248.488 340.729 248.463 340.776C248.437 340.823 248.402 340.864 248.361 340.897C248.319 340.93 248.271 340.955 248.219 340.969C248.168 340.983 248.114 340.987 248.061 340.979C245.165 340.741 239.887 344.02 238.967 345.113C238.927 345.159 238.879 345.196 238.824 345.222C238.769 345.248 238.71 345.263 238.649 345.266Z" fill="#263238"/>
<path d="M235.217 343.028C235.123 343.029 235.031 342.999 234.956 342.941C234.914 342.912 234.878 342.874 234.851 342.83C234.824 342.786 234.806 342.737 234.8 342.686C234.793 342.635 234.797 342.583 234.811 342.533C234.826 342.484 234.851 342.438 234.884 342.398C236.05 341.016 241.624 337.7 244.709 337.967C244.761 337.97 244.812 337.983 244.859 338.006C244.907 338.029 244.949 338.06 244.984 338.099C245.019 338.138 245.046 338.184 245.063 338.233C245.081 338.283 245.088 338.335 245.085 338.387C245.071 338.494 245.015 338.592 244.93 338.658C244.844 338.724 244.736 338.754 244.629 338.742C241.733 338.503 236.455 341.783 235.536 342.876C235.496 342.922 235.447 342.959 235.392 342.985C235.337 343.011 235.278 343.026 235.217 343.028Z" fill="#263238"/>
<path d="M231.858 340.813C231.764 340.819 231.671 340.791 231.597 340.733C231.554 340.704 231.518 340.667 231.49 340.623C231.462 340.579 231.444 340.53 231.437 340.479C231.429 340.428 231.432 340.376 231.446 340.326C231.46 340.276 231.485 340.23 231.518 340.19C233.118 338.235 238.953 335.448 242.045 335.708C242.097 335.711 242.148 335.724 242.195 335.747C242.243 335.77 242.285 335.801 242.32 335.84C242.355 335.879 242.382 335.925 242.399 335.974C242.417 336.024 242.424 336.076 242.421 336.128C242.408 336.235 242.354 336.332 242.27 336.398C242.186 336.465 242.079 336.495 241.972 336.483C239.185 336.251 233.595 338.93 232.176 340.661C232.138 340.708 232.09 340.747 232.035 340.773C231.979 340.799 231.919 340.813 231.858 340.813Z" fill="#263238"/>
<path d="M193.341 338.12L196.86 325.384L181.192 322.959L180.468 335.267C180.468 335.267 178.803 339.669 179.744 341.291C180.685 342.912 191.111 344.751 192.052 343.694C192.993 342.637 193.341 338.12 193.341 338.12Z" fill="#C8856A"/>
<path d="M191.734 365.899C191.227 369.845 190.358 372.415 188.62 374.508C186.883 376.6 183.835 376.948 180.837 375.847C177.84 374.747 174.053 372.387 173.402 368.832C172.75 365.277 173.069 362.953 173.988 359.354L191.734 365.899Z" fill="#263238"/>
<path d="M180.49 335.288C179.23 335.201 179.476 340.624 178.419 345.873C177.282 351.506 175.205 353.62 174.22 358.224C173.09 363.495 173.257 365.942 175.176 369.475C177.094 373.009 184.407 377.229 188.403 373.095C191.654 369.714 192.023 365.522 192.11 360.121C192.168 354.532 192.168 350.594 192.689 346.423C193.181 342.427 194.398 338.886 193.333 338.293C193.218 338.872 193.087 339.61 192.964 340.182C192.863 340.617 192.602 342.774 191.9 342.702C191.872 342.194 191.899 341.684 191.98 341.182C192.031 340.952 192.034 340.715 191.989 340.485C191.945 340.254 191.853 340.035 191.719 339.842C191.125 339.358 190.441 338.996 189.706 338.778C188.49 338.394 186.303 337.909 185.058 337.634C184.436 337.504 183.813 337.388 183.19 337.308C182.657 337.229 182.116 337.229 181.583 337.308C181.435 337.323 181.293 337.372 181.168 337.451C181.042 337.53 180.936 337.638 180.859 337.764C180.782 337.955 180.747 338.16 180.758 338.365C180.731 338.736 180.654 339.102 180.526 339.451C180.475 339.603 180.338 339.777 180.157 339.712C180.094 339.68 180.044 339.629 180.011 339.567C179.979 339.504 179.966 339.434 179.976 339.364C180.012 338.713 180.135 338.257 180.215 337.504C180.215 337.156 180.345 336.693 180.374 336.338C180.403 335.983 180.439 335.621 180.49 335.288Z" fill="#455A64"/>
<path d="M174.596 356.74C174.43 357.464 173.366 362.532 174.879 363.669C176.522 364.9 177.717 360.997 177.717 360.997C177.717 360.997 181.778 360.454 187.462 363.51C187.107 364.299 187.831 367.173 189.467 366.811C191.104 366.449 192.088 360.65 192.103 360.57C192.016 365.747 191.56 369.801 188.403 373.081C184.407 377.229 177.094 373.016 175.176 369.461C173.257 365.906 173.112 363.495 174.22 358.232C174.328 357.703 174.459 357.211 174.596 356.74Z" fill="#37474F"/>
<path d="M178.18 361.403C178.028 363.343 175.907 362.388 176.008 359.636C176.11 356.885 178.18 350.601 178.47 345.88C178.926 339.401 179.281 335.209 180.541 335.288V335.491L180.208 338.184C180.14 338.568 180.091 338.954 180.063 339.343C179.78 343.296 179.628 350.999 179.013 354.547C178.591 356.812 178.313 359.102 178.18 361.403Z" fill="#37474F"/>
<path d="M186.789 363.365C187.464 361.182 188.006 358.96 188.41 356.711C189.069 353.178 191.306 346.119 192.385 342.318C192.67 341.622 192.865 340.892 192.964 340.146C193.08 339.61 193.196 338.937 193.312 338.379C193.314 338.341 193.314 338.302 193.312 338.264C194.079 338.705 193.768 341.768 193.312 343.332C192.856 344.896 192.364 346.611 191.821 348.885C190.452 353.366 190.235 360.107 189.359 362.684C188.483 365.262 186.26 365.218 186.789 363.365Z" fill="#37474F"/>
<path d="M187.592 363.683C187.534 363.668 187.478 363.646 187.426 363.618C184.512 361.962 181.177 361.195 177.833 361.41C177.712 361.422 177.592 361.391 177.491 361.324C177.391 361.257 177.317 361.156 177.282 361.041C177.271 360.986 177.271 360.929 177.284 360.875C177.296 360.82 177.321 360.769 177.355 360.725C177.39 360.68 177.434 360.644 177.483 360.619C177.533 360.593 177.588 360.579 177.644 360.577C181.224 360.326 184.796 361.151 187.903 362.945C187.955 362.969 188 363.005 188.037 363.049C188.073 363.092 188.1 363.143 188.115 363.198C188.13 363.253 188.133 363.311 188.124 363.367C188.115 363.423 188.094 363.477 188.063 363.524C188.01 363.595 187.937 363.649 187.852 363.678C187.768 363.706 187.677 363.708 187.592 363.683Z" fill="#263238"/>
<path d="M188.888 359.607C188.834 359.6 188.782 359.58 188.736 359.549C185.43 357.8 181.722 356.951 177.985 357.088C177.864 357.095 177.744 357.06 177.647 356.989C177.549 356.917 177.479 356.814 177.449 356.697C177.439 356.642 177.442 356.586 177.457 356.532C177.471 356.478 177.497 356.428 177.533 356.385C177.569 356.342 177.614 356.308 177.664 356.284C177.715 356.261 177.77 356.248 177.825 356.248C181.775 356.086 185.696 356.989 189.178 358.862C189.23 358.885 189.277 358.92 189.315 358.962C189.353 359.005 189.382 359.055 189.399 359.11C189.417 359.164 189.423 359.222 189.418 359.279C189.412 359.336 189.394 359.391 189.366 359.441C189.314 359.515 189.24 359.571 189.154 359.601C189.068 359.631 188.975 359.633 188.888 359.607Z" fill="#263238"/>
<path d="M178.542 353.121C178.456 353.102 178.376 353.061 178.31 353.003C178.244 352.945 178.195 352.871 178.166 352.787C178.149 352.734 178.145 352.679 178.153 352.624C178.16 352.569 178.18 352.516 178.211 352.47C178.241 352.424 178.281 352.385 178.329 352.356C178.376 352.327 178.429 352.308 178.484 352.302C184.211 351.383 189.605 354.677 189.837 354.815C189.886 354.842 189.93 354.879 189.966 354.923C190.001 354.968 190.027 355.019 190.042 355.074C190.057 355.129 190.06 355.186 190.052 355.242C190.044 355.298 190.025 355.352 189.996 355.401C189.918 355.49 189.81 355.547 189.693 355.563C189.576 355.579 189.458 355.552 189.359 355.488C189.308 355.488 184.066 352.266 178.738 353.128C178.672 353.136 178.606 353.134 178.542 353.121Z" fill="#263238"/>
<path d="M179.1 349.385C179.016 349.368 178.938 349.33 178.873 349.274C178.808 349.219 178.759 349.147 178.731 349.066C178.712 349.013 178.705 348.957 178.711 348.901C178.717 348.845 178.736 348.792 178.766 348.744C178.796 348.697 178.837 348.657 178.884 348.627C178.932 348.598 178.986 348.579 179.042 348.574C185.341 347.452 190.402 350.934 190.626 351.086C190.674 351.115 190.715 351.154 190.748 351.2C190.78 351.247 190.802 351.299 190.813 351.354C190.824 351.409 190.823 351.466 190.811 351.521C190.799 351.576 190.775 351.627 190.742 351.673C190.66 351.76 190.549 351.814 190.43 351.823C190.31 351.833 190.192 351.797 190.098 351.723C190.047 351.723 185.182 348.349 179.31 349.392C179.24 349.405 179.169 349.403 179.1 349.385Z" fill="#263238"/>
<path d="M179.751 345.2C179.667 345.183 179.588 345.145 179.523 345.089C179.457 345.033 179.406 344.962 179.375 344.882C179.357 344.829 179.352 344.774 179.358 344.719C179.364 344.664 179.383 344.611 179.412 344.564C179.441 344.517 179.48 344.477 179.526 344.447C179.572 344.417 179.624 344.397 179.679 344.389C185.594 343.26 191.104 346.873 191.335 347.032C191.385 347.059 191.429 347.097 191.463 347.142C191.498 347.187 191.522 347.24 191.534 347.295C191.546 347.351 191.547 347.409 191.535 347.464C191.523 347.52 191.5 347.572 191.466 347.618C191.384 347.705 191.274 347.76 191.155 347.77C191.036 347.781 190.917 347.747 190.821 347.676C190.771 347.676 185.449 344.15 179.961 345.207C179.892 345.22 179.82 345.217 179.751 345.2Z" fill="#263238"/>
<path d="M186.253 200.74C183.306 231.974 184.081 276.688 184.081 276.688C183.828 279.063 182.018 286.1 180.461 297.8C179.078 308.204 180.085 330.467 180.077 331.77C180.077 331.77 186.159 336.266 195.281 334.058C195.281 334.058 202.594 308.776 207.278 291.675C211.028 277.998 215.242 251.623 215.242 251.623L217.928 274.067C217.928 274.067 217.284 283.131 217.436 289.372C217.609 296.612 222.706 325.507 222.706 325.507C222.706 325.507 230.938 330.162 238.128 324.718C238.128 324.718 242.472 282.473 242.855 273.748C243.543 256.633 244.535 221.867 242.464 200.82L186.253 200.74Z" fill="#455A64"/>
<path d="M242.493 200.82L186.253 200.74C185.717 206.438 185.304 212.585 184.986 218.84C186.781 220.18 194.999 225.096 218.196 223.995C234.283 223.235 242.088 218.5 243.492 217.537C243.297 211.47 242.978 205.765 242.493 200.82Z" fill="#37474F"/>
<path d="M215.271 251.623L219.166 229.433C219.166 229.433 227.463 228.347 231.771 224.517C231.771 224.517 228.94 229.635 221.106 231.518L217.276 251.71L218 274.067L215.271 251.623Z" fill="#37474F"/>
<path d="M270.526 200.4C265.241 201.848 260.6 194.934 259.84 187.694C259.225 181.8 260.434 174.35 266.841 170.419C273.249 166.488 276.101 181.214 276.318 186.303C276.536 191.393 274.791 199.162 270.526 200.4Z" fill="#263238"/>
<path d="M292.275 151.704C292.268 151.573 292.268 151.443 292.275 151.313C292.401 150.549 292.614 149.803 292.913 149.09C293.054 148.733 293.101 148.345 293.049 147.965C292.997 147.584 292.848 147.224 292.616 146.918C292.131 146.418 291.363 146.368 290.712 146.114C290.097 145.828 289.523 145.463 289.003 145.028C288.35 144.548 287.663 144.117 286.947 143.74C286.388 143.4 285.754 143.203 285.101 143.168C283.819 143.168 282.813 144.268 282.205 145.34C281.893 145.875 280.344 149.488 279.533 148.294C279.407 148.072 279.333 147.824 279.316 147.57C279.169 146.081 278.818 144.619 278.273 143.226C278.017 142.621 277.623 142.086 277.122 141.662C276.922 141.483 276.666 141.38 276.398 141.372C276.209 141.399 276.032 141.483 275.892 141.612C275.751 141.741 275.652 141.91 275.609 142.096C275.536 142.469 275.536 142.853 275.609 143.226C275.826 145.586 275.652 147.96 275.674 150.328C275.668 151.749 275.796 153.167 276.058 154.563C276.311 155.801 277.173 157.177 276.963 158.451C276.679 159.823 275.999 161.082 275.008 162.071C271.685 165.517 267.218 169.919 267.218 169.919C267.218 169.919 262.7 166.256 252.607 156.475C244.412 148.511 241.813 144.608 233.928 142.371L238.75 169.514C238.75 169.514 247.004 175.958 260.217 186.89C264.995 190.857 268.579 192.754 272.974 189.062C275.736 186.692 278.027 183.823 279.728 180.606C283.537 172.808 284.072 171.433 286.672 165.749C288.503 161.716 289.879 159.906 291.428 156.815C292.107 155.608 292.464 154.247 292.464 152.862C292.384 152.493 292.304 152.095 292.275 151.704Z" fill="#C8856A"/>
<path d="M280.793 154.955C280.578 155.123 280.414 155.349 280.322 155.606C280.206 155.838 280.098 156.07 280.004 156.33C279.824 156.77 279.707 157.233 279.656 157.706C279.608 158.198 279.68 158.695 279.866 159.154C279.979 159.404 280.11 159.646 280.257 159.878C280.408 160.138 280.538 160.409 280.648 160.689C280.648 160.725 280.699 160.725 280.699 160.689C280.675 160.224 280.567 159.768 280.38 159.342C280.187 158.859 280.101 158.341 280.127 157.822C280.168 157.322 280.29 156.833 280.489 156.374C280.576 156.164 280.677 155.954 280.778 155.751C280.88 155.548 281.061 155.295 280.966 155.027C280.945 154.998 280.858 154.918 280.793 154.955Z" fill="#AF6152"/>
<path d="M272.402 164.613L267.232 169.493C267.232 169.493 254.092 156.75 250.124 153.058C246.157 149.365 243.42 146.202 239.213 143.906C237.343 143.045 235.406 142.336 233.421 141.785L238.135 170.325C238.135 170.325 249.074 179.346 254.729 183.871C260.383 188.396 264.771 192.024 268.738 191.604C272.706 191.184 274.342 189.251 277.173 185.348C280.004 181.446 283.624 172.888 283.624 172.888L272.402 164.613Z" fill="#455A64"/>
<path d="M267.232 169.492C263.996 172.222 262.316 174.56 262.027 178.137C261.737 181.713 262.222 183.089 262.222 183.089C262.222 183.089 260.347 179.411 260.673 176.073C260.797 174.423 261.331 172.83 262.228 171.439C263.124 170.048 264.354 168.904 265.806 168.109L267.232 169.492Z" fill="#FF7E31"/>
<path d="M276.087 160.616C276.34 165.286 283.399 167.987 286.107 166.901L283.623 172.888C281.048 173.025 278.5 172.299 276.383 170.825C275.345 170.105 274.459 169.186 273.777 168.123C273.095 167.059 272.63 165.871 272.409 164.627L276.087 160.616Z" fill="#F5F5F5"/>
<path d="M233.204 141.249C236.947 142.538 239.054 141.973 246.091 148.388C250.689 152.594 255.88 157.633 258.921 160.623C260.234 161.86 261.692 162.932 263.265 163.816C264.098 164.294 264.719 165.07 265.002 165.988C266.95 165.518 268.803 168.052 268.803 168.052L267.261 169.5C265.133 172.12 263.75 175.907 263.446 182.104C263.141 188.302 264.119 193.435 265.943 196.584C268.412 200.856 272.307 199.893 273.777 197.678C270.563 203.289 265.328 200.689 262.519 198.25C259.71 195.81 236.911 170.195 236.911 170.195L233.204 141.249Z" fill="#37474F"/>
<path d="M263.706 167.096C261.491 168.348 259.956 170.564 258.935 172.844C257.85 175.301 257.314 177.964 257.364 180.649C257.41 182.252 257.579 183.85 257.871 185.427C257.871 185.464 257.922 185.427 257.914 185.427C257.321 180.287 258.124 174.567 261.18 170.289C261.962 169.2 262.818 168.167 263.743 167.197C263.743 167.197 263.75 167.038 263.706 167.096Z" fill="#263238"/>
<path d="M277.709 178.325L278.585 154.549L278.534 151.226L276.978 125.394V124.974C276.978 124.047 277.564 123.12 278.773 122.396C280.132 121.683 281.64 121.3 283.175 121.278C284.709 121.257 286.228 121.598 287.606 122.273C288.844 122.997 289.459 123.873 289.474 124.8L288.648 151.081L288.692 154.397L290.212 178.289V178.325C290.212 179.23 289.611 180.157 288.417 180.867C287.057 181.58 285.547 181.963 284.011 181.985C282.476 182.006 280.956 181.665 279.577 180.99C278.353 180.266 277.731 179.382 277.716 178.463V178.333L277.709 178.325Z" fill="#FF7E31"/>
<path opacity="0.4" d="M277.709 178.325L278.585 154.549L278.534 151.226L276.978 125.394V124.974C276.978 124.047 277.564 123.12 278.773 122.396C280.132 121.683 281.64 121.3 283.175 121.278C284.709 121.257 286.228 121.598 287.606 122.273C288.844 122.997 289.459 123.873 289.474 124.8L288.648 151.081L288.692 154.397L290.212 178.289V178.325C290.212 179.23 289.611 180.157 288.417 180.867C287.057 181.58 285.547 181.963 284.011 181.985C282.476 182.006 280.956 181.665 279.577 180.99C278.353 180.266 277.731 179.382 277.716 178.463V178.333L277.709 178.325Z" fill="white"/>
<path opacity="0.1" d="M277.086 124.221C277.003 124.453 276.959 124.698 276.956 124.945V125.365L278.512 151.197L278.563 154.52L277.687 178.296V178.427C277.687 179.346 278.324 180.266 279.547 180.953C281.478 181.908 283.67 182.196 285.781 181.771L285.057 129.397C285.057 129.397 278.816 128.615 277.086 124.221Z" fill="black"/>
<path d="M278.751 122.397C277.542 123.121 276.941 124.047 276.956 124.974C276.97 125.901 277.593 126.813 278.824 127.501C280.202 128.176 281.72 128.517 283.255 128.496C284.79 128.474 286.298 128.091 287.657 127.378C288.873 126.654 289.467 125.72 289.452 124.8C289.438 123.881 288.815 122.961 287.591 122.273C286.212 121.598 284.692 121.258 283.157 121.279C281.621 121.301 280.112 121.683 278.751 122.397Z" fill="#FF7E31"/>
<path d="M277.702 178.738V178.325L278.578 154.549L278.527 151.226L276.978 125.394C277.426 129.426 283.276 130.36 283.276 130.36L284 184.132C284 184.132 277.759 183.125 277.702 178.738Z" fill="#FF7E31"/>
<path opacity="0.6" d="M277.702 178.738V178.325L278.578 154.549L278.527 151.226L276.978 125.394C277.426 129.426 283.276 130.36 283.276 130.36L284 184.132C284 184.132 277.759 183.125 277.702 178.738Z" fill="white"/>
<path opacity="0.25" d="M278.751 122.397C277.542 123.121 276.941 124.047 276.956 124.974C276.97 125.901 277.593 126.813 278.824 127.501C280.202 128.176 281.72 128.517 283.255 128.496C284.79 128.474 286.298 128.091 287.657 127.378C288.873 126.654 289.467 125.72 289.452 124.8C289.438 123.881 288.815 122.961 287.591 122.273C286.212 121.598 284.692 121.258 283.157 121.279C281.621 121.301 280.112 121.683 278.751 122.397Z" fill="white"/>
<path opacity="0.5" d="M284.739 124.974C287.244 123.258 284.015 121.259 280.272 121.73C279.739 121.888 279.229 122.112 278.751 122.396C277.542 123.12 276.941 124.047 276.956 124.974C276.97 125.9 277.593 126.813 278.824 127.5C280.67 128.415 282.76 128.717 284.79 128.362L284.739 124.974Z" fill="#FF7E31"/>
<path d="M285.629 123.714L285.687 128.174C285.393 128.258 285.093 128.321 284.789 128.362L284.739 124.974C284.969 124.84 285.168 124.658 285.321 124.441C285.475 124.223 285.58 123.975 285.629 123.714Z" fill="#FF7E31"/>
<path opacity="0.1" d="M285.629 123.714L285.687 128.174C285.393 128.258 285.093 128.321 284.789 128.362L284.739 124.974C284.969 124.84 285.168 124.658 285.321 124.441C285.475 124.223 285.58 123.975 285.629 123.714Z" fill="black"/>
<path d="M279.475 155.512C279.229 159.704 277.195 163.563 274.103 167.226C275.33 166.956 276.498 166.466 277.549 165.778C277.719 166.802 277.751 167.844 277.643 168.877C280.416 165.257 282.342 161.383 283.001 157.206L282.197 156.786L279.475 155.512Z" fill="#FF7E31"/>
<path opacity="0.2" d="M279.236 157.365L280.59 157.51L282.675 158.777C282.806 158.241 282.914 157.705 283.001 157.155L282.198 156.735L279.475 155.512C279.435 156.134 279.355 156.753 279.236 157.365Z" fill="black"/>
<path d="M278.584 154.549C278.637 154.988 278.803 155.406 279.068 155.76C279.332 156.115 279.685 156.393 280.09 156.569C281.203 157.114 282.429 157.388 283.668 157.371C284.907 157.353 286.125 157.044 287.222 156.468C287.62 156.283 287.963 155.997 288.217 155.639C288.471 155.281 288.627 154.863 288.67 154.426V154.39L288.626 151.081C288.593 151.525 288.441 151.952 288.186 152.318C287.931 152.683 287.583 152.974 287.178 153.159C286.081 153.735 284.864 154.044 283.625 154.062C282.386 154.08 281.16 153.805 280.047 153.26C279.636 153.085 279.28 152.803 279.014 152.444C278.748 152.085 278.582 151.662 278.534 151.219L278.584 154.527V154.549Z" fill="#FF7E31"/>
<path opacity="0.15" d="M282.864 154.064C282.132 154.021 281.411 153.865 280.728 153.601L280.771 156.909C281.466 157.177 282.199 157.333 282.943 157.373L282.864 154.064ZM280.091 156.598L280.047 153.289C279.734 153.118 279.447 152.903 279.193 152.652L279.244 155.961C279.497 156.202 279.782 156.406 280.091 156.569V156.598Z" fill="white"/>
<path opacity="0.1" d="M285.622 157.112C286.184 156.978 286.724 156.76 287.222 156.468C287.62 156.283 287.964 155.997 288.218 155.639C288.472 155.281 288.628 154.863 288.67 154.426V154.39L288.627 151.081C288.593 151.525 288.441 151.952 288.186 152.318C287.932 152.683 287.584 152.974 287.179 153.159C286.678 153.45 286.14 153.669 285.579 153.811L285.622 157.112Z" fill="black"/>
<path d="M292.21 143.349C291.148 142.762 290.024 142.296 288.858 141.959C287.437 141.684 285.971 141.736 284.572 142.111C283.645 142.611 282.711 143.11 281.618 143.798C280.525 144.486 281.618 145.543 282.639 145.623C284.174 145.746 286.643 144.681 287.555 144.942C289.15 145.51 290.699 146.2 292.189 147.006C292.732 147.382 294.983 145.268 292.21 143.349Z" fill="#C8856A"/>
<path d="M292.21 143.349C291.139 142.766 290.005 142.309 288.829 141.988C287.628 141.787 286.401 141.809 285.209 142.053C284.64 142.202 284.102 142.446 283.616 142.777C283.088 143.081 282.566 143.393 282.052 143.719C281.538 144.044 281.068 144.276 281.538 144.812C281.722 145.008 281.948 145.159 282.199 145.254C282.45 145.349 282.719 145.386 282.986 145.362C284.185 145.219 285.374 145.006 286.548 144.725C287.187 144.623 287.843 144.737 288.409 145.051C289.538 145.536 290.639 146.057 291.718 146.636C291.978 146.738 292.203 147.049 292.5 146.926C292.91 146.735 293.23 146.392 293.392 145.969C293.555 145.546 293.546 145.076 293.368 144.66C293.103 144.111 292.693 143.645 292.181 143.313L292.21 143.349ZM292.21 143.349C293.231 143.965 294.078 145.333 293.26 146.448C293.021 146.781 292.536 147.31 292.08 147.013C290.598 146.256 289.058 145.619 287.475 145.109C285.701 145.007 283.855 146.289 282.045 145.71C281.162 145.398 280.438 144.262 281.466 143.653C282.349 143.096 283.348 142.582 284.282 142.104C285.153 141.758 286.093 141.622 287.026 141.706C288.865 141.805 290.649 142.371 292.21 143.349Z" fill="#AF6152"/>
<path d="M289.061 156.237C290.038 155.925 290.69 154.89 289.843 154.427C289.237 154.115 288.608 153.851 287.96 153.637C287.96 153.637 286.867 154.47 286.078 154.977C285.727 155.25 285.304 155.413 284.861 155.446C284.418 155.48 283.975 155.382 283.587 155.165C283.405 155.024 283.284 154.819 283.249 154.591C283.214 154.363 283.268 154.131 283.399 153.941C283.231 153.977 283.058 153.975 282.891 153.938C282.723 153.9 282.566 153.828 282.429 153.724C282.031 153.37 281.886 153 282.617 151.806C282.617 151.806 284.42 148.779 285.557 148.765C286.693 148.75 289.901 149.12 289.901 149.12C289.901 149.12 287.968 148.041 287.244 147.773C286.52 147.505 284.225 147.824 283.218 147.99C282.212 148.157 280.127 148.157 279.598 147.404C279.07 146.651 279.598 146.332 280.518 145.956C281.437 145.579 282.031 145.297 282.501 145.159C282.972 145.022 286.476 144.24 286.969 144.247C288.213 144.497 289.427 144.88 290.589 145.391C292.377 146.064 293.231 146.629 293.224 147.867C293.018 149.518 292.574 151.13 291.906 152.653C291.211 154.253 291.942 155.636 289.061 156.237Z" fill="#C8856A"/>
<path d="M281.242 145.89C283.073 145.163 284.99 144.676 286.947 144.442C288.323 144.736 289.67 145.153 290.972 145.688C291.978 146.064 293.267 146.672 293.144 147.932C293.289 146.658 291.986 145.992 290.972 145.579C289.665 144.975 288.299 144.506 286.896 144.182C284.894 144.389 282.928 144.857 281.046 145.572C280.438 145.89 279.432 145.97 279.127 146.752C279.004 148.055 280.691 148.287 281.647 148.323C283.566 148.46 285.636 147.461 287.439 148.185C287.859 148.381 288.279 148.598 288.699 148.815C288.091 148.757 287.482 148.699 286.874 148.656C286.15 148.656 285.18 148.41 284.594 148.967C283.658 149.815 282.87 150.814 282.262 151.921C282.094 152.139 281.975 152.392 281.915 152.661C281.855 152.93 281.855 153.209 281.915 153.478C282.012 153.698 282.173 153.885 282.377 154.014C282.58 154.143 282.818 154.208 283.059 154.202C282.979 154.446 282.991 154.71 283.094 154.945C283.197 155.181 283.383 155.369 283.616 155.476C284.688 156.012 285.839 155.367 286.664 154.752C287.084 154.448 287.49 154.137 287.895 153.818C288.61 154.02 289.296 154.312 289.937 154.687C290.058 154.826 290.122 155.006 290.115 155.19C290.109 155.374 290.032 155.549 289.901 155.679C289.665 155.98 289.345 156.204 288.981 156.323C289.64 156.157 290.603 155.317 289.995 154.629C289.333 154.181 288.598 153.853 287.823 153.659C286.635 154.383 285.253 155.91 283.747 155.237C283.545 155.136 283.391 154.959 283.319 154.745C283.279 154.545 283.318 154.337 283.428 154.166C283.651 153.767 283.943 153.412 284.29 153.116L284.746 152.696C284.819 152.645 284.885 152.584 284.941 152.515C285.42 152.006 285.983 151.585 286.606 151.27C288.052 151.151 289.505 151.151 290.95 151.27C289.506 150.813 287.983 150.661 286.476 150.821C286.087 150.947 285.737 151.169 285.455 151.465C285.097 151.785 284.763 152.131 284.456 152.5C284.145 152.855 283.877 153.224 283.573 153.586C283.486 153.681 283.363 153.862 283.233 153.89C283.101 153.916 282.966 153.916 282.834 153.89C282.7 153.866 282.574 153.81 282.465 153.727C282.357 153.644 282.27 153.536 282.212 153.413C282.074 153.065 282.335 152.587 282.566 152.189C283.061 151.352 283.641 150.569 284.297 149.851C284.587 149.516 284.962 149.265 285.383 149.127C285.745 149.127 286.418 149.17 286.831 149.192C287.815 149.271 288.793 149.373 289.77 149.489C289.815 149.492 289.859 149.483 289.899 149.463C289.939 149.442 289.972 149.411 289.995 149.373C290.023 149.321 290.03 149.26 290.014 149.203C289.998 149.146 289.96 149.098 289.908 149.069C288.873 148.562 287.888 147.794 286.737 147.621C284.97 147.483 283.356 148.055 281.625 148.019C280.901 147.954 279.917 147.968 279.533 147.244C279.149 146.52 280.764 146.173 281.242 145.89Z" fill="#AF6152"/>
<path d="M204.295 138.997C201.145 139.649 191.581 143.486 187.954 145.513C187.954 145.513 183.762 154.281 185.883 174.582C186.224 177.832 187.093 186.593 187.491 193.355C187.883 198.862 187.847 204.39 187.382 209.891C187.382 209.891 195.918 217.363 218.174 215.683C235.644 214.365 240.9 207.191 240.9 207.191C240.9 207.191 240.821 183.617 240.364 170.737C239.771 153.81 234.645 144.043 230.873 141.089L219.405 139.178L204.295 138.997Z" fill="#F0F0F0"/>
<path d="M210.681 83.4961L180.823 111.341L207.9 124.091L238.627 100.742L210.681 83.4961Z" fill="#263238"/>
<path d="M199.285 102.465C197.537 102.979 196.009 104.059 194.941 105.535C193.326 107.917 192.211 112.347 193.92 117.43C195.795 123.019 199.712 128.5 200.509 130.078C201.061 131.057 201.972 131.784 203.05 132.105L202.869 125.314L202.615 120.579C202.615 120.579 206.438 117.111 206.764 113.716C207.184 109.372 205.475 106.852 205.475 106.852L199.285 102.465Z" fill="#263238"/>
<path d="M221.511 113.108C221.386 113.005 221.231 112.945 221.07 112.934C220.911 112.942 220.755 112.984 220.614 113.057C218.944 113.741 217.106 113.899 215.344 113.511C213.582 113.123 211.98 112.207 210.753 110.885C210.723 110.826 210.682 110.774 210.631 110.732C210.581 110.69 210.522 110.658 210.459 110.64C210.396 110.622 210.329 110.617 210.264 110.625C210.199 110.634 210.136 110.655 210.079 110.689C209.26 110.997 208.392 111.159 207.517 111.167C205.504 111.279 203.507 110.752 201.811 109.661C200.477 108.864 199.417 107.68 198.771 106.266C198.38 105.078 198.28 103.814 198.479 102.579C198.678 101.344 199.17 100.176 199.915 99.1706C200.682 98.1077 201.755 97.3044 202.992 96.8682C204.275 96.3853 205.594 96.0052 206.937 95.7316C209.397 95.1155 211.908 94.7206 214.438 94.5514C216.979 94.3821 219.523 94.8318 221.852 95.8619C223.944 96.8071 225.651 98.4395 226.688 100.488C227.173 101.524 227.484 102.581 227.904 103.645C228.129 104.231 228.389 104.811 228.628 105.375C228.846 106.009 229.169 106.601 229.584 107.127C230.497 107.949 231.053 109.095 231.133 110.32C231.814 115.511 224.581 115.649 221.685 113.267L221.511 113.108Z" fill="#263238"/>
<path d="M196.678 127.276C200.197 128.984 201.804 126.197 201.804 126.197L202.333 140.214C206.373 145.622 213.468 148.178 217.725 146.672C220.578 145.651 222.699 141.937 219.731 139.215V136.015C220.753 135.993 221.771 135.893 222.779 135.718C225.892 135.225 228.752 132.452 229.678 129.079C231.032 124.112 230.67 116.416 228.788 107.916C228.426 106.273 227.716 104.484 226.21 103.739C222.474 101.892 219.521 103.369 214.308 105.404C212.136 106.244 205.511 106.656 204.136 106.005C204.49 106.171 204.78 107.004 204.917 107.337C205.169 107.961 205.358 108.608 205.482 109.27C205.801 110.599 205.838 111.98 205.591 113.324C205.193 115.373 204.664 117.393 204.143 119.413C204.084 119.704 203.971 119.982 203.81 120.231C203.086 121.201 201.84 120.535 201.384 119.696C201.153 119.276 201.03 118.812 200.812 118.385C199.306 115.489 195.02 115.837 193.688 118.66C193.311 119.421 193.09 120.249 193.036 121.096C192.983 121.944 193.098 122.793 193.377 123.595C193.655 124.397 194.09 125.136 194.657 125.768C195.224 126.399 195.911 126.912 196.678 127.276Z" fill="#C8856A"/>
<path d="M219.716 136.044C215.625 136.044 211.998 135.515 209.58 134.502C207.162 133.488 205.026 130.216 204.331 126.979C204.331 129.586 205.468 134.219 209.131 136.124C212.795 138.028 217.045 138.151 219.723 138.209L219.716 136.044Z" fill="#AF6152"/>
<path d="M213.171 111.927L209.92 113.81C209.678 113.362 209.618 112.837 209.753 112.347C209.888 111.856 210.207 111.436 210.644 111.174C210.859 111.054 211.095 110.979 211.339 110.952C211.584 110.925 211.831 110.947 212.067 111.017C212.302 111.087 212.521 111.204 212.711 111.36C212.901 111.517 213.057 111.709 213.171 111.927Z" fill="#263238"/>
<path d="M227.912 113.115L224.4 111.725C224.479 111.492 224.605 111.277 224.769 111.094C224.934 110.911 225.134 110.763 225.358 110.66C225.582 110.557 225.824 110.501 226.07 110.495C226.316 110.489 226.561 110.533 226.79 110.624C227.261 110.815 227.641 111.181 227.85 111.645C228.059 112.109 228.081 112.635 227.912 113.115Z" fill="#263238"/>
<path d="M211.426 116.337C211.438 116.639 211.54 116.932 211.718 117.176C211.897 117.421 212.144 117.607 212.429 117.711C212.713 117.815 213.022 117.833 213.316 117.76C213.611 117.688 213.877 117.531 214.081 117.307C214.285 117.083 214.418 116.804 214.464 116.504C214.509 116.205 214.464 115.898 214.334 115.625C214.205 115.351 213.997 115.121 213.737 114.966C213.477 114.81 213.177 114.735 212.874 114.751C212.473 114.772 212.096 114.95 211.825 115.247C211.554 115.543 211.411 115.935 211.426 116.337Z" fill="#263238"/>
<path d="M223.792 115.815C223.801 116.119 223.901 116.413 224.077 116.659C224.254 116.906 224.5 117.095 224.785 117.201C225.069 117.307 225.379 117.326 225.674 117.256C225.969 117.185 226.237 117.028 226.443 116.805C226.648 116.582 226.783 116.302 226.829 116.002C226.875 115.702 226.831 115.395 226.702 115.121C226.573 114.846 226.365 114.616 226.105 114.46C225.844 114.304 225.544 114.229 225.24 114.244C225.037 114.234 224.833 114.269 224.645 114.346C224.456 114.423 224.286 114.541 224.148 114.69C224.01 114.84 223.907 115.019 223.845 115.213C223.784 115.408 223.766 115.613 223.792 115.815Z" fill="#263238"/>
<path d="M217.848 112.941L219.115 122.672L224.248 120.761C222.728 117.707 220.541 115.035 217.848 112.941Z" fill="#AF6152"/>
<path d="M215.459 124.329L221.722 126.038C221.628 126.456 221.451 126.851 221.201 127.2C220.951 127.548 220.633 127.842 220.267 128.065C219.901 128.288 219.493 128.435 219.069 128.497C218.645 128.56 218.212 128.536 217.798 128.427C216.955 128.177 216.241 127.611 215.805 126.848C215.37 126.084 215.246 125.182 215.459 124.329Z" fill="#AF6152"/>
<path d="M216.169 125.408C215.909 125.38 215.647 125.38 215.387 125.408C215.421 126.105 215.671 126.774 216.103 127.321C216.536 127.869 217.128 128.268 217.798 128.463C218.136 128.549 218.485 128.578 218.833 128.55C218.88 127.784 218.629 127.029 218.132 126.443C217.636 125.858 216.932 125.487 216.169 125.408Z" fill="#F28F8F"/>
<path d="M193.58 118.943C193.58 118.943 196.83 111.964 203.52 108.59C210.21 105.216 218.087 107.41 218.087 107.41C218.087 107.41 221.446 105.093 224.82 105.354C228.194 105.614 229.584 107.135 229.584 107.135L225.747 96.5642C225.747 96.5642 221.779 92.3505 211.426 93.8564C200.812 95.3985 193.565 100.785 190.814 107.895L193.58 118.943Z" fill="#37474F"/>
<path d="M238.627 100.741L238.265 98.7359L210.318 81.4902L210.68 83.4957L238.627 100.741Z" fill="#455A64"/>
<path opacity="0.2" d="M238.627 100.741L238.265 98.7359L210.318 81.4902L210.68 83.4957L238.627 100.741Z" fill="white"/>
<path d="M210.318 81.4902L210.68 83.4957L180.822 111.341L180.46 109.335L210.318 81.4902Z" fill="#37474F"/>
<path d="M189.04 99.3152C190.683 97.8523 192.61 96.7455 194.702 96.0645L192.219 98.3885C190.192 99.6016 188.445 101.23 187.093 103.167C186.345 104.215 185.696 105.33 185.152 106.497C184.935 106.953 184.74 107.417 184.559 107.887C183.871 109.61 183.418 111.416 183.212 113.259C183.067 114.493 183.067 115.74 183.212 116.974C183.371 118.284 183.791 119.508 184.066 120.789C184.146 121.187 183.502 121.252 183.342 120.999C182.509 119.652 182.049 118.108 182.01 116.525C181.892 115.062 181.955 113.591 182.198 112.144C182.336 111.27 182.527 110.404 182.77 109.553C183.119 108.311 183.569 107.1 184.117 105.933C185.293 103.416 186.968 101.165 189.04 99.3152Z" fill="#FF7E31"/>
<path d="M190.807 130.896C189.455 129.394 188.223 127.789 187.122 126.095C184.95 122.794 185.109 120.962 184.074 121.158C183.038 121.353 182.807 124.734 183.393 128.398C183.684 130.35 184.466 132.196 185.666 133.763C185.722 133.834 185.803 133.883 185.892 133.899C185.982 133.915 186.074 133.897 186.152 133.849C186.214 133.813 186.261 133.757 186.286 133.689C186.311 133.622 186.312 133.548 186.289 133.48C186.492 133.726 186.622 133.907 186.912 133.777C186.955 133.753 186.994 133.721 187.024 133.681C187.055 133.642 187.077 133.597 187.089 133.548C187.101 133.5 187.103 133.45 187.095 133.401C187.087 133.352 187.069 133.305 187.042 133.263C186.073 131.716 185.417 129.994 185.109 128.195C185.79 130.101 186.808 131.869 188.114 133.415C188.171 133.484 188.252 133.531 188.34 133.547C188.429 133.563 188.52 133.547 188.599 133.502C188.644 133.474 188.683 133.436 188.712 133.392C188.742 133.348 188.763 133.298 188.772 133.246C188.782 133.193 188.78 133.139 188.768 133.087C188.755 133.036 188.732 132.987 188.7 132.944C186.989 130.937 185.778 128.553 185.167 125.987C185.991 128.258 187.237 130.353 188.838 132.163C188.905 132.252 189.005 132.312 189.117 132.328C189.228 132.344 189.341 132.316 189.431 132.249C189.473 132.211 189.507 132.165 189.53 132.113C189.553 132.062 189.564 132.006 189.564 131.949C189.564 131.892 189.553 131.836 189.53 131.785C189.507 131.733 189.473 131.687 189.431 131.649C188.153 130.193 187.114 128.543 186.354 126.762C186.463 126.914 188.758 129.889 190.155 131.453C190.214 131.519 190.294 131.563 190.381 131.576C190.468 131.589 190.558 131.571 190.633 131.525H190.691C190.751 131.502 190.804 131.464 190.844 131.414C190.885 131.365 190.913 131.306 190.924 131.243C190.936 131.18 190.931 131.115 190.911 131.054C190.89 130.993 190.854 130.939 190.807 130.896ZM183.922 125.828C184.117 127.558 184.472 130.454 185.913 132.836C184.487 130.787 183.786 128.32 183.922 125.828Z" fill="#FF7E31"/>
<path d="M184.754 120.304C184.62 120.199 184.467 120.122 184.304 120.077C184.14 120.031 183.97 120.018 183.801 120.039C183.633 120.059 183.47 120.113 183.322 120.196C183.175 120.28 183.045 120.391 182.94 120.525C182.836 120.658 182.758 120.811 182.713 120.975C182.667 121.138 182.654 121.309 182.675 121.477C182.696 121.646 182.749 121.808 182.832 121.956C182.916 122.104 183.027 122.234 183.161 122.338C183.431 122.55 183.773 122.645 184.114 122.604C184.454 122.562 184.763 122.387 184.975 122.118C185.186 121.848 185.281 121.505 185.24 121.165C185.198 120.825 185.024 120.515 184.754 120.304Z" fill="#FF7E31"/>
<path opacity="0.2" d="M184.754 120.304C184.62 120.199 184.467 120.122 184.304 120.077C184.14 120.031 183.97 120.018 183.801 120.039C183.633 120.059 183.47 120.113 183.322 120.196C183.175 120.28 183.045 120.391 182.94 120.525C182.836 120.658 182.758 120.811 182.713 120.975C182.667 121.138 182.654 121.309 182.675 121.477C182.696 121.646 182.749 121.808 182.832 121.956C182.916 122.104 183.027 122.234 183.161 122.338C183.431 122.55 183.773 122.645 184.114 122.604C184.454 122.562 184.763 122.387 184.975 122.118C185.186 121.848 185.281 121.505 185.24 121.165C185.198 120.825 185.024 120.515 184.754 120.304Z" fill="black"/>
<path d="M219.368 148.895C219.368 148.895 221.461 146.839 221.736 144.667C221.96 142.878 218.934 142.538 218.934 142.538L217.276 145.593L219.368 148.895Z" fill="#263238"/>
<path d="M218.514 152.472C221.714 159.625 223.481 179.26 223.481 179.26L219.535 192.205L212.932 180.737C212.932 180.737 214.786 161.616 214.786 153.044L218.514 152.472Z" fill="#263238"/>
<path d="M217.276 145.594C216.341 146.141 215.268 146.408 214.185 146.361L212.78 149.257L214.75 153.015C214.75 153.015 217.537 153.196 218.493 152.443L219.347 148.866C219.347 148.866 218.283 146.296 217.276 145.594Z" fill="#37474F"/>
<path d="M214.206 146.361L208.451 143.399L205.75 146.426L212.845 149.322C213.272 148.955 213.614 148.501 213.849 147.99C214.084 147.479 214.206 146.923 214.206 146.361Z" fill="#263238"/>
<path d="M197.54 140.134C197.54 140.134 197.88 148.141 208.958 151.718C210.253 149.799 212.382 145.926 214.25 146.338C214.666 146.391 215.088 146.366 215.495 146.266C215.203 145.611 214.788 145.019 214.272 144.521C213.099 143.5 208.038 142.516 205.019 140.481C202 138.447 202.188 136.861 202.188 136.861L202.123 134.972C201.305 135.066 199.676 137.745 197.54 140.134Z" fill="#E0E0E0"/>
<path d="M216.27 146.099C216.605 145.982 216.93 145.837 217.24 145.665H217.284C218.732 144.89 221.063 147.178 222.352 149.401C223.597 147.692 224.429 143.276 223.879 140.763L221.62 137.433C221.151 136.789 220.477 136.325 219.709 136.115V139.735C219.516 140.827 219.061 141.855 218.384 142.733C217.544 143.623 216.704 144.181 216.27 146.099Z" fill="#E0E0E0"/>
<path d="M198.568 138.932C198.568 138.932 211.658 158.408 219.521 178.238C222.605 164.801 225.023 149.365 222.091 138.049C222.091 138.049 231.242 140.3 233.211 141.249C235.181 142.197 240.104 148.684 241.675 160.008C243.246 171.331 243.738 213.091 243.738 213.091C243.738 213.091 236.115 218.883 218.196 219.723C191.408 220.99 184.58 214.235 184.58 214.235C184.58 214.235 185.594 199.69 185.304 191.415C185.015 183.14 183.031 164.25 184.016 154.998C185 145.745 185.304 145.151 185.304 145.151L198.568 138.932Z" fill="#455A64"/>
<path d="M219.723 180.794L227.412 165.17L225.551 158.654C225.551 158.654 229.96 148.163 229.642 140.069C226.311 139.106 222.091 138.063 222.091 138.063C224.987 149.38 222.605 164.851 219.52 178.253C211.658 158.408 198.568 138.932 198.568 138.932L188.613 143.588L207.495 161.637L207.241 166.879L219.723 180.794Z" fill="#37474F"/>
<path d="M184.262 145.152C184.262 145.152 181.293 152.479 181.098 158.98C180.902 165.482 182.198 176.356 182.618 182.199C183.038 188.042 183.081 197.483 182.669 210.247C182.256 223.011 174.466 299.755 174.466 299.755C174.466 299.755 185.036 306.227 200.906 305.981C200.906 305.981 206.43 231.279 205.25 204.114C204.07 176.95 198.242 138.23 198.242 138.23L184.262 145.152Z" fill="#37474F"/>
<path d="M230.489 203.137C230.489 230.519 229.656 303.86 229.656 303.86C229.656 303.86 240.951 303.245 246.366 297.17C246.366 247.526 245.591 217.031 245.085 199.307C244.578 181.584 245.454 164.961 243.369 155.664C241.284 146.368 235.919 141.597 235.919 141.597L225.291 138.86C225.291 138.86 231.495 149.047 231.77 164.41C232.045 179.774 230.489 203.137 230.489 203.137Z" fill="#37474F"/>
<path d="M181.996 175.053L186.188 170.224L182.401 179.513L181.996 175.053Z" fill="#263238"/>
<path d="M174.053 226.103C172.96 224.836 171.541 223.7 171.121 222.013C170.999 221.58 170.98 221.126 171.064 220.685C171.148 220.244 171.334 219.828 171.606 219.471C171.744 219.344 171.853 219.188 171.925 219.015C171.961 218.863 171.961 218.704 171.925 218.552C171.79 217.915 171.855 217.253 172.113 216.655C172.238 216.411 172.414 216.196 172.629 216.025C172.843 215.854 173.092 215.731 173.358 215.663C173.079 214.712 173.117 213.695 173.467 212.767C173.88 211.688 175.031 210.856 175.733 212.101C176.065 212.716 176.332 213.364 176.529 214.034C177.051 215.692 177.775 217.43 177.898 219.16C178.021 220.89 177.898 226.11 175.06 226.263C174.828 226.291 174.213 226.284 174.053 226.103Z" fill="#AF6152"/>
<path d="M184.045 147.021C176.081 148.657 172.924 153.08 167.472 160.639C161.166 169.385 155.019 177.602 152.884 181.838C150.241 187.087 149.655 189.078 155.179 194.964C158.031 197.976 162.021 201.588 166.075 205.643C169.268 208.85 173.134 212.26 176.211 215.569C176.629 215.927 176.937 216.398 177.097 216.925C177.257 217.452 177.264 218.014 177.116 218.544C176.863 219.256 176.65 219.981 176.479 220.716C176.454 221.684 176.502 222.652 176.624 223.612C176.624 224.575 176.305 225.661 175.422 226.045C174.98 226.2 174.507 226.24 174.046 226.161C174.827 226.796 175.701 227.307 176.638 227.674C177.582 228.047 178.633 228.047 179.578 227.674C180.468 227.283 181.149 226.465 182.09 226.226C182.597 226.089 183.14 226.132 183.654 226.009C184.183 225.89 184.659 225.6 185.008 225.184C185.565 224.525 185.811 223.569 186.579 223.185C186.962 223.047 187.354 222.931 187.752 222.838C188.136 222.669 188.474 222.41 188.737 222.082C188.999 221.754 189.178 221.368 189.257 220.955C189.406 220.129 189.406 219.284 189.257 218.458C188.995 216.225 188.608 214.008 188.099 211.819C187.891 211.077 187.552 210.378 187.1 209.755C186.615 209.031 186.159 208.249 185.652 207.532C182.09 202.703 170.832 186.609 170.832 186.609L182.727 173.244C182.727 173.244 190.561 162.601 184.045 147.021Z" fill="#C8856A"/>
<path d="M174.054 226.103C175.885 227.551 178.629 228.673 180.57 226.827C181.045 226.418 181.607 226.121 182.213 225.958C183.437 225.857 184.617 225.69 185.203 224.51C185.465 223.928 185.859 223.415 186.354 223.012C186.962 222.642 187.607 222.722 188.041 222.382C188.494 222.045 188.825 221.57 188.982 221.028C189.468 218.204 188.439 214.968 187.947 212.144C187.585 210.371 186.275 209.017 185.37 207.482L183.27 204.506C179.201 198.714 174.756 192.336 170.81 186.529C174.98 192.162 179.534 198.504 183.625 204.238L185.739 207.207C186.687 208.756 188.07 210.204 188.418 212.043C188.765 213.882 189.142 215.663 189.366 217.444C189.62 218.667 189.62 219.928 189.366 221.151C189.179 221.786 188.784 222.339 188.244 222.722C187.665 223.12 186.962 223.048 186.528 223.33C186.079 223.697 185.718 224.16 185.471 224.684C185.158 225.252 184.663 225.698 184.066 225.951C183.474 226.118 182.864 226.215 182.249 226.241C181.062 226.472 180.251 227.624 179.035 227.87C177.167 228.29 175.415 227.211 174.01 226.096L174.054 226.103Z" fill="#AF6152"/>
<path d="M170.831 186.536C167.458 189.649 162.368 189.751 160.493 189.577C162.343 190.412 164.391 190.706 166.402 190.425C168.412 190.145 170.302 189.301 171.852 187.991L170.831 186.536Z" fill="#F28F8F"/>
<path d="M185.282 145.152C178.803 147.636 176.594 146.499 168.544 157.308C163.186 164.483 152.789 178.92 150.936 183.293C149.082 187.666 149.553 188.136 151.457 193.849C152.702 197.599 162.317 218.465 162.317 218.465C162.317 218.465 170.81 219.275 177.985 214.845C185.159 210.414 185.261 206.591 185.261 206.591L172.229 186.587C172.229 186.587 184.537 172.042 186.499 169.935C188.461 167.828 189.156 150.648 185.282 145.152Z" fill="#37474F"/>
<path d="M172.258 186.536C169.05 189.686 163.07 189.975 160.116 189.316C163.584 191.322 169.738 191.351 173.488 188.433L172.258 186.536Z" fill="#263238"/>
<path d="M202.108 134.292C201.688 138.701 203.245 151.038 204.331 160.168C205.417 169.297 205.243 204.115 205.243 204.115C203.498 191.864 198.727 180.331 193.92 175.212C183.429 164.034 174.654 165.41 168.58 156.635C174.495 148.461 175.298 147.382 179.852 145.152C184.985 142.632 188.54 141.221 194.115 138.998C199.487 136.848 202.108 134.292 202.108 134.292Z" fill="#263238"/>
<path d="M219.716 136.044C222.587 139.015 224.856 142.514 226.398 146.346C230.301 156.707 230.388 193.406 230.489 203.137C233.03 188.541 233.247 177.341 238.395 169.978C243.543 162.615 249.385 157.46 250.819 152.218C248.279 149.557 245.563 147.071 242.688 144.775C237.222 140.243 233.363 139.106 229.656 138.209C225.949 137.311 219.716 136.044 219.716 136.044Z" fill="#263238"/>
<path d="M186.188 142.068L219.151 171.137L236.781 140.729C234.596 139.421 232.175 138.558 229.656 138.188L217.884 160.023L193.514 139.15L186.188 142.068Z" fill="#FF7E31"/>
<path opacity="0.3" d="M218.195 162.158L192.284 139.635L187.483 141.546L219.014 168.826L235.666 140.134C234.222 139.411 232.699 138.862 231.126 138.498L218.195 162.158Z" fill="white"/>
<path d="M225.395 177.237C226.205 173.805 224.079 170.366 220.647 169.556C217.214 168.745 213.775 170.871 212.965 174.304C212.155 177.736 214.281 181.175 217.713 181.985C221.145 182.796 224.585 180.67 225.395 177.237Z" fill="#E0E0E0"/>
<g opacity="0.1">
<path d="M219.187 181.323C218.09 181.323 217.018 180.998 216.106 180.388C215.193 179.778 214.483 178.912 214.063 177.898C213.644 176.884 213.534 175.769 213.749 174.693C213.963 173.617 214.492 172.629 215.269 171.853C216.045 171.078 217.034 170.55 218.11 170.337C219.186 170.124 220.302 170.235 221.315 170.656C222.328 171.077 223.194 171.788 223.802 172.701C224.411 173.614 224.735 174.687 224.733 175.785C224.729 177.254 224.144 178.661 223.104 179.699C222.065 180.737 220.656 181.321 219.187 181.323ZM219.187 170.934C218.229 170.932 217.292 171.215 216.495 171.746C215.697 172.278 215.075 173.034 214.707 173.919C214.34 174.804 214.243 175.778 214.429 176.718C214.615 177.658 215.076 178.522 215.753 179.2C216.43 179.878 217.293 180.34 218.233 180.527C219.172 180.715 220.147 180.619 221.032 180.253C221.918 179.886 222.674 179.266 223.207 178.469C223.74 177.672 224.024 176.736 224.024 175.777C224.024 174.494 223.514 173.263 222.608 172.355C221.701 171.447 220.471 170.936 219.187 170.934Z" fill="black"/>
</g>
<path d="M259.08 211.26C259.08 213.432 259.029 215.495 255.909 215.98C259.203 215.937 258.957 218.015 259.116 220.614C259.203 218.015 259.427 216.147 262.012 216.024C259.34 215.56 259.413 214.33 259.08 211.26Z" fill="#E0E0E0"/>
<path d="M142.385 206.547C142.385 209.255 142.32 211.861 138.411 212.469C142.537 212.419 142.226 215.018 142.429 218.261C142.537 214.996 142.827 212.657 146.049 212.505C142.704 211.984 142.805 210.428 142.385 206.547Z" fill="#E0E0E0"/>
<path d="M253.708 122.556C253.751 126.436 253.614 130.165 248.01 131.041C253.932 130.961 253.483 134.661 253.802 139.367C253.961 134.69 254.366 131.338 258.986 131.113C254.2 130.324 254.309 128.116 253.708 122.556Z" fill="#E0E0E0"/>
<path d="M305.01 184.226C305.054 188.57 304.902 192.682 298.683 193.638C305.257 193.551 304.757 197.692 305.076 202.883C305.257 197.692 305.713 193.971 310.868 193.724C305.532 192.856 305.676 190.401 305.01 184.226Z" fill="#E0E0E0"/>
<path d="M129.187 158.408C129.187 161.536 129.107 164.54 124.597 165.243C129.361 165.178 128.999 168.189 129.238 171.947C129.361 168.189 129.694 165.482 133.408 165.308C129.563 164.664 129.672 162.883 129.187 158.408Z" fill="#E0E0E0"/>
<path d="M153.832 123.548C153.499 130.238 153.108 133.532 146.505 134.408C152.869 134.77 153.463 139.078 153.832 145.058C154.034 139.078 154.599 134.792 160.493 134.509C154.396 133.481 154.129 130.31 153.832 123.548Z" fill="#E0E0E0"/>
<path d="M323.878 168.109C323.878 170.513 323.82 173.127 320.345 173.662C324.015 173.612 323.74 175.639 323.921 178.542C324.015 175.646 324.269 173.561 327.136 173.424C324.175 172.931 324.254 171.556 323.878 168.109Z" fill="#E0E0E0"/>
<path d="M307.972 131.454C307.972 133.865 307.914 136.471 304.438 137.007C308.109 136.964 307.834 138.984 308.008 141.887C308.109 138.991 308.363 136.906 311.23 136.768C308.268 136.276 308.348 134.908 307.972 131.454Z" fill="#E0E0E0"/>
<path d="M126.667 127.957C126.508 131.512 126.508 133.068 123.047 133.322C126.494 133.488 126.472 135.602 126.667 138.549C126.769 135.602 126.906 133.604 129.954 133.322C126.95 133.134 126.848 131.548 126.667 127.957Z" fill="#E0E0E0"/>
</svg>
