<svg width="24" height="25" viewBox="0 0 24 25" fill="none" xmlns="http://www.w3.org/2000/svg">
<g id="solar:star-bold-duotone">
<path id="Vector" d="M18.4832 17.3081C17.1164 17.6363 15.6895 17.6204 14.3303 17.2618C12.9712 16.9032 11.7221 16.2131 10.6951 15.2534C9.66804 14.2936 8.89506 13.0941 8.44535 11.7623C7.99564 10.4305 7.88325 9.00797 8.11824 7.62207C8.0825 7.65659 8.04477 7.68898 8.00524 7.71907C7.72523 7.93207 7.37524 8.01107 6.67524 8.16907L6.04024 8.31307C3.58024 8.87007 2.35024 9.14807 2.05723 10.0891C1.76523 11.0291 2.60324 12.0101 4.28024 13.9711L4.71424 14.4781C5.19024 15.0351 5.42923 15.3141 5.53623 15.6581C5.64323 16.0031 5.60723 16.3751 5.53523 17.1181L5.46923 17.7951C5.21623 20.4121 5.08924 21.7201 5.85524 22.3011C6.62123 22.8831 7.77323 22.3531 10.0752 21.2921L10.6722 21.0181C11.3262 20.7161 11.6532 20.5661 12.0002 20.5661C12.3472 20.5661 12.6742 20.7161 13.3292 21.0181L13.9242 21.2921C16.2272 22.3521 17.3792 22.8821 18.1442 22.3021C18.9112 21.7201 18.7842 20.4121 18.5312 17.7951L18.4832 17.3081Z" fill="#FF7E31"/>
<path id="Vector_2" opacity="0.5" d="M9.15319 5.94902L8.82519 6.53702C8.46519 7.18302 8.28519 7.50602 8.00519 7.71902C8.04519 7.68902 8.08219 7.65702 8.11819 7.62202C7.88314 9.00802 7.99553 10.4307 8.44528 11.7626C8.89504 13.0945 9.66812 14.2941 10.6953 15.2539C11.7225 16.2136 12.9716 16.9037 14.331 17.2622C15.6903 17.6207 17.1173 17.6364 18.4842 17.308L18.4642 17.118C18.3932 16.375 18.3572 16.003 18.4642 15.658C18.5712 15.314 18.8092 15.035 19.2862 14.478L19.7202 13.971C21.3972 12.011 22.2352 11.03 21.9422 10.089C21.6502 9.14802 20.4202 8.86902 17.9602 8.31302L17.3242 8.16902C16.6252 8.01102 16.2752 7.93202 15.9942 7.71902C15.7142 7.50602 15.5342 7.18302 15.1742 6.53702L14.8472 5.94902C13.5802 3.67702 12.9472 2.54102 12.0002 2.54102C11.0532 2.54102 10.4202 3.67702 9.15319 5.94902Z" fill="#FF7E31"/>
</g>
</svg>
