<svg width="29" height="29" viewBox="0 0 29 29" fill="none" xmlns="http://www.w3.org/2000/svg">
<g id="Icon / Dribble">
<path id="Vector" fill-rule="evenodd" clip-rule="evenodd" d="M14.5 4.1416C8.70336 4.1416 4 8.84496 4 14.6416C4 20.4383 8.70336 25.1416 14.5 25.1416C20.2853 25.1416 25 20.4383 25 14.6416C25 8.84496 20.2853 4.1416 14.5 4.1416ZM21.4355 8.98162C22.6881 10.5077 23.4398 12.455 23.4626 14.5619C23.1665 14.505 20.2055 13.9014 17.2218 14.2771C17.1535 14.1291 17.0965 13.9697 17.0282 13.8102C16.8459 13.3775 16.6411 12.9334 16.436 12.512C19.7386 11.1682 21.2418 9.23216 21.4355 8.98162ZM14.5 5.69041C16.7777 5.69041 18.8617 6.54454 20.4447 7.9453C20.2853 8.17305 18.9301 9.98379 15.7413 11.1796C14.2723 8.48054 12.6437 6.27121 12.3932 5.92956C13.065 5.77013 13.7712 5.69041 14.5 5.69041ZM10.685 6.53314C10.9241 6.85201 12.5184 9.07273 14.0104 11.7148C9.81942 12.8309 6.11822 12.8081 5.71963 12.8081C6.30043 10.0293 8.1795 7.71752 10.685 6.53314ZM5.52604 14.653C5.52604 14.5619 5.52604 14.4708 5.52604 14.3797C5.91323 14.391 10.2636 14.4481 14.7392 13.1042C15.0011 13.6053 15.2403 14.1178 15.468 14.6302C15.3541 14.6644 15.2288 14.6985 15.1149 14.7327C10.4913 16.2245 8.03145 20.3016 7.82647 20.6432C6.40292 19.0602 5.52604 16.9535 5.52604 14.653ZM14.5 23.6156C12.4273 23.6156 10.5141 22.9095 8.99946 21.7251C9.1589 21.3949 10.981 17.8873 16.0374 16.1221C16.0602 16.1107 16.0716 16.1107 16.0944 16.0994C17.3584 19.3678 17.871 22.1122 18.0076 22.8981C16.9257 23.365 15.7413 23.6156 14.5 23.6156ZM19.4994 22.0782C19.4084 21.5315 18.9301 18.9122 17.757 15.6893C20.5699 15.2451 23.0298 15.9741 23.3374 16.0766C22.9502 18.5706 21.5152 20.723 19.4994 22.0782Z" fill="#1D3149"/>
</g>
</svg>
