<svg width="29" height="29" viewBox="0 0 29 29" fill="none" xmlns="http://www.w3.org/2000/svg">
<g id="Icon / LinkedIn">
<path id="Vector" fill-rule="evenodd" clip-rule="evenodd" d="M5.75 4.4248C4.7835 4.4248 4 5.2083 4 6.1748V23.6748C4 24.6413 4.7835 25.4248 5.75 25.4248H23.25C24.2165 25.4248 25 24.6413 25 23.6748V6.1748C25 5.2083 24.2165 4.4248 23.25 4.4248H5.75ZM10.4409 9.09464C10.4475 10.2103 9.61238 10.8977 8.62143 10.8928C7.68791 10.8878 6.87417 10.1446 6.87909 9.09629C6.88401 8.11027 7.66331 7.31785 8.67558 7.34082C9.70261 7.36379 10.4475 8.11684 10.4409 9.09464ZM14.8263 12.3135H11.8863H11.8847V22.3H14.992V22.067C14.992 21.6238 14.9916 21.1805 14.9913 20.737C14.9903 19.5543 14.9893 18.3702 14.9954 17.1878C14.997 16.9007 15.0101 16.6021 15.0839 16.3281C15.3611 15.3043 16.2816 14.6432 17.3086 14.8057C17.9682 14.9089 18.4045 15.2913 18.5882 15.9131C18.7015 16.3018 18.7524 16.7202 18.7573 17.1255C18.7706 18.3477 18.7687 19.5699 18.7668 20.7922C18.7661 21.2236 18.7654 21.6553 18.7654 22.0867V22.2984H21.8827V22.0589C21.8827 21.5315 21.8824 21.0043 21.8821 20.4771C21.8815 19.1593 21.8808 17.8416 21.8843 16.5234C21.8859 15.9278 21.822 15.3405 21.6759 14.7646C21.4578 13.9082 21.0066 13.1994 20.2732 12.6876C19.7531 12.3234 19.1822 12.0888 18.544 12.0625C18.4713 12.0595 18.3981 12.0555 18.3244 12.0515C17.9981 12.0339 17.6664 12.016 17.3545 12.0789C16.462 12.2577 15.6779 12.6663 15.0855 13.3864C15.0167 13.469 14.9494 13.5529 14.8489 13.6781L14.8263 13.7065V12.3135ZM7.12858 22.3033H10.2212V12.32H7.12858V22.3033Z" fill="#1D3149"/>
</g>
</svg>
