<svg width="120" height="41" viewBox="0 0 120 41" fill="none" xmlns="http://www.w3.org/2000/svg">
<g id="App Store - Filled">
<g id="Group">
<g id="Group_2">
<path id="Vector" d="M110.471 0.779793H9.87062C9.50392 0.779793 9.14162 0.779793 8.77589 0.781793C8.46974 0.783793 8.16603 0.789603 7.85694 0.794493C7.18545 0.802395 6.51554 0.861469 5.85304 0.971203C5.19146 1.08333 4.55061 1.29471 3.95216 1.5982C3.35444 1.90426 2.80828 2.30196 2.33351 2.77686C1.85624 3.25043 1.4584 3.79781 1.15529 4.39795C0.851338 4.9969 0.640578 5.63873 0.530288 6.30127C0.418948 6.96298 0.359036 7.63231 0.351088 8.30327C0.341808 8.60987 0.340827 8.91749 0.335938 9.22413V32.3384C0.340827 32.6489 0.341808 32.9497 0.351088 33.2603C0.359038 33.9312 0.418951 34.6005 0.530288 35.2622C0.640273 35.9251 0.851046 36.5673 1.15529 37.1665C1.45826 37.7647 1.85616 38.3099 2.33351 38.7808C2.80648 39.2578 3.35299 39.6558 3.95216 39.9595C4.55061 40.2638 5.19139 40.4764 5.85304 40.5903C6.51566 40.6992 7.18549 40.7582 7.85694 40.7671C8.16603 40.7739 8.46974 40.7778 8.77589 40.7778C9.14161 40.7798 9.50394 40.7798 9.87062 40.7798H110.471C110.83 40.7798 111.195 40.7798 111.555 40.7778C111.859 40.7778 112.172 40.7739 112.477 40.7671C113.147 40.7587 113.815 40.6996 114.477 40.5903C115.14 40.4756 115.783 40.2631 116.385 39.9595C116.983 39.6556 117.529 39.2576 118.002 38.7808C118.478 38.308 118.877 37.7632 119.184 37.1665C119.486 36.5669 119.694 35.9247 119.803 35.2622C119.914 34.6004 119.976 33.9313 119.988 33.2603C119.992 32.9497 119.992 32.6489 119.992 32.3384C120 31.9751 120 31.6138 120 31.2446V10.3159C120 9.94971 120 9.58643 119.992 9.22413C119.992 8.91749 119.992 8.60987 119.988 8.30323C119.976 7.63222 119.914 6.96303 119.803 6.30123C119.694 5.63907 119.485 4.9973 119.184 4.39791C118.566 3.19499 117.588 2.21582 116.385 1.59811C115.783 1.29536 115.14 1.08403 114.477 0.971113C113.815 0.860896 113.147 0.801801 112.477 0.794353C112.172 0.789473 111.859 0.783613 111.555 0.781663C111.195 0.779663 110.83 0.779663 110.471 0.779663V0.779793Z" fill="#A6A6A6"/>
<path id="Vector_2" d="M8.7808 39.9048C8.47612 39.9048 8.1788 39.9009 7.87651 39.8941C7.2503 39.8859 6.62554 39.8314 6.00737 39.731C5.43096 39.6317 4.87258 39.4471 4.35063 39.1831C3.83348 38.9213 3.36179 38.5781 2.95363 38.1665C2.53957 37.7598 2.19485 37.288 1.93312 36.77C1.66851 36.2486 1.48539 35.6897 1.39012 35.1128C1.28725 34.4929 1.23159 33.8661 1.22362 33.2378C1.21728 33.0269 1.20898 32.3247 1.20898 32.3247V9.22412C1.20898 9.22412 1.21782 8.53271 1.22367 8.32959C1.2313 7.70227 1.28664 7.07644 1.3892 6.45752C1.48464 5.87904 1.66791 5.31853 1.93266 4.79541C2.19343 4.27773 2.53624 3.80565 2.9478 3.39747C3.35891 2.98541 3.83211 2.64039 4.35014 2.375C4.87089 2.11188 5.42822 1.92852 6.00346 1.83106C6.62366 1.72962 7.25059 1.67478 7.87897 1.667L8.78129 1.65479H111.55L112.463 1.66749C113.086 1.67488 113.707 1.72924 114.321 1.83008C114.902 1.92876 115.466 2.1134 115.992 2.37793C117.03 2.91277 117.875 3.75895 118.407 4.79786C118.668 5.31736 118.848 5.87329 118.942 6.44677C119.046 7.07078 119.104 7.70152 119.116 8.33399C119.119 8.61719 119.119 8.92138 119.119 9.22412C119.127 9.59912 119.127 9.95605 119.127 10.3159V31.2446C119.127 31.6079 119.127 31.9624 119.119 32.3198C119.119 32.645 119.119 32.9429 119.115 33.2495C119.104 33.8707 119.046 34.4902 118.944 35.103C118.851 35.684 118.669 36.2473 118.404 36.773C118.141 37.2854 117.798 37.7531 117.389 38.1587C116.98 38.5725 116.508 38.9177 115.989 39.1812C115.464 39.4472 114.902 39.6325 114.321 39.731C113.703 39.8319 113.078 39.8865 112.452 39.8941C112.159 39.9009 111.853 39.9048 111.555 39.9048L110.471 39.9068L8.7808 39.9048Z" fill="black"/>
</g>
<g id="&#60;Group&#62;">
<g id="&#60;Group&#62;_2">
<g id="&#60;Group&#62;_3">
<path id="&#60;Path&#62;" d="M25.1049 21.0809C25.1157 20.2462 25.3374 19.4279 25.7494 18.7019C26.1614 17.976 26.7504 17.366 27.4615 16.9288C27.0098 16.2837 26.4138 15.7527 25.721 15.3782C25.0282 15.0036 24.2575 14.7958 23.4703 14.7712C21.7911 14.5949 20.1631 15.776 19.3074 15.776C18.4352 15.776 17.1177 14.7887 15.6989 14.8179C14.7813 14.8475 13.8869 15.1144 13.103 15.5924C12.3192 16.0705 11.6725 16.7434 11.226 17.5457C9.29201 20.8941 10.7346 25.8152 12.5872 28.5218C13.5141 29.8472 14.5974 31.3276 16.0148 31.2751C17.4019 31.2176 17.9199 30.3906 19.5942 30.3906C21.253 30.3906 21.739 31.2751 23.1852 31.2417C24.6736 31.2176 25.6114 29.9105 26.5058 28.5726C27.1717 27.6282 27.6842 26.5845 28.0242 25.4801C27.1595 25.1143 26.4215 24.5022 25.9024 23.7199C25.3833 22.9376 25.1059 22.0198 25.1049 21.0809Z" fill="#F0FDFA"/>
<path id="&#60;Path&#62;_2" d="M22.3735 12.9911C23.185 12.0169 23.5848 10.7647 23.488 9.50049C22.2482 9.63071 21.1029 10.2233 20.2804 11.1601C19.8783 11.6178 19.5703 12.1502 19.3741 12.727C19.1778 13.3037 19.0972 13.9135 19.1367 14.5215C19.7569 14.5279 20.3704 14.3935 20.931 14.1284C21.4917 13.8633 21.9849 13.4744 22.3735 12.9911Z" fill="#F0FDFA"/>
</g>
</g>
<g id="Group_3">
<path id="Vector_3" d="M42.6382 27.9195H37.9048L36.7681 31.2759H34.7632L39.2466 18.8579H41.3296L45.813 31.2759H43.7739L42.6382 27.9195ZM38.395 26.3706H42.147L40.2974 20.9234H40.2456L38.395 26.3706Z" fill="#F0FDFA"/>
<path id="Vector_4" d="M55.4956 26.7492C55.4956 29.5627 53.9898 31.3703 51.7173 31.3703C51.1417 31.4004 50.5692 31.2678 50.0654 30.9877C49.5616 30.7076 49.1469 30.2912 48.8687 29.7863H48.8257V34.2707H46.9673V22.2219H48.7661V23.7277H48.8003C49.0913 23.2253 49.513 22.8111 50.0206 22.5292C50.5283 22.2474 51.1028 22.1084 51.6831 22.1272C53.9809 22.1272 55.4956 23.9436 55.4956 26.7492ZM53.5855 26.7492C53.5855 24.9162 52.6382 23.7111 51.1929 23.7111C49.773 23.7111 48.8179 24.9416 48.8179 26.7492C48.8179 28.5735 49.773 29.7951 51.1929 29.7951C52.6382 29.7951 53.5855 28.5988 53.5855 26.7492Z" fill="#F0FDFA"/>
<path id="Vector_5" d="M65.4605 26.7492C65.4605 29.5627 63.9546 31.3703 61.6822 31.3703C61.1065 31.4004 60.534 31.2678 60.0302 30.9877C59.5264 30.7076 59.1117 30.2912 58.8335 29.7863H58.7905V34.2707H56.9321V22.2219H58.7309V23.7277H58.7651C59.0561 23.2253 59.4778 22.8111 59.9854 22.5292C60.4931 22.2474 61.0676 22.1084 61.6479 22.1272C63.9458 22.1272 65.4605 23.9436 65.4605 26.7492ZM63.5503 26.7492C63.5503 24.9162 62.603 23.7111 61.1577 23.7111C59.7378 23.7111 58.7827 24.9416 58.7827 26.7492C58.7827 28.5734 59.7378 29.7951 61.1577 29.7951C62.6031 29.7951 63.5503 28.5988 63.5503 26.7492H63.5503Z" fill="#F0FDFA"/>
<path id="Vector_6" d="M72.0464 27.816C72.1841 29.0474 73.3804 29.856 75.0152 29.856C76.5816 29.856 77.7085 29.0474 77.7085 27.937C77.7085 26.9731 77.0288 26.396 75.4195 26.0005L73.8101 25.6128C71.5298 25.062 70.4712 23.9956 70.4712 22.2651C70.4712 20.1226 72.3384 18.6509 74.9898 18.6509C77.6138 18.6509 79.4126 20.1226 79.4732 22.2651H77.5972C77.4849 21.0259 76.4605 20.2778 74.9634 20.2778C73.4663 20.2778 72.4419 21.0347 72.4419 22.1362C72.4419 23.0142 73.0962 23.5308 74.6968 23.9262L76.0649 24.2622C78.6128 24.8647 79.6714 25.8882 79.6714 27.7046C79.6714 30.0278 77.8208 31.4829 74.8774 31.4829C72.1235 31.4829 70.2642 30.062 70.144 27.8159L72.0464 27.816Z" fill="#F0FDFA"/>
<path id="Vector_7" d="M83.6821 20.0797V22.2222H85.4038V23.6939H83.6821V28.6851C83.6821 29.4605 84.0269 29.8218 84.7837 29.8218C84.9881 29.8183 85.1921 29.8039 85.395 29.7788V31.2417C85.0547 31.3053 84.7089 31.3341 84.3628 31.3277C82.5298 31.3277 81.8149 30.6392 81.8149 28.8833V23.6939H80.4985V22.2222H81.8149V20.0797H83.6821Z" fill="#F0FDFA"/>
<path id="Vector_8" d="M86.4009 26.7496C86.4009 23.9009 88.0786 22.1109 90.6948 22.1109C93.3198 22.1109 94.9897 23.9009 94.9897 26.7496C94.9897 29.606 93.3286 31.3882 90.6948 31.3882C88.062 31.3882 86.4009 29.606 86.4009 26.7496ZM93.0962 26.7496C93.0962 24.7955 92.2007 23.6422 90.6948 23.6422C89.189 23.6422 88.2944 24.8043 88.2944 26.7496C88.2944 28.7115 89.189 29.856 90.6948 29.856C92.2007 29.856 93.0961 28.7115 93.0961 26.7496H93.0962Z" fill="#F0FDFA"/>
<path id="Vector_9" d="M96.522 22.2218H98.2944V23.7628H98.3374C98.4574 23.2815 98.7393 22.8562 99.1359 22.5583C99.5325 22.2604 100.02 22.1081 100.515 22.1271C100.729 22.1263 100.943 22.1496 101.152 22.1964V23.9347C100.882 23.8521 100.599 23.8141 100.317 23.8224C100.047 23.8114 99.7778 23.859 99.5279 23.9619C99.2781 24.0648 99.0535 24.2205 98.8695 24.4184C98.6855 24.6163 98.5465 24.8517 98.4621 25.1083C98.3777 25.365 98.3498 25.6369 98.3804 25.9054V31.2755H96.522L96.522 22.2218Z" fill="#F0FDFA"/>
<path id="Vector_10" d="M109.72 28.6168C109.47 30.2603 107.87 31.3882 105.822 31.3882C103.188 31.3882 101.553 29.6236 101.553 26.7925C101.553 23.9527 103.197 22.1109 105.744 22.1109C108.249 22.1109 109.824 23.8316 109.824 26.5767V27.2134H103.429V27.3257C103.4 27.6589 103.441 27.9946 103.552 28.3104C103.662 28.6263 103.838 28.9151 104.068 29.1576C104.299 29.4002 104.578 29.5909 104.888 29.7172C105.197 29.8435 105.53 29.9025 105.865 29.8902C106.304 29.9313 106.745 29.8296 107.121 29.6002C107.498 29.3707 107.791 29.0258 107.956 28.6168L109.72 28.6168ZM103.438 25.9146H107.964C107.981 25.615 107.936 25.3152 107.831 25.034C107.726 24.7528 107.565 24.4962 107.356 24.2805C107.148 24.0647 106.897 23.8944 106.619 23.7802C106.342 23.6659 106.044 23.6103 105.744 23.6168C105.441 23.615 105.141 23.6731 104.861 23.7878C104.581 23.9026 104.326 24.0717 104.112 24.2853C103.898 24.4989 103.728 24.7529 103.612 25.0325C103.496 25.3122 103.437 25.612 103.438 25.9146V25.9146Z" fill="#F0FDFA"/>
</g>
</g>
</g>
<g id="&#60;Group&#62;_4">
<g id="Group_4">
<path id="Vector_11" d="M38.1621 9.51031C38.5517 9.48235 38.9427 9.54121 39.3068 9.68264C39.6709 9.82408 39.9991 10.0446 40.2677 10.3282C40.5363 10.6118 40.7386 10.9515 40.86 11.3228C40.9814 11.694 41.0188 12.0876 40.9697 12.4752C40.9697 14.3814 39.9395 15.4772 38.1621 15.4772H36.0068V9.51031H38.1621ZM36.9336 14.6333H38.0586C38.337 14.65 38.6156 14.6043 38.8741 14.4997C39.1327 14.3951 39.3646 14.2341 39.5531 14.0286C39.7416 13.823 39.8819 13.578 39.9638 13.3114C40.0456 13.0448 40.067 12.7632 40.0264 12.4873C40.0641 12.2125 40.0405 11.9327 39.9574 11.668C39.8743 11.4034 39.7336 11.1604 39.5456 10.9564C39.3575 10.7525 39.1267 10.5927 38.8696 10.4885C38.6125 10.3842 38.3356 10.3381 38.0586 10.3535H36.9336V14.6333Z" fill="#F0FDFA"/>
<path id="Vector_12" d="M42.0164 13.2236C41.9881 12.9277 42.0219 12.6292 42.1158 12.3471C42.2096 12.065 42.3614 11.8057 42.5613 11.5857C42.7613 11.3657 43.005 11.1899 43.2768 11.0697C43.5487 10.9494 43.8427 10.8873 44.1399 10.8873C44.4372 10.8873 44.7312 10.9494 45.003 11.0697C45.2749 11.1899 45.5186 11.3657 45.7185 11.5857C45.9185 11.8057 46.0702 12.065 46.1641 12.3471C46.2579 12.6292 46.2918 12.9277 46.2635 13.2236C46.2923 13.5199 46.2589 13.8188 46.1653 14.1014C46.0717 14.3839 45.92 14.6437 45.72 14.8641C45.52 15.0845 45.2761 15.2607 45.004 15.3812C44.7319 15.5017 44.4376 15.564 44.1399 15.564C43.8423 15.564 43.548 15.5017 43.2758 15.3812C43.0037 15.2607 42.7598 15.0845 42.5598 14.8641C42.3598 14.6437 42.2082 14.3839 42.1146 14.1014C42.021 13.8188 41.9875 13.5199 42.0164 13.2236ZM45.3494 13.2236C45.3494 12.2476 44.9109 11.6768 44.1414 11.6768C43.3689 11.6768 42.9344 12.2476 42.9344 13.2237C42.9344 14.2075 43.369 14.7739 44.1414 14.7739C44.9109 14.7739 45.3494 14.2036 45.3494 13.2236H45.3494Z" fill="#F0FDFA"/>
<path id="Vector_13" d="M51.9092 15.4771H50.9873L50.0566 12.1606H49.9863L49.0596 15.4771H48.1465L46.9053 10.9741H47.8066L48.6133 14.4101H48.6797L49.6055 10.9741H50.458L51.3838 14.4101H51.4541L52.2568 10.9741H53.1455L51.9092 15.4771Z" fill="#F0FDFA"/>
<path id="Vector_14" d="M54.1895 10.9737H55.0449V11.689H55.1113C55.224 11.4321 55.414 11.2167 55.6549 11.0729C55.8957 10.9291 56.1755 10.864 56.4551 10.8868C56.6742 10.8703 56.8942 10.9033 57.0988 10.9834C57.3034 11.0635 57.4873 11.1886 57.637 11.3495C57.7867 11.5103 57.8983 11.7028 57.9635 11.9126C58.0287 12.1224 58.0458 12.3442 58.0137 12.5616V15.4766H57.125V12.7847C57.125 12.0611 56.8106 11.7012 56.1533 11.7012C56.0046 11.6943 55.8561 11.7196 55.718 11.7754C55.58 11.8313 55.4556 11.9163 55.3535 12.0247C55.2514 12.1331 55.1739 12.2622 55.1263 12.4034C55.0788 12.5445 55.0624 12.6942 55.0781 12.8423V15.4766H54.1895L54.1895 10.9737Z" fill="#F0FDFA"/>
<path id="Vector_15" d="M59.4297 9.21631H60.3184V15.477H59.4297V9.21631Z" fill="#F0FDFA"/>
<path id="Vector_16" d="M61.5535 13.2237C61.5252 12.9277 61.5591 12.6291 61.6529 12.3471C61.7468 12.065 61.8986 11.8056 62.0985 11.5856C62.2985 11.3657 62.5422 11.1899 62.8141 11.0696C63.086 10.9493 63.38 10.8872 63.6773 10.8872C63.9745 10.8872 64.2686 10.9493 64.5404 11.0696C64.8123 11.1899 65.056 11.3657 65.256 11.5856C65.4559 11.8056 65.6077 12.065 65.7016 12.3471C65.7954 12.6291 65.8293 12.9277 65.801 13.2237C65.8298 13.5199 65.7964 13.8189 65.7027 14.1014C65.6091 14.3839 65.4574 14.6437 65.2574 14.8642C65.0574 15.0846 64.8135 15.2607 64.5414 15.3812C64.2692 15.5017 63.9749 15.564 63.6773 15.564C63.3796 15.564 63.0853 15.5017 62.8132 15.3812C62.541 15.2607 62.2971 15.0846 62.0971 14.8642C61.8971 14.6437 61.7454 14.3839 61.6518 14.1014C61.5581 13.8189 61.5247 13.5199 61.5535 13.2237ZM64.8865 13.2237C64.8865 12.2476 64.448 11.6768 63.6785 11.6768C62.906 11.6768 62.4715 12.2476 62.4715 13.2237C62.4715 14.2076 62.906 14.774 63.6785 14.774C64.448 14.774 64.8865 14.2036 64.8865 13.2237H64.8865Z" fill="#F0FDFA"/>
<path id="Vector_17" d="M66.7368 14.2036C66.7368 13.3931 67.3403 12.9258 68.4116 12.8594L69.6313 12.7891V12.4004C69.6313 11.9248 69.3169 11.6562 68.7095 11.6562C68.2134 11.6562 67.8696 11.8384 67.771 12.1567H66.9106C67.0015 11.3833 67.729 10.8872 68.7505 10.8872C69.8794 10.8872 70.5161 11.4492 70.5161 12.4004V15.477H69.6606V14.8442H69.5903C69.4476 15.0712 69.2472 15.2563 69.0096 15.3805C68.772 15.5047 68.5056 15.5636 68.2378 15.5512C68.0488 15.5709 67.8577 15.5507 67.6769 15.492C67.4962 15.4333 67.3297 15.3374 67.1883 15.2104C67.0469 15.0835 66.9337 14.9283 66.8559 14.7549C66.7781 14.5814 66.7376 14.3937 66.7368 14.2036ZM69.6313 13.8188V13.4424L68.5317 13.5127C67.9116 13.5542 67.6304 13.7651 67.6304 14.1621C67.6304 14.5674 67.9819 14.8032 68.4654 14.8032C68.607 14.8175 68.7501 14.8032 68.8861 14.7612C69.0221 14.7191 69.1482 14.65 69.257 14.5582C69.3658 14.4664 69.455 14.3536 69.5193 14.2266C69.5836 14.0995 69.6217 13.9609 69.6313 13.8188Z" fill="#F0FDFA"/>
<path id="Vector_18" d="M71.6841 13.2236C71.6841 11.8008 72.4155 10.8994 73.5532 10.8994C73.8346 10.8865 74.1139 10.9539 74.3585 11.0938C74.603 11.2337 74.8026 11.4403 74.9341 11.6894H75.0005V9.21631H75.8892V15.477H75.0376V14.7656H74.9673C74.8257 15.0131 74.6191 15.2171 74.3698 15.3556C74.1206 15.4941 73.8382 15.5618 73.5532 15.5513C72.4077 15.5513 71.6841 14.6499 71.6841 13.2236ZM72.6021 13.2236C72.6021 14.1787 73.0523 14.7534 73.8052 14.7534C74.5542 14.7534 75.0171 14.1704 75.0171 13.2276C75.0171 12.2891 74.5494 11.6978 73.8052 11.6978C73.0571 11.6978 72.6021 12.2764 72.6021 13.2236H72.6021Z" fill="#F0FDFA"/>
<path id="Vector_19" d="M79.5657 13.2236C79.5374 12.9277 79.5712 12.6292 79.6651 12.3471C79.7589 12.065 79.9107 11.8057 80.1106 11.5857C80.3106 11.3657 80.5543 11.1899 80.8261 11.0697C81.098 10.9494 81.392 10.8873 81.6892 10.8873C81.9865 10.8873 82.2805 10.9494 82.5524 11.0697C82.8242 11.1899 83.0679 11.3657 83.2679 11.5857C83.4678 11.8057 83.6196 12.065 83.7134 12.3471C83.8072 12.6292 83.8411 12.9277 83.8128 13.2236C83.8416 13.5199 83.8082 13.8188 83.7146 14.1014C83.621 14.3839 83.4693 14.6437 83.2693 14.8641C83.0693 15.0845 82.8254 15.2607 82.5533 15.3812C82.2812 15.5017 81.9869 15.564 81.6892 15.564C81.3916 15.564 81.0973 15.5017 80.8252 15.3812C80.553 15.2607 80.3091 15.0845 80.1092 14.8641C79.9092 14.6437 79.7575 14.3839 79.6639 14.1014C79.5703 13.8188 79.5369 13.5199 79.5657 13.2236ZM82.8987 13.2236C82.8987 12.2476 82.4602 11.6768 81.6907 11.6768C80.9182 11.6768 80.4837 12.2476 80.4837 13.2237C80.4837 14.2075 80.9183 14.7739 81.6907 14.7739C82.4602 14.7739 82.8987 14.2036 82.8987 13.2236Z" fill="#F0FDFA"/>
<path id="Vector_20" d="M85.0054 10.9737H85.8608V11.689H85.9273C86.0399 11.4321 86.2299 11.2167 86.4708 11.0729C86.7117 10.9291 86.9914 10.864 87.271 10.8868C87.4901 10.8703 87.7101 10.9033 87.9147 10.9834C88.1193 11.0635 88.3033 11.1886 88.4529 11.3495C88.6026 11.5103 88.7142 11.7028 88.7794 11.9126C88.8446 12.1224 88.8617 12.3442 88.8296 12.5616V15.4766H87.9409V12.7847C87.9409 12.0611 87.6265 11.7012 86.9692 11.7012C86.8205 11.6943 86.672 11.7196 86.5339 11.7754C86.3959 11.8313 86.2715 11.9163 86.1694 12.0247C86.0673 12.1331 85.9898 12.2622 85.9423 12.4034C85.8947 12.5445 85.8783 12.6942 85.894 12.8423V15.4766H85.0054V10.9737Z" fill="#F0FDFA"/>
<path id="Vector_21" d="M93.8511 9.85303V10.9946H94.8267V11.7432H93.8511V14.0586C93.8511 14.5303 94.0454 14.7368 94.4878 14.7368C94.601 14.7365 94.7142 14.7296 94.8267 14.7163V15.4565C94.6671 15.4851 94.5054 15.5003 94.3433 15.5019C93.355 15.5019 92.9614 15.1543 92.9614 14.2861V11.7431H92.2466V10.9946H92.9614V9.85303H93.8511Z" fill="#F0FDFA"/>
<path id="Vector_22" d="M96.0405 9.21631H96.9214V11.6978H96.9917C97.1098 11.4384 97.305 11.2218 97.5507 11.0775C97.7964 10.9332 98.0807 10.8681 98.3647 10.8911C98.5827 10.8793 98.8005 10.9156 99.0028 10.9977C99.2051 11.0797 99.3868 11.2054 99.5349 11.3657C99.683 11.5261 99.7939 11.7171 99.8597 11.9253C99.9255 12.1334 99.9445 12.3535 99.9155 12.5698V15.4771H99.0259V12.7891C99.0259 12.0698 98.6909 11.7056 98.063 11.7056C97.9103 11.693 97.7567 11.714 97.6129 11.7671C97.4691 11.8201 97.3387 11.904 97.2307 12.0127C97.1227 12.1214 97.0397 12.2525 96.9877 12.3966C96.9356 12.5407 96.9157 12.6945 96.9292 12.8472V15.477H96.0406L96.0405 9.21631Z" fill="#F0FDFA"/>
<path id="Vector_23" d="M105.097 14.2612C104.977 14.6728 104.715 15.0288 104.358 15.2669C104.002 15.5051 103.573 15.6102 103.146 15.564C102.849 15.5718 102.555 15.515 102.282 15.3975C102.01 15.2799 101.766 15.1045 101.568 14.8834C101.37 14.6622 101.223 14.4007 101.136 14.1169C101.049 13.833 101.026 13.5337 101.066 13.2398C101.027 12.9449 101.051 12.6449 101.137 12.3603C101.224 12.0756 101.371 11.8128 101.567 11.5898C101.764 11.3667 102.007 11.1885 102.278 11.0673C102.55 10.9461 102.845 10.8847 103.142 10.8872C104.395 10.8872 105.151 11.7432 105.151 13.1572V13.4673H101.971V13.5171C101.957 13.6824 101.978 13.8487 102.032 14.0054C102.086 14.1622 102.173 14.3059 102.286 14.4274C102.399 14.5488 102.536 14.6453 102.688 14.7107C102.84 14.7761 103.005 14.809 103.171 14.8071C103.383 14.8326 103.598 14.7944 103.789 14.6971C103.98 14.5999 104.138 14.4482 104.242 14.2612L105.097 14.2612ZM101.971 12.8101H104.246C104.257 12.6589 104.236 12.5071 104.185 12.3644C104.134 12.2217 104.054 12.0912 103.95 11.9814C103.845 11.8715 103.719 11.7847 103.579 11.7265C103.439 11.6684 103.289 11.6401 103.137 11.6436C102.984 11.6416 102.831 11.6705 102.689 11.7284C102.546 11.7864 102.417 11.8722 102.308 11.981C102.2 12.0897 102.114 12.219 102.056 12.3614C101.998 12.5038 101.969 12.6564 101.971 12.8101H101.971Z" fill="#F0FDFA"/>
</g>
</g>
</g>
</svg>
