<svg width="135" height="41" viewBox="0 0 135 41" fill="none" xmlns="http://www.w3.org/2000/svg">
<path d="M130 0.779846H5C2.23858 0.779846 0 3.01842 0 5.77985V35.7798C0 38.5413 2.23858 40.7798 5 40.7798H130C132.761 40.7798 135 38.5413 135 35.7798V5.77985C135 3.01842 132.761 0.779846 130 0.779846Z" fill="black"/>
<path d="M130 1.57985C131.114 1.57985 132.182 2.02234 132.97 2.81C133.758 3.59765 134.2 4.66594 134.2 5.77985V35.7798C134.2 36.8938 133.758 37.962 132.97 38.7497C132.182 39.5373 131.114 39.9798 130 39.9798H5C3.88609 39.9798 2.8178 39.5373 2.03015 38.7497C1.2425 37.962 0.8 36.8938 0.8 35.7798V5.77985C0.8 4.66594 1.2425 3.59765 2.03015 2.81C2.8178 2.02234 3.88609 1.57985 5 1.57985H130ZM130 0.779846H5C3.67392 0.779846 2.40215 1.30663 1.46447 2.24431C0.526784 3.18199 0 4.45376 0 5.77985V35.7798C0 37.1059 0.526784 38.3777 1.46447 39.3154C2.40215 40.2531 3.67392 40.7798 5 40.7798H130C131.326 40.7798 132.598 40.2531 133.536 39.3154C134.473 38.3777 135 37.1059 135 35.7798V5.77985C135 4.45376 134.473 3.18199 133.536 2.24431C132.598 1.30663 131.326 0.779846 130 0.779846Z" fill="#A6A6A6"/>
<path d="M44.3757 11.2656H46.4666V14.1667C46.1529 14.2731 45.8297 14.3522 45.4969 14.4041C45.1668 14.4559 44.7972 14.4818 44.388 14.4818C43.7661 14.4818 43.2409 14.3577 42.8127 14.1094C42.3871 13.8612 42.0639 13.508 41.8429 13.0497C41.622 12.5887 41.5115 12.0417 41.5115 11.4089C41.5115 10.7896 41.6329 10.2495 41.8756 9.78851C42.1212 9.3275 42.4744 8.97015 42.9354 8.71646C43.3992 8.46004 43.9556 8.33183 44.6049 8.33183C44.9377 8.33183 45.2527 8.3632 45.5501 8.42594C45.8501 8.48595 46.1284 8.57188 46.3848 8.68372L46.1188 9.28931C45.8979 9.19383 45.6537 9.112 45.3864 9.0438C45.1218 8.9756 44.8477 8.94151 44.564 8.94151C44.0757 8.94151 43.6569 9.04244 43.3078 9.2443C42.9613 9.44616 42.6954 9.73122 42.5099 10.0995C42.3271 10.4677 42.2357 10.9042 42.2357 11.4089C42.2357 11.9081 42.3162 12.3432 42.4771 12.7141C42.6381 13.0824 42.889 13.3688 43.23 13.5734C43.571 13.778 44.0102 13.8803 44.5476 13.8803C44.8176 13.8803 45.0495 13.8653 45.2432 13.8353C45.4369 13.8026 45.6128 13.7644 45.771 13.7207V11.8876H44.3757V11.2656ZM51.2459 14.4H47.9151V8.41776H51.2459V9.03153H48.6107V10.9669H51.0945V11.5725H48.6107V13.7862H51.2459V14.4ZM54.4088 14.4H53.7091V9.03153H51.8269V8.41776H56.2829V9.03153H54.4088V14.4ZM59.364 14.4V8.41776H60.0596V14.4H59.364ZM63.5417 14.4H62.842V9.03153H60.9598V8.41776H65.4158V9.03153H63.5417V14.4ZM73.6853 11.4007C73.6853 11.8617 73.6266 12.2818 73.5093 12.6609C73.392 13.0374 73.2174 13.362 72.9856 13.6348C72.7564 13.9049 72.4714 14.1135 72.1304 14.2608C71.7894 14.4081 71.3939 14.4818 70.9438 14.4818C70.48 14.4818 70.0749 14.4081 69.7285 14.2608C69.3848 14.1135 69.0984 13.9035 68.8692 13.6307C68.6428 13.3579 68.4723 13.0319 68.3578 12.6528C68.2459 12.2736 68.19 11.8535 68.19 11.3925C68.19 10.7815 68.2909 10.2454 68.4928 9.78442C68.6946 9.32341 69.0002 8.96469 69.4093 8.70827C69.8213 8.45185 70.3368 8.32364 70.956 8.32364C71.548 8.32364 72.0458 8.45049 72.4496 8.70418C72.856 8.95787 73.1629 9.31522 73.3702 9.77623C73.5803 10.2345 73.6853 10.776 73.6853 11.4007ZM68.9224 11.4007C68.9224 11.9081 68.9947 12.3472 69.1393 12.7182C69.2839 13.0892 69.5048 13.3757 69.8022 13.5775C70.1022 13.7794 70.4828 13.8803 70.9438 13.8803C71.4075 13.8803 71.7867 13.7794 72.0813 13.5775C72.3786 13.3757 72.5982 13.0892 72.7401 12.7182C72.8819 12.3472 72.9528 11.9081 72.9528 11.4007C72.9528 10.6287 72.7905 10.0258 72.4659 9.5921C72.144 9.15564 71.6407 8.93741 70.956 8.93741C70.4923 8.93741 70.1104 9.03698 69.8103 9.23612C69.5103 9.43525 69.2866 9.71895 69.1393 10.0872C68.9947 10.4527 68.9224 10.8906 68.9224 11.4007ZM79.6961 14.4H78.8941L75.633 9.37524H75.6002C75.6084 9.5089 75.618 9.66166 75.6289 9.83352C75.6398 10.0026 75.648 10.184 75.6534 10.3777C75.6616 10.5687 75.6657 10.7637 75.6657 10.9629V14.4H75.0192V8.41776H75.8171L79.066 13.4261H79.0946C79.0892 13.3306 79.0824 13.1956 79.0742 13.021C79.066 12.8437 79.0578 12.6541 79.0496 12.4523C79.0442 12.2477 79.0414 12.0581 79.0414 11.8835V8.41776H79.6961V14.4Z" fill="#F0FDFA"/>
<path d="M44.3757 11.2656V11.1656H44.2757V11.2656H44.3757ZM46.4666 11.2656H46.5666V11.1656H46.4666V11.2656ZM46.4666 14.1667L46.4988 14.2614L46.5666 14.2384V14.1667H46.4666ZM45.4969 14.4041L45.4815 14.3052L45.4814 14.3053L45.4969 14.4041ZM42.8127 14.1094L42.7623 14.1958L42.7625 14.196L42.8127 14.1094ZM41.8429 13.0497L41.7527 13.0929L41.7528 13.0931L41.8429 13.0497ZM41.8756 9.78851L41.7874 9.7415L41.7872 9.74191L41.8756 9.78851ZM42.9354 8.71646L42.9836 8.80407L42.9838 8.80397L42.9354 8.71646ZM45.5501 8.42594L45.5294 8.52379L45.5305 8.524L45.5501 8.42594ZM46.3848 8.68372L46.4764 8.72393L46.5167 8.63214L46.4248 8.59206L46.3848 8.68372ZM46.1188 9.28931L46.0792 9.38111L46.1704 9.42054L46.2104 9.32952L46.1188 9.28931ZM45.3864 9.0438L45.3614 9.14064L45.3617 9.1407L45.3864 9.0438ZM43.3078 9.2443L43.2577 9.15773L43.2574 9.1579L43.3078 9.2443ZM42.5099 10.0995L42.4206 10.0545L42.4203 10.055L42.5099 10.0995ZM42.4771 12.7141L42.3854 12.7539L42.3855 12.7542L42.4771 12.7141ZM43.23 13.5734L43.1786 13.6592L43.23 13.5734ZM45.2432 13.8353L45.2585 13.9341L45.2599 13.9339L45.2432 13.8353ZM45.771 13.7207L45.7976 13.8171L45.871 13.7969V13.7207H45.771ZM45.771 11.8876H45.871V11.7876H45.771V11.8876ZM44.3757 11.8876H44.2757V11.9876H44.3757V11.8876ZM44.3757 11.3656H46.4666V11.1656H44.3757V11.3656ZM46.3666 11.2656V14.1667H46.5666V11.2656H46.3666ZM46.4345 14.072C46.1264 14.1765 45.8087 14.2543 45.4815 14.3052L45.5123 14.5029C45.8507 14.4502 46.1795 14.3697 46.4988 14.2614L46.4345 14.072ZM45.4814 14.3053C45.1574 14.3561 44.7931 14.3818 44.388 14.3818V14.5818C44.8013 14.5818 45.1762 14.5556 45.5124 14.5028L45.4814 14.3053ZM44.388 14.3818C43.7792 14.3818 43.2724 14.2603 42.8628 14.0229L42.7625 14.196C43.2095 14.455 43.7529 14.5818 44.388 14.5818V14.3818ZM42.8631 14.0231C42.4553 13.7852 42.1456 13.4472 41.933 13.0062L41.7528 13.0931C41.9821 13.5687 42.3189 13.9372 42.7623 14.1958L42.8631 14.0231ZM41.9331 13.0064C41.7199 12.5618 41.6115 12.0302 41.6115 11.4089H41.4115C41.4115 12.0532 41.524 12.6156 41.7527 13.0929L41.9331 13.0064ZM41.6115 11.4089C41.6115 10.8028 41.7302 10.2793 41.9641 9.8351L41.7872 9.74191C41.5355 10.2198 41.4115 10.7764 41.4115 11.4089H41.6115ZM41.9639 9.83551C42.2002 9.39178 42.5395 9.04847 42.9836 8.80407L42.8872 8.62885C42.4093 8.89182 42.0421 9.26322 41.7874 9.7415L41.9639 9.83551ZM42.9838 8.80397C43.4297 8.55739 43.9688 8.43183 44.6049 8.43183V8.23183C43.9425 8.23183 43.3686 8.36268 42.887 8.62894L42.9838 8.80397ZM44.6049 8.43183C44.9314 8.43183 45.2395 8.4626 45.5294 8.52379L45.5707 8.32809C45.266 8.26379 44.944 8.23183 44.6049 8.23183V8.43183ZM45.5305 8.524C45.8242 8.58274 46.0955 8.66665 46.3448 8.77538L46.4248 8.59206C46.1612 8.47711 45.8761 8.38916 45.5697 8.32788L45.5305 8.524ZM46.2932 8.64351L46.0273 9.2491L46.2104 9.32952L46.4764 8.72393L46.2932 8.64351ZM46.1585 9.19751C45.9321 9.09967 45.6828 9.01622 45.4111 8.9469L45.3617 9.1407C45.6246 9.20778 45.8637 9.288 46.0792 9.38111L46.1585 9.19751ZM45.4114 8.94697C45.1383 8.87659 44.8557 8.84151 44.564 8.84151V9.04151C44.8396 9.04151 45.1053 9.07462 45.3614 9.14064L45.4114 8.94697ZM44.564 8.84151C44.0618 8.84151 43.625 8.94539 43.2577 9.15773L43.3578 9.33087C43.6889 9.13949 44.0895 9.04151 44.564 9.04151V8.84151ZM43.2574 9.1579C42.8938 9.36979 42.6145 9.66947 42.4206 10.0545L42.5992 10.1445C42.7762 9.79298 43.0289 9.52253 43.3581 9.3307L43.2574 9.1579ZM42.4203 10.055C42.2293 10.4399 42.1357 10.8922 42.1357 11.4089H42.3357C42.3357 10.9162 42.4249 10.4956 42.5994 10.1439L42.4203 10.055ZM42.1357 11.4089C42.1357 11.9186 42.2179 12.3678 42.3854 12.7539L42.5689 12.6743C42.4145 12.3185 42.3357 11.8975 42.3357 11.4089H42.1357ZM42.3855 12.7542C42.5547 13.1413 42.8196 13.4438 43.1786 13.6592L43.2815 13.4877C42.9585 13.2939 42.7215 13.0235 42.5688 12.6741L42.3855 12.7542ZM43.1786 13.6592C43.5396 13.8758 43.9982 13.9803 44.5476 13.9803V13.7803C44.0222 13.7803 43.6024 13.6802 43.2815 13.4877L43.1786 13.6592ZM44.5476 13.9803C44.821 13.9803 45.0583 13.9651 45.2585 13.9341L45.2279 13.7365C45.0408 13.7655 44.8143 13.7803 44.5476 13.7803V13.9803ZM45.2599 13.9339C45.4563 13.9007 45.6356 13.8618 45.7976 13.8171L45.7444 13.6243C45.5901 13.6669 45.4175 13.7044 45.2265 13.7367L45.2599 13.9339ZM45.871 13.7207V11.8876H45.671V13.7207H45.871ZM45.771 11.7876H44.3757V11.9876H45.771V11.7876ZM44.4757 11.8876V11.2656H44.2757V11.8876H44.4757ZM51.2459 14.4V14.5H51.3459V14.4H51.2459ZM47.9151 14.4H47.8151V14.5H47.9151V14.4ZM47.9151 8.41776V8.31776H47.8151V8.41776H47.9151ZM51.2459 8.41776H51.3459V8.31776H51.2459V8.41776ZM51.2459 9.03153V9.13153H51.3459V9.03153H51.2459ZM48.6107 9.03153V8.93153H48.5107V9.03153H48.6107ZM48.6107 10.9669H48.5107V11.0669H48.6107V10.9669ZM51.0945 10.9669H51.1945V10.8669H51.0945V10.9669ZM51.0945 11.5725V11.6725H51.1945V11.5725H51.0945ZM48.6107 11.5725V11.4725H48.5107V11.5725H48.6107ZM48.6107 13.7862H48.5107V13.8862H48.6107V13.7862ZM51.2459 13.7862H51.3459V13.6862H51.2459V13.7862ZM51.2459 14.3H47.9151V14.5H51.2459V14.3ZM48.0151 14.4V8.41776H47.8151V14.4H48.0151ZM47.9151 8.51776H51.2459V8.31776H47.9151V8.51776ZM51.1459 8.41776V9.03153H51.3459V8.41776H51.1459ZM51.2459 8.93153H48.6107V9.13153H51.2459V8.93153ZM48.5107 9.03153V10.9669H48.7107V9.03153H48.5107ZM48.6107 11.0669H51.0945V10.8669H48.6107V11.0669ZM50.9945 10.9669V11.5725H51.1945V10.9669H50.9945ZM51.0945 11.4725H48.6107V11.6725H51.0945V11.4725ZM48.5107 11.5725V13.7862H48.7107V11.5725H48.5107ZM48.6107 13.8862H51.2459V13.6862H48.6107V13.8862ZM51.1459 13.7862V14.4H51.3459V13.7862H51.1459ZM54.4088 14.4V14.5H54.5088V14.4H54.4088ZM53.7091 14.4H53.6091V14.5H53.7091V14.4ZM53.7091 9.03153H53.8091V8.93153H53.7091V9.03153ZM51.8269 9.03153H51.7269V9.13153H51.8269V9.03153ZM51.8269 8.41776V8.31776H51.7269V8.41776H51.8269ZM56.2829 8.41776H56.3829V8.31776H56.2829V8.41776ZM56.2829 9.03153V9.13153H56.3829V9.03153H56.2829ZM54.4088 9.03153V8.93153H54.3088V9.03153H54.4088ZM54.4088 14.3H53.7091V14.5H54.4088V14.3ZM53.8091 14.4V9.03153H53.6091V14.4H53.8091ZM53.7091 8.93153H51.8269V9.13153H53.7091V8.93153ZM51.9269 9.03153V8.41776H51.7269V9.03153H51.9269ZM51.8269 8.51776H56.2829V8.31776H51.8269V8.51776ZM56.1829 8.41776V9.03153H56.3829V8.41776H56.1829ZM56.2829 8.93153H54.4088V9.13153H56.2829V8.93153ZM54.3088 9.03153V14.4H54.5088V9.03153H54.3088ZM59.364 14.4H59.264V14.5H59.364V14.4ZM59.364 8.41776V8.31776H59.264V8.41776H59.364ZM60.0596 8.41776H60.1596V8.31776H60.0596V8.41776ZM60.0596 14.4V14.5H60.1596V14.4H60.0596ZM59.464 14.4V8.41776H59.264V14.4H59.464ZM59.364 8.51776H60.0596V8.31776H59.364V8.51776ZM59.9596 8.41776V14.4H60.1596V8.41776H59.9596ZM60.0596 14.3H59.364V14.5H60.0596V14.3ZM63.5417 14.4V14.5H63.6417V14.4H63.5417ZM62.842 14.4H62.742V14.5H62.842V14.4ZM62.842 9.03153H62.942V8.93153H62.842V9.03153ZM60.9598 9.03153H60.8598V9.13153H60.9598V9.03153ZM60.9598 8.41776V8.31776H60.8598V8.41776H60.9598ZM65.4158 8.41776H65.5158V8.31776H65.4158V8.41776ZM65.4158 9.03153V9.13153H65.5158V9.03153H65.4158ZM63.5417 9.03153V8.93153H63.4417V9.03153H63.5417ZM63.5417 14.3H62.842V14.5H63.5417V14.3ZM62.942 14.4V9.03153H62.742V14.4H62.942ZM62.842 8.93153H60.9598V9.13153H62.842V8.93153ZM61.0598 9.03153V8.41776H60.8598V9.03153H61.0598ZM60.9598 8.51776H65.4158V8.31776H60.9598V8.51776ZM65.3158 8.41776V9.03153H65.5158V8.41776H65.3158ZM65.4158 8.93153H63.5417V9.13153H65.4158V8.93153ZM63.4417 9.03153V14.4H63.6417V9.03153H63.4417ZM73.5093 12.6609L73.6048 12.6907L73.6049 12.6905L73.5093 12.6609ZM72.9856 13.6348L72.9094 13.57L72.9093 13.5701L72.9856 13.6348ZM72.1304 14.2608L72.17 14.3526L72.1304 14.2608ZM69.7285 14.2608L69.6891 14.3528L69.6894 14.3529L69.7285 14.2608ZM68.8692 13.6307L68.7923 13.6946L68.7927 13.695L68.8692 13.6307ZM68.3578 12.6528L68.2618 12.6811L68.262 12.6817L68.3578 12.6528ZM69.4093 8.70827L69.3565 8.62338L69.3562 8.62354L69.4093 8.70827ZM72.4496 8.70418L72.3963 8.78885L72.3966 8.78901L72.4496 8.70418ZM73.3702 9.77623L73.279 9.81725L73.2793 9.8179L73.3702 9.77623ZM69.8022 13.5775L69.746 13.6602L69.7463 13.6605L69.8022 13.5775ZM72.0813 13.5775L72.0251 13.4948L72.0248 13.495L72.0813 13.5775ZM72.4659 9.5921L72.3854 9.65146L72.3859 9.65202L72.4659 9.5921ZM69.8103 9.23612L69.755 9.15279L69.8103 9.23612ZM69.1393 10.0872L69.0464 10.0501L69.0463 10.0504L69.1393 10.0872ZM73.5853 11.4007C73.5853 11.8532 73.5277 12.2632 73.4138 12.6314L73.6049 12.6905C73.7256 12.3004 73.7853 11.8701 73.7853 11.4007H73.5853ZM73.4139 12.6312C73.3002 12.9961 73.1317 13.3085 72.9094 13.57L73.0618 13.6996C73.3032 13.4155 73.4839 13.0787 73.6048 12.6907L73.4139 12.6312ZM72.9093 13.5701C72.6906 13.8279 72.4183 14.0275 72.0907 14.169L72.17 14.3526C72.5244 14.1995 72.8222 13.9819 73.0618 13.6995L72.9093 13.5701ZM72.0907 14.169C71.7646 14.3099 71.3831 14.3818 70.9438 14.3818V14.5818C71.4047 14.5818 71.8142 14.5064 72.17 14.3526L72.0907 14.169ZM70.9438 14.3818C70.4904 14.3818 70.0992 14.3098 69.7676 14.1688L69.6894 14.3529C70.0507 14.5065 70.4696 14.5818 70.9438 14.5818V14.3818ZM69.7679 14.1689C69.4378 14.0275 69.1644 13.8266 68.9458 13.5664L68.7927 13.695C69.0324 13.9804 69.3318 14.1996 69.6891 14.3528L69.7679 14.1689ZM68.9462 13.5668C68.7292 13.3055 68.5646 12.9917 68.4535 12.6238L68.262 12.6817C68.38 13.0721 68.5564 13.4104 68.7923 13.6946L68.9462 13.5668ZM68.4537 12.6245C68.3449 12.2559 68.29 11.8455 68.29 11.3925H68.09C68.09 11.8615 68.1469 12.2913 68.2618 12.6811L68.4537 12.6245ZM68.29 11.3925C68.29 10.7924 68.3891 10.2705 68.5844 9.82453L68.4012 9.74431C68.1927 10.2204 68.09 10.7705 68.09 11.3925H68.29ZM68.5844 9.82453C68.7786 9.3811 69.071 9.03829 69.4624 8.79301L69.3562 8.62354C68.9293 8.89109 68.6107 9.26571 68.4012 9.74431L68.5844 9.82453ZM69.4622 8.79317C69.8544 8.54901 70.3504 8.42365 70.956 8.42365V8.22364C70.3232 8.22364 69.7881 8.3547 69.3565 8.62338L69.4622 8.79317ZM70.956 8.42365C71.5337 8.42365 72.012 8.54734 72.3963 8.78885L72.5028 8.61951C72.0796 8.35364 71.5623 8.22364 70.956 8.22364V8.42365ZM72.3966 8.78901C72.7853 9.03162 73.0793 9.37326 73.279 9.81725L73.4614 9.73522C73.2464 9.25718 72.9267 8.88413 72.5025 8.61935L72.3966 8.78901ZM73.2793 9.8179C73.4821 10.2604 73.5853 10.787 73.5853 11.4007H73.7853C73.7853 10.765 73.6784 10.2087 73.4611 9.73457L73.2793 9.8179ZM68.8224 11.4007C68.8224 11.9172 68.896 12.3693 69.0461 12.7545L69.2325 12.6819C69.0934 12.3252 69.0224 11.8989 69.0224 11.4007H68.8224ZM69.0461 12.7545C69.1972 13.1423 69.4301 13.4458 69.746 13.6602L69.8583 13.4948C69.5795 13.3055 69.3705 13.0362 69.2325 12.6819L69.0461 12.7545ZM69.7463 13.6605C70.0669 13.8761 70.4683 13.9803 70.9438 13.9803V13.7803C70.4972 13.7803 70.1375 13.6826 69.858 13.4945L69.7463 13.6605ZM70.9438 13.9803C71.4217 13.9803 71.8222 13.8762 72.1378 13.66L72.0248 13.495C71.7511 13.6825 71.3933 13.7803 70.9438 13.7803V13.9803ZM72.1375 13.6602C72.4535 13.4457 72.6851 13.142 72.8335 12.7539L72.6467 12.6825C72.5113 13.0365 72.3038 13.3056 72.0251 13.4948L72.1375 13.6602ZM72.8335 12.7539C72.9807 12.3689 73.0528 11.917 73.0528 11.4007H72.8528C72.8528 11.8991 72.7831 12.3256 72.6467 12.6825L72.8335 12.7539ZM73.0528 11.4007C73.0528 10.616 72.888 9.98918 72.546 9.53218L72.3859 9.65202C72.6931 10.0625 72.8528 10.6414 72.8528 11.4007H73.0528ZM72.5464 9.53275C72.2008 9.0641 71.6633 8.83741 70.956 8.83741V9.03741C71.6182 9.03741 72.0873 9.24718 72.3854 9.65146L72.5464 9.53275ZM70.956 8.83741C70.4782 8.83741 70.0756 8.94005 69.755 9.15279L69.8656 9.31944C70.1452 9.13392 70.5064 9.03741 70.956 9.03741V8.83741ZM69.755 9.15279C69.4364 9.36429 69.2005 9.66496 69.0464 10.0501L69.2321 10.1243C69.3727 9.77294 69.5842 9.50621 69.8656 9.31944L69.755 9.15279ZM69.0463 10.0504C68.8959 10.4306 68.8224 10.8815 68.8224 11.4007H69.0224C69.0224 10.8996 69.0935 10.4749 69.2323 10.124L69.0463 10.0504ZM79.6961 14.4V14.5H79.7961V14.4H79.6961ZM78.8941 14.4L78.8102 14.4544L78.8398 14.5H78.8941V14.4ZM75.633 9.37524L75.7169 9.3208L75.6873 9.27524H75.633V9.37524ZM75.6002 9.37524V9.27524H75.4939L75.5004 9.38135L75.6002 9.37524ZM75.6289 9.83352L75.5291 9.83985L75.5291 9.83996L75.6289 9.83352ZM75.6534 10.3777L75.5535 10.3805L75.5535 10.382L75.6534 10.3777ZM75.6657 14.4V14.5H75.7657V14.4H75.6657ZM75.0192 14.4H74.9192V14.5H75.0192V14.4ZM75.0192 8.41776V8.31776H74.9192V8.41776H75.0192ZM75.8171 8.41776L75.901 8.36333L75.8714 8.31776H75.8171V8.41776ZM79.066 13.4261L78.9821 13.4805L79.0117 13.5261H79.066V13.4261ZM79.0946 13.4261V13.5261H79.2005L79.1945 13.4204L79.0946 13.4261ZM79.0742 13.021L78.9743 13.0256L78.9743 13.0257L79.0742 13.021ZM79.0496 12.4523L78.9496 12.4549L78.9497 12.4563L79.0496 12.4523ZM79.0414 8.41776V8.31776H78.9414V8.41776H79.0414ZM79.6961 8.41776H79.7961V8.31776H79.6961V8.41776ZM79.6961 14.3H78.8941V14.5H79.6961V14.3ZM78.978 14.3455L75.7169 9.3208L75.5491 9.42968L78.8102 14.4544L78.978 14.3455ZM75.633 9.27524H75.6002V9.47524H75.633V9.27524ZM75.5004 9.38135C75.5086 9.51511 75.5182 9.66794 75.5291 9.83985L75.7287 9.82718C75.7178 9.65538 75.7082 9.5027 75.7 9.36913L75.5004 9.38135ZM75.5291 9.83996C75.5399 10.0077 75.548 10.1879 75.5535 10.3805L75.7534 10.3749C75.7479 10.1802 75.7397 9.99757 75.7287 9.82708L75.5291 9.83996ZM75.5535 10.382C75.5616 10.5715 75.5657 10.7651 75.5657 10.9629H75.7657C75.7657 10.7624 75.7616 10.5659 75.7533 10.3734L75.5535 10.382ZM75.5657 10.9629V14.4H75.7657V10.9629H75.5657ZM75.6657 14.3H75.0192V14.5H75.6657V14.3ZM75.1192 14.4V8.41776H74.9192V14.4H75.1192ZM75.0192 8.51776H75.8171V8.31776H75.0192V8.51776ZM75.7332 8.47218L78.9821 13.4805L79.1499 13.3717L75.901 8.36333L75.7332 8.47218ZM79.066 13.5261H79.0946V13.3261H79.066V13.5261ZM79.1945 13.4204C79.189 13.3254 79.1822 13.1908 79.1741 13.0163L78.9743 13.0257C78.9825 13.2004 78.9893 13.3358 78.9948 13.4318L79.1945 13.4204ZM79.1741 13.0164C79.1659 12.8393 79.1577 12.6499 79.1495 12.4482L78.9497 12.4563C78.9579 12.6583 78.9661 12.8481 78.9743 13.0256L79.1741 13.0164ZM79.1496 12.4496C79.1441 12.2458 79.1414 12.0571 79.1414 11.8835H78.9414C78.9414 12.0591 78.9442 12.2496 78.9497 12.4549L79.1496 12.4496ZM79.1414 11.8835V8.41776H78.9414V11.8835H79.1414ZM79.0414 8.51776H79.6961V8.31776H79.0414V8.51776ZM79.5961 8.41776V14.4H79.7961V8.41776H79.5961Z" fill="#F0FDFA"/>
<path d="M68.1401 22.5298C67.2976 22.5317 66.4745 22.7835 65.7751 23.2533C65.0756 23.723 64.5312 24.3896 64.2106 25.1688C63.89 25.9479 63.8076 26.8047 63.9739 27.6306C64.1402 28.4566 64.5477 29.2147 65.1449 29.8091C65.7421 30.4035 66.5021 30.8074 67.3288 30.9698C68.1556 31.1323 69.0119 31.0459 69.7896 30.7216C70.5672 30.3974 71.2313 29.8498 71.6977 29.1482C72.1642 28.4465 72.4121 27.6223 72.4101 26.7798C72.4183 26.2177 72.3132 25.6597 72.1013 25.1391C71.8893 24.6185 71.5748 24.1458 71.1764 23.7493C70.7779 23.3527 70.3038 23.0404 69.7822 22.8309C69.2606 22.6214 68.7021 22.519 68.1401 22.5298ZM68.1401 29.3598C67.6237 29.3959 67.1083 29.2758 66.6611 29.0152C66.2138 28.7545 65.8553 28.3653 65.6321 27.8982C65.409 27.4311 65.3315 26.9076 65.4098 26.3959C65.4881 25.8842 65.7185 25.4078 66.0711 25.0288C66.4237 24.6498 66.8821 24.3856 67.3869 24.2705C67.8916 24.1555 68.4193 24.195 68.9013 24.3839C69.3833 24.5727 69.7973 24.9022 70.0896 25.3295C70.3819 25.7568 70.5388 26.2621 70.5401 26.7798C70.5562 27.1078 70.5065 27.4357 70.3938 27.7442C70.2812 28.0527 70.1079 28.3355 69.8842 28.5759C69.6606 28.8164 69.391 29.0096 69.0914 29.1443C68.7919 29.2789 68.4684 29.3522 68.1401 29.3598ZM58.8201 22.5298C57.9776 22.5317 57.1545 22.7835 56.4551 23.2533C55.7556 23.723 55.2112 24.3896 54.8906 25.1688C54.57 25.9479 54.4876 26.8047 54.6539 27.6306C54.8202 28.4566 55.2277 29.2147 55.8249 29.8091C56.4221 30.4035 57.1821 30.8074 58.0088 30.9698C58.8356 31.1323 59.6919 31.0459 60.4696 30.7216C61.2472 30.3974 61.9113 29.8498 62.3777 29.1482C62.8442 28.4465 63.0921 27.6223 63.0901 26.7798C63.0982 26.2177 62.9932 25.6597 62.7813 25.1391C62.5693 24.6185 62.2548 24.1458 61.8564 23.7493C61.4579 23.3527 60.9838 23.0404 60.4622 22.8309C59.9406 22.6214 59.3821 22.519 58.8201 22.5298ZM58.8201 29.3598C58.3037 29.3959 57.7883 29.2758 57.3411 29.0152C56.8938 28.7545 56.5353 28.3653 56.3121 27.8982C56.089 27.4311 56.0115 26.9076 56.0898 26.3959C56.1681 25.8842 56.3985 25.4078 56.7511 25.0288C57.1037 24.6498 57.5621 24.3856 58.0669 24.2705C58.5716 24.1555 59.0993 24.195 59.5813 24.3839C60.0633 24.5727 60.4773 24.9022 60.7696 25.3295C61.0619 25.7568 61.2188 26.2621 61.2201 26.7798C61.2362 27.1078 61.1865 27.4357 61.0738 27.7442C60.9612 28.0527 60.7879 28.3355 60.5642 28.5759C60.3406 28.8164 60.071 29.0096 59.7714 29.1443C59.4719 29.2789 59.1484 29.3522 58.8201 29.3598ZM47.7401 23.8398V25.6398H52.0601C51.9924 26.4876 51.6399 27.2876 51.0601 27.9098C50.6268 28.3513 50.1056 28.6969 49.5302 28.9243C48.9549 29.1517 48.3382 29.2557 47.7201 29.2298C46.4471 29.2298 45.2262 28.7241 44.326 27.8239C43.4258 26.9237 42.9201 25.7028 42.9201 24.4298C42.9201 23.1567 43.4258 21.9358 44.326 21.0357C45.2262 20.1355 46.4471 19.6298 47.7201 19.6298C48.9405 19.6116 50.119 20.0751 51.0001 20.9198L52.2701 19.6498C51.6741 19.0603 50.9664 18.5957 50.1886 18.2831C49.4107 17.9706 48.5783 17.8165 47.7401 17.8298C46.8511 17.7952 45.9643 17.9404 45.1327 18.2567C44.3012 18.5731 43.5421 19.054 42.9009 19.6708C42.2596 20.2875 41.7495 21.0274 41.4011 21.846C41.0527 22.6646 40.873 23.5451 40.873 24.4348C40.873 25.3244 41.0527 26.205 41.4011 27.0236C41.7495 27.8422 42.2596 28.582 42.9009 29.1988C43.5421 29.8155 44.3012 30.2965 45.1327 30.6128C45.9643 30.9291 46.8511 31.0744 47.7401 31.0398C48.5955 31.0739 49.4485 30.9268 50.243 30.6079C51.0375 30.2891 51.7556 29.8058 52.3501 29.1898C53.4002 28.0362 53.9598 26.519 53.9101 24.9598C53.9137 24.5845 53.8836 24.2097 53.8201 23.8398H47.7401ZM93.0501 25.2398C92.7893 24.4725 92.3016 23.8026 91.6516 23.3186C91.0016 22.8347 90.2199 22.5596 89.4101 22.5298C88.8631 22.5287 88.3217 22.6398 87.8193 22.8563C87.317 23.0728 86.8644 23.39 86.4895 23.7883C86.1146 24.1866 85.8254 24.6576 85.6397 25.1722C85.4541 25.6867 85.3759 26.2338 85.4101 26.7798C85.4016 27.6926 85.6885 28.5837 86.2282 29.32C86.7679 30.0563 87.5313 30.5983 88.4044 30.8649C89.2774 31.1316 90.2134 31.1086 91.0723 30.7995C91.9313 30.4903 92.6672 29.9116 93.1701 29.1498L91.7201 28.1498C91.5039 28.51 91.1974 28.8076 90.8307 29.0128C90.4641 29.218 90.0502 29.3239 89.6301 29.3198C89.1967 29.3377 88.768 29.224 88.4003 28.9938C88.0327 28.7636 87.7432 28.4275 87.5701 28.0298L93.2601 25.6798L93.0501 25.2398ZM87.2501 26.6598C87.2298 26.3491 87.2717 26.0376 87.3734 25.7434C87.475 25.4492 87.6343 25.1782 87.842 24.9463C88.0497 24.7144 88.3015 24.5263 88.5828 24.393C88.8641 24.2596 89.1691 24.1837 89.4801 24.1698C89.8023 24.1501 90.1231 24.226 90.4024 24.3878C90.6817 24.5497 90.907 24.7904 91.0501 25.0798L87.2501 26.6598ZM82.6301 30.7798H84.5001V18.2798H82.6301V30.7798ZM79.5701 23.4798H79.5001C79.2207 23.1616 78.876 22.9076 78.4894 22.735C78.1028 22.5624 77.6835 22.4753 77.2601 22.4798C76.1673 22.5328 75.1367 23.0042 74.3821 23.7964C73.6274 24.5885 73.2064 25.6407 73.2064 26.7348C73.2064 27.8289 73.6274 28.881 74.3821 29.6732C75.1367 30.4653 76.1673 30.9368 77.2601 30.9898C77.6841 30.9983 78.1047 30.913 78.4919 30.7402C78.8791 30.5673 79.2234 30.3111 79.5001 29.9898H79.5701V30.5998C79.5701 32.2298 78.7001 33.0998 77.3001 33.0998C76.8324 33.0895 76.3783 32.9405 75.9955 32.6716C75.6127 32.4028 75.3185 32.0262 75.1501 31.5898L73.5301 32.2598C73.8296 33.012 74.3504 33.6557 75.0235 34.1056C75.6966 34.5556 76.4905 34.7906 77.3001 34.7798C79.4901 34.7798 81.3001 33.4898 81.3001 30.3498V22.7798H79.5701V23.4798ZM77.4201 29.3598C76.7649 29.3189 76.1499 29.0298 75.7004 28.5514C75.2509 28.073 75.0006 27.4412 75.0006 26.7848C75.0006 26.1283 75.2509 25.4965 75.7004 25.0181C76.1499 24.5397 76.7649 24.2506 77.4201 24.2098C77.7403 24.2236 78.0545 24.3017 78.344 24.4394C78.6334 24.5771 78.8922 24.7717 79.1049 25.0114C79.3176 25.2512 79.4799 25.5313 79.5822 25.8351C79.6844 26.1389 79.7245 26.4602 79.7001 26.7798C79.7274 27.1005 79.6893 27.4234 79.5883 27.7289C79.4872 28.0345 79.3252 28.3164 79.1121 28.5576C78.8989 28.7987 78.6391 28.9942 78.3483 29.1321C78.0575 29.2699 77.7417 29.3474 77.4201 29.3598ZM101.81 18.2798H97.3301V30.7798H99.2001V26.0398H101.81C102.343 26.0781 102.878 26.0061 103.382 25.8285C103.886 25.6509 104.348 25.3713 104.739 25.0073C105.13 24.6432 105.442 24.2025 105.655 23.7126C105.869 23.2227 105.979 22.6941 105.979 22.1598C105.979 21.6254 105.869 21.0968 105.655 20.6069C105.442 20.117 105.13 19.6763 104.739 19.3123C104.348 18.9482 103.886 18.6687 103.382 18.491C102.878 18.3134 102.343 18.2415 101.81 18.2798ZM101.81 24.2798H99.2001V20.0198H101.85C102.131 20.0198 102.409 20.0751 102.669 20.1827C102.929 20.2902 103.165 20.4478 103.363 20.6466C103.562 20.8453 103.72 21.0812 103.827 21.3408C103.935 21.6005 103.99 21.8787 103.99 22.1598C103.99 22.4408 103.935 22.7191 103.827 22.9787C103.72 23.2383 103.562 23.4743 103.363 23.673C103.165 23.8717 102.929 24.0293 102.669 24.1369C102.409 24.2444 102.131 24.2998 101.85 24.2998L101.81 24.2798ZM113.35 22.4898C112.669 22.4478 111.991 22.6063 111.399 22.9458C110.807 23.2853 110.328 23.7908 110.02 24.3998L111.67 25.0898C111.837 24.7892 112.087 24.5433 112.39 24.3818C112.694 24.2203 113.038 24.1501 113.38 24.1798C113.617 24.152 113.858 24.1719 114.088 24.2381C114.317 24.3043 114.531 24.4156 114.718 24.5655C114.904 24.7153 115.058 24.9008 115.172 25.111C115.286 25.3212 115.356 25.5519 115.38 25.7898V25.9098C114.779 25.5937 114.109 25.4289 113.43 25.4298C111.65 25.4298 109.83 26.4298 109.83 28.2498C109.848 28.6366 109.943 29.016 110.11 29.3653C110.277 29.7147 110.513 30.0269 110.803 30.2834C111.093 30.5399 111.432 30.7355 111.799 30.8586C112.166 30.9816 112.554 31.0296 112.94 30.9998C113.409 31.0257 113.877 30.9264 114.295 30.712C114.714 30.4977 115.067 30.1759 115.32 29.7798H115.38V30.7798H117.18V25.9698C117.18 23.7798 115.52 22.5098 113.39 22.5098L113.35 22.4898ZM113.12 29.3398C112.51 29.3398 111.66 29.0298 111.66 28.2798C111.66 27.2798 112.72 26.9398 113.66 26.9398C114.254 26.9251 114.841 27.0702 115.36 27.3598C115.297 27.9028 115.04 28.4047 114.635 28.7725C114.231 29.1402 113.707 29.3489 113.16 29.3598L113.12 29.3398ZM123.74 22.7798L121.6 28.1998H121.54L119.32 22.7798H117.32L120.65 30.3598L118.75 34.5698H120.7L125.82 22.7798H123.74ZM106.94 30.7798H108.8V18.2798H106.94V30.7798Z" fill="#F0FDFA"/>
<path d="M20.7198 20.1998L10.0698 31.4998C10.1862 31.9272 10.3992 32.3221 10.6925 32.6541C10.9857 32.986 11.3514 33.2462 11.7612 33.4143C12.1709 33.5825 12.6139 33.6542 13.0558 33.6239C13.4977 33.5937 13.9268 33.4622 14.3098 33.2398L26.3098 26.3198L20.7198 20.1998Z" fill="#EA4335"/>
<path d="M31.4902 18.2798L26.3102 15.2798L20.4902 20.4698L26.3302 26.3198L31.4802 23.3198C31.938 23.0747 32.3207 22.7099 32.5875 22.2643C32.8543 21.8188 32.9952 21.3092 32.9952 20.7898C32.9952 20.2705 32.8543 19.7609 32.5875 19.3154C32.3207 18.8698 31.938 18.505 31.4802 18.2598L31.4902 18.2798Z" fill="#FBBC04"/>
<path d="M10.07 10.0601C10.0172 10.2963 9.99366 10.5382 10 10.7801V30.7801C10.0018 31.03 10.0354 31.2787 10.1 31.5201L21.1 20.5201L10.07 10.0601Z" fill="#4285F4"/>
<path d="M20.8 20.7795L26.31 15.2695L14.31 8.32949C13.8592 8.0615 13.3445 7.91987 12.82 7.91949C12.1874 7.92131 11.5728 8.13066 11.0706 8.51543C10.5685 8.9002 10.2064 9.43912 10.04 10.0495L20.8 20.7795Z" fill="#34A853"/>
</svg>
