<svg width="250" height="94" viewBox="0 0 250 94" fill="none" xmlns="http://www.w3.org/2000/svg">
<mask id="mask0_1185_38983" style="mask-type:luminance" maskUnits="userSpaceOnUse" x="5" y="10" width="67" height="69">
<path d="M5.22949 10.0254H71.4089V78.9324H5.22949V10.0254Z" fill="white"/>
</mask>
<g mask="url(#mask0_1185_38983)">
<path d="M70.8872 77.8689C70.9355 77.8019 70.9826 77.7349 71.0239 77.6643C71.0676 77.5913 71.1055 77.5172 71.14 77.4406C71.1768 77.364 71.2112 77.2863 71.24 77.2049C71.2698 77.1248 71.2928 77.0434 71.3135 76.9597C71.333 76.8783 71.3537 76.7982 71.3663 76.7156C71.3824 76.6211 71.3882 76.5266 71.3939 76.4297C71.3974 76.3771 71.4089 76.328 71.4089 76.2742C71.4089 76.2467 71.402 76.2228 71.402 76.1964C71.3985 76.1019 71.387 76.0062 71.3744 75.9105C71.3629 75.828 71.3537 75.7466 71.3353 75.6665C71.3169 75.5875 71.2894 75.511 71.2652 75.4332C71.2342 75.3411 71.2055 75.249 71.1664 75.1616C71.1561 75.1377 71.1515 75.1126 71.14 75.0887L59.685 51.2356C59.0588 49.928 57.5284 49.3969 56.2703 50.0501C55.0122 50.7044 54.5032 52.2955 55.1317 53.6067L64.745 73.6244H56.0589L51.1839 63.189C51.1598 63.1376 51.1253 63.0957 51.0989 63.0467C51.053 62.9629 51.0081 62.8792 50.953 62.8002C50.9047 62.7309 50.8519 62.6687 50.799 62.6053C50.7439 62.5406 50.6899 62.4772 50.629 62.4186C50.5681 62.3588 50.5038 62.3074 50.4383 62.2547C50.3739 62.2021 50.3084 62.1507 50.2372 62.1052C50.1706 62.0621 50.1005 62.025 50.0304 61.9892C49.9534 61.9485 49.8764 61.9102 49.796 61.8767C49.7213 61.848 49.6466 61.8253 49.5708 61.8049C49.4892 61.781 49.4077 61.7583 49.3238 61.7427C49.2353 61.7272 49.1468 61.7212 49.0584 61.7152C49.0021 61.7104 48.9492 61.6973 48.8929 61.6973H27.7718C27.7121 61.6973 27.6569 61.7104 27.5995 61.7152C27.5122 61.7212 27.426 61.7272 27.341 61.7427C27.2548 61.7583 27.1721 61.7822 27.0905 61.8061C27.0158 61.8277 26.9411 61.848 26.8688 61.8791C26.7872 61.9102 26.7102 61.9497 26.6332 61.9904C26.562 62.0262 26.4931 62.0645 26.4264 62.1088C26.3563 62.1542 26.292 62.2057 26.2276 62.2571C26.1599 62.3098 26.0967 62.3624 26.0346 62.421C25.9749 62.4784 25.9209 62.5418 25.8669 62.6076C25.814 62.671 25.76 62.7345 25.7118 62.8038C25.6578 62.8804 25.613 62.9641 25.567 63.0491C25.5406 63.0969 25.5061 63.1388 25.482 63.1902L20.607 73.6256H11.8934L20.8023 55.0721H45.3323C46.7375 55.0721 47.8784 53.8866 47.8784 52.4211C47.8784 50.9569 46.7387 49.7701 45.3323 49.7701H23.3484L38.3203 18.5909L48.2254 39.2176H38.3203C36.9152 39.2176 35.7743 40.4043 35.7743 41.8686C35.7743 43.3316 36.914 44.5196 38.3203 44.5196H52.3409C52.3421 44.5196 52.3444 44.5196 52.3467 44.5196C52.3605 44.5196 52.3754 44.5148 52.3892 44.5148C52.5615 44.5124 52.7293 44.492 52.8901 44.455C52.9384 44.4442 52.9843 44.4227 53.0326 44.4083C53.1659 44.3688 53.2957 44.3234 53.4186 44.2624C53.4393 44.2516 53.4611 44.2492 53.4818 44.2384C53.5266 44.2145 53.5646 44.181 53.6071 44.1559C53.6875 44.1068 53.7656 44.059 53.8403 44.0028C53.9069 43.9525 53.9678 43.8975 54.0287 43.8413C54.0896 43.785 54.1494 43.7276 54.2045 43.6654C54.262 43.6008 54.3148 43.5326 54.3654 43.4632C54.4136 43.3962 54.4596 43.3304 54.5032 43.2587C54.5469 43.1869 54.5837 43.1127 54.6193 43.035C54.6561 42.9584 54.6905 42.8818 54.7192 42.7993C54.7491 42.7191 54.7721 42.6378 54.7916 42.5552C54.8123 42.4727 54.833 42.3925 54.8456 42.31C54.8617 42.2167 54.8675 42.121 54.8732 42.0253C54.8766 41.9726 54.8881 41.9236 54.8881 41.8698C54.8881 41.8434 54.8812 41.8183 54.8812 41.7932C54.8778 41.6975 54.8663 41.603 54.8537 41.5061C54.841 41.4247 54.833 41.3422 54.8158 41.262C54.7985 41.1843 54.7698 41.1053 54.7457 41.0288C54.7146 40.9366 54.6859 40.8457 54.6469 40.7572C54.6365 40.7333 54.6319 40.7093 54.6204 40.6854L40.5964 11.4789C40.5883 11.4598 40.5734 11.4466 40.5654 11.4263C40.5217 11.3389 40.4677 11.2588 40.4137 11.1774C40.3712 11.1116 40.3321 11.0458 40.2862 10.9872C40.2333 10.9202 40.1724 10.8616 40.115 10.8006C40.0541 10.7372 39.9955 10.6726 39.93 10.6164C39.8748 10.5697 39.8128 10.529 39.7519 10.486C39.6726 10.4309 39.5934 10.3735 39.5095 10.3257C39.4922 10.3161 39.4773 10.3017 39.4589 10.2934C39.4095 10.267 39.3567 10.2551 39.3061 10.2324C39.2211 10.1953 39.1361 10.1582 39.0499 10.1307C38.9695 10.1067 38.8913 10.09 38.8098 10.0732C38.7305 10.0577 38.6501 10.0409 38.5685 10.0326C38.4846 10.0254 38.4007 10.0254 38.3146 10.0254C38.2353 10.0254 38.156 10.0254 38.0767 10.0326C37.9894 10.0421 37.9055 10.0589 37.8217 10.0768C37.7447 10.0936 37.6689 10.1067 37.593 10.1307C37.5034 10.1594 37.4172 10.1965 37.3311 10.2335C37.2817 10.2551 37.2288 10.267 37.1806 10.2934C37.1622 10.3017 37.1472 10.3173 37.13 10.3257C37.0461 10.3711 36.9692 10.4273 36.891 10.4836C36.8301 10.5266 36.7658 10.5685 36.7095 10.6164C36.6452 10.6702 36.5889 10.7348 36.5291 10.7958C36.4694 10.858 36.4073 10.919 36.3533 10.9872C36.3085 11.0446 36.2694 11.1104 36.2292 11.1726C36.1752 11.2552 36.1201 11.3377 36.0753 11.4251C36.0649 11.443 36.0523 11.4586 36.0431 11.4777L5.49835 75.0887C5.48686 75.1126 5.48226 75.1377 5.47192 75.1616C5.43286 75.249 5.40183 75.3411 5.37311 75.4332C5.34898 75.511 5.32256 75.5875 5.30302 75.6665C5.28579 75.7466 5.27545 75.828 5.26396 75.9105C5.25132 76.0062 5.23983 76.1019 5.23639 76.1964C5.23639 76.2228 5.22949 76.2479 5.22949 76.2742C5.22949 76.3268 5.24098 76.3771 5.24443 76.4297C5.25017 76.5242 5.25592 76.6199 5.272 76.7156C5.28464 76.7982 5.30532 76.8795 5.32485 76.9597C5.34668 77.0434 5.36851 77.1248 5.39839 77.2049C5.42711 77.2863 5.46158 77.364 5.49835 77.4406C5.53396 77.5172 5.57188 77.5913 5.61439 77.6643C5.65575 77.7349 5.70286 77.8019 5.75111 77.8689C5.80167 77.9383 5.85337 78.0064 5.91197 78.071C5.96712 78.1332 6.02456 78.1883 6.08546 78.2445C6.14635 78.3019 6.20954 78.357 6.27618 78.4084C6.34857 78.4634 6.42555 78.5101 6.50367 78.5579C6.54848 78.5843 6.5864 78.6178 6.63351 78.6441C6.65304 78.6548 6.67717 78.6572 6.6967 78.668C6.81849 78.7266 6.94487 78.7721 7.07585 78.8104C7.12525 78.8247 7.17466 78.8462 7.22406 78.8582C7.37687 78.8929 7.53428 78.9097 7.69743 78.9156C7.72041 78.9156 7.74569 78.9252 7.76867 78.9252C7.77326 78.9252 7.77671 78.9228 7.78015 78.9228H22.1857C22.1891 78.9228 22.1903 78.9252 22.1925 78.9252C22.3465 78.9252 22.4993 78.9049 22.6498 78.8762C22.6912 78.869 22.7303 78.8594 22.7693 78.851C22.8923 78.8199 23.0129 78.7828 23.1289 78.7338C23.1531 78.7254 23.176 78.7194 23.1979 78.7087C23.3312 78.6501 23.4575 78.5759 23.5805 78.4921C23.6115 78.4718 23.6402 78.4491 23.6689 78.4263C23.7655 78.3546 23.8551 78.278 23.9412 78.1919C23.9654 78.1679 23.9918 78.1428 24.0159 78.1177C24.1193 78.0076 24.2147 77.8904 24.2997 77.76C24.3066 77.7492 24.3112 77.7385 24.317 77.7277C24.3767 77.6344 24.4318 77.5375 24.4813 77.4334L29.3574 66.9981H47.2993L52.0445 77.1559C52.3145 77.9502 52.9326 78.5615 53.7116 78.802C53.7415 78.8116 53.7702 78.8223 53.7989 78.8307C53.8759 78.8522 53.9529 78.869 54.0333 78.8821C54.1517 78.9037 54.2723 78.9168 54.3929 78.9204C54.4079 78.9204 54.4194 78.9252 54.4332 78.9252H54.4527C54.4573 78.9252 54.4596 78.9264 54.4642 78.9264C54.4665 78.9264 54.4688 78.9252 54.4711 78.9252H68.8478C68.8524 78.9252 68.857 78.9264 68.8593 78.9264C68.8835 78.9264 68.9076 78.9192 68.9306 78.9168C69.0926 78.9132 69.2523 78.8941 69.4039 78.8594C69.4545 78.8474 69.5027 78.8271 69.5521 78.8116C69.6831 78.7721 69.8107 78.7278 69.9313 78.6692C69.9531 78.6584 69.975 78.656 69.9945 78.6453C70.0416 78.6213 70.0807 78.5866 70.1243 78.5591C70.2025 78.5125 70.2794 78.4634 70.3518 78.4096C70.4185 78.3582 70.4817 78.3031 70.5425 78.2457C70.6034 78.1907 70.6609 78.1344 70.716 78.0722C70.785 78.0064 70.8355 77.9383 70.8872 77.8689Z" fill="#FBFCFE"/>
</g>
<mask id="mask1_1185_38983" style="mask-type:luminance" maskUnits="userSpaceOnUse" x="-1" y="0" width="23" height="24">
<path d="M21.9819 23.6719L-0.0778522 23.6719L-0.0778522 0.702881L21.9819 0.702881L21.9819 23.6719Z" fill="white"/>
</mask>
<g mask="url(#mask1_1185_38983)">
<path d="M20.4067 10.5448H14.7608L18.7534 6.3888C19.3704 5.74519 19.3704 4.71278 18.7534 4.06917C18.4443 3.74737 18.0433 3.58706 17.6412 3.58706C17.2402 3.58706 16.8347 3.74737 16.5256 4.06917L12.5295 8.23111V2.3465C12.5295 1.44209 11.8229 0.707563 10.9543 0.707563C10.0857 0.707563 9.37913 1.44209 9.37913 2.3465V8.22632L5.38309 4.06439C5.07403 3.74378 4.67305 3.58228 4.26747 3.58228C3.86534 3.58228 3.45976 3.74378 3.15529 4.06439C2.5429 4.708 2.5429 5.7416 3.15529 6.38402L7.14788 10.5412H1.49736C0.627604 10.5412 -0.0778503 11.2757 -0.0778503 12.1801C-0.0778503 13.0857 0.627604 13.8202 1.49736 13.8202H7.15247L3.15529 17.981C2.5429 18.6246 2.5429 19.6618 3.15529 20.3006C3.77342 20.943 4.76956 20.943 5.38309 20.3006L9.37913 16.1399L9.37913 22.0185C9.37913 22.9325 10.0857 23.667 10.9543 23.667C11.8229 23.667 12.5295 22.9325 12.5295 22.0281L12.5295 16.1482L16.5256 20.3102C17.1426 20.9526 18.1399 20.9526 18.7534 20.3102C19.3658 19.6666 19.3704 18.633 18.7534 17.9905L14.7562 13.8298H20.4067C21.2765 13.825 21.9819 13.0893 21.9819 12.1849C21.9819 11.2805 21.2765 10.5448 20.4067 10.5448Z" fill="#FF7E31"/>
</g>
<path d="M83.2677 71.2739C80.8459 71.2739 78.7059 70.7864 76.8512 69.8113C75.0035 68.8362 73.5456 67.3248 72.4808 65.2702C71.423 63.2191 70.894 60.5898 70.894 57.386C70.894 54.0533 71.4404 51.3475 72.5364 49.265C73.6291 47.1755 75.1323 45.6433 77.0461 44.6682C78.9669 43.6931 81.1382 43.2056 83.56 43.2056C84.9032 43.2056 86.222 43.3518 87.5129 43.6374C88.8109 43.916 89.8652 44.2607 90.6725 44.6682L89.3224 48.3456C88.5151 48.0496 87.5721 47.7675 86.4969 47.4959C85.4182 47.2278 84.4091 47.092 83.4626 47.092C78.1457 47.092 75.4872 50.5117 75.4872 57.3442C75.4872 60.6038 76.1309 63.1041 77.4219 64.8384C78.7198 66.5761 80.651 67.4433 83.2121 67.4433C84.6596 67.4433 85.954 67.29 87.0954 66.9836C88.2367 66.6771 89.2806 66.308 90.2271 65.8692V69.8113C89.3154 70.2849 88.3133 70.6471 87.2206 70.8978C86.1245 71.1486 84.8058 71.2739 83.2677 71.2739Z" fill="#FBFCFE"/>
<path d="M104.45 43.2471C107.742 43.2471 110.177 43.9714 111.757 45.4201C113.344 46.8688 114.137 49.1776 114.137 52.3432V70.7722H110.908L110.045 66.9276H109.85C108.671 68.4146 107.421 69.5115 106.106 70.215C104.798 70.9184 103.016 71.2736 100.761 71.2736C98.3117 71.2736 96.2796 70.6294 94.665 69.3374C93.0504 68.0385 92.2432 66.0082 92.2432 63.2501C92.2432 60.5582 93.301 58.4792 95.4166 57.0096C97.5392 55.5435 100.803 54.746 105.201 54.6137L109.795 54.4605V52.8446C109.795 50.588 109.307 49.0244 108.333 48.1503C107.359 47.2797 105.981 46.8409 104.199 46.8409C102.787 46.8409 101.443 47.0499 100.163 47.4678C98.8824 47.8857 97.6888 48.3662 96.5858 48.9025L95.2218 45.5733C96.3979 44.9326 97.7967 44.3858 99.4113 43.9296C101.026 43.4769 102.703 43.2471 104.45 43.2471ZM109.753 57.5389L105.758 57.6922C102.397 57.8315 100.069 58.3747 98.771 59.3219C97.4801 60.2622 96.8363 61.5855 96.8363 63.2919C96.8363 64.8172 97.2956 65.9316 98.2143 66.635C99.1399 67.342 100.33 67.6937 101.777 67.6937C104.032 67.6937 105.925 67.0634 107.456 65.7993C108.987 64.5386 109.753 62.5919 109.753 59.9627V57.5389Z" fill="#FBFCFE"/>
<path d="M129.676 71.2738C126.308 71.2738 123.611 70.1037 121.59 67.7635C119.575 65.4233 118.569 61.9339 118.569 57.2884C118.569 52.6463 119.585 49.1395 121.618 46.7715C123.657 44.3964 126.364 43.2054 129.732 43.2054C131.809 43.2054 133.511 43.592 134.84 44.3616C136.176 45.1347 137.262 46.075 138.097 47.1893H138.403C138.337 46.754 138.268 46.1098 138.195 45.2531C138.129 44.3895 138.097 43.7069 138.097 43.2054V32.396H142.537V70.7723H138.96L138.306 67.1367H138.097C137.29 68.2789 136.211 69.254 134.868 70.0619C133.521 70.8698 131.792 71.2738 129.676 71.2738ZM130.386 67.5964C133.243 67.5964 135.251 66.8128 136.413 65.2422C137.572 63.6751 138.153 61.3106 138.153 58.152V57.3441C138.153 53.9731 137.596 51.3891 136.483 49.5853C135.376 47.7848 133.327 46.8829 130.331 46.8829C127.944 46.8829 126.155 47.8371 124.958 49.7385C123.761 51.6434 123.162 54.1925 123.162 57.3859C123.162 60.6176 123.761 63.1319 124.958 64.9219C126.155 66.7049 127.964 67.5964 130.386 67.5964Z" fill="#FBFCFE"/>
<path d="M159.145 43.2056C161.428 43.2056 163.407 43.714 165.088 44.7239C166.776 45.7268 168.067 47.1477 168.958 48.9864C169.848 50.8182 170.294 52.9633 170.294 55.4219V58.0964H151.768C151.841 61.161 152.624 63.4942 154.12 65.0891C155.613 66.6876 157.704 67.485 160.398 67.485C162.113 67.485 163.634 67.3283 164.963 67.0114C166.289 66.6876 167.663 66.2244 169.083 65.6185V69.5048C167.698 70.1178 166.334 70.5635 164.991 70.8421C163.644 71.1277 162.047 71.2739 160.203 71.2739C157.614 71.2739 155.338 70.755 153.383 69.7138C151.434 68.6656 149.91 67.1159 148.817 65.0613C147.721 63.0101 147.175 60.4714 147.175 57.4417C147.175 54.4817 147.669 51.9395 148.664 49.8222C149.656 47.6979 151.051 46.0612 152.854 44.9189C154.653 43.7767 156.751 43.2056 159.145 43.2056ZM159.089 46.8412C156.974 46.8412 155.296 47.5238 154.065 48.8889C152.84 50.247 152.109 52.1345 151.879 54.5583H165.645C165.617 52.2738 165.078 50.4177 164.03 48.9864C162.99 47.5586 161.344 46.8412 159.089 46.8412Z" fill="#FBFCFE"/>
<path d="M204.399 43.2056C207.461 43.2056 209.747 43.9961 211.261 45.5736C212.771 47.1546 213.53 49.6794 213.53 53.1514V70.7725H209.132V53.3464C209.132 49.0769 207.298 46.9387 203.634 46.9387C201.017 46.9387 199.141 47.6979 198.011 49.2093C196.887 50.7241 196.326 52.9285 196.326 55.8259V70.7725H191.928V53.3464C191.928 49.0769 190.08 46.9387 186.388 46.9387C183.66 46.9387 181.771 47.7815 180.724 49.46C179.683 51.142 179.165 53.5658 179.165 56.7313V70.7725H174.725V43.707H178.316L178.97 47.3984H179.22C180.055 45.9776 181.186 44.9259 182.616 44.2364C184.054 43.5503 185.581 43.2056 187.196 43.2056C191.427 43.2056 194.183 44.7204 195.463 47.7466H195.714C196.622 46.197 197.85 45.0547 199.402 44.3199C200.951 43.5782 202.618 43.2056 204.399 43.2056Z" fill="#FBFCFE"/>
<path d="M221.743 33.5522C222.418 33.5522 223.017 33.7821 223.539 34.2348C224.057 34.691 224.318 35.4049 224.318 36.38C224.318 37.3551 224.057 38.0724 223.539 38.5252C223.017 38.9813 222.418 39.2077 221.743 39.2077C221.009 39.2077 220.386 38.9813 219.878 38.5252C219.377 38.0724 219.126 37.3551 219.126 36.38C219.126 35.4049 219.377 34.691 219.878 34.2348C220.386 33.7821 221.009 33.5522 221.743 33.5522ZM223.914 43.707V70.7724H219.474V43.707H223.914Z" fill="#FBFCFE"/>
<path d="M240.313 43.2471C243.604 43.2471 246.04 43.9714 247.62 45.4201C249.207 46.8688 250 49.1776 250 52.3432V70.7722H246.771L245.908 66.9276H245.713C244.533 68.4146 243.284 69.5115 241.969 70.215C240.661 70.9184 238.879 71.2736 236.624 71.2736C234.174 71.2736 232.142 70.6294 230.528 69.3374C228.913 68.0385 228.106 66.0082 228.106 63.2501C228.106 60.5582 229.164 58.4792 231.279 57.0096C233.402 55.5435 236.666 54.746 241.064 54.6137L245.657 54.4605V52.8446C245.657 50.588 245.17 49.0244 244.196 48.1503C243.222 47.2797 241.844 46.8409 240.062 46.8409C238.649 46.8409 237.306 47.0499 236.026 47.4678C234.745 47.8857 233.552 48.3662 232.449 48.9025L231.085 45.5733C232.261 44.9326 233.66 44.3858 235.274 43.9296C236.889 43.4769 238.566 43.2471 240.313 43.2471ZM245.616 57.5389L241.621 57.6922C238.26 57.8315 235.932 58.3747 234.634 59.3219C233.343 60.2622 232.699 61.5855 232.699 63.2919C232.699 64.8172 233.158 65.9316 234.077 66.635C235.003 67.342 236.193 67.6937 237.64 67.6937C239.895 67.6937 241.788 67.0634 243.319 65.7993C244.85 64.5386 245.616 62.5919 245.616 59.9627V57.5389Z" fill="#FBFCFE"/>
<path d="M79.4128 91.2412C81.6572 91.2412 83.1812 89.6254 83.1812 87.3235C83.1812 85.0773 81.6328 83.4858 79.4128 83.4858C77.1962 83.4858 75.6582 85.0773 75.6582 87.3235C75.6582 89.6497 77.1962 91.2412 79.4128 91.2412ZM79.4128 89.8656C78.1705 89.8656 77.2623 88.8348 77.2623 87.3235C77.2623 85.8783 78.1566 84.851 79.4128 84.851C80.6689 84.851 81.5667 85.9061 81.5667 87.3235C81.5667 88.807 80.6689 89.8656 79.4128 89.8656Z" fill="#FF7E31"/>
<path d="M86.1891 91.0949V87.4976C86.1891 86.3205 86.3352 85.6937 86.6971 85.2897C86.9616 84.9694 87.3652 84.8092 87.9115 84.8092C88.3674 84.8092 88.7014 84.9171 88.9276 85.1713C89.1955 85.4639 89.2999 85.9479 89.2999 86.721V91.0949H90.8901V86.721C90.8901 86.0663 90.8901 85.3698 90.5561 84.7012C90.222 84.0221 89.5678 83.4858 88.2734 83.4858C87.4696 83.4858 86.8433 83.754 86.1891 84.635V83.6182H84.6128V91.0949H86.1891Z" fill="#FF7E31"/>
<path d="M95.2461 91.0951V89.7718H94.8076C94.2439 89.7718 94.0978 89.5176 94.0978 88.9569V80.8916H92.5215V89.3713C92.5215 90.6528 93.1617 91.0951 94.2718 91.0951H95.2461Z" fill="#FF7E31"/>
<path d="M97.2648 82.6572C97.839 82.6572 98.2948 82.2567 98.2948 81.6926C98.2948 81.1319 97.839 80.7314 97.2648 80.7314C96.7046 80.7314 96.2349 81.1319 96.2349 81.6926C96.2349 82.2567 96.7046 82.6572 97.2648 82.6572ZM98.0547 91.0951V83.6184H96.4784V91.0951H98.0547Z" fill="#FF7E31"/>
<path d="M101.355 91.0949V87.4976C101.355 86.3205 101.501 85.6937 101.863 85.2897C102.128 84.9694 102.531 84.8092 103.078 84.8092C103.533 84.8092 103.867 84.9171 104.094 85.1713C104.362 85.4639 104.466 85.9479 104.466 86.721V91.0949H106.056V86.721C106.056 86.0663 106.056 85.3698 105.722 84.7012C105.388 84.0221 104.734 83.4858 103.439 83.4858C102.636 83.4858 102.009 83.754 101.355 84.635V83.6182H99.7788V91.0949H101.355Z" fill="#FF7E31"/>
<path d="M111.15 91.2412C113.112 91.2412 114.25 90.0502 114.688 88.6224H113.06C112.792 89.291 112.138 89.8656 111.188 89.8656C110.332 89.8656 109.626 89.3572 109.278 88.5145C109.145 88.2881 109.065 87.9642 109.024 87.6856H114.824V87.2852C114.824 84.6908 113.018 83.4858 111.108 83.4858C108.651 83.4858 107.419 85.4256 107.419 87.3896C107.419 89.5975 108.916 91.2412 111.15 91.2412ZM109.118 86.4424C109.156 86.2404 109.225 85.9723 109.385 85.732C109.758 85.1052 110.388 84.7709 111.16 84.7709C111.912 84.7709 112.58 85.0912 112.938 85.732C113.084 85.9584 113.154 86.2265 113.178 86.4424H109.118Z" fill="#FF7E31"/>
<path d="M122.558 91.0951V89.7718H122.12C121.556 89.7718 121.41 89.5176 121.41 88.9569V80.8916H119.833V89.3713C119.833 90.6528 120.474 91.0951 121.584 91.0951H122.558Z" fill="#FF7E31"/>
<path d="M127.211 91.2412C129.173 91.2412 130.311 90.0502 130.749 88.6224H129.121C128.853 89.291 128.199 89.8656 127.249 89.8656C126.393 89.8656 125.687 89.3572 125.339 88.5145C125.206 88.2881 125.126 87.9642 125.085 87.6856H130.885V87.2852C130.885 84.6908 129.079 83.4858 127.169 83.4858C124.712 83.4858 123.48 85.4256 123.48 87.3896C123.48 89.5975 124.977 91.2412 127.211 91.2412ZM125.179 86.4424C125.217 86.2404 125.286 85.9723 125.446 85.732C125.819 85.1052 126.449 84.7709 127.221 84.7709C127.973 84.7709 128.641 85.0912 128.999 85.732C129.145 85.9584 129.215 86.2265 129.239 86.4424H125.179Z" fill="#FF7E31"/>
<path d="M134.424 91.2412C135.093 91.2412 135.681 91.1367 136.15 90.8268C136.443 90.6387 136.697 90.3741 136.899 90.0258V91.0949H138.475V87.0414C138.475 86.1882 138.475 85.0111 137.647 84.2346C137.083 83.7261 136.269 83.4858 135.399 83.4858C133.944 83.4858 132.542 84.2868 132.274 85.9723H133.85C133.996 85.2096 134.64 84.7569 135.388 84.7569C135.869 84.7569 136.241 84.9032 136.509 85.1713C136.763 85.4395 136.899 85.8121 136.909 86.3205L134.546 86.7628C133.864 86.8951 133.262 87.0832 132.81 87.4175C132.302 87.7936 131.992 88.3264 131.992 89.0612C131.992 90.4542 132.994 91.2412 134.424 91.2412ZM134.772 89.9597C134.063 89.9597 133.568 89.6254 133.568 89.0229C133.568 88.7408 133.662 88.5284 133.836 88.3543C134.063 88.1384 134.397 88.006 134.933 87.8981L136.923 87.5115C136.923 88.5806 136.683 89.291 135.802 89.7298C135.493 89.8796 135.148 89.9597 134.772 89.9597Z" fill="#FF7E31"/>
<path d="M141.708 91.0949V87.4837C141.708 86.5225 141.906 85.8922 142.321 85.5056C142.644 85.1853 143.083 85.0251 143.698 85.0251H144.099V83.4858H143.925C143.003 83.4858 142.321 83.754 141.708 84.5549V83.6182H140.132V91.0949H141.708Z" fill="#FF7E31"/>
<path d="M146.813 91.0949V87.4976C146.813 86.3205 146.959 85.6937 147.321 85.2897C147.585 84.9694 147.989 84.8092 148.535 84.8092C148.991 84.8092 149.325 84.9171 149.551 85.1713C149.819 85.4639 149.923 85.9479 149.923 86.721V91.0949H151.514V86.721C151.514 86.0663 151.514 85.3698 151.18 84.7012C150.846 84.0221 150.191 83.4858 148.897 83.4858C148.093 83.4858 147.467 83.754 146.813 84.635V83.6182H145.236V91.0949H146.813Z" fill="#FF7E31"/>
<path d="M153.973 82.6572C154.547 82.6572 155.003 82.2567 155.003 81.6926C155.003 81.1319 154.547 80.7314 153.973 80.7314C153.413 80.7314 152.943 81.1319 152.943 81.6926C152.943 82.2567 153.413 82.6572 153.973 82.6572ZM154.763 91.0951V83.6184H153.186V91.0951H154.763Z" fill="#FF7E31"/>
<path d="M158.063 91.0949V87.4976C158.063 86.3205 158.209 85.6937 158.571 85.2897C158.836 84.9694 159.239 84.8092 159.786 84.8092C160.241 84.8092 160.575 84.9171 160.802 85.1713C161.07 85.4639 161.174 85.9479 161.174 86.721V91.0949H162.764V86.721C162.764 86.0663 162.764 85.3698 162.43 84.7012C162.096 84.0221 161.442 83.4858 160.147 83.4858C159.344 83.4858 158.717 83.754 158.063 84.635V83.6182H156.487V91.0949H158.063Z" fill="#FF7E31"/>
<path d="M167.816 93.9714C169.782 93.9714 171.264 93.2227 171.264 90.6805V83.6182H169.688V84.635C169.034 83.754 168.39 83.4858 167.454 83.4858C165.492 83.4858 164.169 85.0773 164.169 87.3235C164.169 89.5453 165.492 91.1367 167.468 91.1367C168.376 91.1367 169.034 90.8686 169.688 89.9701V91.0427C169.688 92.0317 169.138 92.7003 167.802 92.7003C166.8 92.7003 166.226 92.3521 165.986 91.5616H164.396C164.702 93.463 166.292 93.9714 167.816 93.9714ZM167.778 89.7716C166.532 89.7716 165.76 88.7025 165.76 87.3095C165.76 85.9201 166.546 84.851 167.778 84.851C168.992 84.851 169.848 85.8922 169.848 87.3095C169.848 88.7269 169.006 89.7716 167.778 89.7716Z" fill="#FF7E31"/>
<path d="M178.213 91.0949V87.3374C178.213 86.2126 178.387 85.624 178.731 85.2375C178.961 84.9554 179.309 84.8092 179.723 84.8092C180.537 84.8092 181.032 85.3594 181.032 86.4424V91.0949H182.608V87.3374C182.608 86.3345 182.73 85.6519 183.13 85.2096C183.356 84.9554 183.69 84.8092 184.146 84.8092C184.946 84.8092 185.426 85.3455 185.426 86.4424V91.0949H187.003V86.2021C187.003 84.5166 186.23 83.4858 184.532 83.4858C183.582 83.4858 182.796 83.8202 182.302 84.743C182.048 83.9002 181.272 83.4858 180.297 83.4858C179.521 83.4858 178.853 83.7818 178.213 84.635V83.6182H176.637V91.0949H178.213Z" fill="#FF7E31"/>
<path d="M190.798 91.2412C191.466 91.2412 192.054 91.1367 192.524 90.8268C192.816 90.6387 193.07 90.3741 193.272 90.0258V91.0949H194.848V87.0414C194.848 86.1882 194.848 85.0111 194.02 84.2346C193.456 83.7261 192.642 83.4858 191.772 83.4858C190.318 83.4858 188.916 84.2868 188.648 85.9723H190.224C190.37 85.2096 191.014 84.7569 191.762 84.7569C192.242 84.7569 192.614 84.9032 192.882 85.1713C193.136 85.4395 193.272 85.8121 193.282 86.3205L190.92 86.7628C190.238 86.8951 189.636 87.0832 189.183 87.4175C188.675 87.7936 188.366 88.3264 188.366 89.0612C188.366 90.4542 189.368 91.2412 190.798 91.2412ZM191.146 89.9597C190.436 89.9597 189.942 89.6254 189.942 89.0229C189.942 88.7408 190.036 88.5284 190.21 88.3543C190.436 88.1384 190.77 88.006 191.306 87.8981L193.296 87.5115C193.296 88.5806 193.056 89.291 192.176 89.7298C191.866 89.8796 191.522 89.9597 191.146 89.9597Z" fill="#FF7E31"/>
<path d="M199.512 91.2414C200.445 91.2414 201.089 90.9628 201.743 90.0782V91.0951H203.319V80.8916H201.743V84.6352C201.075 83.7402 200.421 83.486 199.512 83.486C197.546 83.486 196.224 85.0775 196.224 87.3654C196.224 89.6499 197.546 91.2414 199.512 91.2414ZM199.833 89.8797C198.59 89.8797 197.814 88.8072 197.814 87.3654C197.814 85.9202 198.59 84.8511 199.833 84.8511C201.047 84.8511 201.903 85.8924 201.903 87.3654C201.903 88.835 201.047 89.8797 199.833 89.8797Z" fill="#FF7E31"/>
<path d="M208.478 91.2412C210.44 91.2412 211.578 90.0502 212.017 88.6224H210.388C210.12 89.291 209.466 89.8656 208.516 89.8656C207.66 89.8656 206.954 89.3572 206.606 88.5145C206.473 88.2881 206.393 87.9642 206.352 87.6856H212.152V87.2852C212.152 84.6908 210.346 83.4858 208.436 83.4858C205.979 83.4858 204.748 85.4256 204.748 87.3896C204.748 89.5975 206.244 91.2412 208.478 91.2412ZM206.446 86.4424C206.484 86.2404 206.554 85.9723 206.714 85.732C207.086 85.1052 207.716 84.7709 208.488 84.7709C209.24 84.7709 209.908 85.0912 210.266 85.732C210.412 85.9584 210.482 86.2265 210.506 86.4424H206.446Z" fill="#FF7E31"/>
<path d="M220.624 91.2412C222.586 91.2412 223.724 90.0502 224.163 88.6224H222.534C222.266 89.291 221.612 89.8656 220.662 89.8656C219.806 89.8656 219.1 89.3572 218.752 88.5145C218.619 88.2881 218.539 87.9642 218.498 87.6856H224.298V87.2852C224.298 84.6908 222.492 83.4858 220.582 83.4858C218.125 83.4858 216.894 85.4256 216.894 87.3896C216.894 89.5975 218.39 91.2412 220.624 91.2412ZM218.592 86.4424C218.63 86.2404 218.7 85.9723 218.86 85.732C219.232 85.1052 219.862 84.7709 220.634 84.7709C221.386 84.7709 222.054 85.0912 222.412 85.732C222.558 85.9584 222.628 86.2265 222.652 86.4424H218.592Z" fill="#FF7E31"/>
<path d="M227.838 91.2412C228.506 91.2412 229.094 91.1367 229.563 90.8268C229.856 90.6387 230.11 90.3741 230.312 90.0258V91.0949H231.888V87.0414C231.888 86.1882 231.888 85.0111 231.06 84.2346C230.496 83.7261 229.682 83.4858 228.812 83.4858C227.357 83.4858 225.955 84.2868 225.687 85.9723H227.263C227.41 85.2096 228.053 84.7569 228.801 84.7569C229.282 84.7569 229.654 84.9032 229.922 85.1713C230.176 85.4395 230.312 85.8121 230.322 86.3205L227.959 86.7628C227.277 86.8951 226.675 87.0832 226.223 87.4175C225.715 87.7936 225.405 88.3264 225.405 89.0612C225.405 90.4542 226.407 91.2412 227.838 91.2412ZM228.186 89.9597C227.476 89.9597 226.982 89.6254 226.982 89.0229C226.982 88.7408 227.076 88.5284 227.249 88.3543C227.476 88.1384 227.81 88.006 228.346 87.8981L230.336 87.5115C230.336 88.5806 230.096 89.291 229.216 89.7298C228.906 89.8796 228.561 89.9597 228.186 89.9597Z" fill="#FF7E31"/>
<path d="M236.683 91.2412C238.58 91.2412 239.69 90.294 239.69 88.8766C239.69 87.1772 238.141 86.8708 236.816 86.627C235.855 86.4424 235.013 86.2822 235.013 85.5997C235.013 85.0773 235.507 84.7569 236.308 84.7569C237.125 84.7569 237.793 85.1191 238.02 85.9584H239.502C239.234 84.3948 238.006 83.4858 236.308 83.4858C234.773 83.4858 233.475 84.1823 233.475 85.6798C233.475 87.3095 234.971 87.6055 236.255 87.8598C237.244 88.0583 238.127 88.2463 238.127 89.009C238.127 89.6254 237.525 89.9597 236.683 89.9597C235.64 89.9597 234.971 89.4652 234.759 88.6224H233.169C233.423 90.3985 234.919 91.2412 236.683 91.2412Z" fill="#FF7E31"/>
<path d="M242.414 93.8217C243.524 93.8217 244.06 93.4351 244.499 92.178L247.547 83.6182H245.835L244.099 89.2214L242.174 83.6182H240.466L243.27 91.0671L243.002 91.7914C242.762 92.4043 242.508 92.474 242 92.474H241.214V93.8217H242.414Z" fill="#FF7E31"/>
</svg>
