<svg width="172" height="64" viewBox="0 0 172 64" fill="none" xmlns="http://www.w3.org/2000/svg">
<mask id="mask0_1215_17650" style="mask-type:luminance" maskUnits="userSpaceOnUse" x="4" y="6" width="46" height="48">
<path d="M4.1499 6.43457H49.5321V53.6871H4.1499V6.43457Z" fill="white"/>
</mask>
<g mask="url(#mask0_1215_17650)">
<path d="M49.1744 52.9576C49.2075 52.9117 49.2398 52.8657 49.2681 52.8173C49.2981 52.7673 49.3241 52.7164 49.3477 52.6639C49.3729 52.6114 49.3966 52.5581 49.4163 52.5023C49.4367 52.4474 49.4525 52.3916 49.4667 52.3341C49.4801 52.2784 49.4943 52.2234 49.5029 52.1668C49.514 52.102 49.5179 52.0372 49.5218 51.9707C49.5242 51.9346 49.5321 51.901 49.5321 51.8641C49.5321 51.8452 49.5274 51.8288 49.5274 51.8108C49.525 51.746 49.5171 51.6803 49.5084 51.6147C49.5006 51.5581 49.4943 51.5023 49.4817 51.4473C49.4691 51.3932 49.4501 51.3407 49.4336 51.2874C49.4123 51.2242 49.3926 51.161 49.3658 51.1012C49.3587 51.0847 49.3556 51.0675 49.3477 51.0511L41.4925 34.6941C41.0631 33.7974 40.0136 33.4332 39.1509 33.8811C38.2882 34.3299 37.9391 35.4209 38.3701 36.32L44.9623 50.047H39.0059L35.6629 42.8911C35.6464 42.8558 35.6228 42.8271 35.6046 42.7934C35.5731 42.736 35.5424 42.6786 35.5046 42.6244C35.4715 42.5769 35.4352 42.5342 35.399 42.4907C35.3612 42.4464 35.3242 42.403 35.2824 42.3628C35.2406 42.3217 35.1965 42.2865 35.1516 42.2504C35.1075 42.2143 35.0626 42.179 35.0137 42.1478C34.968 42.1183 34.92 42.0929 34.8719 42.0682C34.8191 42.0404 34.7663 42.0141 34.7112 41.9911C34.66 41.9714 34.6088 41.9559 34.5568 41.9419C34.5008 41.9255 34.4449 41.9099 34.3874 41.8993C34.3267 41.8886 34.266 41.8845 34.2054 41.8804C34.1667 41.8771 34.1305 41.8681 34.0919 41.8681H19.6082C19.5672 41.8681 19.5294 41.8771 19.49 41.8804C19.4301 41.8845 19.3711 41.8886 19.3128 41.8993C19.2537 41.9099 19.1969 41.9263 19.141 41.9427C19.0898 41.9575 19.0386 41.9714 18.9889 41.9928C18.933 42.0141 18.8802 42.0412 18.8274 42.0691C18.7786 42.0937 18.7313 42.1199 18.6856 42.1503C18.6375 42.1815 18.5934 42.2167 18.5493 42.252C18.5028 42.2881 18.4595 42.3242 18.4169 42.3644C18.376 42.4038 18.3389 42.4473 18.3019 42.4924C18.2657 42.5359 18.2286 42.5793 18.1955 42.6269C18.1585 42.6794 18.1278 42.7368 18.0963 42.7951C18.0781 42.8279 18.0545 42.8566 18.038 42.8919L14.695 50.0478H8.71964L14.8289 37.325H31.6502C32.6138 37.325 33.3962 36.512 33.3962 35.5071C33.3962 34.503 32.6146 33.6892 31.6502 33.6892H16.5749L26.8418 12.3083L33.6341 26.4528H26.8418C25.8782 26.4528 25.0958 27.2666 25.0958 28.2707C25.0958 29.274 25.8774 30.0886 26.8418 30.0886H36.4563C36.4571 30.0886 36.4587 30.0886 36.4603 30.0886C36.4697 30.0886 36.48 30.0854 36.4894 30.0854C36.6076 30.0837 36.7226 30.0698 36.833 30.0443C36.866 30.0369 36.8976 30.0222 36.9306 30.0123C37.022 29.9853 37.1111 29.9541 37.1954 29.9123C37.2096 29.9049 37.2245 29.9032 37.2387 29.8958C37.2694 29.8794 37.2954 29.8565 37.3246 29.8392C37.3797 29.8056 37.4333 29.7728 37.4845 29.7342C37.5302 29.6998 37.572 29.662 37.6137 29.6235C37.6555 29.5849 37.6965 29.5456 37.7343 29.5029C37.7737 29.4586 37.8099 29.4118 37.8446 29.3643C37.8777 29.3183 37.9092 29.2732 37.9391 29.224C37.9691 29.1748 37.9943 29.1239 38.0187 29.0706C38.0439 29.0181 38.0676 28.9656 38.0873 28.909C38.1077 28.854 38.1235 28.7982 38.1369 28.7416C38.1511 28.685 38.1653 28.63 38.1739 28.5734C38.185 28.5095 38.1889 28.4438 38.1928 28.3782C38.1952 28.3421 38.2031 28.3085 38.2031 28.2715C38.2031 28.2535 38.1984 28.2363 38.1984 28.219C38.196 28.1534 38.1881 28.0886 38.1794 28.0222C38.1708 27.9664 38.1653 27.9098 38.1534 27.8548C38.1416 27.8015 38.1219 27.7473 38.1054 27.6948C38.0841 27.6317 38.0644 27.5693 38.0376 27.5086C38.0305 27.4922 38.0274 27.4758 38.0195 27.4594L28.4026 7.4313C28.3971 7.41817 28.3868 7.40915 28.3813 7.3952C28.3514 7.33532 28.3143 7.28035 28.2773 7.22457C28.2482 7.17945 28.2214 7.13433 28.1899 7.09413C28.1536 7.04819 28.1119 7.008 28.0725 6.96616C28.0307 6.92268 27.9905 6.87838 27.9456 6.83982C27.9078 6.80783 27.8652 6.77994 27.8235 6.75041C27.7691 6.71267 27.7148 6.67329 27.6572 6.64048C27.6454 6.63392 27.6352 6.62407 27.6226 6.61833C27.5887 6.60028 27.5525 6.59208 27.5178 6.57649C27.4595 6.55106 27.4012 6.52563 27.3421 6.50676C27.2869 6.49035 27.2334 6.47887 27.1774 6.46738C27.1231 6.45672 27.0679 6.44523 27.012 6.43949C26.9544 6.43457 26.8969 6.43457 26.8378 6.43457C26.7835 6.43457 26.7291 6.43457 26.6747 6.43949C26.6149 6.44606 26.5574 6.45754 26.4998 6.46985C26.4471 6.48133 26.3951 6.49035 26.3431 6.50676C26.2816 6.52645 26.2225 6.55188 26.1634 6.57731C26.1295 6.59208 26.0933 6.60028 26.0602 6.61833C26.0476 6.62407 26.0373 6.63474 26.0255 6.64048C25.968 6.67165 25.9152 6.71021 25.8617 6.74877C25.8199 6.7783 25.7758 6.80701 25.7372 6.83982C25.693 6.87674 25.6544 6.92104 25.6135 6.96288C25.5725 7.00554 25.53 7.04737 25.4929 7.09413C25.4622 7.13351 25.4354 7.17863 25.4078 7.22129C25.3708 7.27789 25.333 7.3345 25.3023 7.39438C25.2952 7.40669 25.2865 7.41735 25.2802 7.43048L4.33427 51.0511C4.32639 51.0675 4.32324 51.0847 4.31615 51.1012C4.28936 51.161 4.26809 51.2242 4.24839 51.2874C4.23184 51.3407 4.21372 51.3932 4.20033 51.4473C4.18851 51.5023 4.18142 51.5581 4.17354 51.6147C4.16487 51.6803 4.15699 51.746 4.15463 51.8108C4.15463 51.8288 4.1499 51.846 4.1499 51.8641C4.1499 51.9002 4.15778 51.9346 4.16014 51.9707C4.16408 52.0355 4.16802 52.1012 4.17905 52.1668C4.18772 52.2234 4.2019 52.2792 4.2153 52.3341C4.23027 52.3916 4.24524 52.4474 4.26572 52.5023C4.28542 52.5581 4.30906 52.6114 4.33427 52.6639C4.35869 52.7164 4.38469 52.7673 4.41384 52.8173C4.44221 52.8657 4.47451 52.9117 4.5076 52.9576C4.54227 53.0052 4.57772 53.052 4.61791 53.0963C4.65572 53.1389 4.69512 53.1767 4.73688 53.2152C4.77863 53.2546 4.82197 53.2923 4.86767 53.3276C4.9173 53.3653 4.97009 53.3973 5.02367 53.4301C5.05439 53.4482 5.08039 53.4712 5.1127 53.4892C5.12609 53.4966 5.14264 53.4982 5.15603 53.5056C5.23955 53.5458 5.32621 53.577 5.41603 53.6032C5.44991 53.6131 5.48379 53.6278 5.51767 53.636C5.62246 53.6598 5.7304 53.6713 5.84228 53.6754C5.85804 53.6754 5.87537 53.682 5.89113 53.682C5.89428 53.682 5.89664 53.6803 5.89901 53.6803H15.7775C15.7799 53.6803 15.7807 53.682 15.7822 53.682C15.8878 53.682 15.9926 53.668 16.0958 53.6484C16.1242 53.6434 16.151 53.6369 16.1778 53.6311C16.2621 53.6098 16.3448 53.5844 16.4244 53.5507C16.4409 53.545 16.4567 53.5409 16.4716 53.5335C16.563 53.4933 16.6497 53.4424 16.734 53.385C16.7553 53.3711 16.775 53.3555 16.7947 53.3399C16.8609 53.2907 16.9223 53.2382 16.9814 53.1791C16.9979 53.1627 17.0161 53.1455 17.0326 53.1283C17.1035 53.0528 17.1689 52.9724 17.2272 52.883C17.2319 52.8756 17.2351 52.8682 17.239 52.8608C17.28 52.7968 17.3178 52.7304 17.3517 52.659L20.6955 45.5031H32.9991L36.2531 52.4687C36.4382 53.0134 36.8621 53.4326 37.3963 53.5975C37.4168 53.6041 37.4365 53.6114 37.4562 53.6172C37.509 53.6319 37.5617 53.6434 37.6169 53.6525C37.6981 53.6672 37.7808 53.6762 37.8635 53.6787C37.8737 53.6787 37.8816 53.682 37.8911 53.682H37.9045C37.9076 53.682 37.9092 53.6828 37.9124 53.6828C37.9139 53.6828 37.9155 53.682 37.9171 53.682H47.7759C47.779 53.682 47.7822 53.6828 47.7838 53.6828C47.8003 53.6828 47.8169 53.6779 47.8326 53.6762C47.9437 53.6738 48.0532 53.6607 48.1572 53.6369C48.1919 53.6287 48.225 53.6147 48.2589 53.6041C48.3487 53.577 48.4361 53.5466 48.5189 53.5064C48.5338 53.4991 48.5488 53.4974 48.5622 53.49C48.5945 53.4736 48.6213 53.4498 48.6512 53.431C48.7048 53.399 48.7576 53.3653 48.8072 53.3284C48.8529 53.2931 48.8963 53.2554 48.938 53.216C48.9798 53.1783 49.0192 53.1397 49.057 53.0971C49.1043 53.052 49.1389 53.0052 49.1744 52.9576Z" fill="#1D3149"/>
</g>
<mask id="mask1_1215_17650" style="mask-type:luminance" maskUnits="userSpaceOnUse" x="0" y="0" width="16" height="16">
<path d="M15.6382 15.7925L0.510841 15.7925L0.510841 0.0416231L15.6382 0.0416231L15.6382 15.7925Z" fill="white"/>
</mask>
<g mask="url(#mask1_1215_17650)">
<path d="M14.558 6.79109H10.6863L13.4242 3.94118C13.8473 3.49983 13.8473 2.79187 13.4242 2.35051C13.2123 2.12984 12.9373 2.01991 12.6616 2.01991C12.3866 2.01991 12.1085 2.12984 11.8965 2.35051L9.15627 5.20453L9.15627 1.16921C9.15627 0.549018 8.67173 0.0453205 8.07609 0.0453205C7.48045 0.0453205 6.9959 0.549018 6.9959 1.16921V5.20124L4.25565 2.34723C4.04371 2.12738 3.76873 2.01663 3.49061 2.01663C3.21485 2.01663 2.93673 2.12738 2.72794 2.34723C2.308 2.78858 2.308 3.49737 2.72794 3.9379L5.46583 6.78863H1.59103C0.994601 6.78863 0.510841 7.29233 0.510841 7.91251C0.510841 8.53352 0.994601 9.03722 1.59103 9.03722L5.46899 9.03722L2.72794 11.8904C2.308 12.3318 2.308 13.043 2.72794 13.4811C3.15182 13.9216 3.83492 13.9216 4.25565 13.4811L6.9959 10.6279V14.6591C6.9959 15.2859 7.48045 15.7896 8.07609 15.7896C8.67173 15.7896 9.15627 15.2859 9.15627 14.6657V10.6336L11.8965 13.4876C12.3196 13.9282 13.0035 13.9282 13.4242 13.4876C13.8442 13.0463 13.8473 12.3375 13.4242 11.897L10.6832 9.04378H14.558C15.1544 9.0405 15.6382 8.53598 15.6382 7.91579C15.6382 7.29561 15.1544 6.79109 14.558 6.79109Z" fill="#FF7E31"/>
</g>
<path d="M57.6644 48.4356C56.0036 48.4356 54.5361 48.1013 53.2643 47.4326C51.9972 46.764 50.9974 45.7276 50.2673 44.3186C49.5419 42.9121 49.1792 41.1091 49.1792 38.9121C49.1792 36.6267 49.5538 34.7712 50.3055 33.3432C51.0547 31.9104 52.0855 30.8596 53.3979 30.191C54.7151 29.5223 56.204 29.188 57.8648 29.188C58.7859 29.188 59.6902 29.2883 60.5755 29.4841C61.4655 29.6751 62.1885 29.9116 62.7421 30.191L61.8163 32.7127C61.2627 32.5098 60.616 32.3163 59.8787 32.1301C59.139 31.9462 58.447 31.853 57.798 31.853C54.1519 31.853 52.3289 34.1981 52.3289 38.8834C52.3289 41.1186 52.7704 42.8332 53.6556 44.0225C54.5457 45.2141 55.87 45.8087 57.6262 45.8087C58.6188 45.8087 59.5065 45.7037 60.2891 45.4935C61.0718 45.2834 61.7876 45.0302 62.4367 44.7294V47.4326C61.8115 47.7574 61.1243 48.0057 60.375 48.1777C59.6234 48.3496 58.719 48.4356 57.6644 48.4356Z" fill="#1D3149"/>
<path d="M72.1899 29.2163C74.4472 29.2163 76.1175 29.713 77.2008 30.7064C78.2889 31.6999 78.833 33.2832 78.833 35.4539V48.0914H76.6186L76.0269 45.455H75.8932C75.0843 46.4747 74.2277 47.227 73.3257 47.7093C72.4285 48.1917 71.2068 48.4353 69.6606 48.4353C67.9808 48.4353 66.5873 47.9935 65.4801 47.1075C64.3729 46.2168 63.8193 44.8246 63.8193 42.9332C63.8193 41.0873 64.5447 39.6616 65.9955 38.6539C67.451 37.6485 69.6893 37.1016 72.7053 37.0109L75.8551 36.9058V35.7978C75.8551 34.2503 75.521 33.1781 74.8529 32.5787C74.1848 31.9817 73.2398 31.6808 72.0181 31.6808C71.0494 31.6808 70.1283 31.8241 69.2502 32.1106C68.3721 32.3972 67.5537 32.7267 66.7972 33.0945L65.8619 30.8115C66.6684 30.3721 67.6276 29.9972 68.7348 29.6844C69.842 29.3739 70.9921 29.2163 72.1899 29.2163ZM75.8264 39.0168L73.0871 39.1219C70.7821 39.2174 69.1858 39.59 68.2957 40.2395C67.4105 40.8843 66.969 41.7918 66.969 42.9619C66.969 44.0079 67.284 44.772 67.914 45.2544C68.5487 45.7392 69.3647 45.9804 70.3574 45.9804C71.9036 45.9804 73.2017 45.5482 74.2516 44.6813C75.3015 43.8168 75.8264 42.4819 75.8264 40.6789V39.0168Z" fill="#1D3149"/>
<path d="M89.4897 48.4354C87.1799 48.4354 85.3306 47.633 83.9442 46.0282C82.5626 44.4235 81.873 42.0307 81.873 38.845C81.873 35.6618 82.5698 33.257 83.9633 31.6332C85.3616 30.0045 87.218 29.1878 89.5278 29.1878C90.9524 29.1878 92.1192 29.4529 93.0307 29.9807C93.947 30.5108 94.6915 31.1556 95.2642 31.9197H95.4742C95.4288 31.6212 95.3811 31.1795 95.331 30.592C95.2856 29.9998 95.2642 29.5317 95.2642 29.1878V21.7754H98.3089V48.0915H95.8559L95.4073 45.5984H95.2642C94.7106 46.3816 93.9709 47.0503 93.0498 47.6043C92.1264 48.1583 90.9405 48.4354 89.4897 48.4354ZM89.9764 45.9136C91.9355 45.9136 93.3123 45.3763 94.1093 44.2993C94.9039 43.2247 95.3024 41.6032 95.3024 39.4373V38.8832C95.3024 36.5716 94.9206 34.7997 94.157 33.5627C93.3982 32.3281 91.9927 31.7096 89.9383 31.7096C88.3014 31.7096 87.0749 32.3639 86.254 33.6678C85.4332 34.974 85.0228 36.7221 85.0228 38.9119C85.0228 41.128 85.4332 42.8521 86.254 44.0796C87.0749 45.3023 88.3157 45.9136 89.9764 45.9136Z" fill="#1D3149"/>
<path d="M109.697 29.188C111.262 29.188 112.62 29.5366 113.772 30.2292C114.929 30.9169 115.815 31.8912 116.426 33.1521C117.036 34.4082 117.342 35.8793 117.342 37.5652V39.3992H104.638C104.688 41.5007 105.225 43.1007 106.251 44.1944C107.275 45.2905 108.709 45.8374 110.556 45.8374C111.732 45.8374 112.775 45.7299 113.686 45.5126C114.595 45.2905 115.538 44.9729 116.511 44.5574V47.2225C115.562 47.6428 114.626 47.9484 113.705 48.1395C112.782 48.3353 111.687 48.4356 110.422 48.4356C108.647 48.4356 107.086 48.0798 105.745 47.3657C104.409 46.6469 103.364 45.5843 102.615 44.1753C101.863 42.7688 101.488 41.0279 101.488 38.9503C101.488 36.9205 101.827 35.1772 102.51 33.7253C103.19 32.2686 104.146 31.1462 105.382 30.3629C106.616 29.5796 108.055 29.188 109.697 29.188ZM109.658 31.6811C108.208 31.6811 107.058 32.1492 106.213 33.0853C105.373 34.0166 104.872 35.3109 104.714 36.973H114.154C114.135 35.4064 113.765 34.1336 113.047 33.1521C112.333 32.173 111.205 31.6811 109.658 31.6811Z" fill="#1D3149"/>
<path d="M140.729 29.188C142.829 29.188 144.397 29.7301 145.435 30.8118C146.471 31.896 146.991 33.6273 146.991 36.0082V48.0916H143.975V36.1419C143.975 33.2142 142.717 31.748 140.205 31.748C138.41 31.748 137.124 32.2685 136.349 33.305C135.578 34.3437 135.194 35.8554 135.194 37.8422V48.0916H132.178V36.1419C132.178 33.2142 130.91 31.748 128.379 31.748C126.508 31.748 125.212 32.3259 124.494 33.4769C123.781 34.6303 123.425 36.2924 123.425 38.4631V48.0916H120.38V29.5319H122.843L123.291 32.0632H123.463C124.036 31.0889 124.811 30.3677 125.792 29.8948C126.778 29.4244 127.825 29.188 128.932 29.188C131.834 29.188 133.724 30.2268 134.602 32.302H134.774C135.396 31.2393 136.239 30.456 137.303 29.9522C138.365 29.4435 139.508 29.188 140.729 29.188Z" fill="#1D3149"/>
<path d="M152.623 22.5679C153.086 22.5679 153.497 22.7255 153.855 23.0359C154.21 23.3488 154.389 23.8383 154.389 24.507C154.389 25.1756 154.21 25.6675 153.855 25.978C153.497 26.2908 153.086 26.446 152.623 26.446C152.12 26.446 151.693 26.2908 151.345 25.978C151.001 25.6675 150.829 25.1756 150.829 24.507C150.829 23.8383 151.001 23.3488 151.345 23.0359C151.693 22.7255 152.12 22.5679 152.623 22.5679ZM154.112 29.5314V48.0911H151.068V29.5314H154.112Z" fill="#1D3149"/>
<path d="M165.357 29.2163C167.614 29.2163 169.285 29.713 170.368 30.7064C171.456 31.6999 172 33.2832 172 35.4539V48.0914H169.786L169.194 45.455H169.06C168.251 46.4747 167.395 47.227 166.493 47.7093C165.596 48.1917 164.374 48.4353 162.828 48.4353C161.148 48.4353 159.754 47.9935 158.647 47.1075C157.54 46.2168 156.986 44.8246 156.986 42.9332C156.986 41.0873 157.712 39.6616 159.162 38.6539C160.618 37.6485 162.856 37.1016 165.872 37.0109L169.022 36.9058V35.7978C169.022 34.2503 168.688 33.1781 168.02 32.5787C167.352 31.9817 166.407 31.6808 165.185 31.6808C164.216 31.6808 163.295 31.8241 162.417 32.1106C161.539 32.3972 160.721 32.7267 159.964 33.0945L159.029 30.8115C159.835 30.3721 160.795 29.9972 161.902 29.6844C163.009 29.3739 164.159 29.2163 165.357 29.2163ZM168.993 39.0168L166.254 39.1219C163.949 39.2174 162.353 39.59 161.463 40.2395C160.577 40.8843 160.136 41.7918 160.136 42.9619C160.136 44.0079 160.451 44.772 161.081 45.2544C161.716 45.7392 162.532 45.9804 163.524 45.9804C165.071 45.9804 166.369 45.5482 167.419 44.6813C168.468 43.8168 168.993 42.4819 168.993 40.6789V39.0168Z" fill="#1D3149"/>
<path d="M55.0209 62.1277C56.56 62.1277 57.6052 61.0197 57.6052 59.4412C57.6052 57.9009 56.5433 56.8096 55.0209 56.8096C53.501 56.8096 52.4463 57.9009 52.4463 59.4412C52.4463 61.0364 53.501 62.1277 55.0209 62.1277ZM55.0209 61.1845C54.1691 61.1845 53.5463 60.4776 53.5463 59.4412C53.5463 58.4502 54.1595 57.7457 55.0209 57.7457C55.8823 57.7457 56.498 58.4693 56.498 59.4412C56.498 60.4585 55.8823 61.1845 55.0209 61.1845Z" fill="#FF7E31"/>
<path d="M59.6683 62.0274V59.5606C59.6683 58.7534 59.7686 58.3236 60.0167 58.0466C60.1981 57.8269 60.4749 57.717 60.8495 57.717C61.1621 57.717 61.3911 57.791 61.5462 57.9654C61.73 58.166 61.8016 58.4979 61.8016 59.028V62.0274H62.892V59.028C62.892 58.5791 62.892 58.1015 62.663 57.643C62.4339 57.1773 61.9853 56.8096 61.0976 56.8096C60.5464 56.8096 60.1169 56.9934 59.6683 57.5976V56.9003H58.5874V62.0274H59.6683Z" fill="#FF7E31"/>
<path d="M65.8786 62.0272V61.1198H65.578C65.1914 61.1198 65.0912 60.9454 65.0912 60.561V55.0303H64.0103V60.8451C64.0103 61.7239 64.4493 62.0272 65.2105 62.0272H65.8786Z" fill="#FF7E31"/>
<path d="M67.2629 56.2415C67.6567 56.2415 67.9692 55.9669 67.9692 55.58C67.9692 55.1955 67.6567 54.9209 67.2629 54.9209C66.8788 54.9209 66.5566 55.1955 66.5566 55.58C66.5566 55.9669 66.8788 56.2415 67.2629 56.2415ZM67.8046 62.0277V56.9006H66.7237V62.0277H67.8046Z" fill="#FF7E31"/>
<path d="M70.0677 62.0274V59.5606C70.0677 58.7534 70.168 58.3236 70.4161 58.0466C70.5975 57.8269 70.8743 57.717 71.2489 57.717C71.5615 57.717 71.7906 57.791 71.9457 57.9654C72.1294 58.166 72.201 58.4979 72.201 59.028V62.0274H73.2914V59.028C73.2914 58.5791 73.2914 58.1015 73.0624 57.643C72.8333 57.1773 72.3847 56.8096 71.4971 56.8096C70.9459 56.8096 70.5163 56.9934 70.0677 57.5976V56.9003H68.9868V62.0274H70.0677Z" fill="#FF7E31"/>
<path d="M76.7845 62.1277C78.1303 62.1277 78.9106 61.311 79.2113 60.3319H78.0945C77.9108 60.7904 77.4622 61.1845 76.8108 61.1845C76.2238 61.1845 75.7394 60.8358 75.5008 60.2579C75.4101 60.1027 75.3552 59.8806 75.3266 59.6896H79.3043V59.4149C79.3043 57.6358 78.0659 56.8096 76.7559 56.8096C75.0713 56.8096 74.2266 58.1397 74.2266 59.4866C74.2266 61.0006 75.2526 62.1277 76.7845 62.1277ZM75.391 58.837C75.4173 58.6985 75.465 58.5146 75.5747 58.3499C75.8301 57.92 76.262 57.6908 76.7917 57.6908C77.3071 57.6908 77.7652 57.9105 78.011 58.3499C78.1112 58.5051 78.159 58.689 78.1757 58.837H75.391Z" fill="#FF7E31"/>
<path d="M84.6076 62.0272V61.1198H84.307C83.9204 61.1198 83.8202 60.9454 83.8202 60.561V55.0303H82.7393V60.8451C82.7393 61.7239 83.1783 62.0272 83.9395 62.0272H84.6076Z" fill="#FF7E31"/>
<path d="M87.7982 62.1277C89.144 62.1277 89.9243 61.311 90.2249 60.3319H89.1082C88.9245 60.7904 88.4759 61.1845 87.8244 61.1845C87.2375 61.1845 86.7531 60.8358 86.5144 60.2579C86.4238 60.1027 86.3689 59.8806 86.3403 59.6896H90.318V59.4149C90.318 57.6358 89.0796 56.8096 87.7696 56.8096C86.0849 56.8096 85.2402 58.1397 85.2402 59.4866C85.2402 61.0006 86.2663 62.1277 87.7982 62.1277ZM86.4047 58.837C86.4309 58.6985 86.4787 58.5146 86.5884 58.3499C86.8437 57.92 87.2756 57.6908 87.8054 57.6908C88.3208 57.6908 88.7789 57.9105 89.0247 58.3499C89.1249 58.5051 89.1726 58.689 89.1893 58.837H86.4047Z" fill="#FF7E31"/>
<path d="M92.7446 62.1277C93.2027 62.1277 93.606 62.0561 93.9281 61.8436C94.1286 61.7146 94.3028 61.5331 94.4412 61.2943V62.0275H95.5221V59.2478C95.5221 58.6627 95.5221 57.8555 94.9542 57.323C94.5676 56.9743 94.0093 56.8096 93.4127 56.8096C92.4153 56.8096 91.4537 57.3588 91.2699 58.5146H92.3509C92.4511 57.9917 92.8925 57.6812 93.4056 57.6812C93.7348 57.6812 93.9902 57.7815 94.1739 57.9654C94.3481 58.1493 94.4412 58.4048 94.4483 58.7534L92.8281 59.0567C92.3604 59.1475 91.9476 59.2764 91.6374 59.5057C91.289 59.7636 91.0767 60.129 91.0767 60.6328C91.0767 61.5881 91.7639 62.1277 92.7446 62.1277ZM92.9832 61.2489C92.4964 61.2489 92.1576 61.0197 92.1576 60.6066C92.1576 60.4131 92.222 60.2675 92.3413 60.1481C92.4964 60 92.7255 59.9093 93.093 59.8352L94.4579 59.5702C94.4579 60.3033 94.2932 60.7904 93.6895 61.0913C93.4771 61.194 93.2409 61.2489 92.9832 61.2489Z" fill="#FF7E31"/>
<path d="M97.7391 62.0274V59.551C97.7391 58.8919 97.8751 58.4597 98.1591 58.1946C98.381 57.9749 98.6817 57.8651 99.104 57.8651H99.3784V56.8096H99.2591C98.6268 56.8096 98.1591 56.9934 97.7391 57.5427V56.9003H96.6582V62.0274H97.7391Z" fill="#FF7E31"/>
<path d="M101.24 62.0274V59.5606C101.24 58.7534 101.34 58.3236 101.588 58.0466C101.769 57.8269 102.046 57.717 102.421 57.717C102.733 57.717 102.962 57.791 103.118 57.9654C103.301 58.166 103.373 58.4979 103.373 59.028V62.0274H104.463V59.028C104.463 58.5791 104.463 58.1015 104.234 57.643C104.005 57.1773 103.557 56.8096 102.669 56.8096C102.118 56.8096 101.688 56.9934 101.24 57.5976V56.9003H100.159V62.0274H101.24Z" fill="#FF7E31"/>
<path d="M106.15 56.2415C106.543 56.2415 106.856 55.9669 106.856 55.58C106.856 55.1955 106.543 54.9209 106.15 54.9209C105.765 54.9209 105.443 55.1955 105.443 55.58C105.443 55.9669 105.765 56.2415 106.15 56.2415ZM106.691 62.0277V56.9006H105.61V62.0277H106.691Z" fill="#FF7E31"/>
<path d="M108.955 62.0274V59.5606C108.955 58.7534 109.055 58.3236 109.303 58.0466C109.485 57.8269 109.761 57.717 110.136 57.717C110.449 57.717 110.678 57.791 110.833 57.9654C111.017 58.166 111.088 58.4979 111.088 59.028V62.0274H112.179V59.028C112.179 58.5791 112.179 58.1015 111.95 57.643C111.721 57.1773 111.272 56.8096 110.384 56.8096C109.833 56.8096 109.404 56.9934 108.955 57.5976V56.9003H107.874V62.0274H108.955Z" fill="#FF7E31"/>
<path d="M115.643 63.9999C116.991 63.9999 118.007 63.4865 118.007 61.7432V56.9003H116.927V57.5976C116.478 56.9934 116.036 56.8096 115.395 56.8096C114.049 56.8096 113.142 57.9009 113.142 59.4412C113.142 60.9647 114.049 62.0561 115.404 62.0561C116.027 62.0561 116.478 61.8722 116.927 61.2561V61.9916C116.927 62.6698 116.55 63.1283 115.633 63.1283C114.946 63.1283 114.552 62.8895 114.388 62.3474H113.297C113.507 63.6513 114.598 63.9999 115.643 63.9999ZM115.617 61.12C114.762 61.12 114.233 60.3868 114.233 59.4316C114.233 58.4788 114.772 57.7457 115.617 57.7457C116.449 57.7457 117.036 58.4597 117.036 59.4316C117.036 60.4036 116.459 61.12 115.617 61.12Z" fill="#FF7E31"/>
<path d="M122.773 62.0274V59.4507C122.773 58.6794 122.892 58.2758 123.128 58.0107C123.286 57.8173 123.524 57.717 123.808 57.717C124.367 57.717 124.706 58.0943 124.706 58.837V62.0274H125.787V59.4507C125.787 58.763 125.87 58.2949 126.144 57.9916C126.3 57.8173 126.529 57.717 126.841 57.717C127.39 57.717 127.719 58.0848 127.719 58.837V62.0274H128.8V58.6722C128.8 57.5164 128.271 56.8096 127.106 56.8096C126.455 56.8096 125.915 57.0388 125.577 57.6716C125.402 57.0937 124.87 56.8096 124.202 56.8096C123.67 56.8096 123.212 57.0126 122.773 57.5976V56.9003H121.692V62.0274H122.773Z" fill="#FF7E31"/>
<path d="M131.403 62.1277C131.861 62.1277 132.265 62.0561 132.587 61.8436C132.787 61.7146 132.961 61.5331 133.1 61.2943V62.0275H134.181V59.2478C134.181 58.6627 134.181 57.8555 133.613 57.323C133.226 56.9743 132.668 56.8096 132.071 56.8096C131.074 56.8096 130.112 57.3588 129.929 58.5146H131.01C131.11 57.9917 131.551 57.6812 132.064 57.6812C132.394 57.6812 132.649 57.7815 132.833 57.9654C133.007 58.1493 133.1 58.4048 133.107 58.7534L131.487 59.0567C131.019 59.1475 130.606 59.2764 130.296 59.5057C129.948 59.7636 129.735 60.129 129.735 60.6328C129.735 61.5881 130.423 62.1277 131.403 62.1277ZM131.642 61.2489C131.155 61.2489 130.816 61.0197 130.816 60.6066C130.816 60.4131 130.881 60.2675 131 60.1481C131.155 60 131.384 59.9093 131.752 59.8352L133.117 59.5702C133.117 60.3033 132.952 60.7904 132.348 61.0913C132.136 61.194 131.9 61.2489 131.642 61.2489Z" fill="#FF7E31"/>
<path d="M137.378 62.1275C138.017 62.1275 138.459 61.9365 138.907 61.3299V62.0272H139.988V55.0303H138.907V57.5974C138.449 56.9837 138.001 56.8094 137.378 56.8094C136.03 56.8094 135.123 57.9007 135.123 59.4696C135.123 61.0362 136.03 62.1275 137.378 62.1275ZM137.597 61.1938C136.746 61.1938 136.214 60.4583 136.214 59.4696C136.214 58.4786 136.746 57.7455 137.597 57.7455C138.43 57.7455 139.017 58.4595 139.017 59.4696C139.017 60.4774 138.43 61.1938 137.597 61.1938Z" fill="#FF7E31"/>
<path d="M143.527 62.1277C144.873 62.1277 145.653 61.311 145.953 60.3319H144.837C144.653 60.7904 144.204 61.1845 143.553 61.1845C142.966 61.1845 142.482 60.8358 142.243 60.2579C142.152 60.1027 142.097 59.8806 142.069 59.6896H146.047V59.4149C146.047 57.6358 144.808 56.8096 143.498 56.8096C141.813 56.8096 140.969 58.1397 140.969 59.4866C140.969 61.0006 141.995 62.1277 143.527 62.1277ZM142.133 58.837C142.159 58.6985 142.207 58.5146 142.317 58.3499C142.572 57.92 143.004 57.6908 143.534 57.6908C144.049 57.6908 144.507 57.9105 144.753 58.3499C144.853 58.5051 144.901 58.689 144.918 58.837H142.133Z" fill="#FF7E31"/>
<path d="M151.856 62.1277C153.202 62.1277 153.982 61.311 154.283 60.3319H153.166C152.983 60.7904 152.534 61.1845 151.883 61.1845C151.296 61.1845 150.811 60.8358 150.573 60.2579C150.482 60.1027 150.427 59.8806 150.398 59.6896H154.376V59.4149C154.376 57.6358 153.138 56.8096 151.828 56.8096C150.143 56.8096 149.298 58.1397 149.298 59.4866C149.298 61.0006 150.324 62.1277 151.856 62.1277ZM150.463 58.837C150.489 58.6985 150.537 58.5146 150.647 58.3499C150.902 57.92 151.334 57.6908 151.863 57.6908C152.379 57.6908 152.837 57.9105 153.083 58.3499C153.183 58.5051 153.231 58.689 153.247 58.837H150.463Z" fill="#FF7E31"/>
<path d="M156.802 62.1277C157.26 62.1277 157.664 62.0561 157.986 61.8436C158.186 61.7146 158.36 61.5331 158.499 61.2943V62.0275H159.58V59.2478C159.58 58.6627 159.58 57.8555 159.012 57.323C158.625 56.9743 158.067 56.8096 157.47 56.8096C156.473 56.8096 155.511 57.3588 155.328 58.5146H156.408C156.509 57.9917 156.95 57.6812 157.463 57.6812C157.792 57.6812 158.048 57.7815 158.232 57.9654C158.406 58.1493 158.499 58.4048 158.506 58.7534L156.886 59.0567C156.418 59.1475 156.005 59.2764 155.695 59.5057C155.347 59.7636 155.134 60.129 155.134 60.6328C155.134 61.5881 155.821 62.1277 156.802 62.1277ZM157.041 61.2489C156.554 61.2489 156.215 61.0197 156.215 60.6066C156.215 60.4131 156.28 60.2675 156.399 60.1481C156.554 60 156.783 59.9093 157.151 59.8352L158.515 59.5702C158.515 60.3033 158.351 60.7904 157.747 61.0913C157.535 61.194 157.299 61.2489 157.041 61.2489Z" fill="#FF7E31"/>
<path d="M162.869 62.1277C164.169 62.1277 164.931 61.4782 164.931 60.5063C164.931 59.3409 163.869 59.1308 162.96 58.9636C162.301 58.837 161.724 58.7272 161.724 58.2591C161.724 57.9009 162.062 57.6812 162.611 57.6812C163.172 57.6812 163.63 57.9296 163.785 58.5051H164.802C164.618 57.4329 163.776 56.8096 162.611 56.8096C161.559 56.8096 160.669 57.2872 160.669 58.314C160.669 59.4316 161.695 59.6346 162.576 59.809C163.253 59.9451 163.859 60.074 163.859 60.597C163.859 61.0197 163.446 61.2489 162.869 61.2489C162.153 61.2489 161.695 60.9098 161.549 60.3319H160.459C160.633 61.5498 161.659 62.1277 162.869 62.1277Z" fill="#FF7E31"/>
<path d="M166.799 63.8973C167.56 63.8973 167.928 63.6323 168.228 62.7702L170.319 56.9004H169.145L167.954 60.7427L166.634 56.9004H165.463L167.386 62.0084L167.202 62.5051C167.038 62.9254 166.864 62.9732 166.515 62.9732H165.976V63.8973H166.799Z" fill="#FF7E31"/>
</svg>
